999
dxfrw 0.6.3
  0
SECTION
  2
HEADER
  9
$ACADVER
  1
AC1021
  9
$DWGCODEPAGE
  3
ANSI_1252
  9
$INSBASE
 10
0
 20
0
 30
0
  9
$EXTMIN
 10
0.231232
 20
0.49691
 30
0
  9
$EXTMAX
 10
103078.995
 20
64204.467
 30
0
  9
$LIMMIN
 10
0
 20
0
  9
$LIMMAX
 10
420
 20
297
  9
$ORTHOMODE
 70
    0
  9
$REGENMODE
 70
    1
  9
$FILLMODE
 70
    1
  9
$QTEXTMODE
 70
    0
  9
$MIRRTEXT
 70
    0
  9
$LTSCALE
 40
1
  9
$ATTMODE
 70
    0
  9
$TEXTSIZE
 40
2.5
  9
$TRACEWID
 40
15.68
  9
$TEXTSTYLE
  7
STANDARD
  9
$CLAYER
  8
SIMPLECUTS
  9
$CELTYPE
  6
BYLAYER
  9
$CECOLOR
 62
  256
  9
$CELTSCALE
 40
1
  9
$DISPSILH
 70
    0
  9
$DIMSCALE
 40
1
  9
$DIMASZ
 40
2.5
  9
$DIMEXO
 40
0.625
  9
$DIMDLI
 40
3.75
  9
$DIMRND
 40
0
  9
$DIMDLE
 40
0
  9
$DIMEXE
 40
1.25
  9
$DIMTP
 40
0
  9
$DIMTM
 40
0
  9
$DIMTXT
 40
2.5
  9
$DIMCEN
 40
2.5
  9
$DIMTSZ
 40
0
  9
$DIMTOL
 70
    0
  9
$DIMLIM
 70
    0
  9
$DIMTIH
 70
    0
  9
$DIMTOH
 70
    0
  9
$DIMSE1
 70
    0
  9
$DIMSE2
 70
    0
  9
$DIMTAD
 70
    1
  9
$DIMZIN
 70
    1
  9
$DIMBLK
  1

  9
$DIMASO
 70
    1
  9
$DIMSHO
 70
    1
  9
$DIMPOST
  1

  9
$DIMAPOST
  1

  9
$DIMALT
 70
    0
  9
$DIMALTD
 70
    3
  9
$DIMALTF
 40
0.03937
  9
$DIMLFAC
 40
1
  9
$DIMTOFL
 70
    1
  9
$DIMTVP
 40
0
  9
$DIMTIX
 70
    0
  9
$DIMSOXD
 70
    0
  9
$DIMSAH
 70
    0
  9
$DIMBLK1
  1

  9
$DIMBLK2
  1

  9
$DIMSTYLE
  2
Standard
  9
$DIMCLRD
 70
    0
  9
$DIMCLRE
 70
    0
  9
$DIMCLRT
 70
    0
  9
$DIMTFAC
 40
1
  9
$DIMGAP
 40
0.625
  9
$DIMJUST
 70
    0
  9
$DIMSD1
 70
    0
  9
$DIMSD2
 70
    0
  9
$DIMTOLJ
 70
    0
  9
$DIMTZIN
 70
    8
  9
$DIMALTZ
 70
    0
  9
$DIMALTTZ
 70
    0
  9
$DIMUPT
 70
    0
  9
$DIMDEC
 70
    4
  9
$DIMTDEC
 70
    2
  9
$DIMALTU
 70
    2
  9
$DIMALTTD
 70
    3
  9
$DIMTXSTY
  7
standard
  9
$DIMAUNIT
 70
    0
  9
$DIMADEC
 70
    2
  9
$DIMALTRND
 40
0
  9
$DIMAZIN
 70
    0
  9
$DIMDSEP
 70
    0
  9
$DIMATFIT
 70
    3
  9
$DIMFRAC
 70
    0
  9
$DIMLDRBLK
  1
STANDARD
  9
$DIMLUNIT
 70
    2
  9
$DIMLWD
 70
   -2
  9
$DIMLWE
 70
   -2
  9
$DIMTMOVE
 70
    0
  9
$DIMFXL
 40
1
  9
$DIMFXLON
 70
    0
  9
$DIMJOGANG
 40
0.7854
  9
$DIMTFILL
 70
    0
  9
$DIMTFILLCLR
 70
    0
  9
$DIMARCSYM
 70
    0
  9
$DIMLTYPE
  6

  9
$DIMLTEX1
  6

  9
$DIMLTEX2
  6

  9
$LUNITS
 70
    2
  9
$LUPREC
 70
    4
  9
$SKETCHINC
 40
1
  9
$FILLETRAD
 40
0
  9
$AUNITS
 70
    0
  9
$AUPREC
 70
    2
  9
$MENU
  1
.
  9
$ELEVATION
 40
0
  9
$PELEVATION
 40
0
  9
$THICKNESS
 40
0
  9
$LIMCHECK
 70
    0
  9
$CHAMFERA
 40
0
  9
$CHAMFERB
 40
0
  9
$CHAMFERC
 40
0
  9
$CHAMFERD
 40
0
  9
$SKPOLY
 70
    0
  9
$USRTIMER
 70
    1
  9
$ANGBASE
 50
0
  9
$ANGDIR
 70
    0
  9
$PDMODE
 70
   34
  9
$PDSIZE
 40
0
  9
$PLINEWID
 40
0
  9
$SPLFRAME
 70
    0
  9
$SPLINETYPE
 70
    2
  9
$SPLINESEGS
 70
    8
  9
$HANDSEED
  5
20000
  9
$SURFTAB1
 70
    6
  9
$SURFTAB2
 70
    6
  9
$SURFTYPE
 70
    6
  9
$SURFU
 70
    6
  9
$SURFV
 70
    6
  9
$UCSBASE
  2

  9
$UCSNAME
  2

  9
$UCSORG
 10
0
 20
0
 30
0
  9
$UCSXDIR
 10
1
 20
0
 30
0
  9
$UCSYDIR
 10
0
 20
1
 30
0
  9
$UCSORTHOREF
  2

  9
$UCSORTHOVIEW
 70
    0
  9
$UCSORGTOP
 10
0
 20
0
 30
0
  9
$UCSORGBOTTOM
 10
0
 20
0
 30
0
  9
$UCSORGLEFT
 10
0
 20
0
 30
0
  9
$UCSORGRIGHT
 10
0
 20
0
 30
0
  9
$UCSORGFRONT
 10
0
 20
0
 30
0
  9
$UCSORGBACK
 10
0
 20
0
 30
0
  9
$PUCSBASE
  2

  9
$PUCSNAME
  2

  9
$PUCSORG
 10
0
 20
0
 30
0
  9
$PUCSXDIR
 10
1
 20
0
 30
0
  9
$PUCSYDIR
 10
0
 20
1
 30
0
  9
$PUCSORTHOREF
  2

  9
$PUCSORTHOVIEW
 70
    0
  9
$PUCSORGTOP
 10
0
 20
0
 30
0
  9
$PUCSORGBOTTOM
 10
0
 20
0
 30
0
  9
$PUCSORGLEFT
 10
0
 20
0
 30
0
  9
$PUCSORGRIGHT
 10
0
 20
0
 30
0
  9
$PUCSORGFRONT
 10
0
 20
0
 30
0
  9
$PUCSORGBACK
 10
0
 20
0
 30
0
  9
$USERI1
 70
    0
  9
$USERI2
 70
    0
  9
$USERI3
 70
    0
  9
$USERI4
 70
    0
  9
$USERI5
 70
    0
  9
$USERR1
 40
0
  9
$USERR2
 40
0
  9
$USERR3
 40
0
  9
$USERR4
 40
0
  9
$USERR5
 40
0
  9
$WORLDVIEW
 70
    1
  9
$SHADEDGE
 70
    3
  9
$SHADEDIF
 70
   70
  9
$TILEMODE
 70
    1
  9
$MAXACTVP
 70
   64
  9
$PINSBASE
 10
0
 20
0
 30
0
  9
$PLIMCHECK
 70
    0
  9
$PEXTMIN
 10
0
 20
0
 30
0
  9
$PEXTMAX
 10
0
 20
0
 30
0
  9
$GRIDMODE
 70
    1
  9
$SNAPSTYLE
 70
    0
  9
$GRIDUNIT
 10
0
 20
0
  9
$PLIMMIN
 10
0
 20
0
  9
$PLIMMAX
 10
0.00073228
 20
0.00054921
  9
$UNITMODE
 70
    0
  9
$VISRETAIN
 70
    1
  9
$PLINEGEN
 70
    0
  9
$PSLTSCALE
 70
    1
  9
$TREEDEPTH
 70
 3020
  9
$CMLSTYLE
  2
Standard
  9
$CMLJUST
 70
    0
  9
$CMLSCALE
 40
20
  9
$PROXYGRAPHICS
 70
    1
  9
$MEASUREMENT
 70
    1
  9
$CELWEIGHT
370
   -1
  9
$ENDCAPS
280
    0
  9
$JOINSTYLE
280
    0
  9
$LWDISPLAY
290
    0
  9
$INSUNITS
 70
    4
  9
$HYPERLINKBASE
  1

  9
$STYLESHEET
  1

  9
$XEDIT
290
    1
  9
$CEPSNTYPE
380
    0
  9
$PSTYLEMODE
290
    1
  9
$EXTNAMES
290
    1
  9
$PSVPSCALE
 40
1
  9
$OLESTARTUP
290
    0
  9
$SORTENTS
280
  127
  9
$INDEXCTL
280
    0
  9
$HIDETEXT
280
    1
  9
$XCLIPFRAME
290
    0
  9
$HALOGAP
280
    0
  9
$OBSCOLOR
 70
  257
  9
$OBSLTYPE
280
    0
  9
$INTERSECTIONDISPLAY
280
    0
  9
$INTERSECTIONCOLOR
 70
  257
  9
$DIMASSOC
280
    1
  9
$PROJECTNAME
  1

  9
$CAMERADISPLAY
290
    0
  9
$LENSLENGTH
 40
50
  9
$CAMERAHEIGHT
 40
0
  9
$STEPSPERSEC
 40
2
  9
$STEPSIZE
 40
50
  9
$3DDWFPREC
 40
2
  9
$PSOLWIDTH
 40
5
  9
$PSOLHEIGHT
 40
80
  9
$LOFTANG1
 40
1.570796326794897
  9
$LOFTANG2
 40
1.570796326794897
  9
$LOFTMAG1
 40
0
  9
$LOFTMAG2
 40
0
  9
$LOFTPARAM
 70
    7
  9
$LOFTNORMALS
280
    1
  9
$LATITUDE
 40
1
  9
$LONGITUDE
 40
1
  9
$NORTHDIRECTION
 40
0
  9
$TIMEZONE
 70
-8000
  9
$LIGHTGLYPHDISPLAY
280
    1
  9
$TILEMODELIGHTSYNCH
280
    1
  9
$SOLIDHIST
280
    1
  9
$SHOWHIST
280
    1
  9
$DWFFRAME
280
    2
  9
$DGNFRAME
280
    0
  9
$REALWORLDSCALE
290
    1
  9
$INTERFERECOLOR
 62
    1
  9
$CSHADOW
280
    0
  9
$SHADOWPLANELOCATION
 40
0
  0
ENDSEC
  0
SECTION
  2
CLASSES
  0
ENDSEC
  0
SECTION
  2
TABLES
  0
TABLE
  2
VPORT
  5
8
330
0
100
AcDbSymbolTable
 70
    1
  0
VPORT
  5
31
330
2
100
AcDbSymbolTableRecord
100
AcDbViewportTableRecord
  2
*ACTIVE
 70
    0
 10
0
 20
0
 11
1
 21
1
 12
64512.2014282962
 22
39229.59074894553
 13
0
 23
0
 14
10
 24
10
 15
10
 25
10
 16
0
 26
0
 36
1
 17
0
 27
0
 37
0
 40
96976.02312220423
 41
1.734394124847001
 42
50
 43
0
 44
0
 50
0
 51
0
 71
    0
 72
  100
 73
    1
 74
    3
 75
    0
 76
    1
 77
    0
 78
    0
281
    0
 65
    1
110
0
120
0
130
0
111
1
121
0
131
0
112
0
122
1
132
0
 79
    0
146
0
348
10020
 60
    7
 61
    5
292
1
282
    1
141
0
142
0
 63
  250
421
3358443
  0
ENDTAB
  0
TABLE
  2
LTYPE
  5
5
330
0
100
AcDbSymbolTable
 70
    4
  0
LTYPE
  5
14
330
5
100
AcDbSymbolTableRecord
100
AcDbLinetypeTableRecord
  2
ByBlock
 70
    0
  3

 72
   65
 73
    0
 40
0
  0
LTYPE
  5
15
330
5
100
AcDbSymbolTableRecord
100
AcDbLinetypeTableRecord
  2
ByLayer
 70
    0
  3

 72
   65
 73
    0
 40
0
  0
LTYPE
  5
16
330
5
100
AcDbSymbolTableRecord
100
AcDbLinetypeTableRecord
  2
Continuous
 70
    0
  3
Solid line
 72
   65
 73
    0
 40
0
  0
LTYPE
  5
32
330
5
100
AcDbSymbolTableRecord
100
AcDbLinetypeTableRecord
  2
DOT
 70
    0
  3
Dot . . . . . . . . . . . . . . . . . . . . . .
 72
   65
 73
    2
 40
6.35
 49
0
 74
    0
 49
-6.35
 74
    0
  0
LTYPE
  5
33
330
5
100
AcDbSymbolTableRecord
100
AcDbLinetypeTableRecord
  2
DOTTINY
 70
    0
  3
Dot (.15x) .....................................
 72
   65
 73
    2
 40
0.9525
 49
0
 74
    0
 49
-0.9525
 74
    0
  0
LTYPE
  5
34
330
5
100
AcDbSymbolTableRecord
100
AcDbLinetypeTableRecord
  2
DOT2
 70
    0
  3
Dot (.5x) .....................................
 72
   65
 73
    2
 40
3.175
 49
0
 74
    0
 49
-3.175
 74
    0
  0
LTYPE
  5
35
330
5
100
AcDbSymbolTableRecord
100
AcDbLinetypeTableRecord
  2
DOTX2
 70
    0
  3
Dot (2x) .  .  .  .  .  .  .  .  .  .  .  .  .
 72
   65
 73
    2
 40
12.7
 49
0
 74
    0
 49
-12.7
 74
    0
  0
LTYPE
  5
36
330
5
100
AcDbSymbolTableRecord
100
AcDbLinetypeTableRecord
  2
DASHED
 70
    0
  3
Dashed _ _ _ _ _ _ _ _ _ _ _ _ _ _ _ _ _
 72
   65
 73
    2
 40
19.05
 49
12.7
 74
    0
 49
-6.35
 74
    0
  0
LTYPE
  5
37
330
5
100
AcDbSymbolTableRecord
100
AcDbLinetypeTableRecord
  2
DASHEDTINY
 70
    0
  3
Dashed (.15x) _ _ _ _ _ _ _ _ _ _ _ _ _ _ _ _ _
 72
   65
 73
    2
 40
2.8575
 49
1.905
 74
    0
 49
-0.9525
 74
    0
  0
LTYPE
  5
38
330
5
100
AcDbSymbolTableRecord
100
AcDbLinetypeTableRecord
  2
DASHED2
 70
    0
  3
Dashed (.5x) _ _ _ _ _ _ _ _ _ _ _ _ _ _ _ _ _
 72
   65
 73
    2
 40
9.524999999999999
 49
6.35
 74
    0
 49
-3.175
 74
    0
  0
LTYPE
  5
39
330
5
100
AcDbSymbolTableRecord
100
AcDbLinetypeTableRecord
  2
DASHEDX2
 70
    0
  3
Dashed (2x) ____  ____  ____  ____  ____  ___
 72
   65
 73
    2
 40
38.09999999999999
 49
25.4
 74
    0
 49
-12.7
 74
    0
  0
LTYPE
  5
3A
330
5
100
AcDbSymbolTableRecord
100
AcDbLinetypeTableRecord
  2
DASHDOT
 70
    0
  3
Dash dot __ . __ . __ . __ . __ . __ . __ . __
 72
   65
 73
    4
 40
25.4
 49
12.7
 74
    0
 49
-6.35
 74
    0
 49
0
 74
    0
 49
-6.35
 74
    0
  0
LTYPE
  5
3B
330
5
100
AcDbSymbolTableRecord
100
AcDbLinetypeTableRecord
  2
DASHDOTTINY
 70
    0
  3
Dash dot (.15x) _._._._._._._._._._._._._._._.
 72
   65
 73
    4
 40
3.81
 49
1.905
 74
    0
 49
-0.9525
 74
    0
 49
0
 74
    0
 49
-0.9525
 74
    0
  0
LTYPE
  5
3C
330
5
100
AcDbSymbolTableRecord
100
AcDbLinetypeTableRecord
  2
DASHDOT2
 70
    0
  3
Dash dot (.5x) _._._._._._._._._._._._._._._.
 72
   65
 73
    4
 40
12.7
 49
6.35
 74
    0
 49
-3.175
 74
    0
 49
0
 74
    0
 49
-3.175
 74
    0
  0
LTYPE
  5
3D
330
5
100
AcDbSymbolTableRecord
100
AcDbLinetypeTableRecord
  2
DASHDOTX2
 70
    0
  3
Dash dot (2x) ____  .  ____  .  ____  .  ___
 72
   65
 73
    4
 40
50.8
 49
25.4
 74
    0
 49
-12.7
 74
    0
 49
0
 74
    0
 49
-12.7
 74
    0
  0
LTYPE
  5
3E
330
5
100
AcDbSymbolTableRecord
100
AcDbLinetypeTableRecord
  2
DIVIDE
 70
    0
  3
Divide ____ . . ____ . . ____ . . ____ . . ____
 72
   65
 73
    6
 40
31.75
 49
12.7
 74
    0
 49
-6.35
 74
    0
 49
0
 74
    0
 49
-6.35
 74
    0
 49
0
 74
    0
 49
-6.35
 74
    0
  0
LTYPE
  5
3F
330
5
100
AcDbSymbolTableRecord
100
AcDbLinetypeTableRecord
  2
DIVIDETINY
 70
    0
  3
Divide (.15x) __..__..__..__..__..__..__..__.._
 72
   65
 73
    6
 40
4.7625
 49
1.905
 74
    0
 49
-0.9525
 74
    0
 49
0
 74
    0
 49
-0.9525
 74
    0
 49
0
 74
    0
 49
-0.9525
 74
    0
  0
LTYPE
  5
40
330
5
100
AcDbSymbolTableRecord
100
AcDbLinetypeTableRecord
  2
DIVIDE2
 70
    0
  3
Divide (.5x) __..__..__..__..__..__..__..__.._
 72
   65
 73
    6
 40
15.875
 49
6.35
 74
    0
 49
-3.175
 74
    0
 49
0
 74
    0
 49
-3.175
 74
    0
 49
0
 74
    0
 49
-3.175
 74
    0
  0
LTYPE
  5
41
330
5
100
AcDbSymbolTableRecord
100
AcDbLinetypeTableRecord
  2
DIVIDEX2
 70
    0
  3
Divide (2x) ________  .  .  ________  .  .  _
 72
   65
 73
    6
 40
63.5
 49
25.4
 74
    0
 49
-12.7
 74
    0
 49
0
 74
    0
 49
-12.7
 74
    0
 49
0
 74
    0
 49
-12.7
 74
    0
  0
LTYPE
  5
42
330
5
100
AcDbSymbolTableRecord
100
AcDbLinetypeTableRecord
  2
BORDER
 70
    0
  3
Border __ __ . __ __ . __ __ . __ __ . __ __ .
 72
   65
 73
    6
 40
44.45
 49
12.7
 74
    0
 49
-6.35
 74
    0
 49
12.7
 74
    0
 49
-6.35
 74
    0
 49
0
 74
    0
 49
-6.35
 74
    0
  0
LTYPE
  5
43
330
5
100
AcDbSymbolTableRecord
100
AcDbLinetypeTableRecord
  2
BORDERTINY
 70
    0
  3
Border (.15x) __.__.__.__.__.__.__.__.__.__.__.
 72
   65
 73
    6
 40
6.6675
 49
1.905
 74
    0
 49
-0.9525
 74
    0
 49
1.905
 74
    0
 49
-0.9525
 74
    0
 49
0
 74
    0
 49
-0.9525
 74
    0
  0
LTYPE
  5
44
330
5
100
AcDbSymbolTableRecord
100
AcDbLinetypeTableRecord
  2
BORDER2
 70
    0
  3
Border (.5x) __.__.__.__.__.__.__.__.__.__.__.
 72
   65
 73
    6
 40
22.225
 49
6.35
 74
    0
 49
-3.175
 74
    0
 49
6.35
 74
    0
 49
-3.175
 74
    0
 49
0
 74
    0
 49
-3.175
 74
    0
  0
LTYPE
  5
45
330
5
100
AcDbSymbolTableRecord
100
AcDbLinetypeTableRecord
  2
BORDERX2
 70
    0
  3
Border (2x) ____  ____  .  ____  ____  .  ___
 72
   65
 73
    6
 40
88.89999999999999
 49
25.4
 74
    0
 49
-12.7
 74
    0
 49
25.4
 74
    0
 49
-12.7
 74
    0
 49
0
 74
    0
 49
-12.7
 74
    0
  0
LTYPE
  5
46
330
5
100
AcDbSymbolTableRecord
100
AcDbLinetypeTableRecord
  2
CENTER
 70
    0
  3
Center ____ _ ____ _ ____ _ ____ _ ____ _ ____
 72
   65
 73
    4
 40
50.8
 49
31.75
 74
    0
 49
-6.35
 74
    0
 49
6.35
 74
    0
 49
-6.35
 74
    0
  0
LTYPE
  5
47
330
5
100
AcDbSymbolTableRecord
100
AcDbLinetypeTableRecord
  2
CENTERTINY
 70
    0
  3
Center (.15x) ___ _ ___ _ ___ _ ___ _ ___ _ ___
 72
   65
 73
    4
 40
7.619999999999999
 49
4.7625
 74
    0
 49
-0.9525
 74
    0
 49
0.9525
 74
    0
 49
-0.9525
 74
    0
  0
LTYPE
  5
48
330
5
100
AcDbSymbolTableRecord
100
AcDbLinetypeTableRecord
  2
CENTER2
 70
    0
  3
Center (.5x) ___ _ ___ _ ___ _ ___ _ ___ _ ___
 72
   65
 73
    4
 40
28.575
 49
19.05
 74
    0
 49
-3.175
 74
    0
 49
3.175
 74
    0
 49
-3.175
 74
    0
  0
LTYPE
  5
49
330
5
100
AcDbSymbolTableRecord
100
AcDbLinetypeTableRecord
  2
CENTERX2
 70
    0
  3
Center (2x) ________  __  ________  __  _____
 72
   65
 73
    4
 40
101.6
 49
63.5
 74
    0
 49
-12.7
 74
    0
 49
12.7
 74
    0
 49
-12.7
 74
    0
  0
ENDTAB
  0
TABLE
  2
LAYER
  5
2
330
0
100
AcDbSymbolTable
 70
    1
  0
LAYER
  5
10
330
2
100
AcDbSymbolTableRecord
100
AcDbLayerTableRecord
  2
0
 70
    0
 62
    7
  6
CONTINUOUS
370
    0
390
F
  0
LAYER
  5
4A
330
2
100
AcDbSymbolTableRecord
100
AcDbLayerTableRecord
  2
PLASMA
 70
    0
 62
    2
  6
CONTINUOUS
370
   18
390
F
  0
LAYER
  5
4B
330
2
100
AcDbSymbolTableRecord
100
AcDbLayerTableRecord
  2
SIMPLECUTS
 70
    0
 62
    3
  6
CONTINUOUS
370
   13
390
F
  0
ENDTAB
  0
TABLE
  2
STYLE
  5
3
330
0
100
AcDbSymbolTable
 70
    3
  0
STYLE
  5
4C
330
2
100
AcDbSymbolTableRecord
100
AcDbTextStyleTableRecord
  2
Standard
 70
    0
 40
0
 41
1
 50
0
 71
    0
 42
1
  3
txt
  4

  0
ENDTAB
  0
TABLE
  2
VIEW
  5
6
330
0
100
AcDbSymbolTable
 70
    0
  0
ENDTAB
  0
TABLE
  2
UCS
  5
7
330
0
100
AcDbSymbolTable
 70
    0
  0
ENDTAB
  0
TABLE
  2
APPID
  5
9
330
0
100
AcDbSymbolTable
 70
    1
  0
APPID
  5
12
330
9
100
AcDbSymbolTableRecord
100
AcDbRegAppTableRecord
  2
ACAD
 70
    0
  0
APPID
  5
4D
330
9
100
AcDbSymbolTableRecord
100
AcDbRegAppTableRecord
  2
LibreCad
 70
    0
  0
ENDTAB
  0
TABLE
  2
DIMSTYLE
  5
A
330
0
100
AcDbSymbolTable
 70
    1
100
AcDbDimStyleTable
 71
    1
  0
DIMSTYLE
105
4E
330
A
100
AcDbSymbolTableRecord
100
AcDbDimStyleTableRecord
  2
Standard
 70
    0
 40
1
 41
2.5
 42
0.625
 43
0.38
 44
1.25
 45
0
 46
0
 47
0
 48
0
 49
1
140
2.5
141
0.09
142
0
143
25.4
144
1
145
0
146
1
147
0.625
148
0
 71
    0
 72
    0
 73
    0
 74
    1
 75
    0
 76
    0
 77
    0
 78
    1
 79
    0
170
    0
171
    2
172
    0
173
    0
174
    0
175
    0
176
    0
177
    0
178
    0
179
    2
271
    4
272
    4
273
    2
274
    2
275
    0
276
    0
277
    2
278
    0
279
    0
280
    0
281
    0
282
    0
283
    1
284
    0
285
    0
286
    0
288
    0
289
    3
340
standard
341

371
   -2
372
   -2
  0
ENDTAB
  0
TABLE
  2
BLOCK_RECORD
  5
1
330
0
100
AcDbSymbolTable
 70
    2
  0
BLOCK_RECORD
  5
1F
330
1
100
AcDbSymbolTableRecord
100
AcDbBlockTableRecord
  2
*Model_Space
 70
    0
280
    1
281
    0
  0
BLOCK_RECORD
  5
1E
330
1
100
AcDbSymbolTableRecord
100
AcDbBlockTableRecord
  2
*Paper_Space
 70
    0
280
    1
281
    0
  0
ENDTAB
  0
ENDSEC
  0
SECTION
  2
BLOCKS
  0
BLOCK
  5
20
330
1F
100
AcDbEntity
  8
0
100
AcDbBlockBegin
  2
*Model_Space
 70
    0
 10
0
 20
0
 30
0
  3
*Model_Space
  1

  0
ENDBLK
  5
21
330
1F
100
AcDbEntity
  8
0
100
AcDbBlockEnd
  0
BLOCK
  5
1C
330
1B
100
AcDbEntity
  8
0
100
AcDbBlockBegin
  2
*Paper_Space
 70
    0
 10
0
 20
0
 30
0
  3
*Paper_Space
  1

  0
ENDBLK
  5
1D
330
1F
100
AcDbEntity
  8
0
100
AcDbBlockEnd
  0
ENDSEC
  0
SECTION
  2
ENTITIES
  0
LWPOLYLINE
  5
4F
100
AcDbEntity
  8
PLASMA
  6
ByLayer
 62
  256
370
   -1
100
AcDbPolyline
 90
    5
 70
    1
 43
0
 10
30013.503
 20
44840.379
 10
30104.094
 20
45603.56099999999
 42
0.05049200000000004
 10
26587.098
 20
45518.487
 42
0.02638900000000001
 10
25481.049
 20
45301.758
 10
25527.054
 20
45245.727
 42
-0.0293319999999999
  0
LWPOLYLINE
  5
50
100
AcDbEntity
  8
PLASMA
  6
ByLayer
 62
  256
370
   -1
100
AcDbPolyline
 90
    6
 70
    1
 43
0
 10
13510.344
 20
41915.58900000001
 10
14561.967
 20
41702.385
 10
14565.078
 20
41952.783
 10
14562.15
 20
41955.597
 10
14126.541
 20
42131.31
 42
0.004054000000000049
 10
13489.47
 20
41936.28
  0
LWPOLYLINE
  5
51
100
AcDbEntity
  8
PLASMA
  6
ByLayer
 62
  256
370
   -1
100
AcDbPolyline
 90
    9
 70
    1
 43
0
 10
14675.4
 20
55456.17
 10
15736.22099999999
 20
56254.35
 42
0.05456399999999993
 10
13289.748
 20
54973.82400000001
 10
13233.354
 20
54883.209
 42
0.2004399999999995
 10
13921.281
 20
54392.78400000001
 42
0.06657599999999983
 10
14844.864
 20
54304.52700000002
 42
-0.04247499999999999
 10
15505.737
 20
54255.546
 10
15548.4
 20
55100.898
 10
14674.806
 20
55452.62100000001
  0
LWPOLYLINE
  5
52
100
AcDbEntity
  8
PLASMA
  6
ByLayer
 62
  256
370
   -1
100
AcDbPolyline
 90
  325
 70
    1
 43
0
 10
93033.18900000001
 20
27410.133
 42
-0.02937100000000001
 10
101821.929
 20
27560.349
 10
101805.588
 20
27596.421
 10
101755.692
 20
27608.61899999998
 42
-0.01103200000000011
 10
94379.51699999993
 20
29281.791
 42
-0.02721400000000002
 10
87893.41799999999
 20
31298.127
 10
87525.51300000001
 20
31472.535
 10
103078.995
 20
30623.61
 10
102675.063
 20
30759.408
 10
90446.77799999999
 20
34540.146
 10
90447.96899999998
 20
34540.788
 42
0.07948200000000004
 10
101616.393
 20
33408.14099999999
 42
0.007078000000000053
 10
100695.558
 20
33673.32599999999
 42
-0.04221300000000001
 10
91404.87599999999
 20
35817.33000000001
 10
91417.92299999997
 20
35838.84299999999
 42
0.02344000000000003
 10
97878.02099999998
 20
35802.15599999998
 10
98025.46800000001
 20
35819.709
 10
97847.352
 20
36202.08
 10
97557.86100000011
 20
36255.22499999986
 42
-0.00329500000000015
 10
89659.28699999978
 20
37645.248
 42
-0.03056200000000002
 10
85643.463
 20
38610.81
 10
85343.856
 20
38709.48
 10
85046.35499999998
 20
38812.86599999999
 42
-0.0710729999999999
 10
81601.27200000001
 20
40573.425
 10
81669.57000000001
 20
40560.72300000001
 42
0.05905899999999994
 10
91782.16500000001
 20
39246.50699999999
 10
91958.955
 20
39267.975
 42
-0.100668
 10
86216.81099999999
 20
41563.317
 42
0.08384900000000019
 10
95599.41
 20
41002.00799999999
 10
95469.864
 20
41277.237
 10
95169.75299999998
 20
41339.766
 42
-0.02772599999999996
 10
90130.23299999996
 20
42538.308
 42
-0.05596799999999985
 10
85924.39199999999
 20
44329.56
 42
-0.05357099999999989
 10
83540.40600000002
 20
46065.606
 10
83556.56400000001
 20
46074.51
 10
87767.076
 20
45879.54599999999
 10
87804.29100000001
 20
45893.556
 42
-0.09845400000000021
 10
83396.25599999999
 20
47791.008
 42
0.001346999999999964
 10
83517.24299999999
 20
47780.54699999999
 42
0.03723099999999996
 10
75149.32199999999
 20
50053.52699999999
 10
74809.47900000001
 20
50125.34999999999
 10
76162.17
 20
50528.55
 10
75796.92
 20
50713.09800000001
 42
0.116043
 10
59002.30500000001
 20
53588.76899999999
 10
58860.444
 20
53593.575
 42
0.06495100000000018
 10
60644.394
 20
54298.66800000001
 10
60717.22499999999
 20
54352.935
 42
-0.02182300000000004
 10
48852.81299999998
 20
57074.364
 10
48491.136
 20
57193.2
 10
52953.69000000001
 20
57121.056
 10
53039.565
 20
57123.984
 10
52999.96800000001
 20
57143.25599999998
 42
-0.01087700000000005
 10
51634.00200000001
 20
58063.97999999999
 42
0.04752999999999968
 10
51410.97899999998
 20
58194.07799999998
 42
0.02495100000000004
 10
43590.26999999999
 20
60375.73199999998
 42
0.01731299999999994
 10
39914.613
 20
61039.44299999998
 10
39827.91
 20
61058.211
 10
39871.81200000001
 20
61512.56700000001
 10
39871.44600000001
 20
61514.14500000001
 42
0.01118899999999999
 10
38921.12700000001
 20
62028.30599999999
 42
-0.02613300000000001
 10
34156.72200000001
 20
62052.01799999998
 10
34262.97
 20
61934.12100000001
 42
-0.002584
 10
34358.232
 20
61901.98499999999
 10
35502.183
 20
61943.25299999999
 10
35503.053
 20
61942.383
 10
35191.77299999999
 20
61550.103
 42
-0.04512799999999992
 10
36211.02899999999
 20
60915.04799999999
 10
36250.626
 20
60874.94699999999
 42
-0.1954930000000005
 10
35488.494
 20
60590.74500000002
 42
-0.05068800000000016
 10
34926.774
 20
60640.617
 10
35298.66
 20
60000.549
 10
35295.18000000001
 20
60000.594
 10
34116.99
 20
60211.167
 10
33199.356
 20
59205.711
 10
33194.916
 20
59201.226
 10
33213.639
 20
60479.736
 10
33212.265
 20
60482.91899999999
 10
32367.324
 20
60771.102
 10
32368.836
 20
60772.5
 10
32822.799
 20
61073.754
 10
32823.99
 20
61076.34
 42
0.01995599999999996
 10
29888.535
 20
61489.03800000002
 10
29690.736
 20
61228.84499999999
 10
29691.789
 20
61226.028
 10
30259.965
 20
60199.425
 10
30253.968
 20
60200.38499999999
 10
29069.139
 20
60427.75800000001
 10
28151.184
 20
59379.91199999999
 10
28148.52899999999
 20
59378.289
 10
28167.297
 20
60714.981
 10
28164.552
 20
60717.24600000001
 10
27305.787
 20
61027.497
 10
28167.20699999999
 20
61621.65
 42
0.02114300000000005
 10
25008.774
 20
61658.019
 10
24643.386
 20
61155.98999999999
 10
24642.288
 20
61153.38
 10
25214.952
 20
60071.022
 10
25213.029
 20
60069.94499999999
 10
24016.389
 20
60311.96699999999
 10
24011.49
 20
60306.45
 10
23097.108
 20
59217.97799999999
 10
23115.738
 20
60610.473
 10
23114.913
 20
60615.006
 10
22242.096
 20
60945.39599999999
 10
22243.791
 20
60947.54700000001
 10
23079.3
 20
61548.43199999999
 42
0.01323000000000008
 10
21133.941
 20
61335.75299999999
 10
21108.033
 20
61365.44100000001
 10
22312.959
 20
62911.92600000001
 10
22081.971
 20
62993.958
 42
0.0981369999999999
 10
15478.866
 20
63215.72099999999
 10
16464.021
 20
64184.92200000001
 10
16409.36400000001
 20
64204.46699999999
 42
0.04027500000000005
 10
8236.770000000004
 20
61901.39099999999
 42
0.02787799999999995
 10
1203.848999999998
 20
58872.687
 10
1058.601000000003
 20
58637.787
 42
0.0895669999999999
 10
696.4409999999996
 20
56709.435
 10
693.696
 20
56417.817
 10
700.8119999999981
 20
56123.931
 42
0.04395600000000003
 10
1131.774000000001
 20
53219.42099999999
 10
1563.24
 20
53802.201
 10
1638.429
 20
53721.92999999999
 42
-0.2039070000000003
 10
2497.100999999996
 20
47237.115
 42
0.08163100000000001
 10
2356.085999999998
 20
46033.74600000001
 42
0.127931
 10
2739.440999999999
 20
45048.249
 42
-0.01318999999999998
 10
3321.074999999996
 20
44190.927
 42
-0.1444789999999998
 10
3578.247
 20
43194.78600000001
 42
-0.1314209999999996
 10
3419.402999999998
 20
42731.46
 10
3450.920999999998
 20
42704.019
 42
0.1730100000000003
 10
5585.631000000001
 20
43956.13799999999
 10
5601.812999999999
 20
43890.06
 42
0.127766
 10
6111.602999999999
 20
41246.064
 42
-0.1249699999999999
 10
6250.968
 20
40593.453
 42
-0.1659889999999999
 10
6069.444
 20
40215.33900000001
 10
6763.779
 20
40265.58
 10
5960.313
 20
38945.733
 10
5958.39
 20
38940.30899999999
 10
6548.675999999999
 20
37648.65899999999
 10
6545.630999999999
 20
37648.041
 10
5312.964
 20
37905.624
 10
5310.195
 20
37901.871
 10
4872.597000000001
 20
37280.04599999999
 42
0.054862
 10
5217.978
 20
35765.853
 10
5344.091999999999
 20
35366.52300000001
 42
-0.03905700000000001
 10
5756.241
 20
33752.61
 42
-0.115399
 10
5667.159000000001
 20
32155.791
 10
5762.58
 20
32129.58599999999
 10
7514.076
 20
31694.892
 10
7557.287999999999
 20
31645.683
 42
0.07987799999999998
 10
6596.511000000003
 20
30266.898
 42
0.1476019999999997
 10
6438.674999999999
 20
29211.501
 10
6475.181999999999
 20
29062.524
 10
6529.493999999998
 20
28915.00800000001
 42
0.1033810000000003
 10
7090.005
 20
28198.587
 10
7132.941000000006
 20
28158.807
 42
-0.01968399999999998
 10
10504.623
 20
28916.47199999999
 10
9153.075000000001
 20
29342.217
 10
9268.983
 20
29408.433
 10
9739.701000000001
 20
29541.687
 42
-0.03128100000000002
 10
12176.78699999999
 20
29982.83400000001
 42
0.02050900000000003
 10
15103.27199999999
 20
30438.26400000001
 42
0.06728400000000001
 10
17341.416
 20
31224.243
 10
17750.655
 20
31464.087
 10
18143.829
 20
31738.929
 10
18243.393
 20
31867.88099999999
 42
-0.3101300000000005
 10
17965.392
 20
32322.303
 42
-0.2587899999999997
 10
18301.803
 20
32982.741
 42
-0.2246900000000009
 10
19190.553
 20
32988.189
 42
-0.09214099999999995
 10
20052.246
 20
32395.065
 42
0.06418100000000024
 10
20842.941
 20
31795.806
 42
0.1392209999999996
 10
21875.061
 20
31629.89100000002
 42
0.01559699999999982
 10
22293.04499999999
 20
31674.066
 10
25193.802
 20
32062.728
 10
25047.774
 20
32002.191
 10
22321.929
 20
30885.888
 10
22245.804
 20
30788.31600000001
 42
0.1406939999999999
 10
23787.69
 20
29637.336
 42
0.09696599999999989
 10
26270.32499999998
 20
29226.06
 42
0.02380199999999995
 10
28519.45499999999
 20
29414.817
 42
-0.04159099999999999
 10
30756.363
 20
29510.787
 42
-0.02846399999999993
 10
31494.73500000001
 20
29421.342
 10
31310.988
 20
29350.686
 42
-0.026422
 10
28059.861
 20
28630.05
 42
-0.0692340000000001
 10
24655.746
 20
28574.478
 42
0.04278399999999995
 10
23101.914
 20
28619.52299999999
 42
0.09456200000000001
 10
20961.04500000001
 20
27984.651
 42
0.03381899999999997
 10
18955.581
 20
26774.04900000001
 10
18936.54
 20
26695.449
 42
-0.2609989999999989
 10
19294.005
 20
26056.32
 42
-0.2650500000000004
 10
18641.646
 20
24813.78899999999
 42
-0.03645199999999994
 10
17645.142
 20
24267.65400000001
 42
0.08610000000000002
 10
16581.801
 20
23464.82699999999
 42
-0.09065000000000009
 10
15795.411
 20
22890.495
 42
-0.3525849999999999
 10
13895.232
 20
23505.273
 10
13997.22299999998
 20
23647.13399999999
 42
0.005941000000000031
 10
16727.00399999997
 20
26217.68099999999
 42
0.005547000000000044
 10
17218.644
 20
26716.78200000001
 42
-0.08768900000000014
 10
16773.78899999999
 20
27087.663
 42
-0.2851239999999999
 10
16729.341
 20
27545.424
 42
-0.0974999999999998
 10
17078.523
 20
27973.962
 42
0.03028599999999984
 10
17747.95499999999
 20
28589.30999999999
 42
0.1418139999999999
 10
17904.144
 20
28916.589
 10
17903.412
 20
29080.491
 10
17858.001
 20
29210.517
 10
17772.309
 20
29309.394
 10
17650.59
 20
29379.753
 10
17497.146
 20
29424.225
 42
0.08228900000000015
 10
16653.534
 20
29397.33000000001
 42
0.02987499999999998
 10
15175.416
 20
29036.223
 42
-0.02790300000000006
 10
14223.633
 20
28782.258
 10
7885.689
 20
27458.06100000001
 10
7826.567999999999
 20
27427.14
 42
-0.09524899999999997
 10
7990.539
 20
27017.556
 10
8003.265
 20
26992.125
 10
8138.991000000001
 20
26957.22300000001
 42
-0.3425819999999999
 10
9436.523999999999
 20
25018.731
 42
-0.08410100000000002
 10
9122.223
 20
24055.458
 10
7864.953000000009
 20
21329.613
 42
0.009893000000000077
 10
6566.643000000005
 20
18439.38299999998
 42
0.05054300000000001
 10
5834.885999999996
 20
16054.437
 42
0.05309699999999983
 10
5711.334
 20
14519.67
 10
5735.619000000002
 20
14265.129
 42
-0.1453559999999999
 10
6673.850999999999
 20
14687.256
 10
6757.278
 20
14689.11
 10
6836.768999999999
 20
14682.288
 42
-0.3814959999999995
 10
7226.28
 20
14221.893
 42
-0.04624400000000005
 10
7204.170000000001
 20
13983.993
 10
6532.86
 20
9900.602999999999
 10
6290.610000000002
 20
9729.219000000001
 42
0.03309400000000004
 10
4354.341000000003
 20
8248.421999999995
 42
0.08637800000000001
 10
2860.452
 20
6414.320999999998
 10
2728.935
 20
6150.237000000001
 10
2612.847
 20
5877.09
 10
2566.610999999999
 20
5660.844000000003
 42
0.08667000000000001
 10
5004.638999999999
 20
5890.824000000002
 10
5061.357
 20
5848.892999999997
 42
-0.1668139999999997
 10
4201.194
 20
3880.761
 10
4210.647000000001
 20
3815.871
 42
-0.2629820000000004
 10
4164.504
 20
2582.609999999998
 42
-0.06998699999999999
 10
5255.492999999999
 20
2671.029
 42
-0.2824779999999998
 10
6283.148999999999
 20
1956.939
 42
-0.143456
 10
6321.855
 20
1541.223
 10
6345.132
 20
1490.73
 10
6564.423000000001
 20
1542.663
 10
6979.386
 20
1696.998
 10
7570.586999999999
 20
1943.892
 10
8318.619000000001
 20
2273.391
 10
9204.162
 20
2675.628
 10
10207.902
 20
3140.67
 10
11310.33299999952
 20
3658.6529999997
 42
0.003135999999999881
 10
25192.1549999991
 20
10397.07299999961
 42
-0.002683000000000016
 10
26548.96499999999
 20
11050.25399999998
 42
0.03401900000000024
 10
27844.941
 20
12359.619
 10
27716.583
 20
12353.142
 10
20198.181
 20
10107.924
 10
20443.131
 20
10299.86699999999
 42
-0.06770500000000004
 10
31325.82
 20
15096.564
 42
0.08306599999999997
 10
33565.98
 20
16785.828
 10
33565.29300000001
 20
16870.857
 10
27235.47299999999
 20
17082.894
 10
27064.31700000001
 20
17165.06100000001
 42
-0.2068509999999996
 10
27352.524
 20
17925.246
 10
27454.37699999999
 20
18026.55
 42
-0.1078890000000001
 10
28582.443
 20
18602.691
 42
-0.03916099999999995
 10
29620.78799999996
 20
18817.01699999998
 42
0.03482900000000021
 10
38504.65500000002
 20
20963.745
 42
0.04388799999999993
 10
35496.09300000001
 20
22026.099
 10
35418.366
 20
22091.172
 42
-0.1218789999999998
 10
36164.796
 20
22565.02499999999
 42
-0.025835
 10
37376.496
 20
22878.318
 10
37529.298
 20
22918.761
 10
37679.99400000001
 20
22963.509
 42
0.1997300000000001
 10
39119.65799999999
 20
24109.521
 42
0.0860059999999998
 10
39670.44
 20
25739.364
 42
0.02177599999999997
 10
39815.232
 20
26830.101
 10
39873.735
 20
26724.45
 10
41031.51000000001
 20
23938.521
 10
41155.473
 20
23815.15499999999
 42
-0.08199699999999994
 10
50595.108
 20
23609.367
 10
50798.355
 20
23537.91
 10
46848.357
 20
22814.85
 10
46804.689
 20
22702.95
 42
0.2151299999999998
 10
47556.609
 20
21842.79
 42
0.2205500000000002
 10
48843.33900000001
 20
21791.406
 10
48972.564
 20
21861.192
 10
49093.782
 20
21948.03
 42
-0.1164599999999998
 10
46248.048
 20
20512.848
 10
46318.635
 20
20437.362
 10
47216.44500000001
 20
20243.66099999999
 42
0.03797899999999986
 10
56680.11599999995
 20
19137.63299999999
 42
0.02647299999999996
 10
57979.38599999998
 20
19157.271
 10
58180.84800000001
 20
19193.961
 10
58248.183
 20
19245.645
 10
58170.501
 20
19312.293
 10
57936.81299999999
 20
19393.845
 10
58052.03100000001
 20
19525.155
 42
-0.06798499999999996
 10
65089.827
 20
20572.19700000001
 42
-0.02887899999999997
 10
70204.14600000001
 20
20334.20700000001
 10
71202.43799999999
 20
20228.805
 10
72249.84599999999
 20
20103.288
 10
72428.466
 20
20277.717
 10
72298.875
 20
20523.309
 10
72125.83799999999
 20
20746.329
 10
71913.07200000001
 20
20948.661
 42
0.08148900000000001
 10
70739.64
 20
21586.143
 42
0.03306000000000001
 10
68423.493
 20
22223.90100000001
 42
-0.01704199999999998
 10
66498.231
 20
22709.13
 10
66203.202
 20
22819.977
 42
-0.03159600000000001
 10
69001.143
 20
22854.56099999999
 42
-0.01250499999999995
 10
73233.67200000001
 20
22502.83800000001
 42
0.01983500000000001
 10
76713.501
 20
22284.20999999999
 42
0.03950399999999992
 10
79414.25999999998
 20
22448.844
 10
79703.15700000001
 20
22607.139
 10
79186.84499999999
 20
22868.478
 42
0.01367400000000006
 10
71301.86399999994
 20
26496.41400000022
 42
0.0004139999999999246
 10
69708.39000000001
 20
27186.28800000016
 10
70322.47800000002
 20
27057.45000000001
 42
0.003868999999999816
 10
76992.32399999972
 20
25283.34000000012
 10
77884.872
 20
25064.66699999998
 42
0.03386999999999983
 10
84929.16899999991
 20
23846.69400000003
 42
0.009636000000000054
 10
89633.83499999998
 20
23441.46000000002
 10
89705.10899999998
 20
23492.01899999999
 42
-0.03463699999999993
 10
87138.24599999997
 20
25081.05599999998
 42
0.08059900000000017
 10
101464.92
 20
25651.038
 42
-0.07694999999999994
 10
93149.001
 20
27356.208
  0
LWPOLYLINE
  5
53
100
AcDbEntity
  8
PLASMA
  6
ByLayer
 62
  256
370
   -1
100
AcDbPolyline
 90
    7
 70
    1
 43
0
 10
39708.618
 20
60208.19099999999
 10
39749.04
 20
60243.34800000001
 10
39811.935
 20
60893.48699999999
 10
40287.459
 20
58135.392
 10
39708.48
 20
57500.955
 10
39732.558
 20
59140.641
 10
38654.067
 20
59508.45299999999
  0
LWPOLYLINE
  5
54
100
AcDbEntity
  8
PLASMA
  6
ByLayer
 62
  256
370
   -1
100
AcDbPolyline
 90
   10
 70
    1
 43
0
 10
30916.122
 20
57711.09
 10
31114.014
 20
58916.84100000001
 10
31771.317
 20
58133.493
 10
32976.654
 20
58184.577
 10
32166.04500000001
 20
57187.659
 10
32694.078
 20
56176.827
 10
31506.318
 20
56391.519
 10
30550.644
 20
55360.29
 10
30625.26
 20
56663.568
 10
29786.271
 20
56959.029
  0
LWPOLYLINE
  5
55
100
AcDbEntity
  8
PLASMA
  6
ByLayer
 62
  256
370
   -1
100
AcDbPolyline
 90
   35
 70
    1
 43
0
 10
34475.96699999971
 20
55469.85600000247
 42
-3.200000000007448e-05
 10
35564.39100000022
 20
55582.58100000194
 10
35618.54700000001
 20
56486.595
 10
34794.708
 20
56757.798
 10
35907.852
 20
57473.625
 10
36106.521
 20
58630.647
 10
36767.349
 20
57882.84300000001
 10
37956.162
 20
57938.85000000001
 10
37155.579
 20
56993.751
 10
37680.222
 20
56039.178
 10
36499.968
 20
56233.773
 10
35908.67700000001
 20
55619.727
 42
0.00501299999999987
 10
36535.03499999999
 20
55694.63999999999
 42
-0.02904400000000011
 10
35938.65899999999
 20
55130.928
 42
-0.138355
 10
44819.87099999999
 20
54576.897
 42
-0.037907
 10
42335.08199999997
 20
54657.372
 42
0.04877400000000011
 10
54532.92899999999
 20
51743.133
 10
54456.11699999998
 20
51727.47900000001
 42
-0.073904
 10
52886.39700000001
 20
51726.012
 10
52807.71
 20
51734.664
 10
52729.11000000001
 20
51743.613
 10
39960.159
 20
53211.27300000001
 42
0.1367279999999996
 10
40958.817
 20
54212.676
 10
40888.551
 20
54138.747
 10
40767.516
 20
54074.136
 42
-0.06544200000000003
 10
39863.11199999999
 20
53897.43900000001
 10
39553.84800000001
 20
53871.072
 10
39220.14
 20
53850.747
 10
38866.287
 20
53835.91499999999
 42
-0.016328
 10
34258.98599999999
 20
53903.733
 10
34130.12699999993
 20
53906.73000000004
 42
-0.003658000000000057
 10
31575.34799999989
 20
53889.42600000004
 42
-0.05638200000000003
 10
29663.955
 20
54113.595
 42
-0.04069900000000005
 10
29140.227
 20
54299.079
 42
-0.06450100000000013
 10
31044.11399999999
 20
54957.66300000002
 42
-0.02931400000000002
  0
LWPOLYLINE
  5
56
100
AcDbEntity
  8
PLASMA
  6
ByLayer
 62
  256
370
   -1
100
AcDbPolyline
 90
    6
 70
    1
 43
0
 10
39074.93700000001
 20
51499.053
 10
40273.36200000001
 20
52467.567
 10
40341.432
 20
52984.932
 10
40729.65900000001
 20
50554.596
 10
39902.205
 20
49460.76900000001
 10
39976.227
 20
51081.87
  0
LWPOLYLINE
  5
57
100
AcDbEntity
  8
PLASMA
  6
ByLayer
 62
  256
370
   -1
100
AcDbPolyline
 90
   10
 70
    1
 43
0
 10
38484.74099999999
 20
46699.563
 10
37311.951
 20
46924.071
 10
36319.88400000001
 20
45955.308
 10
36449.38800000001
 20
47197.86000000001
 10
35639.73899999999
 20
47490.783
 10
36782.454
 20
48181.47900000001
 10
37033.035
 20
49338.06599999999
 10
37658.982
 20
48572.433
 10
38842.026
 20
48600.633
 10
38003.31
 20
47674.827
  0
LWPOLYLINE
  5
58
100
AcDbEntity
  8
PLASMA
  6
ByLayer
 62
  256
370
   -1
100
AcDbPolyline
 90
   10
 70
    1
 43
0
 10
33396.14999999999
 20
51570.534
 10
34517.75999999999
 20
52266.174
 10
34714.692
 20
53432.853
 10
35371.58100000001
 20
52649.84999999999
 10
36576.507
 20
52663.87799999999
 10
35766.81600000001
 20
51716.53799999999
 10
36289.674
 20
50725.731
 10
35114.502
 20
50967.15600000001
 10
34153.518
 20
49983.147
 10
34228.227
 20
51260.217
  0
LWPOLYLINE
  5
59
100
AcDbEntity
  8
PLASMA
  6
ByLayer
 62
  256
370
   -1
100
AcDbPolyline
 90
   10
 70
    1
 43
0
 10
33522.81299999999
 20
46961.631
 10
32343.933
 20
47209.212
 10
31351.317
 20
46204.101
 10
31480.821
 20
47504.424
 10
30656.433
 20
47823.966
 10
31816.131
 20
48547.278
 10
32065.797
 20
49750.923
 10
32688.171
 20
48948.78300000001
 10
33888.747
 20
48968.65199999999
 10
33038.727
 20
47993.247
  0
LWPOLYLINE
  5
5A
100
AcDbEntity
  8
PLASMA
  6
ByLayer
 62
  256
370
   -1
100
AcDbPolyline
 90
   10
 70
    1
 43
0
 10
29491.608
 20
52695.876
 10
29687.943
 20
53911.53599999999
 10
30341.31
 20
53093.124
 10
31561.89
 20
53101.455
 10
30742.677
 20
52102.34099999999
 10
31269.057
 20
51054.81600000001
 10
30086.379
 20
51316.68000000001
 10
29125.899
 20
50293.92300000001
 10
29200.60800000001
 20
51629.265
 10
28354.02
 20
51964.554
  0
LWPOLYLINE
  5
5B
100
AcDbEntity
  8
PLASMA
  6
ByLayer
 62
  256
370
   -1
100
AcDbPolyline
 90
   10
 70
    1
 43
0
 10
25867.311
 20
57634.94099999999
 10
26064.696
 20
58890.954
 10
26718.795
 20
58073.709
 10
27938.691
 20
58123.28400000001
 10
27119.064
 20
57072.18900000001
 10
27650.712
 20
56005.302
 10
26455.215
 20
56236.863
 10
25500.411
 20
55164.435
 10
25574.982
 20
56525.643
 10
24722.259
 20
56842.96500000001
  0
LWPOLYLINE
  5
5C
100
AcDbEntity
  8
PLASMA
  6
ByLayer
 62
  256
370
   -1
100
AcDbPolyline
 90
   10
 70
    1
 43
0
 10
24445.68
 20
52804.62
 10
24641.373
 20
54070.314
 10
25291.809
 20
53218.095
 10
26526.168
 20
53224.43400000001
 10
25698.531
 20
52171.44
 10
26228.349
 20
51068.06999999999
 10
25038.024
 20
51346.962
 10
24078.597
 20
50282.982
 10
24153.213
 20
51676.18499999999
 10
23293.533
 20
52033.99800000001
  0
LWPOLYLINE
  5
5D
100
AcDbEntity
  8
PLASMA
  6
ByLayer
 62
  256
370
   -1
100
AcDbPolyline
 90
   10
 70
    1
 43
0
 10
21244.995
 20
58534.974
 10
21896.301
 20
57687.03599999999
 10
23128.281
 20
57738.50999999999
 10
22301.286
 20
56633.88
 10
22836.228
 20
55514.397
 10
21633.363
 20
55758.798
 10
20679.933
 20
54644.91899999999
 10
20754.456
 20
56060.853
 10
19889.739
 20
56396.736
 10
21047.973
 20
57229.91100000001
  0
LWPOLYLINE
  5
5E
100
AcDbEntity
  8
PLASMA
  6
ByLayer
 62
  256
370
   -1
100
AcDbPolyline
 90
   10
 70
    1
 43
0
 10
21174.132
 20
50847.609
 10
19976.439
 20
51141.28799999999
 10
19018.479
 20
50034.369
 10
19092.957
 20
51485.48099999999
 10
18221.376
 20
51863.847
 10
19386.657
 20
52676.034
 10
19581.984
 20
53992.653
 10
20229.492
 20
53108.06999999999
 10
21476.211
 20
53114.799
 10
20641.113
 20
52006.278
  0
LWPOLYLINE
  5
5F
100
AcDbEntity
  8
PLASMA
  6
ByLayer
 62
  256
370
   -1
100
AcDbPolyline
 90
   10
 70
    1
 43
0
 10
18308.946
 20
61462.143
 10
18453.141
 20
62785.17300000001
 10
19134.384
 20
61921.647
 10
20382.294
 20
61968.59099999999
 10
19589.814
 20
60831.87
 10
20167.923
 20
59692.56599999999
 10
18959.517
 20
59946.83099999999
 10
18042.342
 20
58808.211
 10
18061.11
 20
60261.77100000001
 10
17174.562
 20
60610.818
  0
LWPOLYLINE
  5
60
100
AcDbEntity
  8
PLASMA
  6
ByLayer
 62
  256
370
   -1
100
AcDbPolyline
 90
   10
 70
    1
 43
0
 10
13246.125
 20
60445.473
 10
13390.32
 20
61822.494
 10
14069.64
 20
60930.954
 10
15326.478
 20
60988.88400000001
 10
14528.733
 20
59791.62599999999
 10
15111.237
 20
58599.702
 10
13893.678
 20
58859.16
 10
12978.927
 20
57671.859
 10
12997.695
 20
59181.153
 10
12100.341
 20
59543.061
  0
LWPOLYLINE
  5
61
100
AcDbEntity
  8
PLASMA
  6
ByLayer
 62
  256
370
   -1
100
AcDbPolyline
 90
   10
 70
    1
 43
0
 10
8179.734
 20
59048.97300000001
 10
8323.790999999999
 20
60481.24800000001
 10
9001.374
 20
59562.927
 10
10265.991
 20
59634.65999999999
 10
9463.578000000001
 20
58375.764
 10
10050.477
 20
57131.583
 10
8823.807000000001
 20
57393.609
 10
7911.897
 20
56156.18100000001
 10
7930.526999999998
 20
57720.61199999999
 10
7023.468
 20
58093.11599999999
  0
LWPOLYLINE
  5
62
100
AcDbEntity
  8
PLASMA
  6
ByLayer
 62
  256
370
   -1
100
AcDbPolyline
 90
   71
 70
    1
 43
0
 10
5219.307
 20
52545.501
 10
6403.379999999999
 20
53517.471
 10
6598.478999999999
 20
54969.795
 10
6600.633
 20
54977.394
 10
7243.836
 20
54049.416
 10
7252.122000000001
 20
54048.318
 10
8504.334000000001
 20
54127.32600000001
 10
7811.76
 20
53077.97100000001
 10
7810.820999999996
 20
53072.961
 42
0.02040499999999993
 10
8329.145999999995
 20
53375.382
 42
0.06533499999999989
 10
9148.224000000002
 20
54171.228
 42
-0.0520419999999999
 10
9951.873000000003
 20
54973.04400000001
 42
-0.07777599999999994
 10
10873.35300000001
 20
55424.30999999997
 42
0.0008609999999998894
 10
11108.32199999998
 20
55505.30999999998
 10
11253.432
 20
56547.249
 10
11256.639
 20
56545.46400000001
 10
11835.15900000002
 20
55734.99299999999
 42
-0.01139300000000004
 10
15428.328
 20
56676.29099999997
 10
15705.186
 20
56747.13
 10
15910.674
 20
56801.307
 10
16039.536
 20
57692.298
 10
16042.281
 20
57691.155
 10
16571.916
 20
56973.885
 42
-0.1831700000000008
 10
17062.77600000001
 20
56906.226
 42
-0.1028210000000006
 10
17126.634
 20
56836.005
 10
17929.779
 20
56873.40600000001
 10
17928.405
 20
56868.59999999999
 10
17098.11299999999
 20
55708.96800000002
 42
0.007588000000000045
 10
17635.84799999999
 20
54533.844
 10
16429.185
 20
54787.21500000001
 10
16423.509
 20
54785.409
 10
15884.44499999999
 20
54127.578
 42
-0.2116809999999996
 10
16675.872
 20
53171.7
 10
16668.411
 20
53096.124
 10
14772.813
 20
52901.688
 10
14708.175
 20
52892.739
 10
15132.79800000001
 20
52291.28399999999
 42
0.009234000000000015
 10
16389.45000000001
 20
52304.60400000001
 10
15551.376
 20
51141.381
 10
15550.095
 20
51133.302
 10
16084.809
 20
49924.89600000001
 10
16074.327
 20
49927.00200000001
 10
14891.235
 20
50223.747
 10
14879.013
 20
50226.447
 10
13926.957
 20
49076.796
 10
13923.477
 20
49076.751
 10
13997.634
 20
50579.54399999999
 10
13990.266
 20
50583.80100000001
 10
13124.406
 20
50970.75
 10
13115.433
 20
50975.028
 10
14287.629
 20
51831.552
 10
14292.984
 20
51837.93599999999
 10
14439.51299999998
 20
52866.738
 42
-0.01015400000000004
 10
12628.37099999997
 20
52696.03800000002
 42
-0.08114999999999982
 10
11082.276
 20
52818.85500000001
 10
10687.5
 20
52317.33
 10
10687.362
 20
52321.563
 10
10717.485
 20
52939.887
 10
10715.652
 20
52948.128
 42
0.1232590000000002
 10
10224.153
 20
53077.971
 42
0.1566369999999999
 10
9716.721
 20
52814.073
 42
-0.08675100000000011
 10
8411.864999999998
 20
51987.64799999999
 42
-0.03751200000000015
 10
8071.289999999997
 20
51888.702
 10
8204.954999999998
 20
51576.645
 10
8203.352999999999
 20
51575.454
 10
6981.126000000001
 20
51837.432
 10
6973.413
 20
51829.515
 10
6032.364
 20
50584.947
 10
6106.040999999999
 20
52154.433
 10
6104.943000000001
 20
52164.13799999999
 10
5213.286
 20
52538.93399999999
  0
LWPOLYLINE
  5
63
100
AcDbEntity
  8
PLASMA
  6
ByLayer
 62
  256
370
   -1
100
AcDbPolyline
 90
   10
 70
    1
 43
0
 10
13636.185
 20
44658.486
 10
12431.169
 20
44964.22500000001
 10
11441.985
 20
43789.947
 10
11571.396
 20
45318.351
 10
10700.592
 20
45719.124
 10
11913.711
 20
46606.31700000001
 10
12160.767
 20
48010.185
 10
12771.972
 20
47080.17000000001
 10
14023.59
 20
47102.052
 10
13141.113
 20
45907.584
  0
LWPOLYLINE
  5
64
100
AcDbEntity
  8
PLASMA
  6
ByLayer
 62
  256
370
   -1
100
AcDbPolyline
 90
   10
 70
    1
 43
0
 10
7995.528000000001
 20
49716.49800000001
 10
9183.885
 20
50627.79300000001
 10
9378.752999999999
 20
52052.307
 10
10021.956
 20
51109.773
 10
11287.491
 20
51134.103
 10
10440.81
 20
49905.051
 10
10981.2
 20
48638.46599999999
 10
9767.210999999999
 20
48946.95299999999
 10
8813.553
 20
47743.401
 10
8887.803
 20
49308.426
  0
LWPOLYLINE
  5
65
100
AcDbEntity
  8
PLASMA
  6
ByLayer
 62
  256
370
   -1
100
AcDbPolyline
 90
   10
 70
    1
 43
0
 10
1939.614
 20
55837.83
 10
3105.33
 20
56853.126
 10
3249.459
 20
58342.62
 10
3925.782
 20
57400.383
 10
5196.441000000001
 20
57492.303
 10
4390.41
 20
56168.403
 10
4981.956
 20
54873.963
 10
3745.536000000001
 20
55132.371
 10
2836.761
 20
53841.11100000001
 10
2855.391
 20
55459.557
  0
LWPOLYLINE
  5
66
100
AcDbEntity
  8
PLASMA
  6
ByLayer
 62
  256
370
   -1
100
AcDbPolyline
 90
   10
 70
    1
 43
0
 10
4622.43
 20
46883.445
 10
3671.814
 20
45626.838
 10
3745.881
 20
47247.894
 10
2844.567
 20
47665.053
 10
4042.947
 20
48633.59099999999
 10
4237.839
 20
50115.21
 10
4879.553999999999
 20
49146.72
 10
6152.091
 20
49187.76000000001
 10
5300.835000000001
 20
47893.86599999999
 10
5845.161
 20
46574.889
  0
LWPOLYLINE
  5
67
100
AcDbEntity
  8
PLASMA
  6
ByLayer
 62
  256
370
   -1
100
AcDbPolyline
 90
   10
 70
    1
 43
0
 10
6743.271000000001
 20
42231.30899999999
 10
6872.451
 20
43812.219
 10
5993.019
 20
44225.946
 10
7216.164
 20
45159.921
 10
7462.92
 20
46614.189
 10
8072.343
 20
45657.783
 10
9332.199000000001
 20
45688.95599999999
 10
8444.273999999999
 20
44437.797
 10
8942.045999999998
 20
43139.19
 10
7730.439
 20
43450.791
  0
LWPOLYLINE
  5
68
100
AcDbEntity
  8
PLASMA
  6
ByLayer
 62
  256
370
   -1
100
AcDbPolyline
 90
   10
 70
    1
 43
0
 10
9773.07
 20
34348.31999999999
 10
8547.041999999999
 20
34611.099
 10
7599.792
 20
33358.269
 10
7673.883000000001
 20
34936.70699999999
 10
6779.367
 20
35312.829
 10
7970.718
 20
36290.841
 10
8167.053000000002
 20
37752.183
 10
8812.316999999999
 20
36821.25
 10
10071.717
 20
36900.696
 10
9227.646000000001
 20
35621.727
  0
LWPOLYLINE
  5
69
100
AcDbEntity
  8
PLASMA
  6
ByLayer
 62
  256
370
   -1
100
AcDbPolyline
 90
   10
 70
    1
 43
0
 10
14422.668
 20
36036.483
 10
13204.101
 20
36296.745
 10
12254.517
 20
35090.196
 10
12328.857
 20
36617.682
 10
11442.855
 20
36983.574
 10
12624.618
 20
37912.284
 10
12821.136
 20
39322.746
 10
13468.047
 20
38416.626
 10
14720.031
 20
38483.55
 10
13880.586
 20
37261.94100000001
  0
LWPOLYLINE
  5
6A
100
AcDbEntity
  8
PLASMA
  6
ByLayer
 62
  256
370
   -1
100
AcDbPolyline
 90
   10
 70
    1
 43
0
 10
19204.056
 20
37307.076
 10
17992.995
 20
37561.272
 10
17041.443
 20
36400.041
 10
17115.783
 20
37874.199
 10
16239.579
 20
38226.996
 10
17410.722
 20
39108.33
 10
17607.24
 20
40467.795
 10
18256.164
 20
39588.912
 10
19499.313
 20
39646.821
 10
18665.406
 20
38482.062
  0
LWPOLYLINE
  5
6B
100
AcDbEntity
  8
PLASMA
  6
ByLayer
 62
  256
370
   -1
100
AcDbPolyline
 90
   10
 70
    1
 43
0
 10
24403.611
 20
38287.743
 10
23200.791
 20
38532.144
 10
22247.313
 20
37418.244
 10
22321.794
 20
38834.175
 10
21457.17
 20
39170.037
 10
22615.311
 20
40003.18799999999
 10
22812.378
 20
41308.29599999999
 10
23463.684
 20
40460.382
 10
24695.619
 20
40511.787
 10
23868.714
 20
39407.157
  0
LWPOLYLINE
  5
6C
100
AcDbEntity
  8
PLASMA
  6
ByLayer
 62
  256
370
   -1
100
AcDbPolyline
 90
   10
 70
    1
 43
0
 10
29218.14
 20
38778.693
 10
28022.643
 20
39010.185
 10
27067.842
 20
37937.76000000001
 10
27142.41
 20
39298.896
 10
26289.642
 20
39616.33199999999
 10
27434.691
 20
40408.38
 10
27632.079
 20
41664.3
 10
28286.223
 20
40846.986
 10
29506.026
 20
40896.537
 10
28686.492
 20
39845.60399999999
  0
LWPOLYLINE
  5
6D
100
AcDbEntity
  8
PLASMA
  6
ByLayer
 62
  256
370
   -1
100
AcDbPolyline
 90
   10
 70
    1
 43
0
 10
34261.506
 20
38950.128
 10
33073.746
 20
39164.886
 10
32118.02699999999
 20
38133.591
 10
32192.643
 20
39436.797
 10
31353.654
 20
39732.354
 10
32483.46
 20
40484.436
 10
32681.397
 20
41690.163
 10
33338.65500000001
 20
40906.836
 10
34544.08199999999
 20
40957.902
 10
33733.428
 20
39961.029
  0
LWPOLYLINE
  5
6E
100
AcDbEntity
  8
PLASMA
  6
ByLayer
 62
  256
370
   -1
100
AcDbPolyline
 90
  151
 70
    1
 43
0
 10
35684.325
 20
42984.306
 10
34762.299
 20
41974.113
 10
34781.112
 20
43255.62300000001
 10
33934.617
 20
43544.448
 10
33942.58199999999
 20
43550.055
 10
35025.513
 20
44268.63
 10
35027.115
 20
44275.06200000001
 10
35145.99600000001
 20
45232.63500000001
 42
-0.0154800000000002
 10
31930.06799999997
 20
45461.81400000001
 42
0.00759999999999997
 10
30291.321
 20
45591.31499999999
 10
30810.516
 20
44986.518
 10
30815.277
 20
44984.664
 10
32031.144
 20
45025.842
 10
32035.218
 20
45024.35399999999
 10
31262.283
 20
44007.567
 10
31258.43700000001
 20
44000.74800000001
 10
31823.364
 20
42979.911
 10
31826.889
 20
42972.633
 10
30647.094
 20
43199.15700000001
 10
30636.474
 20
43201.011
 10
29715.819
 20
42150.102
 10
29734.68
 20
43489.46999999999
 10
28873.398
 20
43800.681
 10
28882.05
 20
43806.88499999999
 10
29980.041
 20
44564.27699999999
 10
29980.956
 20
44565.879
 10
30000.45900000003
 20
44730.58199999997
 42
0.003038000000000006
 10
26537.84100000001
 20
44378.67600000003
 10
26210.265
 20
43928.718
 10
26210.862
 20
43924.39199999999
 10
26780.868
 20
42847.182
 10
26781.006
 20
42843.225
 10
25589.904
 20
43083.984
 10
25582.443
 20
43084.077
 10
24670.716
 20
41998.64999999999
 10
24664.491
 20
41992.035
 10
24683.076
 20
43376.289
 10
24683.028
 20
43388.10000000001
 10
23808.564
 20
43719.018
 10
24383.37599999999
 20
44132.379
 42
0.00881300000000002
 10
21216.933
 20
43691.00100000002
 10
21157.242
 20
43605.354
 10
21734.664
 20
42467.148
 10
21728.85
 20
42467.262
 10
20529.099
 20
42719.697
 10
20523.147
 20
42715.50900000001
 10
19612.197
 20
41584.626
 10
19609.818
 20
41585.883
 10
19628.403
 20
43029.579
 10
19627.167
 20
43035.60000000001
 10
18963.822
 20
43296.72899999998
 42
0.01385700000000001
 10
16179.381
 20
42690.03299999999
 10
16096.755
 20
42566.001
 10
16096.251
 20
42564.675
 10
16678.482
 20
41373.024
 10
15461.061
 20
41632.416
 10
14546.448
 20
40445.343
 10
14546.448
 20
40454.841
 10
14559.95099999999
 20
41542.008
 42
-0.04479199999999996
 10
11138.673
 20
40920.91499999999
 10
11617.173
 20
39906.555
 10
11612.64
 20
39906.03
 10
10394.301
 20
40166.244
 10
10388.307
 20
40162.95
 10
9482.484
 20
38933.877
 10
9479.324999999999
 20
38932.983
 10
9497.864999999998
 20
40486.449
 10
9496.673999999999
 20
40494.414
 10
8590.896000000001
 20
40866.462
 10
8605.955999999998
 20
40878.91500000001
 42
-0.002281000000000092
 10
8371.07699999999
 20
40890.702
 10
8363.616
 20
40898.187
 42
-0.05066000000000001
 10
9766.157999999999
 20
42017.052
 10
9768.036
 20
42030.98999999999
 10
9891.267000000002
 20
43254.432
 10
10488.786
 20
42444.648
 42
-0.05305599999999999
 10
13330.077
 20
43568.16
 10
13220.49
 20
43684.36500000001
 10
13063.203
 20
43821.03
 10
12977.691
 20
43954.605
 10
12959.016
 20
44084.931
 10
13002.183
 20
44211.891
 10
13102.386
 20
44335.41899999999
 10
13254.639
 20
44455.308
 42
-0.06622299999999999
 10
14285.478
 20
44896.272
 42
-0.02399399999999991
 10
16299.91199999999
 20
45384.33899999999
 10
16389.45
 20
46402.77
 10
16386.75
 20
46406.433
 10
15531.327
 20
46788.642
 10
15531.327
 20
46791.939
 10
16724.898
 20
47628.822
 10
16730.622
 20
47634.726
 10
16976.394
 20
48978.378
 10
16978.41
 20
48985.473
 10
17586.732
 20
48091.437
 10
17591.721
 20
48084.825
 10
18821.733
 20
48100.914
 10
18832.854
 20
48100.88999999999
 10
17956.878
 20
46962.546
 10
18449.112
 20
45765.039
 10
17251.008
 20
46061.301
 10
17246.52
 20
46056.72600000001
 10
16722.56399999999
 20
45459.069
 42
-0.01410899999999997
 10
21519.471
 20
46135.161
 10
21616.149
 20
47189.529
 10
21614.274
 20
47193.78599999999
 10
20770.476
 20
47556.243
 10
20768.874
 20
47559.15
 10
21948.762
 20
48350.89800000001
 10
21955.626
 20
48356.622
 10
22201.81200000001
 20
49646.622
 10
22203.873
 20
49655.319
 10
22814.391
 20
48794.379
 10
22819.932
 20
48786.849
 10
24049.164
 20
48800.24099999999
 10
23180.922
 20
47720.559
 10
23669.997
 20
46579.743
 10
23660.385
 20
46581.78000000001
 10
22479.492
 20
46862.595
 10
22474.548
 20
46858.176
 10
21836.883
 20
46161.21
 42
-0.02427399999999993
 10
26327.178
 20
46317.76499999999
 10
26440.566
 20
47506.278
 10
26438.46
 20
47510.628
 10
25606.248
 20
47852.211
 10
25605.33
 20
47855.02499999999
 10
26772.078
 20
48609.19200000001
 10
26778.396
 20
48614.61600000001
 10
27025.314
 20
49857.35400000001
 10
27027.375
 20
49864.99800000001
 10
27640.869
 20
49035.27899999999
 10
27646.179
 20
49028.481
 10
28862.184
 20
49043.31300000001
 10
28002.366
 20
48015.633
 10
28489.014
 20
46927.986
 10
28478.805
 20
46930.137
 10
27304.413
 20
47195.067
 10
27297.822
 20
47188.98
 10
26464.78199999999
 20
46312.40699999999
 42
-0.02182
 10
33263.85599999999
 20
45858.14700000008
 42
-0.004240000000000084
 10
37450.33200000002
 20
45375.27600000003
 10
37626.66299999999
 20
45331.55699999999
 42
-0.0343759999999999
 10
35361.969
 20
45227.187
 10
35859.603
 20
44674.896
 10
35864.04300000001
 20
44672.997
 10
37065.444
 20
44716.416
 10
37070.067
 20
44715.249
 10
36305.787
 20
43752.09
 10
36301.575
 20
43745.406
 10
36862.062
 20
42780.717
 10
36865.99799999999
 20
42773.37
  0
LWPOLYLINE
  5
6F
100
AcDbEntity
  8
PLASMA
  6
ByLayer
 62
  256
370
   -1
100
AcDbPolyline
 90
   10
 70
    1
 43
0
 10
39247.56
 20
38812.524
 10
38067.399
 20
39007.119
 10
37111.314
 20
38014.251
 10
37185.792
 20
39259.965
 10
36362.04599999999
 20
39531.12
 10
37475.235
 20
40246.881
 10
37673.904
 20
41403.993
 10
38334.732
 20
40656.12
 10
39523.5
 20
40712.151
 10
38722.962
 20
39767.076
  0
LWPOLYLINE
  5
70
100
AcDbEntity
  8
PLASMA
  6
ByLayer
 62
  256
370
   -1
100
AcDbPolyline
 90
    9
 70
    1
 43
0
 10
40634.49
 20
40448.364
 10
40653.12300000001
 20
42066.72
 10
39737.367
 20
42445.107
 10
40903.06200000001
 20
43460.382
 10
41047.212
 20
44949.876
 10
41632.18799999999
 20
44134.965
 10
41794.281
 20
42205.443
 10
41907.531
 20
41663.568
 10
41543.289
 20
41739.669
  0
LWPOLYLINE
  5
71
100
AcDbEntity
  8
PLASMA
  6
ByLayer
 62
  256
370
   -1
100
AcDbPolyline
 90
   23
 70
    1
 43
0
 10
71577.16500000001
 20
30745.71900000001
 42
0.1726069999999999
 10
71198.319
 20
30494.751
 10
71232.057
 20
30470.079
 42
-0.119482
 10
75940.383
 20
28778.75399999999
 10
76038.43799999999
 20
28681.389
 42
-0.07804400000000007
 10
73611.78599999998
 20
28728.423
 42
-0.01749299999999984
 10
71184.63
 20
29243.478
 42
0.04028599999999997
 10
68750.74799999998
 20
29646.951
 42
0.04274900000000007
 10
67529.20499999999
 20
29625.732
 42
-0.1337360000000001
 10
68829.804
 20
30025.818
 42
0.07903200000000003
 10
67125
 20
30450.738
 42
0.018353
 10
65068.35900000001
 20
30552.58800000001
 42
-0.04665100000000003
 10
63265.227
 20
30756.591
 42
-0.03254599999999987
 10
62617.677
 20
30949.815
 10
62726.577
 20
31026.21599999999
 42
-0.074031
 10
64959.36599999999
 20
31361.802
 42
-0.01117600000000006
 10
67034.73
 20
31333.41899999999
 42
0.04464000000000009
 10
69360.03
 20
31462.257
 42
-0.04453599999999994
 10
72056.71800000001
 20
31582.215
 42
-0.07592400000000007
 10
73497.98700000001
 20
31297.98900000001
 42
-0.05227400000000005
 10
73920.318
 20
31079.38499999999
 10
73946.22899999999
 20
31032.006
 10
71959.716
 20
30815.871
 42
0.04695900000000009
  0
LWPOLYLINE
  5
72
100
AcDbEntity
  8
PLASMA
  6
ByLayer
 62
  256
370
   -1
100
AcDbPolyline
 90
   24
 70
    1
 43
0
 10
70172.56200000001
 20
39655.128
 10
70797.042
 20
39718.11599999999
 42
-0.03631000000000003
 10
73295.424
 20
39832.90200000001
 42
-0.09287300000000001
 10
75426.13199999998
 20
39371.93399999999
 42
-0.04704999999999995
 10
76123.71900000001
 20
38978.028
 42
0.05172099999999991
 10
66280.242
 20
38917.71599999999
 42
-0.04900400000000001
 10
69392.94300000006
 20
37576.74299999999
 42
-0.01812300000000019
 10
56036.3159999999
 20
39416.88600000003
 10
58068.009
 20
38132.56199999999
 42
-0.02504700000000016
 10
54763.82399999998
 20
38285.54399999999
 42
-0.07399599999999994
 10
51579.84900000001
 20
39082.03199999999
 10
51169.053
 20
39250.533
 42
0.09055400000000005
 10
48289.764
 20
39915.756
 42
0.02742000000000007
 10
45856.614
 20
39902.091
 10
45311.78399999999
 20
39878.12699999999
 42
-0.03374099999999997
 10
42601.31699999998
 20
39894.17399999999
 42
-0.02933099999999991
 10
41536.33200000001
 20
40053.018
 42
-0.03604000000000007
 10
48287.29199999999
 20
41070.624
 42
0.3026049999999996
 10
47506.76099999999
 20
41817.07799999999
 42
0.045508
 10
49856.919
 20
41717.994
 42
-0.02003200000000003
 10
52176.27
 20
41728.11
 42
-0.02898999999999993
 10
53675.72100000001
 20
41542.80899999999
 42
-0.01791900000000003
 10
58937.80499999999
 20
40563.927
 42
0.02686200000000007
 10
64571.73299999997
 20
39657.234
 42
0.05234000000000008
  0
LWPOLYLINE
  5
73
100
AcDbEntity
  8
SIMPLECUTS
  6
ByLayer
 62
  256
370
   -1
100
AcDbPolyline
 90
   10
 70
    0
 43
0
 10
68072.38799999982
 20
32141.18999999994
 42
-0.007907000000000011
 10
57921.75299999982
 20
33100.61700000001
 42
-0.01302000000000001
 10
54788.68199999999
 20
33527.481
 10
54572.38799999999
 20
33556.365
 10
54350.097
 20
33582.732
 10
54121.90199999999
 20
33606.627
 10
53888.44200000001
 20
33628.18799999999
 10
53649.90300000001
 20
33647.46
 42
0.02447899999999996
 10
48797.05799999987
 20
33703.85700000008
 42
-0.002619999999999898
 10
44531.93700000003
 20
33567.4200000001
 42
-0.002619999999999898
  0
LWPOLYLINE
  5
74
100
AcDbEntity
  8
SIMPLECUTS
  6
ByLayer
 62
  256
370
   -1
100
AcDbPolyline
 90
    8
 70
    0
 43
0
 10
45178.392
 20
30781.608
 10
45233.001
 20
30629.676
 10
45293.61
 20
30625.833
 10
45483.72
 20
30623.841
 10
45690.858
 20
30622.62599999999
 42
-0.01521699999999993
 10
53932.71
 20
30444.57899999995
 42
-0.01716300000000005
 10
60632.35499999993
 20
29827.94999999998
 42
0.009872000000000075
 10
66148.49999999997
 20
29299.04999999999
 42
0.009872000000000075
  0
ARC
  5
75
100
AcDbEntity
  8
SIMPLECUTS
  6
ByLayer
 62
  256
370
   -1
100
AcDbCircle
 10
58304.901
 20
-49398.336
 40
70040.883
100
AcDbArc
 50
89.80568700000001
 51
96.68310700000001
  0
LWPOLYLINE
  5
76
100
AcDbEntity
  8
SIMPLECUTS
  6
ByLayer
 62
  256
370
   -1
100
AcDbPolyline
 90
    3
 70
    0
 43
0
 10
70434.21899999995
 20
25542.25200000004
 42
0.01154699999999991
 10
53805.99900000001
 20
26970.49799999995
 42
0.01247900000000001
 10
46535.75099999998
 20
27245.68199999993
 42
0.01247900000000001
  0
LWPOLYLINE
  5
77
100
AcDbEntity
  8
SIMPLECUTS
  6
ByLayer
 62
  256
370
   -1
100
AcDbPolyline
 90
    3
 70
    0
 43
0
 10
54084.45599999999
 20
23720.421
 10
54775.54200000001
 20
23709.27300000004
 42
-0.01886600000000005
 10
64360.56600000001
 20
23224.84500000004
 42
-0.01886600000000005
  0
LWPOLYLINE
  5
78
100
AcDbEntity
  8
SIMPLECUTS
  6
ByLayer
 62
  256
370
   -1
100
AcDbPolyline
 90
    5
 70
    0
 43
0
 10
9016.022999999521
 20
12211.43999999983
 42
0.001921000000000004
 10
15061.84499999952
 20
15766.13699999984
 42
-0.01175700000000005
 10
23689.86600000001
 20
19540.94699999999
 42
-0.02537400000000009
 10
29104.11000000001
 20
21462.13500000001
 42
-0.04233800000000004
 10
33181.731
 20
22288.902
 42
-0.04233800000000004
  0
LWPOLYLINE
  5
79
100
AcDbEntity
  8
SIMPLECUTS
  6
ByLayer
 62
  256
370
   -1
100
AcDbPolyline
 90
    7
 70
    0
 43
0
 10
37871.658
 20
25502.151
 42
0.03464099999999991
 10
35127.501
 20
25541.70300000001
 42
0.044487
 10
28998.91800000001
 20
24681.10800000001
 42
0.04048800000000002
 10
20631.68399999999
 20
21994.995
 10
20062.089
 20
21760.57500000001
 42
0.03639399999999997
 10
9034.515000000009
 20
16123.443
 10
8674.851000000001
 20
15905.388
  0
LWPOLYLINE
  5
7A
100
AcDbEntity
  8
SIMPLECUTS
  6
ByLayer
 62
  256
370
   -1
100
AcDbPolyline
 90
    5
 70
    0
 43
0
 10
45951.966
 20
52001.74800000001
 42
-0.03086899999999995
 10
49669.78499999999
 20
50863.42500000002
 42
0.04261000000000014
 10
55703.613
 20
49275.90300000001
 42
0.05402199999999991
 10
60172.89599999999
 20
48983.001
 42
0.04191700000000007
 10
62303.238
 20
49269.79199999999
 42
0.04191700000000007
  0
LWPOLYLINE
  5
7B
100
AcDbEntity
  8
SIMPLECUTS
  6
ByLayer
 62
  256
370
   -1
100
AcDbPolyline
 90
    7
 70
    0
 43
0
 10
61246.53599999999
 20
52960.143
 42
-0.0847119999999998
 10
57696.624
 20
52415.81699999999
 42
-0.05925600000000001
 10
53985.76499999997
 20
52894.43099999998
 42
-0.01822400000000013
 10
48227.64599999994
 20
54800.925
 42
0.01474200000000002
 10
44984.71200000001
 20
55898.736
 42
0.05470099999999997
 10
42649.98
 20
56356.13400000001
 42
0.05127699999999997
 10
41656.677
 20
56319.693
 42
0.05127699999999997
  0
LWPOLYLINE
  5
7C
100
AcDbEntity
  8
SIMPLECUTS
  6
ByLayer
 62
  256
370
   -1
100
AcDbPolyline
 90
    4
 70
    0
 43
0
 10
20215.16400000001
 20
25091.928
 42
-0.01422800000000005
 10
23853.33300000001
 20
26539.626
 42
-0.06001699999999997
 10
32004.09
 20
28237.404
 42
-0.07238700000000001
 10
44887.755
 20
27486.876
 42
-0.07238700000000001
  0
ARC
  5
7D
100
AcDbEntity
  8
SIMPLECUTS
  6
ByLayer
 62
  256
370
   -1
100
AcDbCircle
 10
81804.37199999999
 20
-112674.603
 40
150950.736
100
AcDbArc
 50
116.76642
 51
118.465437
  0
ARC
  5
7E
100
AcDbEntity
  8
SIMPLECUTS
  6
ByLayer
 62
  256
370
   -1
100
AcDbCircle
 10
51951.177
 20
-60732.68399999999
 40
94634.019
100
AcDbArc
 50
112.547367
 51
115.763567
  0
LWPOLYLINE
  5
7F
100
AcDbEntity
  8
SIMPLECUTS
  6
ByLayer
 62
  256
370
   -1
100
AcDbPolyline
 90
    5
 70
    0
 43
0
 10
43701.735
 20
30864.486
 10
43422.17999999999
 20
30951.669
 42
0.06460299999999994
 10
38016.40199999999
 20
31790.03999999999
 42
0.04659900000000002
 10
31459.07700000001
 20
31350.08100000002
 42
0.025421
 10
26086.89900000001
 20
30224.16600000002
 42
0.025421
  0
LWPOLYLINE
  5
80
100
AcDbEntity
  8
SIMPLECUTS
  6
ByLayer
 62
  256
370
   -1
100
AcDbPolyline
 90
    4
 70
    0
 43
0
 10
42781.77
 20
44943.55799999999
 42
-0.02882500000000006
 10
54738.42000000003
 20
42977.57700000001
 42
0.05282699999999988
 10
62963.46899999997
 20
42164.45100000001
 42
0.02604699999999995
 10
64591.32299999999
 20
42264.15300000001
 42
0.02604699999999995
  0
LWPOLYLINE
  5
81
100
AcDbEntity
  8
SIMPLECUTS
  6
ByLayer
 62
  256
370
   -1
100
AcDbPolyline
 90
    7
 70
    0
 43
0
 10
63426.225
 20
45776.11500000001
 42
-0.05590400000000003
 10
59547.501
 20
45588.77700000001
 42
-0.04839800000000011
 10
54537.82799999993
 20
46366.38000000003
 42
-0.008733999999999914
 10
48670.21199999999
 20
47942.87100000004
 42
0.01929999999999998
 10
44835.846
 20
48893.32500000001
 42
0.05433899999999997
 10
42579.621
 20
49119.98699999999
 42
0.02987899999999997
 10
42031.677
 20
49068.969
 42
0.02987899999999997
  0
LWPOLYLINE
  5
82
100
AcDbEntity
  8
SIMPLECUTS
  6
ByLayer
 62
  256
370
   -1
100
AcDbPolyline
 90
    6
 70
    0
 43
0
 10
43406.844
 20
37067.781
 42
-0.02741399999999998
 10
47318.619
 20
37150.40700000001
 42
-0.03956300000000004
 10
56414.47500000001
 20
36182.55599999997
 42
0.0218299999999999
 10
63253.96799999996
 20
35280.37199999998
 42
0.03386299999999986
 10
66135.22199999999
 20
35214.66
 42
0.03570500000000006
 10
66962.08200000001
 20
35319.558
 42
0.03570500000000006
  0
LWPOLYLINE
  5
83
100
AcDbEntity
  8
SIMPLECUTS
  6
ByLayer
 62
  256
370
   -1
100
AcDbPolyline
 90
    4
 70
    0
 43
0
 10
21689.484
 20
32708.496
 42
-0.100068
 10
37574.202
 20
34497.43799999999
 42
-0.04259099999999997
 10
42711.96
 20
33610.83899999999
 10
42856.2
 20
33570.74099999999
  0
LWPOLYLINE
  5
84
100
AcDbEntity
  8
SIMPLECUTS
  6
ByLayer
 62
  256
370
   -1
100
AcDbPolyline
 90
    4
 70
    0
 43
0
 10
41690.82599999999
 20
36623.79599999999
 42
0.07392600000000001
 10
28178.145
 20
36990.69299999999
 42
0.06155499999999992
 10
14979.402
 20
33707.772
 42
0.02657200000000005
 10
9178.664999999983
 20
31142.46299999999
 42
0.02657200000000005
  0
LWPOLYLINE
  5
85
100
AcDbEntity
  8
SIMPLECUTS
  6
ByLayer
 62
  256
370
   -1
100
AcDbPolyline
 90
    8
 70
    0
 43
0
 10
83823.12
 20
44979.78900000002
 42
0.01034800000000007
 10
74611.54199999999
 20
48493.72200000001
 10
74286.21000000001
 20
48607.932
 10
73966.554
 20
48718.917
 10
73653.306
 20
48826.377
 10
73347.19799999997
 20
48929.97
 42
0.05865400000000003
 10
68916.549
 20
49923.204
 42
0.07357899999999999
 10
64356.30899999999
 20
49659.003
 42
0.07357899999999999
  0
LWPOLYLINE
  5
86
100
AcDbEntity
  8
SIMPLECUTS
  6
ByLayer
 62
  256
370
   -1
100
AcDbPolyline
 90
    7
 70
    0
 43
0
 10
65112.30599999998
 20
46341.522
 42
-0.04506900000000005
 10
66982.224
 20
46763.283
 42
-0.096014
 10
73934.14199999999
 20
46406.844
 10
74289.18600000002
 20
46317.948
 42
-0.01847899999999996
 10
80747.81700000008
 20
44253.13499999995
 42
0.006928999999999946
 10
86001.342
 20
42430.98299999999
 42
0.02158100000000007
 10
88948.60799999999
 20
41604.46799999999
 42
0.02158100000000007
  0
LWPOLYLINE
  5
87
100
AcDbEntity
  8
SIMPLECUTS
  6
ByLayer
 62
  256
370
   -1
100
AcDbPolyline
 90
    6
 70
    0
 43
0
 10
80572.77
 20
40354.34099999999
 42
0.04884300000000003
 10
73901.18399999999
 20
42660.645
 42
0.05036299999999995
 10
69855.92700000001
 20
43211.63099999999
 42
0.067597
 10
67077.576
 20
42928.872
 10
66756.95699999999
 20
42838.944
 10
66444.12299999999
 20
42735.306
  0
LWPOLYLINE
  5
88
100
AcDbEntity
  8
SIMPLECUTS
  6
ByLayer
 62
  256
370
   -1
100
AcDbPolyline
 90
    7
 70
    0
 43
0
 10
69784.47
 20
40443.09899999999
 42
-0.05878399999999994
 10
71091.93299999999
 20
40679.37599999999
 42
-0.07218399999999997
 10
74505.156
 20
40437.492
 42
-0.053879
 10
78197.52599999998
 20
39231.44400000002
 42
0.02298699999999991
 10
83985.26099999995
 20
36937.24800000004
 42
0.04048499999999996
 10
87571.33499999996
 20
36009.429
 42
0.03916700000000005
 10
89448.66899999999
 20
35853.882
 42
0.03916700000000005
  0
LWPOLYLINE
  5
89
100
AcDbEntity
  8
SIMPLECUTS
  6
ByLayer
 62
  256
370
   -1
100
AcDbPolyline
 90
    7
 70
    0
 43
0
 10
87036.21000000001
 20
32942.367
 42
-0.03260600000000007
 10
85411.60499999998
 20
33250.16700000002
 42
-0.0204040000000001
 10
80351.25599999996
 20
34706.04000000004
 42
-0.005850000000000031
 10
77322.46499999998
 20
35728.86600000002
 42
0.04703500000000001
 10
73289.52
 20
36501.54899999999
 42
0.06772899999999997
 10
70512.681
 20
36400.818
 42
0.0839059999999999
 10
68900.94
 20
35828.223
 42
0.0839059999999999
  0
LWPOLYLINE
  5
8A
100
AcDbEntity
  8
SIMPLECUTS
  6
ByLayer
 62
  256
370
   -1
100
AcDbPolyline
 90
    9
 70
    0
 43
0
 10
69929.535
 20
32865.693
 42
-0.05743099999999993
 10
70864.60800000001
 20
33126.13799999999
 42
-0.05249599999999997
 10
73601.48699999999
 20
33314.553
 42
-0.04152299999999995
 10
77950.28700000001
 20
32818.83900000001
 42
-0.01940800000000001
 10
81607.81800000003
 20
31960.35000000003
 42
-0.008832999999999954
 10
86886.88799999998
 20
30521.21100000003
 42
-0.03606700000000002
 10
87770.55300000001
 20
30217.713
 10
87782.04300000001
 20
30210.549
 42
-1.289632000001038
 10
87786.255
 20
30192.07500000001
 42
-1.289632000001038
  0
LWPOLYLINE
  5
8B
100
AcDbEntity
  8
SIMPLECUTS
  6
ByLayer
 62
  256
370
   -1
100
AcDbPolyline
 90
    3
 70
    0
 43
0
 10
90073.746
 20
25977.90599999998
 42
0.02715700000000004
 10
81257.17199999999
 20
28709.541
 42
0.02433999999999998
 10
77258.33100000001
 20
29500.03200000001
 42
0.02433999999999998
  0
LWPOLYLINE
  5
8C
100
AcDbEntity
  8
SIMPLECUTS
  6
ByLayer
 62
  256
370
   -1
100
AcDbPolyline
 90
    4
 70
    0
 43
0
 10
85661.03999999996
 20
24941.55
 42
-0.01429399999999997
 10
84032.27099999999
 20
25479.858
 42
0.04005000000000005
 10
79231.93499999998
 20
26724.723
 42
0.01032300000000006
 10
78370.46699999999
 20
26848.344
 42
0.01032300000000006
  0
ARC
  5
8D
100
AcDbEntity
  8
SIMPLECUTS
  6
ByLayer
 62
  256
370
   -1
100
AcDbCircle
 10
35537.628
 20
30131.823
 40
29946.474
100
AcDbArc
 50
71.086488
 51
79.42865
  0
LWPOLYLINE
  5
8E
100
AcDbEntity
  8
SIMPLECUTS
  6
ByLayer
 62
  256
370
   -1
100
AcDbPolyline
 90
    7
 70
    0
 43
0
 10
8447.616
 20
8336.951999999999
 10
9554.124
 20
8940.993
 10
10663.56
 20
9539.565000000001
 10
11775.924
 20
10132.668
 10
12891.21899999997
 20
10720.29900000003
 42
-0.01672200000000003
 10
23089.875
 20
15684.01200000003
 42
-0.006239999999999995
 10
25340.60700000001
 20
16643.69100000002
 42
-0.006239999999999995
  0
ARC
  5
8F
100
AcDbEntity
  8
SIMPLECUTS
  6
ByLayer
 62
  256
370
   -1
100
AcDbCircle
 10
135201.474
 20
-225715.347
 40
262984.509
100
AcDbArc
 50
116.571227
 51
118.936201
  0
ARC
  5
90
100
AcDbEntity
  8
SIMPLECUTS
  6
ByLayer
 62
  256
370
   -1
100
AcDbCircle
 10
34486.599
 20
-23833.581
 40
49443.954
100
AcDbArc
 50
79.884658
 51
81.244347
  0
ARC
  5
91
100
AcDbEntity
  8
SIMPLECUTS
  6
ByLayer
 62
  256
370
   -1
100
AcDbCircle
 10
40470.85799999999
 20
-2487.27
 40
44012.505
100
AcDbArc
 50
84.379351
 51
86.501226
  0
ENDSEC
  0
SECTION
  2
OBJECTS
  0
DICTIONARY
  5
C
330
0
100
AcDbDictionary
281
    1
  3
ACAD_GROUP
350
D
  0
DICTIONARY
  5
D
330
C
100
AcDbDictionary
281
    1
  0
ENDSEC
  0
EOF
