999
dxfrw 0.6.3
  0
SECTION
  2
HEADER
  9
$ACADVER
  1
AC1021
  9
$DWGCODEPAGE
  3
ANSI_1252
  9
$INSBASE
 10
0
 20
0
 30
0
  9
$EXTMIN
 10
-200
 20
-200
 30
0
  9
$EXTMAX
 10
200
 20
200
 30
0
  9
$LIMMIN
 10
0
 20
0
  9
$LIMMAX
 10
0
 20
0
  9
$ORTHOMODE
 70
    0
  9
$REGENMODE
 70
    1
  9
$FILLMODE
 70
    1
  9
$QTEXTMODE
 70
    0
  9
$MIRRTEXT
 70
    1
  9
$LTSCALE
 40
1
  9
$ATTMODE
 70
    1
  9
$TEXTSIZE
 40
0.2
  9
$TRACEWID
 40
0.05
  9
$TEXTSTYLE
  7
Standard
  9
$CLAYER
  8
PLASMA
  9
$CELTYPE
  6
Continuous
  9
$CECOLOR
 62
  256
  9
$CELTSCALE
 40
1
  9
$DISPSILH
 70
    0
  9
$DIMSCALE
 40
1
  9
$DIMASZ
 40
0.18
  9
$DIMEXO
 40
0.0625
  9
$DIMDLI
 40
0.38
  9
$DIMRND
 40
0
  9
$DIMDLE
 40
0
  9
$DIMEXE
 40
0.18
  9
$DIMTP
 40
0
  9
$DIMTM
 40
0
  9
$DIMTXT
 40
0.18
  9
$DIMCEN
 40
0.09
  9
$DIMTSZ
 40
0
  9
$DIMTOL
 70
    0
  9
$DIMLIM
 70
    0
  9
$DIMTIH
 70
    1
  9
$DIMTOH
 70
    1
  9
$DIMSE1
 70
    0
  9
$DIMSE2
 70
    0
  9
$DIMTAD
 70
    0
  9
$DIMZIN
 70
    0
  9
$DIMBLK
  1

  9
$DIMASO
 70
    1
  9
$DIMSHO
 70
    1
  9
$DIMPOST
  1

  9
$DIMAPOST
  1

  9
$DIMALT
 70
    0
  9
$DIMALTD
 70
    2
  9
$DIMALTF
 40
25.4
  9
$DIMLFAC
 40
1
  9
$DIMTOFL
 70
    0
  9
$DIMTVP
 40
0
  9
$DIMTIX
 70
    0
  9
$DIMSOXD
 70
    0
  9
$DIMSAH
 70
    0
  9
$DIMBLK1
  1

  9
$DIMBLK2
  1

  9
$DIMSTYLE
  2
Standard
  9
$DIMCLRD
 70
    0
  9
$DIMCLRE
 70
    0
  9
$DIMCLRT
 70
    0
  9
$DIMTFAC
 40
1
  9
$DIMGAP
 40
0.09
  9
$DIMJUST
 70
    0
  9
$DIMSD1
 70
    0
  9
$DIMSD2
 70
    0
  9
$DIMTOLJ
 70
    1
  9
$DIMTZIN
 70
    0
  9
$DIMALTZ
 70
    0
  9
$DIMALTTZ
 70
    0
  9
$DIMUPT
 70
    0
  9
$DIMDEC
 70
    4
  9
$DIMTDEC
 70
    4
  9
$DIMALTU
 70
    2
  9
$DIMALTTD
 70
    2
  9
$DIMTXSTY
  7
standard
  9
$DIMAUNIT
 70
    0
  9
$DIMADEC
 70
    0
  9
$DIMALTRND
 40
0
  9
$DIMAZIN
 70
    0
  9
$DIMDSEP
 70
    0
  9
$DIMATFIT
 70
    3
  9
$DIMFRAC
 70
    0
  9
$DIMLDRBLK
  1

  9
$DIMLUNIT
 70
    2
  9
$DIMLWD
 70
   -2
  9
$DIMLWE
 70
   -2
  9
$DIMTMOVE
 70
    0
  9
$DIMFXL
 40
0.04
  9
$DIMFXLON
 70
    0
  9
$DIMJOGANG
 40
0.7854
  9
$DIMTFILL
 70
    0
  9
$DIMTFILLCLR
 70
    0
  9
$DIMARCSYM
 70
    0
  9
$DIMLTYPE
  6

  9
$DIMLTEX1
  6

  9
$DIMLTEX2
  6

  9
$LUNITS
 70
    2
  9
$LUPREC
 70
    4
  9
$SKETCHINC
 40
0.1
  9
$FILLETRAD
 40
0
  9
$AUNITS
 70
    0
  9
$AUPREC
 70
    0
  9
$MENU
  1
acad
  9
$ELEVATION
 40
0
  9
$PELEVATION
 40
0
  9
$THICKNESS
 40
0
  9
$LIMCHECK
 70
    0
  9
$CHAMFERA
 40
0
  9
$CHAMFERB
 40
0
  9
$CHAMFERC
 40
0
  9
$CHAMFERD
 40
0
  9
$SKPOLY
 70
    0
  9
$USRTIMER
 70
    1
  9
$ANGBASE
 50
0
  9
$ANGDIR
 70
    0
  9
$PDMODE
 70
    0
  9
$PDSIZE
 40
0
  9
$PLINEWID
 40
0
  9
$SPLFRAME
 70
    0
  9
$SPLINETYPE
 70
    6
  9
$SPLINESEGS
 70
    8
  9
$HANDSEED
  5
20000
  9
$SURFTAB1
 70
    6
  9
$SURFTAB2
 70
    6
  9
$SURFTYPE
 70
    6
  9
$SURFU
 70
    6
  9
$SURFV
 70
    6
  9
$UCSBASE
  2

  9
$UCSNAME
  2

  9
$UCSORG
 10
0
 20
0
 30
0
  9
$UCSXDIR
 10
1
 20
0
 30
0
  9
$UCSYDIR
 10
0
 20
1
 30
0
  9
$UCSORTHOREF
  2

  9
$UCSORTHOVIEW
 70
    0
  9
$UCSORGTOP
 10
0
 20
0
 30
0
  9
$UCSORGBOTTOM
 10
0
 20
0
 30
0
  9
$UCSORGLEFT
 10
0
 20
0
 30
0
  9
$UCSORGRIGHT
 10
0
 20
0
 30
0
  9
$UCSORGFRONT
 10
0
 20
0
 30
0
  9
$UCSORGBACK
 10
0
 20
0
 30
0
  9
$PUCSBASE
  2

  9
$PUCSNAME
  2

  9
$PUCSORG
 10
0
 20
0
 30
0
  9
$PUCSXDIR
 10
1
 20
0
 30
0
  9
$PUCSYDIR
 10
0
 20
1
 30
0
  9
$PUCSORTHOREF
  2

  9
$PUCSORTHOVIEW
 70
    0
  9
$PUCSORGTOP
 10
0
 20
0
 30
0
  9
$PUCSORGBOTTOM
 10
0
 20
0
 30
0
  9
$PUCSORGLEFT
 10
0
 20
0
 30
0
  9
$PUCSORGRIGHT
 10
0
 20
0
 30
0
  9
$PUCSORGFRONT
 10
0
 20
0
 30
0
  9
$PUCSORGBACK
 10
0
 20
0
 30
0
  9
$USERI1
 70
    0
  9
$USERI2
 70
    0
  9
$USERI3
 70
    0
  9
$USERI4
 70
    0
  9
$USERI5
 70
    0
  9
$USERR1
 40
0
  9
$USERR2
 40
0
  9
$USERR3
 40
0
  9
$USERR4
 40
0
  9
$USERR5
 40
0
  9
$WORLDVIEW
 70
    1
  9
$SHADEDGE
 70
    3
  9
$SHADEDIF
 70
   70
  9
$TILEMODE
 70
    1
  9
$MAXACTVP
 70
   16
  9
$PINSBASE
 10
0
 20
0
 30
0
  9
$PLIMCHECK
 70
    0
  9
$PEXTMIN
 10
1e+20
 20
1e+20
 30
1e+20
  9
$PEXTMAX
 10
-1e+20
 20
-1e+20
 30
-1e+20
  9
$GRIDMODE
 70
    1
  9
$SNAPSTYLE
 70
    0
  9
$GRIDUNIT
 10
0
 20
0
  9
$PLIMMIN
 10
0
 20
0
  9
$PLIMMAX
 10
0.00073228
 20
0.00054921
  9
$UNITMODE
 70
    0
  9
$VISRETAIN
 70
    0
  9
$PLINEGEN
 70
    1
  9
$PSLTSCALE
 70
    0
  9
$TREEDEPTH
 70
 3020
  9
$CMLSTYLE
  2
Standard
  9
$CMLJUST
 70
    0
  9
$CMLSCALE
 40
1
  9
$PROXYGRAPHICS
 70
    0
  9
$MEASUREMENT
 70
    0
  9
$CELWEIGHT
370
    0
  9
$ENDCAPS
280
    0
  9
$JOINSTYLE
280
    0
  9
$LWDISPLAY
290
    0
  9
$INSUNITS
 70
    4
  9
$HYPERLINKBASE
  1

  9
$STYLESHEET
  1

  9
$XEDIT
290
    1
  9
$CEPSNTYPE
380
    0
  9
$PSTYLEMODE
290
    1
  9
$EXTNAMES
290
    1
  9
$PSVPSCALE
 40
0
  9
$OLESTARTUP
290
    0
  9
$SORTENTS
280
  127
  9
$INDEXCTL
280
    0
  9
$HIDETEXT
280
    1
  9
$XCLIPFRAME
290
    0
  9
$HALOGAP
280
    0
  9
$OBSCOLOR
 70
  257
  9
$OBSLTYPE
280
    0
  9
$INTERSECTIONDISPLAY
280
    0
  9
$INTERSECTIONCOLOR
 70
  257
  9
$DIMASSOC
280
    1
  9
$PROJECTNAME
  1

  9
$CAMERADISPLAY
290
    0
  9
$LENSLENGTH
 40
50
  9
$CAMERAHEIGHT
 40
0
  9
$STEPSPERSEC
 40
2
  9
$STEPSIZE
 40
50
  9
$3DDWFPREC
 40
2
  9
$PSOLWIDTH
 40
5
  9
$PSOLHEIGHT
 40
80
  9
$LOFTANG1
 40
1.570796326794897
  9
$LOFTANG2
 40
1.570796326794897
  9
$LOFTMAG1
 40
0
  9
$LOFTMAG2
 40
0
  9
$LOFTPARAM
 70
    7
  9
$LOFTNORMALS
280
    1
  9
$LATITUDE
 40
1
  9
$LONGITUDE
 40
1
  9
$NORTHDIRECTION
 40
0
  9
$TIMEZONE
 70
-8000
  9
$LIGHTGLYPHDISPLAY
280
    1
  9
$TILEMODELIGHTSYNCH
280
    1
  9
$SOLIDHIST
280
    1
  9
$SHOWHIST
280
    1
  9
$DWFFRAME
280
    2
  9
$DGNFRAME
280
    0
  9
$REALWORLDSCALE
290
    1
  9
$INTERFERECOLOR
 62
    1
  9
$CSHADOW
280
    0
  9
$SHADOWPLANELOCATION
 40
0
  0
ENDSEC
  0
SECTION
  2
CLASSES
  0
ENDSEC
  0
SECTION
  2
TABLES
  0
TABLE
  2
VPORT
  5
8
330
0
100
AcDbSymbolTable
 70
    1
  0
VPORT
  5
31
330
2
100
AcDbSymbolTableRecord
100
AcDbViewportTableRecord
  2
*ACTIVE
 70
    0
 10
0
 20
0
 11
1
 21
1
 12
232.488381163297
 22
109.4926340579669
 13
0
 23
0
 14
10
 24
10
 15
10
 25
10
 16
0
 26
0
 36
1
 17
0
 27
0
 37
0
 40
479.6540591172061
 41
1.734394124847001
 42
50
 43
0
 44
0
 50
0
 51
0
 71
    0
 72
  100
 73
    1
 74
    3
 75
    0
 76
    1
 77
    0
 78
    0
281
    0
 65
    1
110
0
120
0
130
0
111
1
121
0
131
0
112
0
122
1
132
0
 79
    0
146
0
348
10020
 60
    7
 61
    5
292
1
282
    1
141
0
142
0
 63
  250
421
3358443
  0
ENDTAB
  0
TABLE
  2
LTYPE
  5
5
330
0
100
AcDbSymbolTable
 70
    4
  0
LTYPE
  5
14
330
5
100
AcDbSymbolTableRecord
100
AcDbLinetypeTableRecord
  2
ByBlock
 70
    0
  3

 72
   65
 73
    0
 40
0
  0
LTYPE
  5
15
330
5
100
AcDbSymbolTableRecord
100
AcDbLinetypeTableRecord
  2
ByLayer
 70
    0
  3

 72
   65
 73
    0
 40
0
  0
LTYPE
  5
16
330
5
100
AcDbSymbolTableRecord
100
AcDbLinetypeTableRecord
  2
Continuous
 70
    0
  3
Solid line
 72
   65
 73
    0
 40
0
  0
LTYPE
  5
32
330
5
100
AcDbSymbolTableRecord
100
AcDbLinetypeTableRecord
  2
DOT
 70
    0
  3
Dot . . . . . . . . . . . . . . . . . . . . . .
 72
   65
 73
    2
 40
6.35
 49
0
 74
    0
 49
-6.35
 74
    0
  0
LTYPE
  5
33
330
5
100
AcDbSymbolTableRecord
100
AcDbLinetypeTableRecord
  2
DOTTINY
 70
    0
  3
Dot (.15x) .....................................
 72
   65
 73
    2
 40
0.9525
 49
0
 74
    0
 49
-0.9525
 74
    0
  0
LTYPE
  5
34
330
5
100
AcDbSymbolTableRecord
100
AcDbLinetypeTableRecord
  2
DOT2
 70
    0
  3
Dot (.5x) .....................................
 72
   65
 73
    2
 40
3.175
 49
0
 74
    0
 49
-3.175
 74
    0
  0
LTYPE
  5
35
330
5
100
AcDbSymbolTableRecord
100
AcDbLinetypeTableRecord
  2
DOTX2
 70
    0
  3
Dot (2x) .  .  .  .  .  .  .  .  .  .  .  .  .
 72
   65
 73
    2
 40
12.7
 49
0
 74
    0
 49
-12.7
 74
    0
  0
LTYPE
  5
36
330
5
100
AcDbSymbolTableRecord
100
AcDbLinetypeTableRecord
  2
DASHED
 70
    0
  3
Dashed _ _ _ _ _ _ _ _ _ _ _ _ _ _ _ _ _
 72
   65
 73
    2
 40
19.05
 49
12.7
 74
    0
 49
-6.35
 74
    0
  0
LTYPE
  5
37
330
5
100
AcDbSymbolTableRecord
100
AcDbLinetypeTableRecord
  2
DASHEDTINY
 70
    0
  3
Dashed (.15x) _ _ _ _ _ _ _ _ _ _ _ _ _ _ _ _ _
 72
   65
 73
    2
 40
2.8575
 49
1.905
 74
    0
 49
-0.9525
 74
    0
  0
LTYPE
  5
38
330
5
100
AcDbSymbolTableRecord
100
AcDbLinetypeTableRecord
  2
DASHED2
 70
    0
  3
Dashed (.5x) _ _ _ _ _ _ _ _ _ _ _ _ _ _ _ _ _
 72
   65
 73
    2
 40
9.524999999999999
 49
6.35
 74
    0
 49
-3.175
 74
    0
  0
LTYPE
  5
39
330
5
100
AcDbSymbolTableRecord
100
AcDbLinetypeTableRecord
  2
DASHEDX2
 70
    0
  3
Dashed (2x) ____  ____  ____  ____  ____  ___
 72
   65
 73
    2
 40
38.09999999999999
 49
25.4
 74
    0
 49
-12.7
 74
    0
  0
LTYPE
  5
3A
330
5
100
AcDbSymbolTableRecord
100
AcDbLinetypeTableRecord
  2
DASHDOT
 70
    0
  3
Dash dot __ . __ . __ . __ . __ . __ . __ . __
 72
   65
 73
    4
 40
25.4
 49
12.7
 74
    0
 49
-6.35
 74
    0
 49
0
 74
    0
 49
-6.35
 74
    0
  0
LTYPE
  5
3B
330
5
100
AcDbSymbolTableRecord
100
AcDbLinetypeTableRecord
  2
DASHDOTTINY
 70
    0
  3
Dash dot (.15x) _._._._._._._._._._._._._._._.
 72
   65
 73
    4
 40
3.81
 49
1.905
 74
    0
 49
-0.9525
 74
    0
 49
0
 74
    0
 49
-0.9525
 74
    0
  0
LTYPE
  5
3C
330
5
100
AcDbSymbolTableRecord
100
AcDbLinetypeTableRecord
  2
DASHDOT2
 70
    0
  3
Dash dot (.5x) _._._._._._._._._._._._._._._.
 72
   65
 73
    4
 40
12.7
 49
6.35
 74
    0
 49
-3.175
 74
    0
 49
0
 74
    0
 49
-3.175
 74
    0
  0
LTYPE
  5
3D
330
5
100
AcDbSymbolTableRecord
100
AcDbLinetypeTableRecord
  2
DASHDOTX2
 70
    0
  3
Dash dot (2x) ____  .  ____  .  ____  .  ___
 72
   65
 73
    4
 40
50.8
 49
25.4
 74
    0
 49
-12.7
 74
    0
 49
0
 74
    0
 49
-12.7
 74
    0
  0
LTYPE
  5
3E
330
5
100
AcDbSymbolTableRecord
100
AcDbLinetypeTableRecord
  2
DIVIDE
 70
    0
  3
Divide ____ . . ____ . . ____ . . ____ . . ____
 72
   65
 73
    6
 40
31.75
 49
12.7
 74
    0
 49
-6.35
 74
    0
 49
0
 74
    0
 49
-6.35
 74
    0
 49
0
 74
    0
 49
-6.35
 74
    0
  0
LTYPE
  5
3F
330
5
100
AcDbSymbolTableRecord
100
AcDbLinetypeTableRecord
  2
DIVIDETINY
 70
    0
  3
Divide (.15x) __..__..__..__..__..__..__..__.._
 72
   65
 73
    6
 40
4.7625
 49
1.905
 74
    0
 49
-0.9525
 74
    0
 49
0
 74
    0
 49
-0.9525
 74
    0
 49
0
 74
    0
 49
-0.9525
 74
    0
  0
LTYPE
  5
40
330
5
100
AcDbSymbolTableRecord
100
AcDbLinetypeTableRecord
  2
DIVIDE2
 70
    0
  3
Divide (.5x) __..__..__..__..__..__..__..__.._
 72
   65
 73
    6
 40
15.875
 49
6.35
 74
    0
 49
-3.175
 74
    0
 49
0
 74
    0
 49
-3.175
 74
    0
 49
0
 74
    0
 49
-3.175
 74
    0
  0
LTYPE
  5
41
330
5
100
AcDbSymbolTableRecord
100
AcDbLinetypeTableRecord
  2
DIVIDEX2
 70
    0
  3
Divide (2x) ________  .  .  ________  .  .  _
 72
   65
 73
    6
 40
63.5
 49
25.4
 74
    0
 49
-12.7
 74
    0
 49
0
 74
    0
 49
-12.7
 74
    0
 49
0
 74
    0
 49
-12.7
 74
    0
  0
LTYPE
  5
42
330
5
100
AcDbSymbolTableRecord
100
AcDbLinetypeTableRecord
  2
BORDER
 70
    0
  3
Border __ __ . __ __ . __ __ . __ __ . __ __ .
 72
   65
 73
    6
 40
44.45
 49
12.7
 74
    0
 49
-6.35
 74
    0
 49
12.7
 74
    0
 49
-6.35
 74
    0
 49
0
 74
    0
 49
-6.35
 74
    0
  0
LTYPE
  5
43
330
5
100
AcDbSymbolTableRecord
100
AcDbLinetypeTableRecord
  2
BORDERTINY
 70
    0
  3
Border (.15x) __.__.__.__.__.__.__.__.__.__.__.
 72
   65
 73
    6
 40
6.6675
 49
1.905
 74
    0
 49
-0.9525
 74
    0
 49
1.905
 74
    0
 49
-0.9525
 74
    0
 49
0
 74
    0
 49
-0.9525
 74
    0
  0
LTYPE
  5
44
330
5
100
AcDbSymbolTableRecord
100
AcDbLinetypeTableRecord
  2
BORDER2
 70
    0
  3
Border (.5x) __.__.__.__.__.__.__.__.__.__.__.
 72
   65
 73
    6
 40
22.225
 49
6.35
 74
    0
 49
-3.175
 74
    0
 49
6.35
 74
    0
 49
-3.175
 74
    0
 49
0
 74
    0
 49
-3.175
 74
    0
  0
LTYPE
  5
45
330
5
100
AcDbSymbolTableRecord
100
AcDbLinetypeTableRecord
  2
BORDERX2
 70
    0
  3
Border (2x) ____  ____  .  ____  ____  .  ___
 72
   65
 73
    6
 40
88.89999999999999
 49
25.4
 74
    0
 49
-12.7
 74
    0
 49
25.4
 74
    0
 49
-12.7
 74
    0
 49
0
 74
    0
 49
-12.7
 74
    0
  0
LTYPE
  5
46
330
5
100
AcDbSymbolTableRecord
100
AcDbLinetypeTableRecord
  2
CENTER
 70
    0
  3
Center ____ _ ____ _ ____ _ ____ _ ____ _ ____
 72
   65
 73
    4
 40
50.8
 49
31.75
 74
    0
 49
-6.35
 74
    0
 49
6.35
 74
    0
 49
-6.35
 74
    0
  0
LTYPE
  5
47
330
5
100
AcDbSymbolTableRecord
100
AcDbLinetypeTableRecord
  2
CENTERTINY
 70
    0
  3
Center (.15x) ___ _ ___ _ ___ _ ___ _ ___ _ ___
 72
   65
 73
    4
 40
7.619999999999999
 49
4.7625
 74
    0
 49
-0.9525
 74
    0
 49
0.9525
 74
    0
 49
-0.9525
 74
    0
  0
LTYPE
  5
48
330
5
100
AcDbSymbolTableRecord
100
AcDbLinetypeTableRecord
  2
CENTER2
 70
    0
  3
Center (.5x) ___ _ ___ _ ___ _ ___ _ ___ _ ___
 72
   65
 73
    4
 40
28.575
 49
19.05
 74
    0
 49
-3.175
 74
    0
 49
3.175
 74
    0
 49
-3.175
 74
    0
  0
LTYPE
  5
49
330
5
100
AcDbSymbolTableRecord
100
AcDbLinetypeTableRecord
  2
CENTERX2
 70
    0
  3
Center (2x) ________  __  ________  __  _____
 72
   65
 73
    4
 40
101.6
 49
63.5
 74
    0
 49
-12.7
 74
    0
 49
12.7
 74
    0
 49
-12.7
 74
    0
  0
ENDTAB
  0
TABLE
  2
LAYER
  5
2
330
0
100
AcDbSymbolTable
 70
    1
  0
LAYER
  5
10
330
2
100
AcDbSymbolTableRecord
100
AcDbLayerTableRecord
  2
0
 70
    0
 62
    1
  6
CONTINUOUS
370
   -3
390
F
  0
LAYER
  5
4A
330
2
100
AcDbSymbolTableRecord
100
AcDbLayerTableRecord
  2
PLASMA
 70
    0
 62
    2
  6
CONTINUOUS
370
   13
390
F
  0
ENDTAB
  0
TABLE
  2
STYLE
  5
3
330
0
100
AcDbSymbolTable
 70
    3
  0
STYLE
  5
4B
330
2
100
AcDbSymbolTableRecord
100
AcDbTextStyleTableRecord
  2
Standard
 70
    0
 40
0
 41
1
 50
0
 71
    0
 42
1
  3
txt
  4

  0
ENDTAB
  0
TABLE
  2
VIEW
  5
6
330
0
100
AcDbSymbolTable
 70
    0
  0
ENDTAB
  0
TABLE
  2
UCS
  5
7
330
0
100
AcDbSymbolTable
 70
    0
  0
ENDTAB
  0
TABLE
  2
APPID
  5
9
330
0
100
AcDbSymbolTable
 70
    1
  0
APPID
  5
12
330
9
100
AcDbSymbolTableRecord
100
AcDbRegAppTableRecord
  2
ACAD
 70
    0
  0
APPID
  5
4C
330
9
100
AcDbSymbolTableRecord
100
AcDbRegAppTableRecord
  2
LibreCad
 70
    0
  0
ENDTAB
  0
TABLE
  2
DIMSTYLE
  5
A
330
0
100
AcDbSymbolTable
 70
    1
100
AcDbDimStyleTable
 71
    1
  0
DIMSTYLE
105
4D
330
A
100
AcDbSymbolTableRecord
100
AcDbDimStyleTableRecord
  2
Standard
 70
    0
 40
1
 41
0.18
 42
0.0625
 43
0.38
 44
0.18
 45
0
 46
0
 47
0
 48
0
 49
0.04
140
0.18
141
0.09
142
0
143
25.4
144
1
145
0
146
1
147
0.09
148
0
 71
    0
 72
    0
 73
    1
 74
    1
 75
    0
 76
    0
 77
    0
 78
    0
 79
    0
170
    0
171
    2
172
    0
173
    0
174
    0
175
    0
176
    0
177
    0
178
    0
179
    0
271
    4
272
    4
273
    2
274
    2
275
    0
276
    0
277
    2
278
    0
279
    0
280
    0
281
    0
282
    0
283
    1
284
    0
285
    0
286
    0
288
    0
289
    3
340
standard
341

371
   -2
372
   -2
  0
ENDTAB
  0
TABLE
  2
BLOCK_RECORD
  5
1
330
0
100
AcDbSymbolTable
 70
    2
  0
BLOCK_RECORD
  5
1F
330
1
100
AcDbSymbolTableRecord
100
AcDbBlockTableRecord
  2
*Model_Space
 70
    0
280
    1
281
    0
  0
BLOCK_RECORD
  5
1E
330
1
100
AcDbSymbolTableRecord
100
AcDbBlockTableRecord
  2
*Paper_Space
 70
    0
280
    1
281
    0
  0
ENDTAB
  0
ENDSEC
  0
SECTION
  2
BLOCKS
  0
BLOCK
  5
20
330
1F
100
AcDbEntity
  8
0
100
AcDbBlockBegin
  2
*Model_Space
 70
    0
 10
0
 20
0
 30
0
  3
*Model_Space
  1

  0
ENDBLK
  5
21
330
1F
100
AcDbEntity
  8
0
100
AcDbBlockEnd
  0
BLOCK
  5
1C
330
1B
100
AcDbEntity
  8
0
100
AcDbBlockBegin
  2
*Paper_Space
 70
    0
 10
0
 20
0
 30
0
  3
*Paper_Space
  1

  0
ENDBLK
  5
1D
330
1F
100
AcDbEntity
  8
0
100
AcDbBlockEnd
  0
ENDSEC
  0
SECTION
  2
ENTITIES
  0
LWPOLYLINE
  5
4E
100
AcDbEntity
  8
PLASMA
  6
ByLayer
 62
  256
370
   -1
100
AcDbPolyline
 90
    4
 70
    1
 43
0
 10
189.8190608067544
 20
-163.5686536472373
 10
189.8190608067544
 20
-163.5686536472373
 10
189.8190608067544
 20
-163.5686536472373
 10
189.8190608067544
 20
-163.5686536472373
  0
LWPOLYLINE
  5
4F
100
AcDbEntity
  8
PLASMA
  6
ByLayer
 62
  256
370
   -1
100
AcDbPolyline
 90
    4
 70
    1
 43
0
 10
-200
 20
200
 10
-200
 20
200
 10
-200
 20
200
 10
-200
 20
200
  0
LWPOLYLINE
  5
50
100
AcDbEntity
  8
PLASMA
  6
ByLayer
 62
  256
370
   -1
100
AcDbPolyline
 90
    4
 70
    1
 43
0
 10
-200
 20
200
 10
-200
 20
200
 10
-200
 20
200
 10
-200
 20
200
  0
LWPOLYLINE
  5
51
100
AcDbEntity
  8
PLASMA
  6
ByLayer
 62
  256
370
   -1
100
AcDbPolyline
 90
    4
 70
    1
 43
0
 10
-200
 20
200
 10
200
 20
200
 10
200
 20
-200
 10
-200
 20
-200
  0
LINE
  5
52
100
AcDbEntity
  8
PLASMA
  6
ByLayer
 62
  256
370
   -1
100
AcDbLine
 10
-51.16613181049117
 20
139.1649632985711
 11
-27.56613181049117
 21
115.5649632985711
  0
LINE
  5
53
100
AcDbEntity
  8
PLASMA
  6
ByLayer
 62
  256
370
   -1
100
AcDbLine
 10
-149.1661318104912
 20
97.96496329857108
 11
-149.1661318104912
 21
71.11301329857108
  0
LINE
  5
54
100
AcDbEntity
  8
PLASMA
  6
ByLayer
 62
  256
370
   -1
100
AcDbLine
 10
-132.7612318104912
 20
81.5601132985711
 11
-132.7612318104912
 21
71.11301329857108
  0
LINE
  5
55
100
AcDbEntity
  8
PLASMA
  6
ByLayer
 62
  256
370
   -1
100
AcDbLine
 10
-149.1661318104912
 20
97.96496329857108
 11
-97.96613181049116
 21
97.96496329857108
  0
LINE
  5
56
100
AcDbEntity
  8
PLASMA
  6
ByLayer
 62
  256
370
   -1
100
AcDbLine
 10
-132.7612318104912
 20
81.5601132985711
 11
-81.56123181049118
 21
81.5601132985711
  0
LINE
  5
57
100
AcDbEntity
  8
PLASMA
  6
ByLayer
 62
  256
370
   -1
100
AcDbLine
 10
-97.96613181049116
 20
149.1649632985711
 11
-97.96613181049116
 21
97.96496329857108
  0
LINE
  5
58
100
AcDbEntity
  8
PLASMA
  6
ByLayer
 62
  256
370
   -1
100
AcDbLine
 10
-81.56123181049118
 20
132.7601132985711
 11
-81.56123181049118
 21
81.5601132985711
  0
LINE
  5
59
100
AcDbEntity
  8
PLASMA
  6
ByLayer
 62
  256
370
   -1
100
AcDbLine
 10
-97.96613181049116
 20
149.1649632985711
 11
-75.30823181049118
 21
149.1649632985711
  0
LINE
  5
5A
100
AcDbEntity
  8
PLASMA
  6
ByLayer
 62
  256
370
   -1
100
AcDbLine
 10
-81.56123181049118
 20
132.7601132985711
 11
-75.30823181049118
 21
132.7601132985711
  0
LINE
  5
5B
100
AcDbEntity
  8
PLASMA
  6
ByLayer
 62
  256
370
   -1
100
AcDbLine
 10
-72.36613181049117
 20
107.2169632985711
 11
-72.36613181049117
 21
99.54141329857107
  0
LINE
  5
5C
100
AcDbEntity
  8
PLASMA
  6
ByLayer
 62
  256
370
   -1
100
AcDbLine
 10
-55.96123181049117
 20
107.2169632985711
 11
-55.96123181049117
 21
99.54141329857107
  0
LINE
  5
5D
100
AcDbEntity
  8
PLASMA
  6
ByLayer
 62
  256
370
   -1
100
AcDbLine
 10
-29.85243181049118
 20
149.1649632985711
 11
-24.10823181049117
 21
149.1649632985711
  0
LINE
  5
5E
100
AcDbEntity
  8
PLASMA
  6
ByLayer
 62
  256
370
   -1
100
AcDbLine
 10
-29.85243181049118
 20
132.7601132985711
 11
-24.10823181049117
 21
132.7601132985711
  0
LINE
  5
5F
100
AcDbEntity
  8
PLASMA
  6
ByLayer
 62
  256
370
   -1
100
AcDbLine
 10
-103.8239818104912
 20
72.3649632985711
 11
-98.07983181049116
 21
72.3649632985711
  0
LINE
  5
60
100
AcDbEntity
  8
PLASMA
  6
ByLayer
 62
  256
370
   -1
100
AcDbLine
 10
-103.8239818104912
 20
55.96011329857107
 11
-98.07983181049116
 21
55.96011329857107
  0
LINE
  5
61
100
AcDbEntity
  8
PLASMA
  6
ByLayer
 62
  256
370
   -1
100
AcDbLine
 10
-78.76613181049117
 20
64.36496329857108
 11
-90.36613181049118
 21
52.76496329857108
  0
LINE
  5
62
100
AcDbEntity
  8
PLASMA
  6
ByLayer
 62
  256
370
   -1
100
AcDbLine
 10
21.34756818950883
 20
149.1649632985711
 11
27.09176818950883
 21
149.1649632985711
  0
LINE
  5
63
100
AcDbEntity
  8
PLASMA
  6
ByLayer
 62
  256
370
   -1
100
AcDbLine
 10
21.34756818950883
 20
132.7601132985711
 11
27.09176818950883
 21
132.7601132985711
  0
LINE
  5
64
100
AcDbEntity
  8
PLASMA
  6
ByLayer
 62
  256
370
   -1
100
AcDbLine
 10
72.54756818950882
 20
149.1649632985711
 11
98.03386818950881
 21
149.1649632985711
  0
LINE
  5
65
100
AcDbEntity
  8
PLASMA
  6
ByLayer
 62
  256
370
   -1
100
AcDbLine
 10
72.54756818950882
 20
132.7601132985711
 11
81.62901818950883
 21
132.7601132985711
  0
LINE
  5
66
100
AcDbEntity
  8
PLASMA
  6
ByLayer
 62
  256
370
   -1
100
AcDbLine
 10
81.62901818950883
 20
132.7601132985711
 11
81.62901818950883
 21
81.5601132985711
  0
LINE
  5
67
100
AcDbEntity
  8
PLASMA
  6
ByLayer
 62
  256
370
   -1
100
AcDbLine
 10
98.03386818950881
 20
149.1649632985711
 11
98.03386818950881
 21
97.96496329857108
  0
LINE
  5
68
100
AcDbEntity
  8
PLASMA
  6
ByLayer
 62
  256
370
   -1
100
AcDbLine
 10
56.02901818950885
 20
104.3885132985711
 11
56.02901818950885
 21
96.7130132985711
  0
LINE
  5
69
100
AcDbEntity
  8
PLASMA
  6
ByLayer
 62
  256
370
   -1
100
AcDbLine
 10
72.43386818950883
 20
104.3885132985711
 11
72.43386818950883
 21
96.7130132985711
  0
LINE
  5
6A
100
AcDbEntity
  8
PLASMA
  6
ByLayer
 62
  256
370
   -1
100
AcDbLine
 10
98.03386818950881
 20
97.96496329857108
 11
149.2338681895088
 21
97.96496329857108
  0
LINE
  5
6B
100
AcDbEntity
  8
PLASMA
  6
ByLayer
 62
  256
370
   -1
100
AcDbLine
 10
81.62901818950883
 20
81.5601132985711
 11
132.8290181895088
 21
81.5601132985711
  0
LINE
  5
6C
100
AcDbEntity
  8
PLASMA
  6
ByLayer
 62
  256
370
   -1
100
AcDbLine
 10
132.8290181895088
 20
81.5601132985711
 11
132.8290181895088
 21
73.94141329857109
  0
LINE
  5
6D
100
AcDbEntity
  8
PLASMA
  6
ByLayer
 62
  256
370
   -1
100
AcDbLine
 10
149.2338681895088
 20
97.96496329857108
 11
149.2338681895088
 21
73.94141329857109
  0
LINE
  5
6E
100
AcDbEntity
  8
PLASMA
  6
ByLayer
 62
  256
370
   -1
100
AcDbLine
 10
100.9760181895088
 20
72.3649632985711
 11
106.7201681895088
 21
72.3649632985711
  0
LINE
  5
6F
100
AcDbEntity
  8
PLASMA
  6
ByLayer
 62
  256
370
   -1
100
AcDbLine
 10
100.9760181895088
 20
55.96011329857107
 11
106.7201681895088
 21
55.96011329857107
  0
LINE
  5
70
100
AcDbEntity
  8
PLASMA
  6
ByLayer
 62
  256
370
   -1
100
AcDbLine
 10
132.8290181895088
 20
30.41696329857109
 11
132.8290181895088
 21
22.74141329857109
  0
LINE
  5
71
100
AcDbEntity
  8
PLASMA
  6
ByLayer
 62
  256
370
   -1
100
AcDbLine
 10
149.2338681895088
 20
30.41696329857109
 11
149.2338681895088
 21
22.74141329857109
  0
LINE
  5
72
100
AcDbEntity
  8
PLASMA
  6
ByLayer
 62
  256
370
   -1
100
AcDbLine
 10
30.03386818950884
 20
4.816963298571066
 11
30.03386818950884
 21
-2.858586701428931
  0
LINE
  5
73
100
AcDbEntity
  8
PLASMA
  6
ByLayer
 62
  256
370
   -1
100
AcDbLine
 10
46.43876818950883
 20
4.816963298571066
 11
46.43876818950883
 21
-2.858586701428931
  0
LINE
  5
74
100
AcDbEntity
  8
PLASMA
  6
ByLayer
 62
  256
370
   -1
100
AcDbLine
 10
-6.183781810491149
 20
46.36986329857109
 11
3.423118189508847
 21
46.36986329857109
  0
LINE
  5
75
100
AcDbEntity
  8
PLASMA
  6
ByLayer
 62
  256
370
   -1
100
AcDbLine
 10
-6.183781810491149
 20
29.9649632985711
 11
3.423118189508847
 21
29.9649632985711
  0
LINE
  5
76
100
AcDbEntity
  8
PLASMA
  6
ByLayer
 62
  256
370
   -1
100
AcDbLine
 10
-46.37098181049117
 20
1.988513298571084
 11
-46.37098181049117
 21
-5.686986701428907
  0
LINE
  5
77
100
AcDbEntity
  8
PLASMA
  6
ByLayer
 62
  256
370
   -1
100
AcDbLine
 10
-29.96613181049117
 20
1.988513298571084
 11
-29.96613181049117
 21
-5.686986701428907
  0
LINE
  5
78
100
AcDbEntity
  8
PLASMA
  6
ByLayer
 62
  256
370
   -1
100
AcDbLine
 10
-1.423981810491169
 20
-30.03503670142893
 11
4.320168189508824
 21
-30.03503670142893
  0
LINE
  5
79
100
AcDbEntity
  8
PLASMA
  6
ByLayer
 62
  256
370
   -1
100
AcDbLine
 10
-1.423981810491169
 20
-46.43988670142891
 11
4.320168189508824
 21
-46.43988670142891
  0
LINE
  5
7A
100
AcDbEntity
  8
PLASMA
  6
ByLayer
 62
  256
370
   -1
100
AcDbLine
 10
-149.1661318104912
 20
27.58851329857106
 11
-149.1661318104912
 21
19.91301329857107
  0
LINE
  5
7B
100
AcDbEntity
  8
PLASMA
  6
ByLayer
 62
  256
370
   -1
100
AcDbLine
 10
-132.7612318104912
 20
27.58851329857106
 11
-132.7612318104912
 21
19.91301329857107
  0
LINE
  5
7C
100
AcDbEntity
  8
PLASMA
  6
ByLayer
 62
  256
370
   -1
100
AcDbLine
 10
-149.1661318104912
 20
-23.61148670142892
 11
-149.1661318104912
 21
-31.28698670142891
  0
LINE
  5
7D
100
AcDbEntity
  8
PLASMA
  6
ByLayer
 62
  256
370
   -1
100
AcDbLine
 10
-132.7612318104912
 20
-23.61148670142892
 11
-132.7612318104912
 21
-31.28698670142891
  0
LINE
  5
7E
100
AcDbEntity
  8
PLASMA
  6
ByLayer
 62
  256
370
   -1
100
AcDbLine
 10
-149.1661318104912
 20
-74.81148670142892
 11
-149.1661318104912
 21
-98.03503670142892
  0
LINE
  5
7F
100
AcDbEntity
  8
PLASMA
  6
ByLayer
 62
  256
370
   -1
100
AcDbLine
 10
-132.7612318104912
 20
-74.81148670142892
 11
-132.7612318104912
 21
-81.63013670142891
  0
LINE
  5
80
100
AcDbEntity
  8
PLASMA
  6
ByLayer
 62
  256
370
   -1
100
AcDbLine
 10
-132.7612318104912
 20
-81.63013670142891
 11
-81.56123181049118
 21
-81.63013670142891
  0
LINE
  5
81
100
AcDbEntity
  8
PLASMA
  6
ByLayer
 62
  256
370
   -1
100
AcDbLine
 10
-149.1661318104912
 20
-98.03503670142892
 11
-97.96613181049116
 21
-98.03503670142892
  0
LINE
  5
82
100
AcDbEntity
  8
PLASMA
  6
ByLayer
 62
  256
370
   -1
100
AcDbLine
 10
-97.96613181049116
 20
-98.03503670142892
 11
-97.96613181049116
 21
-149.2350367014289
  0
LINE
  5
83
100
AcDbEntity
  8
PLASMA
  6
ByLayer
 62
  256
370
   -1
100
AcDbLine
 10
-81.56123181049118
 20
-81.63013670142891
 11
-81.56123181049118
 21
-132.8301367014289
  0
LINE
  5
84
100
AcDbEntity
  8
PLASMA
  6
ByLayer
 62
  256
370
   -1
100
AcDbLine
 10
-81.56123181049118
 20
-132.8301367014289
 11
-70.54843181049118
 21
-132.8301367014289
  0
LINE
  5
85
100
AcDbEntity
  8
PLASMA
  6
ByLayer
 62
  256
370
   -1
100
AcDbLine
 10
-97.96613181049116
 20
-149.2350367014289
 11
-70.54843181049118
 21
-149.2350367014289
  0
LINE
  5
86
100
AcDbEntity
  8
PLASMA
  6
ByLayer
 62
  256
370
   -1
100
AcDbLine
 10
-72.36613181049117
 20
-97.58303670142891
 11
-72.36613181049117
 21
-105.2585867014289
  0
LINE
  5
87
100
AcDbEntity
  8
PLASMA
  6
ByLayer
 62
  256
370
   -1
100
AcDbLine
 10
-55.96123181049117
 20
-97.58303670142891
 11
-55.96123181049117
 21
-105.2585867014289
  0
LINE
  5
88
100
AcDbEntity
  8
PLASMA
  6
ByLayer
 62
  256
370
   -1
100
AcDbLine
 10
-28.95533181049117
 20
-132.8301367014289
 11
-19.34843181049117
 21
-132.8301367014289
  0
LINE
  5
89
100
AcDbEntity
  8
PLASMA
  6
ByLayer
 62
  256
370
   -1
100
AcDbLine
 10
-28.95533181049117
 20
-149.2350367014289
 11
-19.34843181049117
 21
-149.2350367014289
  0
LINE
  5
8A
100
AcDbEntity
  8
PLASMA
  6
ByLayer
 62
  256
370
   -1
100
AcDbLine
 10
-108.5837818104912
 20
-56.03013670142892
 11
-98.97688181049116
 21
-56.03013670142892
  0
LINE
  5
8B
100
AcDbEntity
  8
PLASMA
  6
ByLayer
 62
  256
370
   -1
100
AcDbLine
 10
-108.5837818104912
 20
-72.43503670142893
 11
-98.97688181049116
 21
-72.43503670142893
  0
LINE
  5
8C
100
AcDbEntity
  8
PLASMA
  6
ByLayer
 62
  256
370
   -1
100
AcDbLine
 10
22.24466818950886
 20
-132.8301367014289
 11
31.85156818950885
 21
-132.8301367014289
  0
LINE
  5
8D
100
AcDbEntity
  8
PLASMA
  6
ByLayer
 62
  256
370
   -1
100
AcDbLine
 10
22.24466818950886
 20
-149.2350367014289
 11
31.85156818950885
 21
-149.2350367014289
  0
LINE
  5
8E
100
AcDbEntity
  8
PLASMA
  6
ByLayer
 62
  256
370
   -1
100
AcDbLine
 10
56.02901818950885
 20
-100.4114867014289
 11
56.02901818950885
 21
-108.0869867014289
  0
LINE
  5
8F
100
AcDbEntity
  8
PLASMA
  6
ByLayer
 62
  256
370
   -1
100
AcDbLine
 10
72.43386818950883
 20
-100.4114867014289
 11
72.43386818950883
 21
-108.0869867014289
  0
LINE
  5
90
100
AcDbEntity
  8
PLASMA
  6
ByLayer
 62
  256
370
   -1
100
AcDbLine
 10
73.4446681895088
 20
-132.8301367014289
 11
81.62901818950883
 21
-132.8301367014289
  0
LINE
  5
91
100
AcDbEntity
  8
PLASMA
  6
ByLayer
 62
  256
370
   -1
100
AcDbLine
 10
73.4446681895088
 20
-149.2350367014289
 11
98.03386818950881
 21
-149.2350367014289
  0
LINE
  5
92
100
AcDbEntity
  8
PLASMA
  6
ByLayer
 62
  256
370
   -1
100
AcDbLine
 10
81.62901818950883
 20
-81.63013670142891
 11
81.62901818950883
 21
-132.8301367014289
  0
LINE
  5
93
100
AcDbEntity
  8
PLASMA
  6
ByLayer
 62
  256
370
   -1
100
AcDbLine
 10
98.03386818950881
 20
-98.03503670142892
 11
98.03386818950881
 21
-149.2350367014289
  0
LINE
  5
94
100
AcDbEntity
  8
PLASMA
  6
ByLayer
 62
  256
370
   -1
100
AcDbLine
 10
81.62901818950883
 20
-81.63013670142891
 11
132.8290181895088
 21
-81.63013670142891
  0
LINE
  5
95
100
AcDbEntity
  8
PLASMA
  6
ByLayer
 62
  256
370
   -1
100
AcDbLine
 10
98.03386818950881
 20
-98.03503670142892
 11
149.2338681895088
 21
-98.03503670142892
  0
LINE
  5
96
100
AcDbEntity
  8
PLASMA
  6
ByLayer
 62
  256
370
   -1
100
AcDbLine
 10
132.8290181895088
 20
-71.98303670142892
 11
132.8290181895088
 21
-81.63013670142891
  0
LINE
  5
97
100
AcDbEntity
  8
PLASMA
  6
ByLayer
 62
  256
370
   -1
100
AcDbLine
 10
149.2338681895088
 20
-71.98303670142892
 11
149.2338681895088
 21
-98.03503670142892
  0
LINE
  5
98
100
AcDbEntity
  8
PLASMA
  6
ByLayer
 62
  256
370
   -1
100
AcDbLine
 10
96.21621818950885
 20
-56.03013670142892
 11
105.8231181895088
 21
-56.03013670142892
  0
LINE
  5
99
100
AcDbEntity
  8
PLASMA
  6
ByLayer
 62
  256
370
   -1
100
AcDbLine
 10
96.21621818950885
 20
-72.43503670142893
 11
105.8231181895088
 21
-72.43503670142893
  0
LINE
  5
9A
100
AcDbEntity
  8
PLASMA
  6
ByLayer
 62
  256
370
   -1
100
AcDbLine
 10
132.8290181895088
 20
-20.78303670142891
 11
132.8290181895088
 21
-28.45858670142891
  0
LINE
  5
9B
100
AcDbEntity
  8
PLASMA
  6
ByLayer
 62
  256
370
   -1
100
AcDbLine
 10
149.2338681895088
 20
-20.78303670142891
 11
149.2338681895088
 21
-28.45858670142891
  0
LINE
  5
9C
100
AcDbEntity
  8
PLASMA
  6
ByLayer
 62
  256
370
   -1
100
AcDbLine
 10
-27.56613181049117
 20
115.5649632985711
 11
-39.16613181049118
 21
103.9649632985711
  0
LINE
  5
9D
100
AcDbEntity
  8
PLASMA
  6
ByLayer
 62
  256
370
   -1
100
AcDbLine
 10
-62.76613181049117
 20
127.5649632985711
 11
-39.16613181049118
 21
103.9649632985711
  0
LINE
  5
9E
100
AcDbEntity
  8
PLASMA
  6
ByLayer
 62
  256
370
   -1
100
AcDbLine
 10
-64.76613181049117
 20
125.5649632985711
 11
-53.16613181049117
 21
113.9649632985711
  0
LINE
  5
9F
100
AcDbEntity
  8
PLASMA
  6
ByLayer
 62
  256
370
   -1
100
AcDbLine
 10
-49.16613181049117
 20
141.1649632985711
 11
-37.56613181049118
 21
129.5649632985711
  0
LINE
  5
A0
100
AcDbEntity
  8
PLASMA
  6
ByLayer
 62
  256
370
   -1
100
AcDbLine
 10
0.03386818950881425
 20
139.1649632985711
 11
23.63386818950883
 21
115.5649632985711
  0
LINE
  5
A1
100
AcDbEntity
  8
PLASMA
  6
ByLayer
 62
  256
370
   -1
100
AcDbLine
 10
23.63386818950883
 20
115.5649632985711
 11
12.03386818950883
 21
103.9649632985711
  0
LINE
  5
A2
100
AcDbEntity
  8
PLASMA
  6
ByLayer
 62
  256
370
   -1
100
AcDbLine
 10
-11.56613181049117
 20
127.5649632985711
 11
12.03386818950883
 21
103.9649632985711
  0
LINE
  5
A3
100
AcDbEntity
  8
PLASMA
  6
ByLayer
 62
  256
370
   -1
100
AcDbLine
 10
-49.16613181049117
 20
89.96496329857106
 11
-13.56613181049118
 21
125.5649632985711
  0
LINE
  5
A4
100
AcDbEntity
  8
PLASMA
  6
ByLayer
 62
  256
370
   -1
100
AcDbLine
 10
-49.16613181049117
 20
89.96496329857106
 11
-37.56613181049118
 21
78.3649632985711
  0
LINE
  5
A5
100
AcDbEntity
  8
PLASMA
  6
ByLayer
 62
  256
370
   -1
100
AcDbLine
 10
-13.56613181049118
 20
125.5649632985711
 11
-1.966131810491188
 21
113.9649632985711
  0
LINE
  5
A6
100
AcDbEntity
  8
PLASMA
  6
ByLayer
 62
  256
370
   -1
100
AcDbLine
 10
-37.56613181049118
 20
78.3649632985711
 11
-1.966131810491188
 21
113.9649632985711
  0
LINE
  5
A7
100
AcDbEntity
  8
PLASMA
  6
ByLayer
 62
  256
370
   -1
100
AcDbLine
 10
2.033868189508816
 20
141.1649632985711
 11
13.63386818950883
 21
129.5649632985711
  0
LINE
  5
A8
100
AcDbEntity
  8
PLASMA
  6
ByLayer
 62
  256
370
   -1
100
AcDbLine
 10
51.23386818950881
 20
139.1649632985711
 11
62.83386818950882
 21
127.5649632985711
  0
LINE
  5
A9
100
AcDbEntity
  8
PLASMA
  6
ByLayer
 62
  256
370
   -1
100
AcDbLine
 10
39.63386818950885
 20
127.5649632985711
 11
51.23386818950881
 21
115.9649632985711
  0
LINE
  5
AA
100
AcDbEntity
  8
PLASMA
  6
ByLayer
 62
  256
370
   -1
100
AcDbLine
 10
2.033868189508816
 20
89.96496329857106
 11
37.63386818950885
 21
125.5649632985711
  0
LINE
  5
AB
100
AcDbEntity
  8
PLASMA
  6
ByLayer
 62
  256
370
   -1
100
AcDbLine
 10
2.033868189508816
 20
89.96496329857106
 11
13.63386818950883
 21
78.3649632985711
  0
LINE
  5
AC
100
AcDbEntity
  8
PLASMA
  6
ByLayer
 62
  256
370
   -1
100
AcDbLine
 10
37.63386818950885
 20
125.5649632985711
 11
49.23386818950881
 21
113.9649632985711
  0
LINE
  5
AD
100
AcDbEntity
  8
PLASMA
  6
ByLayer
 62
  256
370
   -1
100
AcDbLine
 10
13.63386818950883
 20
78.3649632985711
 11
49.23386818950881
 21
113.9649632985711
  0
LINE
  5
AE
100
AcDbEntity
  8
PLASMA
  6
ByLayer
 62
  256
370
   -1
100
AcDbLine
 10
53.23386818950881
 20
89.96496329857106
 11
64.83386818950882
 21
78.3649632985711
  0
LINE
  5
AF
100
AcDbEntity
  8
PLASMA
  6
ByLayer
 62
  256
370
   -1
100
AcDbLine
 10
53.23386818950881
 20
141.1649632985711
 11
64.83386818950882
 21
129.5649632985711
  0
LINE
  5
B0
100
AcDbEntity
  8
PLASMA
  6
ByLayer
 62
  256
370
   -1
100
AcDbLine
 10
-51.16613181049117
 20
87.96496329857106
 11
-27.56613181049117
 21
64.36496329857108
  0
LINE
  5
B1
100
AcDbEntity
  8
PLASMA
  6
ByLayer
 62
  256
370
   -1
100
AcDbLine
 10
-27.56613181049117
 20
64.36496329857108
 11
-39.16613181049118
 21
52.76496329857108
  0
LINE
  5
B2
100
AcDbEntity
  8
PLASMA
  6
ByLayer
 62
  256
370
   -1
100
AcDbLine
 10
-62.76613181049117
 20
76.3649632985711
 11
-39.16613181049118
 21
52.76496329857108
  0
LINE
  5
B3
100
AcDbEntity
  8
PLASMA
  6
ByLayer
 62
  256
370
   -1
100
AcDbLine
 10
-11.96613181049117
 20
99.96496329857108
 11
23.63386818950883
 21
64.36496329857108
  0
LINE
  5
B4
100
AcDbEntity
  8
PLASMA
  6
ByLayer
 62
  256
370
   -1
100
AcDbLine
 10
-11.96613181049117
 20
99.96496329857108
 11
-23.56613181049116
 21
88.36496329857107
  0
LINE
  5
B5
100
AcDbEntity
  8
PLASMA
  6
ByLayer
 62
  256
370
   -1
100
AcDbLine
 10
23.63386818950883
 20
64.36496329857108
 11
12.03386818950883
 21
52.76496329857108
  0
LINE
  5
B6
100
AcDbEntity
  8
PLASMA
  6
ByLayer
 62
  256
370
   -1
100
AcDbLine
 10
-23.56613181049116
 20
88.36496329857107
 11
12.03386818950883
 21
52.76496329857108
  0
LINE
  5
B7
100
AcDbEntity
  8
PLASMA
  6
ByLayer
 62
  256
370
   -1
100
AcDbLine
 10
-49.16613181049117
 20
38.76496329857106
 11
-13.56613181049118
 21
74.3649632985711
  0
LINE
  5
B8
100
AcDbEntity
  8
PLASMA
  6
ByLayer
 62
  256
370
   -1
100
AcDbLine
 10
-49.16613181049117
 20
38.76496329857106
 11
-37.56613181049118
 21
27.1649632985711
  0
LINE
  5
B9
100
AcDbEntity
  8
PLASMA
  6
ByLayer
 62
  256
370
   -1
100
AcDbLine
 10
-13.56613181049118
 20
74.3649632985711
 11
-1.966131810491188
 21
62.76496329857109
  0
LINE
  5
BA
100
AcDbEntity
  8
PLASMA
  6
ByLayer
 62
  256
370
   -1
100
AcDbLine
 10
-37.56613181049118
 20
27.1649632985711
 11
-1.966131810491188
 21
62.76496329857109
  0
LINE
  5
BB
100
AcDbEntity
  8
PLASMA
  6
ByLayer
 62
  256
370
   -1
100
AcDbLine
 10
-11.96613181049117
 20
48.76496329857108
 11
-23.56613181049116
 21
37.16496329857107
  0
LINE
  5
BC
100
AcDbEntity
  8
PLASMA
  6
ByLayer
 62
  256
370
   -1
100
AcDbLine
 10
49.23386818950881
 20
62.76496329857109
 11
25.63386818950883
 21
39.16496329857107
  0
LINE
  5
BD
100
AcDbEntity
  8
PLASMA
  6
ByLayer
 62
  256
370
   -1
100
AcDbLine
 10
49.23386818950881
 20
62.76496329857109
 11
37.63386818950885
 21
74.3649632985711
  0
LINE
  5
BE
100
AcDbEntity
  8
PLASMA
  6
ByLayer
 62
  256
370
   -1
100
AcDbLine
 10
37.63386818950885
 20
74.3649632985711
 11
14.03386818950883
 21
50.76496329857108
  0
LINE
  5
BF
100
AcDbEntity
  8
PLASMA
  6
ByLayer
 62
  256
370
   -1
100
AcDbLine
 10
39.23386818950885
 20
99.96496329857108
 11
74.83386818950883
 21
64.36496329857108
  0
LINE
  5
C0
100
AcDbEntity
  8
PLASMA
  6
ByLayer
 62
  256
370
   -1
100
AcDbLine
 10
39.23386818950885
 20
99.96496329857108
 11
27.63386818950884
 21
88.36496329857107
  0
LINE
  5
C1
100
AcDbEntity
  8
PLASMA
  6
ByLayer
 62
  256
370
   -1
100
AcDbLine
 10
74.83386818950883
 20
64.36496329857108
 11
63.23386818950883
 21
52.76496329857108
  0
LINE
  5
C2
100
AcDbEntity
  8
PLASMA
  6
ByLayer
 62
  256
370
   -1
100
AcDbLine
 10
27.63386818950884
 20
88.36496329857107
 11
63.23386818950883
 21
52.76496329857108
  0
LINE
  5
C3
100
AcDbEntity
  8
PLASMA
  6
ByLayer
 62
  256
370
   -1
100
AcDbLine
 10
53.23386818950881
 20
38.76496329857106
 11
76.83386818950883
 21
62.36496329857108
  0
LINE
  5
C4
100
AcDbEntity
  8
PLASMA
  6
ByLayer
 62
  256
370
   -1
100
AcDbLine
 10
53.23386818950881
 20
38.76496329857106
 11
64.83386818950882
 21
27.1649632985711
  0
LINE
  5
C5
100
AcDbEntity
  8
PLASMA
  6
ByLayer
 62
  256
370
   -1
100
AcDbLine
 10
64.83386818950882
 20
27.1649632985711
 11
88.43386818950884
 21
50.76496329857108
  0
LINE
  5
C6
100
AcDbEntity
  8
PLASMA
  6
ByLayer
 62
  256
370
   -1
100
AcDbLine
 10
126.0338681895088
 20
64.36496329857108
 11
114.4338681895088
 21
52.76496329857108
  0
LINE
  5
C7
100
AcDbEntity
  8
PLASMA
  6
ByLayer
 62
  256
370
   -1
100
AcDbLine
 10
104.4338681895088
 20
38.76496329857106
 11
128.0338681895088
 21
62.36496329857108
  0
LINE
  5
C8
100
AcDbEntity
  8
PLASMA
  6
ByLayer
 62
  256
370
   -1
100
AcDbLine
 10
104.4338681895088
 20
38.76496329857106
 11
116.0338681895088
 21
27.1649632985711
  0
LINE
  5
C9
100
AcDbEntity
  8
PLASMA
  6
ByLayer
 62
  256
370
   -1
100
AcDbLine
 10
116.0338681895088
 20
27.1649632985711
 11
139.6338681895089
 21
50.76496329857108
  0
LINE
  5
CA
100
AcDbEntity
  8
PLASMA
  6
ByLayer
 62
  256
370
   -1
100
AcDbLine
 10
141.6338681895089
 20
48.76496329857108
 11
130.0338681895088
 21
37.16496329857107
  0
LINE
  5
CB
100
AcDbEntity
  8
PLASMA
  6
ByLayer
 62
  256
370
   -1
100
AcDbLine
 10
90.43386818950884
 20
48.76496329857108
 11
126.0338681895088
 21
13.16496329857109
  0
LINE
  5
CC
100
AcDbEntity
  8
PLASMA
  6
ByLayer
 62
  256
370
   -1
100
AcDbLine
 10
90.43386818950884
 20
48.76496329857108
 11
78.83386818950883
 21
37.16496329857107
  0
LINE
  5
CD
100
AcDbEntity
  8
PLASMA
  6
ByLayer
 62
  256
370
   -1
100
AcDbLine
 10
126.0338681895088
 20
13.16496329857109
 11
114.4338681895088
 21
1.564963298571078
  0
LINE
  5
CE
100
AcDbEntity
  8
PLASMA
  6
ByLayer
 62
  256
370
   -1
100
AcDbLine
 10
78.83386818950883
 20
37.16496329857107
 11
114.4338681895088
 21
1.564963298571078
  0
LINE
  5
CF
100
AcDbEntity
  8
PLASMA
  6
ByLayer
 62
  256
370
   -1
100
AcDbLine
 10
39.23386818950885
 20
48.76496329857108
 11
74.83386818950883
 21
13.16496329857109
  0
LINE
  5
D0
100
AcDbEntity
  8
PLASMA
  6
ByLayer
 62
  256
370
   -1
100
AcDbLine
 10
39.23386818950885
 20
48.76496329857108
 11
27.63386818950884
 21
37.16496329857107
  0
LINE
  5
D1
100
AcDbEntity
  8
PLASMA
  6
ByLayer
 62
  256
370
   -1
100
AcDbLine
 10
74.83386818950883
 20
13.16496329857109
 11
63.23386818950883
 21
1.564963298571078
  0
LINE
  5
D2
100
AcDbEntity
  8
PLASMA
  6
ByLayer
 62
  256
370
   -1
100
AcDbLine
 10
27.63386818950884
 20
37.16496329857107
 11
63.23386818950883
 21
1.564963298571078
  0
LINE
  5
D3
100
AcDbEntity
  8
PLASMA
  6
ByLayer
 62
  256
370
   -1
100
AcDbLine
 10
37.63386818950885
 20
23.1649632985711
 11
49.23386818950881
 21
11.56496329857109
  0
LINE
  5
D4
100
AcDbEntity
  8
PLASMA
  6
ByLayer
 62
  256
370
   -1
100
AcDbLine
 10
88.83386818950885
 20
23.1649632985711
 11
53.23386818950881
 21
-12.43503670142893
  0
LINE
  5
D5
100
AcDbEntity
  8
PLASMA
  6
ByLayer
 62
  256
370
   -1
100
AcDbLine
 10
88.83386818950885
 20
23.1649632985711
 11
100.4338681895088
 21
11.56496329857109
  0
LINE
  5
D6
100
AcDbEntity
  8
PLASMA
  6
ByLayer
 62
  256
370
   -1
100
AcDbLine
 10
53.23386818950881
 20
-12.43503670142893
 11
64.83386818950882
 21
-24.03503670142892
  0
LINE
  5
D7
100
AcDbEntity
  8
PLASMA
  6
ByLayer
 62
  256
370
   -1
100
AcDbLine
 10
100.4338681895088
 20
11.56496329857109
 11
64.83386818950882
 21
-24.03503670142892
  0
LINE
  5
D8
100
AcDbEntity
  8
PLASMA
  6
ByLayer
 62
  256
370
   -1
100
AcDbLine
 10
116.0338681895088
 20
-24.03503670142892
 11
139.6338681895089
 21
-0.4350367014289238
  0
LINE
  5
D9
100
AcDbEntity
  8
PLASMA
  6
ByLayer
 62
  256
370
   -1
100
AcDbLine
 10
116.0338681895088
 20
-24.03503670142892
 11
104.4338681895088
 21
-12.43503670142893
  0
LINE
  5
DA
100
AcDbEntity
  8
PLASMA
  6
ByLayer
 62
  256
370
   -1
100
AcDbLine
 10
104.4338681895088
 20
-12.43503670142893
 11
128.0338681895088
 21
11.16496329857109
  0
LINE
  5
DB
100
AcDbEntity
  8
PLASMA
  6
ByLayer
 62
  256
370
   -1
100
AcDbLine
 10
90.43386818950884
 20
-2.435036701428925
 11
126.0338681895088
 21
-38.03503670142891
  0
LINE
  5
DC
100
AcDbEntity
  8
PLASMA
  6
ByLayer
 62
  256
370
   -1
100
AcDbLine
 10
90.43386818950884
 20
-2.435036701428925
 11
78.83386818950883
 21
-14.03503670142893
  0
LINE
  5
DD
100
AcDbEntity
  8
PLASMA
  6
ByLayer
 62
  256
370
   -1
100
AcDbLine
 10
126.0338681895088
 20
-38.03503670142891
 11
114.4338681895088
 21
-49.63503670142892
  0
LINE
  5
DE
100
AcDbEntity
  8
PLASMA
  6
ByLayer
 62
  256
370
   -1
100
AcDbLine
 10
78.83386818950883
 20
-14.03503670142893
 11
114.4338681895088
 21
-49.63503670142892
  0
LINE
  5
DF
100
AcDbEntity
  8
PLASMA
  6
ByLayer
 62
  256
370
   -1
100
AcDbLine
 10
39.63386818950885
 20
-26.03503670142893
 11
63.23386818950883
 21
-49.63503670142892
  0
LINE
  5
E0
100
AcDbEntity
  8
PLASMA
  6
ByLayer
 62
  256
370
   -1
100
AcDbLine
 10
63.23386818950883
 20
-49.63503670142892
 11
74.83386818950883
 21
-38.03503670142891
  0
LINE
  5
E1
100
AcDbEntity
  8
PLASMA
  6
ByLayer
 62
  256
370
   -1
100
AcDbLine
 10
51.23386818950881
 20
-14.43503670142893
 11
74.83386818950883
 21
-38.03503670142891
  0
LINE
  5
E2
100
AcDbEntity
  8
PLASMA
  6
ByLayer
 62
  256
370
   -1
100
AcDbLine
 10
53.23386818950881
 20
-63.63503670142892
 11
88.83386818950885
 21
-28.03503670142893
  0
LINE
  5
E3
100
AcDbEntity
  8
PLASMA
  6
ByLayer
 62
  256
370
   -1
100
AcDbLine
 10
53.23386818950881
 20
-63.63503670142892
 11
64.83386818950882
 21
-75.23503670142892
  0
LINE
  5
E4
100
AcDbEntity
  8
PLASMA
  6
ByLayer
 62
  256
370
   -1
100
AcDbLine
 10
88.83386818950885
 20
-28.03503670142893
 11
100.4338681895088
 21
-39.63503670142892
  0
LINE
  5
E5
100
AcDbEntity
  8
PLASMA
  6
ByLayer
 62
  256
370
   -1
100
AcDbLine
 10
64.83386818950882
 20
-75.23503670142892
 11
100.4338681895088
 21
-39.63503670142892
  0
LINE
  5
E6
100
AcDbEntity
  8
PLASMA
  6
ByLayer
 62
  256
370
   -1
100
AcDbLine
 10
128.0338681895088
 20
-63.23503670142892
 11
139.6338681895089
 21
-51.63503670142893
  0
LINE
  5
E7
100
AcDbEntity
  8
PLASMA
  6
ByLayer
 62
  256
370
   -1
100
AcDbLine
 10
116.4338681895088
 20
-51.63503670142893
 11
128.0338681895088
 21
-40.03503670142891
  0
LINE
  5
E8
100
AcDbEntity
  8
PLASMA
  6
ByLayer
 62
  256
370
   -1
100
AcDbLine
 10
141.6338681895089
 20
-2.435036701428925
 11
130.0338681895088
 21
-14.03503670142893
  0
LINE
  5
E9
100
AcDbEntity
  8
PLASMA
  6
ByLayer
 62
  256
370
   -1
100
AcDbLine
 10
90.43386818950884
 20
-53.63503670142893
 11
78.83386818950883
 21
-65.23503670142891
  0
LINE
  5
EA
100
AcDbEntity
  8
PLASMA
  6
ByLayer
 62
  256
370
   -1
100
AcDbLine
 10
141.6338681895089
 20
-53.63503670142893
 11
130.0338681895088
 21
-65.23503670142891
  0
LINE
  5
EB
100
AcDbEntity
  8
PLASMA
  6
ByLayer
 62
  256
370
   -1
100
AcDbLine
 10
23.63386818950883
 20
-38.03503670142891
 11
12.03386818950883
 21
-49.63503670142892
  0
LINE
  5
EC
100
AcDbEntity
  8
PLASMA
  6
ByLayer
 62
  256
370
   -1
100
AcDbLine
 10
37.63386818950885
 20
-28.03503670142893
 11
2.033868189508816
 21
-63.63503670142892
  0
LINE
  5
ED
100
AcDbEntity
  8
PLASMA
  6
ByLayer
 62
  256
370
   -1
100
AcDbLine
 10
37.63386818950885
 20
-28.03503670142893
 11
49.23386818950881
 21
-39.63503670142892
  0
LINE
  5
EE
100
AcDbEntity
  8
PLASMA
  6
ByLayer
 62
  256
370
   -1
100
AcDbLine
 10
2.033868189508816
 20
-63.63503670142892
 11
13.63386818950883
 21
-75.23503670142892
  0
LINE
  5
EF
100
AcDbEntity
  8
PLASMA
  6
ByLayer
 62
  256
370
   -1
100
AcDbLine
 10
49.23386818950881
 20
-39.63503670142892
 11
13.63386818950883
 21
-75.23503670142892
  0
LINE
  5
F0
100
AcDbEntity
  8
PLASMA
  6
ByLayer
 62
  256
370
   -1
100
AcDbLine
 10
39.23386818950885
 20
-53.63503670142893
 11
62.83386818950882
 21
-77.23503670142892
  0
LINE
  5
F1
100
AcDbEntity
  8
PLASMA
  6
ByLayer
 62
  256
370
   -1
100
AcDbLine
 10
39.23386818950885
 20
-53.63503670142893
 11
27.63386818950884
 21
-65.23503670142891
  0
LINE
  5
F2
100
AcDbEntity
  8
PLASMA
  6
ByLayer
 62
  256
370
   -1
100
AcDbLine
 10
27.63386818950884
 20
-65.23503670142891
 11
51.23386818950881
 21
-88.83503670142892
  0
LINE
  5
F3
100
AcDbEntity
  8
PLASMA
  6
ByLayer
 62
  256
370
   -1
100
AcDbLine
 10
53.23386818950881
 20
-114.8350367014289
 11
64.83386818950882
 21
-126.4350367014289
  0
LINE
  5
F4
100
AcDbEntity
  8
PLASMA
  6
ByLayer
 62
  256
370
   -1
100
AcDbLine
 10
27.63386818950884
 20
-116.4350367014289
 11
51.23386818950881
 21
-140.0350367014289
  0
LINE
  5
F5
100
AcDbEntity
  8
PLASMA
  6
ByLayer
 62
  256
370
   -1
100
AcDbLine
 10
27.63386818950884
 20
-116.4350367014289
 11
39.23386818950885
 21
-104.8350367014289
  0
LINE
  5
F6
100
AcDbEntity
  8
PLASMA
  6
ByLayer
 62
  256
370
   -1
100
AcDbLine
 10
39.23386818950885
 20
-104.8350367014289
 11
62.83386818950882
 21
-128.4350367014289
  0
LINE
  5
F7
100
AcDbEntity
  8
PLASMA
  6
ByLayer
 62
  256
370
   -1
100
AcDbLine
 10
37.63386818950885
 20
-130.4350367014289
 11
49.23386818950881
 21
-142.0350367014289
  0
LINE
  5
F8
100
AcDbEntity
  8
PLASMA
  6
ByLayer
 62
  256
370
   -1
100
AcDbLine
 10
-23.56613181049116
 20
-116.4350367014289
 11
0.03386818950881425
 21
-140.0350367014289
  0
LINE
  5
F9
100
AcDbEntity
  8
PLASMA
  6
ByLayer
 62
  256
370
   -1
100
AcDbLine
 10
-23.56613181049116
 20
-116.4350367014289
 11
-11.96613181049117
 21
-104.8350367014289
  0
LINE
  5
FA
100
AcDbEntity
  8
PLASMA
  6
ByLayer
 62
  256
370
   -1
100
AcDbLine
 10
-11.96613181049117
 20
-104.8350367014289
 11
11.63386818950883
 21
-128.4350367014289
  0
LINE
  5
FB
100
AcDbEntity
  8
PLASMA
  6
ByLayer
 62
  256
370
   -1
100
AcDbLine
 10
-13.56613181049118
 20
-130.4350367014289
 11
-1.966131810491188
 21
-142.0350367014289
  0
LINE
  5
FC
100
AcDbEntity
  8
PLASMA
  6
ByLayer
 62
  256
370
   -1
100
AcDbLine
 10
37.63386818950885
 20
-79.23503670142892
 11
2.033868189508816
 21
-114.8350367014289
  0
LINE
  5
FD
100
AcDbEntity
  8
PLASMA
  6
ByLayer
 62
  256
370
   -1
100
AcDbLine
 10
37.63386818950885
 20
-79.23503670142892
 11
49.23386818950881
 21
-90.83503670142892
  0
LINE
  5
FE
100
AcDbEntity
  8
PLASMA
  6
ByLayer
 62
  256
370
   -1
100
AcDbLine
 10
2.033868189508816
 20
-114.8350367014289
 11
13.63386818950883
 21
-126.4350367014289
  0
LINE
  5
FF
100
AcDbEntity
  8
PLASMA
  6
ByLayer
 62
  256
370
   -1
100
AcDbLine
 10
49.23386818950881
 20
-90.83503670142892
 11
13.63386818950883
 21
-126.4350367014289
  0
LINE
  5
100
100
AcDbEntity
  8
PLASMA
  6
ByLayer
 62
  256
370
   -1
100
AcDbLine
 10
-62.76613181049117
 20
-128.4350367014289
 11
-51.16613181049117
 21
-140.0350367014289
  0
LINE
  5
101
100
AcDbEntity
  8
PLASMA
  6
ByLayer
 62
  256
370
   -1
100
AcDbLine
 10
-51.16613181049117
 20
-116.8350367014289
 11
-39.56613181049118
 21
-128.4350367014289
  0
LINE
  5
102
100
AcDbEntity
  8
PLASMA
  6
ByLayer
 62
  256
370
   -1
100
AcDbLine
 10
-64.76613181049117
 20
-130.4350367014289
 11
-53.16613181049117
 21
-142.0350367014289
  0
LINE
  5
103
100
AcDbEntity
  8
PLASMA
  6
ByLayer
 62
  256
370
   -1
100
AcDbLine
 10
-64.76613181049117
 20
-79.23503670142892
 11
-53.16613181049117
 21
-90.83503670142892
  0
LINE
  5
104
100
AcDbEntity
  8
PLASMA
  6
ByLayer
 62
  256
370
   -1
100
AcDbLine
 10
-63.16613181049118
 20
-53.63503670142893
 11
-27.56613181049117
 21
-89.23503670142891
  0
LINE
  5
105
100
AcDbEntity
  8
PLASMA
  6
ByLayer
 62
  256
370
   -1
100
AcDbLine
 10
-63.16613181049118
 20
-53.63503670142893
 11
-74.76613181049116
 21
-65.23503670142891
  0
LINE
  5
106
100
AcDbEntity
  8
PLASMA
  6
ByLayer
 62
  256
370
   -1
100
AcDbLine
 10
-27.56613181049117
 20
-89.23503670142891
 11
-39.16613181049118
 21
-100.8350367014289
  0
LINE
  5
107
100
AcDbEntity
  8
PLASMA
  6
ByLayer
 62
  256
370
   -1
100
AcDbLine
 10
-74.76613181049116
 20
-65.23503670142891
 11
-39.16613181049118
 21
-100.8350367014289
  0
LINE
  5
108
100
AcDbEntity
  8
PLASMA
  6
ByLayer
 62
  256
370
   -1
100
AcDbLine
 10
-13.56613181049118
 20
-79.23503670142892
 11
-49.16613181049117
 21
-114.8350367014289
  0
LINE
  5
109
100
AcDbEntity
  8
PLASMA
  6
ByLayer
 62
  256
370
   -1
100
AcDbLine
 10
-13.56613181049118
 20
-79.23503670142892
 11
-1.966131810491188
 21
-90.83503670142892
  0
LINE
  5
10A
100
AcDbEntity
  8
PLASMA
  6
ByLayer
 62
  256
370
   -1
100
AcDbLine
 10
-49.16613181049117
 20
-114.8350367014289
 11
-37.56613181049118
 21
-126.4350367014289
  0
LINE
  5
10B
100
AcDbEntity
  8
PLASMA
  6
ByLayer
 62
  256
370
   -1
100
AcDbLine
 10
-1.966131810491188
 20
-90.83503670142892
 11
-37.56613181049118
 21
-126.4350367014289
  0
LINE
  5
10C
100
AcDbEntity
  8
PLASMA
  6
ByLayer
 62
  256
370
   -1
100
AcDbLine
 10
-11.96613181049117
 20
-53.63503670142893
 11
23.63386818950883
 21
-89.23503670142891
  0
LINE
  5
10D
100
AcDbEntity
  8
PLASMA
  6
ByLayer
 62
  256
370
   -1
100
AcDbLine
 10
-11.96613181049117
 20
-53.63503670142893
 11
-23.56613181049116
 21
-65.23503670142891
  0
LINE
  5
10E
100
AcDbEntity
  8
PLASMA
  6
ByLayer
 62
  256
370
   -1
100
AcDbLine
 10
23.63386818950883
 20
-89.23503670142891
 11
12.03386818950883
 21
-100.8350367014289
  0
LINE
  5
10F
100
AcDbEntity
  8
PLASMA
  6
ByLayer
 62
  256
370
   -1
100
AcDbLine
 10
-23.56613181049116
 20
-65.23503670142891
 11
12.03386818950883
 21
-100.8350367014289
  0
LINE
  5
110
100
AcDbEntity
  8
PLASMA
  6
ByLayer
 62
  256
370
   -1
100
AcDbLine
 10
-49.16613181049117
 20
-63.63503670142892
 11
-25.56613181049116
 21
-40.03503670142891
  0
LINE
  5
111
100
AcDbEntity
  8
PLASMA
  6
ByLayer
 62
  256
370
   -1
100
AcDbLine
 10
-49.16613181049117
 20
-63.63503670142892
 11
-37.56613181049118
 21
-75.23503670142892
  0
LINE
  5
112
100
AcDbEntity
  8
PLASMA
  6
ByLayer
 62
  256
370
   -1
100
AcDbLine
 10
-37.56613181049118
 20
-75.23503670142892
 11
-13.96613181049118
 21
-51.63503670142893
  0
LINE
  5
113
100
AcDbEntity
  8
PLASMA
  6
ByLayer
 62
  256
370
   -1
100
AcDbLine
 10
-139.5661318104912
 20
-51.63503670142893
 11
-115.9661318104912
 21
-28.03503670142893
  0
LINE
  5
114
100
AcDbEntity
  8
PLASMA
  6
ByLayer
 62
  256
370
   -1
100
AcDbLine
 10
-115.9661318104912
 20
-28.03503670142893
 11
-104.3661318104912
 21
-39.63503670142892
  0
LINE
  5
115
100
AcDbEntity
  8
PLASMA
  6
ByLayer
 62
  256
370
   -1
100
AcDbLine
 10
-127.9661318104912
 20
-63.23503670142892
 11
-104.3661318104912
 21
-39.63503670142892
  0
LINE
  5
116
100
AcDbEntity
  8
PLASMA
  6
ByLayer
 62
  256
370
   -1
100
AcDbLine
 10
-129.9661318104912
 20
-38.03503670142891
 11
-141.5661318104912
 21
-49.63503670142892
  0
LINE
  5
117
100
AcDbEntity
  8
PLASMA
  6
ByLayer
 62
  256
370
   -1
100
AcDbLine
 10
-114.3661318104912
 20
-53.63503670142893
 11
-125.9661318104912
 21
-65.23503670142891
  0
LINE
  5
118
100
AcDbEntity
  8
PLASMA
  6
ByLayer
 62
  256
370
   -1
100
AcDbLine
 10
-53.16613181049117
 20
-39.63503670142892
 11
-76.76613181049117
 21
-63.23503670142892
  0
LINE
  5
119
100
AcDbEntity
  8
PLASMA
  6
ByLayer
 62
  256
370
   -1
100
AcDbLine
 10
-53.16613181049117
 20
-39.63503670142892
 11
-64.76613181049117
 21
-28.03503670142893
  0
LINE
  5
11A
100
AcDbEntity
  8
PLASMA
  6
ByLayer
 62
  256
370
   -1
100
AcDbLine
 10
-64.76613181049117
 20
-28.03503670142893
 11
-88.36613181049118
 21
-51.63503670142893
  0
LINE
  5
11B
100
AcDbEntity
  8
PLASMA
  6
ByLayer
 62
  256
370
   -1
100
AcDbLine
 10
-125.9661318104912
 20
-14.03503670142893
 11
-90.36613181049118
 21
-49.63503670142892
  0
LINE
  5
11C
100
AcDbEntity
  8
PLASMA
  6
ByLayer
 62
  256
370
   -1
100
AcDbLine
 10
-125.9661318104912
 20
-14.03503670142893
 11
-114.3661318104912
 21
-2.435036701428925
  0
LINE
  5
11D
100
AcDbEntity
  8
PLASMA
  6
ByLayer
 62
  256
370
   -1
100
AcDbLine
 10
-90.36613181049118
 20
-49.63503670142892
 11
-78.76613181049117
 21
-38.03503670142891
  0
LINE
  5
11E
100
AcDbEntity
  8
PLASMA
  6
ByLayer
 62
  256
370
   -1
100
AcDbLine
 10
-114.3661318104912
 20
-2.435036701428925
 11
-78.76613181049117
 21
-38.03503670142891
  0
LINE
  5
11F
100
AcDbEntity
  8
PLASMA
  6
ByLayer
 62
  256
370
   -1
100
AcDbLine
 10
-63.16613181049118
 20
-2.435036701428925
 11
-27.56613181049117
 21
-38.03503670142891
  0
LINE
  5
120
100
AcDbEntity
  8
PLASMA
  6
ByLayer
 62
  256
370
   -1
100
AcDbLine
 10
-63.16613181049118
 20
-2.435036701428925
 11
-74.76613181049116
 21
-14.03503670142893
  0
LINE
  5
121
100
AcDbEntity
  8
PLASMA
  6
ByLayer
 62
  256
370
   -1
100
AcDbLine
 10
-27.56613181049117
 20
-38.03503670142891
 11
-39.16613181049118
 21
-49.63503670142892
  0
LINE
  5
122
100
AcDbEntity
  8
PLASMA
  6
ByLayer
 62
  256
370
   -1
100
AcDbLine
 10
-74.76613181049116
 20
-14.03503670142893
 11
-39.16613181049118
 21
-49.63503670142892
  0
LINE
  5
123
100
AcDbEntity
  8
PLASMA
  6
ByLayer
 62
  256
370
   -1
100
AcDbLine
 10
-49.16613181049117
 20
-12.43503670142893
 11
-37.56613181049118
 21
-24.03503670142892
  0
LINE
  5
124
100
AcDbEntity
  8
PLASMA
  6
ByLayer
 62
  256
370
   -1
100
AcDbLine
 10
-64.76613181049117
 20
23.1649632985711
 11
-100.3661318104912
 21
-12.43503670142893
  0
LINE
  5
125
100
AcDbEntity
  8
PLASMA
  6
ByLayer
 62
  256
370
   -1
100
AcDbLine
 10
-64.76613181049117
 20
23.1649632985711
 11
-53.16613181049117
 21
11.56496329857109
  0
LINE
  5
126
100
AcDbEntity
  8
PLASMA
  6
ByLayer
 62
  256
370
   -1
100
AcDbLine
 10
-100.3661318104912
 20
-12.43503670142893
 11
-88.76613181049117
 21
-24.03503670142892
  0
LINE
  5
127
100
AcDbEntity
  8
PLASMA
  6
ByLayer
 62
  256
370
   -1
100
AcDbLine
 10
-53.16613181049117
 20
11.56496329857109
 11
-88.76613181049117
 21
-24.03503670142892
  0
LINE
  5
128
100
AcDbEntity
  8
PLASMA
  6
ByLayer
 62
  256
370
   -1
100
AcDbLine
 10
-139.5661318104912
 20
-0.4350367014289238
 11
-115.9661318104912
 21
23.1649632985711
  0
LINE
  5
129
100
AcDbEntity
  8
PLASMA
  6
ByLayer
 62
  256
370
   -1
100
AcDbLine
 10
-115.9661318104912
 20
23.1649632985711
 11
-104.3661318104912
 21
11.56496329857109
  0
LINE
  5
12A
100
AcDbEntity
  8
PLASMA
  6
ByLayer
 62
  256
370
   -1
100
AcDbLine
 10
-127.9661318104912
 20
-12.03503670142893
 11
-104.3661318104912
 21
11.56496329857109
  0
LINE
  5
12B
100
AcDbEntity
  8
PLASMA
  6
ByLayer
 62
  256
370
   -1
100
AcDbLine
 10
-129.9661318104912
 20
13.16496329857109
 11
-141.5661318104912
 21
1.564963298571078
  0
LINE
  5
12C
100
AcDbEntity
  8
PLASMA
  6
ByLayer
 62
  256
370
   -1
100
AcDbLine
 10
-114.3661318104912
 20
48.76496329857108
 11
-78.76613181049117
 21
13.16496329857109
  0
LINE
  5
12D
100
AcDbEntity
  8
PLASMA
  6
ByLayer
 62
  256
370
   -1
100
AcDbLine
 10
-114.3661318104912
 20
48.76496329857108
 11
-125.9661318104912
 21
37.16496329857107
  0
LINE
  5
12E
100
AcDbEntity
  8
PLASMA
  6
ByLayer
 62
  256
370
   -1
100
AcDbLine
 10
-78.76613181049117
 20
13.16496329857109
 11
-90.36613181049118
 21
1.564963298571078
  0
LINE
  5
12F
100
AcDbEntity
  8
PLASMA
  6
ByLayer
 62
  256
370
   -1
100
AcDbLine
 10
-125.9661318104912
 20
37.16496329857107
 11
-90.36613181049118
 21
1.564963298571078
  0
LINE
  5
130
100
AcDbEntity
  8
PLASMA
  6
ByLayer
 62
  256
370
   -1
100
AcDbLine
 10
-63.16613181049118
 20
48.76496329857108
 11
-39.56613181049118
 21
25.1649632985711
  0
LINE
  5
131
100
AcDbEntity
  8
PLASMA
  6
ByLayer
 62
  256
370
   -1
100
AcDbLine
 10
-63.16613181049118
 20
48.76496329857108
 11
-74.76613181049116
 21
37.16496329857107
  0
LINE
  5
132
100
AcDbEntity
  8
PLASMA
  6
ByLayer
 62
  256
370
   -1
100
AcDbLine
 10
-74.76613181049116
 20
37.16496329857107
 11
-51.16613181049117
 21
13.56496329857109
  0
LINE
  5
133
100
AcDbEntity
  8
PLASMA
  6
ByLayer
 62
  256
370
   -1
100
AcDbLine
 10
-100.3661318104912
 20
38.76496329857106
 11
-64.76613181049117
 21
74.3649632985711
  0
LINE
  5
134
100
AcDbEntity
  8
PLASMA
  6
ByLayer
 62
  256
370
   -1
100
AcDbLine
 10
-100.3661318104912
 20
38.76496329857106
 11
-88.76613181049117
 21
27.1649632985711
  0
LINE
  5
135
100
AcDbEntity
  8
PLASMA
  6
ByLayer
 62
  256
370
   -1
100
AcDbLine
 10
-64.76613181049117
 20
74.3649632985711
 11
-53.16613181049117
 21
62.76496329857109
  0
LINE
  5
136
100
AcDbEntity
  8
PLASMA
  6
ByLayer
 62
  256
370
   -1
100
AcDbLine
 10
-88.76613181049117
 20
27.1649632985711
 11
-53.16613181049117
 21
62.76496329857109
  0
LINE
  5
137
100
AcDbEntity
  8
PLASMA
  6
ByLayer
 62
  256
370
   -1
100
AcDbLine
 10
-141.5661318104912
 20
52.76496329857108
 11
-129.9661318104912
 21
64.36496329857108
  0
LINE
  5
138
100
AcDbEntity
  8
PLASMA
  6
ByLayer
 62
  256
370
   -1
100
AcDbLine
 10
-127.9661318104912
 20
62.36496329857108
 11
-139.5661318104912
 21
50.76496329857108
  0
LINE
  5
139
100
AcDbEntity
  8
PLASMA
  6
ByLayer
 62
  256
370
   -1
100
AcDbLine
 10
-116.3661318104912
 20
50.76496329857108
 11
-127.9661318104912
 21
39.16496329857107
  0
ARC
  5
13A
100
AcDbEntity
  8
PLASMA
  6
ByLayer
 62
  256
370
   -1
100
AcDbCircle
 10
-75.30823181049118
 20
115.0228632985711
 40
17.73725
100
AcDbArc
 50
45
 51
90
  0
ARC
  5
13B
100
AcDbEntity
  8
PLASMA
  6
ByLayer
 62
  256
370
   -1
100
AcDbCircle
 10
-75.30823181049118
 20
115.0228632985711
 40
34.14215
100
AcDbArc
 50
45
 51
90
  0
ARC
  5
13C
100
AcDbEntity
  8
PLASMA
  6
ByLayer
 62
  256
370
   -1
100
AcDbCircle
 10
-123.2180818104912
 20
71.11301329857108
 40
25.948
100
AcDbArc
 50
180
 51
225
  0
ARC
  5
13D
100
AcDbEntity
  8
PLASMA
  6
ByLayer
 62
  256
370
   -1
100
AcDbCircle
 10
-123.2180818104912
 20
71.11301329857108
 40
9.543150000000001
100
AcDbArc
 50
180
 51
225
  0
ARC
  5
13E
100
AcDbEntity
  8
PLASMA
  6
ByLayer
 62
  256
370
   -1
100
AcDbCircle
 10
-29.85243181049118
 20
121.8512632985711
 40
27.3137
100
AcDbArc
 50
90
 51
135
  0
ARC
  5
13F
100
AcDbEntity
  8
PLASMA
  6
ByLayer
 62
  256
370
   -1
100
AcDbCircle
 10
-29.85243181049118
 20
121.8512632985711
 40
10.90885
100
AcDbArc
 50
90
 51
135
  0
ARC
  5
140
100
AcDbEntity
  8
PLASMA
  6
ByLayer
 62
  256
370
   -1
100
AcDbCircle
 10
-24.10823181049117
 20
115.0228632985711
 40
34.14215
100
AcDbArc
 50
45
 51
90
  0
ARC
  5
141
100
AcDbEntity
  8
PLASMA
  6
ByLayer
 62
  256
370
   -1
100
AcDbCircle
 10
-24.10823181049117
 20
115.0228632985711
 40
17.73725
100
AcDbArc
 50
45
 51
90
  0
ARC
  5
142
100
AcDbEntity
  8
PLASMA
  6
ByLayer
 62
  256
370
   -1
100
AcDbCircle
 10
21.34756818950883
 20
121.8512632985711
 40
27.3137
100
AcDbArc
 50
90
 51
135
  0
ARC
  5
143
100
AcDbEntity
  8
PLASMA
  6
ByLayer
 62
  256
370
   -1
100
AcDbCircle
 10
21.34756818950883
 20
121.8512632985711
 40
10.90885
100
AcDbArc
 50
90
 51
135
  0
ARC
  5
144
100
AcDbEntity
  8
PLASMA
  6
ByLayer
 62
  256
370
   -1
100
AcDbCircle
 10
27.09176818950883
 20
115.0228632985711
 40
34.14215
100
AcDbArc
 50
45
 51
90
  0
ARC
  5
145
100
AcDbEntity
  8
PLASMA
  6
ByLayer
 62
  256
370
   -1
100
AcDbCircle
 10
27.09176818950883
 20
115.0228632985711
 40
17.73725
100
AcDbArc
 50
45
 51
90
  0
ARC
  5
146
100
AcDbEntity
  8
PLASMA
  6
ByLayer
 62
  256
370
   -1
100
AcDbCircle
 10
39.65741818950885
 20
104.3885132985711
 40
32.77645
100
AcDbArc
 50
0
 51
45
  0
ARC
  5
147
100
AcDbEntity
  8
PLASMA
  6
ByLayer
 62
  256
370
   -1
100
AcDbCircle
 10
39.65741818950885
 20
104.3885132985711
 40
16.37155
100
AcDbArc
 50
0
 51
45
  0
ARC
  5
148
100
AcDbEntity
  8
PLASMA
  6
ByLayer
 62
  256
370
   -1
100
AcDbCircle
 10
46.48586818950884
 20
96.7130132985711
 40
9.543150000000001
100
AcDbArc
 50
315
 51
360
  0
ARC
  5
149
100
AcDbEntity
  8
PLASMA
  6
ByLayer
 62
  256
370
   -1
100
AcDbCircle
 10
46.48586818950884
 20
96.7130132985711
 40
25.948
100
AcDbArc
 50
315
 51
360
  0
ARC
  5
14A
100
AcDbEntity
  8
PLASMA
  6
ByLayer
 62
  256
370
   -1
100
AcDbCircle
 10
-46.41808181049116
 20
107.2169632985711
 40
25.948
100
AcDbArc
 50
135
 51
180
  0
ARC
  5
14B
100
AcDbEntity
  8
PLASMA
  6
ByLayer
 62
  256
370
   -1
100
AcDbCircle
 10
-46.41808181049116
 20
107.2169632985711
 40
9.543150000000001
100
AcDbArc
 50
135
 51
180
  0
ARC
  5
14C
100
AcDbEntity
  8
PLASMA
  6
ByLayer
 62
  256
370
   -1
100
AcDbCircle
 10
-39.58968181049116
 20
99.54141329857107
 40
16.37155
100
AcDbArc
 50
180
 51
225
  0
ARC
  5
14D
100
AcDbEntity
  8
PLASMA
  6
ByLayer
 62
  256
370
   -1
100
AcDbCircle
 10
-39.58968181049116
 20
99.54141329857107
 40
32.77645
100
AcDbArc
 50
180
 51
225
  0
ARC
  5
14E
100
AcDbEntity
  8
PLASMA
  6
ByLayer
 62
  256
370
   -1
100
AcDbCircle
 10
3.423118189508847
 20
61.37576329857106
 40
15.0059
100
AcDbArc
 50
270
 51
315
  0
ARC
  5
14F
100
AcDbEntity
  8
PLASMA
  6
ByLayer
 62
  256
370
   -1
100
AcDbCircle
 10
3.423118189508847
 20
61.37576329857106
 40
31.41075
100
AcDbArc
 50
270
 51
315
  0
ARC
  5
150
100
AcDbEntity
  8
PLASMA
  6
ByLayer
 62
  256
370
   -1
100
AcDbCircle
 10
-6.183781810491149
 20
54.54731329857108
 40
8.17745
100
AcDbArc
 50
225
 51
270
  0
ARC
  5
151
100
AcDbEntity
  8
PLASMA
  6
ByLayer
 62
  256
370
   -1
100
AcDbCircle
 10
-6.183781810491149
 20
54.54731329857108
 40
24.58235
100
AcDbArc
 50
225
 51
270
  0
ARC
  5
152
100
AcDbEntity
  8
PLASMA
  6
ByLayer
 62
  256
370
   -1
100
AcDbCircle
 10
72.54756818950882
 20
121.8512632985711
 40
27.3137
100
AcDbArc
 50
90
 51
135
  0
ARC
  5
153
100
AcDbEntity
  8
PLASMA
  6
ByLayer
 62
  256
370
   -1
100
AcDbCircle
 10
72.54756818950882
 20
121.8512632985711
 40
10.90885
100
AcDbArc
 50
90
 51
135
  0
ARC
  5
154
100
AcDbEntity
  8
PLASMA
  6
ByLayer
 62
  256
370
   -1
100
AcDbCircle
 10
116.4574181895088
 20
73.94141329857109
 40
16.37155
100
AcDbArc
 50
315
 51
361.421287
  0
ARC
  5
155
100
AcDbEntity
  8
PLASMA
  6
ByLayer
 62
  256
370
   -1
100
AcDbCircle
 10
116.4574181895088
 20
73.94141329857109
 40
32.77645
100
AcDbArc
 50
315
 51
360
  0
ARC
  5
156
100
AcDbEntity
  8
PLASMA
  6
ByLayer
 62
  256
370
   -1
100
AcDbCircle
 10
106.7201681895088
 20
45.05126329857107
 40
27.3137
100
AcDbArc
 50
45
 51
90
  0
ARC
  5
157
100
AcDbEntity
  8
PLASMA
  6
ByLayer
 62
  256
370
   -1
100
AcDbCircle
 10
106.7201681895088
 20
45.05126329857107
 40
10.90885
100
AcDbArc
 50
45
 51
90
  0
ARC
  5
158
100
AcDbEntity
  8
PLASMA
  6
ByLayer
 62
  256
370
   -1
100
AcDbCircle
 10
100.9760181895088
 20
38.2228632985711
 40
34.14215
100
AcDbArc
 50
90
 51
135
  0
ARC
  5
159
100
AcDbEntity
  8
PLASMA
  6
ByLayer
 62
  256
370
   -1
100
AcDbCircle
 10
100.9760181895088
 20
38.2228632985711
 40
17.73725
100
AcDbArc
 50
90
 51
135
  0
ARC
  5
15A
100
AcDbEntity
  8
PLASMA
  6
ByLayer
 62
  256
370
   -1
100
AcDbCircle
 10
123.2858681895088
 20
30.41696329857109
 40
9.543150000000001
100
AcDbArc
 50
0
 51
45
  0
ARC
  5
15B
100
AcDbEntity
  8
PLASMA
  6
ByLayer
 62
  256
370
   -1
100
AcDbCircle
 10
123.2858681895088
 20
30.41696329857109
 40
25.948
100
AcDbArc
 50
0
 51
45
  0
ARC
  5
15C
100
AcDbEntity
  8
PLASMA
  6
ByLayer
 62
  256
370
   -1
100
AcDbCircle
 10
116.4574181895088
 20
22.74141329857109
 40
16.37155
100
AcDbArc
 50
315
 51
360
  0
ARC
  5
15D
100
AcDbEntity
  8
PLASMA
  6
ByLayer
 62
  256
370
   -1
100
AcDbCircle
 10
116.4574181895088
 20
22.74141329857109
 40
32.77645
100
AcDbArc
 50
315
 51
360
  0
ARC
  5
15E
100
AcDbEntity
  8
PLASMA
  6
ByLayer
 62
  256
370
   -1
100
AcDbCircle
 10
123.2858681895088
 20
-20.78303670142891
 40
9.543150000000001
100
AcDbArc
 50
0
 51
45
  0
ARC
  5
15F
100
AcDbEntity
  8
PLASMA
  6
ByLayer
 62
  256
370
   -1
100
AcDbCircle
 10
123.2858681895088
 20
-20.78303670142891
 40
25.948
100
AcDbArc
 50
0
 51
45
  0
ARC
  5
160
100
AcDbEntity
  8
PLASMA
  6
ByLayer
 62
  256
370
   -1
100
AcDbCircle
 10
116.4574181895088
 20
-28.45858670142891
 40
16.37155
100
AcDbArc
 50
315
 51
360
  0
ARC
  5
161
100
AcDbEntity
  8
PLASMA
  6
ByLayer
 62
  256
370
   -1
100
AcDbCircle
 10
116.4574181895088
 20
-28.45858670142891
 40
32.77645
100
AcDbArc
 50
315
 51
360
  0
ARC
  5
162
100
AcDbEntity
  8
PLASMA
  6
ByLayer
 62
  256
370
   -1
100
AcDbCircle
 10
96.21621818950885
 20
-47.85268670142892
 40
8.17745
100
AcDbArc
 50
225
 51
270
  0
ARC
  5
163
100
AcDbEntity
  8
PLASMA
  6
ByLayer
 62
  256
370
   -1
100
AcDbCircle
 10
96.21621818950885
 20
-47.85268670142892
 40
24.58235
100
AcDbArc
 50
225
 51
270
  0
ARC
  5
164
100
AcDbEntity
  8
PLASMA
  6
ByLayer
 62
  256
370
   -1
100
AcDbCircle
 10
105.8231181895088
 20
-41.02423670142892
 40
15.0059
100
AcDbArc
 50
270
 51
315
  0
ARC
  5
165
100
AcDbEntity
  8
PLASMA
  6
ByLayer
 62
  256
370
   -1
100
AcDbCircle
 10
105.8231181895088
 20
-41.02423670142892
 40
31.41075
100
AcDbArc
 50
270
 51
315
  0
ARC
  5
166
100
AcDbEntity
  8
PLASMA
  6
ByLayer
 62
  256
370
   -1
100
AcDbCircle
 10
123.2858681895088
 20
-71.98303670142892
 40
25.948
100
AcDbArc
 50
0
 51
45
  0
ARC
  5
167
100
AcDbEntity
  8
PLASMA
  6
ByLayer
 62
  256
370
   -1
100
AcDbCircle
 10
123.2858681895088
 20
-71.98303670142892
 40
9.543150000000001
100
AcDbArc
 50
0
 51
45
  0
ARC
  5
168
100
AcDbEntity
  8
PLASMA
  6
ByLayer
 62
  256
370
   -1
100
AcDbCircle
 10
55.98191818950884
 20
4.816963298571066
 40
25.948
100
AcDbArc
 50
135
 51
180
  0
ARC
  5
169
100
AcDbEntity
  8
PLASMA
  6
ByLayer
 62
  256
370
   -1
100
AcDbCircle
 10
55.98191818950884
 20
4.816963298571066
 40
9.543150000000001
100
AcDbArc
 50
135
 51
180
  0
ARC
  5
16A
100
AcDbEntity
  8
PLASMA
  6
ByLayer
 62
  256
370
   -1
100
AcDbCircle
 10
62.81031818950882
 20
-2.858586701428931
 40
32.77645
100
AcDbArc
 50
180
 51
225
  0
ARC
  5
16B
100
AcDbEntity
  8
PLASMA
  6
ByLayer
 62
  256
370
   -1
100
AcDbCircle
 10
62.81031818950882
 20
-2.858586701428931
 40
16.37155
100
AcDbArc
 50
180
 51
225
  0
ARC
  5
16C
100
AcDbEntity
  8
PLASMA
  6
ByLayer
 62
  256
370
   -1
100
AcDbCircle
 10
39.65741818950885
 20
-100.4114867014289
 40
32.77645
100
AcDbArc
 50
0
 51
45
  0
ARC
  5
16D
100
AcDbEntity
  8
PLASMA
  6
ByLayer
 62
  256
370
   -1
100
AcDbCircle
 10
39.65741818950885
 20
-100.4114867014289
 40
16.37155
100
AcDbArc
 50
0
 51
45
  0
ARC
  5
16E
100
AcDbEntity
  8
PLASMA
  6
ByLayer
 62
  256
370
   -1
100
AcDbCircle
 10
46.48586818950884
 20
-108.0869867014289
 40
9.543150000000001
100
AcDbArc
 50
315
 51
360
  0
ARC
  5
16F
100
AcDbEntity
  8
PLASMA
  6
ByLayer
 62
  256
370
   -1
100
AcDbCircle
 10
46.48586818950884
 20
-108.0869867014289
 40
25.948
100
AcDbArc
 50
315
 51
360
  0
ARC
  5
170
100
AcDbEntity
  8
PLASMA
  6
ByLayer
 62
  256
370
   -1
100
AcDbCircle
 10
73.4446681895088
 20
-117.8242367014289
 40
15.0059
100
AcDbArc
 50
225
 51
270
  0
ARC
  5
171
100
AcDbEntity
  8
PLASMA
  6
ByLayer
 62
  256
370
   -1
100
AcDbCircle
 10
73.4446681895088
 20
-117.8242367014289
 40
31.41075
100
AcDbArc
 50
225
 51
270
  0
ARC
  5
172
100
AcDbEntity
  8
PLASMA
  6
ByLayer
 62
  256
370
   -1
100
AcDbCircle
 10
22.24466818950886
 20
-117.8242367014289
 40
15.0059
100
AcDbArc
 50
225
 51
270
  0
ARC
  5
173
100
AcDbEntity
  8
PLASMA
  6
ByLayer
 62
  256
370
   -1
100
AcDbCircle
 10
22.24466818950886
 20
-117.8242367014289
 40
31.41075
100
AcDbArc
 50
225
 51
270
  0
ARC
  5
174
100
AcDbEntity
  8
PLASMA
  6
ByLayer
 62
  256
370
   -1
100
AcDbCircle
 10
31.85156818950885
 20
-124.6526867014289
 40
8.17745
100
AcDbArc
 50
270
 51
315
  0
ARC
  5
175
100
AcDbEntity
  8
PLASMA
  6
ByLayer
 62
  256
370
   -1
100
AcDbCircle
 10
31.85156818950885
 20
-124.6526867014289
 40
24.58235
100
AcDbArc
 50
270
 51
315
  0
ARC
  5
176
100
AcDbEntity
  8
PLASMA
  6
ByLayer
 62
  256
370
   -1
100
AcDbCircle
 10
-28.95533181049117
 20
-117.8242367014289
 40
15.0059
100
AcDbArc
 50
225
 51
270
  0
ARC
  5
177
100
AcDbEntity
  8
PLASMA
  6
ByLayer
 62
  256
370
   -1
100
AcDbCircle
 10
-28.95533181049117
 20
-117.8242367014289
 40
31.41075
100
AcDbArc
 50
225
 51
270
  0
ARC
  5
178
100
AcDbEntity
  8
PLASMA
  6
ByLayer
 62
  256
370
   -1
100
AcDbCircle
 10
-19.34843181049117
 20
-124.6526867014289
 40
8.17745
100
AcDbArc
 50
270
 51
315
  0
ARC
  5
179
100
AcDbEntity
  8
PLASMA
  6
ByLayer
 62
  256
370
   -1
100
AcDbCircle
 10
-19.34843181049117
 20
-124.6526867014289
 40
24.58235
100
AcDbArc
 50
270
 51
315
  0
ARC
  5
17A
100
AcDbEntity
  8
PLASMA
  6
ByLayer
 62
  256
370
   -1
100
AcDbCircle
 10
-70.54843181049118
 20
-124.6526867014289
 40
8.17745
100
AcDbArc
 50
270
 51
315
  0
ARC
  5
17B
100
AcDbEntity
  8
PLASMA
  6
ByLayer
 62
  256
370
   -1
100
AcDbCircle
 10
-70.54843181049118
 20
-124.6526867014289
 40
24.58235
100
AcDbArc
 50
270
 51
315
  0
ARC
  5
17C
100
AcDbEntity
  8
PLASMA
  6
ByLayer
 62
  256
370
   -1
100
AcDbCircle
 10
-46.41808181049116
 20
-97.58303670142891
 40
25.948
100
AcDbArc
 50
135
 51
180
  0
ARC
  5
17D
100
AcDbEntity
  8
PLASMA
  6
ByLayer
 62
  256
370
   -1
100
AcDbCircle
 10
-39.58968181049116
 20
-105.2585867014289
 40
32.77645
100
AcDbArc
 50
180
 51
225
  0
ARC
  5
17E
100
AcDbEntity
  8
PLASMA
  6
ByLayer
 62
  256
370
   -1
100
AcDbCircle
 10
-46.41808181049116
 20
-97.58303670142891
 40
9.543150000000001
100
AcDbArc
 50
135
 51
180
  0
ARC
  5
17F
100
AcDbEntity
  8
PLASMA
  6
ByLayer
 62
  256
370
   -1
100
AcDbCircle
 10
-39.58968181049116
 20
-105.2585867014289
 40
16.37155
100
AcDbArc
 50
180
 51
225
  0
ARC
  5
180
100
AcDbEntity
  8
PLASMA
  6
ByLayer
 62
  256
370
   -1
100
AcDbCircle
 10
-1.423981810491169
 20
-64.17713670142892
 40
34.14215
100
AcDbArc
 50
90
 51
135
  0
ARC
  5
181
100
AcDbEntity
  8
PLASMA
  6
ByLayer
 62
  256
370
   -1
100
AcDbCircle
 10
-1.423981810491169
 20
-64.17713670142892
 40
17.73725
100
AcDbArc
 50
90
 51
135
  0
ARC
  5
182
100
AcDbEntity
  8
PLASMA
  6
ByLayer
 62
  256
370
   -1
100
AcDbCircle
 10
4.320168189508824
 20
-57.34873670142893
 40
27.3137
100
AcDbArc
 50
45
 51
90
  0
ARC
  5
183
100
AcDbEntity
  8
PLASMA
  6
ByLayer
 62
  256
370
   -1
100
AcDbCircle
 10
4.320168189508824
 20
-57.34873670142893
 40
10.90885
100
AcDbArc
 50
45
 51
90
  0
ARC
  5
184
100
AcDbEntity
  8
PLASMA
  6
ByLayer
 62
  256
370
   -1
100
AcDbCircle
 10
-116.3896818104912
 20
-74.81148670142892
 40
32.77645
100
AcDbArc
 50
135
 51
180
  0
ARC
  5
185
100
AcDbEntity
  8
PLASMA
  6
ByLayer
 62
  256
370
   -1
100
AcDbCircle
 10
-116.3896818104912
 20
-74.81148670142892
 40
16.37155
100
AcDbArc
 50
135
 51
180
  0
ARC
  5
186
100
AcDbEntity
  8
PLASMA
  6
ByLayer
 62
  256
370
   -1
100
AcDbCircle
 10
-108.5837818104912
 20
-47.85268670142892
 40
8.17745
100
AcDbArc
 50
225
 51
270
  0
ARC
  5
187
100
AcDbEntity
  8
PLASMA
  6
ByLayer
 62
  256
370
   -1
100
AcDbCircle
 10
-108.5837818104912
 20
-47.85268670142892
 40
24.58235
100
AcDbArc
 50
225
 51
270
  0
ARC
  5
188
100
AcDbEntity
  8
PLASMA
  6
ByLayer
 62
  256
370
   -1
100
AcDbCircle
 10
-98.97688181049116
 20
-41.02423670142892
 40
15.0059
100
AcDbArc
 50
270
 51
315
  0
ARC
  5
189
100
AcDbEntity
  8
PLASMA
  6
ByLayer
 62
  256
370
   -1
100
AcDbCircle
 10
-98.97688181049116
 20
-41.02423670142892
 40
31.41075
100
AcDbArc
 50
270
 51
315
  0
ARC
  5
18A
100
AcDbEntity
  8
PLASMA
  6
ByLayer
 62
  256
370
   -1
100
AcDbCircle
 10
-123.2180818104912
 20
-31.28698670142891
 40
25.948
100
AcDbArc
 50
180
 51
225
  0
ARC
  5
18B
100
AcDbEntity
  8
PLASMA
  6
ByLayer
 62
  256
370
   -1
100
AcDbCircle
 10
-123.2180818104912
 20
-31.28698670142891
 40
9.543150000000001
100
AcDbArc
 50
180
 51
225
  0
ARC
  5
18C
100
AcDbEntity
  8
PLASMA
  6
ByLayer
 62
  256
370
   -1
100
AcDbCircle
 10
-116.3896818104912
 20
-23.61148670142892
 40
16.37155
100
AcDbArc
 50
135
 51
180
  0
ARC
  5
18D
100
AcDbEntity
  8
PLASMA
  6
ByLayer
 62
  256
370
   -1
100
AcDbCircle
 10
-116.3896818104912
 20
-23.61148670142892
 40
32.77645
100
AcDbArc
 50
135
 51
180
  0
ARC
  5
18E
100
AcDbEntity
  8
PLASMA
  6
ByLayer
 62
  256
370
   -1
100
AcDbCircle
 10
-123.2180818104912
 20
19.91301329857107
 40
9.543150000000001
100
AcDbArc
 50
180
 51
225
  0
ARC
  5
18F
100
AcDbEntity
  8
PLASMA
  6
ByLayer
 62
  256
370
   -1
100
AcDbCircle
 10
-123.2180818104912
 20
19.91301329857107
 40
25.948
100
AcDbArc
 50
180
 51
225
  0
ARC
  5
190
100
AcDbEntity
  8
PLASMA
  6
ByLayer
 62
  256
370
   -1
100
AcDbCircle
 10
-116.3896818104912
 20
27.58851329857106
 40
32.77645
100
AcDbArc
 50
135
 51
180
  0
ARC
  5
191
100
AcDbEntity
  8
PLASMA
  6
ByLayer
 62
  256
370
   -1
100
AcDbCircle
 10
-116.3896818104912
 20
27.58851329857106
 40
16.37155
100
AcDbArc
 50
135
 51
180
  0
ARC
  5
192
100
AcDbEntity
  8
PLASMA
  6
ByLayer
 62
  256
370
   -1
100
AcDbCircle
 10
-103.8239818104912
 20
38.2228632985711
 40
34.14215
100
AcDbArc
 50
90
 51
135
  0
ARC
  5
193
100
AcDbEntity
  8
PLASMA
  6
ByLayer
 62
  256
370
   -1
100
AcDbCircle
 10
-103.8239818104912
 20
38.2228632985711
 40
17.73725
100
AcDbArc
 50
90
 51
135
  0
ARC
  5
194
100
AcDbEntity
  8
PLASMA
  6
ByLayer
 62
  256
370
   -1
100
AcDbCircle
 10
-98.07983181049116
 20
45.05126329857107
 40
27.3137
100
AcDbArc
 50
45
 51
90
  0
ARC
  5
195
100
AcDbEntity
  8
PLASMA
  6
ByLayer
 62
  256
370
   -1
100
AcDbCircle
 10
-98.07983181049116
 20
45.05126329857107
 40
10.90885
100
AcDbArc
 50
45
 51
90
  0
ARC
  5
196
100
AcDbEntity
  8
PLASMA
  6
ByLayer
 62
  256
370
   -1
100
AcDbCircle
 10
-62.74258181049117
 20
1.988513298571084
 40
32.77645
100
AcDbArc
 50
0
 51
45
  0
ARC
  5
197
100
AcDbEntity
  8
PLASMA
  6
ByLayer
 62
  256
370
   -1
100
AcDbCircle
 10
-62.74258181049117
 20
1.988513298571084
 40
16.37155
100
AcDbArc
 50
0
 51
45
  0
ARC
  5
198
100
AcDbEntity
  8
PLASMA
  6
ByLayer
 62
  256
370
   -1
100
AcDbCircle
 10
-55.91413181049116
 20
-5.686986701428907
 40
9.543150000000001
100
AcDbArc
 50
315
 51
360
  0
ARC
  5
199
100
AcDbEntity
  8
PLASMA
  6
ByLayer
 62
  256
370
   -1
100
AcDbCircle
 10
-55.91413181049116
 20
-5.686986701428907
 40
25.948
100
AcDbArc
 50
315
 51
360
  0
ENDSEC
  0
SECTION
  2
OBJECTS
  0
DICTIONARY
  5
C
330
0
100
AcDbDictionary
281
    1
  3
ACAD_GROUP
350
D
  0
DICTIONARY
  5
D
330
C
100
AcDbDictionary
281
    1
  0
ENDSEC
  0
EOF
