  0
SECTION
  2
HEADER
  9
$ACADVER
  1
AC1014
  9
$HANDSEED
  5
FFFF
  9
$MEASUREMENT
 70
     1
  0
ENDSEC
  0
SECTION
  2
TABLES
  0
TABLE
  2
VPORT
  5
8
330
0
100
AcDbSymbolTable
 70
     4
  0
VPORT
  5
2E
330
8
100
AcDbSymbolTableRecord
100
AcDbViewportTableRecord
  2
*ACTIVE
 70
     0
 10
0.0
 20
0.0
 11
1.0
 21
1.0
 12
210.0
 22
148.5
 13
0.0
 23
0.0
 14
10.0
 24
10.0
 15
10.0
 25
10.0
 16
0.0
 26
0.0
 36
1.0
 17
0.0
 27
0.0
 37
0.0
 40
341.0
 41
1.24
 42
50.0
 43
0.0
 44
0.0
 50
0.0
 51
0.0
 71
     0
 72
   100
 73
     1
 74
     3
 75
     0
 76
     0
 77
     0
 78
     0
  0
ENDTAB
  0
TABLE
  2
LTYPE
  5
5
330
0
100
AcDbSymbolTable
 70
     1
  0
LTYPE
  5
14
330
5
100
AcDbSymbolTableRecord
100
AcDbLinetypeTableRecord
  2
BYBLOCK
 70
     0
  3

 72
    65
 73
     0
 40
0.0
  0
LTYPE
  5
15
330
5
100
AcDbSymbolTableRecord
100
AcDbLinetypeTableRecord
  2
BYLAYER
 70
     0
  3

 72
    65
 73
     0
 40
0.0
  0
LTYPE
  5
16
330
5
100
AcDbSymbolTableRecord
100
AcDbLinetypeTableRecord
  2
CONTINUOUS
 70
     0
  3
Solid line
 72
    65
 73
     0
 40
0.0
  0
ENDTAB
  0
TABLE
  2
LAYER
  5
2
100
AcDbSymbolTable
 70
2
  0
LAYER
  5
50
100
AcDbSymbolTableRecord
100
AcDbLayerTableRecord
  2
0
 70
0
  6
CONTINUOUS
  0
LAYER
  5
51
100
AcDbSymbolTableRecord
100
AcDbLayerTableRecord
  2
PLASMA
 70
0
  6
CONTINUOUS
  0
ENDTAB
  0
TABLE
  2
STYLE
  5
3
330
0
100
AcDbSymbolTable
 70
     1
  0
STYLE
  5
11
330
3
100
AcDbSymbolTableRecord
100
AcDbTextStyleTableRecord
  2
STANDARD
 70
     0
 40
0.0
 41
1.0
 50
0.0
 71
     0
 42
2.5
  3
txt
  4

  0
ENDTAB
  0
TABLE
  2
VIEW
  5
6
330
0
100
AcDbSymbolTable
 70
     0
  0
ENDTAB
  0
TABLE
  2
UCS
  5
7
330
0
100
AcDbSymbolTable
 70
     0
  0
ENDTAB
  0
TABLE
  2
APPID
  5
9
330
0
100
AcDbSymbolTable
 70
     2
  0
APPID
  5
12
330
9
100
AcDbSymbolTableRecord
100
AcDbRegAppTableRecord
  2
ACAD
 70
     0
  0
ENDTAB
  0
TABLE
  2
DIMSTYLE
  5
A
330
0
100
AcDbSymbolTable
 70
     1
  0
DIMSTYLE
105
27
330
A
100
AcDbSymbolTableRecord
100
AcDbDimStyleTableRecord
  2
ISO-25
 70
     0
  3

  4

  5

  6

  7

 40
1.0
 41
2.5
 42
0.625
 43
3.75
 44
1.25
 45
0.0
 46
0.0
 47
0.0
 48
0.0
140
2.5
141
2.5
142
0.0
143
0.03937007874016
144
1.0
145
0.0
146
1.0
147
0.625
 71
     0
 72
     0
 73
     0
 74
     0
 75
     0
 76
     0
 77
     1
 78
     8
170
     0
171
     3
172
     1
173
     0
174
     0
175
     0
176
     0
177
     0
178
     0
270
     2
271
     2
272
     2
273
     2
274
     3
340
11
275
     0
280
     0
281
     0
282
     0
283
     0
284
     8
285
     0
286
     0
287
     3
288
     0
  0
ENDTAB
  0
TABLE
  2
BLOCK_RECORD
  5
1
330
0
100
AcDbSymbolTable
 70
     1
  0
BLOCK_RECORD
  5
1F
330
1
100
AcDbSymbolTableRecord
100
AcDbBlockTableRecord
  2
*MODEL_SPACE
  0
BLOCK_RECORD
  5
1B
330
1
100
AcDbSymbolTableRecord
100
AcDbBlockTableRecord
  2
*PAPER_SPACE
  0
ENDTAB
  0
ENDSEC
  0
SECTION
  2
BLOCKS
  0
BLOCK
  5
20
330
1F
100
AcDbEntity
  8
0
100
AcDbBlockBegin
  2
*MODEL_SPACE
 70
     0
 10
0.0
 20
0.0
 30
0.0
  3
*MODEL_SPACE
  1

  0
ENDBLK
  5
21
330
1F
100
AcDbEntity
  8
0
100
AcDbBlockEnd
  0
BLOCK
  5
1C
330
1B
100
AcDbEntity
 67
     1
  8
0
100
AcDbBlockBegin
  2
*PAPER_SPACE
  1

  0
ENDBLK
  5
1D
330
1B
100
AcDbEntity
 67
     1
  8
0
100
AcDbBlockEnd
  0
ENDSEC
  0
SECTION
  2
ENTITIES
  0
LINE
  5
100
100
AcDbEntity
  8
PLASMA
 62
7
100
AcDbLine
 10
13666.972500
 20
-11776.942736
 30
0.0
 11
13666.972500
 21
-11776.942736
 31
0.0
  0
LINE
  5
101
100
AcDbEntity
  8
PLASMA
 62
7
100
AcDbLine
 10
13666.972500
 20
-11776.942736
 30
0.0
 11
13666.972500
 21
-11776.942736
 31
0.0
  0
LINE
  5
102
100
AcDbEntity
  8
PLASMA
 62
7
100
AcDbLine
 10
13666.972500
 20
-11776.942736
 30
0.0
 11
13666.972500
 21
-11776.942736
 31
0.0
  0
LINE
  5
103
100
AcDbEntity
  8
PLASMA
 62
7
100
AcDbLine
 10
-14400.000000
 20
14399.999764
 30
0.0
 11
-14400.000000
 21
14399.999764
 31
0.0
  0
LINE
  5
104
100
AcDbEntity
  8
PLASMA
 62
7
100
AcDbLine
 10
-14400.000000
 20
14399.999764
 30
0.0
 11
-14400.000000
 21
14399.999764
 31
0.0
  0
LINE
  5
105
100
AcDbEntity
  8
PLASMA
 62
7
100
AcDbLine
 10
-14400.000000
 20
14399.999764
 30
0.0
 11
-14400.000000
 21
14399.999764
 31
0.0
  0
LINE
  5
106
100
AcDbEntity
  8
PLASMA
 62
7
100
AcDbLine
 10
-14400.000000
 20
14399.999764
 30
0.0
 11
-14400.000000
 21
14399.999764
 31
0.0
  0
LINE
  5
107
100
AcDbEntity
  8
PLASMA
 62
7
100
AcDbLine
 10
-14400.000000
 20
14399.999764
 30
0.0
 11
-14400.000000
 21
14399.999764
 31
0.0
  0
LINE
  5
108
100
AcDbEntity
  8
PLASMA
 62
7
100
AcDbLine
 10
-14400.000000
 20
14399.999764
 30
0.0
 11
-14400.000000
 21
14399.999764
 31
0.0
  0
SPLINE
  5
109
100
AcDbEntity
  8
PLASMA
 62
7
100
AcDbSpline
 70
8
 71
3
 72
8
 73
4
 74
0
 40
0
 40
0
 40
0
 40
0
 40
1
 40
1
 40
1
 40
1
 10
-14400.000000
 20
14399.999764
 30
0.0
 10
-4800.000000
 20
14399.999764
 30
0.0
 10
4800.000000
 20
14399.999764
 30
0.0
 10
14400.000000
 20
14399.999764
 30
0.0
  0
SPLINE
  5
10a
100
AcDbEntity
  8
PLASMA
 62
7
100
AcDbSpline
 70
8
 71
3
 72
8
 73
4
 74
0
 40
0
 40
0
 40
0
 40
0
 40
1
 40
1
 40
1
 40
1
 10
14400.000000
 20
14399.999764
 30
0.0
 10
14400.000000
 20
4799.999989
 30
0.0
 10
14400.000000
 20
-4800.000011
 30
0.0
 10
14400.000000
 20
-14400.000236
 30
0.0
  0
SPLINE
  5
10b
100
AcDbEntity
  8
PLASMA
 62
7
100
AcDbSpline
 70
8
 71
3
 72
8
 73
4
 74
0
 40
0
 40
0
 40
0
 40
0
 40
1
 40
1
 40
1
 40
1
 10
14400.000000
 20
-14400.000236
 30
0.0
 10
4800.000000
 20
-14400.000236
 30
0.0
 10
-4800.000000
 20
-14400.000236
 30
0.0
 10
-14400.000000
 20
-14400.000236
 30
0.0
  0
SPLINE
  5
10c
100
AcDbEntity
  8
PLASMA
 62
7
100
AcDbSpline
 70
8
 71
3
 72
8
 73
4
 74
0
 40
0
 40
0
 40
0
 40
0
 40
1
 40
1
 40
1
 40
1
 10
-14400.000000
 20
-14400.000236
 30
0.0
 10
-14400.000000
 20
-4800.000011
 30
0.0
 10
-14400.000000
 20
4799.999989
 30
0.0
 10
-14400.000000
 20
14399.999764
 30
0.0
  0
LINE
  5
10d
100
AcDbEntity
  8
PLASMA
 62
7
100
AcDbLine
 10
-14400.000000
 20
14399.999764
 30
0.0
 11
-14400.000000
 21
14399.999764
 31
0.0
  0
SPLINE
  5
10e
100
AcDbEntity
  8
PLASMA
 62
7
100
AcDbSpline
 70
8
 71
3
 72
8
 73
4
 74
0
 40
0
 40
0
 40
0
 40
0
 40
1
 40
1
 40
1
 40
1
 10
-3683.961525
 20
10019.877514
 30
0.0
 10
-3117.561525
 20
9453.477514
 30
0.0
 10
-2551.161525
 20
8887.077514
 30
0.0
 10
-1984.761525
 20
8320.677364
 30
0.0
  0
SPLINE
  5
10f
100
AcDbEntity
  8
PLASMA
 62
7
100
AcDbSpline
 70
8
 71
3
 72
8
 73
4
 74
0
 40
0
 40
0
 40
0
 40
0
 40
1
 40
1
 40
1
 40
1
 10
-10739.961750
 20
7053.477364
 30
0.0
 10
-10739.961750
 20
6409.030564
 30
0.0
 10
-10739.961750
 20
5764.583764
 30
0.0
 10
-10739.961750
 20
5120.136964
 30
0.0
  0
SPLINE
  5
110
100
AcDbEntity
  8
PLASMA
 62
7
100
AcDbSpline
 70
8
 71
3
 72
8
 73
4
 74
0
 40
0
 40
0
 40
0
 40
0
 40
1
 40
1
 40
1
 40
1
 10
-9558.808500
 20
5872.328164
 30
0.0
 10
-9558.808500
 20
5621.597764
 30
0.0
 10
-9558.808500
 20
5370.867364
 30
0.0
 10
-9558.808500
 20
5120.136964
 30
0.0
  0
SPLINE
  5
111
100
AcDbEntity
  8
PLASMA
 62
7
100
AcDbSpline
 70
8
 71
3
 72
8
 73
4
 74
0
 40
0
 40
0
 40
0
 40
0
 40
1
 40
1
 40
1
 40
1
 10
-10739.961750
 20
7053.477364
 30
0.0
 10
-9511.161750
 20
7053.477364
 30
0.0
 10
-8282.361750
 20
7053.477364
 30
0.0
 10
-7053.561525
 20
7053.477364
 30
0.0
  0
SPLINE
  5
112
100
AcDbEntity
  8
PLASMA
 62
7
100
AcDbSpline
 70
8
 71
3
 72
8
 73
4
 74
0
 40
0
 40
0
 40
0
 40
0
 40
1
 40
1
 40
1
 40
1
 10
-9558.808500
 20
5872.328164
 30
0.0
 10
-8330.008500
 20
5872.328164
 30
0.0
 10
-7101.208725
 20
5872.328164
 30
0.0
 10
-5872.408725
 20
5872.328164
 30
0.0
  0
SPLINE
  5
113
100
AcDbEntity
  8
PLASMA
 62
7
100
AcDbSpline
 70
8
 71
3
 72
8
 73
4
 74
0
 40
0
 40
0
 40
0
 40
0
 40
1
 40
1
 40
1
 40
1
 10
-7053.561525
 20
10739.877514
 30
0.0
 10
-7053.561525
 20
9511.077514
 30
0.0
 10
-7053.561525
 20
8282.277364
 30
0.0
 10
-7053.561525
 20
7053.477364
 30
0.0
  0
SPLINE
  5
114
100
AcDbEntity
  8
PLASMA
 62
7
100
AcDbSpline
 70
8
 71
3
 72
8
 73
4
 74
0
 40
0
 40
0
 40
0
 40
0
 40
1
 40
1
 40
1
 40
1
 10
-5872.408725
 20
9558.728014
 30
0.0
 10
-5872.408725
 20
8329.928164
 30
0.0
 10
-5872.408725
 20
7101.128164
 30
0.0
 10
-5872.408725
 20
5872.328164
 30
0.0
  0
SPLINE
  5
115
100
AcDbEntity
  8
PLASMA
 62
7
100
AcDbSpline
 70
8
 71
3
 72
8
 73
4
 74
0
 40
0
 40
0
 40
0
 40
0
 40
1
 40
1
 40
1
 40
1
 10
-7053.561525
 20
10739.877514
 30
0.0
 10
-6509.771925
 20
10739.877514
 30
0.0
 10
-5965.982325
 20
10739.877514
 30
0.0
 10
-5422.192725
 20
10739.877514
 30
0.0
  0
SPLINE
  5
116
100
AcDbEntity
  8
PLASMA
 62
7
100
AcDbSpline
 70
8
 71
3
 72
8
 73
4
 74
0
 40
0
 40
0
 40
0
 40
0
 40
1
 40
1
 40
1
 40
1
 10
-5872.408725
 20
9558.728014
 30
0.0
 10
-5722.336725
 20
9558.728014
 30
0.0
 10
-5572.264725
 20
9558.728014
 30
0.0
 10
-5422.192725
 20
9558.728014
 30
0.0
  0
SPLINE
  5
117
100
AcDbEntity
  8
PLASMA
 62
7
100
AcDbSpline
 70
8
 71
3
 72
8
 73
4
 74
0
 40
0
 40
0
 40
0
 40
0
 40
1
 40
1
 40
1
 40
1
 10
-5210.361525
 20
7719.621364
 30
0.0
 10
-5210.361525
 20
7535.408164
 30
0.0
 10
-5210.361525
 20
7351.194964
 30
0.0
 10
-5210.361525
 20
7166.981764
 30
0.0
  0
SPLINE
  5
118
100
AcDbEntity
  8
PLASMA
 62
7
100
AcDbSpline
 70
8
 71
3
 72
8
 73
4
 74
0
 40
0
 40
0
 40
0
 40
0
 40
1
 40
1
 40
1
 40
1
 10
-4029.208725
 20
7719.621364
 30
0.0
 10
-4029.208725
 20
7535.408164
 30
0.0
 10
-4029.208725
 20
7351.194964
 30
0.0
 10
-4029.208725
 20
7166.981764
 30
0.0
  0
SPLINE
  5
119
100
AcDbEntity
  8
PLASMA
 62
7
100
AcDbSpline
 70
8
 71
3
 72
8
 73
4
 74
0
 40
0
 40
0
 40
0
 40
0
 40
1
 40
1
 40
1
 40
1
 10
-2149.375125
 20
10739.877514
 30
0.0
 10
-2011.514325
 20
10739.877514
 30
0.0
 10
-1873.653525
 20
10739.877514
 30
0.0
 10
-1735.792725
 20
10739.877514
 30
0.0
  0
SPLINE
  5
11a
100
AcDbEntity
  8
PLASMA
 62
7
100
AcDbSpline
 70
8
 71
3
 72
8
 73
4
 74
0
 40
0
 40
0
 40
0
 40
0
 40
1
 40
1
 40
1
 40
1
 10
-2149.375125
 20
9558.728014
 30
0.0
 10
-2011.514325
 20
9558.728014
 30
0.0
 10
-1873.653525
 20
9558.728014
 30
0.0
 10
-1735.792725
 20
9558.728014
 30
0.0
  0
SPLINE
  5
11b
100
AcDbEntity
  8
PLASMA
 62
7
100
AcDbSpline
 70
8
 71
3
 72
8
 73
4
 74
0
 40
0
 40
0
 40
0
 40
0
 40
1
 40
1
 40
1
 40
1
 10
-7475.326725
 20
5210.277364
 30
0.0
 10
-7337.467125
 20
5210.277364
 30
0.0
 10
-7199.607525
 20
5210.277364
 30
0.0
 10
-7061.747925
 20
5210.277364
 30
0.0
  0
SPLINE
  5
11c
100
AcDbEntity
  8
PLASMA
 62
7
100
AcDbSpline
 70
8
 71
3
 72
8
 73
4
 74
0
 40
0
 40
0
 40
0
 40
0
 40
1
 40
1
 40
1
 40
1
 10
-7475.326725
 20
4029.128164
 30
0.0
 10
-7337.467125
 20
4029.128164
 30
0.0
 10
-7199.607525
 20
4029.128164
 30
0.0
 10
-7061.747925
 20
4029.128164
 30
0.0
  0
SPLINE
  5
11d
100
AcDbEntity
  8
PLASMA
 62
7
100
AcDbSpline
 70
8
 71
3
 72
8
 73
4
 74
0
 40
0
 40
0
 40
0
 40
0
 40
1
 40
1
 40
1
 40
1
 10
-5671.161525
 20
4634.277364
 30
0.0
 10
-5949.561525
 20
4355.877364
 30
0.0
 10
-6227.961525
 20
4077.477364
 30
0.0
 10
-6506.361525
 20
3799.077364
 30
0.0
  0
SPLINE
  5
11e
100
AcDbEntity
  8
PLASMA
 62
7
100
AcDbSpline
 70
8
 71
3
 72
8
 73
4
 74
0
 40
0
 40
0
 40
0
 40
0
 40
1
 40
1
 40
1
 40
1
 10
1537.024875
 20
10739.877514
 30
0.0
 10
1674.885675
 20
10739.877514
 30
0.0
 10
1812.746475
 20
10739.877514
 30
0.0
 10
1950.607275
 20
10739.877514
 30
0.0
  0
SPLINE
  5
11f
100
AcDbEntity
  8
PLASMA
 62
7
100
AcDbSpline
 70
8
 71
3
 72
8
 73
4
 74
0
 40
0
 40
0
 40
0
 40
0
 40
1
 40
1
 40
1
 40
1
 10
1537.024875
 20
9558.728014
 30
0.0
 10
1674.885675
 20
9558.728014
 30
0.0
 10
1812.746475
 20
9558.728014
 30
0.0
 10
1950.607275
 20
9558.728014
 30
0.0
  0
SPLINE
  5
120
100
AcDbEntity
  8
PLASMA
 62
7
100
AcDbSpline
 70
8
 71
3
 72
8
 73
4
 74
0
 40
0
 40
0
 40
0
 40
0
 40
1
 40
1
 40
1
 40
1
 10
5223.424875
 20
10739.877514
 30
0.0
 10
5835.096075
 20
10739.877514
 30
0.0
 10
6446.767275
 20
10739.877514
 30
0.0
 10
7058.438475
 20
10739.877514
 30
0.0
  0
SPLINE
  5
121
100
AcDbEntity
  8
PLASMA
 62
7
100
AcDbSpline
 70
8
 71
3
 72
8
 73
4
 74
0
 40
0
 40
0
 40
0
 40
0
 40
1
 40
1
 40
1
 40
1
 10
5223.424875
 20
9558.728014
 30
0.0
 10
5441.379675
 20
9558.728014
 30
0.0
 10
5659.334475
 20
9558.728014
 30
0.0
 10
5877.289275
 20
9558.728014
 30
0.0
  0
SPLINE
  5
122
100
AcDbEntity
  8
PLASMA
 62
7
100
AcDbSpline
 70
8
 71
3
 72
8
 73
4
 74
0
 40
0
 40
0
 40
0
 40
0
 40
1
 40
1
 40
1
 40
1
 10
5877.289275
 20
9558.728014
 30
0.0
 10
5877.289275
 20
8329.928164
 30
0.0
 10
5877.289275
 20
7101.128164
 30
0.0
 10
5877.289275
 20
5872.328164
 30
0.0
  0
SPLINE
  5
123
100
AcDbEntity
  8
PLASMA
 62
7
100
AcDbSpline
 70
8
 71
3
 72
8
 73
4
 74
0
 40
0
 40
0
 40
0
 40
0
 40
1
 40
1
 40
1
 40
1
 10
7058.438475
 20
10739.877514
 30
0.0
 10
7058.438475
 20
9511.077514
 30
0.0
 10
7058.438475
 20
8282.277364
 30
0.0
 10
7058.438475
 20
7053.477364
 30
0.0
  0
SPLINE
  5
124
100
AcDbEntity
  8
PLASMA
 62
7
100
AcDbSpline
 70
8
 71
3
 72
8
 73
4
 74
0
 40
0
 40
0
 40
0
 40
0
 40
1
 40
1
 40
1
 40
1
 10
4034.089275
 20
7515.972964
 30
0.0
 10
4034.089275
 20
7331.760964
 30
0.0
 10
4034.089275
 20
7147.548964
 30
0.0
 10
4034.089275
 20
6963.336964
 30
0.0
  0
SPLINE
  5
125
100
AcDbEntity
  8
PLASMA
 62
7
100
AcDbSpline
 70
8
 71
3
 72
8
 73
4
 74
0
 40
0
 40
0
 40
0
 40
0
 40
1
 40
1
 40
1
 40
1
 10
5215.238475
 20
7515.972964
 30
0.0
 10
5215.238475
 20
7331.760964
 30
0.0
 10
5215.238475
 20
7147.548964
 30
0.0
 10
5215.238475
 20
6963.336964
 30
0.0
  0
SPLINE
  5
126
100
AcDbEntity
  8
PLASMA
 62
7
100
AcDbSpline
 70
8
 71
3
 72
8
 73
4
 74
0
 40
0
 40
0
 40
0
 40
0
 40
1
 40
1
 40
1
 40
1
 10
7058.438475
 20
7053.477364
 30
0.0
 10
8287.238250
 20
7053.477364
 30
0.0
 10
9516.038250
 20
7053.477364
 30
0.0
 10
10744.838250
 20
7053.477364
 30
0.0
  0
SPLINE
  5
127
100
AcDbEntity
  8
PLASMA
 62
7
100
AcDbSpline
 70
8
 71
3
 72
8
 73
4
 74
0
 40
0
 40
0
 40
0
 40
0
 40
1
 40
1
 40
1
 40
1
 10
5877.289275
 20
5872.328164
 30
0.0
 10
7106.089275
 20
5872.328164
 30
0.0
 10
8334.889500
 20
5872.328164
 30
0.0
 10
9563.689500
 20
5872.328164
 30
0.0
  0
SPLINE
  5
128
100
AcDbEntity
  8
PLASMA
 62
7
100
AcDbSpline
 70
8
 71
3
 72
8
 73
4
 74
0
 40
0
 40
0
 40
0
 40
0
 40
1
 40
1
 40
1
 40
1
 10
9563.689500
 20
5872.328164
 30
0.0
 10
9563.689500
 20
5689.479364
 30
0.0
 10
9563.689500
 20
5506.630564
 30
0.0
 10
9563.689500
 20
5323.781764
 30
0.0
  0
SPLINE
  5
129
100
AcDbEntity
  8
PLASMA
 62
7
100
AcDbSpline
 70
8
 71
3
 72
8
 73
4
 74
0
 40
0
 40
0
 40
0
 40
0
 40
1
 40
1
 40
1
 40
1
 10
10744.838250
 20
7053.477364
 30
0.0
 10
10744.838250
 20
6476.912164
 30
0.0
 10
10744.838250
 20
5900.346964
 30
0.0
 10
10744.838250
 20
5323.781764
 30
0.0
  0
SPLINE
  5
12a
100
AcDbEntity
  8
PLASMA
 62
7
100
AcDbSpline
 70
8
 71
3
 72
8
 73
4
 74
0
 40
0
 40
0
 40
0
 40
0
 40
1
 40
1
 40
1
 40
1
 10
7270.273275
 20
5210.277364
 30
0.0
 10
7408.132875
 20
5210.277364
 30
0.0
 10
7545.992250
 20
5210.277364
 30
0.0
 10
7683.852000
 20
5210.277364
 30
0.0
  0
SPLINE
  5
12b
100
AcDbEntity
  8
PLASMA
 62
7
100
AcDbSpline
 70
8
 71
3
 72
8
 73
4
 74
0
 40
0
 40
0
 40
0
 40
0
 40
1
 40
1
 40
1
 40
1
 10
7270.273275
 20
4029.128164
 30
0.0
 10
7408.132875
 20
4029.128164
 30
0.0
 10
7545.992250
 20
4029.128164
 30
0.0
 10
7683.852000
 20
4029.128164
 30
0.0
  0
SPLINE
  5
12c
100
AcDbEntity
  8
PLASMA
 62
7
100
AcDbSpline
 70
8
 71
3
 72
8
 73
4
 74
0
 40
0
 40
0
 40
0
 40
0
 40
1
 40
1
 40
1
 40
1
 10
9563.689500
 20
2190.021364
 30
0.0
 10
9563.689500
 20
2005.808164
 30
0.0
 10
9563.689500
 20
1821.594964
 30
0.0
 10
9563.689500
 20
1637.381764
 30
0.0
  0
SPLINE
  5
12d
100
AcDbEntity
  8
PLASMA
 62
7
100
AcDbSpline
 70
8
 71
3
 72
8
 73
4
 74
0
 40
0
 40
0
 40
0
 40
0
 40
1
 40
1
 40
1
 40
1
 10
10744.838250
 20
2190.021364
 30
0.0
 10
10744.838250
 20
2005.808164
 30
0.0
 10
10744.838250
 20
1821.594964
 30
0.0
 10
10744.838250
 20
1637.381764
 30
0.0
  0
SPLINE
  5
12e
100
AcDbEntity
  8
PLASMA
 62
7
100
AcDbSpline
 70
8
 71
3
 72
8
 73
4
 74
0
 40
0
 40
0
 40
0
 40
0
 40
1
 40
1
 40
1
 40
1
 10
2162.438475
 20
346.821356
 30
0.0
 10
2162.438475
 20
162.608156
 30
0.0
 10
2162.438475
 20
-21.605036
 30
0.0
 10
2162.438475
 20
-205.818236
 30
0.0
  0
SPLINE
  5
12f
100
AcDbEntity
  8
PLASMA
 62
7
100
AcDbSpline
 70
8
 71
3
 72
8
 73
4
 74
0
 40
0
 40
0
 40
0
 40
0
 40
1
 40
1
 40
1
 40
1
 10
3343.591275
 20
346.821356
 30
0.0
 10
3343.591275
 20
162.608156
 30
0.0
 10
3343.591275
 20
-21.605036
 30
0.0
 10
3343.591275
 20
-205.818236
 30
0.0
  0
SPLINE
  5
130
100
AcDbEntity
  8
PLASMA
 62
7
100
AcDbSpline
 70
8
 71
3
 72
8
 73
4
 74
0
 40
0
 40
0
 40
0
 40
0
 40
1
 40
1
 40
1
 40
1
 10
-445.232287
 20
3338.630164
 30
0.0
 10
-214.666688
 20
3338.630164
 30
0.0
 10
15.898909
 20
3338.630164
 30
0.0
 10
246.464512
 20
3338.630164
 30
0.0
  0
SPLINE
  5
131
100
AcDbEntity
  8
PLASMA
 62
7
100
AcDbSpline
 70
8
 71
3
 72
8
 73
4
 74
0
 40
0
 40
0
 40
0
 40
0
 40
1
 40
1
 40
1
 40
1
 10
-445.232287
 20
2157.477364
 30
0.0
 10
-214.666688
 20
2157.477364
 30
0.0
 10
15.898909
 20
2157.477364
 30
0.0
 10
246.464512
 20
2157.477364
 30
0.0
  0
SPLINE
  5
132
100
AcDbEntity
  8
PLASMA
 62
7
100
AcDbSpline
 70
8
 71
3
 72
8
 73
4
 74
0
 40
0
 40
0
 40
0
 40
0
 40
1
 40
1
 40
1
 40
1
 10
-3338.710725
 20
143.172956
 30
0.0
 10
-3338.710725
 20
-41.039036
 30
0.0
 10
-3338.710725
 20
-225.251036
 30
0.0
 10
-3338.710725
 20
-409.463036
 30
0.0
  0
SPLINE
  5
133
100
AcDbEntity
  8
PLASMA
 62
7
100
AcDbSpline
 70
8
 71
3
 72
8
 73
4
 74
0
 40
0
 40
0
 40
0
 40
0
 40
1
 40
1
 40
1
 40
1
 10
-2157.561525
 20
143.172956
 30
0.0
 10
-2157.561525
 20
-41.039036
 30
0.0
 10
-2157.561525
 20
-225.251036
 30
0.0
 10
-2157.561525
 20
-409.463036
 30
0.0
  0
SPLINE
  5
134
100
AcDbEntity
  8
PLASMA
 62
7
100
AcDbSpline
 70
8
 71
3
 72
8
 73
4
 74
0
 40
0
 40
0
 40
0
 40
0
 40
1
 40
1
 40
1
 40
1
 10
-102.526687
 20
-2162.522636
 30
0.0
 10
35.332909
 20
-2162.522636
 30
0.0
 10
173.192513
 20
-2162.522636
 30
0.0
 10
311.052113
 20
-2162.522636
 30
0.0
  0
SPLINE
  5
135
100
AcDbEntity
  8
PLASMA
 62
7
100
AcDbSpline
 70
8
 71
3
 72
8
 73
4
 74
0
 40
0
 40
0
 40
0
 40
0
 40
1
 40
1
 40
1
 40
1
 10
-102.526687
 20
-3343.671836
 30
0.0
 10
35.332909
 20
-3343.671836
 30
0.0
 10
173.192513
 20
-3343.671836
 30
0.0
 10
311.052113
 20
-3343.671836
 30
0.0
  0
SPLINE
  5
136
100
AcDbEntity
  8
PLASMA
 62
7
100
AcDbSpline
 70
8
 71
3
 72
8
 73
4
 74
0
 40
0
 40
0
 40
0
 40
0
 40
1
 40
1
 40
1
 40
1
 10
-10739.961750
 20
1986.372964
 30
0.0
 10
-10739.961750
 20
1802.160964
 30
0.0
 10
-10739.961750
 20
1617.948964
 30
0.0
 10
-10739.961750
 20
1433.736956
 30
0.0
  0
SPLINE
  5
137
100
AcDbEntity
  8
PLASMA
 62
7
100
AcDbSpline
 70
8
 71
3
 72
8
 73
4
 74
0
 40
0
 40
0
 40
0
 40
0
 40
1
 40
1
 40
1
 40
1
 10
-9558.808500
 20
1986.372964
 30
0.0
 10
-9558.808500
 20
1802.160964
 30
0.0
 10
-9558.808500
 20
1617.948964
 30
0.0
 10
-9558.808500
 20
1433.736956
 30
0.0
  0
SPLINE
  5
138
100
AcDbEntity
  8
PLASMA
 62
7
100
AcDbSpline
 70
8
 71
3
 72
8
 73
4
 74
0
 40
0
 40
0
 40
0
 40
0
 40
1
 40
1
 40
1
 40
1
 10
-10739.961750
 20
-1700.027036
 30
0.0
 10
-10739.961750
 20
-1884.239036
 30
0.0
 10
-10739.961750
 20
-2068.451036
 30
0.0
 10
-10739.961750
 20
-2252.663036
 30
0.0
  0
SPLINE
  5
139
100
AcDbEntity
  8
PLASMA
 62
7
100
AcDbSpline
 70
8
 71
3
 72
8
 73
4
 74
0
 40
0
 40
0
 40
0
 40
0
 40
1
 40
1
 40
1
 40
1
 10
-9558.808500
 20
-1700.027036
 30
0.0
 10
-9558.808500
 20
-1884.239036
 30
0.0
 10
-9558.808500
 20
-2068.451036
 30
0.0
 10
-9558.808500
 20
-2252.663036
 30
0.0
  0
SPLINE
  5
13a
100
AcDbEntity
  8
PLASMA
 62
7
100
AcDbSpline
 70
8
 71
3
 72
8
 73
4
 74
0
 40
0
 40
0
 40
0
 40
0
 40
1
 40
1
 40
1
 40
1
 10
-10739.961750
 20
-5386.427036
 30
0.0
 10
-10739.961750
 20
-5943.792236
 30
0.0
 10
-10739.961750
 20
-6501.157436
 30
0.0
 10
-10739.961750
 20
-7058.522486
 30
0.0
  0
SPLINE
  5
13b
100
AcDbEntity
  8
PLASMA
 62
7
100
AcDbSpline
 70
8
 71
3
 72
8
 73
4
 74
0
 40
0
 40
0
 40
0
 40
0
 40
1
 40
1
 40
1
 40
1
 10
-9558.808500
 20
-5386.427036
 30
0.0
 10
-9558.808500
 20
-5550.074636
 30
0.0
 10
-9558.808500
 20
-5713.722236
 30
0.0
 10
-9558.808500
 20
-5877.369836
 30
0.0
  0
SPLINE
  5
13c
100
AcDbEntity
  8
PLASMA
 62
7
100
AcDbSpline
 70
8
 71
3
 72
8
 73
4
 74
0
 40
0
 40
0
 40
0
 40
0
 40
1
 40
1
 40
1
 40
1
 10
-9558.808500
 20
-5877.369836
 30
0.0
 10
-8330.008500
 20
-5877.369836
 30
0.0
 10
-7101.208725
 20
-5877.369836
 30
0.0
 10
-5872.408725
 20
-5877.369836
 30
0.0
  0
SPLINE
  5
13d
100
AcDbEntity
  8
PLASMA
 62
7
100
AcDbSpline
 70
8
 71
3
 72
8
 73
4
 74
0
 40
0
 40
0
 40
0
 40
0
 40
1
 40
1
 40
1
 40
1
 10
-10739.961750
 20
-7058.522486
 30
0.0
 10
-9511.161750
 20
-7058.522486
 30
0.0
 10
-8282.361750
 20
-7058.522486
 30
0.0
 10
-7053.561525
 20
-7058.522486
 30
0.0
  0
SPLINE
  5
13e
100
AcDbEntity
  8
PLASMA
 62
7
100
AcDbSpline
 70
8
 71
3
 72
8
 73
4
 74
0
 40
0
 40
0
 40
0
 40
0
 40
1
 40
1
 40
1
 40
1
 10
-7053.561525
 20
-7058.522486
 30
0.0
 10
-7053.561525
 20
-8287.322486
 30
0.0
 10
-7053.561525
 20
-9516.122486
 30
0.0
 10
-7053.561525
 20
-10744.922486
 30
0.0
  0
SPLINE
  5
13f
100
AcDbEntity
  8
PLASMA
 62
7
100
AcDbSpline
 70
8
 71
3
 72
8
 73
4
 74
0
 40
0
 40
0
 40
0
 40
0
 40
1
 40
1
 40
1
 40
1
 10
-5872.408725
 20
-5877.369836
 30
0.0
 10
-5872.408725
 20
-7106.169986
 30
0.0
 10
-5872.408725
 20
-8334.969986
 30
0.0
 10
-5872.408725
 20
-9563.769986
 30
0.0
  0
SPLINE
  5
140
100
AcDbEntity
  8
PLASMA
 62
7
100
AcDbSpline
 70
8
 71
3
 72
8
 73
4
 74
0
 40
0
 40
0
 40
0
 40
0
 40
1
 40
1
 40
1
 40
1
 10
-5872.408725
 20
-9563.769986
 30
0.0
 10
-5608.101525
 20
-9563.769986
 30
0.0
 10
-5343.794325
 20
-9563.769986
 30
0.0
 10
-5079.487125
 20
-9563.769986
 30
0.0
  0
SPLINE
  5
141
100
AcDbEntity
  8
PLASMA
 62
7
100
AcDbSpline
 70
8
 71
3
 72
8
 73
4
 74
0
 40
0
 40
0
 40
0
 40
0
 40
1
 40
1
 40
1
 40
1
 10
-7053.561525
 20
-10744.922486
 30
0.0
 10
-6395.536725
 20
-10744.922486
 30
0.0
 10
-5737.511925
 20
-10744.922486
 30
0.0
 10
-5079.487125
 20
-10744.922486
 30
0.0
  0
SPLINE
  5
142
100
AcDbEntity
  8
PLASMA
 62
7
100
AcDbSpline
 70
8
 71
3
 72
8
 73
4
 74
0
 40
0
 40
0
 40
0
 40
0
 40
1
 40
1
 40
1
 40
1
 10
-5210.361525
 20
-7025.978486
 30
0.0
 10
-5210.361525
 20
-7210.191986
 30
0.0
 10
-5210.361525
 20
-7394.404736
 30
0.0
 10
-5210.361525
 20
-7578.618236
 30
0.0
  0
SPLINE
  5
143
100
AcDbEntity
  8
PLASMA
 62
7
100
AcDbSpline
 70
8
 71
3
 72
8
 73
4
 74
0
 40
0
 40
0
 40
0
 40
0
 40
1
 40
1
 40
1
 40
1
 10
-4029.208725
 20
-7025.978486
 30
0.0
 10
-4029.208725
 20
-7210.191986
 30
0.0
 10
-4029.208725
 20
-7394.404736
 30
0.0
 10
-4029.208725
 20
-7578.618236
 30
0.0
  0
SPLINE
  5
144
100
AcDbEntity
  8
PLASMA
 62
7
100
AcDbSpline
 70
8
 71
3
 72
8
 73
4
 74
0
 40
0
 40
0
 40
0
 40
0
 40
1
 40
1
 40
1
 40
1
 10
-2084.783925
 20
-9563.769986
 30
0.0
 10
-1854.218325
 20
-9563.769986
 30
0.0
 10
-1623.652725
 20
-9563.769986
 30
0.0
 10
-1393.087125
 20
-9563.769986
 30
0.0
  0
SPLINE
  5
145
100
AcDbEntity
  8
PLASMA
 62
7
100
AcDbSpline
 70
8
 71
3
 72
8
 73
4
 74
0
 40
0
 40
0
 40
0
 40
0
 40
1
 40
1
 40
1
 40
1
 10
-2084.783925
 20
-10744.922486
 30
0.0
 10
-1854.218325
 20
-10744.922486
 30
0.0
 10
-1623.652725
 20
-10744.922486
 30
0.0
 10
-1393.087125
 20
-10744.922486
 30
0.0
  0
SPLINE
  5
146
100
AcDbEntity
  8
PLASMA
 62
7
100
AcDbSpline
 70
8
 71
3
 72
8
 73
4
 74
0
 40
0
 40
0
 40
0
 40
0
 40
1
 40
1
 40
1
 40
1
 10
-7818.032250
 20
-4034.169836
 30
0.0
 10
-7587.466500
 20
-4034.169836
 30
0.0
 10
-7356.901125
 20
-4034.169836
 30
0.0
 10
-7126.335525
 20
-4034.169836
 30
0.0
  0
SPLINE
  5
147
100
AcDbEntity
  8
PLASMA
 62
7
100
AcDbSpline
 70
8
 71
3
 72
8
 73
4
 74
0
 40
0
 40
0
 40
0
 40
0
 40
1
 40
1
 40
1
 40
1
 10
-7818.032250
 20
-5215.322636
 30
0.0
 10
-7587.466500
 20
-5215.322636
 30
0.0
 10
-7356.901125
 20
-5215.322636
 30
0.0
 10
-7126.335525
 20
-5215.322636
 30
0.0
  0
SPLINE
  5
148
100
AcDbEntity
  8
PLASMA
 62
7
100
AcDbSpline
 70
8
 71
3
 72
8
 73
4
 74
0
 40
0
 40
0
 40
0
 40
0
 40
1
 40
1
 40
1
 40
1
 10
1601.616075
 20
-9563.769986
 30
0.0
 10
1832.181675
 20
-9563.769986
 30
0.0
 10
2062.747275
 20
-9563.769986
 30
0.0
 10
2293.312875
 20
-9563.769986
 30
0.0
  0
SPLINE
  5
149
100
AcDbEntity
  8
PLASMA
 62
7
100
AcDbSpline
 70
8
 71
3
 72
8
 73
4
 74
0
 40
0
 40
0
 40
0
 40
0
 40
1
 40
1
 40
1
 40
1
 10
1601.616075
 20
-10744.922486
 30
0.0
 10
1832.181675
 20
-10744.922486
 30
0.0
 10
2062.747275
 20
-10744.922486
 30
0.0
 10
2293.312875
 20
-10744.922486
 30
0.0
  0
SPLINE
  5
14a
100
AcDbEntity
  8
PLASMA
 62
7
100
AcDbSpline
 70
8
 71
3
 72
8
 73
4
 74
0
 40
0
 40
0
 40
0
 40
0
 40
1
 40
1
 40
1
 40
1
 10
4034.089275
 20
-7229.626736
 30
0.0
 10
4034.089275
 20
-7413.838736
 30
0.0
 10
4034.089275
 20
-7598.050736
 30
0.0
 10
4034.089275
 20
-7782.262736
 30
0.0
  0
SPLINE
  5
14b
100
AcDbEntity
  8
PLASMA
 62
7
100
AcDbSpline
 70
8
 71
3
 72
8
 73
4
 74
0
 40
0
 40
0
 40
0
 40
0
 40
1
 40
1
 40
1
 40
1
 10
5215.238475
 20
-7229.626736
 30
0.0
 10
5215.238475
 20
-7413.838736
 30
0.0
 10
5215.238475
 20
-7598.050736
 30
0.0
 10
5215.238475
 20
-7782.262736
 30
0.0
  0
SPLINE
  5
14c
100
AcDbEntity
  8
PLASMA
 62
7
100
AcDbSpline
 70
8
 71
3
 72
8
 73
4
 74
0
 40
0
 40
0
 40
0
 40
0
 40
1
 40
1
 40
1
 40
1
 10
5288.016075
 20
-9563.769986
 30
0.0
 10
5484.440475
 20
-9563.769986
 30
0.0
 10
5680.864875
 20
-9563.769986
 30
0.0
 10
5877.289275
 20
-9563.769986
 30
0.0
  0
SPLINE
  5
14d
100
AcDbEntity
  8
PLASMA
 62
7
100
AcDbSpline
 70
8
 71
3
 72
8
 73
4
 74
0
 40
0
 40
0
 40
0
 40
0
 40
1
 40
1
 40
1
 40
1
 10
5288.016075
 20
-10744.922486
 30
0.0
 10
5878.156875
 20
-10744.922486
 30
0.0
 10
6468.297675
 20
-10744.922486
 30
0.0
 10
7058.438475
 20
-10744.922486
 30
0.0
  0
SPLINE
  5
14e
100
AcDbEntity
  8
PLASMA
 62
7
100
AcDbSpline
 70
8
 71
3
 72
8
 73
4
 74
0
 40
0
 40
0
 40
0
 40
0
 40
1
 40
1
 40
1
 40
1
 10
5877.289275
 20
-5877.369836
 30
0.0
 10
5877.289275
 20
-7106.169986
 30
0.0
 10
5877.289275
 20
-8334.969986
 30
0.0
 10
5877.289275
 20
-9563.769986
 30
0.0
  0
SPLINE
  5
14f
100
AcDbEntity
  8
PLASMA
 62
7
100
AcDbSpline
 70
8
 71
3
 72
8
 73
4
 74
0
 40
0
 40
0
 40
0
 40
0
 40
1
 40
1
 40
1
 40
1
 10
7058.438475
 20
-7058.522486
 30
0.0
 10
7058.438475
 20
-8287.322486
 30
0.0
 10
7058.438475
 20
-9516.122486
 30
0.0
 10
7058.438475
 20
-10744.922486
 30
0.0
  0
SPLINE
  5
150
100
AcDbEntity
  8
PLASMA
 62
7
100
AcDbSpline
 70
8
 71
3
 72
8
 73
4
 74
0
 40
0
 40
0
 40
0
 40
0
 40
1
 40
1
 40
1
 40
1
 10
5877.289275
 20
-5877.369836
 30
0.0
 10
7106.089275
 20
-5877.369836
 30
0.0
 10
8334.889500
 20
-5877.369836
 30
0.0
 10
9563.689500
 20
-5877.369836
 30
0.0
  0
SPLINE
  5
151
100
AcDbEntity
  8
PLASMA
 62
7
100
AcDbSpline
 70
8
 71
3
 72
8
 73
4
 74
0
 40
0
 40
0
 40
0
 40
0
 40
1
 40
1
 40
1
 40
1
 10
7058.438475
 20
-7058.522486
 30
0.0
 10
8287.238250
 20
-7058.522486
 30
0.0
 10
9516.038250
 20
-7058.522486
 30
0.0
 10
10744.838250
 20
-7058.522486
 30
0.0
  0
SPLINE
  5
152
100
AcDbEntity
  8
PLASMA
 62
7
100
AcDbSpline
 70
8
 71
3
 72
8
 73
4
 74
0
 40
0
 40
0
 40
0
 40
0
 40
1
 40
1
 40
1
 40
1
 10
9563.689500
 20
-5182.778636
 30
0.0
 10
9563.689500
 20
-5414.309036
 30
0.0
 10
9563.689500
 20
-5645.839436
 30
0.0
 10
9563.689500
 20
-5877.369836
 30
0.0
  0
SPLINE
  5
153
100
AcDbEntity
  8
PLASMA
 62
7
100
AcDbSpline
 70
8
 71
3
 72
8
 73
4
 74
0
 40
0
 40
0
 40
0
 40
0
 40
1
 40
1
 40
1
 40
1
 10
10744.838250
 20
-5182.778636
 30
0.0
 10
10744.838250
 20
-5808.026636
 30
0.0
 10
10744.838250
 20
-6433.274636
 30
0.0
 10
10744.838250
 20
-7058.522486
 30
0.0
  0
SPLINE
  5
154
100
AcDbEntity
  8
PLASMA
 62
7
100
AcDbSpline
 70
8
 71
3
 72
8
 73
4
 74
0
 40
0
 40
0
 40
0
 40
0
 40
1
 40
1
 40
1
 40
1
 10
6927.567675
 20
-4034.169836
 30
0.0
 10
7158.133275
 20
-4034.169836
 30
0.0
 10
7388.698875
 20
-4034.169836
 30
0.0
 10
7619.264250
 20
-4034.169836
 30
0.0
  0
SPLINE
  5
155
100
AcDbEntity
  8
PLASMA
 62
7
100
AcDbSpline
 70
8
 71
3
 72
8
 73
4
 74
0
 40
0
 40
0
 40
0
 40
0
 40
1
 40
1
 40
1
 40
1
 10
6927.567675
 20
-5215.322636
 30
0.0
 10
7158.133275
 20
-5215.322636
 30
0.0
 10
7388.698875
 20
-5215.322636
 30
0.0
 10
7619.264250
 20
-5215.322636
 30
0.0
  0
SPLINE
  5
156
100
AcDbEntity
  8
PLASMA
 62
7
100
AcDbSpline
 70
8
 71
3
 72
8
 73
4
 74
0
 40
0
 40
0
 40
0
 40
0
 40
1
 40
1
 40
1
 40
1
 10
9563.689500
 20
-1496.378636
 30
0.0
 10
9563.689500
 20
-1680.591836
 30
0.0
 10
9563.689500
 20
-1864.805036
 30
0.0
 10
9563.689500
 20
-2049.018236
 30
0.0
  0
SPLINE
  5
157
100
AcDbEntity
  8
PLASMA
 62
7
100
AcDbSpline
 70
8
 71
3
 72
8
 73
4
 74
0
 40
0
 40
0
 40
0
 40
0
 40
1
 40
1
 40
1
 40
1
 10
10744.838250
 20
-1496.378636
 30
0.0
 10
10744.838250
 20
-1680.591836
 30
0.0
 10
10744.838250
 20
-1864.805036
 30
0.0
 10
10744.838250
 20
-2049.018236
 30
0.0
  0
SPLINE
  5
158
100
AcDbEntity
  8
PLASMA
 62
7
100
AcDbSpline
 70
8
 71
3
 72
8
 73
4
 74
0
 40
0
 40
0
 40
0
 40
0
 40
1
 40
1
 40
1
 40
1
 10
-1984.761525
 20
8320.677364
 30
0.0
 10
-2263.161525
 20
8042.277364
 30
0.0
 10
-2541.561525
 20
7763.877364
 30
0.0
 10
-2819.961525
 20
7485.477364
 30
0.0
  0
SPLINE
  5
159
100
AcDbEntity
  8
PLASMA
 62
7
100
AcDbSpline
 70
8
 71
3
 72
8
 73
4
 74
0
 40
0
 40
0
 40
0
 40
0
 40
1
 40
1
 40
1
 40
1
 10
-4519.161525
 20
9184.677514
 30
0.0
 10
-3952.761525
 20
8618.277514
 30
0.0
 10
-3386.361525
 20
8051.877364
 30
0.0
 10
-2819.961525
 20
7485.477364
 30
0.0
  0
SPLINE
  5
15a
100
AcDbEntity
  8
PLASMA
 62
7
100
AcDbSpline
 70
8
 71
3
 72
8
 73
4
 74
0
 40
0
 40
0
 40
0
 40
0
 40
1
 40
1
 40
1
 40
1
 10
-4663.161525
 20
9040.677514
 30
0.0
 10
-4384.761525
 20
8762.277514
 30
0.0
 10
-4106.361525
 20
8483.877514
 30
0.0
 10
-3827.961525
 20
8205.477364
 30
0.0
  0
SPLINE
  5
15b
100
AcDbEntity
  8
PLASMA
 62
7
100
AcDbSpline
 70
8
 71
3
 72
8
 73
4
 74
0
 40
0
 40
0
 40
0
 40
0
 40
1
 40
1
 40
1
 40
1
 10
-3539.961525
 20
10163.877514
 30
0.0
 10
-3261.561525
 20
9885.477514
 30
0.0
 10
-2983.161525
 20
9607.077514
 30
0.0
 10
-2704.761525
 20
9328.677514
 30
0.0
  0
SPLINE
  5
15c
100
AcDbEntity
  8
PLASMA
 62
7
100
AcDbSpline
 70
8
 71
3
 72
8
 73
4
 74
0
 40
0
 40
0
 40
0
 40
0
 40
1
 40
1
 40
1
 40
1
 10
2.438509
 20
10019.877514
 30
0.0
 10
568.838512
 20
9453.477514
 30
0.0
 10
1135.238475
 20
8887.077514
 30
0.0
 10
1701.638475
 20
8320.677364
 30
0.0
  0
SPLINE
  5
15d
100
AcDbEntity
  8
PLASMA
 62
7
100
AcDbSpline
 70
8
 71
3
 72
8
 73
4
 74
0
 40
0
 40
0
 40
0
 40
0
 40
1
 40
1
 40
1
 40
1
 10
1701.638475
 20
8320.677364
 30
0.0
 10
1423.238475
 20
8042.277364
 30
0.0
 10
1144.838475
 20
7763.877364
 30
0.0
 10
866.438475
 20
7485.477364
 30
0.0
  0
SPLINE
  5
15e
100
AcDbEntity
  8
PLASMA
 62
7
100
AcDbSpline
 70
8
 71
3
 72
8
 73
4
 74
0
 40
0
 40
0
 40
0
 40
0
 40
1
 40
1
 40
1
 40
1
 10
-832.761525
 20
9184.677514
 30
0.0
 10
-266.361487
 20
8618.277514
 30
0.0
 10
300.038512
 20
8051.877364
 30
0.0
 10
866.438475
 20
7485.477364
 30
0.0
  0
SPLINE
  5
15f
100
AcDbEntity
  8
PLASMA
 62
7
100
AcDbSpline
 70
8
 71
3
 72
8
 73
4
 74
0
 40
0
 40
0
 40
0
 40
0
 40
1
 40
1
 40
1
 40
1
 10
-3539.961525
 20
6477.477364
 30
0.0
 10
-2685.561525
 20
7331.877364
 30
0.0
 10
-1831.161525
 20
8186.277364
 30
0.0
 10
-976.761525
 20
9040.677514
 30
0.0
  0
SPLINE
  5
160
100
AcDbEntity
  8
PLASMA
 62
7
100
AcDbSpline
 70
8
 71
3
 72
8
 73
4
 74
0
 40
0
 40
0
 40
0
 40
0
 40
1
 40
1
 40
1
 40
1
 10
-3539.961525
 20
6477.477364
 30
0.0
 10
-3261.561525
 20
6199.077364
 30
0.0
 10
-2983.161525
 20
5920.677364
 30
0.0
 10
-2704.761525
 20
5642.277364
 30
0.0
  0
SPLINE
  5
161
100
AcDbEntity
  8
PLASMA
 62
7
100
AcDbSpline
 70
8
 71
3
 72
8
 73
4
 74
0
 40
0
 40
0
 40
0
 40
0
 40
1
 40
1
 40
1
 40
1
 10
-976.761525
 20
9040.677514
 30
0.0
 10
-698.361488
 20
8762.277514
 30
0.0
 10
-419.961488
 20
8483.877514
 30
0.0
 10
-141.561487
 20
8205.477364
 30
0.0
  0
SPLINE
  5
162
100
AcDbEntity
  8
PLASMA
 62
7
100
AcDbSpline
 70
8
 71
3
 72
8
 73
4
 74
0
 40
0
 40
0
 40
0
 40
0
 40
1
 40
1
 40
1
 40
1
 10
-2704.761525
 20
5642.277364
 30
0.0
 10
-1850.361525
 20
6496.677364
 30
0.0
 10
-995.961525
 20
7351.077364
 30
0.0
 10
-141.561487
 20
8205.477364
 30
0.0
  0
SPLINE
  5
163
100
AcDbEntity
  8
PLASMA
 62
7
100
AcDbSpline
 70
8
 71
3
 72
8
 73
4
 74
0
 40
0
 40
0
 40
0
 40
0
 40
1
 40
1
 40
1
 40
1
 10
146.438513
 20
10163.877514
 30
0.0
 10
424.838513
 20
9885.477514
 30
0.0
 10
703.238512
 20
9607.077514
 30
0.0
 10
981.638475
 20
9328.677514
 30
0.0
  0
SPLINE
  5
164
100
AcDbEntity
  8
PLASMA
 62
7
100
AcDbSpline
 70
8
 71
3
 72
8
 73
4
 74
0
 40
0
 40
0
 40
0
 40
0
 40
1
 40
1
 40
1
 40
1
 10
3688.838475
 20
10019.877514
 30
0.0
 10
3967.238475
 20
9741.477514
 30
0.0
 10
4245.638475
 20
9463.077514
 30
0.0
 10
4524.038475
 20
9184.677514
 30
0.0
  0
SPLINE
  5
165
100
AcDbEntity
  8
PLASMA
 62
7
100
AcDbSpline
 70
8
 71
3
 72
8
 73
4
 74
0
 40
0
 40
0
 40
0
 40
0
 40
1
 40
1
 40
1
 40
1
 10
2853.638475
 20
9184.677514
 30
0.0
 10
3132.038475
 20
8906.277514
 30
0.0
 10
3410.438475
 20
8627.877514
 30
0.0
 10
3688.838475
 20
8349.477514
 30
0.0
  0
SPLINE
  5
166
100
AcDbEntity
  8
PLASMA
 62
7
100
AcDbSpline
 70
8
 71
3
 72
8
 73
4
 74
0
 40
0
 40
0
 40
0
 40
0
 40
1
 40
1
 40
1
 40
1
 10
146.438513
 20
6477.477364
 30
0.0
 10
1000.838475
 20
7331.877364
 30
0.0
 10
1855.238475
 20
8186.277364
 30
0.0
 10
2709.638475
 20
9040.677514
 30
0.0
  0
SPLINE
  5
167
100
AcDbEntity
  8
PLASMA
 62
7
100
AcDbSpline
 70
8
 71
3
 72
8
 73
4
 74
0
 40
0
 40
0
 40
0
 40
0
 40
1
 40
1
 40
1
 40
1
 10
146.438513
 20
6477.477364
 30
0.0
 10
424.838513
 20
6199.077364
 30
0.0
 10
703.238512
 20
5920.677364
 30
0.0
 10
981.638475
 20
5642.277364
 30
0.0
  0
SPLINE
  5
168
100
AcDbEntity
  8
PLASMA
 62
7
100
AcDbSpline
 70
8
 71
3
 72
8
 73
4
 74
0
 40
0
 40
0
 40
0
 40
0
 40
1
 40
1
 40
1
 40
1
 10
2709.638475
 20
9040.677514
 30
0.0
 10
2988.038475
 20
8762.277514
 30
0.0
 10
3266.438475
 20
8483.877514
 30
0.0
 10
3544.838475
 20
8205.477364
 30
0.0
  0
SPLINE
  5
169
100
AcDbEntity
  8
PLASMA
 62
7
100
AcDbSpline
 70
8
 71
3
 72
8
 73
4
 74
0
 40
0
 40
0
 40
0
 40
0
 40
1
 40
1
 40
1
 40
1
 10
981.638475
 20
5642.277364
 30
0.0
 10
1836.038475
 20
6496.677364
 30
0.0
 10
2690.438475
 20
7351.077364
 30
0.0
 10
3544.838475
 20
8205.477364
 30
0.0
  0
SPLINE
  5
16a
100
AcDbEntity
  8
PLASMA
 62
7
100
AcDbSpline
 70
8
 71
3
 72
8
 73
4
 74
0
 40
0
 40
0
 40
0
 40
0
 40
1
 40
1
 40
1
 40
1
 10
3832.838475
 20
6477.477364
 30
0.0
 10
4111.238475
 20
6199.077364
 30
0.0
 10
4389.638475
 20
5920.677364
 30
0.0
 10
4668.038475
 20
5642.277364
 30
0.0
  0
SPLINE
  5
16b
100
AcDbEntity
  8
PLASMA
 62
7
100
AcDbSpline
 70
8
 71
3
 72
8
 73
4
 74
0
 40
0
 40
0
 40
0
 40
0
 40
1
 40
1
 40
1
 40
1
 10
3832.838475
 20
10163.877514
 30
0.0
 10
4111.238475
 20
9885.477514
 30
0.0
 10
4389.638475
 20
9607.077514
 30
0.0
 10
4668.038475
 20
9328.677514
 30
0.0
  0
SPLINE
  5
16c
100
AcDbEntity
  8
PLASMA
 62
7
100
AcDbSpline
 70
8
 71
3
 72
8
 73
4
 74
0
 40
0
 40
0
 40
0
 40
0
 40
1
 40
1
 40
1
 40
1
 10
-3683.961525
 20
6333.477364
 30
0.0
 10
-3117.561525
 20
5767.077364
 30
0.0
 10
-2551.161525
 20
5200.677364
 30
0.0
 10
-1984.761525
 20
4634.277364
 30
0.0
  0
SPLINE
  5
16d
100
AcDbEntity
  8
PLASMA
 62
7
100
AcDbSpline
 70
8
 71
3
 72
8
 73
4
 74
0
 40
0
 40
0
 40
0
 40
0
 40
1
 40
1
 40
1
 40
1
 10
-1984.761525
 20
4634.277364
 30
0.0
 10
-2263.161525
 20
4355.877364
 30
0.0
 10
-2541.561525
 20
4077.477364
 30
0.0
 10
-2819.961525
 20
3799.077364
 30
0.0
  0
SPLINE
  5
16e
100
AcDbEntity
  8
PLASMA
 62
7
100
AcDbSpline
 70
8
 71
3
 72
8
 73
4
 74
0
 40
0
 40
0
 40
0
 40
0
 40
1
 40
1
 40
1
 40
1
 10
-4519.161525
 20
5498.277364
 30
0.0
 10
-3952.761525
 20
4931.877364
 30
0.0
 10
-3386.361525
 20
4365.477364
 30
0.0
 10
-2819.961525
 20
3799.077364
 30
0.0
  0
SPLINE
  5
16f
100
AcDbEntity
  8
PLASMA
 62
7
100
AcDbSpline
 70
8
 71
3
 72
8
 73
4
 74
0
 40
0
 40
0
 40
0
 40
0
 40
1
 40
1
 40
1
 40
1
 10
-861.561525
 20
7197.477364
 30
0.0
 10
-7.161491
 20
6343.077364
 30
0.0
 10
847.238475
 20
5488.677364
 30
0.0
 10
1701.638475
 20
4634.277364
 30
0.0
  0
SPLINE
  5
170
100
AcDbEntity
  8
PLASMA
 62
7
100
AcDbSpline
 70
8
 71
3
 72
8
 73
4
 74
0
 40
0
 40
0
 40
0
 40
0
 40
1
 40
1
 40
1
 40
1
 10
-861.561525
 20
7197.477364
 30
0.0
 10
-1139.961525
 20
6919.077364
 30
0.0
 10
-1418.361525
 20
6640.677364
 30
0.0
 10
-1696.761525
 20
6362.277364
 30
0.0
  0
SPLINE
  5
171
100
AcDbEntity
  8
PLASMA
 62
7
100
AcDbSpline
 70
8
 71
3
 72
8
 73
4
 74
0
 40
0
 40
0
 40
0
 40
0
 40
1
 40
1
 40
1
 40
1
 10
1701.638475
 20
4634.277364
 30
0.0
 10
1423.238475
 20
4355.877364
 30
0.0
 10
1144.838475
 20
4077.477364
 30
0.0
 10
866.438475
 20
3799.077364
 30
0.0
  0
SPLINE
  5
172
100
AcDbEntity
  8
PLASMA
 62
7
100
AcDbSpline
 70
8
 71
3
 72
8
 73
4
 74
0
 40
0
 40
0
 40
0
 40
0
 40
1
 40
1
 40
1
 40
1
 10
-1696.761525
 20
6362.277364
 30
0.0
 10
-842.361525
 20
5507.877364
 30
0.0
 10
12.038510
 20
4653.477364
 30
0.0
 10
866.438475
 20
3799.077364
 30
0.0
  0
SPLINE
  5
173
100
AcDbEntity
  8
PLASMA
 62
7
100
AcDbSpline
 70
8
 71
3
 72
8
 73
4
 74
0
 40
0
 40
0
 40
0
 40
0
 40
1
 40
1
 40
1
 40
1
 10
-3539.961525
 20
2791.077364
 30
0.0
 10
-2685.561525
 20
3645.477364
 30
0.0
 10
-1831.161525
 20
4499.877364
 30
0.0
 10
-976.761525
 20
5354.277364
 30
0.0
  0
SPLINE
  5
174
100
AcDbEntity
  8
PLASMA
 62
7
100
AcDbSpline
 70
8
 71
3
 72
8
 73
4
 74
0
 40
0
 40
0
 40
0
 40
0
 40
1
 40
1
 40
1
 40
1
 10
-3539.961525
 20
2791.077364
 30
0.0
 10
-3261.561525
 20
2512.677364
 30
0.0
 10
-2983.161525
 20
2234.277364
 30
0.0
 10
-2704.761525
 20
1955.877364
 30
0.0
  0
SPLINE
  5
175
100
AcDbEntity
  8
PLASMA
 62
7
100
AcDbSpline
 70
8
 71
3
 72
8
 73
4
 74
0
 40
0
 40
0
 40
0
 40
0
 40
1
 40
1
 40
1
 40
1
 10
-976.761525
 20
5354.277364
 30
0.0
 10
-698.361488
 20
5075.877364
 30
0.0
 10
-419.961488
 20
4797.477364
 30
0.0
 10
-141.561487
 20
4519.077364
 30
0.0
  0
SPLINE
  5
176
100
AcDbEntity
  8
PLASMA
 62
7
100
AcDbSpline
 70
8
 71
3
 72
8
 73
4
 74
0
 40
0
 40
0
 40
0
 40
0
 40
1
 40
1
 40
1
 40
1
 10
-2704.761525
 20
1955.877364
 30
0.0
 10
-1850.361525
 20
2810.277364
 30
0.0
 10
-995.961525
 20
3664.677364
 30
0.0
 10
-141.561487
 20
4519.077364
 30
0.0
  0
SPLINE
  5
177
100
AcDbEntity
  8
PLASMA
 62
7
100
AcDbSpline
 70
8
 71
3
 72
8
 73
4
 74
0
 40
0
 40
0
 40
0
 40
0
 40
1
 40
1
 40
1
 40
1
 10
-861.561525
 20
3511.077364
 30
0.0
 10
-1139.961525
 20
3232.677364
 30
0.0
 10
-1418.361525
 20
2954.277364
 30
0.0
 10
-1696.761525
 20
2675.877364
 30
0.0
  0
SPLINE
  5
178
100
AcDbEntity
  8
PLASMA
 62
7
100
AcDbSpline
 70
8
 71
3
 72
8
 73
4
 74
0
 40
0
 40
0
 40
0
 40
0
 40
1
 40
1
 40
1
 40
1
 10
3544.838475
 20
4519.077364
 30
0.0
 10
2978.438475
 20
3952.677364
 30
0.0
 10
2412.038475
 20
3386.277364
 30
0.0
 10
1845.638475
 20
2819.877364
 30
0.0
  0
SPLINE
  5
179
100
AcDbEntity
  8
PLASMA
 62
7
100
AcDbSpline
 70
8
 71
3
 72
8
 73
4
 74
0
 40
0
 40
0
 40
0
 40
0
 40
1
 40
1
 40
1
 40
1
 10
3544.838475
 20
4519.077364
 30
0.0
 10
3266.438475
 20
4797.477364
 30
0.0
 10
2988.038475
 20
5075.877364
 30
0.0
 10
2709.638475
 20
5354.277364
 30
0.0
  0
SPLINE
  5
17a
100
AcDbEntity
  8
PLASMA
 62
7
100
AcDbSpline
 70
8
 71
3
 72
8
 73
4
 74
0
 40
0
 40
0
 40
0
 40
0
 40
1
 40
1
 40
1
 40
1
 10
2709.638475
 20
5354.277364
 30
0.0
 10
2143.238475
 20
4787.877364
 30
0.0
 10
1576.838475
 20
4221.477364
 30
0.0
 10
1010.438475
 20
3655.077364
 30
0.0
  0
SPLINE
  5
17b
100
AcDbEntity
  8
PLASMA
 62
7
100
AcDbSpline
 70
8
 71
3
 72
8
 73
4
 74
0
 40
0
 40
0
 40
0
 40
0
 40
1
 40
1
 40
1
 40
1
 10
2824.838475
 20
7197.477364
 30
0.0
 10
3679.238475
 20
6343.077364
 30
0.0
 10
4533.638475
 20
5488.677364
 30
0.0
 10
5388.038475
 20
4634.277364
 30
0.0
  0
SPLINE
  5
17c
100
AcDbEntity
  8
PLASMA
 62
7
100
AcDbSpline
 70
8
 71
3
 72
8
 73
4
 74
0
 40
0
 40
0
 40
0
 40
0
 40
1
 40
1
 40
1
 40
1
 10
2824.838475
 20
7197.477364
 30
0.0
 10
2546.438475
 20
6919.077364
 30
0.0
 10
2268.038475
 20
6640.677364
 30
0.0
 10
1989.638475
 20
6362.277364
 30
0.0
  0
SPLINE
  5
17d
100
AcDbEntity
  8
PLASMA
 62
7
100
AcDbSpline
 70
8
 71
3
 72
8
 73
4
 74
0
 40
0
 40
0
 40
0
 40
0
 40
1
 40
1
 40
1
 40
1
 10
5388.038475
 20
4634.277364
 30
0.0
 10
5109.638475
 20
4355.877364
 30
0.0
 10
4831.238475
 20
4077.477364
 30
0.0
 10
4552.838475
 20
3799.077364
 30
0.0
  0
SPLINE
  5
17e
100
AcDbEntity
  8
PLASMA
 62
7
100
AcDbSpline
 70
8
 71
3
 72
8
 73
4
 74
0
 40
0
 40
0
 40
0
 40
0
 40
1
 40
1
 40
1
 40
1
 10
1989.638475
 20
6362.277364
 30
0.0
 10
2844.038475
 20
5507.877364
 30
0.0
 10
3698.438475
 20
4653.477364
 30
0.0
 10
4552.838475
 20
3799.077364
 30
0.0
  0
SPLINE
  5
17f
100
AcDbEntity
  8
PLASMA
 62
7
100
AcDbSpline
 70
8
 71
3
 72
8
 73
4
 74
0
 40
0
 40
0
 40
0
 40
0
 40
1
 40
1
 40
1
 40
1
 10
3832.838475
 20
2791.077364
 30
0.0
 10
4399.238475
 20
3357.477364
 30
0.0
 10
4965.638475
 20
3923.877364
 30
0.0
 10
5532.038475
 20
4490.277364
 30
0.0
  0
SPLINE
  5
180
100
AcDbEntity
  8
PLASMA
 62
7
100
AcDbSpline
 70
8
 71
3
 72
8
 73
4
 74
0
 40
0
 40
0
 40
0
 40
0
 40
1
 40
1
 40
1
 40
1
 10
3832.838475
 20
2791.077364
 30
0.0
 10
4111.238475
 20
2512.677364
 30
0.0
 10
4389.638475
 20
2234.277364
 30
0.0
 10
4668.038475
 20
1955.877364
 30
0.0
  0
SPLINE
  5
181
100
AcDbEntity
  8
PLASMA
 62
7
100
AcDbSpline
 70
8
 71
3
 72
8
 73
4
 74
0
 40
0
 40
0
 40
0
 40
0
 40
1
 40
1
 40
1
 40
1
 10
4668.038475
 20
1955.877364
 30
0.0
 10
5234.438475
 20
2522.277364
 30
0.0
 10
5800.838475
 20
3088.677364
 30
0.0
 10
6367.238475
 20
3655.077364
 30
0.0
  0
SPLINE
  5
182
100
AcDbEntity
  8
PLASMA
 62
7
100
AcDbSpline
 70
8
 71
3
 72
8
 73
4
 74
0
 40
0
 40
0
 40
0
 40
0
 40
1
 40
1
 40
1
 40
1
 10
9074.438250
 20
4634.277364
 30
0.0
 10
8796.038250
 20
4355.877364
 30
0.0
 10
8517.638250
 20
4077.477364
 30
0.0
 10
8239.238250
 20
3799.077364
 30
0.0
  0
SPLINE
  5
183
100
AcDbEntity
  8
PLASMA
 62
7
100
AcDbSpline
 70
8
 71
3
 72
8
 73
4
 74
0
 40
0
 40
0
 40
0
 40
0
 40
1
 40
1
 40
1
 40
1
 10
7519.238250
 20
2791.077364
 30
0.0
 10
8085.638250
 20
3357.477364
 30
0.0
 10
8652.038250
 20
3923.877364
 30
0.0
 10
9218.438250
 20
4490.277364
 30
0.0
  0
SPLINE
  5
184
100
AcDbEntity
  8
PLASMA
 62
7
100
AcDbSpline
 70
8
 71
3
 72
8
 73
4
 74
0
 40
0
 40
0
 40
0
 40
0
 40
1
 40
1
 40
1
 40
1
 10
7519.238250
 20
2791.077364
 30
0.0
 10
7797.638250
 20
2512.677364
 30
0.0
 10
8076.038250
 20
2234.277364
 30
0.0
 10
8354.438250
 20
1955.877364
 30
0.0
  0
SPLINE
  5
185
100
AcDbEntity
  8
PLASMA
 62
7
100
AcDbSpline
 70
8
 71
3
 72
8
 73
4
 74
0
 40
0
 40
0
 40
0
 40
0
 40
1
 40
1
 40
1
 40
1
 10
8354.438250
 20
1955.877364
 30
0.0
 10
8920.838250
 20
2522.277364
 30
0.0
 10
9487.238250
 20
3088.677364
 30
0.0
 10
10053.638250
 20
3655.077364
 30
0.0
  0
SPLINE
  5
186
100
AcDbEntity
  8
PLASMA
 62
7
100
AcDbSpline
 70
8
 71
3
 72
8
 73
4
 74
0
 40
0
 40
0
 40
0
 40
0
 40
1
 40
1
 40
1
 40
1
 10
10197.638250
 20
3511.077364
 30
0.0
 10
9919.238250
 20
3232.677364
 30
0.0
 10
9640.838250
 20
2954.277364
 30
0.0
 10
9362.438250
 20
2675.877364
 30
0.0
  0
SPLINE
  5
187
100
AcDbEntity
  8
PLASMA
 62
7
100
AcDbSpline
 70
8
 71
3
 72
8
 73
4
 74
0
 40
0
 40
0
 40
0
 40
0
 40
1
 40
1
 40
1
 40
1
 10
6511.238475
 20
3511.077364
 30
0.0
 10
7365.638475
 20
2656.677364
 30
0.0
 10
8220.038250
 20
1802.277364
 30
0.0
 10
9074.438250
 20
947.877356
 30
0.0
  0
SPLINE
  5
188
100
AcDbEntity
  8
PLASMA
 62
7
100
AcDbSpline
 70
8
 71
3
 72
8
 73
4
 74
0
 40
0
 40
0
 40
0
 40
0
 40
1
 40
1
 40
1
 40
1
 10
6511.238475
 20
3511.077364
 30
0.0
 10
6232.838475
 20
3232.677364
 30
0.0
 10
5954.438475
 20
2954.277364
 30
0.0
 10
5676.038475
 20
2675.877364
 30
0.0
  0
SPLINE
  5
189
100
AcDbEntity
  8
PLASMA
 62
7
100
AcDbSpline
 70
8
 71
3
 72
8
 73
4
 74
0
 40
0
 40
0
 40
0
 40
0
 40
1
 40
1
 40
1
 40
1
 10
9074.438250
 20
947.877356
 30
0.0
 10
8796.038250
 20
669.477356
 30
0.0
 10
8517.638250
 20
391.077356
 30
0.0
 10
8239.238250
 20
112.677356
 30
0.0
  0
SPLINE
  5
18a
100
AcDbEntity
  8
PLASMA
 62
7
100
AcDbSpline
 70
8
 71
3
 72
8
 73
4
 74
0
 40
0
 40
0
 40
0
 40
0
 40
1
 40
1
 40
1
 40
1
 10
5676.038475
 20
2675.877364
 30
0.0
 10
6530.438475
 20
1821.477364
 30
0.0
 10
7384.838475
 20
967.077356
 30
0.0
 10
8239.238250
 20
112.677356
 30
0.0
  0
SPLINE
  5
18b
100
AcDbEntity
  8
PLASMA
 62
7
100
AcDbSpline
 70
8
 71
3
 72
8
 73
4
 74
0
 40
0
 40
0
 40
0
 40
0
 40
1
 40
1
 40
1
 40
1
 10
2824.838475
 20
3511.077364
 30
0.0
 10
3679.238475
 20
2656.677364
 30
0.0
 10
4533.638475
 20
1802.277364
 30
0.0
 10
5388.038475
 20
947.877356
 30
0.0
  0
SPLINE
  5
18c
100
AcDbEntity
  8
PLASMA
 62
7
100
AcDbSpline
 70
8
 71
3
 72
8
 73
4
 74
0
 40
0
 40
0
 40
0
 40
0
 40
1
 40
1
 40
1
 40
1
 10
2824.838475
 20
3511.077364
 30
0.0
 10
2546.438475
 20
3232.677364
 30
0.0
 10
2268.038475
 20
2954.277364
 30
0.0
 10
1989.638475
 20
2675.877364
 30
0.0
  0
SPLINE
  5
18d
100
AcDbEntity
  8
PLASMA
 62
7
100
AcDbSpline
 70
8
 71
3
 72
8
 73
4
 74
0
 40
0
 40
0
 40
0
 40
0
 40
1
 40
1
 40
1
 40
1
 10
5388.038475
 20
947.877356
 30
0.0
 10
5109.638475
 20
669.477356
 30
0.0
 10
4831.238475
 20
391.077356
 30
0.0
 10
4552.838475
 20
112.677356
 30
0.0
  0
SPLINE
  5
18e
100
AcDbEntity
  8
PLASMA
 62
7
100
AcDbSpline
 70
8
 71
3
 72
8
 73
4
 74
0
 40
0
 40
0
 40
0
 40
0
 40
1
 40
1
 40
1
 40
1
 10
1989.638475
 20
2675.877364
 30
0.0
 10
2844.038475
 20
1821.477364
 30
0.0
 10
3698.438475
 20
967.077356
 30
0.0
 10
4552.838475
 20
112.677356
 30
0.0
  0
SPLINE
  5
18f
100
AcDbEntity
  8
PLASMA
 62
7
100
AcDbSpline
 70
8
 71
3
 72
8
 73
4
 74
0
 40
0
 40
0
 40
0
 40
0
 40
1
 40
1
 40
1
 40
1
 10
2709.638475
 20
1667.877364
 30
0.0
 10
2988.038475
 20
1389.477356
 30
0.0
 10
3266.438475
 20
1111.077356
 30
0.0
 10
3544.838475
 20
832.677358
 30
0.0
  0
SPLINE
  5
190
100
AcDbEntity
  8
PLASMA
 62
7
100
AcDbSpline
 70
8
 71
3
 72
8
 73
4
 74
0
 40
0
 40
0
 40
0
 40
0
 40
1
 40
1
 40
1
 40
1
 10
6396.038475
 20
1667.877364
 30
0.0
 10
5541.638475
 20
813.477358
 30
0.0
 10
4687.238475
 20
-40.922636
 30
0.0
 10
3832.838475
 20
-895.322636
 30
0.0
  0
SPLINE
  5
191
100
AcDbEntity
  8
PLASMA
 62
7
100
AcDbSpline
 70
8
 71
3
 72
8
 73
4
 74
0
 40
0
 40
0
 40
0
 40
0
 40
1
 40
1
 40
1
 40
1
 10
6396.038475
 20
1667.877364
 30
0.0
 10
6674.438475
 20
1389.477356
 30
0.0
 10
6952.838475
 20
1111.077356
 30
0.0
 10
7231.238475
 20
832.677358
 30
0.0
  0
SPLINE
  5
192
100
AcDbEntity
  8
PLASMA
 62
7
100
AcDbSpline
 70
8
 71
3
 72
8
 73
4
 74
0
 40
0
 40
0
 40
0
 40
0
 40
1
 40
1
 40
1
 40
1
 10
3832.838475
 20
-895.322636
 30
0.0
 10
4111.238475
 20
-1173.722636
 30
0.0
 10
4389.638475
 20
-1452.122636
 30
0.0
 10
4668.038475
 20
-1730.522636
 30
0.0
  0
SPLINE
  5
193
100
AcDbEntity
  8
PLASMA
 62
7
100
AcDbSpline
 70
8
 71
3
 72
8
 73
4
 74
0
 40
0
 40
0
 40
0
 40
0
 40
1
 40
1
 40
1
 40
1
 10
7231.238475
 20
832.677358
 30
0.0
 10
6376.838475
 20
-21.722636
 30
0.0
 10
5522.438475
 20
-876.122636
 30
0.0
 10
4668.038475
 20
-1730.522636
 30
0.0
  0
SPLINE
  5
194
100
AcDbEntity
  8
PLASMA
 62
7
100
AcDbSpline
 70
8
 71
3
 72
8
 73
4
 74
0
 40
0
 40
0
 40
0
 40
0
 40
1
 40
1
 40
1
 40
1
 10
8354.438250
 20
-1730.522636
 30
0.0
 10
8920.838250
 20
-1164.122636
 30
0.0
 10
9487.238250
 20
-597.722636
 30
0.0
 10
10053.638250
 20
-31.322636
 30
0.0
  0
SPLINE
  5
195
100
AcDbEntity
  8
PLASMA
 62
7
100
AcDbSpline
 70
8
 71
3
 72
8
 73
4
 74
0
 40
0
 40
0
 40
0
 40
0
 40
1
 40
1
 40
1
 40
1
 10
8354.438250
 20
-1730.522636
 30
0.0
 10
8076.038250
 20
-1452.122636
 30
0.0
 10
7797.638250
 20
-1173.722636
 30
0.0
 10
7519.238250
 20
-895.322636
 30
0.0
  0
SPLINE
  5
196
100
AcDbEntity
  8
PLASMA
 62
7
100
AcDbSpline
 70
8
 71
3
 72
8
 73
4
 74
0
 40
0
 40
0
 40
0
 40
0
 40
1
 40
1
 40
1
 40
1
 10
7519.238250
 20
-895.322636
 30
0.0
 10
8085.638250
 20
-328.922636
 30
0.0
 10
8652.038250
 20
237.477356
 30
0.0
 10
9218.438250
 20
803.877358
 30
0.0
  0
SPLINE
  5
197
100
AcDbEntity
  8
PLASMA
 62
7
100
AcDbSpline
 70
8
 71
3
 72
8
 73
4
 74
0
 40
0
 40
0
 40
0
 40
0
 40
1
 40
1
 40
1
 40
1
 10
6511.238475
 20
-175.322636
 30
0.0
 10
7365.638475
 20
-1029.722636
 30
0.0
 10
8220.038250
 20
-1884.122636
 30
0.0
 10
9074.438250
 20
-2738.522636
 30
0.0
  0
SPLINE
  5
198
100
AcDbEntity
  8
PLASMA
 62
7
100
AcDbSpline
 70
8
 71
3
 72
8
 73
4
 74
0
 40
0
 40
0
 40
0
 40
0
 40
1
 40
1
 40
1
 40
1
 10
6511.238475
 20
-175.322636
 30
0.0
 10
6232.838475
 20
-453.722636
 30
0.0
 10
5954.438475
 20
-732.122636
 30
0.0
 10
5676.038475
 20
-1010.522636
 30
0.0
  0
SPLINE
  5
199
100
AcDbEntity
  8
PLASMA
 62
7
100
AcDbSpline
 70
8
 71
3
 72
8
 73
4
 74
0
 40
0
 40
0
 40
0
 40
0
 40
1
 40
1
 40
1
 40
1
 10
9074.438250
 20
-2738.522636
 30
0.0
 10
8796.038250
 20
-3016.922636
 30
0.0
 10
8517.638250
 20
-3295.322636
 30
0.0
 10
8239.238250
 20
-3573.722636
 30
0.0
  0
SPLINE
  5
19a
100
AcDbEntity
  8
PLASMA
 62
7
100
AcDbSpline
 70
8
 71
3
 72
8
 73
4
 74
0
 40
0
 40
0
 40
0
 40
0
 40
1
 40
1
 40
1
 40
1
 10
5676.038475
 20
-1010.522636
 30
0.0
 10
6530.438475
 20
-1864.922636
 30
0.0
 10
7384.838475
 20
-2719.322636
 30
0.0
 10
8239.238250
 20
-3573.722636
 30
0.0
  0
SPLINE
  5
19b
100
AcDbEntity
  8
PLASMA
 62
7
100
AcDbSpline
 70
8
 71
3
 72
8
 73
4
 74
0
 40
0
 40
0
 40
0
 40
0
 40
1
 40
1
 40
1
 40
1
 10
2853.638475
 20
-1874.522636
 30
0.0
 10
3420.038475
 20
-2440.922636
 30
0.0
 10
3986.438475
 20
-3007.322636
 30
0.0
 10
4552.838475
 20
-3573.722636
 30
0.0
  0
SPLINE
  5
19c
100
AcDbEntity
  8
PLASMA
 62
7
100
AcDbSpline
 70
8
 71
3
 72
8
 73
4
 74
0
 40
0
 40
0
 40
0
 40
0
 40
1
 40
1
 40
1
 40
1
 10
4552.838475
 20
-3573.722636
 30
0.0
 10
4831.238475
 20
-3295.322636
 30
0.0
 10
5109.638475
 20
-3016.922636
 30
0.0
 10
5388.038475
 20
-2738.522636
 30
0.0
  0
SPLINE
  5
19d
100
AcDbEntity
  8
PLASMA
 62
7
100
AcDbSpline
 70
8
 71
3
 72
8
 73
4
 74
0
 40
0
 40
0
 40
0
 40
0
 40
1
 40
1
 40
1
 40
1
 10
3688.838475
 20
-1039.322636
 30
0.0
 10
4255.238475
 20
-1605.722636
 30
0.0
 10
4821.638475
 20
-2172.122636
 30
0.0
 10
5388.038475
 20
-2738.522636
 30
0.0
  0
SPLINE
  5
19e
100
AcDbEntity
  8
PLASMA
 62
7
100
AcDbSpline
 70
8
 71
3
 72
8
 73
4
 74
0
 40
0
 40
0
 40
0
 40
0
 40
1
 40
1
 40
1
 40
1
 10
3832.838475
 20
-4581.722636
 30
0.0
 10
4687.238475
 20
-3727.322636
 30
0.0
 10
5541.638475
 20
-2872.922636
 30
0.0
 10
6396.038475
 20
-2018.522636
 30
0.0
  0
SPLINE
  5
19f
100
AcDbEntity
  8
PLASMA
 62
7
100
AcDbSpline
 70
8
 71
3
 72
8
 73
4
 74
0
 40
0
 40
0
 40
0
 40
0
 40
1
 40
1
 40
1
 40
1
 10
3832.838475
 20
-4581.722636
 30
0.0
 10
4111.238475
 20
-4860.122636
 30
0.0
 10
4389.638475
 20
-5138.522636
 30
0.0
 10
4668.038475
 20
-5416.922636
 30
0.0
  0
SPLINE
  5
1a0
100
AcDbEntity
  8
PLASMA
 62
7
100
AcDbSpline
 70
8
 71
3
 72
8
 73
4
 74
0
 40
0
 40
0
 40
0
 40
0
 40
1
 40
1
 40
1
 40
1
 10
6396.038475
 20
-2018.522636
 30
0.0
 10
6674.438475
 20
-2296.922636
 30
0.0
 10
6952.838475
 20
-2575.322636
 30
0.0
 10
7231.238475
 20
-2853.722636
 30
0.0
  0
SPLINE
  5
1a1
100
AcDbEntity
  8
PLASMA
 62
7
100
AcDbSpline
 70
8
 71
3
 72
8
 73
4
 74
0
 40
0
 40
0
 40
0
 40
0
 40
1
 40
1
 40
1
 40
1
 10
4668.038475
 20
-5416.922636
 30
0.0
 10
5522.438475
 20
-4562.522636
 30
0.0
 10
6376.838475
 20
-3708.122636
 30
0.0
 10
7231.238475
 20
-2853.722636
 30
0.0
  0
SPLINE
  5
1a2
100
AcDbEntity
  8
PLASMA
 62
7
100
AcDbSpline
 70
8
 71
3
 72
8
 73
4
 74
0
 40
0
 40
0
 40
0
 40
0
 40
1
 40
1
 40
1
 40
1
 10
9218.438250
 20
-4552.922636
 30
0.0
 10
9496.838250
 20
-4274.522636
 30
0.0
 10
9775.238250
 20
-3996.122636
 30
0.0
 10
10053.638250
 20
-3717.722636
 30
0.0
  0
SPLINE
  5
1a3
100
AcDbEntity
  8
PLASMA
 62
7
100
AcDbSpline
 70
8
 71
3
 72
8
 73
4
 74
0
 40
0
 40
0
 40
0
 40
0
 40
1
 40
1
 40
1
 40
1
 10
8383.238250
 20
-3717.722636
 30
0.0
 10
8661.638250
 20
-3439.322636
 30
0.0
 10
8940.038250
 20
-3160.922636
 30
0.0
 10
9218.438250
 20
-2882.522636
 30
0.0
  0
SPLINE
  5
1a4
100
AcDbEntity
  8
PLASMA
 62
7
100
AcDbSpline
 70
8
 71
3
 72
8
 73
4
 74
0
 40
0
 40
0
 40
0
 40
0
 40
1
 40
1
 40
1
 40
1
 10
10197.638250
 20
-175.322636
 30
0.0
 10
9919.238250
 20
-453.722636
 30
0.0
 10
9640.838250
 20
-732.122636
 30
0.0
 10
9362.438250
 20
-1010.522636
 30
0.0
  0
SPLINE
  5
1a5
100
AcDbEntity
  8
PLASMA
 62
7
100
AcDbSpline
 70
8
 71
3
 72
8
 73
4
 74
0
 40
0
 40
0
 40
0
 40
0
 40
1
 40
1
 40
1
 40
1
 10
6511.238475
 20
-3861.722636
 30
0.0
 10
6232.838475
 20
-4140.122636
 30
0.0
 10
5954.438475
 20
-4418.522636
 30
0.0
 10
5676.038475
 20
-4696.922636
 30
0.0
  0
SPLINE
  5
1a6
100
AcDbEntity
  8
PLASMA
 62
7
100
AcDbSpline
 70
8
 71
3
 72
8
 73
4
 74
0
 40
0
 40
0
 40
0
 40
0
 40
1
 40
1
 40
1
 40
1
 10
10197.638250
 20
-3861.722636
 30
0.0
 10
9919.238250
 20
-4140.122636
 30
0.0
 10
9640.838250
 20
-4418.522636
 30
0.0
 10
9362.438250
 20
-4696.922636
 30
0.0
  0
SPLINE
  5
1a7
100
AcDbEntity
  8
PLASMA
 62
7
100
AcDbSpline
 70
8
 71
3
 72
8
 73
4
 74
0
 40
0
 40
0
 40
0
 40
0
 40
1
 40
1
 40
1
 40
1
 10
1701.638475
 20
-2738.522636
 30
0.0
 10
1423.238475
 20
-3016.922636
 30
0.0
 10
1144.838475
 20
-3295.322636
 30
0.0
 10
866.438475
 20
-3573.722636
 30
0.0
  0
SPLINE
  5
1a8
100
AcDbEntity
  8
PLASMA
 62
7
100
AcDbSpline
 70
8
 71
3
 72
8
 73
4
 74
0
 40
0
 40
0
 40
0
 40
0
 40
1
 40
1
 40
1
 40
1
 10
2709.638475
 20
-2018.522636
 30
0.0
 10
1855.238475
 20
-2872.922636
 30
0.0
 10
1000.838475
 20
-3727.322636
 30
0.0
 10
146.438513
 20
-4581.722636
 30
0.0
  0
SPLINE
  5
1a9
100
AcDbEntity
  8
PLASMA
 62
7
100
AcDbSpline
 70
8
 71
3
 72
8
 73
4
 74
0
 40
0
 40
0
 40
0
 40
0
 40
1
 40
1
 40
1
 40
1
 10
2709.638475
 20
-2018.522636
 30
0.0
 10
2988.038475
 20
-2296.922636
 30
0.0
 10
3266.438475
 20
-2575.322636
 30
0.0
 10
3544.838475
 20
-2853.722636
 30
0.0
  0
SPLINE
  5
1aa
100
AcDbEntity
  8
PLASMA
 62
7
100
AcDbSpline
 70
8
 71
3
 72
8
 73
4
 74
0
 40
0
 40
0
 40
0
 40
0
 40
1
 40
1
 40
1
 40
1
 10
146.438513
 20
-4581.722636
 30
0.0
 10
424.838513
 20
-4860.122636
 30
0.0
 10
703.238512
 20
-5138.522636
 30
0.0
 10
981.638475
 20
-5416.922636
 30
0.0
  0
SPLINE
  5
1ab
100
AcDbEntity
  8
PLASMA
 62
7
100
AcDbSpline
 70
8
 71
3
 72
8
 73
4
 74
0
 40
0
 40
0
 40
0
 40
0
 40
1
 40
1
 40
1
 40
1
 10
3544.838475
 20
-2853.722636
 30
0.0
 10
2690.438475
 20
-3708.122636
 30
0.0
 10
1836.038475
 20
-4562.522636
 30
0.0
 10
981.638475
 20
-5416.922636
 30
0.0
  0
SPLINE
  5
1ac
100
AcDbEntity
  8
PLASMA
 62
7
100
AcDbSpline
 70
8
 71
3
 72
8
 73
4
 74
0
 40
0
 40
0
 40
0
 40
0
 40
1
 40
1
 40
1
 40
1
 10
2824.838475
 20
-3861.722636
 30
0.0
 10
3391.238475
 20
-4428.122636
 30
0.0
 10
3957.638475
 20
-4994.522636
 30
0.0
 10
4524.038475
 20
-5560.922636
 30
0.0
  0
SPLINE
  5
1ad
100
AcDbEntity
  8
PLASMA
 62
7
100
AcDbSpline
 70
8
 71
3
 72
8
 73
4
 74
0
 40
0
 40
0
 40
0
 40
0
 40
1
 40
1
 40
1
 40
1
 10
2824.838475
 20
-3861.722636
 30
0.0
 10
2546.438475
 20
-4140.122636
 30
0.0
 10
2268.038475
 20
-4418.522636
 30
0.0
 10
1989.638475
 20
-4696.922636
 30
0.0
  0
SPLINE
  5
1ae
100
AcDbEntity
  8
PLASMA
 62
7
100
AcDbSpline
 70
8
 71
3
 72
8
 73
4
 74
0
 40
0
 40
0
 40
0
 40
0
 40
1
 40
1
 40
1
 40
1
 10
1989.638475
 20
-4696.922636
 30
0.0
 10
2556.038475
 20
-5263.322636
 30
0.0
 10
3122.438475
 20
-5829.722636
 30
0.0
 10
3688.838475
 20
-6396.122636
 30
0.0
  0
SPLINE
  5
1af
100
AcDbEntity
  8
PLASMA
 62
7
100
AcDbSpline
 70
8
 71
3
 72
8
 73
4
 74
0
 40
0
 40
0
 40
0
 40
0
 40
1
 40
1
 40
1
 40
1
 10
3832.838475
 20
-8268.122486
 30
0.0
 10
4111.238475
 20
-8546.522486
 30
0.0
 10
4389.638475
 20
-8824.922486
 30
0.0
 10
4668.038475
 20
-9103.322486
 30
0.0
  0
SPLINE
  5
1b0
100
AcDbEntity
  8
PLASMA
 62
7
100
AcDbSpline
 70
8
 71
3
 72
8
 73
4
 74
0
 40
0
 40
0
 40
0
 40
0
 40
1
 40
1
 40
1
 40
1
 10
1989.638475
 20
-8383.322486
 30
0.0
 10
2556.038475
 20
-8949.722486
 30
0.0
 10
3122.438475
 20
-9516.122486
 30
0.0
 10
3688.838475
 20
-10082.522486
 30
0.0
  0
SPLINE
  5
1b1
100
AcDbEntity
  8
PLASMA
 62
7
100
AcDbSpline
 70
8
 71
3
 72
8
 73
4
 74
0
 40
0
 40
0
 40
0
 40
0
 40
1
 40
1
 40
1
 40
1
 10
1989.638475
 20
-8383.322486
 30
0.0
 10
2268.038475
 20
-8104.922486
 30
0.0
 10
2546.438475
 20
-7826.522486
 30
0.0
 10
2824.838475
 20
-7548.122486
 30
0.0
  0
SPLINE
  5
1b2
100
AcDbEntity
  8
PLASMA
 62
7
100
AcDbSpline
 70
8
 71
3
 72
8
 73
4
 74
0
 40
0
 40
0
 40
0
 40
0
 40
1
 40
1
 40
1
 40
1
 10
2824.838475
 20
-7548.122486
 30
0.0
 10
3391.238475
 20
-8114.522486
 30
0.0
 10
3957.638475
 20
-8680.922486
 30
0.0
 10
4524.038475
 20
-9247.322486
 30
0.0
  0
SPLINE
  5
1b3
100
AcDbEntity
  8
PLASMA
 62
7
100
AcDbSpline
 70
8
 71
3
 72
8
 73
4
 74
0
 40
0
 40
0
 40
0
 40
0
 40
1
 40
1
 40
1
 40
1
 10
2709.638475
 20
-9391.322486
 30
0.0
 10
2988.038475
 20
-9669.722486
 30
0.0
 10
3266.438475
 20
-9948.122486
 30
0.0
 10
3544.838475
 20
-10226.522486
 30
0.0
  0
SPLINE
  5
1b4
100
AcDbEntity
  8
PLASMA
 62
7
100
AcDbSpline
 70
8
 71
3
 72
8
 73
4
 74
0
 40
0
 40
0
 40
0
 40
0
 40
1
 40
1
 40
1
 40
1
 10
-1696.761525
 20
-8383.322486
 30
0.0
 10
-1130.361525
 20
-8949.722486
 30
0.0
 10
-563.961487
 20
-9516.122486
 30
0.0
 10
2.438510
 20
-10082.522486
 30
0.0
  0
SPLINE
  5
1b5
100
AcDbEntity
  8
PLASMA
 62
7
100
AcDbSpline
 70
8
 71
3
 72
8
 73
4
 74
0
 40
0
 40
0
 40
0
 40
0
 40
1
 40
1
 40
1
 40
1
 10
-1696.761525
 20
-8383.322486
 30
0.0
 10
-1418.361525
 20
-8104.922486
 30
0.0
 10
-1139.961525
 20
-7826.522486
 30
0.0
 10
-861.561525
 20
-7548.122486
 30
0.0
  0
SPLINE
  5
1b6
100
AcDbEntity
  8
PLASMA
 62
7
100
AcDbSpline
 70
8
 71
3
 72
8
 73
4
 74
0
 40
0
 40
0
 40
0
 40
0
 40
1
 40
1
 40
1
 40
1
 10
-861.561525
 20
-7548.122486
 30
0.0
 10
-295.161488
 20
-8114.522486
 30
0.0
 10
271.238512
 20
-8680.922486
 30
0.0
 10
837.638475
 20
-9247.322486
 30
0.0
  0
SPLINE
  5
1b7
100
AcDbEntity
  8
PLASMA
 62
7
100
AcDbSpline
 70
8
 71
3
 72
8
 73
4
 74
0
 40
0
 40
0
 40
0
 40
0
 40
1
 40
1
 40
1
 40
1
 10
-976.761525
 20
-9391.322486
 30
0.0
 10
-698.361488
 20
-9669.722486
 30
0.0
 10
-419.961488
 20
-9948.122486
 30
0.0
 10
-141.561487
 20
-10226.522486
 30
0.0
  0
SPLINE
  5
1b8
100
AcDbEntity
  8
PLASMA
 62
7
100
AcDbSpline
 70
8
 71
3
 72
8
 73
4
 74
0
 40
0
 40
0
 40
0
 40
0
 40
1
 40
1
 40
1
 40
1
 10
2709.638475
 20
-5704.922636
 30
0.0
 10
1855.238475
 20
-6559.322636
 30
0.0
 10
1000.838475
 20
-7413.722486
 30
0.0
 10
146.438513
 20
-8268.122486
 30
0.0
  0
SPLINE
  5
1b9
100
AcDbEntity
  8
PLASMA
 62
7
100
AcDbSpline
 70
8
 71
3
 72
8
 73
4
 74
0
 40
0
 40
0
 40
0
 40
0
 40
1
 40
1
 40
1
 40
1
 10
2709.638475
 20
-5704.922636
 30
0.0
 10
2988.038475
 20
-5983.322636
 30
0.0
 10
3266.438475
 20
-6261.722636
 30
0.0
 10
3544.838475
 20
-6540.122636
 30
0.0
  0
SPLINE
  5
1ba
100
AcDbEntity
  8
PLASMA
 62
7
100
AcDbSpline
 70
8
 71
3
 72
8
 73
4
 74
0
 40
0
 40
0
 40
0
 40
0
 40
1
 40
1
 40
1
 40
1
 10
146.438513
 20
-8268.122486
 30
0.0
 10
424.838513
 20
-8546.522486
 30
0.0
 10
703.238512
 20
-8824.922486
 30
0.0
 10
981.638475
 20
-9103.322486
 30
0.0
  0
SPLINE
  5
1bb
100
AcDbEntity
  8
PLASMA
 62
7
100
AcDbSpline
 70
8
 71
3
 72
8
 73
4
 74
0
 40
0
 40
0
 40
0
 40
0
 40
1
 40
1
 40
1
 40
1
 10
3544.838475
 20
-6540.122636
 30
0.0
 10
2690.438475
 20
-7394.522486
 30
0.0
 10
1836.038475
 20
-8248.922486
 30
0.0
 10
981.638475
 20
-9103.322486
 30
0.0
  0
SPLINE
  5
1bc
100
AcDbEntity
  8
PLASMA
 62
7
100
AcDbSpline
 70
8
 71
3
 72
8
 73
4
 74
0
 40
0
 40
0
 40
0
 40
0
 40
1
 40
1
 40
1
 40
1
 10
-4519.161525
 20
-9247.322486
 30
0.0
 10
-4240.761525
 20
-9525.722486
 30
0.0
 10
-3962.361525
 20
-9804.122486
 30
0.0
 10
-3683.961525
 20
-10082.522486
 30
0.0
  0
SPLINE
  5
1bd
100
AcDbEntity
  8
PLASMA
 62
7
100
AcDbSpline
 70
8
 71
3
 72
8
 73
4
 74
0
 40
0
 40
0
 40
0
 40
0
 40
1
 40
1
 40
1
 40
1
 10
-3683.961525
 20
-8412.122486
 30
0.0
 10
-3405.561525
 20
-8690.522486
 30
0.0
 10
-3127.161525
 20
-8968.922486
 30
0.0
 10
-2848.761525
 20
-9247.322486
 30
0.0
  0
SPLINE
  5
1be
100
AcDbEntity
  8
PLASMA
 62
7
100
AcDbSpline
 70
8
 71
3
 72
8
 73
4
 74
0
 40
0
 40
0
 40
0
 40
0
 40
1
 40
1
 40
1
 40
1
 10
-4663.161525
 20
-9391.322486
 30
0.0
 10
-4384.761525
 20
-9669.722486
 30
0.0
 10
-4106.361525
 20
-9948.122486
 30
0.0
 10
-3827.961525
 20
-10226.522486
 30
0.0
  0
SPLINE
  5
1bf
100
AcDbEntity
  8
PLASMA
 62
7
100
AcDbSpline
 70
8
 71
3
 72
8
 73
4
 74
0
 40
0
 40
0
 40
0
 40
0
 40
1
 40
1
 40
1
 40
1
 10
-4663.161525
 20
-5704.922636
 30
0.0
 10
-4384.761525
 20
-5983.322636
 30
0.0
 10
-4106.361525
 20
-6261.722636
 30
0.0
 10
-3827.961525
 20
-6540.122636
 30
0.0
  0
SPLINE
  5
1c0
100
AcDbEntity
  8
PLASMA
 62
7
100
AcDbSpline
 70
8
 71
3
 72
8
 73
4
 74
0
 40
0
 40
0
 40
0
 40
0
 40
1
 40
1
 40
1
 40
1
 10
-4547.961525
 20
-3861.722636
 30
0.0
 10
-3693.561525
 20
-4716.122636
 30
0.0
 10
-2839.161525
 20
-5570.522636
 30
0.0
 10
-1984.761525
 20
-6424.922636
 30
0.0
  0
SPLINE
  5
1c1
100
AcDbEntity
  8
PLASMA
 62
7
100
AcDbSpline
 70
8
 71
3
 72
8
 73
4
 74
0
 40
0
 40
0
 40
0
 40
0
 40
1
 40
1
 40
1
 40
1
 10
-4547.961525
 20
-3861.722636
 30
0.0
 10
-4826.361525
 20
-4140.122636
 30
0.0
 10
-5104.761525
 20
-4418.522636
 30
0.0
 10
-5383.161525
 20
-4696.922636
 30
0.0
  0
SPLINE
  5
1c2
100
AcDbEntity
  8
PLASMA
 62
7
100
AcDbSpline
 70
8
 71
3
 72
8
 73
4
 74
0
 40
0
 40
0
 40
0
 40
0
 40
1
 40
1
 40
1
 40
1
 10
-1984.761525
 20
-6424.922636
 30
0.0
 10
-2263.161525
 20
-6703.322486
 30
0.0
 10
-2541.561525
 20
-6981.722486
 30
0.0
 10
-2819.961525
 20
-7260.122486
 30
0.0
  0
SPLINE
  5
1c3
100
AcDbEntity
  8
PLASMA
 62
7
100
AcDbSpline
 70
8
 71
3
 72
8
 73
4
 74
0
 40
0
 40
0
 40
0
 40
0
 40
1
 40
1
 40
1
 40
1
 10
-5383.161525
 20
-4696.922636
 30
0.0
 10
-4528.761525
 20
-5551.322636
 30
0.0
 10
-3674.361525
 20
-6405.722636
 30
0.0
 10
-2819.961525
 20
-7260.122486
 30
0.0
  0
SPLINE
  5
1c4
100
AcDbEntity
  8
PLASMA
 62
7
100
AcDbSpline
 70
8
 71
3
 72
8
 73
4
 74
0
 40
0
 40
0
 40
0
 40
0
 40
1
 40
1
 40
1
 40
1
 10
-976.761525
 20
-5704.922636
 30
0.0
 10
-1831.161525
 20
-6559.322636
 30
0.0
 10
-2685.561525
 20
-7413.722486
 30
0.0
 10
-3539.961525
 20
-8268.122486
 30
0.0
  0
SPLINE
  5
1c5
100
AcDbEntity
  8
PLASMA
 62
7
100
AcDbSpline
 70
8
 71
3
 72
8
 73
4
 74
0
 40
0
 40
0
 40
0
 40
0
 40
1
 40
1
 40
1
 40
1
 10
-976.761525
 20
-5704.922636
 30
0.0
 10
-698.361488
 20
-5983.322636
 30
0.0
 10
-419.961488
 20
-6261.722636
 30
0.0
 10
-141.561487
 20
-6540.122636
 30
0.0
  0
SPLINE
  5
1c6
100
AcDbEntity
  8
PLASMA
 62
7
100
AcDbSpline
 70
8
 71
3
 72
8
 73
4
 74
0
 40
0
 40
0
 40
0
 40
0
 40
1
 40
1
 40
1
 40
1
 10
-3539.961525
 20
-8268.122486
 30
0.0
 10
-3261.561525
 20
-8546.522486
 30
0.0
 10
-2983.161525
 20
-8824.922486
 30
0.0
 10
-2704.761525
 20
-9103.322486
 30
0.0
  0
SPLINE
  5
1c7
100
AcDbEntity
  8
PLASMA
 62
7
100
AcDbSpline
 70
8
 71
3
 72
8
 73
4
 74
0
 40
0
 40
0
 40
0
 40
0
 40
1
 40
1
 40
1
 40
1
 10
-141.561487
 20
-6540.122636
 30
0.0
 10
-995.961525
 20
-7394.522486
 30
0.0
 10
-1850.361525
 20
-8248.922486
 30
0.0
 10
-2704.761525
 20
-9103.322486
 30
0.0
  0
SPLINE
  5
1c8
100
AcDbEntity
  8
PLASMA
 62
7
100
AcDbSpline
 70
8
 71
3
 72
8
 73
4
 74
0
 40
0
 40
0
 40
0
 40
0
 40
1
 40
1
 40
1
 40
1
 10
-861.561525
 20
-3861.722636
 30
0.0
 10
-7.161491
 20
-4716.122636
 30
0.0
 10
847.238475
 20
-5570.522636
 30
0.0
 10
1701.638475
 20
-6424.922636
 30
0.0
  0
SPLINE
  5
1c9
100
AcDbEntity
  8
PLASMA
 62
7
100
AcDbSpline
 70
8
 71
3
 72
8
 73
4
 74
0
 40
0
 40
0
 40
0
 40
0
 40
1
 40
1
 40
1
 40
1
 10
-861.561525
 20
-3861.722636
 30
0.0
 10
-1139.961525
 20
-4140.122636
 30
0.0
 10
-1418.361525
 20
-4418.522636
 30
0.0
 10
-1696.761525
 20
-4696.922636
 30
0.0
  0
SPLINE
  5
1ca
100
AcDbEntity
  8
PLASMA
 62
7
100
AcDbSpline
 70
8
 71
3
 72
8
 73
4
 74
0
 40
0
 40
0
 40
0
 40
0
 40
1
 40
1
 40
1
 40
1
 10
1701.638475
 20
-6424.922636
 30
0.0
 10
1423.238475
 20
-6703.322486
 30
0.0
 10
1144.838475
 20
-6981.722486
 30
0.0
 10
866.438475
 20
-7260.122486
 30
0.0
  0
SPLINE
  5
1cb
100
AcDbEntity
  8
PLASMA
 62
7
100
AcDbSpline
 70
8
 71
3
 72
8
 73
4
 74
0
 40
0
 40
0
 40
0
 40
0
 40
1
 40
1
 40
1
 40
1
 10
-1696.761525
 20
-4696.922636
 30
0.0
 10
-842.361525
 20
-5551.322636
 30
0.0
 10
12.038510
 20
-6405.722636
 30
0.0
 10
866.438475
 20
-7260.122486
 30
0.0
  0
SPLINE
  5
1cc
100
AcDbEntity
  8
PLASMA
 62
7
100
AcDbSpline
 70
8
 71
3
 72
8
 73
4
 74
0
 40
0
 40
0
 40
0
 40
0
 40
1
 40
1
 40
1
 40
1
 10
-3539.961525
 20
-4581.722636
 30
0.0
 10
-2973.561525
 20
-4015.322636
 30
0.0
 10
-2407.161525
 20
-3448.922636
 30
0.0
 10
-1840.761525
 20
-2882.522636
 30
0.0
  0
SPLINE
  5
1cd
100
AcDbEntity
  8
PLASMA
 62
7
100
AcDbSpline
 70
8
 71
3
 72
8
 73
4
 74
0
 40
0
 40
0
 40
0
 40
0
 40
1
 40
1
 40
1
 40
1
 10
-3539.961525
 20
-4581.722636
 30
0.0
 10
-3261.561525
 20
-4860.122636
 30
0.0
 10
-2983.161525
 20
-5138.522636
 30
0.0
 10
-2704.761525
 20
-5416.922636
 30
0.0
  0
SPLINE
  5
1ce
100
AcDbEntity
  8
PLASMA
 62
7
100
AcDbSpline
 70
8
 71
3
 72
8
 73
4
 74
0
 40
0
 40
0
 40
0
 40
0
 40
1
 40
1
 40
1
 40
1
 10
-2704.761525
 20
-5416.922636
 30
0.0
 10
-2138.361525
 20
-4850.522636
 30
0.0
 10
-1571.961525
 20
-4284.122636
 30
0.0
 10
-1005.561525
 20
-3717.722636
 30
0.0
  0
SPLINE
  5
1cf
100
AcDbEntity
  8
PLASMA
 62
7
100
AcDbSpline
 70
8
 71
3
 72
8
 73
4
 74
0
 40
0
 40
0
 40
0
 40
0
 40
1
 40
1
 40
1
 40
1
 10
-10048.761750
 20
-3717.722636
 30
0.0
 10
-9482.361750
 20
-3151.322636
 30
0.0
 10
-8915.961750
 20
-2584.922636
 30
0.0
 10
-8349.561750
 20
-2018.522636
 30
0.0
  0
SPLINE
  5
1d0
100
AcDbEntity
  8
PLASMA
 62
7
100
AcDbSpline
 70
8
 71
3
 72
8
 73
4
 74
0
 40
0
 40
0
 40
0
 40
0
 40
1
 40
1
 40
1
 40
1
 10
-8349.561750
 20
-2018.522636
 30
0.0
 10
-8071.161750
 20
-2296.922636
 30
0.0
 10
-7792.761750
 20
-2575.322636
 30
0.0
 10
-7514.361750
 20
-2853.722636
 30
0.0
  0
SPLINE
  5
1d1
100
AcDbEntity
  8
PLASMA
 62
7
100
AcDbSpline
 70
8
 71
3
 72
8
 73
4
 74
0
 40
0
 40
0
 40
0
 40
0
 40
1
 40
1
 40
1
 40
1
 10
-9213.561750
 20
-4552.922636
 30
0.0
 10
-8647.161750
 20
-3986.522636
 30
0.0
 10
-8080.761750
 20
-3420.122636
 30
0.0
 10
-7514.361750
 20
-2853.722636
 30
0.0
  0
SPLINE
  5
1d2
100
AcDbEntity
  8
PLASMA
 62
7
100
AcDbSpline
 70
8
 71
3
 72
8
 73
4
 74
0
 40
0
 40
0
 40
0
 40
0
 40
1
 40
1
 40
1
 40
1
 10
-9357.561750
 20
-2738.522636
 30
0.0
 10
-9635.961750
 20
-3016.922636
 30
0.0
 10
-9914.361750
 20
-3295.322636
 30
0.0
 10
-10192.761750
 20
-3573.722636
 30
0.0
  0
SPLINE
  5
1d3
100
AcDbEntity
  8
PLASMA
 62
7
100
AcDbSpline
 70
8
 71
3
 72
8
 73
4
 74
0
 40
0
 40
0
 40
0
 40
0
 40
1
 40
1
 40
1
 40
1
 10
-8234.361750
 20
-3861.722636
 30
0.0
 10
-8512.761750
 20
-4140.122636
 30
0.0
 10
-8791.161750
 20
-4418.522636
 30
0.0
 10
-9069.561750
 20
-4696.922636
 30
0.0
  0
SPLINE
  5
1d4
100
AcDbEntity
  8
PLASMA
 62
7
100
AcDbSpline
 70
8
 71
3
 72
8
 73
4
 74
0
 40
0
 40
0
 40
0
 40
0
 40
1
 40
1
 40
1
 40
1
 10
-3827.961525
 20
-2853.722636
 30
0.0
 10
-4394.361525
 20
-3420.122636
 30
0.0
 10
-4960.761525
 20
-3986.522636
 30
0.0
 10
-5527.161525
 20
-4552.922636
 30
0.0
  0
SPLINE
  5
1d5
100
AcDbEntity
  8
PLASMA
 62
7
100
AcDbSpline
 70
8
 71
3
 72
8
 73
4
 74
0
 40
0
 40
0
 40
0
 40
0
 40
1
 40
1
 40
1
 40
1
 10
-3827.961525
 20
-2853.722636
 30
0.0
 10
-4106.361525
 20
-2575.322636
 30
0.0
 10
-4384.761525
 20
-2296.922636
 30
0.0
 10
-4663.161525
 20
-2018.522636
 30
0.0
  0
SPLINE
  5
1d6
100
AcDbEntity
  8
PLASMA
 62
7
100
AcDbSpline
 70
8
 71
3
 72
8
 73
4
 74
0
 40
0
 40
0
 40
0
 40
0
 40
1
 40
1
 40
1
 40
1
 10
-4663.161525
 20
-2018.522636
 30
0.0
 10
-5229.561525
 20
-2584.922636
 30
0.0
 10
-5795.961525
 20
-3151.322636
 30
0.0
 10
-6362.361525
 20
-3717.722636
 30
0.0
  0
SPLINE
  5
1d7
100
AcDbEntity
  8
PLASMA
 62
7
100
AcDbSpline
 70
8
 71
3
 72
8
 73
4
 74
0
 40
0
 40
0
 40
0
 40
0
 40
1
 40
1
 40
1
 40
1
 10
-9069.561750
 20
-1010.522636
 30
0.0
 10
-8215.161750
 20
-1864.922636
 30
0.0
 10
-7360.761525
 20
-2719.322636
 30
0.0
 10
-6506.361525
 20
-3573.722636
 30
0.0
  0
SPLINE
  5
1d8
100
AcDbEntity
  8
PLASMA
 62
7
100
AcDbSpline
 70
8
 71
3
 72
8
 73
4
 74
0
 40
0
 40
0
 40
0
 40
0
 40
1
 40
1
 40
1
 40
1
 10
-9069.561750
 20
-1010.522636
 30
0.0
 10
-8791.161750
 20
-732.122636
 30
0.0
 10
-8512.761750
 20
-453.722636
 30
0.0
 10
-8234.361750
 20
-175.322636
 30
0.0
  0
SPLINE
  5
1d9
100
AcDbEntity
  8
PLASMA
 62
7
100
AcDbSpline
 70
8
 71
3
 72
8
 73
4
 74
0
 40
0
 40
0
 40
0
 40
0
 40
1
 40
1
 40
1
 40
1
 10
-6506.361525
 20
-3573.722636
 30
0.0
 10
-6227.961525
 20
-3295.322636
 30
0.0
 10
-5949.561525
 20
-3016.922636
 30
0.0
 10
-5671.161525
 20
-2738.522636
 30
0.0
  0
SPLINE
  5
1da
100
AcDbEntity
  8
PLASMA
 62
7
100
AcDbSpline
 70
8
 71
3
 72
8
 73
4
 74
0
 40
0
 40
0
 40
0
 40
0
 40
1
 40
1
 40
1
 40
1
 10
-8234.361750
 20
-175.322636
 30
0.0
 10
-7379.961525
 20
-1029.722636
 30
0.0
 10
-6525.561525
 20
-1884.122636
 30
0.0
 10
-5671.161525
 20
-2738.522636
 30
0.0
  0
SPLINE
  5
1db
100
AcDbEntity
  8
PLASMA
 62
7
100
AcDbSpline
 70
8
 71
3
 72
8
 73
4
 74
0
 40
0
 40
0
 40
0
 40
0
 40
1
 40
1
 40
1
 40
1
 10
-4547.961525
 20
-175.322636
 30
0.0
 10
-3693.561525
 20
-1029.722636
 30
0.0
 10
-2839.161525
 20
-1884.122636
 30
0.0
 10
-1984.761525
 20
-2738.522636
 30
0.0
  0
SPLINE
  5
1dc
100
AcDbEntity
  8
PLASMA
 62
7
100
AcDbSpline
 70
8
 71
3
 72
8
 73
4
 74
0
 40
0
 40
0
 40
0
 40
0
 40
1
 40
1
 40
1
 40
1
 10
-4547.961525
 20
-175.322636
 30
0.0
 10
-4826.361525
 20
-453.722636
 30
0.0
 10
-5104.761525
 20
-732.122636
 30
0.0
 10
-5383.161525
 20
-1010.522636
 30
0.0
  0
SPLINE
  5
1dd
100
AcDbEntity
  8
PLASMA
 62
7
100
AcDbSpline
 70
8
 71
3
 72
8
 73
4
 74
0
 40
0
 40
0
 40
0
 40
0
 40
1
 40
1
 40
1
 40
1
 10
-1984.761525
 20
-2738.522636
 30
0.0
 10
-2263.161525
 20
-3016.922636
 30
0.0
 10
-2541.561525
 20
-3295.322636
 30
0.0
 10
-2819.961525
 20
-3573.722636
 30
0.0
  0
SPLINE
  5
1de
100
AcDbEntity
  8
PLASMA
 62
7
100
AcDbSpline
 70
8
 71
3
 72
8
 73
4
 74
0
 40
0
 40
0
 40
0
 40
0
 40
1
 40
1
 40
1
 40
1
 10
-5383.161525
 20
-1010.522636
 30
0.0
 10
-4528.761525
 20
-1864.922636
 30
0.0
 10
-3674.361525
 20
-2719.322636
 30
0.0
 10
-2819.961525
 20
-3573.722636
 30
0.0
  0
SPLINE
  5
1df
100
AcDbEntity
  8
PLASMA
 62
7
100
AcDbSpline
 70
8
 71
3
 72
8
 73
4
 74
0
 40
0
 40
0
 40
0
 40
0
 40
1
 40
1
 40
1
 40
1
 10
-3539.961525
 20
-895.322636
 30
0.0
 10
-3261.561525
 20
-1173.722636
 30
0.0
 10
-2983.161525
 20
-1452.122636
 30
0.0
 10
-2704.761525
 20
-1730.522636
 30
0.0
  0
SPLINE
  5
1e0
100
AcDbEntity
  8
PLASMA
 62
7
100
AcDbSpline
 70
8
 71
3
 72
8
 73
4
 74
0
 40
0
 40
0
 40
0
 40
0
 40
1
 40
1
 40
1
 40
1
 10
-4663.161525
 20
1667.877364
 30
0.0
 10
-5517.561525
 20
813.477358
 30
0.0
 10
-6371.961525
 20
-40.922636
 30
0.0
 10
-7226.361525
 20
-895.322636
 30
0.0
  0
SPLINE
  5
1e1
100
AcDbEntity
  8
PLASMA
 62
7
100
AcDbSpline
 70
8
 71
3
 72
8
 73
4
 74
0
 40
0
 40
0
 40
0
 40
0
 40
1
 40
1
 40
1
 40
1
 10
-4663.161525
 20
1667.877364
 30
0.0
 10
-4384.761525
 20
1389.477356
 30
0.0
 10
-4106.361525
 20
1111.077356
 30
0.0
 10
-3827.961525
 20
832.677358
 30
0.0
  0
SPLINE
  5
1e2
100
AcDbEntity
  8
PLASMA
 62
7
100
AcDbSpline
 70
8
 71
3
 72
8
 73
4
 74
0
 40
0
 40
0
 40
0
 40
0
 40
1
 40
1
 40
1
 40
1
 10
-7226.361525
 20
-895.322636
 30
0.0
 10
-6947.961525
 20
-1173.722636
 30
0.0
 10
-6669.561525
 20
-1452.122636
 30
0.0
 10
-6391.161525
 20
-1730.522636
 30
0.0
  0
SPLINE
  5
1e3
100
AcDbEntity
  8
PLASMA
 62
7
100
AcDbSpline
 70
8
 71
3
 72
8
 73
4
 74
0
 40
0
 40
0
 40
0
 40
0
 40
1
 40
1
 40
1
 40
1
 10
-3827.961525
 20
832.677358
 30
0.0
 10
-4682.361525
 20
-21.722636
 30
0.0
 10
-5536.761525
 20
-876.122636
 30
0.0
 10
-6391.161525
 20
-1730.522636
 30
0.0
  0
SPLINE
  5
1e4
100
AcDbEntity
  8
PLASMA
 62
7
100
AcDbSpline
 70
8
 71
3
 72
8
 73
4
 74
0
 40
0
 40
0
 40
0
 40
0
 40
1
 40
1
 40
1
 40
1
 10
-10048.761750
 20
-31.322636
 30
0.0
 10
-9482.361750
 20
535.077356
 30
0.0
 10
-8915.961750
 20
1101.477356
 30
0.0
 10
-8349.561750
 20
1667.877364
 30
0.0
  0
SPLINE
  5
1e5
100
AcDbEntity
  8
PLASMA
 62
7
100
AcDbSpline
 70
8
 71
3
 72
8
 73
4
 74
0
 40
0
 40
0
 40
0
 40
0
 40
1
 40
1
 40
1
 40
1
 10
-8349.561750
 20
1667.877364
 30
0.0
 10
-8071.161750
 20
1389.477356
 30
0.0
 10
-7792.761750
 20
1111.077356
 30
0.0
 10
-7514.361750
 20
832.677358
 30
0.0
  0
SPLINE
  5
1e6
100
AcDbEntity
  8
PLASMA
 62
7
100
AcDbSpline
 70
8
 71
3
 72
8
 73
4
 74
0
 40
0
 40
0
 40
0
 40
0
 40
1
 40
1
 40
1
 40
1
 10
-9213.561750
 20
-866.522636
 30
0.0
 10
-8647.161750
 20
-300.122636
 30
0.0
 10
-8080.761750
 20
266.277356
 30
0.0
 10
-7514.361750
 20
832.677358
 30
0.0
  0
SPLINE
  5
1e7
100
AcDbEntity
  8
PLASMA
 62
7
100
AcDbSpline
 70
8
 71
3
 72
8
 73
4
 74
0
 40
0
 40
0
 40
0
 40
0
 40
1
 40
1
 40
1
 40
1
 10
-9357.561750
 20
947.877356
 30
0.0
 10
-9635.961750
 20
669.477356
 30
0.0
 10
-9914.361750
 20
391.077356
 30
0.0
 10
-10192.761750
 20
112.677356
 30
0.0
  0
SPLINE
  5
1e8
100
AcDbEntity
  8
PLASMA
 62
7
100
AcDbSpline
 70
8
 71
3
 72
8
 73
4
 74
0
 40
0
 40
0
 40
0
 40
0
 40
1
 40
1
 40
1
 40
1
 10
-8234.361750
 20
3511.077364
 30
0.0
 10
-7379.961525
 20
2656.677364
 30
0.0
 10
-6525.561525
 20
1802.277364
 30
0.0
 10
-5671.161525
 20
947.877356
 30
0.0
  0
SPLINE
  5
1e9
100
AcDbEntity
  8
PLASMA
 62
7
100
AcDbSpline
 70
8
 71
3
 72
8
 73
4
 74
0
 40
0
 40
0
 40
0
 40
0
 40
1
 40
1
 40
1
 40
1
 10
-8234.361750
 20
3511.077364
 30
0.0
 10
-8512.761750
 20
3232.677364
 30
0.0
 10
-8791.161750
 20
2954.277364
 30
0.0
 10
-9069.561750
 20
2675.877364
 30
0.0
  0
SPLINE
  5
1ea
100
AcDbEntity
  8
PLASMA
 62
7
100
AcDbSpline
 70
8
 71
3
 72
8
 73
4
 74
0
 40
0
 40
0
 40
0
 40
0
 40
1
 40
1
 40
1
 40
1
 10
-5671.161525
 20
947.877356
 30
0.0
 10
-5949.561525
 20
669.477356
 30
0.0
 10
-6227.961525
 20
391.077356
 30
0.0
 10
-6506.361525
 20
112.677356
 30
0.0
  0
SPLINE
  5
1eb
100
AcDbEntity
  8
PLASMA
 62
7
100
AcDbSpline
 70
8
 71
3
 72
8
 73
4
 74
0
 40
0
 40
0
 40
0
 40
0
 40
1
 40
1
 40
1
 40
1
 10
-9069.561750
 20
2675.877364
 30
0.0
 10
-8215.161750
 20
1821.477364
 30
0.0
 10
-7360.761525
 20
967.077356
 30
0.0
 10
-6506.361525
 20
112.677356
 30
0.0
  0
SPLINE
  5
1ec
100
AcDbEntity
  8
PLASMA
 62
7
100
AcDbSpline
 70
8
 71
3
 72
8
 73
4
 74
0
 40
0
 40
0
 40
0
 40
0
 40
1
 40
1
 40
1
 40
1
 10
-4547.961525
 20
3511.077364
 30
0.0
 10
-3981.561525
 20
2944.677364
 30
0.0
 10
-3415.161525
 20
2378.277364
 30
0.0
 10
-2848.761525
 20
1811.877364
 30
0.0
  0
SPLINE
  5
1ed
100
AcDbEntity
  8
PLASMA
 62
7
100
AcDbSpline
 70
8
 71
3
 72
8
 73
4
 74
0
 40
0
 40
0
 40
0
 40
0
 40
1
 40
1
 40
1
 40
1
 10
-4547.961525
 20
3511.077364
 30
0.0
 10
-4826.361525
 20
3232.677364
 30
0.0
 10
-5104.761525
 20
2954.277364
 30
0.0
 10
-5383.161525
 20
2675.877364
 30
0.0
  0
SPLINE
  5
1ee
100
AcDbEntity
  8
PLASMA
 62
7
100
AcDbSpline
 70
8
 71
3
 72
8
 73
4
 74
0
 40
0
 40
0
 40
0
 40
0
 40
1
 40
1
 40
1
 40
1
 10
-5383.161525
 20
2675.877364
 30
0.0
 10
-4816.761525
 20
2109.477364
 30
0.0
 10
-4250.361525
 20
1543.077356
 30
0.0
 10
-3683.961525
 20
976.677356
 30
0.0
  0
SPLINE
  5
1ef
100
AcDbEntity
  8
PLASMA
 62
7
100
AcDbSpline
 70
8
 71
3
 72
8
 73
4
 74
0
 40
0
 40
0
 40
0
 40
0
 40
1
 40
1
 40
1
 40
1
 10
-7226.361525
 20
2791.077364
 30
0.0
 10
-6371.961525
 20
3645.477364
 30
0.0
 10
-5517.561525
 20
4499.877364
 30
0.0
 10
-4663.161525
 20
5354.277364
 30
0.0
  0
SPLINE
  5
1f0
100
AcDbEntity
  8
PLASMA
 62
7
100
AcDbSpline
 70
8
 71
3
 72
8
 73
4
 74
0
 40
0
 40
0
 40
0
 40
0
 40
1
 40
1
 40
1
 40
1
 10
-7226.361525
 20
2791.077364
 30
0.0
 10
-6947.961525
 20
2512.677364
 30
0.0
 10
-6669.561525
 20
2234.277364
 30
0.0
 10
-6391.161525
 20
1955.877364
 30
0.0
  0
SPLINE
  5
1f1
100
AcDbEntity
  8
PLASMA
 62
7
100
AcDbSpline
 70
8
 71
3
 72
8
 73
4
 74
0
 40
0
 40
0
 40
0
 40
0
 40
1
 40
1
 40
1
 40
1
 10
-4663.161525
 20
5354.277364
 30
0.0
 10
-4384.761525
 20
5075.877364
 30
0.0
 10
-4106.361525
 20
4797.477364
 30
0.0
 10
-3827.961525
 20
4519.077364
 30
0.0
  0
SPLINE
  5
1f2
100
AcDbEntity
  8
PLASMA
 62
7
100
AcDbSpline
 70
8
 71
3
 72
8
 73
4
 74
0
 40
0
 40
0
 40
0
 40
0
 40
1
 40
1
 40
1
 40
1
 10
-6391.161525
 20
1955.877364
 30
0.0
 10
-5536.761525
 20
2810.277364
 30
0.0
 10
-4682.361525
 20
3664.677364
 30
0.0
 10
-3827.961525
 20
4519.077364
 30
0.0
  0
SPLINE
  5
1f3
100
AcDbEntity
  8
PLASMA
 62
7
100
AcDbSpline
 70
8
 71
3
 72
8
 73
4
 74
0
 40
0
 40
0
 40
0
 40
0
 40
1
 40
1
 40
1
 40
1
 10
-10192.761750
 20
3799.077364
 30
0.0
 10
-9914.361750
 20
4077.477364
 30
0.0
 10
-9635.961750
 20
4355.877364
 30
0.0
 10
-9357.561750
 20
4634.277364
 30
0.0
  0
SPLINE
  5
1f4
100
AcDbEntity
  8
PLASMA
 62
7
100
AcDbSpline
 70
8
 71
3
 72
8
 73
4
 74
0
 40
0
 40
0
 40
0
 40
0
 40
1
 40
1
 40
1
 40
1
 10
-9213.561750
 20
4490.277364
 30
0.0
 10
-9491.961750
 20
4211.877364
 30
0.0
 10
-9770.361750
 20
3933.477364
 30
0.0
 10
-10048.761750
 20
3655.077364
 30
0.0
  0
SPLINE
  5
1f5
100
AcDbEntity
  8
PLASMA
 62
7
100
AcDbSpline
 70
8
 71
3
 72
8
 73
4
 74
0
 40
0
 40
0
 40
0
 40
0
 40
1
 40
1
 40
1
 40
1
 10
-8378.361750
 20
3655.077364
 30
0.0
 10
-8656.761750
 20
3376.677364
 30
0.0
 10
-8935.161750
 20
3098.277364
 30
0.0
 10
-9213.561750
 20
2819.877364
 30
0.0
  0
SPLINE
  5
1f6
100
AcDbEntity
  8
PLASMA
 62
7
100
AcDbSpline
 70
8
 71
3
 72
8
 73
4
 74
0
 40
0
 40
0
 40
0
 40
0
 40
1
 40
1
 40
1
 40
1
 10
-4519.159350
 20
9184.679764
 30
0.0
 10
-4755.093000
 20
9422.465764
 30
0.0
 10
-5087.243250
 20
9560.020264
 30
0.0
 10
-5422.192725
 20
9558.728014
 30
0.0
  0
SPLINE
  5
1f7
100
AcDbEntity
  8
PLASMA
 62
7
100
AcDbSpline
 70
8
 71
3
 72
8
 73
4
 74
0
 40
0
 40
0
 40
0
 40
0
 40
1
 40
1
 40
1
 40
1
 10
-3683.958225
 20
10019.880514
 30
0.0
 10
-4138.103175
 20
10477.592014
 30
0.0
 10
-4777.453875
 20
10742.368264
 30
0.0
 10
-5422.192725
 20
10739.881264
 30
0.0
  0
SPLINE
  5
1f8
100
AcDbEntity
  8
PLASMA
 62
7
100
AcDbSpline
 70
8
 71
3
 72
8
 73
4
 74
0
 40
0
 40
0
 40
0
 40
0
 40
1
 40
1
 40
1
 40
1
 10
-10739.958000
 20
5120.136964
 30
0.0
 10
-10741.874250
 20
4630.104889
 30
0.0
 10
-10540.578000
 20
4144.226614
 30
0.0
 10
-10192.758750
 20
3799.080439
 30
0.0
  0
SPLINE
  5
1f9
100
AcDbEntity
  8
PLASMA
 62
7
100
AcDbSpline
 70
8
 71
3
 72
8
 73
4
 74
0
 40
0
 40
0
 40
0
 40
0
 40
1
 40
1
 40
1
 40
1
 10
-9558.808500
 20
5120.136964
 30
0.0
 10
-9559.513500
 20
4939.913089
 30
0.0
 10
-9485.481000
 20
4761.216889
 30
0.0
 10
-9357.559500
 20
4634.279089
 30
0.0
  0
SPLINE
  5
1fa
100
AcDbEntity
  8
PLASMA
 62
7
100
AcDbSpline
 70
8
 71
3
 72
8
 73
4
 74
0
 40
0
 40
0
 40
0
 40
0
 40
1
 40
1
 40
1
 40
1
 10
-2149.375125
 20
10739.877514
 30
0.0
 10
-2665.198650
 20
10741.895014
 30
0.0
 10
-3176.649750
 20
10530.003514
 30
0.0
 10
-3539.961675
 20
10163.877514
 30
0.0
  0
SPLINE
  5
1fb
100
AcDbEntity
  8
PLASMA
 62
7
100
AcDbSpline
 70
8
 71
3
 72
8
 73
4
 74
0
 40
0
 40
0
 40
0
 40
0
 40
1
 40
1
 40
1
 40
1
 10
-2149.375125
 20
9558.728014
 30
0.0
 10
-2355.390450
 20
9559.534264
 30
0.0
 10
-2559.659475
 20
9474.906514
 30
0.0
 10
-2704.763025
 20
9328.679014
 30
0.0
  0
SPLINE
  5
1fc
100
AcDbEntity
  8
PLASMA
 62
7
100
AcDbSpline
 70
8
 71
3
 72
8
 73
4
 74
0
 40
0
 40
0
 40
0
 40
0
 40
1
 40
1
 40
1
 40
1
 10
2.441807
 20
10019.880514
 30
0.0
 10
-451.703138
 20
10477.592014
 30
0.0
 10
-1091.053875
 20
10742.368264
 30
0.0
 10
-1735.792725
 20
10739.881264
 30
0.0
  0
SPLINE
  5
1fd
100
AcDbEntity
  8
PLASMA
 62
7
100
AcDbSpline
 70
8
 71
3
 72
8
 73
4
 74
0
 40
0
 40
0
 40
0
 40
0
 40
1
 40
1
 40
1
 40
1
 10
-832.759350
 20
9184.679764
 30
0.0
 10
-1068.693000
 20
9422.465764
 30
0.0
 10
-1400.843250
 20
9560.020264
 30
0.0
 10
-1735.792725
 20
9558.728014
 30
0.0
  0
SPLINE
  5
1fe
100
AcDbEntity
  8
PLASMA
 62
7
100
AcDbSpline
 70
8
 71
3
 72
8
 73
4
 74
0
 40
0
 40
0
 40
0
 40
0
 40
1
 40
1
 40
1
 40
1
 10
1537.024875
 20
10739.877514
 30
0.0
 10
1021.201350
 20
10741.895014
 30
0.0
 10
509.750273
 20
10530.003514
 30
0.0
 10
146.438333
 20
10163.877514
 30
0.0
  0
SPLINE
  5
1ff
100
AcDbEntity
  8
PLASMA
 62
7
100
AcDbSpline
 70
8
 71
3
 72
8
 73
4
 74
0
 40
0
 40
0
 40
0
 40
0
 40
1
 40
1
 40
1
 40
1
 10
1537.024875
 20
9558.728014
 30
0.0
 10
1331.009550
 20
9559.534264
 30
0.0
 10
1126.740525
 20
9474.906514
 30
0.0
 10
981.636975
 20
9328.679014
 30
0.0
  0
SPLINE
  5
200
100
AcDbEntity
  8
PLASMA
 62
7
100
AcDbSpline
 70
8
 71
3
 72
8
 73
4
 74
0
 40
0
 40
0
 40
0
 40
0
 40
1
 40
1
 40
1
 40
1
 10
3688.841775
 20
10019.880514
 30
0.0
 10
3234.696825
 20
10477.592014
 30
0.0
 10
2595.346125
 20
10742.368264
 30
0.0
 10
1950.607275
 20
10739.881264
 30
0.0
  0
SPLINE
  5
201
100
AcDbEntity
  8
PLASMA
 62
7
100
AcDbSpline
 70
8
 71
3
 72
8
 73
4
 74
0
 40
0
 40
0
 40
0
 40
0
 40
1
 40
1
 40
1
 40
1
 10
2853.640650
 20
9184.679764
 30
0.0
 10
2617.707000
 20
9422.465764
 30
0.0
 10
2285.556750
 20
9560.020264
 30
0.0
 10
1950.607275
 20
9558.728014
 30
0.0
  0
SPLINE
  5
202
100
AcDbEntity
  8
PLASMA
 62
7
100
AcDbSpline
 70
8
 71
3
 72
8
 73
4
 74
0
 40
0
 40
0
 40
0
 40
0
 40
1
 40
1
 40
1
 40
1
 10
5215.238475
 20
7515.972964
 30
0.0
 10
5217.659550
 20
8134.961389
 30
0.0
 10
4963.390050
 20
8748.703264
 30
0.0
 10
4524.038550
 20
9184.677514
 30
0.0
  0
SPLINE
  5
203
100
AcDbEntity
  8
PLASMA
 62
7
100
AcDbSpline
 70
8
 71
3
 72
8
 73
4
 74
0
 40
0
 40
0
 40
0
 40
0
 40
1
 40
1
 40
1
 40
1
 10
4034.085675
 20
7515.972964
 30
0.0
 10
4035.294975
 20
7825.152289
 30
0.0
 10
3908.289600
 20
8131.710739
 30
0.0
 10
3688.837350
 20
8349.476014
 30
0.0
  0
SPLINE
  5
204
100
AcDbEntity
  8
PLASMA
 62
7
100
AcDbSpline
 70
8
 71
3
 72
8
 73
4
 74
0
 40
0
 40
0
 40
0
 40
0
 40
1
 40
1
 40
1
 40
1
 10
3832.840350
 20
6477.479089
 30
0.0
 10
3960.776400
 20
6604.418164
 30
0.0
 10
4034.784600
 20
6783.124564
 30
0.0
 10
4034.089275
 20
6963.336964
 30
0.0
  0
SPLINE
  5
205
100
AcDbEntity
  8
PLASMA
 62
7
100
AcDbSpline
 70
8
 71
3
 72
8
 73
4
 74
0
 40
0
 40
0
 40
0
 40
0
 40
1
 40
1
 40
1
 40
1
 10
4668.039000
 20
5642.280439
 30
0.0
 10
5015.899275
 20
5987.430214
 30
0.0
 10
5217.129000
 20
6473.336089
 30
0.0
 10
5215.238475
 20
6963.336964
 30
0.0
  0
SPLINE
  5
206
100
AcDbEntity
  8
PLASMA
 62
7
100
AcDbSpline
 70
8
 71
3
 72
8
 73
4
 74
0
 40
0
 40
0
 40
0
 40
0
 40
1
 40
1
 40
1
 40
1
 10
-4663.158375
 20
9040.677514
 30
0.0
 10
-5011.018650
 20
8695.528264
 30
0.0
 10
-5212.248375
 20
8209.622164
 30
0.0
 10
-5210.357925
 20
7719.621364
 30
0.0
  0
SPLINE
  5
207
100
AcDbEntity
  8
PLASMA
 62
7
100
AcDbSpline
 70
8
 71
3
 72
8
 73
4
 74
0
 40
0
 40
0
 40
0
 40
0
 40
1
 40
1
 40
1
 40
1
 10
-3827.959800
 20
8205.479239
 30
0.0
 10
-3955.895775
 20
8078.540164
 30
0.0
 10
-4029.903975
 20
7899.833764
 30
0.0
 10
-4029.208725
 20
7719.621364
 30
0.0
  0
SPLINE
  5
208
100
AcDbEntity
  8
PLASMA
 62
7
100
AcDbSpline
 70
8
 71
3
 72
8
 73
4
 74
0
 40
0
 40
0
 40
0
 40
0
 40
1
 40
1
 40
1
 40
1
 10
-4029.208725
 20
7166.981764
 30
0.0
 10
-4030.418025
 20
6857.802439
 30
0.0
 10
-3903.412575
 20
6551.243914
 30
0.0
 10
-3683.960325
 20
6333.478489
 30
0.0
  0
SPLINE
  5
209
100
AcDbEntity
  8
PLASMA
 62
7
100
AcDbSpline
 70
8
 71
3
 72
8
 73
4
 74
0
 40
0
 40
0
 40
0
 40
0
 40
1
 40
1
 40
1
 40
1
 10
-5210.361525
 20
7166.981764
 30
0.0
 10
-5212.782525
 20
6547.993339
 30
0.0
 10
-4958.513025
 20
5934.251839
 30
0.0
 10
-4519.161525
 20
5498.277364
 30
0.0
  0
SPLINE
  5
20a
100
AcDbEntity
  8
PLASMA
 62
7
100
AcDbSpline
 70
8
 71
3
 72
8
 73
4
 74
0
 40
0
 40
0
 40
0
 40
0
 40
1
 40
1
 40
1
 40
1
 10
246.464513
 20
3338.630164
 30
0.0
 10
529.853295
 20
3337.521739
 30
0.0
 10
810.839925
 20
3453.932839
 30
0.0
 10
1010.440200
 20
3655.079239
 30
0.0
  0
SPLINE
  5
20b
100
AcDbEntity
  8
PLASMA
 62
7
100
AcDbSpline
 70
8
 71
3
 72
8
 73
4
 74
0
 40
0
 40
0
 40
0
 40
0
 40
1
 40
1
 40
1
 40
1
 10
246.464513
 20
2157.480964
 30
0.0
 10
839.661450
 20
2155.160764
 30
0.0
 10
1427.830125
 20
2398.835614
 30
0.0
 10
1845.638850
 20
2819.880664
 30
0.0
  0
SPLINE
  5
20c
100
AcDbEntity
  8
PLASMA
 62
7
100
AcDbSpline
 70
8
 71
3
 72
8
 73
4
 74
0
 40
0
 40
0
 40
0
 40
0
 40
1
 40
1
 40
1
 40
1
 10
-861.560100
 20
3511.078789
 30
0.0
 10
-752.787000
 20
3401.451439
 30
0.0
 10
-599.654880
 20
3338.034364
 30
0.0
 10
-445.232287
 20
3338.630164
 30
0.0
  0
SPLINE
  5
20d
100
AcDbEntity
  8
PLASMA
 62
7
100
AcDbSpline
 70
8
 71
3
 72
8
 73
4
 74
0
 40
0
 40
0
 40
0
 40
0
 40
1
 40
1
 40
1
 40
1
 10
-1696.761225
 20
2675.877589
 30
0.0
 10
-1369.776825
 20
2346.325339
 30
0.0
 10
-909.444225
 20
2155.686364
 30
0.0
 10
-445.232288
 20
2157.477364
 30
0.0
  0
SPLINE
  5
20e
100
AcDbEntity
  8
PLASMA
 62
7
100
AcDbSpline
 70
8
 71
3
 72
8
 73
4
 74
0
 40
0
 40
0
 40
0
 40
0
 40
1
 40
1
 40
1
 40
1
 10
5223.424875
 20
10739.877514
 30
0.0
 10
4707.601350
 20
10741.895014
 30
0.0
 10
4196.150250
 20
10530.003514
 30
0.0
 10
3832.838325
 20
10163.877514
 30
0.0
  0
SPLINE
  5
20f
100
AcDbEntity
  8
PLASMA
 62
7
100
AcDbSpline
 70
8
 71
3
 72
8
 73
4
 74
0
 40
0
 40
0
 40
0
 40
0
 40
1
 40
1
 40
1
 40
1
 10
5223.424875
 20
9558.728014
 30
0.0
 10
5017.409550
 20
9559.534264
 30
0.0
 10
4813.140525
 20
9474.906514
 30
0.0
 10
4668.036975
 20
9328.679014
 30
0.0
  0
SPLINE
  5
210
100
AcDbEntity
  8
PLASMA
 62
7
100
AcDbSpline
 70
8
 71
3
 72
8
 73
4
 74
0
 40
0
 40
0
 40
0
 40
0
 40
1
 40
1
 40
1
 40
1
 10
9218.437500
 20
4490.278489
 30
0.0
 10
9444.942750
 20
4714.849189
 30
0.0
 10
9572.610750
 20
5034.197164
 30
0.0
 10
9563.322750
 20
5353.019014
 30
0.0
  0
SPLINE
  5
211
100
AcDbEntity
  8
PLASMA
 62
7
100
AcDbSpline
 70
8
 71
3
 72
8
 73
4
 74
0
 40
0
 40
0
 40
0
 40
0
 40
1
 40
1
 40
1
 40
1
 10
10053.638250
 20
3655.077364
 30
0.0
 10
10493.041500
 20
4091.056339
 30
0.0
 10
10747.226250
 20
4704.832789
 30
0.0
 10
10744.838250
 20
5323.781764
 30
0.0
  0
SPLINE
  5
212
100
AcDbEntity
  8
PLASMA
 62
7
100
AcDbSpline
 70
8
 71
3
 72
8
 73
4
 74
0
 40
0
 40
0
 40
0
 40
0
 40
1
 40
1
 40
1
 40
1
 10
9074.439000
 20
4634.277514
 30
0.0
 10
8711.123250
 20
5000.446489
 30
0.0
 10
8199.642750
 20
5212.267339
 30
0.0
 10
7683.852000
 20
5210.277364
 30
0.0
  0
SPLINE
  5
213
100
AcDbEntity
  8
PLASMA
 62
7
100
AcDbSpline
 70
8
 71
3
 72
8
 73
4
 74
0
 40
0
 40
0
 40
0
 40
0
 40
1
 40
1
 40
1
 40
1
 10
8239.239750
 20
3799.078939
 30
0.0
 10
8094.135000
 20
3945.323539
 30
0.0
 10
7889.854500
 20
4029.922939
 30
0.0
 10
7683.852000
 20
4029.128164
 30
0.0
  0
SPLINE
  5
214
100
AcDbEntity
  8
PLASMA
 62
7
100
AcDbSpline
 70
8
 71
3
 72
8
 73
4
 74
0
 40
0
 40
0
 40
0
 40
0
 40
1
 40
1
 40
1
 40
1
 10
7270.273275
 20
5210.280964
 30
0.0
 10
6625.493400
 20
5212.802914
 30
0.0
 10
5986.179075
 20
4947.938764
 30
0.0
 10
5532.038775
 20
4490.280664
 30
0.0
  0
SPLINE
  5
215
100
AcDbEntity
  8
PLASMA
 62
7
100
AcDbSpline
 70
8
 71
3
 72
8
 73
4
 74
0
 40
0
 40
0
 40
0
 40
0
 40
1
 40
1
 40
1
 40
1
 10
7270.273275
 20
4029.128164
 30
0.0
 10
6935.302575
 20
4030.438339
 30
0.0
 10
6603.171225
 20
3892.838239
 30
0.0
 10
6367.239975
 20
3655.079464
 30
0.0
  0
SPLINE
  5
216
100
AcDbEntity
  8
PLASMA
 62
7
100
AcDbSpline
 70
8
 71
3
 72
8
 73
4
 74
0
 40
0
 40
0
 40
0
 40
0
 40
1
 40
1
 40
1
 40
1
 10
9563.689500
 20
2190.021364
 30
0.0
 10
9564.394500
 20
2370.245239
 30
0.0
 10
9490.361250
 20
2548.941439
 30
0.0
 10
9362.440500
 20
2675.879239
 30
0.0
  0
SPLINE
  5
217
100
AcDbEntity
  8
PLASMA
 62
7
100
AcDbSpline
 70
8
 71
3
 72
8
 73
4
 74
0
 40
0
 40
0
 40
0
 40
0
 40
1
 40
1
 40
1
 40
1
 10
10744.838250
 20
2190.021364
 30
0.0
 10
10746.755250
 20
2680.053439
 30
0.0
 10
10545.459000
 20
3165.931714
 30
0.0
 10
10197.639000
 20
3511.077814
 30
0.0
  0
SPLINE
  5
218
100
AcDbEntity
  8
PLASMA
 62
7
100
AcDbSpline
 70
8
 71
3
 72
8
 73
4
 74
0
 40
0
 40
0
 40
0
 40
0
 40
1
 40
1
 40
1
 40
1
 10
9218.437500
 20
803.878508
 30
0.0
 10
9437.915250
 20
1021.646186
 30
0.0
 10
9564.878250
 20
1328.222164
 30
0.0
 10
9563.685750
 20
1637.381764
 30
0.0
  0
SPLINE
  5
219
100
AcDbEntity
  8
PLASMA
 62
7
100
AcDbSpline
 70
8
 71
3
 72
8
 73
4
 74
0
 40
0
 40
0
 40
0
 40
0
 40
1
 40
1
 40
1
 40
1
 10
10053.638250
 20
-31.322636
 30
0.0
 10
10493.041500
 20
404.656316
 30
0.0
 10
10747.226250
 20
1018.432789
 30
0.0
 10
10744.838250
 20
1637.381764
 30
0.0
  0
SPLINE
  5
21a
100
AcDbEntity
  8
PLASMA
 62
7
100
AcDbSpline
 70
8
 71
3
 72
8
 73
4
 74
0
 40
0
 40
0
 40
0
 40
0
 40
1
 40
1
 40
1
 40
1
 10
9563.689500
 20
-1496.378636
 30
0.0
 10
9564.394500
 20
-1316.154761
 30
0.0
 10
9490.361250
 20
-1137.458561
 30
0.0
 10
9362.440500
 20
-1010.520761
 30
0.0
  0
SPLINE
  5
21b
100
AcDbEntity
  8
PLASMA
 62
7
100
AcDbSpline
 70
8
 71
3
 72
8
 73
4
 74
0
 40
0
 40
0
 40
0
 40
0
 40
1
 40
1
 40
1
 40
1
 10
10744.838250
 20
-1496.378636
 30
0.0
 10
10746.755250
 20
-1006.346561
 30
0.0
 10
10545.459000
 20
-520.468286
 30
0.0
 10
10197.639000
 20
-175.322186
 30
0.0
  0
SPLINE
  5
21c
100
AcDbEntity
  8
PLASMA
 62
7
100
AcDbSpline
 70
8
 71
3
 72
8
 73
4
 74
0
 40
0
 40
0
 40
0
 40
0
 40
1
 40
1
 40
1
 40
1
 10
9218.437500
 20
-2882.521511
 30
0.0
 10
9437.915250
 20
-2664.753836
 30
0.0
 10
9564.878250
 20
-2358.177836
 30
0.0
 10
9563.685750
 20
-2049.018236
 30
0.0
  0
SPLINE
  5
21d
100
AcDbEntity
  8
PLASMA
 62
7
100
AcDbSpline
 70
8
 71
3
 72
8
 73
4
 74
0
 40
0
 40
0
 40
0
 40
0
 40
1
 40
1
 40
1
 40
1
 10
10053.638250
 20
-3717.722636
 30
0.0
 10
10493.041500
 20
-3281.743661
 30
0.0
 10
10747.226250
 20
-2667.967211
 30
0.0
 10
10744.838250
 20
-2049.018236
 30
0.0
  0
SPLINE
  5
21e
100
AcDbEntity
  8
PLASMA
 62
7
100
AcDbSpline
 70
8
 71
3
 72
8
 73
4
 74
0
 40
0
 40
0
 40
0
 40
0
 40
1
 40
1
 40
1
 40
1
 10
6511.239900
 20
-3861.721211
 30
0.0
 10
6620.013000
 20
-3971.348561
 30
0.0
 10
6773.145150
 20
-4034.765636
 30
0.0
 10
6927.567675
 20
-4034.169836
 30
0.0
  0
SPLINE
  5
21f
100
AcDbEntity
  8
PLASMA
 62
7
100
AcDbSpline
 70
8
 71
3
 72
8
 73
4
 74
0
 40
0
 40
0
 40
0
 40
0
 40
1
 40
1
 40
1
 40
1
 10
5676.038775
 20
-4696.922411
 30
0.0
 10
6003.023175
 20
-5026.474661
 30
0.0
 10
6463.355775
 20
-5217.113636
 30
0.0
 10
6927.567675
 20
-5215.322636
 30
0.0
  0
SPLINE
  5
220
100
AcDbEntity
  8
PLASMA
 62
7
100
AcDbSpline
 70
8
 71
3
 72
8
 73
4
 74
0
 40
0
 40
0
 40
0
 40
0
 40
1
 40
1
 40
1
 40
1
 10
7619.264250
 20
-4034.169836
 30
0.0
 10
7902.653250
 20
-4035.278261
 30
0.0
 10
8183.640000
 20
-3918.867161
 30
0.0
 10
8383.240500
 20
-3717.720761
 30
0.0
  0
SPLINE
  5
221
100
AcDbEntity
  8
PLASMA
 62
7
100
AcDbSpline
 70
8
 71
3
 72
8
 73
4
 74
0
 40
0
 40
0
 40
0
 40
0
 40
1
 40
1
 40
1
 40
1
 10
7619.264250
 20
-5215.319036
 30
0.0
 10
8212.461750
 20
-5217.639236
 30
0.0
 10
8800.630500
 20
-4973.964386
 30
0.0
 10
9218.439000
 20
-4552.919336
 30
0.0
  0
SPLINE
  5
222
100
AcDbEntity
  8
PLASMA
 62
7
100
AcDbSpline
 70
8
 71
3
 72
8
 73
4
 74
0
 40
0
 40
0
 40
0
 40
0
 40
1
 40
1
 40
1
 40
1
 10
10744.838250
 20
-5182.778636
 30
0.0
 10
10746.755250
 20
-4692.746561
 30
0.0
 10
10545.459000
 20
-4206.868286
 30
0.0
 10
10197.639000
 20
-3861.722186
 30
0.0
  0
SPLINE
  5
223
100
AcDbEntity
  8
PLASMA
 62
7
100
AcDbSpline
 70
8
 71
3
 72
8
 73
4
 74
0
 40
0
 40
0
 40
0
 40
0
 40
1
 40
1
 40
1
 40
1
 10
9563.689500
 20
-5182.778636
 30
0.0
 10
9564.394500
 20
-5002.554761
 30
0.0
 10
9490.361250
 20
-4823.858561
 30
0.0
 10
9362.440500
 20
-4696.920761
 30
0.0
  0
SPLINE
  5
224
100
AcDbEntity
  8
PLASMA
 62
7
100
AcDbSpline
 70
8
 71
3
 72
8
 73
4
 74
0
 40
0
 40
0
 40
0
 40
0
 40
1
 40
1
 40
1
 40
1
 10
2709.641625
 20
1667.877814
 30
0.0
 10
2361.781350
 20
1322.728136
 30
0.0
 10
2160.551625
 20
836.822193
 30
0.0
 10
2162.442075
 20
346.821356
 30
0.0
  0
SPLINE
  5
225
100
AcDbEntity
  8
PLASMA
 62
7
100
AcDbSpline
 70
8
 71
3
 72
8
 73
4
 74
0
 40
0
 40
0
 40
0
 40
0
 40
1
 40
1
 40
1
 40
1
 10
3544.840200
 20
832.679235
 30
0.0
 10
3416.904225
 20
705.740149
 30
0.0
 10
3342.896025
 20
527.033764
 30
0.0
 10
3343.591275
 20
346.821356
 30
0.0
  0
SPLINE
  5
226
100
AcDbEntity
  8
PLASMA
 62
7
100
AcDbSpline
 70
8
 71
3
 72
8
 73
4
 74
0
 40
0
 40
0
 40
0
 40
0
 40
1
 40
1
 40
1
 40
1
 10
2162.438475
 20
-205.818236
 30
0.0
 10
2159.939625
 20
-824.925086
 30
0.0
 10
2414.431200
 20
-1438.601936
 30
0.0
 10
2853.638475
 20
-1874.522636
 30
0.0
  0
SPLINE
  5
227
100
AcDbEntity
  8
PLASMA
 62
7
100
AcDbSpline
 70
8
 71
3
 72
8
 73
4
 74
0
 40
0
 40
0
 40
0
 40
0
 40
1
 40
1
 40
1
 40
1
 10
3343.591275
 20
-205.818236
 30
0.0
 10
3342.381975
 20
-514.997561
 30
0.0
 10
3469.387425
 20
-821.556086
 30
0.0
 10
3688.839675
 20
-1039.321511
 30
0.0
  0
SPLINE
  5
228
100
AcDbEntity
  8
PLASMA
 62
7
100
AcDbSpline
 70
8
 71
3
 72
8
 73
4
 74
0
 40
0
 40
0
 40
0
 40
0
 40
1
 40
1
 40
1
 40
1
 10
5215.238475
 20
-7229.626736
 30
0.0
 10
5217.659550
 20
-6610.638611
 30
0.0
 10
4963.390050
 20
-5996.897111
 30
0.0
 10
4524.038550
 20
-5560.922636
 30
0.0
  0
SPLINE
  5
229
100
AcDbEntity
  8
PLASMA
 62
7
100
AcDbSpline
 70
8
 71
3
 72
8
 73
4
 74
0
 40
0
 40
0
 40
0
 40
0
 40
1
 40
1
 40
1
 40
1
 10
4034.085675
 20
-7229.626736
 30
0.0
 10
4035.294975
 20
-6920.447486
 30
0.0
 10
3908.289600
 20
-6613.889261
 30
0.0
 10
3688.837350
 20
-6396.123761
 30
0.0
  0
SPLINE
  5
22a
100
AcDbEntity
  8
PLASMA
 62
7
100
AcDbSpline
 70
8
 71
3
 72
8
 73
4
 74
0
 40
0
 40
0
 40
0
 40
0
 40
1
 40
1
 40
1
 40
1
 10
3832.840350
 20
-8268.120986
 30
0.0
 10
3960.776400
 20
-8141.181986
 30
0.0
 10
4034.784600
 20
-7962.475736
 30
0.0
 10
4034.089275
 20
-7782.262736
 30
0.0
  0
SPLINE
  5
22b
100
AcDbEntity
  8
PLASMA
 62
7
100
AcDbSpline
 70
8
 71
3
 72
8
 73
4
 74
0
 40
0
 40
0
 40
0
 40
0
 40
1
 40
1
 40
1
 40
1
 10
4668.039000
 20
-9103.319486
 30
0.0
 10
5015.899275
 20
-8758.169486
 30
0.0
 10
5217.129000
 20
-8272.263986
 30
0.0
 10
5215.238475
 20
-7782.262736
 30
0.0
  0
SPLINE
  5
22c
100
AcDbEntity
  8
PLASMA
 62
7
100
AcDbSpline
 70
8
 71
3
 72
8
 73
4
 74
0
 40
0
 40
0
 40
0
 40
0
 40
1
 40
1
 40
1
 40
1
 10
4524.040425
 20
-9247.320986
 30
0.0
 10
4723.642800
 20
-9448.490486
 30
0.0
 10
5004.645375
 20
-9564.863486
 30
0.0
 10
5288.016075
 20
-9563.769986
 30
0.0
  0
SPLINE
  5
22d
100
AcDbEntity
  8
PLASMA
 62
7
100
AcDbSpline
 70
8
 71
3
 72
8
 73
4
 74
0
 40
0
 40
0
 40
0
 40
0
 40
1
 40
1
 40
1
 40
1
 10
3688.841775
 20
-10082.519486
 30
0.0
 10
4106.654775
 20
-10503.613736
 30
0.0
 10
4694.856975
 20
-10747.207736
 30
0.0
 10
5288.016075
 20
-10744.918736
 30
0.0
  0
SPLINE
  5
22e
100
AcDbEntity
  8
PLASMA
 62
7
100
AcDbSpline
 70
8
 71
3
 72
8
 73
4
 74
0
 40
0
 40
0
 40
0
 40
0
 40
1
 40
1
 40
1
 40
1
 10
837.640425
 20
-9247.320986
 30
0.0
 10
1037.242800
 20
-9448.490486
 30
0.0
 10
1318.245375
 20
-9564.863486
 30
0.0
 10
1601.616075
 20
-9563.769986
 30
0.0
  0
SPLINE
  5
22f
100
AcDbEntity
  8
PLASMA
 62
7
100
AcDbSpline
 70
8
 71
3
 72
8
 73
4
 74
0
 40
0
 40
0
 40
0
 40
0
 40
1
 40
1
 40
1
 40
1
 10
2.441798
 20
-10082.519486
 30
0.0
 10
420.254775
 20
-10503.613736
 30
0.0
 10
1008.456975
 20
-10747.207736
 30
0.0
 10
1601.616075
 20
-10744.918736
 30
0.0
  0
SPLINE
  5
230
100
AcDbEntity
  8
PLASMA
 62
7
100
AcDbSpline
 70
8
 71
3
 72
8
 73
4
 74
0
 40
0
 40
0
 40
0
 40
0
 40
1
 40
1
 40
1
 40
1
 10
2293.312875
 20
-9563.769986
 30
0.0
 10
2447.745375
 20
-9564.373736
 30
0.0
 10
2600.868750
 20
-9500.935736
 30
0.0
 10
2709.640725
 20
-9391.320986
 30
0.0
  0
SPLINE
  5
231
100
AcDbEntity
  8
PLASMA
 62
7
100
AcDbSpline
 70
8
 71
3
 72
8
 73
4
 74
0
 40
0
 40
0
 40
0
 40
0
 40
1
 40
1
 40
1
 40
1
 10
2293.312875
 20
-10744.922486
 30
0.0
 10
2757.554475
 20
-10746.738236
 30
0.0
 10
3217.860825
 20
-10556.036486
 30
0.0
 10
3544.841850
 20
-10226.522486
 30
0.0
  0
SPLINE
  5
232
100
AcDbEntity
  8
PLASMA
 62
7
100
AcDbSpline
 70
8
 71
3
 72
8
 73
4
 74
0
 40
0
 40
0
 40
0
 40
0
 40
1
 40
1
 40
1
 40
1
 10
-2848.759575
 20
-9247.320986
 30
0.0
 10
-2649.157200
 20
-9448.490486
 30
0.0
 10
-2368.154625
 20
-9564.863486
 30
0.0
 10
-2084.783925
 20
-9563.769986
 30
0.0
  0
SPLINE
  5
233
100
AcDbEntity
  8
PLASMA
 62
7
100
AcDbSpline
 70
8
 71
3
 72
8
 73
4
 74
0
 40
0
 40
0
 40
0
 40
0
 40
1
 40
1
 40
1
 40
1
 10
-3683.958225
 20
-10082.519486
 30
0.0
 10
-3266.145225
 20
-10503.613736
 30
0.0
 10
-2677.943025
 20
-10747.207736
 30
0.0
 10
-2084.783925
 20
-10744.918736
 30
0.0
  0
SPLINE
  5
234
100
AcDbEntity
  8
PLASMA
 62
7
100
AcDbSpline
 70
8
 71
3
 72
8
 73
4
 74
0
 40
0
 40
0
 40
0
 40
0
 40
1
 40
1
 40
1
 40
1
 10
-1393.087125
 20
-9563.769986
 30
0.0
 10
-1238.654625
 20
-9564.373736
 30
0.0
 10
-1085.531250
 20
-9500.935736
 30
0.0
 10
-976.759275
 20
-9391.320986
 30
0.0
  0
SPLINE
  5
235
100
AcDbEntity
  8
PLASMA
 62
7
100
AcDbSpline
 70
8
 71
3
 72
8
 73
4
 74
0
 40
0
 40
0
 40
0
 40
0
 40
1
 40
1
 40
1
 40
1
 10
-1393.087125
 20
-10744.922486
 30
0.0
 10
-928.845525
 20
-10746.738236
 30
0.0
 10
-468.539167
 20
-10556.036486
 30
0.0
 10
-141.558150
 20
-10226.522486
 30
0.0
  0
SPLINE
  5
236
100
AcDbEntity
  8
PLASMA
 62
7
100
AcDbSpline
 70
8
 71
3
 72
8
 73
4
 74
0
 40
0
 40
0
 40
0
 40
0
 40
1
 40
1
 40
1
 40
1
 10
-5079.487125
 20
-9563.769986
 30
0.0
 10
-4925.054625
 20
-9564.373736
 30
0.0
 10
-4771.931250
 20
-9500.935736
 30
0.0
 10
-4663.159275
 20
-9391.320986
 30
0.0
  0
SPLINE
  5
237
100
AcDbEntity
  8
PLASMA
 62
7
100
AcDbSpline
 70
8
 71
3
 72
8
 73
4
 74
0
 40
0
 40
0
 40
0
 40
0
 40
1
 40
1
 40
1
 40
1
 10
-5079.487125
 20
-10744.922486
 30
0.0
 10
-4615.245525
 20
-10746.738236
 30
0.0
 10
-4154.939175
 20
-10556.036486
 30
0.0
 10
-3827.958150
 20
-10226.522486
 30
0.0
  0
SPLINE
  5
238
100
AcDbEntity
  8
PLASMA
 62
7
100
AcDbSpline
 70
8
 71
3
 72
8
 73
4
 74
0
 40
0
 40
0
 40
0
 40
0
 40
1
 40
1
 40
1
 40
1
 10
-4663.158375
 20
-5704.922186
 30
0.0
 10
-5011.018650
 20
-6050.071886
 30
0.0
 10
-5212.248375
 20
-6535.977836
 30
0.0
 10
-5210.357925
 20
-7025.978486
 30
0.0
  0
SPLINE
  5
239
100
AcDbEntity
  8
PLASMA
 62
7
100
AcDbSpline
 70
8
 71
3
 72
8
 73
4
 74
0
 40
0
 40
0
 40
0
 40
0
 40
1
 40
1
 40
1
 40
1
 10
-5210.361525
 20
-7578.618236
 30
0.0
 10
-5212.782525
 20
-8197.606736
 30
0.0
 10
-4958.513025
 20
-8811.348236
 30
0.0
 10
-4519.161525
 20
-9247.322486
 30
0.0
  0
SPLINE
  5
23a
100
AcDbEntity
  8
PLASMA
 62
7
100
AcDbSpline
 70
8
 71
3
 72
8
 73
4
 74
0
 40
0
 40
0
 40
0
 40
0
 40
1
 40
1
 40
1
 40
1
 10
-3827.959800
 20
-6540.120761
 30
0.0
 10
-3955.895775
 20
-6667.059986
 30
0.0
 10
-4029.903975
 20
-6845.766236
 30
0.0
 10
-4029.208725
 20
-7025.978486
 30
0.0
  0
SPLINE
  5
23b
100
AcDbEntity
  8
PLASMA
 62
7
100
AcDbSpline
 70
8
 71
3
 72
8
 73
4
 74
0
 40
0
 40
0
 40
0
 40
0
 40
1
 40
1
 40
1
 40
1
 10
-4029.208725
 20
-7578.618236
 30
0.0
 10
-4030.418025
 20
-7887.797486
 30
0.0
 10
-3903.412575
 20
-8194.356236
 30
0.0
 10
-3683.960325
 20
-8412.121736
 30
0.0
  0
SPLINE
  5
23c
100
AcDbEntity
  8
PLASMA
 62
7
100
AcDbSpline
 70
8
 71
3
 72
8
 73
4
 74
0
 40
0
 40
0
 40
0
 40
0
 40
1
 40
1
 40
1
 40
1
 10
-102.526687
 20
-2162.519036
 30
0.0
 10
-747.306570
 20
-2159.997086
 30
0.0
 10
-1386.620925
 20
-2424.861236
 30
0.0
 10
-1840.761225
 20
-2882.519336
 30
0.0
  0
SPLINE
  5
23d
100
AcDbEntity
  8
PLASMA
 62
7
100
AcDbSpline
 70
8
 71
3
 72
8
 73
4
 74
0
 40
0
 40
0
 40
0
 40
0
 40
1
 40
1
 40
1
 40
1
 10
-102.526687
 20
-3343.671836
 30
0.0
 10
-437.497448
 20
-3342.361661
 30
0.0
 10
-769.628775
 20
-3479.961761
 30
0.0
 10
-1005.560025
 20
-3717.720536
 30
0.0
  0
SPLINE
  5
23e
100
AcDbEntity
  8
PLASMA
 62
7
100
AcDbSpline
 70
8
 71
3
 72
8
 73
4
 74
0
 40
0
 40
0
 40
0
 40
0
 40
1
 40
1
 40
1
 40
1
 10
1701.638700
 20
-2738.522486
 30
0.0
 10
1338.323025
 20
-2372.353511
 30
0.0
 10
826.842750
 20
-2160.532661
 30
0.0
 10
311.052113
 20
-2162.522636
 30
0.0
  0
SPLINE
  5
23f
100
AcDbEntity
  8
PLASMA
 62
7
100
AcDbSpline
 70
8
 71
3
 72
8
 73
4
 74
0
 40
0
 40
0
 40
0
 40
0
 40
1
 40
1
 40
1
 40
1
 10
866.440050
 20
-3573.721061
 30
0.0
 10
721.335007
 20
-3427.476461
 30
0.0
 10
517.054327
 20
-3342.877061
 30
0.0
 10
311.052113
 20
-3343.671836
 30
0.0
  0
SPLINE
  5
240
100
AcDbEntity
  8
PLASMA
 62
7
100
AcDbSpline
 70
8
 71
3
 72
8
 73
4
 74
0
 40
0
 40
0
 40
0
 40
0
 40
1
 40
1
 40
1
 40
1
 10
-10048.761750
 20
-3717.722636
 30
0.0
 10
-10488.164250
 20
-4153.701611
 30
0.0
 10
-10742.349750
 20
-4767.478061
 30
0.0
 10
-10739.961750
 20
-5386.427036
 30
0.0
  0
SPLINE
  5
241
100
AcDbEntity
  8
PLASMA
 62
7
100
AcDbSpline
 70
8
 71
3
 72
8
 73
4
 74
0
 40
0
 40
0
 40
0
 40
0
 40
1
 40
1
 40
1
 40
1
 10
-9213.560250
 20
-4552.923761
 30
0.0
 10
-9433.038000
 20
-4770.691436
 30
0.0
 10
-9560.001750
 20
-5077.267436
 30
0.0
 10
-9558.808500
 20
-5386.427036
 30
0.0
  0
SPLINE
  5
242
100
AcDbEntity
  8
PLASMA
 62
7
100
AcDbSpline
 70
8
 71
3
 72
8
 73
4
 74
0
 40
0
 40
0
 40
0
 40
0
 40
1
 40
1
 40
1
 40
1
 10
-8234.360250
 20
-3861.721211
 30
0.0
 10
-8125.587000
 20
-3971.348561
 30
0.0
 10
-7972.455000
 20
-4034.765636
 30
0.0
 10
-7818.032250
 20
-4034.169836
 30
0.0
  0
SPLINE
  5
243
100
AcDbEntity
  8
PLASMA
 62
7
100
AcDbSpline
 70
8
 71
3
 72
8
 73
4
 74
0
 40
0
 40
0
 40
0
 40
0
 40
1
 40
1
 40
1
 40
1
 10
-9069.561000
 20
-4696.922411
 30
0.0
 10
-8742.576750
 20
-5026.474661
 30
0.0
 10
-8282.244000
 20
-5217.113636
 30
0.0
 10
-7818.032250
 20
-5215.322636
 30
0.0
  0
SPLINE
  5
244
100
AcDbEntity
  8
PLASMA
 62
7
100
AcDbSpline
 70
8
 71
3
 72
8
 73
4
 74
0
 40
0
 40
0
 40
0
 40
0
 40
1
 40
1
 40
1
 40
1
 10
-7126.335525
 20
-4034.169836
 30
0.0
 10
-6842.946675
 20
-4035.278261
 30
0.0
 10
-6561.960075
 20
-3918.867161
 30
0.0
 10
-6362.359800
 20
-3717.720761
 30
0.0
  0
SPLINE
  5
245
100
AcDbEntity
  8
PLASMA
 62
7
100
AcDbSpline
 70
8
 71
3
 72
8
 73
4
 74
0
 40
0
 40
0
 40
0
 40
0
 40
1
 40
1
 40
1
 40
1
 10
-7126.335525
 20
-5215.319036
 30
0.0
 10
-6533.138550
 20
-5217.639236
 30
0.0
 10
-5944.969875
 20
-4973.964386
 30
0.0
 10
-5527.161150
 20
-4552.919336
 30
0.0
  0
SPLINE
  5
246
100
AcDbEntity
  8
PLASMA
 62
7
100
AcDbSpline
 70
8
 71
3
 72
8
 73
4
 74
0
 40
0
 40
0
 40
0
 40
0
 40
1
 40
1
 40
1
 40
1
 10
-10739.958000
 20
-2252.663036
 30
0.0
 10
-10741.874250
 20
-2742.695111
 30
0.0
 10
-10540.578000
 20
-3228.573386
 30
0.0
 10
-10192.758750
 20
-3573.719561
 30
0.0
  0
SPLINE
  5
247
100
AcDbEntity
  8
PLASMA
 62
7
100
AcDbSpline
 70
8
 71
3
 72
8
 73
4
 74
0
 40
0
 40
0
 40
0
 40
0
 40
1
 40
1
 40
1
 40
1
 10
-9558.808500
 20
-2252.663036
 30
0.0
 10
-9559.513500
 20
-2432.886911
 30
0.0
 10
-9485.481000
 20
-2611.583111
 30
0.0
 10
-9357.559500
 20
-2738.520911
 30
0.0
  0
SPLINE
  5
248
100
AcDbEntity
  8
PLASMA
 62
7
100
AcDbSpline
 70
8
 71
3
 72
8
 73
4
 74
0
 40
0
 40
0
 40
0
 40
0
 40
1
 40
1
 40
1
 40
1
 10
-9213.560250
 20
-866.523761
 30
0.0
 10
-9433.038000
 20
-1084.291436
 30
0.0
 10
-9560.001750
 20
-1390.867436
 30
0.0
 10
-9558.808500
 20
-1700.027036
 30
0.0
  0
SPLINE
  5
249
100
AcDbEntity
  8
PLASMA
 62
7
100
AcDbSpline
 70
8
 71
3
 72
8
 73
4
 74
0
 40
0
 40
0
 40
0
 40
0
 40
1
 40
1
 40
1
 40
1
 10
-10048.761750
 20
-31.322636
 30
0.0
 10
-10488.164250
 20
-467.301611
 30
0.0
 10
-10742.349750
 20
-1081.078061
 30
0.0
 10
-10739.961750
 20
-1700.027036
 30
0.0
  0
SPLINE
  5
24a
100
AcDbEntity
  8
PLASMA
 62
7
100
AcDbSpline
 70
8
 71
3
 72
8
 73
4
 74
0
 40
0
 40
0
 40
0
 40
0
 40
1
 40
1
 40
1
 40
1
 10
-9558.808500
 20
1433.736956
 30
0.0
 10
-9559.513500
 20
1253.513066
 30
0.0
 10
-9485.481000
 20
1074.816859
 30
0.0
 10
-9357.559500
 20
947.879081
 30
0.0
  0
SPLINE
  5
24b
100
AcDbEntity
  8
PLASMA
 62
7
100
AcDbSpline
 70
8
 71
3
 72
8
 73
4
 74
0
 40
0
 40
0
 40
0
 40
0
 40
1
 40
1
 40
1
 40
1
 10
-10739.958000
 20
1433.736956
 30
0.0
 10
-10741.874250
 20
943.704889
 30
0.0
 10
-10540.578000
 20
457.826621
 30
0.0
 10
-10192.758750
 20
112.680469
 30
0.0
  0
SPLINE
  5
24c
100
AcDbEntity
  8
PLASMA
 62
7
100
AcDbSpline
 70
8
 71
3
 72
8
 73
4
 74
0
 40
0
 40
0
 40
0
 40
0
 40
1
 40
1
 40
1
 40
1
 10
-10048.761750
 20
3655.077364
 30
0.0
 10
-10488.164250
 20
3219.098389
 30
0.0
 10
-10742.349750
 20
2605.321939
 30
0.0
 10
-10739.961750
 20
1986.372964
 30
0.0
  0
SPLINE
  5
24d
100
AcDbEntity
  8
PLASMA
 62
7
100
AcDbSpline
 70
8
 71
3
 72
8
 73
4
 74
0
 40
0
 40
0
 40
0
 40
0
 40
1
 40
1
 40
1
 40
1
 10
-9213.560250
 20
2819.876239
 30
0.0
 10
-9433.038000
 20
2602.108564
 30
0.0
 10
-9560.001750
 20
2295.532564
 30
0.0
 10
-9558.808500
 20
1986.372964
 30
0.0
  0
SPLINE
  5
24e
100
AcDbEntity
  8
PLASMA
 62
7
100
AcDbSpline
 70
8
 71
3
 72
8
 73
4
 74
0
 40
0
 40
0
 40
0
 40
0
 40
1
 40
1
 40
1
 40
1
 10
-7475.326725
 20
5210.280964
 30
0.0
 10
-8120.106750
 20
5212.802914
 30
0.0
 10
-8759.421000
 20
4947.938764
 30
0.0
 10
-9213.561000
 20
4490.280664
 30
0.0
  0
SPLINE
  5
24f
100
AcDbEntity
  8
PLASMA
 62
7
100
AcDbSpline
 70
8
 71
3
 72
8
 73
4
 74
0
 40
0
 40
0
 40
0
 40
0
 40
1
 40
1
 40
1
 40
1
 10
-7475.326725
 20
4029.128164
 30
0.0
 10
-7810.297500
 20
4030.438339
 30
0.0
 10
-8142.429000
 20
3892.838239
 30
0.0
 10
-8378.360250
 20
3655.079464
 30
0.0
  0
SPLINE
  5
250
100
AcDbEntity
  8
PLASMA
 62
7
100
AcDbSpline
 70
8
 71
3
 72
8
 73
4
 74
0
 40
0
 40
0
 40
0
 40
0
 40
1
 40
1
 40
1
 40
1
 10
-5671.161300
 20
4634.277514
 30
0.0
 10
-6034.476975
 20
5000.446489
 30
0.0
 10
-6545.957250
 20
5212.267339
 30
0.0
 10
-7061.747925
 20
5210.277364
 30
0.0
  0
SPLINE
  5
251
100
AcDbEntity
  8
PLASMA
 62
7
100
AcDbSpline
 70
8
 71
3
 72
8
 73
4
 74
0
 40
0
 40
0
 40
0
 40
0
 40
1
 40
1
 40
1
 40
1
 10
-6506.359950
 20
3799.078939
 30
0.0
 10
-6651.465000
 20
3945.323539
 30
0.0
 10
-6855.745650
 20
4029.922939
 30
0.0
 10
-7061.747925
 20
4029.128164
 30
0.0
  0
SPLINE
  5
252
100
AcDbEntity
  8
PLASMA
 62
7
100
AcDbSpline
 70
8
 71
3
 72
8
 73
4
 74
0
 40
0
 40
0
 40
0
 40
0
 40
1
 40
1
 40
1
 40
1
 10
-2157.561525
 20
143.172956
 30
0.0
 10
-2155.140450
 20
762.161381
 30
0.0
 10
-2409.409950
 20
1375.902896
 30
0.0
 10
-2848.761450
 20
1811.877364
 30
0.0
  0
SPLINE
  5
253
100
AcDbEntity
  8
PLASMA
 62
7
100
AcDbSpline
 70
8
 71
3
 72
8
 73
4
 74
0
 40
0
 40
0
 40
0
 40
0
 40
1
 40
1
 40
1
 40
1
 10
-3338.714325
 20
143.172956
 30
0.0
 10
-3337.505025
 20
452.352259
 30
0.0
 10
-3464.510400
 20
758.910776
 30
0.0
 10
-3683.962650
 20
976.676209
 30
0.0
  0
SPLINE
  5
254
100
AcDbEntity
  8
PLASMA
 62
7
100
AcDbSpline
 70
8
 71
3
 72
8
 73
4
 74
0
 40
0
 40
0
 40
0
 40
0
 40
1
 40
1
 40
1
 40
1
 10
-3539.959575
 20
-895.320911
 30
0.0
 10
-3412.023600
 20
-768.381836
 30
0.0
 10
-3338.015400
 20
-589.675436
 30
0.0
 10
-3338.710725
 20
-409.463036
 30
0.0
  0
SPLINE
  5
255
100
AcDbEntity
  8
PLASMA
 62
7
100
AcDbSpline
 70
8
 71
3
 72
8
 73
4
 74
0
 40
0
 40
0
 40
0
 40
0
 40
1
 40
1
 40
1
 40
1
 10
-2704.761000
 20
-1730.519561
 30
0.0
 10
-2356.900725
 20
-1385.369786
 30
0.0
 10
-2155.671000
 20
-899.463911
 30
0.0
 10
-2157.561525
 20
-409.463036
 30
0.0
  0
ENDSEC
  0
SECTION
  2
OBJECTS
  0
DICTIONARY
  5
C
330
0
100
AcDbDictionary
  3
ACAD_GROUP
350
D
  3
ACAD_MLINESTYLE
350
17
  0
DICTIONARY
  5
D
330
C
100
AcDbDictionary
  0
DICTIONARY
  5
1A
330
C
100
AcDbDictionary
  0
DICTIONARY
  5
17
330
C
100
AcDbDictionary
  3
STANDARD
350
18
  0
DICTIONARY
  5
19
330
C
100
AcDbDictionary
  0
ENDSEC
  0
EOF
