  0
SECTION
  2
HEADER
  9
$ACADVER
  1
AC1018
  9
$ACADMAINTVER
 70
     0
  9
$DWGCODEPAGE
  3
ANSI_1252
  9
$INSBASE
 10
0.0
 20
0.0
 30
0.0
  9
$EXTMIN
 10
1.000000000000000E+20
 20
1.000000000000000E+20
 30
1.000000000000000E+20
  9
$EXTMAX
 10
-1.000000000000000E+20
 20
-1.000000000000000E+20
 30
-1.000000000000000E+20
  9
$LIMMIN
 10
0.0
 20
0.0
  9
$LIMMAX
 10
420.0
 20
297.0
  9
$ORTHOMODE
 70
     0
  9
$REGENMODE
 70
     1
  9
$FILLMODE
 70
     1
  9
$QTEXTMODE
 70
     0
  9
$MIRRTEXT
 70
     0
  9
$LTSCALE
 40
1.0
  9
$ATTMODE
 70
     1
  9
$TEXTSIZE
 40
2.5
  9
$TRACEWID
 40
1.0
  9
$TEXTSTYLE
  7
Standard
  9
$CLAYER
  8
035
  9
$CELTYPE
  6
ByLayer
  9
$CECOLOR
 62
   256
  9
$CELTSCALE
 40
1.0
  9
$DISPSILH
 70
     0
  9
$DIMSCALE
 40
1.0
  9
$DIMASZ
 40
2.5
  9
$DIMEXO
 40
0.625
  9
$DIMDLI
 40
3.75
  9
$DIMRND
 40
0.0
  9
$DIMDLE
 40
0.0
  9
$DIMEXE
 40
1.25
  9
$DIMTP
 40
0.0
  9
$DIMTM
 40
0.0
  9
$DIMTXT
 40
2.5
  9
$DIMCEN
 40
2.5
  9
$DIMTSZ
 40
0.0
  9
$DIMTOL
 70
     0
  9
$DIMLIM
 70
     0
  9
$DIMTIH
 70
     1
  9
$DIMTOH
 70
     0
  9
$DIMSE1
 70
     0
  9
$DIMSE2
 70
     0
  9
$DIMTAD
 70
     1
  9
$DIMZIN
 70
     8
  9
$DIMBLK
  1

  9
$DIMASO
 70
     1
  9
$DIMSHO
 70
     1
  9
$DIMPOST
  1

  9
$DIMAPOST
  1

  9
$DIMALT
 70
     0
  9
$DIMALTD
 70
     2
  9
$DIMALTF
 40
0.0394
  9
$DIMLFAC
 40
1.0
  9
$DIMTOFL
 70
     1
  9
$DIMTVP
 40
1.0
  9
$DIMTIX
 70
     0
  9
$DIMSOXD
 70
     0
  9
$DIMSAH
 70
     0
  9
$DIMBLK1
  1

  9
$DIMBLK2
  1

  9
$DIMSTYLE
  2
DIN
  9
$DIMCLRD
 70
     0
  9
$DIMCLRE
 70
     0
  9
$DIMCLRT
 70
     0
  9
$DIMTFAC
 40
1.0
  9
$DIMGAP
 40
0.625
  9
$DIMJUST
 70
     0
  9
$DIMSD1
 70
     0
  9
$DIMSD2
 70
     0
  9
$DIMTOLJ
 70
     1
  9
$DIMTZIN
 70
     0
  9
$DIMALTZ
 70
     0
  9
$DIMALTTZ
 70
     0
  9
$DIMUPT
 70
     0
  9
$DIMDEC
 70
     4
  9
$DIMTDEC
 70
     4
  9
$DIMALTU
 70
     8
  9
$DIMALTTD
 70
     2
  9
$DIMTXSTY
  7
Standard
  9
$DIMAUNIT
 70
     0
  9
$DIMADEC
 70
     0
  9
$DIMALTRND
 40
0.0
  9
$DIMAZIN
 70
     0
  9
$DIMDSEP
 70
    46
  9
$DIMATFIT
 70
     3
  9
$DIMFRAC
 70
     0
  9
$DIMLDRBLK
  1

  9
$DIMLUNIT
 70
     6
  9
$DIMLWD
 70
    -2
  9
$DIMLWE
 70
    -2
  9
$DIMTMOVE
 70
     0
  9
$LUNITS
 70
     2
  9
$LUPREC
 70
     4
  9
$SKETCHINC
 40
1.0
  9
$FILLETRAD
 40
0.0
  9
$AUNITS
 70
     0
  9
$AUPREC
 70
     0
  9
$MENU
  1
.
  9
$ELEVATION
 40
0.0
  9
$PELEVATION
 40
0.0
  9
$THICKNESS
 40
0.0
  9
$LIMCHECK
 70
     0
  9
$CHAMFERA
 40
0.0
  9
$CHAMFERB
 40
0.0
  9
$CHAMFERC
 40
0.0
  9
$CHAMFERD
 40
0.0
  9
$SKPOLY
 70
     0
  9
$TDCREATE
 40
2456514.988475741
  9
$TDUCREATE
 40
2456514.905142408
  9
$TDUPDATE
 40
2456518.441348114
  9
$TDUUPDATE
 40
2456518.358014780
  9
$TDINDWG
 40
0.0237212731
  9
$TDUSRTIMER
 40
0.0237210995
  9
$USRTIMER
 70
     1
  9
$ANGBASE
 50
0.0
  9
$ANGDIR
 70
     0
  9
$PDMODE
 70
     0
  9
$PDSIZE
 40
0.0
  9
$PLINEWID
 40
0.0
  9
$SPLFRAME
 70
     0
  9
$SPLINETYPE
 70
     6
  9
$SPLINESEGS
 70
     8
  9
$HANDSEED
  5
1EB
  9
$SURFTAB1
 70
     6
  9
$SURFTAB2
 70
     6
  9
$SURFTYPE
 70
     6
  9
$SURFU
 70
     6
  9
$SURFV
 70
     6
  9
$UCSBASE
  2

  9
$UCSNAME
  2

  9
$UCSORG
 10
0.0
 20
0.0
 30
0.0
  9
$UCSXDIR
 10
1.0
 20
0.0
 30
0.0
  9
$UCSYDIR
 10
0.0
 20
1.0
 30
0.0
  9
$UCSORTHOREF
  2

  9
$UCSORTHOVIEW
 70
     0
  9
$UCSORGTOP
 10
0.0
 20
0.0
 30
0.0
  9
$UCSORGBOTTOM
 10
0.0
 20
0.0
 30
0.0
  9
$UCSORGLEFT
 10
0.0
 20
0.0
 30
0.0
  9
$UCSORGRIGHT
 10
0.0
 20
0.0
 30
0.0
  9
$UCSORGFRONT
 10
0.0
 20
0.0
 30
0.0
  9
$UCSORGBACK
 10
0.0
 20
0.0
 30
0.0
  9
$PUCSBASE
  2

  9
$PUCSNAME
  2

  9
$PUCSORG
 10
0.0
 20
0.0
 30
0.0
  9
$PUCSXDIR
 10
1.0
 20
0.0
 30
0.0
  9
$PUCSYDIR
 10
0.0
 20
1.0
 30
0.0
  9
$PUCSORTHOREF
  2

  9
$PUCSORTHOVIEW
 70
     0
  9
$PUCSORGTOP
 10
0.0
 20
0.0
 30
0.0
  9
$PUCSORGBOTTOM
 10
0.0
 20
0.0
 30
0.0
  9
$PUCSORGLEFT
 10
0.0
 20
0.0
 30
0.0
  9
$PUCSORGRIGHT
 10
0.0
 20
0.0
 30
0.0
  9
$PUCSORGFRONT
 10
0.0
 20
0.0
 30
0.0
  9
$PUCSORGBACK
 10
0.0
 20
0.0
 30
0.0
  9
$USERI1
 70
     0
  9
$USERI2
 70
     0
  9
$USERI3
 70
     0
  9
$USERI4
 70
     0
  9
$USERI5
 70
     0
  9
$USERR1
 40
0.0
  9
$USERR2
 40
0.0
  9
$USERR3
 40
0.0
  9
$USERR4
 40
0.0
  9
$USERR5
 40
0.0
  9
$WORLDVIEW
 70
     1
  9
$SHADEDGE
 70
     3
  9
$SHADEDIF
 70
    70
  9
$TILEMODE
 70
     0
  9
$MAXACTVP
 70
    64
  9
$PINSBASE
 10
0.0
 20
0.0
 30
0.0
  9
$PLIMCHECK
 70
     0
  9
$PEXTMIN
 10
24.5
 20
51.0
 30
0.0
  9
$PEXTMAX
 10
79.5
 20
80.5
 30
0.0
  9
$PLIMMIN
 10
0.0010727036216256
 20
0.0009369324210482
  9
$PLIMMAX
 10
210.0010727036216
 20
297.000936932421
  9
$UNITMODE
 70
     0
  9
$VISRETAIN
 70
     1
  9
$PLINEGEN
 70
     0
  9
$PSLTSCALE
 70
     1
  9
$TREEDEPTH
 70
  3020
  9
$CMLSTYLE
  2
Standard
  9
$CMLJUST
 70
     0
  9
$CMLSCALE
 40
20.0
  9
$PROXYGRAPHICS
 70
     1
  9
$MEASUREMENT
 70
     1
  9
$CELWEIGHT
370
    -1
  9
$ENDCAPS
280
     0
  9
$JOINSTYLE
280
     0
  9
$LWDISPLAY
290
     0
  9
$INSUNITS
 70
     4
  9
$HYPERLINKBASE
  1

  9
$STYLESHEET
  1

  9
$XEDIT
290
     1
  9
$CEPSNTYPE
380
     0
  9
$PSTYLEMODE
290
     0
  9
$FINGERPRINTGUID
  2
{FDEAD56B-A652-11D2-9A35-0060089B3A3F}
  9
$VERSIONGUID
  2
{ED431BB0-4028-4132-BA01-6680A4BFFD3C}
  9
$EXTNAMES
290
     1
  9
$PSVPSCALE
 40
0.0
  9
$OLESTARTUP
290
     0
  9
$SORTENTS
280
   127
  9
$INDEXCTL
280
     0
  9
$HIDETEXT
280
     1
  9
$XCLIPFRAME
290
     0
  9
$HALOGAP
280
     0
  9
$OBSCOLOR
 70
   257
  9
$OBSLTYPE
280
     0
  9
$INTERSECTIONDISPLAY
280
     0
  9
$INTERSECTIONCOLOR
 70
   257
  9
$DIMASSOC
280
     2
  9
$PROJECTNAME
  1

  0
ENDSEC
  0
SECTION
  2
CLASSES
  0
CLASS
  1
ACDBDICTIONARYWDFLT
  2
AcDbDictionaryWithDefault
  3
ObjectDBX Classes
 90
        0
 91
        1
280
     0
281
     0
  0
CLASS
  1
PLOTSETTINGS
  2
AcDbPlotSettings
  3
ObjectDBX Classes
 90
        0
 91
        1
280
     0
281
     0
  0
CLASS
  1
DICTIONARYVAR
  2
AcDbDictionaryVar
  3
ObjectDBX Classes
 90
        0
 91
        2
280
     0
281
     0
  0
ENDSEC
  0
SECTION
  2
TABLES
  0
TABLE
  2
VPORT
  5
8
330
0
100
AcDbSymbolTable
 70
     1
  0
VPORT
  5
1A3
330
8
100
AcDbSymbolTableRecord
100
AcDbViewportTableRecord
  2
*Active
 70
     0
 10
0.0
 20
0.0
 11
1.0
 21
1.0
 12
331.062086573891
 22
148.5
 13
0.0
 23
0.0
 14
10.0
 24
10.0
 15
10.0
 25
10.0
 16
0.0
 26
0.0
 36
1.0
 17
0.0
 27
0.0
 37
0.0
 40
357.8137380813388
 41
1.860887096774193
 42
50.0
 43
0.0
 44
0.0
 50
0.0
 51
0.0
 71
     0
 72
  1000
 73
     1
 74
     3
 75
     0
 76
     0
 77
     0
 78
     0
281
     0
 65
     1
110
0.0
120
0.0
130
0.0
111
1.0
121
0.0
131
0.0
112
0.0
122
1.0
132
0.0
 79
     0
146
0.0
  0
ENDTAB
  0
TABLE
  2
LTYPE
  5
5
330
0
100
AcDbSymbolTable
 70
     1
  0
LTYPE
  5
14
330
5
100
AcDbSymbolTableRecord
100
AcDbLinetypeTableRecord
  2
ByBlock
 70
     0
  3

 72
    65
 73
     0
 40
0.0
  0
LTYPE
  5
15
330
5
100
AcDbSymbolTableRecord
100
AcDbLinetypeTableRecord
  2
ByLayer
 70
     0
  3

 72
    65
 73
     0
 40
0.0
  0
LTYPE
  5
16
330
5
100
AcDbSymbolTableRecord
100
AcDbLinetypeTableRecord
  2
Continuous
 70
     0
  3
Solid line
 72
    65
 73
     0
 40
0.0
  0
ENDTAB
  0
TABLE
  2
LAYER
  5
2
330
0
100
AcDbSymbolTable
 70
     5
  0
LAYER
  5
10
330
2
100
AcDbSymbolTableRecord
100
AcDbLayerTableRecord
  2
0
 70
     0
 62
     7
  6
Continuous
370
    -3
390
F
  0
LAYER
  5
126
330
2
100
AcDbSymbolTableRecord
100
AcDbLayerTableRecord
  2
07
 70
     0
 62
     7
  6
Continuous
370
    -3
390
F
  0
LAYER
  5
127
330
2
100
AcDbSymbolTableRecord
100
AcDbLayerTableRecord
  2
035
 70
     0
 62
     5
  6
Continuous
370
    -3
390
F
  0
LAYER
  5
128
330
2
100
AcDbSymbolTableRecord
100
AcDbLayerTableRecord
  2
05
 70
     0
 62
     6
  6
Continuous
370
    -3
390
F
  0
LAYER
  5
129
330
2
100
AcDbSymbolTableRecord
100
AcDbLayerTableRecord
  2
025
 70
     0
 62
     1
  6
Continuous
370
    -3
390
F
  0
ENDTAB
  0
TABLE
  2
STYLE
  5
3
330
0
100
AcDbSymbolTable
 70
     2
  0
STYLE
  5
11
330
3
100
AcDbSymbolTableRecord
100
AcDbTextStyleTableRecord
  2
Standard
 70
     0
 40
0.0
 41
1.0
 50
0.0
 71
     0
 42
2.5
  3
txt
  4

  0
STYLE
  5
12B
330
3
100
AcDbSymbolTableRecord
100
AcDbTextStyleTableRecord
  2
ISO Proportional
 70
     0
 40
0.0
 41
1.0
 50
0.0
 71
     0
 42
2.5
  3
isocp.shx
  4

  0
ENDTAB
  0
TABLE
  2
VIEW
  5
6
330
0
100
AcDbSymbolTable
 70
     0
  0
ENDTAB
  0
TABLE
  2
UCS
  5
7
330
0
100
AcDbSymbolTable
 70
     0
  0
ENDTAB
  0
TABLE
  2
APPID
  5
9
330
0
100
AcDbSymbolTable
 70
    10
  0
APPID
  5
12
330
9
100
AcDbSymbolTableRecord
100
AcDbRegAppTableRecord
  2
ACAD
 70
     0
  0
APPID
  5
12D
330
9
100
AcDbSymbolTableRecord
100
AcDbRegAppTableRecord
  2
GENIUS_GENTRA_14
 70
     0
  0
APPID
  5
12E
330
9
100
AcDbSymbolTableRecord
100
AcDbRegAppTableRecord
  2
GENIUS_GENODEF_13
 70
     0
  0
APPID
  5
12F
330
9
100
AcDbSymbolTableRecord
100
AcDbRegAppTableRecord
  2
GENIUS_GENOBJ-N-TIT_13
 70
     0
  0
APPID
  5
130
330
9
100
AcDbSymbolTableRecord
100
AcDbRegAppTableRecord
  2
GENIUS_GENTITLE_13
 70
     0
  0
APPID
  5
131
330
9
100
AcDbSymbolTableRecord
100
AcDbRegAppTableRecord
  2
GENIUS_GENOENT_13
 70
     0
  0
APPID
  5
132
330
9
100
AcDbSymbolTableRecord
100
AcDbRegAppTableRecord
  2
GENIUS_GENOREF_13
 70
     0
  0
APPID
  5
133
330
9
100
AcDbSymbolTableRecord
100
AcDbRegAppTableRecord
  2
GENIUS_GENOLIS_13
 70
     0
  0
APPID
  5
134
330
9
100
AcDbSymbolTableRecord
100
AcDbRegAppTableRecord
  2
GENIUS_GENOBJ-N-SDF_13
 70
     0
  0
APPID
  5
135
330
9
100
AcDbSymbolTableRecord
100
AcDbRegAppTableRecord
  2
GENIUS_GENSCREG_13
 70
     0
  0
ENDTAB
  0
TABLE
  2
DIMSTYLE
  5
A
330
0
100
AcDbSymbolTable
 70
     1
100
AcDbDimStyleTable
 71
     1
340
FF
  0
DIMSTYLE
105
FF
330
A
100
AcDbSymbolTableRecord
100
AcDbDimStyleTableRecord
  2
DIN
 70
     0
 41
2.5
 42
0.625
 43
3.75
 44
1.25
 74
     0
 77
     1
 78
     8
140
2.5
141
2.5
143
0.0394
145
1.0
147
0.625
172
     1
273
     8
277
     6
340
11
  0
ENDTAB
  0
TABLE
  2
BLOCK_RECORD
  5
1
330
0
100
AcDbSymbolTable
 70
     1
  0
BLOCK_RECORD
  5
1F
330
1
100
AcDbSymbolTableRecord
100
AcDbBlockTableRecord
  2
*Model_Space
340
22
  0
BLOCK_RECORD
  5
1B
330
1
100
AcDbSymbolTableRecord
100
AcDbBlockTableRecord
  2
*Paper_Space
340
1E
  0
BLOCK_RECORD
  5
136
330
1
100
AcDbSymbolTableRecord
100
AcDbBlockTableRecord
  2
DIN A4 title block
340
0
310
2800000020000000200000000100080000000000000400000000000000000000000000000000000000000000000080000080000000808000800000008000800080800000C0C0C000C0DCC000F0CAA6000020400000206000002080000020A0000020C0000020E00000400000004020000040400000406000004080000040A0
310
000040C0000040E00000600000006020000060400000606000006080000060A0000060C0000060E00000800000008020000080400000806000008080000080A0000080C0000080E00000A0000000A0200000A0400000A0600000A0800000A0A00000A0C00000A0E00000C0000000C0200000C0400000C0600000C0800000C0
310
A00000C0C00000C0E00000E0000000E0200000E0400000E0600000E0800000E0A00000E0C00000E0E00040000000400020004000400040006000400080004000A0004000C0004000E00040200000402020004020400040206000402080004020A0004020C0004020E000404000004040200040404000404060004040800040
310
40A0004040C0004040E00040600000406020004060400040606000406080004060A0004060C0004060E00040800000408020004080400040806000408080004080A0004080C0004080E00040A0000040A0200040A0400040A0600040A0800040A0A00040A0C00040A0E00040C0000040C0200040C0400040C0600040C08000
310
40C0A00040C0C00040C0E00040E0000040E0200040E0400040E0600040E0800040E0A00040E0C00040E0E00080000000800020008000400080006000800080008000A0008000C0008000E00080200000802020008020400080206000802080008020A0008020C0008020E00080400000804020008040400080406000804080
310
008040A0008040C0008040E00080600000806020008060400080606000806080008060A0008060C0008060E00080800000808020008080400080806000808080008080A0008080C0008080E00080A0000080A0200080A0400080A0600080A0800080A0A00080A0C00080A0E00080C0000080C0200080C0400080C0600080C0
310
800080C0A00080C0C00080C0E00080E0000080E0200080E0400080E0600080E0800080E0A00080E0C00080E0E000C0000000C0002000C0004000C0006000C0008000C000A000C000C000C000E000C0200000C0202000C0204000C0206000C0208000C020A000C020C000C020E000C0400000C0402000C0404000C0406000C0
310
408000C040A000C040C000C040E000C0600000C0602000C0604000C0606000C0608000C060A000C060C000C060E000C0800000C0802000C0804000C0806000C0808000C080A000C080C000C080E000C0A00000C0A02000C0A04000C0A06000C0A08000C0A0A000C0A0C000C0A0E000C0C00000C0C02000C0C04000C0C06000
310
C0C08000C0C0A000F0FBFF00A4A0A000808080000000FF0000FF000000FFFF00FF000000FF00FF00FFFF0000FFFFFF00FFFFFFFFFFFFFFFFFFFFFFFFFFFFFFFFFFFFFFFFFFFFFFFFFFFFFFFFFFFFFFFFFFFFFFFFFFFFFFFFFFFFFFFFFFFFFFFFFFFFFFFFFFFFFFFFFFFFFFFFFFFFFFFFFFFFFFFFFFFFFFFFFFFFFFFFFFFFFF
310
FFFFFFFFFFFFFFFFFFFFFFFFFFFFFFFFFFFFFFFFFFFFFFFFFFFFFFFFFFFFFFFFFFFFFFFFFFFFFFFFFFFFFFFFFFFFFFFFFFFFFFFFFFFFFFFFFFFFFFFFFFFFFFFFFFFFFFFFFFFFFFFFFFFFFFFFFFFFFFFFFFFFFFFFFFFFFFFFFFFFFFFFFFFFFFFFFFFFFFFFFFFFFFFFFFFFFFFFFFFFFFFFFFFFFFFFFFFFFFFFFFFFFFFFFFFFFF
310
FFFFFFFFFFFFFFFFFFFFFFFFFFFFFFFFFFFFFFFFFFFFFFFFFFFFFFFFFFFFFFFFFFFFFFFFFFFFFFFFFFFFFFFFFFFFFFFFFFFFFFFFFFFFFFFFFFFFFFFFFFFFFFFFFFFFFFFFFFFFFFFFFFFFFFFFFFFFFFFFFFFFFFFFFFFFFFFFFFFFFFFFFFFFFFFFFFFFFFFFFFFFFFFFFFFFFFFFFFFFFFFFFFFFFFFFFFFFFFFCFC000000000000
310
0000000000FFFFFFFFFFFFFFFFFFFFFFFFFFFFFFFFFFFFFFFC00FCFCF9F9F900FDFDFD0000FFFFFFFFFFFFFFFFFFFFFFFFFFFFFFFFFFFFFFFC00FCFCF9F9F9F9F9F9FD0000FFFFFFFFFFFFFFFFFFFFFFFFFFFFFFFFFFFFFFFC00F9F9F9F9FCF9F9F9FCFC00FFFFFFFFFFFFFFFFFFFFFFFFFFFFFFFFFFFFFFFC00FFFFFFFFFF
310
FFFFFFFFFF00FFFFFFFFFFFFFFFFFFFFFFFFFFFFFFFFFFFFFFFC00FFFFFFFFFFFFFFFFFFFF00FFFFFFFFFFFFFFFFFFFFFFFFFFFFFFFFFFFFFFFC00FFFFFFFFFFFFFFFFFFFF00FFFFFFFFFFFFFFFFFFFFFFFFFFFFFFFFFFFFFFFC00FFFFFFFFFFFFFFFFFFFF00FFFFFFFFFFFFFFFFFFFFFFFFFFFFFFFFFFFFFFFC0000FFFFFF
310
FFFFFFFFFFFF00FFFFFFFFFFFFFFFFFFFFFFFFFFFFFFFFFFFFFFFC00FFFFFFFFFFFFFFFFFFFF00FFFFFFFFFFFFFFFFFFFFFFFFFFFFFFFFFFFFFFFC00FFFFFFFFFFFFFFFFFFFF00FFFFFFFFFFFFFFFFFFFFFFFFFFFFFFFFFFFFFFFC00FFFFFFFFFFFFFFFFFFFF00FFFFFFFFFFFFFFFFFFFFFFFFFFFFFFFFFFFFFFFC00FFFFFF
310
FFFFFFFFFFFFFF00FFFFFFFFFFFFFFFFFFFFFFFFFFFFFFFFFFFFFFFC00FFFFFFFFFFFFFFFFFFFF00FFFFFFFFFFFFFFFFFFFFFFFFFFFFFFFFFFFFFFFC00FFFFFFFFFFFFFFFFFFFF00FFFFFFFFFFFFFFFFFFFFFFFFFFFFFFFFFFFFFFFCFC0000000000000000000000FFFFFFFFFFFFFFFFFFFFFFFFFFFFFFFFFFFFFFFCFCFCFC
310
FCFCFCFCFCFCFCFCFCFFFFFFFFFFFFFFFFFFFFFFFFFFFFFFFFFFFFFFFFFFFFFFFFFFFFFFFFFFFFFFFFFFFFFFFFFFFFFFFFFFFFFFFFFFFFFFFFFFFFFFFFFFFFFFFFFFFFFFFFFFFFFFFFFFFFFFFFFFFFFFFFFFFFFFFFFFFFFFFFFFFFFFFFFFFFFFFFFFFFFFFFFFFFFFFFFFFFFFFFFFFFFFFFFFFFFFFFFFFFFFFFFFFFFFFFFFFF
310
FFFFFFFFFFFFFFFFFFFFFFFFFFFFFFFFFFFFFFFFFFFFFFFFFFFFFFFFFFFFFFFFFFFFFFFFFFFFFFFFFFFFFFFFFFFFFFFFFFFFFFFFFFFFFFFF
1001
ACAD
1000
DesignCenter Data
1002
{
1070
     1
1070
     4
1002
}
  0
ENDTAB
  0
ENDSEC
  0
SECTION
  2
BLOCKS
  0
BLOCK
  5
20
330
1F
100
AcDbEntity
  8
0
100
AcDbBlockBegin
  2
*Model_Space
 70
     0
 10
0.0
 20
0.0
 30
0.0
  3
*Model_Space
  1

  0
ENDBLK
  5
21
330
1F
100
AcDbEntity
  8
0
100
AcDbBlockEnd
  0
BLOCK
  5
1C
330
1B
100
AcDbEntity
 67
     1
  8
0
100
AcDbBlockBegin
  2
*Paper_Space
 70
     0
 10
0.0
 20
0.0
 30
0.0
  3
*Paper_Space
  1

  0
ENDBLK
  5
1D
330
1B
100
AcDbEntity
 67
     1
  8
0
100
AcDbBlockEnd
  0
BLOCK
  5
192
330
136
100
AcDbEntity
  8
0
100
AcDbBlockBegin
  2
DIN A4 title block
 70
     2
 10
0.0
 20
0.0
 30
0.0
  3
DIN A4 title block
  1

  0
POINT
  5
137
330
136
100
AcDbEntity
  8
0
 60
     1
100
AcDbPoint
 10
-74.53732271998524
 20
-81.45789485257829
 30
0.0
1001
GENIUS_GENOBJ-N-TIT_13
1002
{
1000
OWNER
1000
GEN
1002
}
1001
GENIUS_GENOENT_13
1002
{
1000
MYREF
1005
137
1002
}
1002
{
1000
GRP
1005
0
1002
}
1001
GENIUS_GENOLIS_13
1002
{
1000
ENT
1005
0
1005
0
1002
}
1001
GENIUS_GENTITLE_13
1002
{
1000
SCALE
1000
1:1
1002
}
1002
{
1000
BORDER
1000
GEN_A3
1002
}
1002
{
1000
TITLE
1000
GENTITLE
1002
}
1002
{
1000
UNCHG
1002
{
1000
GEN-TITLE-SCA
1000
GEN-TITLE-SIZ
1002
}
1002
}
1002
{
1000
HRA
1005
0
1002
}
1002
{
1000
HTIT
1005
0
1002
}
1002
{
1000
GENIUSID
1005
137
1002
}
1001
GENIUS_GENODEF_13
1002
{
1000
HIER
1070
     1
1002
}
1002
{
1000
MANEDIT
1070
     0
1002
}
1002
{
1000
NOSEL
1070
     0
1002
}
1002
{
1000
BEHIND
1070
     0
1002
}
1002
{
1000
REACTOR
1002
}
  0
TEXT
  5
138
330
136
100
AcDbEntity
  8
0
 60
     1
100
AcDbText
 10
420.0
 20
297.0
 30
0.0
 40
2.0
  1
!GENTITLE-MAX
100
AcDbText
  0
TEXT
  5
139
330
136
100
AcDbEntity
  8
0
 60
     1
100
AcDbText
 10
410.0
 20
287.0
 30
0.0
 40
2.0
  1
!GENTITLE-RU
100
AcDbText
  0
TEXT
  5
13A
330
136
100
AcDbEntity
  8
0
 60
     1
100
AcDbText
 10
409.9999999999998
 20
5.0
 30
0.0
 40
2.0
  1
!GENTITLE-INSERT
100
AcDbText
  0
TEXT
  5
13B
330
136
100
AcDbEntity
  8
0
 60
     1
100
AcDbText
 10
10.0
 20
10.00000000000005
 30
0.0
 40
2.0
  1
!GENTITLE-LL
100
AcDbText
  0
MTEXT
  5
13C
330
136
100
AcDbEntity
  8
025
100
AcDbMText
 10
99.28585028279464
 20
58.475493291171
 30
0.0
 40
2.5
 41
17.3141
 71
     1
 72
     5
  1
(Oberfl.)
  7
ISO Proportional
 73
     1
 44
1.0
  0
TEXT
  5
13D
330
136
100
AcDbEntity
  8
025
100
AcDbText
 10
103.1733221513884
 20
39.875
 30
0.0
 40
2.5
  1
Name
  7
ISO Proportional
100
AcDbText
  0
ATTDEF
  5
13E
330
136
100
AcDbEntity
  8
025
100
AcDbText
 10
99.71813410214213
 20
31.45603256725528
 30
0.0
 40
2.5
  1
XXX
  7
ISO Proportional
100
AcDbAttributeDefinition
  3
Geprüft von
  2
NAME
 70
     0
  0
ATTDEF
  5
13F
330
136
100
AcDbEntity
  8
025
100
AcDbText
 10
99.71813410214213
 20
35.70603256725529
 30
0.0
 40
2.5
  1
XXX
  7
ISO Proportional
100
AcDbAttributeDefinition
  3
Gezeichnet von
  2
NAME
 70
     0
  0
LINE
  5
140
330
136
100
AcDbEntity
  8
035
100
AcDbLine
 10
17.80000000000007
 20
26.25
 30
0.0
 11
116.5999999999999
 21
26.25
 31
0.0
  0
LINE
  5
141
330
136
100
AcDbEntity
  8
035
100
AcDbLine
 10
17.80000000000007
 20
30.5
 30
0.0
 11
116.5999999999999
 21
30.5
 31
0.0
  0
LINE
  5
142
330
136
100
AcDbEntity
  8
035
100
AcDbLine
 10
17.80000000000007
 20
34.75
 30
0.0
 11
116.5999999999999
 21
34.75
 31
0.0
  0
LINE
  5
143
330
136
100
AcDbEntity
  8
035
100
AcDbLine
 10
17.80000000000007
 20
39.0
 30
0.0
 11
116.5999999999999
 21
39.0
 31
0.0
  0
LINE
  5
144
330
136
100
AcDbEntity
  8
07
100
AcDbLine
 10
17.79999999999995
 20
5.0
 30
0.0
 11
204.9999999999998
 21
5.0
 31
0.0
  0
LINE
  5
145
330
136
100
AcDbEntity
  8
07
100
AcDbLine
 10
17.80000000000007
 20
5.0
 30
0.0
 11
204.9999999999998
 21
5.0
 31
0.0
  0
LINE
  5
146
330
136
100
AcDbEntity
  8
07
100
AcDbLine
 10
17.80000000000007
 20
43.25
 30
0.0
 11
205.0
 21
43.25
 31
0.0
  0
LINE
  5
147
330
136
100
AcDbEntity
  8
07
100
AcDbLine
 10
17.80000000000007
 20
60.25
 30
0.0
 11
205.0
 21
60.25
 31
0.0
  0
LINE
  5
148
330
136
100
AcDbEntity
  8
035
100
AcDbLine
 10
17.80000000000007
 20
9.25
 30
0.0
 11
204.9999999999998
 21
9.25
 31
0.0
  0
LINE
  5
149
330
136
100
AcDbEntity
  8
07
100
AcDbLine
 10
72.39999999999986
 20
22.0
 30
0.0
 11
204.9999999999998
 21
22.0
 31
0.0
  0
TEXT
  5
14A
330
136
100
AcDbEntity
  8
025
100
AcDbText
 10
73.65231252739363
 20
5.875
 30
0.0
 40
2.5
  1
(Urspr.)
  7
ISO Proportional
100
AcDbText
  0
TEXT
  5
14B
330
136
100
AcDbEntity
  8
025
100
AcDbText
 10
53.41162858072426
 20
5.875
 30
0.0
 40
2.5
  1
Datum
  7
ISO Proportional
100
AcDbText
  0
TEXT
  5
14C
330
136
100
AcDbEntity
  8
025
100
AcDbText
 10
64.67503184848215
 20
5.875
 30
0.0
 40
2.5
  1
Name
  7
ISO Proportional
100
AcDbText
  0
LINE
  5
14D
330
136
100
AcDbEntity
  8
035
100
AcDbLine
 10
51.60000000000014
 20
43.25
 30
0.0
 11
51.60000000000014
 21
5.0
 31
0.0
  0
LINE
  5
14E
330
136
100
AcDbEntity
  8
07
100
AcDbLine
 10
72.39999999999986
 20
60.25
 30
0.0
 11
72.39999999999986
 21
5.0
 31
0.0
  0
LINE
  5
14F
330
136
100
AcDbEntity
  8
035
100
AcDbLine
 10
64.60000000000014
 20
43.25
 30
0.0
 11
64.60000000000014
 21
5.0
 31
0.0
  0
TEXT
  5
150
330
136
100
AcDbEntity
  8
025
100
AcDbText
 10
18.11472997742589
 20
5.875
 30
0.0
 40
2.5
  1
Zust.
  7
ISO Proportional
100
AcDbText
  0
LINE
  5
151
330
136
100
AcDbEntity
  8
035
100
AcDbLine
 10
25.60000000000002
 20
43.25
 30
0.0
 11
25.60000000000002
 21
5.0
 31
0.0
  0
LINE
  5
152
330
136
100
AcDbEntity
  8
07
100
AcDbLine
 10
17.79999999999984
 20
60.25
 30
0.0
 11
17.79999999999984
 21
5.0
 31
0.0
  0
TEXT
  5
153
330
136
100
AcDbEntity
  8
025
100
AcDbText
 10
31.18543904041587
 20
5.875
 30
0.0
 40
2.5
  1
Änderung
  7
ISO Proportional
100
AcDbText
  0
LINE
  5
154
330
136
100
AcDbEntity
  8
035
100
AcDbLine
 10
17.80000000000007
 20
22.0
 30
0.0
 11
72.39999999999986
 21
22.0
 31
0.0
  0
LINE
  5
155
330
136
100
AcDbEntity
  8
035
100
AcDbLine
 10
17.80000000000007
 20
17.75
 30
0.0
 11
72.39999999999986
 21
17.75
 31
0.0
  0
LINE
  5
156
330
136
100
AcDbEntity
  8
035
100
AcDbLine
 10
17.80000000000007
 20
13.5
 30
0.0
 11
72.39999999999986
 21
13.5
 31
0.0
  0
TEXT
  5
157
330
136
100
AcDbEntity
  8
025
100
AcDbText
 10
19.40366595510693
 20
55.8125
 30
0.0
 40
2.5
  1
(Verwendungsbereich)
  7
ISO Proportional
100
AcDbText
  0
LINE
  5
158
330
136
100
AcDbEntity
  8
035
100
AcDbLine
 10
98.4000000000001
 20
60.25
 30
0.0
 11
98.39999999999987
 21
22.0
 31
0.0
  0
LINE
  5
159
330
136
100
AcDbEntity
  8
035
100
AcDbLine
 10
82.79999999999995
 20
43.25
 30
0.0
 11
82.79999999999995
 21
26.25
 31
0.0
  0
TEXT
  5
15A
330
136
100
AcDbEntity
  8
025
100
AcDbText
 10
86.62791085491745
 20
39.875
 30
0.0
 40
2.5
  1
Datum
  7
ISO Proportional
100
AcDbText
  0
TEXT
  5
15B
330
136
100
AcDbEntity
  8
025
100
AcDbText
 10
72.89893356388415
 20
35.625
 30
0.0
 40
2.5
  1
Bearb.
  7
ISO Proportional
100
AcDbText
  0
TEXT
  5
15C
330
136
100
AcDbEntity
  8
025
100
AcDbText
 10
72.89893356388415
 20
31.375
 30
0.0
 40
2.5
  1
Gepr.
  7
ISO Proportional
100
AcDbText
  0
TEXT
  5
15D
330
136
100
AcDbEntity
  8
025
100
AcDbText
 10
72.89893356388415
 20
27.125
 30
0.0
 40
2.5
  1
Norm
  7
ISO Proportional
100
AcDbText
  0
ATTDEF
  5
15E
330
136
100
AcDbEntity
  8
025
100
AcDbText
 10
83.45502135033759
 20
31.45603256725528
 30
0.0
 40
2.5
  1
00.00.00
  7
ISO Proportional
100
AcDbAttributeDefinition
  3
Geprüft am
  2
GEPRÜFT
 70
     0
  0
ATTDEF
  5
15F
330
136
100
AcDbEntity
  8
025
100
AcDbText
 10
83.45502135033759
 20
35.70603256725529
 30
0.0
 40
2.5
  1
00.00.00
  7
ISO Proportional
100
AcDbAttributeDefinition
  3
Bearbeitet am
  2
BEARBEIT.
 70
     0
  0
MTEXT
  5
160
330
136
100
AcDbEntity
  8
025
100
AcDbMText
 10
73.63255960350556
 20
58.475493291171
 30
0.0
 40
2.5
 41
24.7674
 71
     1
 72
     5
  1
(Zul. Abw.)
  7
ISO Proportional
 73
     1
 44
1.0
  0
LINE
  5
161
330
136
100
AcDbEntity
  8
035
100
AcDbLine
 10
191.9999999999997
 20
13.5
 30
0.0
 11
204.9999999999998
 21
13.5
 31
0.0
  0
TEXT
  5
162
330
136
100
AcDbEntity
  8
025
100
AcDbText
 10
192.9084594911223
 20
18.63219445009372
 30
0.0
 40
2.5
  1
Blatt
  7
ISO Proportional
100
AcDbText
  0
LINE
  5
163
330
136
100
AcDbEntity
  8
035
100
AcDbLine
 10
116.6000000000001
 20
53.875
 30
0.0
 11
205.0
 21
53.875
 31
0.0
  0
LINE
  5
164
330
136
100
AcDbEntity
  8
035
100
AcDbLine
 10
160.7999999999999
 20
9.25
 30
0.0
 11
160.7999999999999
 21
4.999999999999913
 31
0.0
  0
TEXT
  5
165
330
136
100
AcDbEntity
  8
025
100
AcDbText
 10
162.4767000439926
 20
5.875
 30
0.0
 40
2.5
  1
(Ers. d.:) 
  7
ISO Proportional
100
AcDbText
  0
TEXT
  5
166
330
136
100
AcDbEntity
  8
025
100
AcDbText
 10
118.2767000439926
 20
5.875
 30
0.0
 40
2.5
  1
(Ers. f.:) 
  7
ISO Proportional
100
AcDbText
  0
LINE
  5
167
330
136
100
AcDbEntity
  8
07
100
AcDbLine
 10
116.6000000000001
 20
60.25
 30
0.0
 11
116.5999999999999
 21
5.0
 31
0.0
  0
ATTDEF
  5
168
330
136
100
AcDbEntity
  8
05
100
AcDbText
 10
144.5007444687057
 20
30.55510922715243
 30
0.0
 40
5.0
  1
Benennung
  7
ISO Proportional
 72
     4
 11
160.5913536854748
 21
32.21450001038332
 31
0.0
100
AcDbAttributeDefinition
  3
Benennung
  2
BENENNUNG
 70
     0
  0
ATTDEF
  5
169
330
136
100
AcDbEntity
  8
05
100
AcDbText
 10
147.5035696603033
 20
12.82473610229667
 30
0.0
 40
5.0
  1
XXX
  7
ISO Proportional
 72
     4
 11
154.2535696603033
 21
15.32473610229667
 31
0.0
100
AcDbAttributeDefinition
  3
Zeichnungsnummer
  2
ZEICHNUNGSNUMMER
 70
     0
  0
TEXT
  5
16A
330
136
100
AcDbEntity
  8
025
100
AcDbText
 10
117.7620476356917
 20
50.34635004497818
 30
0.0
 40
2.5
  1
(Werkstoff, Halbzeug)
  7
ISO Proportional
100
AcDbText
  0
TEXT
  5
16B
330
136
100
AcDbEntity
  8
025
100
AcDbText
 10
117.7620476356917
 20
44.125
 30
0.0
 40
2.5
  1
(Modell- oder Gesenk-Nr)
  7
ISO Proportional
100
AcDbText
  0
TEXT
  5
16C
330
136
100
AcDbEntity
  8
025
100
AcDbText
 10
117.7262599024914
 20
55.8125
 30
0.0
 40
2.5
  1
Maßstab
  7
ISO Proportional
100
AcDbText
  0
TEXT
  5
16D
330
136
100
AcDbEntity
  8
025
100
AcDbText
 10
117.7620476356917
 20
47.25715873595925
 30
0.0
 40
2.5
  1
(Rohteil-Nr)
  7
ISO Proportional
100
AcDbText
  0
ATTDEF
  5
16E
330
136
100
AcDbEntity
  8
025
100
AcDbText
 10
133.3916231867285
 20
55.8125
 30
0.0
 40
2.5
  1
1:1
  7
ISO Proportional
100
AcDbAttributeDefinition
  3
Maßstab
  2
MAßSTAB
 70
     0
  0
LINE
  5
16F
330
136
100
AcDbEntity
  8
07
100
AcDbLine
 10
191.9999999999997
 20
22.0
 30
0.0
 11
191.9999999999997
 21
9.25
 31
0.0
  0
TEXT
  5
170
330
136
100
AcDbEntity
  8
025
100
AcDbText
 10
169.7262599024914
 20
55.8125
 30
0.0
 40
2.5
  1
(Gewicht)
  7
ISO Proportional
100
AcDbText
  0
LINE
  5
171
330
136
100
AcDbEntity
  8
035
100
AcDbLine
 10
168.6000000000001
 20
60.24999999999995
 30
0.0
 11
168.6000000000001
 21
53.875
 31
0.0
  0
LINE
  5
172
330
136
100
AcDbEntity
  8
07
100
AcDbLine
 10
205.0
 20
60.25
 30
0.0
 11
205.0
 21
5.0
 31
0.0
  0
TEXT
  5
173
330
136
100
AcDbEntity
  8
025
100
AcDbText
 10
200.2395612107086
 20
10.25579083555396
 30
0.0
 40
2.5
  1
Bl.
  7
ISO Proportional
100
AcDbText
  0
TEXT
  5
174
330
136
100
AcDbEntity
  8
035
100
AcDbText
 10
35.55261311726667
 20
292.5
 30
0.0
 40
3.5
  1
1
  7
ISO Proportional
100
AcDbText
  0
LINE
  5
175
330
136
100
AcDbEntity
  8
035
100
AcDbLine
 10
55.0
 20
297.0
 30
0.0
 11
55.0
 21
292.0
 31
0.0
  0
TEXT
  5
176
330
136
100
AcDbEntity
  8
035
100
AcDbText
 10
78.72837483628541
 20
292.5
 30
0.0
 40
3.5
  1
2
  7
ISO Proportional
100
AcDbText
  0
LINE
  5
177
330
136
100
AcDbEntity
  8
035
100
AcDbLine
 10
105.0
 20
297.0
 30
0.0
 11
105.0
 21
292.0
 31
0.0
  0
TEXT
  5
178
330
136
100
AcDbEntity
  8
035
100
AcDbText
 10
128.6807995647082
 20
292.5
 30
0.0
 40
3.5
  1
3
  7
ISO Proportional
100
AcDbText
  0
LINE
  5
179
330
136
100
AcDbEntity
  8
035
100
AcDbLine
 10
155.0
 20
297.0
 30
0.0
 11
155.0
 21
292.0000000000001
 31
0.0
  0
TEXT
  5
17A
330
136
100
AcDbEntity
  8
035
100
AcDbText
 10
178.3826730656276
 20
292.5
 30
0.0
 40
3.5
  1
4
  7
ISO Proportional
100
AcDbText
  0
LINE
  5
17B
330
136
100
AcDbEntity
  8
035
100
AcDbLine
 10
205.0
 20
297.0
 30
0.0
 11
205.0
 21
292.0
 31
0.0
  0
LINE
  5
17C
330
136
100
AcDbEntity
  8
07
100
AcDbLine
 10
105.0
 20
292.0
 30
0.0
 11
105.0
 21
282.0
 31
0.0
  0
LINE
  5
17D
330
136
100
AcDbEntity
  8
07
100
AcDbLine
 10
17.80000000000008
 20
148.5
 30
0.0
 11
27.80000000000008
 21
148.5
 31
0.0
  0
TEXT
  5
17E
330
136
100
AcDbEntity
  8
035
100
AcDbText
 10
13.81688612412417
 20
21.75425439925448
 30
0.0
 40
3.5
  1
F
  7
ISO Proportional
100
AcDbText
  0
LINE
  5
17F
330
136
100
AcDbEntity
  8
035
100
AcDbLine
 10
17.80000000000008
 20
48.5
 30
0.0
 11
12.81688612412416
 21
48.5
 31
0.0
  0
TEXT
  5
180
330
136
100
AcDbEntity
  8
035
100
AcDbText
 10
14.0168861241241
 20
71.75425439925446
 30
0.0
 40
3.5
  1
E
  7
ISO Proportional
100
AcDbText
  0
LINE
  5
181
330
136
100
AcDbEntity
  8
035
100
AcDbLine
 10
17.98311387587593
 20
98.53791884945735
 30
0.0
 11
13.00000000000001
 21
98.53791884945735
 31
0.0
  0
TEXT
  5
182
330
136
100
AcDbEntity
  8
035
100
AcDbText
 10
13.80000000000008
 20
121.7921732487118
 30
0.0
 40
3.5
  1
D
  7
ISO Proportional
100
AcDbText
  0
LINE
  5
183
330
136
100
AcDbEntity
  8
035
100
AcDbLine
 10
17.78311387587599
 20
148.5379188494573
 30
0.0
 11
12.80000000000008
 21
148.5379188494573
 31
0.0
  0
TEXT
  5
184
330
136
100
AcDbEntity
  8
035
100
AcDbText
 10
13.80000000000008
 20
171.7921732487118
 30
0.0
 40
3.5
  1
C
  7
ISO Proportional
100
AcDbText
  0
LINE
  5
185
330
136
100
AcDbEntity
  8
035
100
AcDbLine
 10
17.78311387587599
 20
198.5379188494573
 30
0.0
 11
12.80000000000008
 21
198.5379188494573
 31
0.0
  0
TEXT
  5
186
330
136
100
AcDbEntity
  8
035
100
AcDbText
 10
13.80000000000008
 20
221.7921732487118
 30
0.0
 40
3.5
  1
B
  7
ISO Proportional
100
AcDbText
  0
LINE
  5
187
330
136
100
AcDbEntity
  8
035
100
AcDbLine
 10
17.76622775175191
 20
248.5758376989147
 30
0.0
 11
12.78311387587599
 21
248.5758376989147
 31
0.0
  0
TEXT
  5
188
330
136
100
AcDbEntity
  8
035
100
AcDbText
 10
13.78311387587599
 20
271.8300920981692
 30
0.0
 40
3.5
  1
A
  7
ISO Proportional
100
AcDbText
  0
LWPOLYLINE
  5
189
330
136
100
AcDbEntity
  8
035
100
AcDbPolyline
 90
        4
 70
     1
 43
0.0
 10
0.0
 20
0.0
 10
210.0
 20
0.0
 10
210.0
 20
297.0
 10
0.0
 20
297.0
  0
LINE
  5
18A
330
136
100
AcDbEntity
  8
035
100
AcDbLine
 10
12.80000000000004
 20
292.0
 30
0.0
 11
12.80000000000007
 21
5.0
 31
0.0
  0
LINE
  5
18B
330
136
100
AcDbEntity
  8
07
100
AcDbLine
 10
18.0
 20
5.0
 30
0.0
 11
205.0
 21
5.0
 31
0.0
  0
LINE
  5
18C
330
136
100
AcDbEntity
  8
07
100
AcDbLine
 10
205.0
 20
5.0
 30
0.0
 11
205.0
 21
292.0
 31
0.0
  0
LINE
  5
18D
330
136
100
AcDbEntity
  8
07
100
AcDbLine
 10
205.0
 20
292.0
 30
0.0
 11
17.99999999999997
 21
292.0
 31
0.0
  0
LINE
  5
18E
330
136
100
AcDbEntity
  8
07
100
AcDbLine
 10
17.80000000000004
 20
292.0
 30
0.0
 11
17.80000000000007
 21
5.0
 31
0.0
  0
LINE
  5
18F
330
136
100
AcDbEntity
  8
035
100
AcDbLine
 10
17.80000000000004
 20
292.0
 30
0.0
 11
12.80000000000004
 21
292.0
 31
0.0
  0
LINE
  5
190
330
136
100
AcDbEntity
  8
035
100
AcDbLine
 10
17.80000000000007
 20
5.0
 30
0.0
 11
12.80000000000007
 21
5.0
 31
0.0
  0
LINE
  5
191
330
136
100
AcDbEntity
  8
035
100
AcDbLine
 10
17.99999999999997
 20
297.0
 30
0.0
 11
17.99999999999997
 21
292.0
 31
0.0
  0
ENDBLK
  5
193
330
136
100
AcDbEntity
  8
0
100
AcDbBlockEnd
  0
ENDSEC
  0
SECTION
  2
ENTITIES
  0
VIEWPORT
  5
2E
330
1B
100
AcDbEntity
 67
     1
  8
0
100
AcDbViewport
 10
64.70558537725423
 20
62.54011948262149
 30
0.0
 40
112.9285009178352
 41
53.56094680056902
 68
     1
 69
     1
 12
64.70558537725423
 22
62.54011948262149
 13
0.0
 23
0.0
 14
0.5
 24
0.5
 15
1.0
 25
1.0
 16
0.0
 26
0.0
 36
1.0
 17
0.0
 27
0.0
 37
0.0
 42
50.0
 43
0.0
 44
0.0
 45
53.56094680056902
 50
0.0
 51
0.0
 72
  1000
 90
    33632
  1

281
     0
 71
     1
 74
     0
110
0.0
120
0.0
130
0.0
111
1.0
121
0.0
131
0.0
112
0.0
122
1.0
132
0.0
 79
     0
146
0.0
170
     0
  0
LWPOLYLINE
  5
1E0
330
1B
100
AcDbEntity
 67
     1
  8
0
100
AcDbPolyline
 90
        4
 70
     1
 43
0.0
 10
24.5
 20
80.5
 10
79.5
 20
80.5
 10
79.5
 20
51.0
 10
24.5
 20
51.0
  0
MTEXT
  5
1E1
330
1B
100
AcDbEntity
 67
     1
  8
0
100
AcDbMText
 10
40.0
 20
69.0
 30
0.0
 40
2.5
 41
17.5
 71
     1
 72
     5
  1
ABC
 73
     1
 44
1.0
  0
LWPOLYLINE
  5
1E9
330
1B
100
AcDbEntity
 67
     1
  8
05
100
AcDbPolyline
 90
        4
 70
     1
 43
0.0
 10
28.5
 20
78.0
 10
36.0
 20
78.0
 10
36.0
 20
73.0
 10
28.5
 20
73.0
  0
LWPOLYLINE
  5
1EA
330
1B
100
AcDbEntity
 67
     1
  8
035
100
AcDbPolyline
 90
        4
 70
     1
 43
0.0
 10
67.5
 20
74.5
 10
55.5
 20
74.5
 10
55.5
 20
66.0
 10
67.5
 20
66.0
  0
ENDSEC
  0
SECTION
  2
OBJECTS
  0
DICTIONARY
  5
C
330
0
100
AcDbDictionary
281
     1
  3
ACAD_COLOR
350
19F
  3
ACAD_GROUP
350
D
  3
ACAD_LAYOUT
350
1A
  3
ACAD_MATERIAL
350
19E
  3
ACAD_MLINESTYLE
350
17
  3
ACAD_PLOTSETTINGS
350
19
  3
ACAD_PLOTSTYLENAME
350
E
  3
AcDbVariableDictionary
350
11E
  0
DICTIONARY
  5
19F
102
{ACAD_REACTORS
330
C
102
}
330
C
100
AcDbDictionary
281
     1
  0
DICTIONARY
  5
D
102
{ACAD_REACTORS
330
C
102
}
330
C
100
AcDbDictionary
281
     1
  0
DICTIONARY
  5
1A
102
{ACAD_REACTORS
330
C
102
}
330
C
100
AcDbDictionary
281
     1
  3
DIN A4 Title Block
350
1E
  3
Model
350
22
  0
DICTIONARY
  5
19E
102
{ACAD_REACTORS
330
C
102
}
330
C
100
AcDbDictionary
281
     1
  0
DICTIONARY
  5
17
102
{ACAD_REACTORS
330
C
102
}
330
C
100
AcDbDictionary
281
     1
  3
Standard
350
18
  0
DICTIONARY
  5
19
102
{ACAD_REACTORS
330
C
102
}
330
C
100
AcDbDictionary
281
     1
  3
DIN A4 title block - no output device
350
7E
  0
ACDBDICTIONARYWDFLT
  5
E
102
{ACAD_REACTORS
330
C
102
}
330
C
100
AcDbDictionary
281
     1
  3
Normal
350
F
100
AcDbDictionaryWithDefault
340
F
  0
DICTIONARY
  5
11E
102
{ACAD_REACTORS
330
C
102
}
330
C
100
AcDbDictionary
281
     1
  3
DIMASSOC
350
120
  3
HIDETEXT
350
11F
  0
LAYOUT
  5
1E
102
{ACAD_REACTORS
330
1A
102
}
330
1A
100
AcDbPlotSettings
  1

  2
none_device
  4
ISO_A4_(210.00_x_297.00_MM)
  6

 40
7.549999999999998
 41
20.05
 42
7.549999999999998
 43
20.05
 44
210.0
 45
297.0
 46
-7.559999999999998
 47
-20.06
 48
0.0
 49
0.0
140
0.0
141
0.0
142
1.0
143
1.0
 70
   180
 72
     1
 73
     0
 74
     1
  7

 75
    16
147
1.0
 76
     1
 77
     2
 78
   300
148
0.0089272963783742
149
0.0090630675789498
100
AcDbLayout
  1
DIN A4 Title Block
 70
     1
 71
     1
 10
0.0010727036216256
 20
0.0009369324210482
 11
210.0010727036216
 21
297.000936932421
 12
0.0
 22
0.0
 32
0.0
 14
24.5
 24
51.0
 34
0.0
 15
79.5
 25
80.5
 35
0.0
146
0.0
 13
0.0
 23
0.0
 33
0.0
 16
1.0
 26
0.0
 36
0.0
 17
0.0
 27
1.0
 37
0.0
 76
     0
330
1B
331
2E
  0
LAYOUT
  5
22
102
{ACAD_REACTORS
330
1A
102
}
330
1A
100
AcDbPlotSettings
  1

  2
none_device
  4
ANSI_A_(8.50_x_11.00_Inches)
  6

 40
6.349999904632567
 41
19.04999923706055
 42
6.350006103515625
 43
19.04998779296875
 44
215.8999938964844
 45
279.3999938964844
 46
0.0
 47
0.0
 48
0.0
 49
0.0
140
0.0
141
0.0
142
1.0
143
61.27609873550786
 70
 11952
 72
     0
 73
     1
 74
     0
  7

 75
     0
147
0.0163195768111217
 76
     0
 77
     2
 78
   300
148
47.33029772329238
149
772.3344736330025
100
AcDbLayout
  1
Model
 70
     1
 71
     0
 10
0.0
 20
0.0
 11
12.0
 21
9.0
 12
0.0
 22
0.0
 32
0.0
 14
0.0
 24
0.0
 34
0.0
 15
0.0
 25
0.0
 35
0.0
146
0.0
 13
0.0
 23
0.0
 33
0.0
 16
1.0
 26
0.0
 36
0.0
 17
0.0
 27
1.0
 37
0.0
 76
     0
330
1F
  0
MLINESTYLE
  5
18
102
{ACAD_REACTORS
330
17
102
}
330
17
100
AcDbMlineStyle
  2
STANDARD
 70
     0
  3

 62
   256
 51
90.0
 52
90.0
 71
     2
 49
0.5
 62
   256
  6
BYLAYER
 49
-0.5
 62
   256
  6
BYLAYER
  0
PLOTSETTINGS
  5
7E
102
{ACAD_REACTORS
330
19
102
}
330
19
100
AcDbPlotSettings
  1
DIN A4 title block - no output device
  2
None
  4
ISO_A4_(210.00_x_297.00_MM)
  6

 40
7.549999999999998
 41
20.05
 42
7.549999999999998
 43
20.05
 44
210.0
 45
297.0
 46
-7.559999999999998
 47
-20.06
 48
0.0
 49
0.0
140
0.0
141
0.0
142
1.0
143
1.0
 70
   692
 72
     1
 73
     0
 74
     1
  7

 75
    16
147
1.0
 76
     0
 77
     2
 78
   300
148
0.0128164049386896
149
0.0090630292066862
  0
ACDBPLACEHOLDER
  5
F
102
{ACAD_REACTORS
330
E
102
}
330
E
  0
DICTIONARYVAR
  5
120
102
{ACAD_REACTORS
330
11E
102
}
330
11E
100
DictionaryVariables
280
     0
  1
2
  0
DICTIONARYVAR
  5
11F
102
{ACAD_REACTORS
330
11E
102
}
330
11E
100
DictionaryVariables
280
     0
  1
1
  0
ENDSEC
  0
EOF
