  0
SECTION
  2
HEADER
  9
$ACADVER
  1
AC1014
  9
$HANDSEED
  5
FFFF
  9
$MEASUREMENT
 70
     1
  0
ENDSEC
  0
SECTION
  2
TABLES
  0
TABLE
  2
VPORT
  5
8
330
0
100
AcDbSymbolTable
 70
     4
  0
VPORT
  5
2E
330
8
100
AcDbSymbolTableRecord
100
AcDbViewportTableRecord
  2
*ACTIVE
 70
     0
 10
0.0
 20
0.0
 11
1.0
 21
1.0
 12
210.0
 22
148.5
 13
0.0
 23
0.0
 14
10.0
 24
10.0
 15
10.0
 25
10.0
 16
0.0
 26
0.0
 36
1.0
 17
0.0
 27
0.0
 37
0.0
 40
341.0
 41
1.24
 42
50.0
 43
0.0
 44
0.0
 50
0.0
 51
0.0
 71
     0
 72
   100
 73
     1
 74
     3
 75
     0
 76
     0
 77
     0
 78
     0
  0
ENDTAB
  0
TABLE
  2
LTYPE
  5
5
330
0
100
AcDbSymbolTable
 70
     1
  0
LTYPE
  5
14
330
5
100
AcDbSymbolTableRecord
100
AcDbLinetypeTableRecord
  2
BYBLOCK
 70
     0
  3

 72
    65
 73
     0
 40
0.0
  0
LTYPE
  5
15
330
5
100
AcDbSymbolTableRecord
100
AcDbLinetypeTableRecord
  2
BYLAYER
 70
     0
  3

 72
    65
 73
     0
 40
0.0
  0
LTYPE
  5
16
330
5
100
AcDbSymbolTableRecord
100
AcDbLinetypeTableRecord
  2
CONTINUOUS
 70
     0
  3
Solid line
 72
    65
 73
     0
 40
0.0
  0
ENDTAB
  0
TABLE
  2
LAYER
  5
2
100
AcDbSymbolTable
 70
2
  0
LAYER
  5
50
100
AcDbSymbolTableRecord
100
AcDbLayerTableRecord
  2
0
 70
0
  6
CONTINUOUS
  0
LAYER
  5
51
100
AcDbSymbolTableRecord
100
AcDbLayerTableRecord
  2
Layer_1
 70
0
  6
CONTINUOUS
  0
ENDTAB
  0
TABLE
  2
STYLE
  5
3
330
0
100
AcDbSymbolTable
 70
     1
  0
STYLE
  5
11
330
3
100
AcDbSymbolTableRecord
100
AcDbTextStyleTableRecord
  2
STANDARD
 70
     0
 40
0.0
 41
1.0
 50
0.0
 71
     0
 42
2.5
  3
txt
  4

  0
ENDTAB
  0
TABLE
  2
VIEW
  5
6
330
0
100
AcDbSymbolTable
 70
     0
  0
ENDTAB
  0
TABLE
  2
UCS
  5
7
330
0
100
AcDbSymbolTable
 70
     0
  0
ENDTAB
  0
TABLE
  2
APPID
  5
9
330
0
100
AcDbSymbolTable
 70
     2
  0
APPID
  5
12
330
9
100
AcDbSymbolTableRecord
100
AcDbRegAppTableRecord
  2
ACAD
 70
     0
  0
ENDTAB
  0
TABLE
  2
DIMSTYLE
  5
A
330
0
100
AcDbSymbolTable
 70
     1
  0
DIMSTYLE
105
27
330
A
100
AcDbSymbolTableRecord
100
AcDbDimStyleTableRecord
  2
ISO-25
 70
     0
  3

  4

  5

  6

  7

 40
1.0
 41
2.5
 42
0.625
 43
3.75
 44
1.25
 45
0.0
 46
0.0
 47
0.0
 48
0.0
140
2.5
141
2.5
142
0.0
143
0.03937007874016
144
1.0
145
0.0
146
1.0
147
0.625
 71
     0
 72
     0
 73
     0
 74
     0
 75
     0
 76
     0
 77
     1
 78
     8
170
     0
171
     3
172
     1
173
     0
174
     0
175
     0
176
     0
177
     0
178
     0
270
     2
271
     2
272
     2
273
     2
274
     3
340
11
275
     0
280
     0
281
     0
282
     0
283
     0
284
     8
285
     0
286
     0
287
     3
288
     0
  0
ENDTAB
  0
TABLE
  2
BLOCK_RECORD
  5
1
330
0
100
AcDbSymbolTable
 70
     1
  0
BLOCK_RECORD
  5
1F
330
1
100
AcDbSymbolTableRecord
100
AcDbBlockTableRecord
  2
*MODEL_SPACE
  0
BLOCK_RECORD
  5
1B
330
1
100
AcDbSymbolTableRecord
100
AcDbBlockTableRecord
  2
*PAPER_SPACE
  0
ENDTAB
  0
ENDSEC
  0
SECTION
  2
BLOCKS
  0
BLOCK
  5
20
330
1F
100
AcDbEntity
  8
0
100
AcDbBlockBegin
  2
*MODEL_SPACE
 70
     0
 10
0.0
 20
0.0
 30
0.0
  3
*MODEL_SPACE
  1

  0
ENDBLK
  5
21
330
1F
100
AcDbEntity
  8
0
100
AcDbBlockEnd
  0
BLOCK
  5
1C
330
1B
100
AcDbEntity
 67
     1
  8
0
100
AcDbBlockBegin
  2
*PAPER_SPACE
  1

  0
ENDBLK
  5
1D
330
1B
100
AcDbEntity
 67
     1
  8
0
100
AcDbBlockEnd
  0
ENDSEC
  0
SECTION
  2
ENTITIES
  0
SPLINE
  5
100
100
AcDbEntity
  8
Layer_1
 62
7
100
AcDbSpline
 70
8
 71
3
 72
8
 73
4
 74
0
 40
0
 40
0
 40
0
 40
0
 40
1
 40
1
 40
1
 40
1
 10
1.536727
 20
66.000026
 30
0.0
 10
1.472284
 20
66.000474
 30
0.0
 10
1.407952
 20
65.994566
 30
0.0
 10
1.344647
 20
65.982387
 30
0.0
  0
SPLINE
  5
101
100
AcDbEntity
  8
Layer_1
 62
7
100
AcDbSpline
 70
8
 71
3
 72
8
 73
4
 74
0
 40
0
 40
0
 40
0
 40
0
 40
1
 40
1
 40
1
 40
1
 10
1.344647
 20
65.982387
 30
0.0
 10
1.318228
 20
65.977586
 30
0.0
 10
1.292014
 20
65.971701
 30
0.0
 10
1.266068
 20
65.964748
 30
0.0
  0
SPLINE
  5
102
100
AcDbEntity
  8
Layer_1
 62
7
100
AcDbSpline
 70
8
 71
3
 72
8
 73
4
 74
0
 40
0
 40
0
 40
0
 40
0
 40
1
 40
1
 40
1
 40
1
 10
1.266068
 20
65.964748
 30
0.0
 10
1.260219
 20
65.961871
 30
0.0
 10
1.254399
 20
65.958936
 30
0.0
 10
1.248607
 20
65.955943
 30
0.0
  0
SPLINE
  5
103
100
AcDbEntity
  8
Layer_1
 62
7
100
AcDbSpline
 70
8
 71
3
 72
8
 73
4
 74
0
 40
0
 40
0
 40
0
 40
0
 40
1
 40
1
 40
1
 40
1
 10
1.248607
 20
65.955943
 30
0.0
 10
1.222061
 20
65.948239
 30
0.0
 10
1.195845
 20
65.939417
 30
0.0
 10
1.170029
 20
65.929499
 30
0.0
  0
SPLINE
  5
104
100
AcDbEntity
  8
Layer_1
 62
7
100
AcDbSpline
 70
8
 71
3
 72
8
 73
4
 74
0
 40
0
 40
0
 40
0
 40
0
 40
1
 40
1
 40
1
 40
1
 10
1.170029
 20
65.929499
 30
0.0
 10
1.164180
 20
65.926622
 30
0.0
 10
1.158359
 20
65.923686
 30
0.0
 10
1.152568
 20
65.920693
 30
0.0
  0
SPLINE
  5
105
100
AcDbEntity
  8
Layer_1
 62
7
100
AcDbSpline
 70
8
 71
3
 72
8
 73
4
 74
0
 40
0
 40
0
 40
0
 40
0
 40
1
 40
1
 40
1
 40
1
 10
1.152568
 20
65.920693
 30
0.0
 10
1.128835
 20
65.909869
 30
0.0
 10
1.105535
 20
65.898104
 30
0.0
 10
1.082721
 20
65.885424
 30
0.0
  0
SPLINE
  5
106
100
AcDbEntity
  8
Layer_1
 62
7
100
AcDbSpline
 70
8
 71
3
 72
8
 73
4
 74
0
 40
0
 40
0
 40
0
 40
0
 40
1
 40
1
 40
1
 40
1
 10
1.082721
 20
65.885424
 30
0.0
 10
1.076872
 20
65.882547
 30
0.0
 10
1.071051
 20
65.879612
 30
0.0
 10
1.065260
 20
65.876619
 30
0.0
  0
SPLINE
  5
107
100
AcDbEntity
  8
Layer_1
 62
7
100
AcDbSpline
 70
8
 71
3
 72
8
 73
4
 74
0
 40
0
 40
0
 40
0
 40
0
 40
1
 40
1
 40
1
 40
1
 10
1.065260
 20
65.876619
 30
0.0
 10
1.041527
 20
65.865795
 30
0.0
 10
1.018226
 20
65.854029
 30
0.0
 10
0.995412
 20
65.841349
 30
0.0
  0
SPLINE
  5
108
100
AcDbEntity
  8
Layer_1
 62
7
100
AcDbSpline
 70
8
 71
3
 72
8
 73
4
 74
0
 40
0
 40
0
 40
0
 40
0
 40
1
 40
1
 40
1
 40
1
 10
0.995412
 20
65.841349
 30
0.0
 10
0.989519
 20
65.835543
 30
0.0
 10
0.983699
 20
65.829663
 30
0.0
 10
0.977951
 20
65.823711
 30
0.0
  0
SPLINE
  5
109
100
AcDbEntity
  8
Layer_1
 62
7
100
AcDbSpline
 70
8
 71
3
 72
8
 73
4
 74
0
 40
0
 40
0
 40
0
 40
0
 40
1
 40
1
 40
1
 40
1
 10
0.977951
 20
65.823711
 30
0.0
 10
0.957034
 20
65.809800
 30
0.0
 10
0.936647
 20
65.795093
 30
0.0
 10
0.916834
 20
65.779622
 30
0.0
  0
SPLINE
  5
10a
100
AcDbEntity
  8
Layer_1
 62
7
100
AcDbSpline
 70
8
 71
3
 72
8
 73
4
 74
0
 40
0
 40
0
 40
0
 40
0
 40
1
 40
1
 40
1
 40
1
 10
0.916834
 20
65.779622
 30
0.0
 10
0.910942
 20
65.773816
 30
0.0
 10
0.905121
 20
65.767936
 30
0.0
 10
0.899373
 20
65.761983
 30
0.0
  0
SPLINE
  5
10b
100
AcDbEntity
  8
Layer_1
 62
7
100
AcDbSpline
 70
8
 71
3
 72
8
 73
4
 74
0
 40
0
 40
0
 40
0
 40
0
 40
1
 40
1
 40
1
 40
1
 10
0.899373
 20
65.761983
 30
0.0
 10
0.875148
 20
65.742522
 30
0.0
 10
0.851840
 20
65.721924
 30
0.0
 10
0.829526
 20
65.700258
 30
0.0
  0
SPLINE
  5
10c
100
AcDbEntity
  8
Layer_1
 62
7
100
AcDbSpline
 70
8
 71
3
 72
8
 73
4
 74
0
 40
0
 40
0
 40
0
 40
0
 40
1
 40
1
 40
1
 40
1
 10
0.829526
 20
65.700258
 30
0.0
 10
0.808274
 20
65.680592
 30
0.0
 10
0.787882
 20
65.659999
 30
0.0
 10
0.768409
 20
65.638536
 30
0.0
  0
SPLINE
  5
10d
100
AcDbEntity
  8
Layer_1
 62
7
100
AcDbSpline
 70
8
 71
3
 72
8
 73
4
 74
0
 40
0
 40
0
 40
0
 40
0
 40
1
 40
1
 40
1
 40
1
 10
0.768409
 20
65.638536
 30
0.0
 10
0.765441
 20
65.632686
 30
0.0
 10
0.762530
 20
65.626806
 30
0.0
 10
0.759677
 20
65.620897
 30
0.0
  0
SPLINE
  5
10e
100
AcDbEntity
  8
Layer_1
 62
7
100
AcDbSpline
 70
8
 71
3
 72
8
 73
4
 74
0
 40
0
 40
0
 40
0
 40
0
 40
1
 40
1
 40
1
 40
1
 10
0.759677
 20
65.620897
 30
0.0
 10
0.744358
 20
65.600887
 30
0.0
 10
0.729796
 20
65.580298
 30
0.0
 10
0.716023
 20
65.559172
 30
0.0
  0
SPLINE
  5
10f
100
AcDbEntity
  8
Layer_1
 62
7
100
AcDbSpline
 70
8
 71
3
 72
8
 73
4
 74
0
 40
0
 40
0
 40
0
 40
0
 40
1
 40
1
 40
1
 40
1
 10
0.716023
 20
65.559172
 30
0.0
 10
0.713055
 20
65.553322
 30
0.0
 10
0.710144
 20
65.547442
 30
0.0
 10
0.707291
 20
65.541533
 30
0.0
  0
SPLINE
  5
110
100
AcDbEntity
  8
Layer_1
 62
7
100
AcDbSpline
 70
8
 71
3
 72
8
 73
4
 74
0
 40
0
 40
0
 40
0
 40
0
 40
1
 40
1
 40
1
 40
1
 10
0.707291
 20
65.541533
 30
0.0
 10
0.691971
 20
65.521524
 30
0.0
 10
0.677409
 20
65.500934
 30
0.0
 10
0.663636
 20
65.479809
 30
0.0
  0
SPLINE
  5
111
100
AcDbEntity
  8
Layer_1
 62
7
100
AcDbSpline
 70
8
 71
3
 72
8
 73
4
 74
0
 40
0
 40
0
 40
0
 40
0
 40
1
 40
1
 40
1
 40
1
 10
0.663636
 20
65.479809
 30
0.0
 10
0.660604
 20
65.471035
 30
0.0
 10
0.657693
 20
65.462220
 30
0.0
 10
0.654904
 20
65.453364
 30
0.0
  0
SPLINE
  5
112
100
AcDbEntity
  8
Layer_1
 62
7
100
AcDbSpline
 70
8
 71
3
 72
8
 73
4
 74
0
 40
0
 40
0
 40
0
 40
0
 40
1
 40
1
 40
1
 40
1
 10
0.654904
 20
65.453364
 30
0.0
 10
0.642542
 20
65.433214
 30
0.0
 10
0.630893
 20
65.412626
 30
0.0
 10
0.619980
 20
65.391640
 30
0.0
  0
SPLINE
  5
113
100
AcDbEntity
  8
Layer_1
 62
7
100
AcDbSpline
 70
8
 71
3
 72
8
 73
4
 74
0
 40
0
 40
0
 40
0
 40
0
 40
1
 40
1
 40
1
 40
1
 10
0.619980
 20
65.391640
 30
0.0
 10
0.616948
 20
65.382866
 30
0.0
 10
0.614037
 20
65.374051
 30
0.0
 10
0.611248
 20
65.365195
 30
0.0
  0
SPLINE
  5
114
100
AcDbEntity
  8
Layer_1
 62
7
100
AcDbSpline
 70
8
 71
3
 72
8
 73
4
 74
0
 40
0
 40
0
 40
0
 40
0
 40
1
 40
1
 40
1
 40
1
 10
0.611248
 20
65.365195
 30
0.0
 10
0.587377
 20
65.302474
 30
0.0
 10
0.569826
 20
65.237481
 30
0.0
 10
0.558863
 20
65.171204
 30
0.0
  0
SPLINE
  5
115
100
AcDbEntity
  8
Layer_1
 62
7
100
AcDbSpline
 70
8
 71
3
 72
8
 73
4
 74
0
 40
0
 40
0
 40
0
 40
0
 40
1
 40
1
 40
1
 40
1
 10
0.558863
 20
65.171204
 30
0.0
 10
0.547885
 20
65.113057
 30
0.0
 10
0.542042
 20
65.054040
 30
0.0
 10
0.541402
 20
64.994849
 30
0.0
  0
SPLINE
  5
116
100
AcDbEntity
  8
Layer_1
 62
7
100
AcDbSpline
 70
8
 71
3
 72
8
 73
4
 74
0
 40
0
 40
0
 40
0
 40
0
 40
1
 40
1
 40
1
 40
1
 10
0.541402
 20
64.994849
 30
0.0
 10
-0.070112
 20
59.541565
 30
0.0
 10
0.870637
 20
53.934546
 30
0.0
 10
3.230526
 20
48.990634
 30
0.0
  0
SPLINE
  5
117
100
AcDbEntity
  8
Layer_1
 62
7
100
AcDbSpline
 70
8
 71
3
 72
8
 73
4
 74
0
 40
0
 40
0
 40
0
 40
0
 40
1
 40
1
 40
1
 40
1
 10
3.230526
 20
48.990634
 30
0.0
 10
3.336070
 20
48.769518
 30
0.0
 10
3.459939
 20
48.556362
 30
0.0
 10
3.571031
 20
48.338122
 30
0.0
  0
SPLINE
  5
118
100
AcDbEntity
  8
Layer_1
 62
7
100
AcDbSpline
 70
8
 71
3
 72
8
 73
4
 74
0
 40
0
 40
0
 40
0
 40
0
 40
1
 40
1
 40
1
 40
1
 10
3.571031
 20
48.338122
 30
0.0
 10
2.942880
 20
48.786737
 30
0.0
 10
2.308642
 20
49.226366
 30
0.0
 10
1.702614
 20
49.704873
 30
0.0
  0
SPLINE
  5
119
100
AcDbEntity
  8
Layer_1
 62
7
100
AcDbSpline
 70
8
 71
3
 72
8
 73
4
 74
0
 40
0
 40
0
 40
0
 40
0
 40
1
 40
1
 40
1
 40
1
 10
1.702614
 20
49.704873
 30
0.0
 10
1.649413
 20
49.755327
 30
0.0
 10
1.590851
 20
49.799685
 30
0.0
 10
1.527996
 20
49.837140
 30
0.0
  0
SPLINE
  5
11a
100
AcDbEntity
  8
Layer_1
 62
7
100
AcDbSpline
 70
8
 71
3
 72
8
 73
4
 74
0
 40
0
 40
0
 40
0
 40
0
 40
1
 40
1
 40
1
 40
1
 10
1.527996
 20
49.837140
 30
0.0
 10
1.473168
 20
49.875320
 30
0.0
 10
1.414666
 20
49.907816
 30
0.0
 10
1.353377
 20
49.934134
 30
0.0
  0
SPLINE
  5
11b
100
AcDbEntity
  8
Layer_1
 62
7
100
AcDbSpline
 70
8
 71
3
 72
8
 73
4
 74
0
 40
0
 40
0
 40
0
 40
0
 40
1
 40
1
 40
1
 40
1
 10
1.353377
 20
49.934134
 30
0.0
 10
1.291274
 20
49.958243
 30
0.0
 10
1.226922
 20
49.975969
 30
0.0
 10
1.161297
 20
49.987042
 30
0.0
  0
SPLINE
  5
11c
100
AcDbEntity
  8
Layer_1
 62
7
100
AcDbSpline
 70
8
 71
3
 72
8
 73
4
 74
0
 40
0
 40
0
 40
0
 40
0
 40
1
 40
1
 40
1
 40
1
 10
1.161297
 20
49.987042
 30
0.0
 10
1.106591
 20
49.997624
 30
0.0
 10
1.051098
 20
50.003524
 30
0.0
 10
0.995410
 20
50.004681
 30
0.0
  0
SPLINE
  5
11d
100
AcDbEntity
  8
Layer_1
 62
7
100
AcDbSpline
 70
8
 71
3
 72
8
 73
4
 74
0
 40
0
 40
0
 40
0
 40
0
 40
1
 40
1
 40
1
 40
1
 10
0.995410
 20
50.004681
 30
0.0
 10
0.986679
 20
50.004797
 30
0.0
 10
0.977947
 20
50.004797
 30
0.0
 10
0.969217
 20
50.004681
 30
0.0
  0
SPLINE
  5
11e
100
AcDbEntity
  8
Layer_1
 62
7
100
AcDbSpline
 70
8
 71
3
 72
8
 73
4
 74
0
 40
0
 40
0
 40
0
 40
0
 40
1
 40
1
 40
1
 40
1
 10
0.969217
 20
50.004681
 30
0.0
 10
0.934163
 20
50.003622
 30
0.0
 10
0.899190
 20
50.000683
 30
0.0
 10
0.864446
 20
49.995876
 30
0.0
  0
SPLINE
  5
11f
100
AcDbEntity
  8
Layer_1
 62
7
100
AcDbSpline
 70
8
 71
3
 72
8
 73
4
 74
0
 40
0
 40
0
 40
0
 40
0
 40
1
 40
1
 40
1
 40
1
 10
0.864446
 20
49.995876
 30
0.0
 10
0.841067
 20
49.993777
 30
0.0
 10
0.817770
 20
49.990841
 30
0.0
 10
0.794598
 20
49.987070
 30
0.0
  0
SPLINE
  5
120
100
AcDbEntity
  8
Layer_1
 62
7
100
AcDbSpline
 70
8
 71
3
 72
8
 73
4
 74
0
 40
0
 40
0
 40
0
 40
0
 40
1
 40
1
 40
1
 40
1
 10
0.794598
 20
49.987070
 30
0.0
 10
0.785827
 20
49.984258
 30
0.0
 10
0.777095
 20
49.981323
 30
0.0
 10
0.768405
 20
49.978265
 30
0.0
  0
SPLINE
  5
121
100
AcDbEntity
  8
Layer_1
 62
7
100
AcDbSpline
 70
8
 71
3
 72
8
 73
4
 74
0
 40
0
 40
0
 40
0
 40
0
 40
1
 40
1
 40
1
 40
1
 10
0.768405
 20
49.978265
 30
0.0
 10
0.714648
 20
49.965095
 30
0.0
 10
0.662079
 20
49.947398
 30
0.0
 10
0.611248
 20
49.925359
 30
0.0
  0
SPLINE
  5
122
100
AcDbEntity
  8
Layer_1
 62
7
100
AcDbSpline
 70
8
 71
3
 72
8
 73
4
 74
0
 40
0
 40
0
 40
0
 40
0
 40
1
 40
1
 40
1
 40
1
 10
0.611248
 20
49.925359
 30
0.0
 10
0.602477
 20
49.922547
 30
0.0
 10
0.593745
 20
49.919612
 30
0.0
 10
0.585055
 20
49.916554
 30
0.0
  0
SPLINE
  5
123
100
AcDbEntity
  8
Layer_1
 62
7
100
AcDbSpline
 70
8
 71
3
 72
8
 73
4
 74
0
 40
0
 40
0
 40
0
 40
0
 40
1
 40
1
 40
1
 40
1
 10
0.585055
 20
49.916554
 30
0.0
 10
0.561323
 20
49.905730
 30
0.0
 10
0.538022
 20
49.893964
 30
0.0
 10
0.515208
 20
49.881285
 30
0.0
  0
SPLINE
  5
124
100
AcDbEntity
  8
Layer_1
 62
7
100
AcDbSpline
 70
8
 71
3
 72
8
 73
4
 74
0
 40
0
 40
0
 40
0
 40
0
 40
1
 40
1
 40
1
 40
1
 10
0.515208
 20
49.881285
 30
0.0
 10
0.509359
 20
49.878408
 30
0.0
 10
0.503539
 20
49.875472
 30
0.0
 10
0.497747
 20
49.872479
 30
0.0
  0
SPLINE
  5
125
100
AcDbEntity
  8
Layer_1
 62
7
100
AcDbSpline
 70
8
 71
3
 72
8
 73
4
 74
0
 40
0
 40
0
 40
0
 40
0
 40
1
 40
1
 40
1
 40
1
 10
0.497747
 20
49.872479
 30
0.0
 10
0.476830
 20
49.858569
 30
0.0
 10
0.456443
 20
49.843862
 30
0.0
 10
0.436631
 20
49.828391
 30
0.0
  0
SPLINE
  5
126
100
AcDbEntity
  8
Layer_1
 62
7
100
AcDbSpline
 70
8
 71
3
 72
8
 73
4
 74
0
 40
0
 40
0
 40
0
 40
0
 40
1
 40
1
 40
1
 40
1
 10
0.436631
 20
49.828391
 30
0.0
 10
0.409620
 20
49.812028
 30
0.0
 10
0.383397
 20
49.794373
 30
0.0
 10
0.358053
 20
49.775485
 30
0.0
  0
SPLINE
  5
127
100
AcDbEntity
  8
Layer_1
 62
7
100
AcDbSpline
 70
8
 71
3
 72
8
 73
4
 74
0
 40
0
 40
0
 40
0
 40
0
 40
1
 40
1
 40
1
 40
1
 10
0.358053
 20
49.775485
 30
0.0
 10
0.349229
 20
49.769746
 30
0.0
 10
0.340497
 20
49.763866
 30
0.0
 10
0.331859
 20
49.757846
 30
0.0
  0
SPLINE
  5
128
100
AcDbEntity
  8
Layer_1
 62
7
100
AcDbSpline
 70
8
 71
3
 72
8
 73
4
 74
0
 40
0
 40
0
 40
0
 40
0
 40
1
 40
1
 40
1
 40
1
 10
0.331859
 20
49.757846
 30
0.0
 10
0.313750
 20
49.740878
 30
0.0
 10
0.296276
 20
49.723230
 30
0.0
 10
0.279474
 20
49.704941
 30
0.0
  0
SPLINE
  5
129
100
AcDbEntity
  8
Layer_1
 62
7
100
AcDbSpline
 70
8
 71
3
 72
8
 73
4
 74
0
 40
0
 40
0
 40
0
 40
0
 40
1
 40
1
 40
1
 40
1
 10
0.279474
 20
49.704941
 30
0.0
 10
0.273581
 20
49.699135
 30
0.0
 10
0.267760
 20
49.693255
 30
0.0
 10
0.262013
 20
49.687302
 30
0.0
  0
SPLINE
  5
12a
100
AcDbEntity
  8
Layer_1
 62
7
100
AcDbSpline
 70
8
 71
3
 72
8
 73
4
 74
0
 40
0
 40
0
 40
0
 40
0
 40
1
 40
1
 40
1
 40
1
 10
0.262013
 20
49.687302
 30
0.0
 10
0.246694
 20
49.667292
 30
0.0
 10
0.232131
 20
49.646703
 30
0.0
 10
0.218358
 20
49.625577
 30
0.0
  0
SPLINE
  5
12b
100
AcDbEntity
  8
Layer_1
 62
7
100
AcDbSpline
 70
8
 71
3
 72
8
 73
4
 74
0
 40
0
 40
0
 40
0
 40
0
 40
1
 40
1
 40
1
 40
1
 10
0.218358
 20
49.625577
 30
0.0
 10
0.212465
 20
49.619771
 30
0.0
 10
0.206645
 20
49.613891
 30
0.0
 10
0.200897
 20
49.607938
 30
0.0
  0
SPLINE
  5
12c
100
AcDbEntity
  8
Layer_1
 62
7
100
AcDbSpline
 70
8
 71
3
 72
8
 73
4
 74
0
 40
0
 40
0
 40
0
 40
0
 40
1
 40
1
 40
1
 40
1
 10
0.200897
 20
49.607938
 30
0.0
 10
0.185578
 20
49.587930
 30
0.0
 10
0.171016
 20
49.567341
 30
0.0
 10
0.157242
 20
49.546216
 30
0.0
  0
SPLINE
  5
12d
100
AcDbEntity
  8
Layer_1
 62
7
100
AcDbSpline
 70
8
 71
3
 72
8
 73
4
 74
0
 40
0
 40
0
 40
0
 40
0
 40
1
 40
1
 40
1
 40
1
 10
0.157242
 20
49.546216
 30
0.0
 10
0.122458
 20
49.490480
 30
0.0
 10
0.093212
 20
49.431408
 30
0.0
 10
0.069933
 20
49.369861
 30
0.0
  0
SPLINE
  5
12e
100
AcDbEntity
  8
Layer_1
 62
7
100
AcDbSpline
 70
8
 71
3
 72
8
 73
4
 74
0
 40
0
 40
0
 40
0
 40
0
 40
1
 40
1
 40
1
 40
1
 10
0.069933
 20
49.369861
 30
0.0
 10
0.046062
 20
49.307140
 30
0.0
 10
0.028511
 20
49.242148
 30
0.0
 10
0.017548
 20
49.175870
 30
0.0
  0
SPLINE
  5
12f
100
AcDbEntity
  8
Layer_1
 62
7
100
AcDbSpline
 70
8
 71
3
 72
8
 73
4
 74
0
 40
0
 40
0
 40
0
 40
0
 40
1
 40
1
 40
1
 40
1
 10
0.017548
 20
49.175870
 30
0.0
 10
0.005490
 20
49.111935
 30
0.0
 10
-0.000358
 20
49.046963
 30
0.0
 10
0.000087
 20
48.981879
 30
0.0
  0
SPLINE
  5
130
100
AcDbEntity
  8
Layer_1
 62
7
100
AcDbSpline
 70
8
 71
3
 72
8
 73
4
 74
0
 40
0
 40
0
 40
0
 40
0
 40
1
 40
1
 40
1
 40
1
 10
0.000087
 20
48.981879
 30
0.0
 10
-0.000029
 20
48.973065
 30
0.0
 10
-0.000029
 20
48.964249
 30
0.0
 10
0.000087
 20
48.955435
 30
0.0
  0
SPLINE
  5
131
100
AcDbEntity
  8
Layer_1
 62
7
100
AcDbSpline
 70
8
 71
3
 72
8
 73
4
 74
0
 40
0
 40
0
 40
0
 40
0
 40
1
 40
1
 40
1
 40
1
 10
0.000087
 20
48.955435
 30
0.0
 10
0.001950
 20
48.928875
 30
0.0
 10
0.004863
 20
48.902400
 30
0.0
 10
0.008819
 20
48.876074
 30
0.0
  0
SPLINE
  5
132
100
AcDbEntity
  8
Layer_1
 62
7
100
AcDbSpline
 70
8
 71
3
 72
8
 73
4
 74
0
 40
0
 40
0
 40
0
 40
0
 40
1
 40
1
 40
1
 40
1
 10
0.008819
 20
48.876074
 30
0.0
 10
0.008703
 20
48.867260
 30
0.0
 10
0.008703
 20
48.858444
 30
0.0
 10
0.008819
 20
48.849630
 30
0.0
  0
SPLINE
  5
133
100
AcDbEntity
  8
Layer_1
 62
7
100
AcDbSpline
 70
8
 71
3
 72
8
 73
4
 74
0
 40
0
 40
0
 40
0
 40
0
 40
1
 40
1
 40
1
 40
1
 10
0.008819
 20
48.849630
 30
0.0
 10
0.013790
 20
48.825910
 30
0.0
 10
0.019614
 20
48.802381
 30
0.0
 10
0.026280
 20
48.779089
 30
0.0
  0
SPLINE
  5
134
100
AcDbEntity
  8
Layer_1
 62
7
100
AcDbSpline
 70
8
 71
3
 72
8
 73
4
 74
0
 40
0
 40
0
 40
0
 40
0
 40
1
 40
1
 40
1
 40
1
 10
0.026280
 20
48.779089
 30
0.0
 10
0.031251
 20
48.755369
 30
0.0
 10
0.037076
 20
48.731839
 30
0.0
 10
0.043741
 20
48.708547
 30
0.0
  0
SPLINE
  5
135
100
AcDbEntity
  8
Layer_1
 62
7
100
AcDbSpline
 70
8
 71
3
 72
8
 73
4
 74
0
 40
0
 40
0
 40
0
 40
0
 40
1
 40
1
 40
1
 40
1
 10
0.043741
 20
48.708547
 30
0.0
 10
0.058067
 20
48.663257
 30
0.0
 10
0.075573
 20
48.619056
 30
0.0
 10
0.096126
 20
48.576281
 30
0.0
  0
SPLINE
  5
136
100
AcDbEntity
  8
Layer_1
 62
7
100
AcDbSpline
 70
8
 71
3
 72
8
 73
4
 74
0
 40
0
 40
0
 40
0
 40
0
 40
1
 40
1
 40
1
 40
1
 10
0.096126
 20
48.576281
 30
0.0
 10
0.096114
 20
48.573346
 30
0.0
 10
0.096114
 20
48.570411
 30
0.0
 10
0.096126
 20
48.567475
 30
0.0
  0
SPLINE
  5
137
100
AcDbEntity
  8
Layer_1
 62
7
100
AcDbSpline
 70
8
 71
3
 72
8
 73
4
 74
0
 40
0
 40
0
 40
0
 40
0
 40
1
 40
1
 40
1
 40
1
 10
0.096126
 20
48.567475
 30
0.0
 10
1.511421
 20
43.773779
 30
0.0
 10
4.154095
 20
39.369910
 30
0.0
 10
7.718221
 20
35.896172
 30
0.0
  0
SPLINE
  5
138
100
AcDbEntity
  8
Layer_1
 62
7
100
AcDbSpline
 70
8
 71
3
 72
8
 73
4
 74
0
 40
0
 40
0
 40
0
 40
0
 40
1
 40
1
 40
1
 40
1
 10
7.718221
 20
35.896172
 30
0.0
 10
11.318167
 20
32.387526
 30
0.0
 10
15.826252
 20
29.848835
 30
0.0
 10
20.674908
 20
28.603894
 30
0.0
  0
SPLINE
  5
139
100
AcDbEntity
  8
Layer_1
 62
7
100
AcDbSpline
 70
8
 71
3
 72
8
 73
4
 74
0
 40
0
 40
0
 40
0
 40
0
 40
1
 40
1
 40
1
 40
1
 10
20.674908
 20
28.603894
 30
0.0
 10
23.751646
 20
27.813912
 30
0.0
 10
26.934282
 20
27.545490
 30
0.0
 10
30.078111
 20
27.660394
 30
0.0
  0
SPLINE
  5
13a
100
AcDbEntity
  8
Layer_1
 62
7
100
AcDbSpline
 70
8
 71
3
 72
8
 73
4
 74
0
 40
0
 40
0
 40
0
 40
0
 40
1
 40
1
 40
1
 40
1
 10
30.113050
 20
27.660394
 30
0.0
 10
33.476995
 20
27.786395
 30
0.0
 10
36.785554
 20
28.360997
 30
0.0
 10
40.013913
 20
29.247589
 30
0.0
  0
SPLINE
  5
13b
100
AcDbEntity
  8
Layer_1
 62
7
100
AcDbSpline
 70
8
 71
3
 72
8
 73
4
 74
0
 40
0
 40
0
 40
0
 40
0
 40
1
 40
1
 40
1
 40
1
 10
40.013913
 20
29.247589
 30
0.0
 10
42.250194
 20
27.297905
 30
0.0
 10
44.252225
 20
25.059626
 30
0.0
 10
46.055710
 20
22.678365
 30
0.0
  0
SPLINE
  5
13c
100
AcDbEntity
  8
Layer_1
 62
7
100
AcDbSpline
 70
8
 71
3
 72
8
 73
4
 74
0
 40
0
 40
0
 40
0
 40
0
 40
1
 40
1
 40
1
 40
1
 10
46.055710
 20
22.678365
 30
0.0
 10
44.083310
 20
20.005161
 30
0.0
 10
42.270585
 20
17.088437
 30
0.0
 10
41.367206
 20
13.754803
 30
0.0
  0
SPLINE
  5
13d
100
AcDbEntity
  8
Layer_1
 62
7
100
AcDbSpline
 70
8
 71
3
 72
8
 73
4
 74
0
 40
0
 40
0
 40
0
 40
0
 40
1
 40
1
 40
1
 40
1
 10
41.367206
 20
13.754803
 30
0.0
 10
40.878871
 20
11.952724
 30
0.0
 10
40.670867
 20
10.043482
 30
0.0
 10
40.860812
 20
8.146742
 30
0.0
  0
SPLINE
  5
13e
100
AcDbEntity
  8
Layer_1
 62
7
100
AcDbSpline
 70
8
 71
3
 72
8
 73
4
 74
0
 40
0
 40
0
 40
0
 40
0
 40
1
 40
1
 40
1
 40
1
 10
40.860812
 20
8.146742
 30
0.0
 10
41.051026
 20
6.247246
 30
0.0
 10
41.646922
 20
4.372867
 30
0.0
 10
42.711766
 20
2.750258
 30
0.0
  0
SPLINE
  5
13f
100
AcDbEntity
  8
Layer_1
 62
7
100
AcDbSpline
 70
8
 71
3
 72
8
 73
4
 74
0
 40
0
 40
0
 40
0
 40
0
 40
1
 40
1
 40
1
 40
1
 10
42.711766
 20
2.750258
 30
0.0
 10
43.183438
 20
2.031523
 30
0.0
 10
43.778848
 20
1.320013
 30
0.0
 10
44.571452
 20
0.783903
 30
0.0
  0
SPLINE
  5
140
100
AcDbEntity
  8
Layer_1
 62
7
100
AcDbSpline
 70
8
 71
3
 72
8
 73
4
 74
0
 40
0
 40
0
 40
0
 40
0
 40
1
 40
1
 40
1
 40
1
 10
44.571452
 20
0.783903
 30
0.0
 10
45.374315
 20
0.240823
 30
0.0
 10
46.372278
 20
-0.098493
 30
0.0
 10
47.426463
 20
0.025572
 30
0.0
  0
SPLINE
  5
141
100
AcDbEntity
  8
Layer_1
 62
7
100
AcDbSpline
 70
8
 71
3
 72
8
 73
4
 74
0
 40
0
 40
0
 40
0
 40
0
 40
1
 40
1
 40
1
 40
1
 10
47.426463
 20
0.025572
 30
0.0
 10
48.179124
 20
0.114162
 30
0.0
 10
48.840995
 20
0.424521
 30
0.0
 10
49.399654
 20
0.827958
 30
0.0
  0
SPLINE
  5
142
100
AcDbEntity
  8
Layer_1
 62
7
100
AcDbSpline
 70
8
 71
3
 72
8
 73
4
 74
0
 40
0
 40
0
 40
0
 40
0
 40
1
 40
1
 40
1
 40
1
 10
49.399654
 20
0.827958
 30
0.0
 10
49.620188
 20
0.987216
 30
0.0
 10
49.814103
 20
1.168177
 30
0.0
 10
50.002085
 20
1.348235
 30
0.0
  0
SPLINE
  5
143
100
AcDbEntity
  8
Layer_1
 62
7
100
AcDbSpline
 70
8
 71
3
 72
8
 73
4
 74
0
 40
0
 40
0
 40
0
 40
0
 40
1
 40
1
 40
1
 40
1
 10
50.002085
 20
1.348235
 30
0.0
 10
50.189709
 20
1.168092
 30
0.0
 10
50.375635
 20
0.987385
 30
0.0
 10
50.595788
 20
0.827958
 30
0.0
  0
SPLINE
  5
144
100
AcDbEntity
  8
Layer_1
 62
7
100
AcDbSpline
 70
8
 71
3
 72
8
 73
4
 74
0
 40
0
 40
0
 40
0
 40
0
 40
1
 40
1
 40
1
 40
1
 10
50.595788
 20
0.827958
 30
0.0
 10
51.154492
 20
0.423449
 30
0.0
 10
51.824321
 20
0.114613
 30
0.0
 10
52.577707
 20
0.025572
 30
0.0
  0
LWPOLYLINE
  5
145
100
AcDbEntity
  8
Layer_1
 62
7
100
AcDbPolyline
 90
3
 70
0
 10
30.078111
 20
27.660394
 30
0.0
 10
30.095580
 20
27.660394
 30
0.0
 10
30.113050
 20
27.660394
 30
0.0
  0
SPLINE
  5
146
100
AcDbEntity
  8
Layer_1
 62
7
100
AcDbSpline
 70
8
 71
3
 72
8
 73
4
 74
0
 40
0
 40
0
 40
0
 40
0
 40
1
 40
1
 40
1
 40
1
 10
52.691211
 20
0.025572
 30
0.0
 10
53.703015
 20
-0.062199
 30
0.0
 10
54.659054
 20
0.260494
 30
0.0
 10
55.432721
 20
0.783903
 30
0.0
  0
SPLINE
  5
147
100
AcDbEntity
  8
Layer_1
 62
7
100
AcDbSpline
 70
8
 71
3
 72
8
 73
4
 74
0
 40
0
 40
0
 40
0
 40
0
 40
1
 40
1
 40
1
 40
1
 10
55.432721
 20
0.783903
 30
0.0
 10
56.225401
 20
1.320154
 30
0.0
 10
56.812119
 20
2.031354
 30
0.0
 10
57.283675
 20
2.750258
 30
0.0
  0
SPLINE
  5
148
100
AcDbEntity
  8
Layer_1
 62
7
100
AcDbSpline
 70
8
 71
3
 72
8
 73
4
 74
0
 40
0
 40
0
 40
0
 40
0
 40
1
 40
1
 40
1
 40
1
 10
57.283675
 20
2.750258
 30
0.0
 10
58.348144
 20
4.372980
 30
0.0
 10
58.953271
 20
6.247302
 30
0.0
 10
59.143362
 20
8.146742
 30
0.0
  0
SPLINE
  5
149
100
AcDbEntity
  8
Layer_1
 62
7
100
AcDbSpline
 70
8
 71
3
 72
8
 73
4
 74
0
 40
0
 40
0
 40
0
 40
0
 40
1
 40
1
 40
1
 40
1
 10
59.143362
 20
8.146742
 30
0.0
 10
59.333182
 20
10.043386
 30
0.0
 10
59.116522
 20
11.952772
 30
0.0
 10
58.628236
 20
13.754803
 30
0.0
  0
SPLINE
  5
14a
100
AcDbEntity
  8
Layer_1
 62
7
100
AcDbSpline
 70
8
 71
3
 72
8
 73
4
 74
0
 40
0
 40
0
 40
0
 40
0
 40
1
 40
1
 40
1
 40
1
 10
58.628236
 20
13.754803
 30
0.0
 10
57.724213
 20
17.091220
 30
0.0
 10
55.913924
 20
20.012056
 30
0.0
 10
53.939732
 20
22.687184
 30
0.0
  0
SPLINE
  5
14b
100
AcDbEntity
  8
Layer_1
 62
7
100
AcDbSpline
 70
8
 71
3
 72
8
 73
4
 74
0
 40
0
 40
0
 40
0
 40
0
 40
1
 40
1
 40
1
 40
1
 10
53.939732
 20
22.687184
 30
0.0
 10
55.737061
 20
25.067133
 30
0.0
 10
57.742806
 20
27.299728
 30
0.0
 10
59.972799
 20
29.247589
 30
0.0
  0
SPLINE
  5
14c
100
AcDbEntity
  8
Layer_1
 62
7
100
AcDbSpline
 70
8
 71
3
 72
8
 73
4
 74
0
 40
0
 40
0
 40
0
 40
0
 40
1
 40
1
 40
1
 40
1
 10
59.972799
 20
29.247589
 30
0.0
 10
63.204283
 20
28.359433
 30
0.0
 10
66.523741
 20
27.786525
 30
0.0
 10
69.891126
 20
27.660394
 30
0.0
  0
SPLINE
  5
14d
100
AcDbEntity
  8
Layer_1
 62
7
100
AcDbSpline
 70
8
 71
3
 72
8
 73
4
 74
0
 40
0
 40
0
 40
0
 40
0
 40
1
 40
1
 40
1
 40
1
 10
69.891126
 20
27.660394
 30
0.0
 10
69.902782
 20
27.659830
 30
0.0
 10
69.914410
 20
27.660958
 30
0.0
 10
69.926048
 20
27.660394
 30
0.0
  0
SPLINE
  5
14e
100
AcDbEntity
  8
Layer_1
 62
7
100
AcDbSpline
 70
8
 71
3
 72
8
 73
4
 74
0
 40
0
 40
0
 40
0
 40
0
 40
1
 40
1
 40
1
 40
1
 10
69.926048
 20
27.660394
 30
0.0
 10
73.069835
 20
27.545504
 30
0.0
 10
76.243824
 20
27.813923
 30
0.0
 10
79.320521
 20
28.603894
 30
0.0
  0
SPLINE
  5
14f
100
AcDbEntity
  8
Layer_1
 62
7
100
AcDbSpline
 70
8
 71
3
 72
8
 73
4
 74
0
 40
0
 40
0
 40
0
 40
0
 40
1
 40
1
 40
1
 40
1
 10
79.320521
 20
28.603894
 30
0.0
 10
84.169177
 20
29.848835
 30
0.0
 10
88.677265
 20
32.387526
 30
0.0
 10
92.277207
 20
35.896172
 30
0.0
  0
SPLINE
  5
150
100
AcDbEntity
  8
Layer_1
 62
7
100
AcDbSpline
 70
8
 71
3
 72
8
 73
4
 74
0
 40
0
 40
0
 40
0
 40
0
 40
1
 40
1
 40
1
 40
1
 10
92.277207
 20
35.896172
 30
0.0
 10
95.836648
 20
39.365341
 30
0.0
 10
98.473890
 20
43.763466
 30
0.0
 10
99.890572
 20
48.549642
 30
0.0
  0
SPLINE
  5
151
100
AcDbEntity
  8
Layer_1
 62
7
100
AcDbSpline
 70
8
 71
3
 72
8
 73
4
 74
0
 40
0
 40
0
 40
0
 40
0
 40
1
 40
1
 40
1
 40
1
 10
99.890572
 20
48.549642
 30
0.0
 10
99.893507
 20
48.559520
 30
0.0
 10
99.905135
 20
48.566208
 30
0.0
 10
99.908042
 20
48.576086
 30
0.0
  0
SPLINE
  5
152
100
AcDbEntity
  8
Layer_1
 62
7
100
AcDbSpline
 70
8
 71
3
 72
8
 73
4
 74
0
 40
0
 40
0
 40
0
 40
0
 40
1
 40
1
 40
1
 40
1
 10
99.908042
 20
48.576086
 30
0.0
 10
99.956231
 20
48.681795
 30
0.0
 10
99.985778
 20
48.795188
 30
0.0
 10
99.995353
 20
48.911160
 30
0.0
  0
SPLINE
  5
153
100
AcDbEntity
  8
Layer_1
 62
7
100
AcDbSpline
 70
8
 71
3
 72
8
 73
4
 74
0
 40
0
 40
0
 40
0
 40
0
 40
1
 40
1
 40
1
 40
1
 10
99.995353
 20
48.911160
 30
0.0
 10
100.001579
 20
48.975671
 30
0.0
 10
100.001579
 20
49.040640
 30
0.0
 10
99.995353
 20
49.105151
 30
0.0
  0
SPLINE
  5
154
100
AcDbEntity
  8
Layer_1
 62
7
100
AcDbSpline
 70
8
 71
3
 72
8
 73
4
 74
0
 40
0
 40
0
 40
0
 40
0
 40
1
 40
1
 40
1
 40
1
 10
99.995353
 20
49.105151
 30
0.0
 10
99.991113
 20
49.137753
 30
0.0
 10
99.985282
 20
49.170124
 30
0.0
 10
99.977883
 20
49.202145
 30
0.0
  0
SPLINE
  5
155
100
AcDbEntity
  8
Layer_1
 62
7
100
AcDbSpline
 70
8
 71
3
 72
8
 73
4
 74
0
 40
0
 40
0
 40
0
 40
0
 40
1
 40
1
 40
1
 40
1
 10
99.977883
 20
49.202145
 30
0.0
 10
99.975445
 20
49.219856
 30
0.0
 10
99.972538
 20
49.237497
 30
0.0
 10
99.969163
 20
49.255051
 30
0.0
  0
SPLINE
  5
156
100
AcDbEntity
  8
Layer_1
 62
7
100
AcDbSpline
 70
8
 71
3
 72
8
 73
4
 74
0
 40
0
 40
0
 40
0
 40
0
 40
1
 40
1
 40
1
 40
1
 10
99.969163
 20
49.255051
 30
0.0
 10
99.963686
 20
49.269884
 30
0.0
 10
99.957861
 20
49.284585
 30
0.0
 10
99.951693
 20
49.299139
 30
0.0
  0
SPLINE
  5
157
100
AcDbEntity
  8
Layer_1
 62
7
100
AcDbSpline
 70
8
 71
3
 72
8
 73
4
 74
0
 40
0
 40
0
 40
0
 40
0
 40
1
 40
1
 40
1
 40
1
 10
99.951693
 20
49.299139
 30
0.0
 10
99.941714
 20
49.332057
 30
0.0
 10
99.930057
 20
49.364433
 30
0.0
 10
99.916771
 20
49.396136
 30
0.0
  0
SPLINE
  5
158
100
AcDbEntity
  8
Layer_1
 62
7
100
AcDbSpline
 70
8
 71
3
 72
8
 73
4
 74
0
 40
0
 40
0
 40
0
 40
0
 40
1
 40
1
 40
1
 40
1
 10
99.916771
 20
49.396136
 30
0.0
 10
99.911294
 20
49.410970
 30
0.0
 10
99.905469
 20
49.425671
 30
0.0
 10
99.899302
 20
49.440225
 30
0.0
  0
SPLINE
  5
159
100
AcDbEntity
  8
Layer_1
 62
7
100
AcDbSpline
 70
8
 71
3
 72
8
 73
4
 74
0
 40
0
 40
0
 40
0
 40
0
 40
1
 40
1
 40
1
 40
1
 10
99.899302
 20
49.440225
 30
0.0
 10
99.890947
 20
49.455146
 30
0.0
 10
99.882214
 20
49.469847
 30
0.0
 10
99.873111
 20
49.484314
 30
0.0
  0
SPLINE
  5
15a
100
AcDbEntity
  8
Layer_1
 62
7
100
AcDbSpline
 70
8
 71
3
 72
8
 73
4
 74
0
 40
0
 40
0
 40
0
 40
0
 40
1
 40
1
 40
1
 40
1
 10
99.873111
 20
49.484314
 30
0.0
 10
99.857159
 20
49.514594
 30
0.0
 10
99.839675
 20
49.544026
 30
0.0
 10
99.820728
 20
49.572491
 30
0.0
  0
SPLINE
  5
15b
100
AcDbEntity
  8
Layer_1
 62
7
100
AcDbSpline
 70
8
 71
3
 72
8
 73
4
 74
0
 40
0
 40
0
 40
0
 40
0
 40
1
 40
1
 40
1
 40
1
 10
99.820728
 20
49.572491
 30
0.0
 10
99.806946
 20
49.593622
 30
0.0
 10
99.792375
 20
49.614216
 30
0.0
 10
99.777046
 20
49.634230
 30
0.0
  0
SPLINE
  5
15c
100
AcDbEntity
  8
Layer_1
 62
7
100
AcDbSpline
 70
8
 71
3
 72
8
 73
4
 74
0
 40
0
 40
0
 40
0
 40
0
 40
1
 40
1
 40
1
 40
1
 10
99.777046
 20
49.634230
 30
0.0
 10
99.774196
 20
49.640139
 30
0.0
 10
99.771289
 20
49.646019
 30
0.0
 10
99.768325
 20
49.651869
 30
0.0
  0
SPLINE
  5
15d
100
AcDbEntity
  8
Layer_1
 62
7
100
AcDbSpline
 70
8
 71
3
 72
8
 73
4
 74
0
 40
0
 40
0
 40
0
 40
0
 40
1
 40
1
 40
1
 40
1
 10
99.768325
 20
49.651869
 30
0.0
 10
99.756976
 20
49.663918
 30
0.0
 10
99.745330
 20
49.675679
 30
0.0
 10
99.733400
 20
49.687141
 30
0.0
  0
SPLINE
  5
15e
100
AcDbEntity
  8
Layer_1
 62
7
100
AcDbSpline
 70
8
 71
3
 72
8
 73
4
 74
0
 40
0
 40
0
 40
0
 40
0
 40
1
 40
1
 40
1
 40
1
 10
99.733400
 20
49.687141
 30
0.0
 10
99.722052
 20
49.699190
 30
0.0
 10
99.710407
 20
49.710951
 30
0.0
 10
99.698478
 20
49.722413
 30
0.0
  0
SPLINE
  5
15f
100
AcDbEntity
  8
Layer_1
 62
7
100
AcDbSpline
 70
8
 71
3
 72
8
 73
4
 74
0
 40
0
 40
0
 40
0
 40
0
 40
1
 40
1
 40
1
 40
1
 10
99.698478
 20
49.722413
 30
0.0
 10
99.687128
 20
49.734461
 30
0.0
 10
99.675483
 20
49.746221
 30
0.0
 10
99.663553
 20
49.757683
 30
0.0
  0
SPLINE
  5
160
100
AcDbEntity
  8
Layer_1
 62
7
100
AcDbSpline
 70
8
 71
3
 72
8
 73
4
 74
0
 40
0
 40
0
 40
0
 40
0
 40
1
 40
1
 40
1
 40
1
 10
99.663553
 20
49.757683
 30
0.0
 10
99.646598
 20
49.772982
 30
0.0
 10
99.629127
 20
49.787687
 30
0.0
 10
99.611170
 20
49.801772
 30
0.0
  0
SPLINE
  5
161
100
AcDbEntity
  8
Layer_1
 62
7
100
AcDbSpline
 70
8
 71
3
 72
8
 73
4
 74
0
 40
0
 40
0
 40
0
 40
0
 40
1
 40
1
 40
1
 40
1
 10
99.611170
 20
49.801772
 30
0.0
 10
99.602533
 20
49.807791
 30
0.0
 10
99.593801
 20
49.813671
 30
0.0
 10
99.584979
 20
49.819410
 30
0.0
  0
SPLINE
  5
162
100
AcDbEntity
  8
Layer_1
 62
7
100
AcDbSpline
 70
8
 71
3
 72
8
 73
4
 74
0
 40
0
 40
0
 40
0
 40
0
 40
1
 40
1
 40
1
 40
1
 10
99.584979
 20
49.819410
 30
0.0
 10
99.570654
 20
49.828602
 30
0.0
 10
99.556097
 20
49.837419
 30
0.0
 10
99.541322
 20
49.845855
 30
0.0
  0
SPLINE
  5
163
100
AcDbEntity
  8
Layer_1
 62
7
100
AcDbSpline
 70
8
 71
3
 72
8
 73
4
 74
0
 40
0
 40
0
 40
0
 40
0
 40
1
 40
1
 40
1
 40
1
 10
99.541322
 20
49.845855
 30
0.0
 10
99.526998
 20
49.855046
 30
0.0
 10
99.512442
 20
49.863863
 30
0.0
 10
99.497668
 20
49.872299
 30
0.0
  0
SPLINE
  5
164
100
AcDbEntity
  8
Layer_1
 62
7
100
AcDbSpline
 70
8
 71
3
 72
8
 73
4
 74
0
 40
0
 40
0
 40
0
 40
0
 40
1
 40
1
 40
1
 40
1
 10
99.497668
 20
49.872299
 30
0.0
 10
99.483344
 20
49.881490
 30
0.0
 10
99.468787
 20
49.890308
 30
0.0
 10
99.454014
 20
49.898743
 30
0.0
  0
SPLINE
  5
165
100
AcDbEntity
  8
Layer_1
 62
7
100
AcDbSpline
 70
8
 71
3
 72
8
 73
4
 74
0
 40
0
 40
0
 40
0
 40
0
 40
1
 40
1
 40
1
 40
1
 10
99.454014
 20
49.898743
 30
0.0
 10
99.439603
 20
49.904971
 30
0.0
 10
99.425048
 20
49.910852
 30
0.0
 10
99.410360
 20
49.916382
 30
0.0
  0
SPLINE
  5
166
100
AcDbEntity
  8
Layer_1
 62
7
100
AcDbSpline
 70
8
 71
3
 72
8
 73
4
 74
0
 40
0
 40
0
 40
0
 40
0
 40
1
 40
1
 40
1
 40
1
 10
99.410360
 20
49.916382
 30
0.0
 10
99.381827
 20
49.929529
 30
0.0
 10
99.352691
 20
49.941300
 30
0.0
 10
99.323052
 20
49.951654
 30
0.0
  0
SPLINE
  5
167
100
AcDbEntity
  8
Layer_1
 62
7
100
AcDbSpline
 70
8
 71
3
 72
8
 73
4
 74
0
 40
0
 40
0
 40
0
 40
0
 40
1
 40
1
 40
1
 40
1
 10
99.323052
 20
49.951654
 30
0.0
 10
99.305755
 20
49.958025
 30
0.0
 10
99.288287
 20
49.963906
 30
0.0
 10
99.270666
 20
49.969293
 30
0.0
  0
SPLINE
  5
168
100
AcDbEntity
  8
Layer_1
 62
7
100
AcDbSpline
 70
8
 71
3
 72
8
 73
4
 74
0
 40
0
 40
0
 40
0
 40
0
 40
1
 40
1
 40
1
 40
1
 10
99.270666
 20
49.969293
 30
0.0
 10
99.256181
 20
49.972558
 30
0.0
 10
99.241626
 20
49.975494
 30
0.0
 10
99.227011
 20
49.978098
 30
0.0
  0
SPLINE
  5
169
100
AcDbEntity
  8
Layer_1
 62
7
100
AcDbSpline
 70
8
 71
3
 72
8
 73
4
 74
0
 40
0
 40
0
 40
0
 40
0
 40
1
 40
1
 40
1
 40
1
 10
99.227011
 20
49.978098
 30
0.0
 10
99.195305
 20
49.985569
 30
0.0
 10
99.163252
 20
49.991456
 30
0.0
 10
99.130971
 20
49.995737
 30
0.0
  0
SPLINE
  5
16a
100
AcDbEntity
  8
Layer_1
 62
7
100
AcDbSpline
 70
8
 71
3
 72
8
 73
4
 74
0
 40
0
 40
0
 40
0
 40
0
 40
1
 40
1
 40
1
 40
1
 10
99.130971
 20
49.995737
 30
0.0
 10
99.113590
 20
49.999145
 30
0.0
 10
99.096122
 20
50.002081
 30
0.0
 10
99.078585
 20
50.004543
 30
0.0
  0
SPLINE
  5
16b
100
AcDbEntity
  8
Layer_1
 62
7
100
AcDbSpline
 70
8
 71
3
 72
8
 73
4
 74
0
 40
0
 40
0
 40
0
 40
0
 40
1
 40
1
 40
1
 40
1
 10
99.078585
 20
50.004543
 30
0.0
 10
99.011525
 20
50.008495
 30
0.0
 10
98.944241
 20
50.005545
 30
0.0
 10
98.877773
 20
49.995737
 30
0.0
  0
SPLINE
  5
16c
100
AcDbEntity
  8
Layer_1
 62
7
100
AcDbSpline
 70
8
 71
3
 72
8
 73
4
 74
0
 40
0
 40
0
 40
0
 40
0
 40
1
 40
1
 40
1
 40
1
 10
98.877773
 20
49.995737
 30
0.0
 10
98.863158
 20
49.993133
 30
0.0
 10
98.848603
 20
49.990197
 30
0.0
 10
98.834119
 20
49.986932
 30
0.0
  0
SPLINE
  5
16d
100
AcDbEntity
  8
Layer_1
 62
7
100
AcDbSpline
 70
8
 71
3
 72
8
 73
4
 74
0
 40
0
 40
0
 40
0
 40
0
 40
1
 40
1
 40
1
 40
1
 10
98.834119
 20
49.986932
 30
0.0
 10
98.816582
 20
49.984470
 30
0.0
 10
98.799113
 20
49.981534
 30
0.0
 10
98.781733
 20
49.978127
 30
0.0
  0
SPLINE
  5
16e
100
AcDbEntity
  8
Layer_1
 62
7
100
AcDbSpline
 70
8
 71
3
 72
8
 73
4
 74
0
 40
0
 40
0
 40
0
 40
0
 40
1
 40
1
 40
1
 40
1
 10
98.781733
 20
49.978127
 30
0.0
 10
98.767045
 20
49.972597
 30
0.0
 10
98.752489
 20
49.966715
 30
0.0
 10
98.738078
 20
49.960488
 30
0.0
  0
SPLINE
  5
16f
100
AcDbEntity
  8
Layer_1
 62
7
100
AcDbSpline
 70
8
 71
3
 72
8
 73
4
 74
0
 40
0
 40
0
 40
0
 40
0
 40
1
 40
1
 40
1
 40
1
 10
98.738078
 20
49.960488
 30
0.0
 10
98.674800
 20
49.943163
 30
0.0
 10
98.613383
 20
49.919533
 30
0.0
 10
98.554730
 20
49.889946
 30
0.0
  0
SPLINE
  5
170
100
AcDbEntity
  8
Layer_1
 62
7
100
AcDbSpline
 70
8
 71
3
 72
8
 73
4
 74
0
 40
0
 40
0
 40
0
 40
0
 40
1
 40
1
 40
1
 40
1
 10
98.554730
 20
49.889946
 30
0.0
 10
98.524747
 20
49.873835
 30
0.0
 10
98.495605
 20
49.856177
 30
0.0
 10
98.467419
 20
49.837041
 30
0.0
  0
SPLINE
  5
171
100
AcDbEntity
  8
Layer_1
 62
7
100
AcDbSpline
 70
8
 71
3
 72
8
 73
4
 74
0
 40
0
 40
0
 40
0
 40
0
 40
1
 40
1
 40
1
 40
1
 10
98.467419
 20
49.837041
 30
0.0
 10
98.424523
 20
49.810817
 30
0.0
 10
98.383662
 20
49.781339
 30
0.0
 10
98.345188
 20
49.748863
 30
0.0
  0
SPLINE
  5
172
100
AcDbEntity
  8
Layer_1
 62
7
100
AcDbSpline
 70
8
 71
3
 72
8
 73
4
 74
0
 40
0
 40
0
 40
0
 40
0
 40
1
 40
1
 40
1
 40
1
 10
98.345188
 20
49.748863
 30
0.0
 10
98.339293
 20
49.743057
 30
0.0
 10
98.333469
 20
49.737177
 30
0.0
 10
98.327719
 20
49.731224
 30
0.0
  0
SPLINE
  5
173
100
AcDbEntity
  8
Layer_1
 62
7
100
AcDbSpline
 70
8
 71
3
 72
8
 73
4
 74
0
 40
0
 40
0
 40
0
 40
0
 40
1
 40
1
 40
1
 40
1
 10
98.327719
 20
49.731224
 30
0.0
 10
97.733122
 20
49.284255
 30
0.0
 10
97.106145
 20
48.884027
 30
0.0
 10
96.494225
 20
48.461467
 30
0.0
  0
SPLINE
  5
174
100
AcDbEntity
  8
Layer_1
 62
7
100
AcDbSpline
 70
8
 71
3
 72
8
 73
4
 74
0
 40
0
 40
0
 40
0
 40
0
 40
1
 40
1
 40
1
 40
1
 10
96.494225
 20
48.461467
 30
0.0
 10
96.583698
 20
48.639324
 30
0.0
 10
96.687816
 20
48.810785
 30
0.0
 10
96.773617
 20
48.990532
 30
0.0
  0
SPLINE
  5
175
100
AcDbEntity
  8
Layer_1
 62
7
100
AcDbSpline
 70
8
 71
3
 72
8
 73
4
 74
0
 40
0
 40
0
 40
0
 40
0
 40
1
 40
1
 40
1
 40
1
 10
96.773617
 20
48.990532
 30
0.0
 10
99.120797
 20
53.907823
 30
0.0
 10
100.054318
 20
59.480989
 30
0.0
 10
99.462740
 20
64.906570
 30
0.0
  0
SPLINE
  5
176
100
AcDbEntity
  8
Layer_1
 62
7
100
AcDbSpline
 70
8
 71
3
 72
8
 73
4
 74
0
 40
0
 40
0
 40
0
 40
0
 40
1
 40
1
 40
1
 40
1
 10
99.462740
 20
64.906570
 30
0.0
 10
99.461894
 20
64.915319
 30
0.0
 10
99.463587
 20
64.924294
 30
0.0
 10
99.462740
 20
64.933014
 30
0.0
  0
SPLINE
  5
177
100
AcDbEntity
  8
Layer_1
 62
7
100
AcDbSpline
 70
8
 71
3
 72
8
 73
4
 74
0
 40
0
 40
0
 40
0
 40
0
 40
1
 40
1
 40
1
 40
1
 10
99.462740
 20
64.933014
 30
0.0
 10
99.465708
 20
65.021976
 30
0.0
 10
99.456900
 20
65.110940
 30
0.0
 10
99.436550
 20
65.197547
 30
0.0
  0
SPLINE
  5
178
100
AcDbEntity
  8
Layer_1
 62
7
100
AcDbSpline
 70
8
 71
3
 72
8
 73
4
 74
0
 40
0
 40
0
 40
0
 40
0
 40
1
 40
1
 40
1
 40
1
 10
99.436550
 20
65.197547
 30
0.0
 10
99.415941
 20
65.296408
 30
0.0
 10
99.380616
 20
65.391543
 30
0.0
 10
99.331778
 20
65.479713
 30
0.0
  0
SPLINE
  5
179
100
AcDbEntity
  8
Layer_1
 62
7
100
AcDbSpline
 70
8
 71
3
 72
8
 73
4
 74
0
 40
0
 40
0
 40
0
 40
0
 40
1
 40
1
 40
1
 40
1
 10
99.331778
 20
65.479713
 30
0.0
 10
99.328993
 20
65.488568
 30
0.0
 10
99.326086
 20
65.497384
 30
0.0
 10
99.323057
 20
65.506157
 30
0.0
  0
SPLINE
  5
17a
100
AcDbEntity
  8
Layer_1
 62
7
100
AcDbSpline
 70
8
 71
3
 72
8
 73
4
 74
0
 40
0
 40
0
 40
0
 40
0
 40
1
 40
1
 40
1
 40
1
 10
99.323057
 20
65.506157
 30
0.0
 10
99.309284
 20
65.527281
 30
0.0
 10
99.294722
 20
65.547870
 30
0.0
 10
99.279403
 20
65.567879
 30
0.0
  0
SPLINE
  5
17b
100
AcDbEntity
  8
Layer_1
 62
7
100
AcDbSpline
 70
8
 71
3
 72
8
 73
4
 74
0
 40
0
 40
0
 40
0
 40
0
 40
1
 40
1
 40
1
 40
1
 10
99.279403
 20
65.567879
 30
0.0
 10
99.276554
 20
65.573787
 30
0.0
 10
99.273647
 20
65.579667
 30
0.0
 10
99.270683
 20
65.585518
 30
0.0
  0
SPLINE
  5
17c
100
AcDbEntity
  8
Layer_1
 62
7
100
AcDbSpline
 70
8
 71
3
 72
8
 73
4
 74
0
 40
0
 40
0
 40
0
 40
0
 40
1
 40
1
 40
1
 40
1
 10
99.270683
 20
65.585518
 30
0.0
 10
99.254034
 20
65.606822
 30
0.0
 10
99.236534
 20
65.627433
 30
0.0
 10
99.218226
 20
65.647299
 30
0.0
  0
SPLINE
  5
17d
100
AcDbEntity
  8
Layer_1
 62
7
100
AcDbSpline
 70
8
 71
3
 72
8
 73
4
 74
0
 40
0
 40
0
 40
0
 40
0
 40
1
 40
1
 40
1
 40
1
 10
99.218226
 20
65.647299
 30
0.0
 10
99.215376
 20
65.653207
 30
0.0
 10
99.212469
 20
65.659087
 30
0.0
 10
99.209505
 20
65.664938
 30
0.0
  0
SPLINE
  5
17e
100
AcDbEntity
  8
Layer_1
 62
7
100
AcDbSpline
 70
8
 71
3
 72
8
 73
4
 74
0
 40
0
 40
0
 40
0
 40
0
 40
1
 40
1
 40
1
 40
1
 10
99.209505
 20
65.664938
 30
0.0
 10
99.189852
 20
65.683402
 30
0.0
 10
99.169463
 20
65.701052
 30
0.0
 10
99.148390
 20
65.717843
 30
0.0
  0
SPLINE
  5
17f
100
AcDbEntity
  8
Layer_1
 62
7
100
AcDbSpline
 70
8
 71
3
 72
8
 73
4
 74
0
 40
0
 40
0
 40
0
 40
0
 40
1
 40
1
 40
1
 40
1
 10
99.148390
 20
65.717843
 30
0.0
 10
99.126076
 20
65.739510
 30
0.0
 10
99.102768
 20
65.760107
 30
0.0
 10
99.078543
 20
65.779568
 30
0.0
  0
SPLINE
  5
180
100
AcDbEntity
  8
Layer_1
 62
7
100
AcDbSpline
 70
8
 71
3
 72
8
 73
4
 74
0
 40
0
 40
0
 40
0
 40
0
 40
1
 40
1
 40
1
 40
1
 10
99.078543
 20
65.779568
 30
0.0
 10
99.072793
 20
65.785521
 30
0.0
 10
99.066969
 20
65.791401
 30
0.0
 10
99.061073
 20
65.797207
 30
0.0
  0
SPLINE
  5
181
100
AcDbEntity
  8
Layer_1
 62
7
100
AcDbSpline
 70
8
 71
3
 72
8
 73
4
 74
0
 40
0
 40
0
 40
0
 40
0
 40
1
 40
1
 40
1
 40
1
 10
99.061073
 20
65.797207
 30
0.0
 10
99.041260
 20
65.812679
 30
0.0
 10
99.020873
 20
65.827386
 30
0.0
 10
98.999955
 20
65.841296
 30
0.0
  0
SPLINE
  5
182
100
AcDbEntity
  8
Layer_1
 62
7
100
AcDbSpline
 70
8
 71
3
 72
8
 73
4
 74
0
 40
0
 40
0
 40
0
 40
0
 40
1
 40
1
 40
1
 40
1
 10
98.999955
 20
65.841296
 30
0.0
 10
98.966314
 20
65.864014
 30
0.0
 10
98.931325
 20
65.884628
 30
0.0
 10
98.895186
 20
65.903021
 30
0.0
  0
SPLINE
  5
183
100
AcDbEntity
  8
Layer_1
 62
7
100
AcDbSpline
 70
8
 71
3
 72
8
 73
4
 74
0
 40
0
 40
0
 40
0
 40
0
 40
1
 40
1
 40
1
 40
1
 10
98.895186
 20
65.903021
 30
0.0
 10
98.869370
 20
65.912939
 30
0.0
 10
98.843154
 20
65.921761
 30
0.0
 10
98.816607
 20
65.929465
 30
0.0
  0
SPLINE
  5
184
100
AcDbEntity
  8
Layer_1
 62
7
100
AcDbSpline
 70
8
 71
3
 72
8
 73
4
 74
0
 40
0
 40
0
 40
0
 40
0
 40
1
 40
1
 40
1
 40
1
 10
98.816607
 20
65.929465
 30
0.0
 10
98.810812
 20
65.932458
 30
0.0
 10
98.804989
 20
65.935393
 30
0.0
 10
98.799137
 20
65.938270
 30
0.0
  0
SPLINE
  5
185
100
AcDbEntity
  8
Layer_1
 62
7
100
AcDbSpline
 70
8
 71
3
 72
8
 73
4
 74
0
 40
0
 40
0
 40
0
 40
0
 40
1
 40
1
 40
1
 40
1
 10
98.799137
 20
65.938270
 30
0.0
 10
98.793314
 20
65.938322
 30
0.0
 10
98.787491
 20
65.938322
 30
0.0
 10
98.781668
 20
65.938270
 30
0.0
  0
SPLINE
  5
186
100
AcDbEntity
  8
Layer_1
 62
7
100
AcDbSpline
 70
8
 71
3
 72
8
 73
4
 74
0
 40
0
 40
0
 40
0
 40
0
 40
1
 40
1
 40
1
 40
1
 10
98.781668
 20
65.938270
 30
0.0
 10
98.755852
 20
65.948188
 30
0.0
 10
98.729637
 20
65.957010
 30
0.0
 10
98.703091
 20
65.964714
 30
0.0
  0
SPLINE
  5
187
100
AcDbEntity
  8
Layer_1
 62
7
100
AcDbSpline
 70
8
 71
3
 72
8
 73
4
 74
0
 40
0
 40
0
 40
0
 40
0
 40
1
 40
1
 40
1
 40
1
 10
98.703091
 20
65.964714
 30
0.0
 10
98.671537
 20
65.975150
 30
0.0
 10
98.639483
 20
65.983976
 30
0.0
 10
98.607051
 20
65.991159
 30
0.0
  0
SPLINE
  5
188
100
AcDbEntity
  8
Layer_1
 62
7
100
AcDbSpline
 70
8
 71
3
 72
8
 73
4
 74
0
 40
0
 40
0
 40
0
 40
0
 40
1
 40
1
 40
1
 40
1
 10
98.607051
 20
65.991159
 30
0.0
 10
98.598321
 20
65.991275
 30
0.0
 10
98.589591
 20
65.991275
 30
0.0
 10
98.580861
 20
65.991159
 30
0.0
  0
SPLINE
  5
189
100
AcDbEntity
  8
Layer_1
 62
7
100
AcDbSpline
 70
8
 71
3
 72
8
 73
4
 74
0
 40
0
 40
0
 40
0
 40
0
 40
1
 40
1
 40
1
 40
1
 10
98.580861
 20
65.991159
 30
0.0
 10
98.490668
 20
66.000757
 30
0.0
 10
98.399596
 20
65.997794
 30
0.0
 10
98.310201
 20
65.982353
 30
0.0
  0
SPLINE
  5
18a
100
AcDbEntity
  8
Layer_1
 62
7
100
AcDbSpline
 70
8
 71
3
 72
8
 73
4
 74
0
 40
0
 40
0
 40
0
 40
0
 40
1
 40
1
 40
1
 40
1
 10
98.310201
 20
65.982353
 30
0.0
 10
98.277920
 20
65.978072
 30
0.0
 10
98.245868
 20
65.972185
 30
0.0
 10
98.214161
 20
65.964714
 30
0.0
  0
SPLINE
  5
18b
100
AcDbEntity
  8
Layer_1
 62
7
100
AcDbSpline
 70
8
 71
3
 72
8
 73
4
 74
0
 40
0
 40
0
 40
0
 40
0
 40
1
 40
1
 40
1
 40
1
 10
98.214161
 20
65.964714
 30
0.0
 10
98.150883
 20
65.947390
 30
0.0
 10
98.089465
 20
65.923760
 30
0.0
 10
98.030813
 20
65.894173
 30
0.0
  0
SPLINE
  5
18c
100
AcDbEntity
  8
Layer_1
 62
7
100
AcDbSpline
 70
8
 71
3
 72
8
 73
4
 74
0
 40
0
 40
0
 40
0
 40
0
 40
1
 40
1
 40
1
 40
1
 10
98.030813
 20
65.894173
 30
0.0
 10
98.007080
 20
65.883349
 30
0.0
 10
97.983780
 20
65.871583
 30
0.0
 10
97.960965
 20
65.858904
 30
0.0
  0
SPLINE
  5
18d
100
AcDbEntity
  8
Layer_1
 62
7
100
AcDbSpline
 70
8
 71
3
 72
8
 73
4
 74
0
 40
0
 40
0
 40
0
 40
0
 40
1
 40
1
 40
1
 40
1
 10
97.960965
 20
65.858904
 30
0.0
 10
97.927583
 20
65.837351
 30
0.0
 10
97.895512
 20
65.813794
 30
0.0
 10
97.864925
 20
65.788359
 30
0.0
  0
SPLINE
  5
18e
100
AcDbEntity
  8
Layer_1
 62
7
100
AcDbSpline
 70
8
 71
3
 72
8
 73
4
 74
0
 40
0
 40
0
 40
0
 40
0
 40
1
 40
1
 40
1
 40
1
 10
97.864925
 20
65.788359
 30
0.0
 10
97.837514
 20
65.766268
 30
0.0
 10
97.811284
 20
65.742721
 30
0.0
 10
97.786346
 20
65.717818
 30
0.0
  0
SPLINE
  5
18f
100
AcDbEntity
  8
Layer_1
 62
7
100
AcDbSpline
 70
8
 71
3
 72
8
 73
4
 74
0
 40
0
 40
0
 40
0
 40
0
 40
1
 40
1
 40
1
 40
1
 10
97.786346
 20
65.717818
 30
0.0
 10
97.719368
 20
65.658460
 30
0.0
 10
97.660631
 20
65.590241
 30
0.0
 10
97.611727
 20
65.515010
 30
0.0
  0
SPLINE
  5
190
100
AcDbEntity
  8
Layer_1
 62
7
100
AcDbSpline
 70
8
 71
3
 72
8
 73
4
 74
0
 40
0
 40
0
 40
0
 40
0
 40
1
 40
1
 40
1
 40
1
 10
97.611727
 20
65.515010
 30
0.0
 10
97.608762
 20
65.509160
 30
0.0
 10
97.605855
 20
65.503280
 30
0.0
 10
97.603006
 20
65.497371
 30
0.0
  0
SPLINE
  5
191
100
AcDbEntity
  8
Layer_1
 62
7
100
AcDbSpline
 70
8
 71
3
 72
8
 73
4
 74
0
 40
0
 40
0
 40
0
 40
0
 40
1
 40
1
 40
1
 40
1
 10
97.603006
 20
65.497371
 30
0.0
 10
94.423601
 20
61.318927
 30
0.0
 10
90.701722
 20
57.554789
 30
0.0
 10
86.558389
 20
54.351736
 30
0.0
  0
SPLINE
  5
192
100
AcDbEntity
  8
Layer_1
 62
7
100
AcDbSpline
 70
8
 71
3
 72
8
 73
4
 74
0
 40
0
 40
0
 40
0
 40
0
 40
1
 40
1
 40
1
 40
1
 10
86.558389
 20
54.351736
 30
0.0
 10
83.244589
 20
51.789965
 30
0.0
 10
79.648514
 20
49.573637
 30
0.0
 10
76.002705
 20
47.403348
 30
0.0
  0
LWPOLYLINE
  5
193
100
AcDbEntity
  8
Layer_1
 62
7
100
AcDbPolyline
 90
4
 70
0
 10
52.577707
 20
0.025572
 30
0.0
 10
52.638825
 20
0.016823
 30
0.0
 10
52.691211
 20
0.016823
 30
0.0
 10
52.691211
 20
0.025572
 30
0.0
  0
SPLINE
  5
194
100
AcDbEntity
  8
Layer_1
 62
7
100
AcDbSpline
 70
8
 71
3
 72
8
 73
4
 74
0
 40
0
 40
0
 40
0
 40
0
 40
1
 40
1
 40
1
 40
1
 10
75.959045
 20
47.376904
 30
0.0
 10
72.322112
 20
45.212531
 30
0.0
 10
68.618761
 20
43.089243
 30
0.0
 10
65.062854
 20
40.684233
 30
0.0
  0
SPLINE
  5
195
100
AcDbEntity
  8
Layer_1
 62
7
100
AcDbSpline
 70
8
 71
3
 72
8
 73
4
 74
0
 40
0
 40
0
 40
0
 40
0
 40
1
 40
1
 40
1
 40
1
 10
65.062854
 20
40.684233
 30
0.0
 10
62.914381
 20
39.231127
 30
0.0
 10
60.855923
 20
37.650860
 30
0.0
 10
58.846439
 20
36.002008
 30
0.0
  0
SPLINE
  5
196
100
AcDbEntity
  8
Layer_1
 62
7
100
AcDbSpline
 70
8
 71
3
 72
8
 73
4
 74
0
 40
0
 40
0
 40
0
 40
0
 40
1
 40
1
 40
1
 40
1
 10
58.846439
 20
36.002008
 30
0.0
 10
58.054484
 20
36.253920
 30
0.0
 10
57.268159
 20
36.524277
 30
0.0
 10
56.489090
 20
36.822058
 30
0.0
  0
SPLINE
  5
197
100
AcDbEntity
  8
Layer_1
 62
7
100
AcDbSpline
 70
8
 71
3
 72
8
 73
4
 74
0
 40
0
 40
0
 40
0
 40
0
 40
1
 40
1
 40
1
 40
1
 10
56.489090
 20
36.822058
 30
0.0
 10
58.619713
 20
38.374701
 30
0.0
 10
60.546432
 20
40.204568
 30
0.0
 10
61.989570
 20
42.491872
 30
0.0
  0
SPLINE
  5
198
100
AcDbEntity
  8
Layer_1
 62
7
100
AcDbSpline
 70
8
 71
3
 72
8
 73
4
 74
0
 40
0
 40
0
 40
0
 40
0
 40
1
 40
1
 40
1
 40
1
 10
61.989570
 20
42.491872
 30
0.0
 10
61.990981
 20
42.493847
 30
0.0
 10
61.988159
 20
42.498645
 30
0.0
 10
61.989570
 20
42.500677
 30
0.0
  0
LWPOLYLINE
  5
199
100
AcDbEntity
  8
Layer_1
 62
7
100
AcDbPolyline
 90
3
 70
0
 10
76.002705
 20
47.403348
 30
0.0
 10
75.976515
 20
47.394543
 30
0.0
 10
75.959045
 20
47.376904
 30
0.0
  0
SPLINE
  5
19a
100
AcDbEntity
  8
Layer_1
 62
7
100
AcDbSpline
 70
8
 71
3
 72
8
 73
4
 74
0
 40
0
 40
0
 40
0
 40
0
 40
1
 40
1
 40
1
 40
1
 10
61.998291
 20
42.509482
 30
0.0
 10
63.370009
 20
44.689048
 30
0.0
 10
64.260965
 20
47.233716
 30
0.0
 10
64.320714
 20
49.872302
 30
0.0
  0
SPLINE
  5
19b
100
AcDbEntity
  8
Layer_1
 62
7
100
AcDbSpline
 70
8
 71
3
 72
8
 73
4
 74
0
 40
0
 40
0
 40
0
 40
0
 40
1
 40
1
 40
1
 40
1
 10
64.320714
 20
49.872302
 30
0.0
 10
64.380658
 20
52.519560
 30
0.0
 10
63.570466
 20
55.217994
 30
0.0
 10
61.849864
 20
57.288029
 30
0.0
  0
SPLINE
  5
19c
100
AcDbEntity
  8
Layer_1
 62
7
100
AcDbSpline
 70
8
 71
3
 72
8
 73
4
 74
0
 40
0
 40
0
 40
0
 40
0
 40
1
 40
1
 40
1
 40
1
 10
61.849864
 20
57.288029
 30
0.0
 10
61.840495
 20
57.299318
 30
0.0
 10
61.833100
 20
57.312075
 30
0.0
 10
61.823674
 20
57.323301
 30
0.0
  0
LWPOLYLINE
  5
19d
100
AcDbEntity
  8
Layer_1
 62
7
100
AcDbPolyline
 90
2
 70
0
 10
61.989570
 20
42.500677
 30
0.0
 10
61.998291
 20
42.509482
 30
0.0
  0
SPLINE
  5
19e
100
AcDbEntity
  8
Layer_1
 62
7
100
AcDbSpline
 70
8
 71
3
 72
8
 73
4
 74
0
 40
0
 40
0
 40
0
 40
0
 40
1
 40
1
 40
1
 40
1
 10
61.797484
 20
57.349746
 30
0.0
 10
60.346904
 20
59.066131
 30
0.0
 10
58.387012
 20
60.218137
 30
0.0
 10
56.331872
 20
60.885733
 30
0.0
  0
SPLINE
  5
19f
100
AcDbEntity
  8
Layer_1
 62
7
100
AcDbSpline
 70
8
 71
3
 72
8
 73
4
 74
0
 40
0
 40
0
 40
0
 40
0
 40
1
 40
1
 40
1
 40
1
 10
56.331872
 20
60.885733
 30
0.0
 10
54.257742
 20
61.559502
 30
0.0
 10
52.099420
 20
61.758692
 30
0.0
 10
50.001953
 20
61.758692
 30
0.0
  0
SPLINE
  5
1a0
100
AcDbEntity
  8
Layer_1
 62
7
100
AcDbSpline
 70
8
 71
3
 72
8
 73
4
 74
0
 40
0
 40
0
 40
0
 40
0
 40
1
 40
1
 40
1
 40
1
 10
50.001953
 20
61.758692
 30
0.0
 10
47.904491
 20
61.758692
 30
0.0
 10
45.746166
 20
61.559502
 30
0.0
 10
43.672036
 20
60.885733
 30
0.0
  0
SPLINE
  5
1a1
100
AcDbEntity
  8
Layer_1
 62
7
100
AcDbSpline
 70
8
 71
3
 72
8
 73
4
 74
0
 40
0
 40
0
 40
0
 40
0
 40
1
 40
1
 40
1
 40
1
 10
43.672036
 20
60.885733
 30
0.0
 10
41.592038
 20
60.210057
 30
0.0
 10
39.600757
 20
59.039052
 30
0.0
 10
38.145362
 20
57.288091
 30
0.0
  0
LWPOLYLINE
  5
1a2
100
AcDbEntity
  8
Layer_1
 62
7
100
AcDbPolyline
 90
2
 70
0
 10
61.823674
 20
57.323301
 30
0.0
 10
61.797484
 20
57.349746
 30
0.0
  0
SPLINE
  5
1a3
100
AcDbEntity
  8
Layer_1
 62
7
100
AcDbSpline
 70
8
 71
3
 72
8
 73
4
 74
0
 40
0
 40
0
 40
0
 40
0
 40
1
 40
1
 40
1
 40
1
 10
38.084247
 20
57.199914
 30
0.0
 10
36.414654
 20
55.145686
 30
0.0
 10
35.628022
 20
52.496113
 30
0.0
 10
35.683244
 20
49.890000
 30
0.0
  0
LWPOLYLINE
  5
1a4
100
AcDbEntity
  8
Layer_1
 62
7
100
AcDbPolyline
 90
3
 70
0
 10
38.145362
 20
57.288091
 30
0.0
 10
38.110437
 20
57.244003
 30
0.0
 10
38.084247
 20
57.199914
 30
0.0
  0
SPLINE
  5
1a5
100
AcDbEntity
  8
Layer_1
 62
7
100
AcDbSpline
 70
8
 71
3
 72
8
 73
4
 74
0
 40
0
 40
0
 40
0
 40
0
 40
1
 40
1
 40
1
 40
1
 10
35.683244
 20
49.881195
 30
0.0
 10
35.683309
 20
49.878259
 30
0.0
 10
35.683177
 20
49.875296
 30
0.0
 10
35.683244
 20
49.872389
 30
0.0
  0
SPLINE
  5
1a6
100
AcDbEntity
  8
Layer_1
 62
7
100
AcDbSpline
 70
8
 71
3
 72
8
 73
4
 74
0
 40
0
 40
0
 40
0
 40
0
 40
1
 40
1
 40
1
 40
1
 10
35.683244
 20
49.872389
 30
0.0
 10
35.742994
 20
47.233803
 30
0.0
 10
36.633950
 20
44.689135
 30
0.0
 10
38.005671
 20
42.509570
 30
0.0
  0
LWPOLYLINE
  5
1a7
100
AcDbEntity
  8
Layer_1
 62
7
100
AcDbPolyline
 90
2
 70
0
 10
35.683244
 20
49.890000
 30
0.0
 10
35.683244
 20
49.881195
 30
0.0
  0
SPLINE
  5
1a8
100
AcDbEntity
  8
Layer_1
 62
7
100
AcDbSpline
 70
8
 71
3
 72
8
 73
4
 74
0
 40
0
 40
0
 40
0
 40
0
 40
1
 40
1
 40
1
 40
1
 10
38.005671
 20
42.500764
 30
0.0
 10
38.007929
 20
42.497265
 30
0.0
 10
38.012218
 20
42.495430
 30
0.0
 10
38.014392
 20
42.491959
 30
0.0
  0
SPLINE
  5
1a9
100
AcDbEntity
  8
Layer_1
 62
7
100
AcDbSpline
 70
8
 71
3
 72
8
 73
4
 74
0
 40
0
 40
0
 40
0
 40
0
 40
1
 40
1
 40
1
 40
1
 10
38.014392
 20
42.491959
 30
0.0
 10
39.457679
 20
40.204418
 30
0.0
 10
41.383987
 20
38.374887
 30
0.0
 10
43.514874
 20
36.822146
 30
0.0
  0
SPLINE
  5
1aa
100
AcDbEntity
  8
Layer_1
 62
7
100
AcDbSpline
 70
8
 71
3
 72
8
 73
4
 74
0
 40
0
 40
0
 40
0
 40
0
 40
1
 40
1
 40
1
 40
1
 10
43.514874
 20
36.822146
 30
0.0
 10
42.735803
 20
36.524365
 30
0.0
 10
41.949478
 20
36.254007
 30
0.0
 10
41.157526
 20
36.002095
 30
0.0
  0
SPLINE
  5
1ab
100
AcDbEntity
  8
Layer_1
 62
7
100
AcDbSpline
 70
8
 71
3
 72
8
 73
4
 74
0
 40
0
 40
0
 40
0
 40
0
 40
1
 40
1
 40
1
 40
1
 10
41.157526
 20
36.002095
 30
0.0
 10
39.148002
 20
37.650917
 30
0.0
 10
37.080877
 20
39.231245
 30
0.0
 10
34.932378
 20
40.684320
 30
0.0
  0
SPLINE
  5
1ac
100
AcDbEntity
  8
Layer_1
 62
7
100
AcDbSpline
 70
8
 71
3
 72
8
 73
4
 74
0
 40
0
 40
0
 40
0
 40
0
 40
1
 40
1
 40
1
 40
1
 10
34.932378
 20
40.684320
 30
0.0
 10
31.381887
 20
43.085591
 30
0.0
 10
27.693926
 20
45.207228
 30
0.0
 10
24.062379
 20
47.368175
 30
0.0
  0
SPLINE
  5
1ad
100
AcDbEntity
  8
Layer_1
 62
7
100
AcDbSpline
 70
8
 71
3
 72
8
 73
4
 74
0
 40
0
 40
0
 40
0
 40
0
 40
1
 40
1
 40
1
 40
1
 10
24.062379
 20
47.368175
 30
0.0
 10
24.058958
 20
47.370151
 30
0.0
 10
24.057067
 20
47.374948
 30
0.0
 10
24.053647
 20
47.376980
 30
0.0
  0
LWPOLYLINE
  5
1ae
100
AcDbEntity
  8
Layer_1
 62
7
100
AcDbPolyline
 90
2
 70
0
 10
38.005671
 20
42.509570
 30
0.0
 10
38.005671
 20
42.500764
 30
0.0
  0
SPLINE
  5
1af
100
AcDbEntity
  8
Layer_1
 62
7
100
AcDbSpline
 70
8
 71
3
 72
8
 73
4
 74
0
 40
0
 40
0
 40
0
 40
0
 40
1
 40
1
 40
1
 40
1
 10
24.001261
 20
47.403425
 30
0.0
 10
20.355588
 20
49.573688
 30
0.0
 10
16.759494
 20
51.789990
 30
0.0
 10
13.445704
 20
54.351778
 30
0.0
  0
SPLINE
  5
1b0
100
AcDbEntity
  8
Layer_1
 62
7
100
AcDbSpline
 70
8
 71
3
 72
8
 73
4
 74
0
 40
0
 40
0
 40
0
 40
0
 40
1
 40
1
 40
1
 40
1
 10
13.445704
 20
54.351778
 30
0.0
 10
9.297389
 20
57.558711
 30
0.0
 10
5.574296
 20
61.330561
 30
0.0
 10
2.392357
 20
65.515050
 30
0.0
  0
SPLINE
  5
1b1
100
AcDbEntity
  8
Layer_1
 62
7
100
AcDbSpline
 70
8
 71
3
 72
8
 73
4
 74
0
 40
0
 40
0
 40
0
 40
0
 40
1
 40
1
 40
1
 40
1
 10
2.392357
 20
65.515050
 30
0.0
 10
2.354246
 20
65.572381
 30
0.0
 10
2.310357
 20
65.625571
 30
0.0
 10
2.261393
 20
65.673769
 30
0.0
  0
SPLINE
  5
1b2
100
AcDbEntity
  8
Layer_1
 62
7
100
AcDbSpline
 70
8
 71
3
 72
8
 73
4
 74
0
 40
0
 40
0
 40
0
 40
0
 40
1
 40
1
 40
1
 40
1
 10
2.261393
 20
65.673769
 30
0.0
 10
2.258540
 20
65.679677
 30
0.0
 10
2.255629
 20
65.685557
 30
0.0
 10
2.252661
 20
65.691408
 30
0.0
  0
SPLINE
  5
1b3
100
AcDbEntity
  8
Layer_1
 62
7
100
AcDbSpline
 70
8
 71
3
 72
8
 73
4
 74
0
 40
0
 40
0
 40
0
 40
0
 40
1
 40
1
 40
1
 40
1
 10
2.252661
 20
65.691408
 30
0.0
 10
2.233008
 20
65.709872
 30
0.0
 10
2.212619
 20
65.727522
 30
0.0
 10
2.191545
 20
65.744313
 30
0.0
  0
SPLINE
  5
1b4
100
AcDbEntity
  8
Layer_1
 62
7
100
AcDbSpline
 70
8
 71
3
 72
8
 73
4
 74
0
 40
0
 40
0
 40
0
 40
0
 40
1
 40
1
 40
1
 40
1
 10
2.191545
 20
65.744313
 30
0.0
 10
2.161206
 20
65.772769
 30
0.0
 10
2.129130
 20
65.799274
 30
0.0
 10
2.095505
 20
65.823674
 30
0.0
  0
SPLINE
  5
1b5
100
AcDbEntity
  8
Layer_1
 62
7
100
AcDbSpline
 70
8
 71
3
 72
8
 73
4
 74
0
 40
0
 40
0
 40
0
 40
0
 40
1
 40
1
 40
1
 40
1
 10
2.095505
 20
65.823674
 30
0.0
 10
1.992383
 20
65.894890
 30
0.0
 10
1.876848
 20
65.945752
 30
0.0
 10
1.754999
 20
65.973576
 30
0.0
  0
SPLINE
  5
1b6
100
AcDbEntity
  8
Layer_1
 62
7
100
AcDbSpline
 70
8
 71
3
 72
8
 73
4
 74
0
 40
0
 40
0
 40
0
 40
0
 40
1
 40
1
 40
1
 40
1
 10
1.754999
 20
65.973576
 30
0.0
 10
1.729053
 20
65.980529
 30
0.0
 10
1.702839
 20
65.986414
 30
0.0
 10
1.676420
 20
65.991215
 30
0.0
  0
SPLINE
  5
1b7
100
AcDbEntity
  8
Layer_1
 62
7
100
AcDbSpline
 70
8
 71
3
 72
8
 73
4
 74
0
 40
0
 40
0
 40
0
 40
0
 40
1
 40
1
 40
1
 40
1
 10
1.676420
 20
65.991215
 30
0.0
 10
1.670600
 20
65.991267
 30
0.0
 10
1.664779
 20
65.991267
 30
0.0
 10
1.658959
 20
65.991215
 30
0.0
  0
SPLINE
  5
1b8
100
AcDbEntity
  8
Layer_1
 62
7
100
AcDbSpline
 70
8
 71
3
 72
8
 73
4
 74
0
 40
0
 40
0
 40
0
 40
0
 40
1
 40
1
 40
1
 40
1
 10
1.658959
 20
65.991215
 30
0.0
 10
1.653139
 20
65.991267
 30
0.0
 10
1.647318
 20
65.991267
 30
0.0
 10
1.641498
 20
65.991215
 30
0.0
  0
SPLINE
  5
1b9
100
AcDbEntity
  8
Layer_1
 62
7
100
AcDbSpline
 70
8
 71
3
 72
8
 73
4
 74
0
 40
0
 40
0
 40
0
 40
0
 40
1
 40
1
 40
1
 40
1
 10
1.641498
 20
65.991215
 30
0.0
 10
1.606754
 20
65.996022
 30
0.0
 10
1.571781
 20
65.998961
 30
0.0
 10
1.536727
 20
66.000020
 30
0.0
  0
LWPOLYLINE
  5
1ba
100
AcDbEntity
  8
Layer_1
 62
7
100
AcDbPolyline
 90
2
 70
0
 10
24.053647
 20
47.376980
 30
0.0
 10
24.001261
 20
47.403425
 30
0.0
  0
SPLINE
  5
1bb
100
AcDbEntity
  8
Layer_1
 62
7
100
AcDbSpline
 70
8
 71
3
 72
8
 73
4
 74
0
 40
0
 40
0
 40
0
 40
0
 40
1
 40
1
 40
1
 40
1
 10
2.409819
 20
62.331843
 30
0.0
 10
5.333453
 20
58.795660
 30
0.0
 10
8.618403
 20
55.564975
 30
0.0
 10
12.240837
 20
52.764583
 30
0.0
  0
SPLINE
  5
1bc
100
AcDbEntity
  8
Layer_1
 62
7
100
AcDbSpline
 70
8
 71
3
 72
8
 73
4
 74
0
 40
0
 40
0
 40
0
 40
0
 40
1
 40
1
 40
1
 40
1
 10
12.240837
 20
52.764583
 30
0.0
 10
15.631008
 20
50.143749
 30
0.0
 10
19.264761
 20
47.915604
 30
0.0
 10
22.892561
 20
45.754473
 30
0.0
  0
SPLINE
  5
1bd
100
AcDbEntity
  8
Layer_1
 62
7
100
AcDbSpline
 70
8
 71
3
 72
8
 73
4
 74
0
 40
0
 40
0
 40
0
 40
0
 40
1
 40
1
 40
1
 40
1
 10
22.892561
 20
45.754473
 30
0.0
 10
22.902862
 20
45.748349
 30
0.0
 10
22.908453
 20
45.734153
 30
0.0
 10
22.918754
 20
45.728029
 30
0.0
  0
LWPOLYLINE
  5
1be
100
AcDbEntity
  8
Layer_1
 62
7
100
AcDbPolyline
 90
2
 70
0
 10
1.536727
 20
66.000020
 30
0.0
 10
1.536727
 20
66.000026
 30
0.0
  0
SPLINE
  5
1bf
100
AcDbEntity
  8
Layer_1
 62
7
100
AcDbSpline
 70
8
 71
3
 72
8
 73
4
 74
0
 40
0
 40
0
 40
0
 40
0
 40
1
 40
1
 40
1
 40
1
 10
22.997332
 20
45.683946
 30
0.0
 10
26.666259
 20
43.499882
 30
0.0
 10
30.342550
 20
41.386802
 30
0.0
 10
33.832406
 20
39.026544
 30
0.0
  0
SPLINE
  5
1c0
100
AcDbEntity
  8
Layer_1
 62
7
100
AcDbSpline
 70
8
 71
3
 72
8
 73
4
 74
0
 40
0
 40
0
 40
0
 40
0
 40
1
 40
1
 40
1
 40
1
 10
33.832406
 20
39.026544
 30
0.0
 10
35.551859
 20
37.863642
 30
0.0
 10
37.233274
 20
36.630537
 30
0.0
 10
38.861417
 20
35.340725
 30
0.0
  0
SPLINE
  5
1c1
100
AcDbEntity
  8
Layer_1
 62
7
100
AcDbSpline
 70
8
 71
3
 72
8
 73
4
 74
0
 40
0
 40
0
 40
0
 40
0
 40
1
 40
1
 40
1
 40
1
 10
38.861417
 20
35.340725
 30
0.0
 10
37.876314
 20
35.090298
 30
0.0
 10
36.881966
 20
34.874104
 30
0.0
 10
35.884173
 20
34.705846
 30
0.0
  0
SPLINE
  5
1c2
100
AcDbEntity
  8
Layer_1
 62
7
100
AcDbSpline
 70
8
 71
3
 72
8
 73
4
 74
0
 40
0
 40
0
 40
0
 40
0
 40
1
 40
1
 40
1
 40
1
 10
35.884173
 20
34.705846
 30
0.0
 10
35.068237
 20
35.196848
 30
0.0
 10
34.234558
 20
35.666736
 30
0.0
 10
33.378398
 20
36.090233
 30
0.0
  0
LWPOLYLINE
  5
1c3
100
AcDbEntity
  8
Layer_1
 62
7
100
AcDbPolyline
 90
3
 70
0
 10
22.918754
 20
45.728029
 30
0.0
 10
22.944947
 20
45.710390
 30
0.0
 10
22.997332
 20
45.683946
 30
0.0
  0
SPLINE
  5
1c4
100
AcDbEntity
  8
Layer_1
 62
7
100
AcDbSpline
 70
8
 71
3
 72
8
 73
4
 74
0
 40
0
 40
0
 40
0
 40
0
 40
1
 40
1
 40
1
 40
1
 10
33.195052
 20
36.187219
 30
0.0
 10
30.201891
 20
37.644987
 30
0.0
 10
27.057032
 20
38.635601
 30
0.0
 10
23.940275
 20
39.537965
 30
0.0
  0
SPLINE
  5
1c5
100
AcDbEntity
  8
Layer_1
 62
7
100
AcDbSpline
 70
8
 71
3
 72
8
 73
4
 74
0
 40
0
 40
0
 40
0
 40
0
 40
1
 40
1
 40
1
 40
1
 10
23.940275
 20
39.537965
 30
0.0
 10
20.814564
 20
40.442927
 30
0.0
 10
17.704212
 20
41.268650
 30
0.0
 10
14.729152
 20
42.377281
 30
0.0
  0
SPLINE
  5
1c6
100
AcDbEntity
  8
Layer_1
 62
7
100
AcDbSpline
 70
8
 71
3
 72
8
 73
4
 74
0
 40
0
 40
0
 40
0
 40
0
 40
1
 40
1
 40
1
 40
1
 10
14.729152
 20
42.377281
 30
0.0
 10
12.207215
 20
43.317058
 30
0.0
 10
9.771593
 20
44.483356
 30
0.0
 10
7.438833
 20
45.833837
 30
0.0
  0
SPLINE
  5
1c7
100
AcDbEntity
  8
Layer_1
 62
7
100
AcDbSpline
 70
8
 71
3
 72
8
 73
4
 74
0
 40
0
 40
0
 40
0
 40
0
 40
1
 40
1
 40
1
 40
1
 10
7.438833
 20
45.833837
 30
0.0
 10
6.529137
 20
47.110941
 30
0.0
 10
5.687256
 20
48.439327
 30
0.0
 10
5.011637
 20
49.854733
 30
0.0
  0
SPLINE
  5
1c8
100
AcDbEntity
  8
Layer_1
 62
7
100
AcDbSpline
 70
8
 71
3
 72
8
 73
4
 74
0
 40
0
 40
0
 40
0
 40
0
 40
1
 40
1
 40
1
 40
1
 10
5.011637
 20
49.854733
 30
0.0
 10
3.166785
 20
53.719609
 30
0.0
 10
2.317367
 20
58.039452
 30
0.0
 10
2.409808
 20
62.331834
 30
0.0
  0
LWPOLYLINE
  5
1c9
100
AcDbEntity
  8
Layer_1
 62
7
100
AcDbPolyline
 90
3
 70
0
 10
33.378398
 20
36.090233
 30
0.0
 10
33.352207
 20
36.116678
 30
0.0
 10
33.195052
 20
36.187219
 30
0.0
  0
SPLINE
  5
1ca
100
AcDbEntity
  8
Layer_1
 62
7
100
AcDbSpline
 70
8
 71
3
 72
8
 73
4
 74
0
 40
0
 40
0
 40
0
 40
0
 40
1
 40
1
 40
1
 40
1
 10
97.594325
 20
62.331843
 30
0.0
 10
97.686770
 20
58.039457
 30
0.0
 10
96.828616
 20
53.719617
 30
0.0
 10
94.983781
 20
49.854728
 30
0.0
  0
SPLINE
  5
1cb
100
AcDbEntity
  8
Layer_1
 62
7
100
AcDbSpline
 70
8
 71
3
 72
8
 73
4
 74
0
 40
0
 40
0
 40
0
 40
0
 40
1
 40
1
 40
1
 40
1
 10
94.983781
 20
49.854728
 30
0.0
 10
94.355958
 20
48.539456
 30
0.0
 10
93.597059
 20
47.295314
 30
0.0
 10
92.766126
 20
46.098364
 30
0.0
  0
SPLINE
  5
1cc
100
AcDbEntity
  8
Layer_1
 62
7
100
AcDbSpline
 70
8
 71
3
 72
8
 73
4
 74
0
 40
0
 40
0
 40
0
 40
0
 40
1
 40
1
 40
1
 40
1
 10
92.766126
 20
46.098364
 30
0.0
 10
89.714638
 20
44.330665
 30
0.0
 10
86.513863
 20
42.819190
 30
0.0
 10
83.188306
 20
41.663036
 30
0.0
  0
SPLINE
  5
1cd
100
AcDbEntity
  8
Layer_1
 62
7
100
AcDbSpline
 70
8
 71
3
 72
8
 73
4
 74
0
 40
0
 40
0
 40
0
 40
0
 40
1
 40
1
 40
1
 40
1
 10
83.188306
 20
41.663036
 30
0.0
 10
80.526589
 20
40.737671
 30
0.0
 10
77.766334
 20
40.002277
 30
0.0
 10
74.998699
 20
39.185249
 30
0.0
  0
LWPOLYLINE
  5
1ce
100
AcDbEntity
  8
Layer_1
 62
7
100
AcDbPolyline
 90
2
 70
0
 10
2.409808
 20
62.331834
 30
0.0
 10
2.409819
 20
62.331843
 30
0.0
  0
SPLINE
  5
1cf
100
AcDbEntity
  8
Layer_1
 62
7
100
AcDbSpline
 70
8
 71
3
 72
8
 73
4
 74
0
 40
0
 40
0
 40
0
 40
0
 40
1
 40
1
 40
1
 40
1
 10
74.963760
 20
39.176444
 30
0.0
 10
72.253614
 20
38.375692
 30
0.0
 10
69.534905
 20
37.478476
 30
0.0
 10
66.922580
 20
36.231314
 30
0.0
  0
SPLINE
  5
1d0
100
AcDbEntity
  8
Layer_1
 62
7
100
AcDbSpline
 70
8
 71
3
 72
8
 73
4
 74
0
 40
0
 40
0
 40
0
 40
0
 40
1
 40
1
 40
1
 40
1
 10
66.922580
 20
36.231314
 30
0.0
 10
66.914227
 20
36.227334
 30
0.0
 10
66.904716
 20
36.226488
 30
0.0
 10
66.896390
 20
36.222508
 30
0.0
  0
LWPOLYLINE
  5
1d1
100
AcDbEntity
  8
Layer_1
 62
7
100
AcDbPolyline
 90
3
 70
0
 10
74.998699
 20
39.185249
 30
0.0
 10
74.981230
 20
39.185249
 30
0.0
 10
74.963760
 20
39.176444
 30
0.0
  0
SPLINE
  5
1d2
100
AcDbEntity
  8
Layer_1
 62
7
100
AcDbSpline
 70
8
 71
3
 72
8
 73
4
 74
0
 40
0
 40
0
 40
0
 40
0
 40
1
 40
1
 40
1
 40
1
 10
66.861468
 20
36.213703
 30
0.0
 10
66.843744
 20
36.205208
 30
0.0
 10
66.826771
 20
36.195782
 30
0.0
 10
66.809082
 20
36.187259
 30
0.0
  0
SPLINE
  5
1d3
100
AcDbEntity
  8
Layer_1
 62
7
100
AcDbSpline
 70
8
 71
3
 72
8
 73
4
 74
0
 40
0
 40
0
 40
0
 40
0
 40
1
 40
1
 40
1
 40
1
 10
66.809082
 20
36.187259
 30
0.0
 10
65.879896
 20
35.739468
 30
0.0
 10
64.983903
 20
35.234205
 30
0.0
 10
64.102497
 20
34.705877
 30
0.0
  0
SPLINE
  5
1d4
100
AcDbEntity
  8
Layer_1
 62
7
100
AcDbSpline
 70
8
 71
3
 72
8
 73
4
 74
0
 40
0
 40
0
 40
0
 40
0
 40
1
 40
1
 40
1
 40
1
 10
64.102497
 20
34.705877
 30
0.0
 10
63.107994
 20
34.873867
 30
0.0
 10
62.124596
 20
35.091147
 30
0.0
 10
61.142714
 20
35.340756
 30
0.0
  0
SPLINE
  5
1d5
100
AcDbEntity
  8
Layer_1
 62
7
100
AcDbSpline
 70
8
 71
3
 72
8
 73
4
 74
0
 40
0
 40
0
 40
0
 40
0
 40
1
 40
1
 40
1
 40
1
 10
61.142714
 20
35.340756
 30
0.0
 10
62.770826
 20
36.630596
 30
0.0
 10
64.452295
 20
37.863650
 30
0.0
 10
66.171725
 20
39.026575
 30
0.0
  0
SPLINE
  5
1d6
100
AcDbEntity
  8
Layer_1
 62
7
100
AcDbSpline
 70
8
 71
3
 72
8
 73
4
 74
0
 40
0
 40
0
 40
0
 40
0
 40
1
 40
1
 40
1
 40
1
 10
66.171725
 20
39.026575
 30
0.0
 10
69.661522
 20
41.386825
 30
0.0
 10
73.337858
 20
43.499871
 30
0.0
 10
77.006784
 20
45.683921
 30
0.0
  0
LWPOLYLINE
  5
1d7
100
AcDbEntity
  8
Layer_1
 62
7
100
AcDbPolyline
 90
2
 70
0
 10
66.896390
 20
36.222508
 30
0.0
 10
66.861468
 20
36.213703
 30
0.0
  0
SPLINE
  5
1d8
100
AcDbEntity
  8
Layer_1
 62
7
100
AcDbSpline
 70
8
 71
3
 72
8
 73
4
 74
0
 40
0
 40
0
 40
0
 40
0
 40
1
 40
1
 40
1
 40
1
 10
77.050444
 20
45.710365
 30
0.0
 10
80.699696
 20
47.883321
 30
0.0
 10
84.344344
 20
50.128257
 30
0.0
 10
87.754554
 20
52.764563
 30
0.0
  0
SPLINE
  5
1d9
100
AcDbEntity
  8
Layer_1
 62
7
100
AcDbSpline
 70
8
 71
3
 72
8
 73
4
 74
0
 40
0
 40
0
 40
0
 40
0
 40
1
 40
1
 40
1
 40
1
 10
87.754554
 20
52.764563
 30
0.0
 10
91.377003
 20
55.564941
 30
0.0
 10
94.670680
 20
58.795629
 30
0.0
 10
97.594302
 20
62.331823
 30
0.0
  0
LWPOLYLINE
  5
1da
100
AcDbEntity
  8
Layer_1
 62
7
100
AcDbPolyline
 90
3
 70
0
 10
77.006784
 20
45.683921
 30
0.0
 10
77.032974
 20
45.692726
 30
0.0
 10
77.050444
 20
45.710365
 30
0.0
  0
SPLINE
  5
1db
100
AcDbEntity
  8
Layer_1
 62
7
100
AcDbSpline
 70
8
 71
3
 72
8
 73
4
 74
0
 40
0
 40
0
 40
0
 40
0
 40
1
 40
1
 40
1
 40
1
 10
50.002071
 20
59.757059
 30
0.0
 10
51.973980
 20
59.757059
 30
0.0
 10
53.921040
 20
59.565746
 30
0.0
 10
55.720825
 20
58.981097
 30
0.0
  0
SPLINE
  5
1dc
100
AcDbEntity
  8
Layer_1
 62
7
100
AcDbSpline
 70
8
 71
3
 72
8
 73
4
 74
0
 40
0
 40
0
 40
0
 40
0
 40
1
 40
1
 40
1
 40
1
 10
55.720825
 20
58.981097
 30
0.0
 10
57.514254
 20
58.398514
 30
0.0
 10
59.178800
 20
57.397100
 30
0.0
 10
60.339484
 20
56.000698
 30
0.0
  0
SPLINE
  5
1dd
100
AcDbEntity
  8
Layer_1
 62
7
100
AcDbSpline
 70
8
 71
3
 72
8
 73
4
 74
0
 40
0
 40
0
 40
0
 40
0
 40
1
 40
1
 40
1
 40
1
 10
60.339484
 20
56.000698
 30
0.0
 10
61.706394
 20
54.356183
 30
0.0
 10
62.388711
 20
52.117786
 30
0.0
 10
62.338865
 20
49.916450
 30
0.0
  0
SPLINE
  5
1de
100
AcDbEntity
  8
Layer_1
 62
7
100
AcDbSpline
 70
8
 71
3
 72
8
 73
4
 74
0
 40
0
 40
0
 40
0
 40
0
 40
1
 40
1
 40
1
 40
1
 10
62.338865
 20
49.916450
 30
0.0
 10
62.288937
 20
47.711659
 30
0.0
 10
61.538274
 20
45.513557
 30
0.0
 10
60.339484
 20
43.602941
 30
0.0
  0
LWPOLYLINE
  5
1df
100
AcDbEntity
  8
Layer_1
 62
7
100
AcDbPolyline
 90
2
 70
0
 10
97.594302
 20
62.331823
 30
0.0
 10
97.594325
 20
62.331843
 30
0.0
  0
SPLINE
  5
1e0
100
AcDbEntity
  8
Layer_1
 62
7
100
AcDbSpline
 70
8
 71
3
 72
8
 73
4
 74
0
 40
0
 40
0
 40
0
 40
0
 40
1
 40
1
 40
1
 40
1
 10
60.330764
 20
43.594136
 30
0.0
 10
60.329353
 20
43.591878
 30
0.0
 10
60.332175
 20
43.587503
 30
0.0
 10
60.330764
 20
43.585330
 30
0.0
  0
SPLINE
  5
1e1
100
AcDbEntity
  8
Layer_1
 62
7
100
AcDbSpline
 70
8
 71
3
 72
8
 73
4
 74
0
 40
0
 40
0
 40
0
 40
0
 40
1
 40
1
 40
1
 40
1
 10
60.330764
 20
43.585330
 30
0.0
 10
58.841429
 20
41.218889
 30
0.0
 10
56.677919
 20
39.355593
 30
0.0
 10
54.271504
 20
37.756795
 30
0.0
  0
SPLINE
  5
1e2
100
AcDbEntity
  8
Layer_1
 62
7
100
AcDbSpline
 70
8
 71
3
 72
8
 73
4
 74
0
 40
0
 40
0
 40
0
 40
0
 40
1
 40
1
 40
1
 40
1
 10
54.271504
 20
37.756795
 30
0.0
 10
53.547335
 20
38.076909
 30
0.0
 10
52.841300
 20
38.434447
 30
0.0
 10
52.132428
 20
38.788473
 30
0.0
  0
SPLINE
  5
1e3
100
AcDbEntity
  8
Layer_1
 62
7
100
AcDbSpline
 70
8
 71
3
 72
8
 73
4
 74
0
 40
0
 40
0
 40
0
 40
0
 40
1
 40
1
 40
1
 40
1
 10
52.132428
 20
38.788473
 30
0.0
 10
54.376634
 20
40.127151
 30
0.0
 10
56.531940
 20
41.696112
 30
0.0
 10
58.287729
 20
43.744049
 30
0.0
  0
SPLINE
  5
1e4
100
AcDbEntity
  8
Layer_1
 62
7
100
AcDbSpline
 70
8
 71
3
 72
8
 73
4
 74
0
 40
0
 40
0
 40
0
 40
0
 40
1
 40
1
 40
1
 40
1
 10
58.287729
 20
43.744049
 30
0.0
 10
59.593915
 20
45.267578
 30
0.0
 10
60.700989
 20
47.106245
 30
0.0
 10
61.064161
 20
49.219872
 30
0.0
  0
LWPOLYLINE
  5
1e5
100
AcDbEntity
  8
Layer_1
 62
7
100
AcDbPolyline
 90
2
 70
0
 10
60.339484
 20
43.602941
 30
0.0
 10
60.330764
 20
43.594136
 30
0.0
  0
SPLINE
  5
1e6
100
AcDbEntity
  8
Layer_1
 62
7
100
AcDbSpline
 70
8
 71
3
 72
8
 73
4
 74
0
 40
0
 40
0
 40
0
 40
0
 40
1
 40
1
 40
1
 40
1
 10
61.072881
 20
49.246316
 30
0.0
 10
61.251376
 20
50.305502
 30
0.0
 10
61.228865
 20
51.420034
 30
0.0
 10
60.950648
 20
52.491248
 30
0.0
  0
LWPOLYLINE
  5
1e7
100
AcDbEntity
  8
Layer_1
 62
7
100
AcDbPolyline
 90
4
 70
0
 10
61.064161
 20
49.219872
 30
0.0
 10
61.072881
 20
49.219872
 30
0.0
 10
61.072881
 20
49.237511
 30
0.0
 10
61.072881
 20
49.246316
 30
0.0
  0
SPLINE
  5
1e8
100
AcDbEntity
  8
Layer_1
 62
7
100
AcDbSpline
 70
8
 71
3
 72
8
 73
4
 74
0
 40
0
 40
0
 40
0
 40
0
 40
1
 40
1
 40
1
 40
1
 10
60.950648
 20
52.508858
 30
0.0
 10
60.667396
 20
53.588308
 30
0.0
 10
60.118005
 20
54.609571
 30
0.0
 10
59.309235
 20
55.418716
 30
0.0
  0
SPLINE
  5
1e9
100
AcDbEntity
  8
Layer_1
 62
7
100
AcDbSpline
 70
8
 71
3
 72
8
 73
4
 74
0
 40
0
 40
0
 40
0
 40
0
 40
1
 40
1
 40
1
 40
1
 10
59.309235
 20
55.418716
 30
0.0
 10
58.605136
 20
56.123143
 30
0.0
 10
57.740082
 20
56.632071
 30
0.0
 10
56.803460
 20
56.917731
 30
0.0
  0
SPLINE
  5
1ea
100
AcDbEntity
  8
Layer_1
 62
7
100
AcDbSpline
 70
8
 71
3
 72
8
 73
4
 74
0
 40
0
 40
0
 40
0
 40
0
 40
1
 40
1
 40
1
 40
1
 10
56.803460
 20
56.917731
 30
0.0
 10
55.867902
 20
57.203069
 30
0.0
 10
54.884067
 20
57.261427
 30
0.0
 10
53.930988
 20
57.111722
 30
0.0
  0
SPLINE
  5
1eb
100
AcDbEntity
  8
Layer_1
 62
7
100
AcDbSpline
 70
8
 71
3
 72
8
 73
4
 74
0
 40
0
 40
0
 40
0
 40
0
 40
1
 40
1
 40
1
 40
1
 10
53.930988
 20
57.111722
 30
0.0
 10
52.423292
 20
56.874898
 30
0.0
 10
51.065405
 20
56.112689
 30
0.0
 10
50.002071
 20
55.057187
 30
0.0
  0
SPLINE
  5
1ec
100
AcDbEntity
  8
Layer_1
 62
7
100
AcDbSpline
 70
8
 71
3
 72
8
 73
4
 74
0
 40
0
 40
0
 40
0
 40
0
 40
1
 40
1
 40
1
 40
1
 10
50.002071
 20
55.057187
 30
0.0
 10
48.938737
 20
56.112687
 30
0.0
 10
47.580853
 20
56.874895
 30
0.0
 10
46.073157
 20
57.111722
 30
0.0
  0
SPLINE
  5
1ed
100
AcDbEntity
  8
Layer_1
 62
7
100
AcDbSpline
 70
8
 71
3
 72
8
 73
4
 74
0
 40
0
 40
0
 40
0
 40
0
 40
1
 40
1
 40
1
 40
1
 10
46.073157
 20
57.111722
 30
0.0
 10
45.149254
 20
57.256844
 30
0.0
 10
44.197852
 20
57.198511
 30
0.0
 10
43.287993
 20
56.935367
 30
0.0
  0
LWPOLYLINE
  5
1ee
100
AcDbEntity
  8
Layer_1
 62
7
100
AcDbPolyline
 90
3
 70
0
 10
60.950648
 20
52.491248
 30
0.0
 10
60.950648
 20
52.500053
 30
0.0
 10
60.950648
 20
52.508858
 30
0.0
  0
SPLINE
  5
1ef
100
AcDbEntity
  8
Layer_1
 62
7
100
AcDbSpline
 70
8
 71
3
 72
8
 73
4
 74
0
 40
0
 40
0
 40
0
 40
0
 40
1
 40
1
 40
1
 40
1
 10
43.200685
 20
56.917757
 30
0.0
 10
42.264068
 20
56.632097
 30
0.0
 10
41.390275
 20
56.123160
 30
0.0
 10
40.686178
 20
55.418742
 30
0.0
  0
SPLINE
  5
1f0
100
AcDbEntity
  8
Layer_1
 62
7
100
AcDbSpline
 70
8
 71
3
 72
8
 73
4
 74
0
 40
0
 40
0
 40
0
 40
0
 40
1
 40
1
 40
1
 40
1
 10
40.686178
 20
55.418742
 30
0.0
 10
39.877408
 20
54.609596
 30
0.0
 10
39.328023
 20
53.588327
 30
0.0
 10
39.044765
 20
52.508884
 30
0.0
  0
SPLINE
  5
1f1
100
AcDbEntity
  8
Layer_1
 62
7
100
AcDbSpline
 70
8
 71
3
 72
8
 73
4
 74
0
 40
0
 40
0
 40
0
 40
0
 40
1
 40
1
 40
1
 40
1
 10
39.044765
 20
52.508884
 30
0.0
 10
38.762295
 20
51.432404
 30
0.0
 10
38.751821
 20
50.311118
 30
0.0
 10
38.931264
 20
49.246316
 30
0.0
  0
SPLINE
  5
1f2
100
AcDbEntity
  8
Layer_1
 62
7
100
AcDbSpline
 70
8
 71
3
 72
8
 73
4
 74
0
 40
0
 40
0
 40
0
 40
0
 40
1
 40
1
 40
1
 40
1
 10
38.931264
 20
49.246316
 30
0.0
 10
39.289426
 20
47.121010
 30
0.0
 10
40.404517
 20
45.274238
 30
0.0
 10
41.716427
 20
43.744041
 30
0.0
  0
SPLINE
  5
1f3
100
AcDbEntity
  8
Layer_1
 62
7
100
AcDbSpline
 70
8
 71
3
 72
8
 73
4
 74
0
 40
0
 40
0
 40
0
 40
0
 40
1
 40
1
 40
1
 40
1
 10
41.716427
 20
43.744041
 30
0.0
 10
43.472214
 20
41.696101
 30
0.0
 10
45.627522
 20
40.127146
 30
0.0
 10
47.871728
 20
38.788464
 30
0.0
  0
SPLINE
  5
1f4
100
AcDbEntity
  8
Layer_1
 62
7
100
AcDbSpline
 70
8
 71
3
 72
8
 73
4
 74
0
 40
0
 40
0
 40
0
 40
0
 40
1
 40
1
 40
1
 40
1
 10
47.871728
 20
38.788464
 30
0.0
 10
47.160503
 20
38.433265
 30
0.0
 10
46.450542
 20
38.077846
 30
0.0
 10
45.723921
 20
37.756787
 30
0.0
  0
SPLINE
  5
1f5
100
AcDbEntity
  8
Layer_1
 62
7
100
AcDbSpline
 70
8
 71
3
 72
8
 73
4
 74
0
 40
0
 40
0
 40
0
 40
0
 40
1
 40
1
 40
1
 40
1
 10
45.723921
 20
37.756787
 30
0.0
 10
43.318674
 20
39.355192
 30
0.0
 10
41.162137
 20
41.219809
 30
0.0
 10
39.673393
 20
43.585322
 30
0.0
  0
LWPOLYLINE
  5
1f6
100
AcDbEntity
  8
Layer_1
 62
7
100
AcDbPolyline
 90
3
 70
0
 10
43.287993
 20
56.935367
 30
0.0
 10
43.244339
 20
56.926562
 30
0.0
 10
43.200685
 20
56.917757
 30
0.0
  0
SPLINE
  5
1f7
100
AcDbEntity
  8
Layer_1
 62
7
100
AcDbSpline
 70
8
 71
3
 72
8
 73
4
 74
0
 40
0
 40
0
 40
0
 40
0
 40
1
 40
1
 40
1
 40
1
 10
39.664672
 20
43.602933
 30
0.0
 10
38.470646
 20
45.505951
 30
0.0
 10
37.711861
 20
47.694003
 30
0.0
 10
37.656559
 20
49.889989
 30
0.0
  0
LWPOLYLINE
  5
1f8
100
AcDbEntity
  8
Layer_1
 62
7
100
AcDbPolyline
 90
3
 70
0
 10
39.673393
 20
43.585322
 30
0.0
 10
39.664672
 20
43.594127
 30
0.0
 10
39.664672
 20
43.602933
 30
0.0
  0
SPLINE
  5
1f9
100
AcDbEntity
  8
Layer_1
 62
7
100
AcDbSpline
 70
8
 71
3
 72
8
 73
4
 74
0
 40
0
 40
0
 40
0
 40
0
 40
1
 40
1
 40
1
 40
1
 10
37.656559
 20
49.916433
 30
0.0
 10
37.606713
 20
52.117769
 30
0.0
 10
38.297760
 20
54.356169
 30
0.0
 10
39.664672
 20
56.000681
 30
0.0
  0
LWPOLYLINE
  5
1fa
100
AcDbEntity
  8
Layer_1
 62
7
100
AcDbPolyline
 90
4
 70
0
 10
37.656559
 20
49.889989
 30
0.0
 10
37.665280
 20
49.889989
 30
0.0
 10
37.665280
 20
49.907627
 30
0.0
 10
37.656559
 20
49.916433
 30
0.0
  0
SPLINE
  5
1fb
100
AcDbEntity
  8
Layer_1
 62
7
100
AcDbSpline
 70
8
 71
3
 72
8
 73
4
 74
0
 40
0
 40
0
 40
0
 40
0
 40
1
 40
1
 40
1
 40
1
 10
39.699597
 20
56.044770
 30
0.0
 10
40.858480
 20
57.418944
 30
0.0
 10
42.508174
 20
58.404430
 30
0.0
 10
44.283329
 20
58.981080
 30
0.0
  0
SPLINE
  5
1fc
100
AcDbEntity
  8
Layer_1
 62
7
100
AcDbSpline
 70
8
 71
3
 72
8
 73
4
 74
0
 40
0
 40
0
 40
0
 40
0
 40
1
 40
1
 40
1
 40
1
 10
44.283329
 20
58.981080
 30
0.0
 10
46.083114
 20
59.565729
 30
0.0
 10
48.030179
 20
59.757042
 30
0.0
 10
50.002082
 20
59.757042
 30
0.0
  0
LWPOLYLINE
  5
1fd
100
AcDbEntity
  8
Layer_1
 62
7
100
AcDbPolyline
 90
2
 70
0
 10
39.664672
 20
56.000681
 30
0.0
 10
39.699597
 20
56.044770
 30
0.0
  0
SPLINE
  5
1fe
100
AcDbEntity
  8
Layer_1
 62
7
100
AcDbSpline
 70
8
 71
3
 72
8
 73
4
 74
0
 40
0
 40
0
 40
0
 40
0
 40
1
 40
1
 40
1
 40
1
 10
44.754790
 20
55.180648
 30
0.0
 10
45.091252
 20
55.202605
 30
0.0
 10
45.433082
 20
55.189086
 30
0.0
 10
45.767575
 20
55.136559
 30
0.0
  0
SPLINE
  5
1ff
100
AcDbEntity
  8
Layer_1
 62
7
100
AcDbSpline
 70
8
 71
3
 72
8
 73
4
 74
0
 40
0
 40
0
 40
0
 40
0
 40
1
 40
1
 40
1
 40
1
 10
45.767575
 20
55.136559
 30
0.0
 10
46.891121
 20
54.960074
 30
0.0
 10
47.959400
 20
54.327837
 30
0.0
 10
48.771012
 20
53.461186
 30
0.0
  0
SPLINE
  5
200
100
AcDbEntity
  8
Layer_1
 62
7
100
AcDbSpline
 70
8
 71
3
 72
8
 73
4
 74
0
 40
0
 40
0
 40
0
 40
0
 40
1
 40
1
 40
1
 40
1
 10
48.771012
 20
53.461186
 30
0.0
 10
48.698887
 20
53.345642
 30
0.0
 10
48.620074
 20
53.231367
 30
0.0
 10
48.552739
 20
53.117293
 30
0.0
  0
SPLINE
  5
201
100
AcDbEntity
  8
Layer_1
 62
7
100
AcDbSpline
 70
8
 71
3
 72
8
 73
4
 74
0
 40
0
 40
0
 40
0
 40
0
 40
1
 40
1
 40
1
 40
1
 10
48.552739
 20
53.117293
 30
0.0
 10
48.549719
 20
53.120115
 30
0.0
 10
48.547010
 20
53.123276
 30
0.0
 10
48.544018
 20
53.126098
 30
0.0
  0
LWPOLYLINE
  5
202
100
AcDbEntity
  8
Layer_1
 62
7
100
AcDbPolyline
 90
2
 70
0
 10
50.002082
 20
59.757042
 30
0.0
 10
50.002071
 20
59.757059
 30
0.0
  0
SPLINE
  5
203
100
AcDbEntity
  8
Layer_1
 62
7
100
AcDbSpline
 70
8
 71
3
 72
8
 73
4
 74
0
 40
0
 40
0
 40
0
 40
0
 40
1
 40
1
 40
1
 40
1
 10
48.517828
 20
53.152542
 30
0.0
 10
48.028009
 20
53.608963
 30
0.0
 10
47.455490
 20
54.059986
 30
0.0
 10
46.745450
 20
54.351755
 30
0.0
  0
SPLINE
  5
204
100
AcDbEntity
  8
Layer_1
 62
7
100
AcDbSpline
 70
8
 71
3
 72
8
 73
4
 74
0
 40
0
 40
0
 40
0
 40
0
 40
1
 40
1
 40
1
 40
1
 10
46.745450
 20
54.351755
 30
0.0
 10
46.025382
 20
54.647648
 30
0.0
 10
45.182816
 20
54.764325
 30
0.0
 10
44.344447
 20
54.519294
 30
0.0
  0
SPLINE
  5
205
100
AcDbEntity
  8
Layer_1
 62
7
100
AcDbSpline
 70
8
 71
3
 72
8
 73
4
 74
0
 40
0
 40
0
 40
0
 40
0
 40
1
 40
1
 40
1
 40
1
 10
44.344447
 20
54.519294
 30
0.0
 10
43.527891
 20
54.280638
 30
0.0
 10
42.842378
 20
53.727714
 30
0.0
 10
42.432374
 20
52.985004
 30
0.0
  0
SPLINE
  5
206
100
AcDbEntity
  8
Layer_1
 62
7
100
AcDbSpline
 70
8
 71
3
 72
8
 73
4
 74
0
 40
0
 40
0
 40
0
 40
0
 40
1
 40
1
 40
1
 40
1
 10
42.432374
 20
52.985004
 30
0.0
 10
42.023330
 20
52.244027
 30
0.0
 10
41.916289
 20
51.383997
 30
0.0
 10
42.118061
 20
50.568942
 30
0.0
  0
SPLINE
  5
207
100
AcDbEntity
  8
Layer_1
 62
7
100
AcDbSpline
 70
8
 71
3
 72
8
 73
4
 74
0
 40
0
 40
0
 40
0
 40
0
 40
1
 40
1
 40
1
 40
1
 10
42.118061
 20
50.568942
 30
0.0
 10
42.288215
 20
49.881609
 30
0.0
 10
42.695643
 20
49.303508
 30
0.0
 10
43.218157
 20
48.849480
 30
0.0
  0
LWPOLYLINE
  5
208
100
AcDbEntity
  8
Layer_1
 62
7
100
AcDbPolyline
 90
3
 70
0
 10
48.544018
 20
53.126098
 30
0.0
 10
48.535297
 20
53.143737
 30
0.0
 10
48.517828
 20
53.152542
 30
0.0
  0
SPLINE
  5
209
100
AcDbEntity
  8
Layer_1
 62
7
100
AcDbSpline
 70
8
 71
3
 72
8
 73
4
 74
0
 40
0
 40
0
 40
0
 40
0
 40
1
 40
1
 40
1
 40
1
 10
43.488817
 20
48.584948
 30
0.0
 10
44.136429
 20
48.138342
 30
0.0
 10
44.916336
 20
47.948006
 30
0.0
 10
45.689007
 20
48.002977
 30
0.0
  0
LWPOLYLINE
  5
20a
100
AcDbEntity
  8
Layer_1
 62
7
100
AcDbPolyline
 90
3
 70
0
 10
43.218157
 20
48.849480
 30
0.0
 10
43.279273
 20
48.734850
 30
0.0
 10
43.488817
 20
48.584948
 30
0.0
  0
SPLINE
  5
20b
100
AcDbEntity
  8
Layer_1
 62
7
100
AcDbSpline
 70
8
 71
3
 72
8
 73
4
 74
0
 40
0
 40
0
 40
0
 40
0
 40
1
 40
1
 40
1
 40
1
 10
45.741393
 20
47.994172
 30
0.0
 10
45.759004
 20
47.995583
 30
0.0
 10
45.776183
 20
47.992479
 30
0.0
 10
45.793779
 20
47.994172
 30
0.0
  0
SPLINE
  5
20c
100
AcDbEntity
  8
Layer_1
 62
7
100
AcDbSpline
 70
8
 71
3
 72
8
 73
4
 74
0
 40
0
 40
0
 40
0
 40
0
 40
1
 40
1
 40
1
 40
1
 10
45.793779
 20
47.994172
 30
0.0
 10
46.483598
 20
48.064564
 30
0.0
 10
47.094257
 20
48.346656
 30
0.0
 10
47.618541
 20
48.708412
 30
0.0
  0
LWPOLYLINE
  5
20d
100
AcDbEntity
  8
Layer_1
 62
7
100
AcDbPolyline
 90
3
 70
0
 10
45.689007
 20
48.002977
 30
0.0
 10
45.689007
 20
47.994172
 30
0.0
 10
45.741393
 20
47.994172
 30
0.0
  0
SPLINE
  5
20e
100
AcDbEntity
  8
Layer_1
 62
7
100
AcDbSpline
 70
8
 71
3
 72
8
 73
4
 74
0
 40
0
 40
0
 40
0
 40
0
 40
1
 40
1
 40
1
 40
1
 10
47.766967
 20
48.796589
 30
0.0
 10
48.122203
 20
49.061093
 30
0.0
 10
48.408221
 20
49.370815
 30
0.0
 10
48.674983
 20
49.687181
 30
0.0
  0
SPLINE
  5
20f
100
AcDbEntity
  8
Layer_1
 62
7
100
AcDbSpline
 70
8
 71
3
 72
8
 73
4
 74
0
 40
0
 40
0
 40
0
 40
0
 40
1
 40
1
 40
1
 40
1
 10
48.674983
 20
49.687181
 30
0.0
 10
48.782101
 20
49.479897
 30
0.0
 10
48.869426
 20
49.267962
 30
0.0
 10
48.954372
 20
49.052302
 30
0.0
  0
SPLINE
  5
210
100
AcDbEntity
  8
Layer_1
 62
7
100
AcDbSpline
 70
8
 71
3
 72
8
 73
4
 74
0
 40
0
 40
0
 40
0
 40
0
 40
1
 40
1
 40
1
 40
1
 10
48.954372
 20
49.052302
 30
0.0
 10
48.854810
 20
48.707624
 30
0.0
 10
48.755154
 20
48.361690
 30
0.0
 10
48.701176
 20
48.002992
 30
0.0
  0
SPLINE
  5
211
100
AcDbEntity
  8
Layer_1
 62
7
100
AcDbSpline
 70
8
 71
3
 72
8
 73
4
 74
0
 40
0
 40
0
 40
0
 40
0
 40
1
 40
1
 40
1
 40
1
 10
48.701176
 20
48.002992
 30
0.0
 10
48.503886
 20
46.691973
 30
0.0
 10
48.629142
 20
45.337761
 30
0.0
 10
49.067873
 20
44.087909
 30
0.0
  0
LWPOLYLINE
  5
212
100
AcDbEntity
  8
Layer_1
 62
7
100
AcDbPolyline
 90
3
 70
0
 10
47.618541
 20
48.708412
 30
0.0
 10
47.697120
 20
48.743681
 30
0.0
 10
47.766967
 20
48.796589
 30
0.0
  0
SPLINE
  5
213
100
AcDbEntity
  8
Layer_1
 62
7
100
AcDbSpline
 70
8
 71
3
 72
8
 73
4
 74
0
 40
0
 40
0
 40
0
 40
0
 40
1
 40
1
 40
1
 40
1
 10
50.936292
 20
44.087909
 30
0.0
 10
51.375029
 20
45.337764
 30
0.0
 10
51.500276
 20
46.691976
 30
0.0
 10
51.302991
 20
48.002992
 30
0.0
  0
SPLINE
  5
214
100
AcDbEntity
  8
Layer_1
 62
7
100
AcDbSpline
 70
8
 71
3
 72
8
 73
4
 74
0
 40
0
 40
0
 40
0
 40
0
 40
1
 40
1
 40
1
 40
1
 10
51.302991
 20
48.002992
 30
0.0
 10
51.248480
 20
48.365238
 30
0.0
 10
51.142046
 20
48.713190
 30
0.0
 10
51.041064
 20
49.061122
 30
0.0
  0
SPLINE
  5
215
100
AcDbEntity
  8
Layer_1
 62
7
100
AcDbSpline
 70
8
 71
3
 72
8
 73
4
 74
0
 40
0
 40
0
 40
0
 40
0
 40
1
 40
1
 40
1
 40
1
 10
51.041064
 20
49.061122
 30
0.0
 10
51.125443
 20
49.274668
 30
0.0
 10
51.223060
 20
49.481867
 30
0.0
 10
51.329184
 20
49.687181
 30
0.0
  0
SPLINE
  5
216
100
AcDbEntity
  8
Layer_1
 62
7
100
AcDbSpline
 70
8
 71
3
 72
8
 73
4
 74
0
 40
0
 40
0
 40
0
 40
0
 40
1
 40
1
 40
1
 40
1
 10
51.329184
 20
49.687181
 30
0.0
 10
51.595944
 20
49.370815
 30
0.0
 10
51.881962
 20
49.061093
 30
0.0
 10
52.237201
 20
48.796589
 30
0.0
  0
SPLINE
  5
217
100
AcDbEntity
  8
Layer_1
 62
7
100
AcDbSpline
 70
8
 71
3
 72
8
 73
4
 74
0
 40
0
 40
0
 40
0
 40
0
 40
1
 40
1
 40
1
 40
1
 10
52.237201
 20
48.796589
 30
0.0
 10
52.789524
 20
48.385338
 30
0.0
 10
53.459053
 20
48.070838
 30
0.0
 10
54.210388
 20
47.994172
 30
0.0
  0
SPLINE
  5
218
100
AcDbEntity
  8
Layer_1
 62
7
100
AcDbSpline
 70
8
 71
3
 72
8
 73
4
 74
0
 40
0
 40
0
 40
0
 40
0
 40
1
 40
1
 40
1
 40
1
 10
54.210388
 20
47.994172
 30
0.0
 10
54.227999
 20
47.992479
 30
0.0
 10
54.245175
 20
47.995583
 30
0.0
 10
54.262772
 20
47.994172
 30
0.0
  0
LWPOLYLINE
  5
219
100
AcDbEntity
  8
Layer_1
 62
7
100
AcDbPolyline
 90
3
 70
0
 10
49.067873
 20
44.087909
 30
0.0
 10
50.002082
 20
41.433767
 30
0.0
 10
50.936292
 20
44.087909
 30
0.0
  0
SPLINE
  5
21a
100
AcDbEntity
  8
Layer_1
 62
7
100
AcDbSpline
 70
8
 71
3
 72
8
 73
4
 74
0
 40
0
 40
0
 40
0
 40
0
 40
1
 40
1
 40
1
 40
1
 10
54.306429
 20
48.002977
 30
0.0
 10
55.082032
 20
47.945822
 30
0.0
 10
55.856551
 20
48.136649
 30
0.0
 10
56.506619
 20
48.584948
 30
0.0
  0
SPLINE
  5
21b
100
AcDbEntity
  8
Layer_1
 62
7
100
AcDbSpline
 70
8
 71
3
 72
8
 73
4
 74
0
 40
0
 40
0
 40
0
 40
0
 40
1
 40
1
 40
1
 40
1
 10
56.506619
 20
48.584948
 30
0.0
 10
57.185332
 20
49.052994
 30
0.0
 10
57.676049
 20
49.755685
 30
0.0
 10
57.877375
 20
50.568942
 30
0.0
  0
SPLINE
  5
21c
100
AcDbEntity
  8
Layer_1
 62
7
100
AcDbSpline
 70
8
 71
3
 72
8
 73
4
 74
0
 40
0
 40
0
 40
0
 40
0
 40
1
 40
1
 40
1
 40
1
 10
57.877375
 20
50.568942
 30
0.0
 10
58.075306
 20
51.368489
 30
0.0
 10
57.970500
 20
52.209517
 30
0.0
 10
57.580522
 20
52.940915
 30
0.0
  0
LWPOLYLINE
  5
21d
100
AcDbEntity
  8
Layer_1
 62
7
100
AcDbPolyline
 90
3
 70
0
 10
54.262772
 20
47.994172
 30
0.0
 10
54.306429
 20
47.994172
 30
0.0
 10
54.306429
 20
48.002977
 30
0.0
  0
SPLINE
  5
21e
100
AcDbEntity
  8
Layer_1
 62
7
100
AcDbSpline
 70
8
 71
3
 72
8
 73
4
 74
0
 40
0
 40
0
 40
0
 40
0
 40
1
 40
1
 40
1
 40
1
 10
57.563025
 20
52.985027
 30
0.0
 10
57.153021
 20
53.727737
 30
0.0
 10
56.476232
 20
54.280664
 30
0.0
 10
55.659684
 20
54.519316
 30
0.0
  0
SPLINE
  5
21f
100
AcDbEntity
  8
Layer_1
 62
7
100
AcDbSpline
 70
8
 71
3
 72
8
 73
4
 74
0
 40
0
 40
0
 40
0
 40
0
 40
1
 40
1
 40
1
 40
1
 10
55.659684
 20
54.519316
 30
0.0
 10
54.821315
 20
54.764347
 30
0.0
 10
53.978749
 20
54.647671
 30
0.0
 10
53.258681
 20
54.351778
 30
0.0
  0
SPLINE
  5
220
100
AcDbEntity
  8
Layer_1
 62
7
100
AcDbSpline
 70
8
 71
3
 72
8
 73
4
 74
0
 40
0
 40
0
 40
0
 40
0
 40
1
 40
1
 40
1
 40
1
 10
53.258681
 20
54.351778
 30
0.0
 10
52.548641
 20
54.060005
 30
0.0
 10
51.976122
 20
53.608989
 30
0.0
 10
51.486303
 20
53.152565
 30
0.0
  0
SPLINE
  5
221
100
AcDbEntity
  8
Layer_1
 62
7
100
AcDbSpline
 70
8
 71
3
 72
8
 73
4
 74
0
 40
0
 40
0
 40
0
 40
0
 40
1
 40
1
 40
1
 40
1
 10
51.486303
 20
53.152565
 30
0.0
 10
51.474196
 20
53.141304
 30
0.0
 10
51.463415
 20
53.128632
 30
0.0
 10
51.451381
 20
53.117293
 30
0.0
  0
SPLINE
  5
222
100
AcDbEntity
  8
Layer_1
 62
7
100
AcDbSpline
 70
8
 71
3
 72
8
 73
4
 74
0
 40
0
 40
0
 40
0
 40
0
 40
1
 40
1
 40
1
 40
1
 10
51.451381
 20
53.117293
 30
0.0
 10
51.384043
 20
53.231367
 30
0.0
 10
51.305232
 20
53.345642
 30
0.0
 10
51.233108
 20
53.461186
 30
0.0
  0
SPLINE
  5
223
100
AcDbEntity
  8
Layer_1
 62
7
100
AcDbSpline
 70
8
 71
3
 72
8
 73
4
 74
0
 40
0
 40
0
 40
0
 40
0
 40
1
 40
1
 40
1
 40
1
 10
51.233108
 20
53.461186
 30
0.0
 10
52.044719
 20
54.327837
 30
0.0
 10
53.112998
 20
54.960077
 30
0.0
 10
54.236545
 20
55.136559
 30
0.0
  0
SPLINE
  5
224
100
AcDbEntity
  8
Layer_1
 62
7
100
AcDbSpline
 70
8
 71
3
 72
8
 73
4
 74
0
 40
0
 40
0
 40
0
 40
0
 40
1
 40
1
 40
1
 40
1
 10
54.236545
 20
55.136559
 30
0.0
 10
54.905527
 20
55.241642
 30
0.0
 10
55.591282
 20
55.198241
 30
0.0
 10
56.227193
 20
55.004293
 30
0.0
  0
SPLINE
  5
225
100
AcDbEntity
  8
Layer_1
 62
7
100
AcDbSpline
 70
8
 71
3
 72
8
 73
4
 74
0
 40
0
 40
0
 40
0
 40
0
 40
1
 40
1
 40
1
 40
1
 10
56.227193
 20
55.004293
 30
0.0
 10
56.862004
 20
54.810680
 30
0.0
 10
57.458896
 20
54.452560
 30
0.0
 10
57.920992
 20
53.990251
 30
0.0
  0
SPLINE
  5
226
100
AcDbEntity
  8
Layer_1
 62
7
100
AcDbSpline
 70
8
 71
3
 72
8
 73
4
 74
0
 40
0
 40
0
 40
0
 40
0
 40
1
 40
1
 40
1
 40
1
 10
57.920992
 20
53.990251
 30
0.0
 10
58.449959
 20
53.461039
 30
0.0
 10
58.838161
 20
52.755772
 30
0.0
 10
59.038550
 20
51.997441
 30
0.0
  0
LWPOLYLINE
  5
227
100
AcDbEntity
  8
Layer_1
 62
7
100
AcDbPolyline
 90
4
 70
0
 10
57.580522
 20
52.940915
 30
0.0
 10
57.589215
 20
52.949749
 30
0.0
 10
57.580494
 20
52.967388
 30
0.0
 10
57.563025
 20
52.985027
 30
0.0
  0
SPLINE
  5
228
100
AcDbEntity
  8
Layer_1
 62
7
100
AcDbSpline
 70
8
 71
3
 72
8
 73
4
 74
0
 40
0
 40
0
 40
0
 40
0
 40
1
 40
1
 40
1
 40
1
 10
59.038550
 20
51.988635
 30
0.0
 10
59.236978
 20
51.232438
 30
0.0
 10
59.257995
 20
50.412159
 30
0.0
 10
59.125858
 20
49.607843
 30
0.0
  0
LWPOLYLINE
  5
229
100
AcDbEntity
  8
Layer_1
 62
7
100
AcDbPolyline
 90
2
 70
0
 10
59.038550
 20
51.997441
 30
0.0
 10
59.038550
 20
51.988635
 30
0.0
  0
SPLINE
  5
22a
100
AcDbEntity
  8
Layer_1
 62
7
100
AcDbSpline
 70
8
 71
3
 72
8
 73
4
 74
0
 40
0
 40
0
 40
0
 40
0
 40
1
 40
1
 40
1
 40
1
 10
59.125858
 20
49.599037
 30
0.0
 10
59.125012
 20
49.593223
 30
0.0
 10
59.126987
 20
49.587212
 30
0.0
 10
59.125858
 20
49.581398
 30
0.0
  0
SPLINE
  5
22b
100
AcDbEntity
  8
Layer_1
 62
7
100
AcDbSpline
 70
8
 71
3
 72
8
 73
4
 74
0
 40
0
 40
0
 40
0
 40
0
 40
1
 40
1
 40
1
 40
1
 10
59.125858
 20
49.581398
 30
0.0
 10
58.851290
 20
47.952118
 30
0.0
 10
57.951292
 20
46.406929
 30
0.0
 10
56.794703
 20
45.057893
 30
0.0
  0
SPLINE
  5
22c
100
AcDbEntity
  8
Layer_1
 62
7
100
AcDbSpline
 70
8
 71
3
 72
8
 73
4
 74
0
 40
0
 40
0
 40
0
 40
0
 40
1
 40
1
 40
1
 40
1
 10
56.794703
 20
45.057893
 30
0.0
 10
54.965657
 20
42.924510
 30
0.0
 10
52.554111
 20
41.286210
 30
0.0
 10
50.002046
 20
39.864239
 30
0.0
  0
SPLINE
  5
22d
100
AcDbEntity
  8
Layer_1
 62
7
100
AcDbSpline
 70
8
 71
3
 72
8
 73
4
 74
0
 40
0
 40
0
 40
0
 40
0
 40
1
 40
1
 40
1
 40
1
 10
50.002046
 20
39.864239
 30
0.0
 10
47.449981
 20
41.286213
 30
0.0
 10
45.038434
 20
42.924504
 30
0.0
 10
43.209389
 20
45.057893
 30
0.0
  0
SPLINE
  5
22e
100
AcDbEntity
  8
Layer_1
 62
7
100
AcDbSpline
 70
8
 71
3
 72
8
 73
4
 74
0
 40
0
 40
0
 40
0
 40
0
 40
1
 40
1
 40
1
 40
1
 10
43.209389
 20
45.057893
 30
0.0
 10
42.052805
 20
46.406929
 30
0.0
 10
41.152804
 20
47.952121
 30
0.0
 10
40.878233
 20
49.581398
 30
0.0
  0
SPLINE
  5
22f
100
AcDbEntity
  8
Layer_1
 62
7
100
AcDbSpline
 70
8
 71
3
 72
8
 73
4
 74
0
 40
0
 40
0
 40
0
 40
0
 40
1
 40
1
 40
1
 40
1
 10
40.878233
 20
49.581398
 30
0.0
 10
40.741285
 20
50.394052
 30
0.0
 10
40.764955
 20
51.224220
 30
0.0
 10
40.965544
 20
51.988644
 30
0.0
  0
SPLINE
  5
230
100
AcDbEntity
  8
Layer_1
 62
7
100
AcDbSpline
 70
8
 71
3
 72
8
 73
4
 74
0
 40
0
 40
0
 40
0
 40
0
 40
1
 40
1
 40
1
 40
1
 10
40.965544
 20
51.988644
 30
0.0
 10
41.165324
 20
52.749978
 30
0.0
 10
41.552295
 20
53.459222
 30
0.0
 10
42.083102
 20
53.990274
 30
0.0
  0
SPLINE
  5
231
100
AcDbEntity
  8
Layer_1
 62
7
100
AcDbSpline
 70
8
 71
3
 72
8
 73
4
 74
0
 40
0
 40
0
 40
0
 40
0
 40
1
 40
1
 40
1
 40
1
 10
42.083102
 20
53.990274
 30
0.0
 10
42.534262
 20
54.441640
 30
0.0
 10
43.106767
 20
54.790453
 30
0.0
 10
43.724515
 20
54.986679
 30
0.0
  0
LWPOLYLINE
  5
232
100
AcDbEntity
  8
Layer_1
 62
7
100
AcDbPolyline
 90
2
 70
0
 10
59.125858
 20
49.607843
 30
0.0
 10
59.125858
 20
49.599037
 30
0.0
  0
SPLINE
  5
233
100
AcDbEntity
  8
Layer_1
 62
7
100
AcDbSpline
 70
8
 71
3
 72
8
 73
4
 74
0
 40
0
 40
0
 40
0
 40
0
 40
1
 40
1
 40
1
 40
1
 10
43.768169
 20
55.004318
 30
0.0
 10
44.086123
 20
55.101290
 30
0.0
 10
44.418299
 20
55.158719
 30
0.0
 10
44.754764
 20
55.180673
 30
0.0
  0
LWPOLYLINE
  5
234
100
AcDbEntity
  8
Layer_1
 62
7
100
AcDbPolyline
 90
2
 70
0
 10
43.724515
 20
54.986679
 30
0.0
 10
43.768169
 20
55.004318
 30
0.0
  0
SPLINE
  5
235
100
AcDbEntity
  8
Layer_1
 62
7
100
AcDbSpline
 70
8
 71
3
 72
8
 73
4
 74
0
 40
0
 40
0
 40
0
 40
0
 40
1
 40
1
 40
1
 40
1
 10
45.409607
 20
52.641136
 30
0.0
 10
45.598902
 20
52.623525
 30
0.0
 10
45.801775
 20
52.579278
 30
0.0
 10
45.994580
 20
52.500050
 30
0.0
  0
SPLINE
  5
236
100
AcDbEntity
  8
Layer_1
 62
7
100
AcDbSpline
 70
8
 71
3
 72
8
 73
4
 74
0
 40
0
 40
0
 40
0
 40
0
 40
1
 40
1
 40
1
 40
1
 10
45.994580
 20
52.500050
 30
0.0
 10
46.387126
 20
52.338743
 30
0.0
 10
46.779946
 20
52.054613
 30
0.0
 10
47.164521
 20
51.697636
 30
0.0
  0
SPLINE
  5
237
100
AcDbEntity
  8
Layer_1
 62
7
100
AcDbSpline
 70
8
 71
3
 72
8
 73
4
 74
0
 40
0
 40
0
 40
0
 40
0
 40
1
 40
1
 40
1
 40
1
 10
47.164521
 20
51.697636
 30
0.0
 10
47.167823
 20
51.694560
 30
0.0
 10
47.169968
 20
51.691879
 30
0.0
 10
47.173242
 20
51.688831
 30
0.0
  0
SPLINE
  5
238
100
AcDbEntity
  8
Layer_1
 62
7
100
AcDbSpline
 70
8
 71
3
 72
8
 73
4
 74
0
 40
0
 40
0
 40
0
 40
0
 40
1
 40
1
 40
1
 40
1
 10
47.173242
 20
51.688831
 30
0.0
 10
47.281979
 20
51.587510
 30
0.0
 10
47.367561
 20
51.461664
 30
0.0
 10
47.470095
 20
51.353754
 30
0.0
  0
SPLINE
  5
239
100
AcDbEntity
  8
Layer_1
 62
7
100
AcDbSpline
 70
8
 71
3
 72
8
 73
4
 74
0
 40
0
 40
0
 40
0
 40
0
 40
1
 40
1
 40
1
 40
1
 10
47.470095
 20
51.353754
 30
0.0
 10
47.199187
 20
50.971473
 30
0.0
 10
46.906861
 20
50.647476
 30
0.0
 10
46.588272
 20
50.410257
 30
0.0
  0
SPLINE
  5
23a
100
AcDbEntity
  8
Layer_1
 62
7
100
AcDbSpline
 70
8
 71
3
 72
8
 73
4
 74
0
 40
0
 40
0
 40
0
 40
0
 40
1
 40
1
 40
1
 40
1
 10
46.588272
 20
50.410257
 30
0.0
 10
46.287242
 20
50.186116
 30
0.0
 10
45.955219
 20
50.038483
 30
0.0
 10
45.645330
 20
49.995822
 30
0.0
  0
SPLINE
  5
23b
100
AcDbEntity
  8
Layer_1
 62
7
100
AcDbSpline
 70
8
 71
3
 72
8
 73
4
 74
0
 40
0
 40
0
 40
0
 40
0
 40
1
 40
1
 40
1
 40
1
 10
45.645330
 20
49.995822
 30
0.0
 10
45.628538
 20
49.993564
 30
0.0
 10
45.609576
 20
49.988710
 30
0.0
 10
45.592944
 20
49.987017
 30
0.0
  0
SPLINE
  5
23c
100
AcDbEntity
  8
Layer_1
 62
7
100
AcDbSpline
 70
8
 71
3
 72
8
 73
4
 74
0
 40
0
 40
0
 40
0
 40
0
 40
1
 40
1
 40
1
 40
1
 10
45.592944
 20
49.987017
 30
0.0
 10
45.254746
 20
49.952509
 30
0.0
 10
44.880263
 20
50.045022
 30
0.0
 10
44.606352
 20
50.233913
 30
0.0
  0
SPLINE
  5
23d
100
AcDbEntity
  8
Layer_1
 62
7
100
AcDbSpline
 70
8
 71
3
 72
8
 73
4
 74
0
 40
0
 40
0
 40
0
 40
0
 40
1
 40
1
 40
1
 40
1
 10
44.606352
 20
50.233913
 30
0.0
 10
44.333903
 20
50.421800
 30
0.0
 10
44.116871
 20
50.738755
 30
0.0
 10
44.038843
 20
51.053963
 30
0.0
  0
SPLINE
  5
23e
100
AcDbEntity
  8
Layer_1
 62
7
100
AcDbSpline
 70
8
 71
3
 72
8
 73
4
 74
0
 40
0
 40
0
 40
0
 40
0
 40
1
 40
1
 40
1
 40
1
 10
44.038843
 20
51.053963
 30
0.0
 10
43.961268
 20
51.367309
 30
0.0
 10
44.009305
 20
51.740170
 30
0.0
 10
44.161076
 20
52.015096
 30
0.0
  0
SPLINE
  5
23f
100
AcDbEntity
  8
Layer_1
 62
7
100
AcDbSpline
 70
8
 71
3
 72
8
 73
4
 74
0
 40
0
 40
0
 40
0
 40
0
 40
1
 40
1
 40
1
 40
1
 10
44.161076
 20
52.015096
 30
0.0
 10
44.311856
 20
52.288234
 30
0.0
 10
44.604811
 20
52.521228
 30
0.0
 10
44.894473
 20
52.605886
 30
0.0
  0
SPLINE
  5
240
100
AcDbEntity
  8
Layer_1
 62
7
100
AcDbSpline
 70
8
 71
3
 72
8
 73
4
 74
0
 40
0
 40
0
 40
0
 40
0
 40
1
 40
1
 40
1
 40
1
 10
44.894473
 20
52.605886
 30
0.0
 10
45.048611
 20
52.650938
 30
0.0
 10
45.220301
 20
52.658766
 30
0.0
 10
45.409596
 20
52.641159
 30
0.0
  0
LWPOLYLINE
  5
241
100
AcDbEntity
  8
Layer_1
 62
7
100
AcDbPolyline
 90
2
 70
0
 10
44.754764
 20
55.180673
 30
0.0
 10
44.754790
 20
55.180648
 30
0.0
  0
SPLINE
  5
242
100
AcDbEntity
  8
Layer_1
 62
7
100
AcDbSpline
 70
8
 71
3
 72
8
 73
4
 74
0
 40
0
 40
0
 40
0
 40
0
 40
1
 40
1
 40
1
 40
1
 10
54.585806
 20
52.641136
 30
0.0
 10
54.775101
 20
52.658747
 30
0.0
 10
54.955523
 20
52.650929
 30
0.0
 10
55.109661
 20
52.605864
 30
0.0
  0
SPLINE
  5
243
100
AcDbEntity
  8
Layer_1
 62
7
100
AcDbSpline
 70
8
 71
3
 72
8
 73
4
 74
0
 40
0
 40
0
 40
0
 40
0
 40
1
 40
1
 40
1
 40
1
 10
55.109661
 20
52.605864
 30
0.0
 10
55.393484
 20
52.522913
 30
0.0
 10
55.672565
 20
52.298631
 30
0.0
 10
55.825597
 20
52.032710
 30
0.0
  0
LWPOLYLINE
  5
244
100
AcDbEntity
  8
Layer_1
 62
7
100
AcDbPolyline
 90
2
 70
0
 10
45.409596
 20
52.641159
 30
0.0
 10
45.409607
 20
52.641136
 30
0.0
  0
SPLINE
  5
245
100
AcDbEntity
  8
Layer_1
 62
7
100
AcDbSpline
 70
8
 71
3
 72
8
 73
4
 74
0
 40
0
 40
0
 40
0
 40
0
 40
1
 40
1
 40
1
 40
1
 10
55.834318
 20
52.015071
 30
0.0
 10
55.986085
 20
51.740147
 30
0.0
 10
56.034120
 20
51.367289
 30
0.0
 10
55.956551
 20
51.053938
 30
0.0
  0
SPLINE
  5
246
100
AcDbEntity
  8
Layer_1
 62
7
100
AcDbSpline
 70
8
 71
3
 72
8
 73
4
 74
0
 40
0
 40
0
 40
0
 40
0
 40
1
 40
1
 40
1
 40
1
 10
55.956551
 20
51.053938
 30
0.0
 10
55.878519
 20
50.738730
 30
0.0
 10
55.661487
 20
50.421769
 30
0.0
 10
55.389039
 20
50.233888
 30
0.0
  0
SPLINE
  5
247
100
AcDbEntity
  8
Layer_1
 62
7
100
AcDbSpline
 70
8
 71
3
 72
8
 73
4
 74
0
 40
0
 40
0
 40
0
 40
0
 40
1
 40
1
 40
1
 40
1
 10
55.389039
 20
50.233888
 30
0.0
 10
55.115131
 20
50.044996
 30
0.0
 10
54.749371
 20
49.952484
 30
0.0
 10
54.411175
 20
49.986991
 30
0.0
  0
SPLINE
  5
248
100
AcDbEntity
  8
Layer_1
 62
7
100
AcDbSpline
 70
8
 71
3
 72
8
 73
4
 74
0
 40
0
 40
0
 40
0
 40
0
 40
1
 40
1
 40
1
 40
1
 10
54.411175
 20
49.986991
 30
0.0
 10
54.394806
 20
49.988684
 30
0.0
 10
54.375308
 20
49.993539
 30
0.0
 10
54.358792
 20
49.995796
 30
0.0
  0
SPLINE
  5
249
100
AcDbEntity
  8
Layer_1
 62
7
100
AcDbSpline
 70
8
 71
3
 72
8
 73
4
 74
0
 40
0
 40
0
 40
0
 40
0
 40
1
 40
1
 40
1
 40
1
 10
54.358792
 20
49.995796
 30
0.0
 10
54.048689
 20
50.038316
 30
0.0
 10
53.717146
 20
50.185893
 30
0.0
 10
53.415851
 20
50.410231
 30
0.0
  0
SPLINE
  5
24a
100
AcDbEntity
  8
Layer_1
 62
7
100
AcDbSpline
 70
8
 71
3
 72
8
 73
4
 74
0
 40
0
 40
0
 40
0
 40
0
 40
1
 40
1
 40
1
 40
1
 10
53.415851
 20
50.410231
 30
0.0
 10
53.097250
 20
50.647456
 30
0.0
 10
52.796215
 20
50.971425
 30
0.0
 10
52.525299
 20
51.353728
 30
0.0
  0
SPLINE
  5
24b
100
AcDbEntity
  8
Layer_1
 62
7
100
AcDbSpline
 70
8
 71
3
 72
8
 73
4
 74
0
 40
0
 40
0
 40
0
 40
0
 40
1
 40
1
 40
1
 40
1
 10
52.525299
 20
51.353728
 30
0.0
 10
52.627830
 20
51.461639
 30
0.0
 10
52.713414
 20
51.587485
 30
0.0
 10
52.822148
 20
51.688805
 30
0.0
  0
SPLINE
  5
24c
100
AcDbEntity
  8
Layer_1
 62
7
100
AcDbSpline
 70
8
 71
3
 72
8
 73
4
 74
0
 40
0
 40
0
 40
0
 40
0
 40
1
 40
1
 40
1
 40
1
 10
52.822148
 20
51.688805
 30
0.0
 10
53.209874
 20
52.050092
 30
0.0
 10
53.613632
 20
52.337343
 30
0.0
 10
54.009553
 20
52.500036
 30
0.0
  0
SPLINE
  5
24d
100
AcDbEntity
  8
Layer_1
 62
7
100
AcDbSpline
 70
8
 71
3
 72
8
 73
4
 74
0
 40
0
 40
0
 40
0
 40
0
 40
1
 40
1
 40
1
 40
1
 10
54.009553
 20
52.500036
 30
0.0
 10
54.202359
 20
52.579264
 30
0.0
 10
54.396500
 20
52.623514
 30
0.0
 10
54.585795
 20
52.641122
 30
0.0
  0
LWPOLYLINE
  5
24e
100
AcDbEntity
  8
Layer_1
 62
7
100
AcDbPolyline
 90
2
 70
0
 10
55.825597
 20
52.032710
 30
0.0
 10
55.834318
 20
52.015071
 30
0.0
  0
SPLINE
  5
24f
100
AcDbEntity
  8
Layer_1
 62
7
100
AcDbSpline
 70
8
 71
3
 72
8
 73
4
 74
0
 40
0
 40
0
 40
0
 40
0
 40
1
 40
1
 40
1
 40
1
 10
50.002071
 20
51.680000
 30
0.0
 10
50.035602
 20
51.621015
 30
0.0
 10
50.072717
 20
51.563628
 30
0.0
 10
50.106843
 20
51.503645
 30
0.0
  0
SPLINE
  5
250
100
AcDbEntity
  8
Layer_1
 62
7
100
AcDbSpline
 70
8
 71
3
 72
8
 73
4
 74
0
 40
0
 40
0
 40
0
 40
0
 40
1
 40
1
 40
1
 40
1
 10
50.106843
 20
51.503645
 30
0.0
 10
50.070202
 20
51.449108
 30
0.0
 10
50.037555
 20
51.391442
 30
0.0
 10
50.002071
 20
51.336109
 30
0.0
  0
SPLINE
  5
251
100
AcDbEntity
  8
Layer_1
 62
7
100
AcDbSpline
 70
8
 71
3
 72
8
 73
4
 74
0
 40
0
 40
0
 40
0
 40
0
 40
1
 40
1
 40
1
 40
1
 10
50.002071
 20
51.336109
 30
0.0
 10
49.965614
 20
51.393003
 30
0.0
 10
49.926255
 20
51.447596
 30
0.0
 10
49.888570
 20
51.503645
 30
0.0
  0
SPLINE
  5
252
100
AcDbEntity
  8
Layer_1
 62
7
100
AcDbSpline
 70
8
 71
3
 72
8
 73
4
 74
0
 40
0
 40
0
 40
0
 40
0
 40
1
 40
1
 40
1
 40
1
 10
49.888570
 20
51.503645
 30
0.0
 10
49.923486
 20
51.565008
 30
0.0
 10
49.967784
 20
51.619678
 30
0.0
 10
50.002071
 20
51.680000
 30
0.0
  0
LWPOLYLINE
  5
253
100
AcDbEntity
  8
Layer_1
 62
7
100
AcDbPolyline
 90
2
 70
0
 10
54.585795
 20
52.641122
 30
0.0
 10
54.585806
 20
52.641136
 30
0.0
  0
SPLINE
  5
254
100
AcDbEntity
  8
Layer_1
 62
7
100
AcDbSpline
 70
8
 71
3
 72
8
 73
4
 74
0
 40
0
 40
0
 40
0
 40
0
 40
1
 40
1
 40
1
 40
1
 10
97.009354
 20
46.389352
 30
0.0
 10
95.595192
 20
42.999945
 30
0.0
 10
93.524971
 20
39.885643
 30
0.0
 10
90.906440
 20
37.333521
 30
0.0
  0
SPLINE
  5
255
100
AcDbEntity
  8
Layer_1
 62
7
100
AcDbSpline
 70
8
 71
3
 72
8
 73
4
 74
0
 40
0
 40
0
 40
0
 40
0
 40
1
 40
1
 40
1
 40
1
 10
90.906440
 20
37.333521
 30
0.0
 10
87.558246
 20
34.070245
 30
0.0
 10
83.341154
 20
31.701737
 30
0.0
 10
78.831576
 20
30.543856
 30
0.0
  0
SPLINE
  5
256
100
AcDbEntity
  8
Layer_1
 62
7
100
AcDbSpline
 70
8
 71
3
 72
8
 73
4
 74
0
 40
0
 40
0
 40
0
 40
0
 40
1
 40
1
 40
1
 40
1
 10
78.831576
 20
30.543856
 30
0.0
 10
75.955760
 20
29.805461
 30
0.0
 10
72.955190
 20
29.549928
 30
0.0
 10
69.960959
 20
29.662080
 30
0.0
  0
SPLINE
  5
257
100
AcDbEntity
  8
Layer_1
 62
7
100
AcDbSpline
 70
8
 71
3
 72
8
 73
4
 74
0
 40
0
 40
0
 40
0
 40
0
 40
1
 40
1
 40
1
 40
1
 10
69.960959
 20
29.662080
 30
0.0
 10
69.949332
 20
29.662645
 30
0.0
 10
69.937648
 20
29.661516
 30
0.0
 10
69.926034
 20
29.662080
 30
0.0
  0
SPLINE
  5
258
100
AcDbEntity
  8
Layer_1
 62
7
100
AcDbSpline
 70
8
 71
3
 72
8
 73
4
 74
0
 40
0
 40
0
 40
0
 40
0
 40
1
 40
1
 40
1
 40
1
 10
69.926034
 20
29.662080
 30
0.0
 10
67.224640
 20
29.765839
 30
0.0
 10
64.542462
 20
30.178392
 30
0.0
 10
61.902318
 20
30.817205
 30
0.0
  0
SPLINE
  5
259
100
AcDbEntity
  8
Layer_1
 62
7
100
AcDbSpline
 70
8
 71
3
 72
8
 73
4
 74
0
 40
0
 40
0
 40
0
 40
0
 40
1
 40
1
 40
1
 40
1
 10
61.902318
 20
30.817205
 30
0.0
 10
62.747944
 20
31.462878
 30
0.0
 10
63.624308
 20
32.052071
 30
0.0
 10
64.521594
 20
32.616027
 30
0.0
  0
SPLINE
  5
25a
100
AcDbEntity
  8
Layer_1
 62
7
100
AcDbSpline
 70
8
 71
3
 72
8
 73
4
 74
0
 40
0
 40
0
 40
0
 40
0
 40
1
 40
1
 40
1
 40
1
 10
64.521594
 20
32.616027
 30
0.0
 10
66.127668
 20
32.378526
 30
0.0
 10
67.750493
 20
32.237482
 30
0.0
 10
69.384718
 20
32.228045
 30
0.0
  0
SPLINE
  5
25b
100
AcDbEntity
  8
Layer_1
 62
7
100
AcDbSpline
 70
8
 71
3
 72
8
 73
4
 74
0
 40
0
 40
0
 40
0
 40
0
 40
1
 40
1
 40
1
 40
1
 10
69.384718
 20
32.228045
 30
0.0
 10
75.152293
 20
32.194737
 30
0.0
 10
80.947470
 20
33.715421
 30
0.0
 10
85.877429
 20
36.786823
 30
0.0
  0
LWPOLYLINE
  5
25c
100
AcDbEntity
  8
Layer_1
 62
7
100
AcDbPolyline
 90
2
 70
0
 10
50.002071
 20
51.680000
 30
0.0
 10
50.002071
 20
51.680000
 30
0.0
  0
SPLINE
  5
25d
100
AcDbEntity
  8
Layer_1
 62
7
100
AcDbSpline
 70
8
 71
3
 72
8
 73
4
 74
0
 40
0
 40
0
 40
0
 40
0
 40
1
 40
1
 40
1
 40
1
 10
85.956008
 20
36.830906
 30
0.0
 10
89.164418
 20
38.843943
 30
0.0
 10
91.945701
 20
41.518750
 30
0.0
 10
94.154344
 20
44.608160
 30
0.0
  0
SPLINE
  5
25e
100
AcDbEntity
  8
Layer_1
 62
7
100
AcDbSpline
 70
8
 71
3
 72
8
 73
4
 74
0
 40
0
 40
0
 40
0
 40
0
 40
1
 40
1
 40
1
 40
1
 10
94.154344
 20
44.608160
 30
0.0
 10
95.121657
 20
45.179149
 30
0.0
 10
96.076500
 20
45.762477
 30
0.0
 10
97.009354
 20
46.389346
 30
0.0
  0
LWPOLYLINE
  5
25f
100
AcDbEntity
  8
Layer_1
 62
7
100
AcDbPolyline
 90
3
 70
0
 10
85.877429
 20
36.786823
 30
0.0
 10
85.921083
 20
36.813267
 30
0.0
 10
85.956008
 20
36.830906
 30
0.0
  0
SPLINE
  5
260
100
AcDbEntity
  8
Layer_1
 62
7
100
AcDbSpline
 70
8
 71
3
 72
8
 73
4
 74
0
 40
0
 40
0
 40
0
 40
0
 40
1
 40
1
 40
1
 40
1
 10
3.038445
 20
46.265902
 30
0.0
 10
4.005075
 20
45.597174
 30
0.0
 10
4.996567
 20
44.969074
 30
0.0
 10
6.006959
 20
44.370086
 30
0.0
  0
SPLINE
  5
261
100
AcDbEntity
  8
Layer_1
 62
7
100
AcDbSpline
 70
8
 71
3
 72
8
 73
4
 74
0
 40
0
 40
0
 40
0
 40
0
 40
1
 40
1
 40
1
 40
1
 10
6.006959
 20
44.370086
 30
0.0
 10
8.188870
 20
41.380255
 30
0.0
 10
10.920806
 20
38.793079
 30
0.0
 10
14.048137
 20
36.830912
 30
0.0
  0
SPLINE
  5
262
100
AcDbEntity
  8
Layer_1
 62
7
100
AcDbSpline
 70
8
 71
3
 72
8
 73
4
 74
0
 40
0
 40
0
 40
0
 40
0
 40
1
 40
1
 40
1
 40
1
 10
14.048137
 20
36.830912
 30
0.0
 10
18.992077
 20
33.728954
 30
0.0
 10
24.816083
 20
32.196157
 30
0.0
 10
30.610695
 20
32.228045
 30
0.0
  0
SPLINE
  5
263
100
AcDbEntity
  8
Layer_1
 62
7
100
AcDbSpline
 70
8
 71
3
 72
8
 73
4
 74
0
 40
0
 40
0
 40
0
 40
0
 40
1
 40
1
 40
1
 40
1
 10
30.610695
 20
32.228045
 30
0.0
 10
30.613602
 20
32.228062
 30
0.0
 10
30.616509
 20
32.228028
 30
0.0
 10
30.619416
 20
32.228045
 30
0.0
  0
SPLINE
  5
264
100
AcDbEntity
  8
Layer_1
 62
7
100
AcDbSpline
 70
8
 71
3
 72
8
 73
4
 74
0
 40
0
 40
0
 40
0
 40
0
 40
1
 40
1
 40
1
 40
1
 10
30.619416
 20
32.228045
 30
0.0
 10
32.247827
 20
32.237443
 30
0.0
 10
33.864596
 20
32.380126
 30
0.0
 10
35.465075
 20
32.616027
 30
0.0
  0
SPLINE
  5
265
100
AcDbEntity
  8
Layer_1
 62
7
100
AcDbSpline
 70
8
 71
3
 72
8
 73
4
 74
0
 40
0
 40
0
 40
0
 40
0
 40
1
 40
1
 40
1
 40
1
 10
35.465075
 20
32.616027
 30
0.0
 10
36.362144
 20
32.050403
 30
0.0
 10
37.238334
 20
31.454271
 30
0.0
 10
38.084354
 20
30.808388
 30
0.0
  0
SPLINE
  5
266
100
AcDbEntity
  8
Layer_1
 62
7
100
AcDbSpline
 70
8
 71
3
 72
8
 73
4
 74
0
 40
0
 40
0
 40
0
 40
0
 40
1
 40
1
 40
1
 40
1
 10
38.084354
 20
30.808388
 30
0.0
 10
35.448108
 20
30.171266
 30
0.0
 10
32.775368
 20
29.765681
 30
0.0
 10
30.078099
 20
29.662080
 30
0.0
  0
SPLINE
  5
267
100
AcDbEntity
  8
Layer_1
 62
7
100
AcDbSpline
 70
8
 71
3
 72
8
 73
4
 74
0
 40
0
 40
0
 40
0
 40
0
 40
1
 40
1
 40
1
 40
1
 10
30.078099
 20
29.662080
 30
0.0
 10
30.066472
 20
29.661516
 30
0.0
 10
30.054788
 20
29.662645
 30
0.0
 10
30.043174
 20
29.662080
 30
0.0
  0
SPLINE
  5
268
100
AcDbEntity
  8
Layer_1
 62
7
100
AcDbSpline
 70
8
 71
3
 72
8
 73
4
 74
0
 40
0
 40
0
 40
0
 40
0
 40
1
 40
1
 40
1
 40
1
 10
30.043174
 20
29.662080
 30
0.0
 10
27.048941
 20
29.549928
 30
0.0
 10
24.039644
 20
29.805461
 30
0.0
 10
21.163827
 20
30.543856
 30
0.0
  0
SPLINE
  5
269
100
AcDbEntity
  8
Layer_1
 62
7
100
AcDbSpline
 70
8
 71
3
 72
8
 73
4
 74
0
 40
0
 40
0
 40
0
 40
0
 40
1
 40
1
 40
1
 40
1
 10
21.163827
 20
30.543856
 30
0.0
 10
16.654262
 20
31.701737
 30
0.0
 10
12.445898
 20
34.070245
 30
0.0
 10
9.097705
 20
37.333521
 30
0.0
  0
SPLINE
  5
26a
100
AcDbEntity
  8
Layer_1
 62
7
100
AcDbSpline
 70
8
 71
3
 72
8
 73
4
 74
0
 40
0
 40
0
 40
0
 40
0
 40
1
 40
1
 40
1
 40
1
 10
9.097705
 20
37.333521
 30
0.0
 10
6.510971
 20
39.854655
 30
0.0
 10
4.451780
 20
42.924530
 30
0.0
 10
3.038445
 20
46.265902
 30
0.0
  0
LWPOLYLINE
  5
26b
100
AcDbEntity
  8
Layer_1
 62
7
100
AcDbPolyline
 90
2
 70
0
 10
97.009354
 20
46.389346
 30
0.0
 10
97.009354
 20
46.389352
 30
0.0
  0
SPLINE
  5
26c
100
AcDbEntity
  8
Layer_1
 62
7
100
AcDbSpline
 70
8
 71
3
 72
8
 73
4
 74
0
 40
0
 40
0
 40
0
 40
0
 40
1
 40
1
 40
1
 40
1
 10
89.230102
 20
41.998113
 30
0.0
 10
87.907908
 20
40.724404
 30
0.0
 10
86.500014
 20
39.534674
 30
0.0
 10
84.951952
 20
38.559190
 30
0.0
  0
SPLINE
  5
26d
100
AcDbEntity
  8
Layer_1
 62
7
100
AcDbSpline
 70
8
 71
3
 72
8
 73
4
 74
0
 40
0
 40
0
 40
0
 40
0
 40
1
 40
1
 40
1
 40
1
 10
84.951952
 20
38.559190
 30
0.0
 10
84.937615
 20
38.550159
 30
0.0
 10
84.922637
 20
38.541720
 30
0.0
 10
84.908298
 20
38.532745
 30
0.0
  0
SPLINE
  5
26e
100
AcDbEntity
  8
Layer_1
 62
7
100
AcDbSpline
 70
8
 71
3
 72
8
 73
4
 74
0
 40
0
 40
0
 40
0
 40
0
 40
1
 40
1
 40
1
 40
1
 10
84.908298
 20
38.532745
 30
0.0
 10
80.306631
 20
35.645542
 30
0.0
 10
74.836393
 20
34.198252
 30
0.0
 10
69.393450
 20
34.229683
 30
0.0
  0
SPLINE
  5
26f
100
AcDbEntity
  8
Layer_1
 62
7
100
AcDbSpline
 70
8
 71
3
 72
8
 73
4
 74
0
 40
0
 40
0
 40
0
 40
0
 40
1
 40
1
 40
1
 40
1
 10
69.393450
 20
34.229683
 30
0.0
 10
69.390543
 20
34.229700
 30
0.0
 10
69.387636
 20
34.229667
 30
0.0
 10
69.384729
 20
34.229683
 30
0.0
  0
SPLINE
  5
270
100
AcDbEntity
  8
Layer_1
 62
7
100
AcDbSpline
 70
8
 71
3
 72
8
 73
4
 74
0
 40
0
 40
0
 40
0
 40
0
 40
1
 40
1
 40
1
 40
1
 10
69.384729
 20
34.229683
 30
0.0
 10
68.764566
 20
34.233437
 30
0.0
 10
68.143344
 20
34.268695
 30
0.0
 10
67.525043
 20
34.309042
 30
0.0
  0
SPLINE
  5
271
100
AcDbEntity
  8
Layer_1
 62
7
100
AcDbSpline
 70
8
 71
3
 72
8
 73
4
 74
0
 40
0
 40
0
 40
0
 40
0
 40
1
 40
1
 40
1
 40
1
 10
67.525043
 20
34.309042
 30
0.0
 10
67.552080
 20
34.322221
 30
0.0
 10
67.576543
 20
34.340018
 30
0.0
 10
67.603622
 20
34.353130
 30
0.0
  0
LWPOLYLINE
  5
272
100
AcDbEntity
  8
Layer_1
 62
7
100
AcDbPolyline
 90
2
 70
0
 10
3.038445
 20
46.265902
 30
0.0
 10
3.038445
 20
46.265902
 30
0.0
  0
SPLINE
  5
273
100
AcDbEntity
  8
Layer_1
 62
7
100
AcDbSpline
 70
8
 71
3
 72
8
 73
4
 74
0
 40
0
 40
0
 40
0
 40
0
 40
1
 40
1
 40
1
 40
1
 10
67.656008
 20
34.379575
 30
0.0
 10
70.154922
 20
35.583845
 30
0.0
 10
72.833962
 20
36.467788
 30
0.0
 10
75.557491
 20
37.271796
 30
0.0
  0
SPLINE
  5
274
100
AcDbEntity
  8
Layer_1
 62
7
100
AcDbSpline
 70
8
 71
3
 72
8
 73
4
 74
0
 40
0
 40
0
 40
0
 40
0
 40
1
 40
1
 40
1
 40
1
 10
75.557491
 20
37.271796
 30
0.0
 10
75.568949
 20
37.275183
 30
0.0
 10
75.580972
 20
37.277243
 30
0.0
 10
75.592413
 20
37.280602
 30
0.0
  0
SPLINE
  5
275
100
AcDbEntity
  8
Layer_1
 62
7
100
AcDbSpline
 70
8
 71
3
 72
8
 73
4
 74
0
 40
0
 40
0
 40
0
 40
0
 40
1
 40
1
 40
1
 40
1
 10
75.592413
 20
37.280602
 30
0.0
 10
78.313253
 20
38.083098
 30
0.0
 10
81.090108
 20
38.813136
 30
0.0
 10
83.834405
 20
39.767208
 30
0.0
  0
SPLINE
  5
276
100
AcDbEntity
  8
Layer_1
 62
7
100
AcDbSpline
 70
8
 71
3
 72
8
 73
4
 74
0
 40
0
 40
0
 40
0
 40
0
 40
1
 40
1
 40
1
 40
1
 10
83.834405
 20
39.767208
 30
0.0
 10
85.672409
 20
40.406201
 30
0.0
 10
87.465767
 20
41.174927
 30
0.0
 10
89.230113
 20
41.998098
 30
0.0
  0
LWPOLYLINE
  5
277
100
AcDbEntity
  8
Layer_1
 62
7
100
AcDbPolyline
 90
2
 70
0
 10
67.603622
 20
34.353130
 30
0.0
 10
67.656008
 20
34.379575
 30
0.0
  0
SPLINE
  5
278
100
AcDbEntity
  8
Layer_1
 62
7
100
AcDbSpline
 70
8
 71
3
 72
8
 73
4
 74
0
 40
0
 40
0
 40
0
 40
0
 40
1
 40
1
 40
1
 40
1
 10
11.018508
 20
41.760033
 30
0.0
 10
12.015148
 20
41.311951
 30
0.0
 10
13.015752
 20
40.880549
 30
0.0
 10
14.039406
 20
40.499095
 30
0.0
  0
SPLINE
  5
279
100
AcDbEntity
  8
Layer_1
 62
7
100
AcDbSpline
 70
8
 71
3
 72
8
 73
4
 74
0
 40
0
 40
0
 40
0
 40
0
 40
1
 40
1
 40
1
 40
1
 10
14.039406
 20
40.499095
 30
0.0
 10
17.135974
 20
39.345187
 30
0.0
 10
20.294775
 20
38.511886
 30
0.0
 10
23.390223
 20
37.615690
 30
0.0
  0
SPLINE
  5
27a
100
AcDbEntity
  8
Layer_1
 62
7
100
AcDbSpline
 70
8
 71
3
 72
8
 73
4
 74
0
 40
0
 40
0
 40
0
 40
0
 40
1
 40
1
 40
1
 40
1
 10
23.390223
 20
37.615690
 30
0.0
 10
26.422698
 20
36.737727
 30
0.0
 10
29.413486
 20
35.794120
 30
0.0
 10
32.190993
 20
34.458935
 30
0.0
  0
LWPOLYLINE
  5
27b
100
AcDbEntity
  8
Layer_1
 62
7
100
AcDbPolyline
 90
2
 70
0
 10
89.230113
 20
41.998098
 30
0.0
 10
89.230102
 20
41.998113
 30
0.0
  0
SPLINE
  5
27c
100
AcDbEntity
  8
Layer_1
 62
7
100
AcDbSpline
 70
8
 71
3
 72
8
 73
4
 74
0
 40
0
 40
0
 40
0
 40
0
 40
1
 40
1
 40
1
 40
1
 10
32.339419
 20
34.388394
 30
0.0
 10
32.389821
 20
34.363841
 30
0.0
 10
32.437576
 20
34.333849
 30
0.0
 10
32.487843
 20
34.309033
 30
0.0
  0
SPLINE
  5
27d
100
AcDbEntity
  8
Layer_1
 62
7
100
AcDbSpline
 70
8
 71
3
 72
8
 73
4
 74
0
 40
0
 40
0
 40
0
 40
0
 40
1
 40
1
 40
1
 40
1
 10
32.487843
 20
34.309033
 30
0.0
 10
31.861552
 20
34.267862
 30
0.0
 10
31.238902
 20
34.233302
 30
0.0
 10
30.610695
 20
34.229675
 30
0.0
  0
SPLINE
  5
27e
100
AcDbEntity
  8
Layer_1
 62
7
100
AcDbSpline
 70
8
 71
3
 72
8
 73
4
 74
0
 40
0
 40
0
 40
0
 40
0
 40
1
 40
1
 40
1
 40
1
 10
30.610695
 20
34.229675
 30
0.0
 10
25.167752
 20
34.198244
 30
0.0
 10
19.688785
 20
35.645530
 30
0.0
 10
15.087117
 20
38.532737
 30
0.0
  0
SPLINE
  5
27f
100
AcDbEntity
  8
Layer_1
 62
7
100
AcDbSpline
 70
8
 71
3
 72
8
 73
4
 74
0
 40
0
 40
0
 40
0
 40
0
 40
1
 40
1
 40
1
 40
1
 10
15.087117
 20
38.532737
 30
0.0
 10
13.618994
 20
39.453874
 30
0.0
 10
12.285629
 20
40.569453
 30
0.0
 10
11.018508
 20
41.760033
 30
0.0
  0
LWPOLYLINE
  5
280
100
AcDbEntity
  8
Layer_1
 62
7
100
AcDbPolyline
 90
2
 70
0
 10
32.190993
 20
34.458935
 30
0.0
 10
32.339419
 20
34.388394
 30
0.0
  0
SPLINE
  5
281
100
AcDbEntity
  8
Layer_1
 62
7
100
AcDbSpline
 70
8
 71
3
 72
8
 73
4
 74
0
 40
0
 40
0
 40
0
 40
0
 40
1
 40
1
 40
1
 40
1
 10
50.002071
 20
37.606873
 30
0.0
 10
50.751419
 20
37.208737
 30
0.0
 10
51.528786
 20
36.859707
 30
0.0
 10
52.298305
 20
36.495835
 30
0.0
  0
SPLINE
  5
282
100
AcDbEntity
  8
Layer_1
 62
7
100
AcDbSpline
 70
8
 71
3
 72
8
 73
4
 74
0
 40
0
 40
0
 40
0
 40
0
 40
1
 40
1
 40
1
 40
1
 10
52.298305
 20
36.495835
 30
0.0
 10
51.547232
 20
36.066854
 30
0.0
 10
50.777003
 20
35.657832
 30
0.0
 10
50.002071
 20
35.270169
 30
0.0
  0
SPLINE
  5
283
100
AcDbEntity
  8
Layer_1
 62
7
100
AcDbSpline
 70
8
 71
3
 72
8
 73
4
 74
0
 40
0
 40
0
 40
0
 40
0
 40
1
 40
1
 40
1
 40
1
 10
50.002071
 20
35.270169
 30
0.0
 10
49.225415
 20
35.658583
 30
0.0
 10
48.458561
 20
36.065937
 30
0.0
 10
47.705841
 20
36.495835
 30
0.0
  0
SPLINE
  5
284
100
AcDbEntity
  8
Layer_1
 62
7
100
AcDbSpline
 70
8
 71
3
 72
8
 73
4
 74
0
 40
0
 40
0
 40
0
 40
0
 40
1
 40
1
 40
1
 40
1
 10
47.705841
 20
36.495835
 30
0.0
 10
48.474160
 20
36.859221
 30
0.0
 10
49.253866
 20
37.209329
 30
0.0
 10
50.002071
 20
37.606873
 30
0.0
  0
LWPOLYLINE
  5
285
100
AcDbEntity
  8
Layer_1
 62
7
100
AcDbPolyline
 90
2
 70
0
 10
11.018508
 20
41.760033
 30
0.0
 10
11.018508
 20
41.760033
 30
0.0
  0
SPLINE
  5
286
100
AcDbEntity
  8
Layer_1
 62
7
100
AcDbSpline
 70
8
 71
3
 72
8
 73
4
 74
0
 40
0
 40
0
 40
0
 40
0
 40
1
 40
1
 40
1
 40
1
 10
45.549302
 20
35.481793
 30
0.0
 10
46.266581
 20
35.039026
 30
0.0
 10
46.986515
 20
34.624888
 30
0.0
 10
47.723302
 20
34.229675
 30
0.0
  0
SPLINE
  5
287
100
AcDbEntity
  8
Layer_1
 62
7
100
AcDbSpline
 70
8
 71
3
 72
8
 73
4
 74
0
 40
0
 40
0
 40
0
 40
0
 40
1
 40
1
 40
1
 40
1
 10
47.723302
 20
34.229675
 30
0.0
 10
46.732538
 20
33.780733
 30
0.0
 10
45.748999
 20
33.319805
 30
0.0
 10
44.737326
 20
32.924648
 30
0.0
  0
SPLINE
  5
288
100
AcDbEntity
  8
Layer_1
 62
7
100
AcDbSpline
 70
8
 71
3
 72
8
 73
4
 74
0
 40
0
 40
0
 40
0
 40
0
 40
1
 40
1
 40
1
 40
1
 10
44.737326
 20
32.924648
 30
0.0
 10
44.153998
 20
33.463879
 30
0.0
 10
43.529144
 20
33.955284
 30
0.0
 10
42.930025
 20
34.476571
 30
0.0
  0
SPLINE
  5
289
100
AcDbEntity
  8
Layer_1
 62
7
100
AcDbSpline
 70
8
 71
3
 72
8
 73
4
 74
0
 40
0
 40
0
 40
0
 40
0
 40
1
 40
1
 40
1
 40
1
 10
42.930025
 20
34.476571
 30
0.0
 10
43.812887
 20
34.784826
 30
0.0
 10
44.686164
 20
35.121844
 30
0.0
 10
45.549302
 20
35.481793
 30
0.0
  0
LWPOLYLINE
  5
28a
100
AcDbEntity
  8
Layer_1
 62
7
100
AcDbPolyline
 90
2
 70
0
 10
50.002071
 20
37.606873
 30
0.0
 10
50.002071
 20
37.606873
 30
0.0
  0
SPLINE
  5
28b
100
AcDbEntity
  8
Layer_1
 62
7
100
AcDbSpline
 70
8
 71
3
 72
8
 73
4
 74
0
 40
0
 40
0
 40
0
 40
0
 40
1
 40
1
 40
1
 40
1
 10
54.446112
 20
35.472988
 30
0.0
 10
55.310411
 20
35.112619
 30
0.0
 10
56.190047
 20
34.785111
 30
0.0
 10
57.074120
 20
34.476583
 30
0.0
  0
SPLINE
  5
28c
100
AcDbEntity
  8
Layer_1
 62
7
100
AcDbSpline
 70
8
 71
3
 72
8
 73
4
 74
0
 40
0
 40
0
 40
0
 40
0
 40
1
 40
1
 40
1
 40
1
 10
57.074120
 20
34.476583
 30
0.0
 10
56.475013
 20
33.955290
 30
0.0
 10
55.850139
 20
33.463893
 30
0.0
 10
55.266817
 20
32.924660
 30
0.0
  0
SPLINE
  5
28d
100
AcDbEntity
  8
Layer_1
 62
7
100
AcDbSpline
 70
8
 71
3
 72
8
 73
4
 74
0
 40
0
 40
0
 40
0
 40
0
 40
1
 40
1
 40
1
 40
1
 10
55.266817
 20
32.924660
 30
0.0
 10
54.252586
 20
33.320651
 30
0.0
 10
53.265330
 20
33.779632
 30
0.0
 10
52.272111
 20
34.229686
 30
0.0
  0
SPLINE
  5
28e
100
AcDbEntity
  8
Layer_1
 62
7
100
AcDbSpline
 70
8
 71
3
 72
8
 73
4
 74
0
 40
0
 40
0
 40
0
 40
0
 40
1
 40
1
 40
1
 40
1
 10
52.272111
 20
34.229686
 30
0.0
 10
53.006998
 20
34.623880
 30
0.0
 10
53.730611
 20
35.031497
 30
0.0
 10
54.446112
 20
35.472988
 30
0.0
  0
LWPOLYLINE
  5
28f
100
AcDbEntity
  8
Layer_1
 62
7
100
AcDbPolyline
 90
2
 70
0
 10
45.549302
 20
35.481793
 30
0.0
 10
45.549302
 20
35.481793
 30
0.0
  0
SPLINE
  5
290
100
AcDbEntity
  8
Layer_1
 62
7
100
AcDbSpline
 70
8
 71
3
 72
8
 73
4
 74
0
 40
0
 40
0
 40
0
 40
0
 40
1
 40
1
 40
1
 40
1
 10
40.703642
 20
33.762332
 30
0.0
 10
41.323837
 20
33.239535
 30
0.0
 10
41.942397
 20
32.716879
 30
0.0
 10
42.545864
 20
32.175137
 30
0.0
  0
SPLINE
  5
291
100
AcDbEntity
  8
Layer_1
 62
7
100
AcDbSpline
 70
8
 71
3
 72
8
 73
4
 74
0
 40
0
 40
0
 40
0
 40
0
 40
1
 40
1
 40
1
 40
1
 10
42.545864
 20
32.175137
 30
0.0
 10
41.846662
 20
31.934968
 30
0.0
 10
41.157292
 20
31.670416
 30
0.0
 10
40.450443
 20
31.460897
 30
0.0
  0
SPLINE
  5
292
100
AcDbEntity
  8
Layer_1
 62
7
100
AcDbSpline
 70
8
 71
3
 72
8
 73
4
 74
0
 40
0
 40
0
 40
0
 40
0
 40
1
 40
1
 40
1
 40
1
 10
40.450443
 20
31.460897
 30
0.0
 10
39.744744
 20
32.043156
 30
0.0
 10
39.020779
 20
32.605303
 30
0.0
 10
38.276443
 20
33.136270
 30
0.0
  0
SPLINE
  5
293
100
AcDbEntity
  8
Layer_1
 62
7
100
AcDbSpline
 70
8
 71
3
 72
8
 73
4
 74
0
 40
0
 40
0
 40
0
 40
0
 40
1
 40
1
 40
1
 40
1
 10
38.276443
 20
33.136270
 30
0.0
 10
39.092881
 20
33.320047
 30
0.0
 10
39.899424
 20
33.528754
 30
0.0
 10
40.703642
 20
33.762332
 30
0.0
  0
LWPOLYLINE
  5
294
100
AcDbEntity
  8
Layer_1
 62
7
100
AcDbPolyline
 90
2
 70
0
 10
54.446112
 20
35.472988
 30
0.0
 10
54.446112
 20
35.472988
 30
0.0
  0
SPLINE
  5
295
100
AcDbEntity
  8
Layer_1
 62
7
100
AcDbSpline
 70
8
 71
3
 72
8
 73
4
 74
0
 40
0
 40
0
 40
0
 40
0
 40
1
 40
1
 40
1
 40
1
 10
59.300503
 20
33.762332
 30
0.0
 10
60.099234
 20
33.530348
 30
0.0
 10
60.899450
 20
33.319144
 30
0.0
 10
61.710238
 20
33.136270
 30
0.0
  0
SPLINE
  5
296
100
AcDbEntity
  8
Layer_1
 62
7
100
AcDbSpline
 70
8
 71
3
 72
8
 73
4
 74
0
 40
0
 40
0
 40
0
 40
0
 40
1
 40
1
 40
1
 40
1
 10
61.710238
 20
33.136270
 30
0.0
 10
60.966610
 20
32.606265
 30
0.0
 10
60.240791
 20
32.051628
 30
0.0
 10
59.536238
 20
31.469717
 30
0.0
  0
SPLINE
  5
297
100
AcDbEntity
  8
Layer_1
 62
7
100
AcDbSpline
 70
8
 71
3
 72
8
 73
4
 74
0
 40
0
 40
0
 40
0
 40
0
 40
1
 40
1
 40
1
 40
1
 10
59.536238
 20
31.469717
 30
0.0
 10
58.836764
 20
31.677333
 30
0.0
 10
58.150264
 20
31.937508
 30
0.0
 10
57.458281
 20
32.175137
 30
0.0
  0
SPLINE
  5
298
100
AcDbEntity
  8
Layer_1
 62
7
100
AcDbSpline
 70
8
 71
3
 72
8
 73
4
 74
0
 40
0
 40
0
 40
0
 40
0
 40
1
 40
1
 40
1
 40
1
 10
57.458281
 20
32.175137
 30
0.0
 10
58.061742
 20
32.716885
 30
0.0
 10
58.680314
 20
33.239524
 30
0.0
 10
59.300503
 20
33.762332
 30
0.0
  0
LWPOLYLINE
  5
299
100
AcDbEntity
  8
Layer_1
 62
7
100
AcDbPolyline
 90
2
 70
0
 10
40.703642
 20
33.762332
 30
0.0
 10
40.703642
 20
33.762332
 30
0.0
  0
SPLINE
  5
29a
100
AcDbEntity
  8
Layer_1
 62
7
100
AcDbSpline
 70
8
 71
3
 72
8
 73
4
 74
0
 40
0
 40
0
 40
0
 40
0
 40
1
 40
1
 40
1
 40
1
 10
50.002071
 20
33.048092
 30
0.0
 10
51.223571
 20
32.459865
 30
0.0
 10
52.470172
 20
31.912845
 30
0.0
 10
53.730176
 20
31.399172
 30
0.0
  0
SPLINE
  5
29b
100
AcDbEntity
  8
Layer_1
 62
7
100
AcDbSpline
 70
8
 71
3
 72
8
 73
4
 74
0
 40
0
 40
0
 40
0
 40
0
 40
1
 40
1
 40
1
 40
1
 10
53.730176
 20
31.399172
 30
0.0
 10
52.453245
 20
30.150864
 30
0.0
 10
51.187709
 20
28.892274
 30
0.0
 10
50.002071
 20
27.554634
 30
0.0
  0
SPLINE
  5
29c
100
AcDbEntity
  8
Layer_1
 62
7
100
AcDbSpline
 70
8
 71
3
 72
8
 73
4
 74
0
 40
0
 40
0
 40
0
 40
0
 40
1
 40
1
 40
1
 40
1
 10
50.002071
 20
27.554634
 30
0.0
 10
48.816456
 20
28.892305
 30
0.0
 10
47.550909
 20
30.150864
 30
0.0
 10
46.273969
 20
31.399172
 30
0.0
  0
SPLINE
  5
29d
100
AcDbEntity
  8
Layer_1
 62
7
100
AcDbSpline
 70
8
 71
3
 72
8
 73
4
 74
0
 40
0
 40
0
 40
0
 40
0
 40
1
 40
1
 40
1
 40
1
 10
46.273969
 20
31.399172
 30
0.0
 10
47.535869
 20
31.913641
 30
0.0
 10
48.778799
 20
32.458855
 30
0.0
 10
50.002071
 20
33.048092
 30
0.0
  0
LWPOLYLINE
  5
29e
100
AcDbEntity
  8
Layer_1
 62
7
100
AcDbPolyline
 90
2
 70
0
 10
59.300503
 20
33.762332
 30
0.0
 10
59.300503
 20
33.762332
 30
0.0
  0
SPLINE
  5
29f
100
AcDbEntity
  8
Layer_1
 62
7
100
AcDbSpline
 70
8
 71
3
 72
8
 73
4
 74
0
 40
0
 40
0
 40
0
 40
0
 40
1
 40
1
 40
1
 40
1
 10
44.230934
 20
30.632030
 30
0.0
 10
45.776792
 20
29.158311
 30
0.0
 10
47.247052
 20
27.613878
 30
0.0
 10
48.657511
 20
26.011528
 30
0.0
  0
SPLINE
  5
2a0
100
AcDbEntity
  8
Layer_1
 62
7
100
AcDbSpline
 70
8
 71
3
 72
8
 73
4
 74
0
 40
0
 40
0
 40
0
 40
0
 40
1
 40
1
 40
1
 40
1
 10
48.657511
 20
26.011528
 30
0.0
 10
48.191616
 20
25.454983
 30
0.0
 10
47.744516
 20
24.880753
 30
0.0
 10
47.295487
 20
24.309702
 30
0.0
  0
SPLINE
  5
2a1
100
AcDbEntity
  8
Layer_1
 62
7
100
AcDbSpline
 70
8
 71
3
 72
8
 73
4
 74
0
 40
0
 40
0
 40
0
 40
0
 40
1
 40
1
 40
1
 40
1
 10
47.295487
 20
24.309702
 30
0.0
 10
45.744072
 20
26.313026
 30
0.0
 10
44.059879
 20
28.222857
 30
0.0
 10
42.196629
 20
29.944246
 30
0.0
  0
SPLINE
  5
2a2
100
AcDbEntity
  8
Layer_1
 62
7
100
AcDbSpline
 70
8
 71
3
 72
8
 73
4
 74
0
 40
0
 40
0
 40
0
 40
0
 40
1
 40
1
 40
1
 40
1
 10
42.196629
 20
29.944246
 30
0.0
 10
42.877363
 20
30.163857
 30
0.0
 10
43.559104
 20
30.386373
 30
0.0
 10
44.230934
 20
30.632030
 30
0.0
  0
LWPOLYLINE
  5
2a3
100
AcDbEntity
  8
Layer_1
 62
7
100
AcDbPolyline
 90
2
 70
0
 10
50.002071
 20
33.048092
 30
0.0
 10
50.002071
 20
33.048092
 30
0.0
  0
SPLINE
  5
2a4
100
AcDbEntity
  8
Layer_1
 62
7
100
AcDbSpline
 70
8
 71
3
 72
8
 73
4
 74
0
 40
0
 40
0
 40
0
 40
0
 40
1
 40
1
 40
1
 40
1
 10
55.773211
 20
30.632030
 30
0.0
 10
56.440906
 20
30.387914
 30
0.0
 10
57.113557
 20
30.162641
 30
0.0
 10
57.790055
 20
29.944246
 30
0.0
  0
SPLINE
  5
2a5
100
AcDbEntity
  8
Layer_1
 62
7
100
AcDbSpline
 70
8
 71
3
 72
8
 73
4
 74
0
 40
0
 40
0
 40
0
 40
0
 40
1
 40
1
 40
1
 40
1
 10
57.790055
 20
29.944246
 30
0.0
 10
55.929472
 20
28.221170
 30
0.0
 10
54.247182
 20
26.314434
 30
0.0
 10
52.699926
 20
24.309702
 30
0.0
  0
SPLINE
  5
2a6
100
AcDbEntity
  8
Layer_1
 62
7
100
AcDbSpline
 70
8
 71
3
 72
8
 73
4
 74
0
 40
0
 40
0
 40
0
 40
0
 40
1
 40
1
 40
1
 40
1
 10
52.699926
 20
24.309702
 30
0.0
 10
52.250152
 20
24.881724
 30
0.0
 10
51.804613
 20
25.454068
 30
0.0
 10
51.337902
 20
26.011528
 30
0.0
  0
SPLINE
  5
2a7
100
AcDbEntity
  8
Layer_1
 62
7
100
AcDbSpline
 70
8
 71
3
 72
8
 73
4
 74
0
 40
0
 40
0
 40
0
 40
0
 40
1
 40
1
 40
1
 40
1
 10
51.337902
 20
26.011528
 30
0.0
 10
52.748610
 20
27.614093
 30
0.0
 10
54.227116
 20
29.158099
 30
0.0
 10
55.773211
 20
30.632030
 30
0.0
  0
LWPOLYLINE
  5
2a8
100
AcDbEntity
  8
Layer_1
 62
7
100
AcDbPolyline
 90
2
 70
0
 10
44.230934
 20
30.632030
 30
0.0
 10
44.230934
 20
30.632030
 30
0.0
  0
SPLINE
  5
2a9
100
AcDbEntity
  8
Layer_1
 62
7
100
AcDbSpline
 70
8
 71
3
 72
8
 73
4
 74
0
 40
0
 40
0
 40
0
 40
0
 40
1
 40
1
 40
1
 40
1
 10
49.993342
 20
24.406699
 30
0.0
 10
50.477548
 20
23.822460
 30
0.0
 10
50.986640
 20
23.260931
 30
0.0
 10
51.451406
 20
22.660785
 30
0.0
  0
SPLINE
  5
2aa
100
AcDbEntity
  8
Layer_1
 62
7
100
AcDbSpline
 70
8
 71
3
 72
8
 73
4
 74
0
 40
0
 40
0
 40
0
 40
0
 40
1
 40
1
 40
1
 40
1
 10
51.451406
 20
22.660785
 30
0.0
 10
50.945639
 20
21.945072
 30
0.0
 10
50.461410
 20
21.213967
 30
0.0
 10
50.002071
 20
20.456347
 30
0.0
  0
SPLINE
  5
2ab
100
AcDbEntity
  8
Layer_1
 62
7
100
AcDbSpline
 70
8
 71
3
 72
8
 73
4
 74
0
 40
0
 40
0
 40
0
 40
0
 40
1
 40
1
 40
1
 40
1
 10
50.002071
 20
20.456347
 30
0.0
 10
49.540446
 20
21.216118
 30
0.0
 10
49.061266
 20
21.952221
 30
0.0
 10
48.552739
 20
22.669602
 30
0.0
  0
SPLINE
  5
2ac
100
AcDbEntity
  8
Layer_1
 62
7
100
AcDbSpline
 70
8
 71
3
 72
8
 73
4
 74
0
 40
0
 40
0
 40
0
 40
0
 40
1
 40
1
 40
1
 40
1
 10
48.552739
 20
22.669602
 30
0.0
 10
49.013960
 20
23.264884
 30
0.0
 10
49.512994
 20
23.827060
 30
0.0
 10
49.993342
 20
24.406699
 30
0.0
  0
LWPOLYLINE
  5
2ad
100
AcDbEntity
  8
Layer_1
 62
7
100
AcDbPolyline
 90
2
 70
0
 10
55.773211
 20
30.632030
 30
0.0
 10
55.773211
 20
30.632030
 30
0.0
  0
SPLINE
  5
2ae
100
AcDbEntity
  8
Layer_1
 62
7
100
AcDbSpline
 70
8
 71
3
 72
8
 73
4
 74
0
 40
0
 40
0
 40
0
 40
0
 40
1
 40
1
 40
1
 40
1
 10
47.286755
 20
20.994229
 30
0.0
 10
47.855207
 20
20.164275
 30
0.0
 10
48.385020
 20
19.315407
 30
0.0
 10
48.867052
 20
18.445901
 30
0.0
  0
SPLINE
  5
2af
100
AcDbEntity
  8
Layer_1
 62
7
100
AcDbSpline
 70
8
 71
3
 72
8
 73
4
 74
0
 40
0
 40
0
 40
0
 40
0
 40
1
 40
1
 40
1
 40
1
 10
48.867052
 20
18.445901
 30
0.0
 10
48.054227
 20
16.824971
 30
0.0
 10
47.406614
 20
15.109390
 30
0.0
 10
47.033559
 20
13.296333
 30
0.0
  0
LWPOLYLINE
  5
2b0
100
AcDbEntity
  8
Layer_1
 62
7
100
AcDbPolyline
 90
2
 70
0
 10
49.993342
 20
24.406699
 30
0.0
 10
49.993342
 20
24.406699
 30
0.0
  0
SPLINE
  5
2b1
100
AcDbEntity
  8
Layer_1
 62
7
100
AcDbSpline
 70
8
 71
3
 72
8
 73
4
 74
0
 40
0
 40
0
 40
0
 40
0
 40
1
 40
1
 40
1
 40
1
 10
47.007369
 20
13.093525
 30
0.0
 10
46.656550
 20
11.281478
 30
0.0
 10
46.576376
 20
9.397523
 30
0.0
 10
46.902597
 20
7.547189
 30
0.0
  0
SPLINE
  5
2b2
100
AcDbEntity
  8
Layer_1
 62
7
100
AcDbSpline
 70
8
 71
3
 72
8
 73
4
 74
0
 40
0
 40
0
 40
0
 40
0
 40
1
 40
1
 40
1
 40
1
 10
46.902597
 20
7.547189
 30
0.0
 10
47.190410
 20
5.914619
 30
0.0
 10
47.807435
 20
4.334513
 30
0.0
 10
48.727361
 20
2.935481
 30
0.0
  0
SPLINE
  5
2b3
100
AcDbEntity
  8
Layer_1
 62
7
100
AcDbSpline
 70
8
 71
3
 72
8
 73
4
 74
0
 40
0
 40
0
 40
0
 40
0
 40
1
 40
1
 40
1
 40
1
 10
48.727361
 20
2.935481
 30
0.0
 10
48.568817
 20
2.775122
 30
0.0
 10
48.415184
 20
2.580643
 30
0.0
 10
48.247160
 20
2.459315
 30
0.0
  0
SPLINE
  5
2b4
100
AcDbEntity
  8
Layer_1
 62
7
100
AcDbSpline
 70
8
 71
3
 72
8
 73
4
 74
0
 40
0
 40
0
 40
0
 40
0
 40
1
 40
1
 40
1
 40
1
 10
48.247160
 20
2.459315
 30
0.0
 10
47.907234
 20
2.213839
 30
0.0
 10
47.535297
 20
2.050178
 30
0.0
 10
47.190717
 20
2.009623
 30
0.0
  0
SPLINE
  5
2b5
100
AcDbEntity
  8
Layer_1
 62
7
100
AcDbSpline
 70
8
 71
3
 72
8
 73
4
 74
0
 40
0
 40
0
 40
0
 40
0
 40
1
 40
1
 40
1
 40
1
 10
47.190717
 20
2.009623
 30
0.0
 10
46.712040
 20
1.953291
 30
0.0
 10
46.150906
 20
2.117431
 30
0.0
 10
45.671538
 20
2.441677
 30
0.0
  0
SPLINE
  5
2b6
100
AcDbEntity
  8
Layer_1
 62
7
100
AcDbSpline
 70
8
 71
3
 72
8
 73
4
 74
0
 40
0
 40
0
 40
0
 40
0
 40
1
 40
1
 40
1
 40
1
 10
45.671538
 20
2.441677
 30
0.0
 10
45.181518
 20
2.773118
 30
0.0
 10
44.743066
 20
3.271720
 30
0.0
 10
44.361900
 20
3.852534
 30
0.0
  0
SPLINE
  5
2b7
100
AcDbEntity
  8
Layer_1
 62
7
100
AcDbSpline
 70
8
 71
3
 72
8
 73
4
 74
0
 40
0
 40
0
 40
0
 40
0
 40
1
 40
1
 40
1
 40
1
 10
44.361900
 20
3.852534
 30
0.0
 10
43.497605
 20
5.169552
 30
0.0
 10
42.986416
 20
6.740288
 30
0.0
 10
42.825259
 20
8.349575
 30
0.0
  0
SPLINE
  5
2b8
100
AcDbEntity
  8
Layer_1
 62
7
100
AcDbSpline
 70
8
 71
3
 72
8
 73
4
 74
0
 40
0
 40
0
 40
0
 40
0
 40
1
 40
1
 40
1
 40
1
 10
42.825259
 20
8.349575
 30
0.0
 10
42.663814
 20
9.961773
 30
0.0
 10
42.845805
 20
11.626133
 30
0.0
 10
43.279264
 20
13.225791
 30
0.0
  0
SPLINE
  5
2b9
100
AcDbEntity
  8
Layer_1
 62
7
100
AcDbSpline
 70
8
 71
3
 72
8
 73
4
 74
0
 40
0
 40
0
 40
0
 40
0
 40
1
 40
1
 40
1
 40
1
 10
43.279264
 20
13.225791
 30
0.0
 10
44.031937
 20
16.003284
 30
0.0
 10
45.539853
 20
18.562475
 30
0.0
 10
47.286758
 20
20.994229
 30
0.0
  0
LWPOLYLINE
  5
2ba
100
AcDbEntity
  8
Layer_1
 62
7
100
AcDbPolyline
 90
3
 70
0
 10
47.033559
 20
13.296333
 30
0.0
 10
47.007369
 20
13.199339
 30
0.0
 10
47.007369
 20
13.093525
 30
0.0
  0
SPLINE
  5
2bb
100
AcDbEntity
  8
Layer_1
 62
7
100
AcDbSpline
 70
8
 71
3
 72
8
 73
4
 74
0
 40
0
 40
0
 40
0
 40
0
 40
1
 40
1
 40
1
 40
1
 10
52.708658
 20
20.994229
 30
0.0
 10
54.455349
 20
18.562447
 30
0.0
 10
55.972310
 20
16.003259
 30
0.0
 10
56.724881
 20
13.225791
 30
0.0
  0
SPLINE
  5
2bc
100
AcDbEntity
  8
Layer_1
 62
7
100
AcDbSpline
 70
8
 71
3
 72
8
 73
4
 74
0
 40
0
 40
0
 40
0
 40
0
 40
1
 40
1
 40
1
 40
1
 10
56.724881
 20
13.225791
 30
0.0
 10
57.158315
 20
11.626159
 30
0.0
 10
57.331509
 20
9.961761
 30
0.0
 10
57.170160
 20
8.349575
 30
0.0
  0
SPLINE
  5
2bd
100
AcDbEntity
  8
Layer_1
 62
7
100
AcDbSpline
 70
8
 71
3
 72
8
 73
4
 74
0
 40
0
 40
0
 40
0
 40
0
 40
1
 40
1
 40
1
 40
1
 10
57.170160
 20
8.349575
 30
0.0
 10
57.009096
 20
6.740260
 30
0.0
 10
56.497551
 20
5.169721
 30
0.0
 10
55.633516
 20
3.852534
 30
0.0
  0
SPLINE
  5
2be
100
AcDbEntity
  8
Layer_1
 62
7
100
AcDbSpline
 70
8
 71
3
 72
8
 73
4
 74
0
 40
0
 40
0
 40
0
 40
0
 40
1
 40
1
 40
1
 40
1
 10
55.633516
 20
3.852534
 30
0.0
 10
55.252437
 20
3.271579
 30
0.0
 10
54.822588
 20
2.773147
 30
0.0
 10
54.332610
 20
2.441677
 30
0.0
  0
SPLINE
  5
2bf
100
AcDbEntity
  8
Layer_1
 62
7
100
AcDbSpline
 70
8
 71
3
 72
8
 73
4
 74
0
 40
0
 40
0
 40
0
 40
0
 40
1
 40
1
 40
1
 40
1
 10
54.332610
 20
2.441677
 30
0.0
 10
53.853335
 20
2.117460
 30
0.0
 10
53.283156
 20
1.953093
 30
0.0
 10
52.804699
 20
2.009623
 30
0.0
  0
SPLINE
  5
2c0
100
AcDbEntity
  8
Layer_1
 62
7
100
AcDbSpline
 70
8
 71
3
 72
8
 73
4
 74
0
 40
0
 40
0
 40
0
 40
0
 40
1
 40
1
 40
1
 40
1
 10
52.804699
 20
2.009623
 30
0.0
 10
52.460012
 20
2.050347
 30
0.0
 10
52.088091
 20
2.213274
 30
0.0
 10
51.748256
 20
2.459315
 30
0.0
  0
SPLINE
  5
2c1
100
AcDbEntity
  8
Layer_1
 62
7
100
AcDbSpline
 70
8
 71
3
 72
8
 73
4
 74
0
 40
0
 40
0
 40
0
 40
0
 40
1
 40
1
 40
1
 40
1
 10
51.748256
 20
2.459315
 30
0.0
 10
51.581040
 20
2.580389
 30
0.0
 10
51.434532
 20
2.775687
 30
0.0
 10
51.276787
 20
2.935481
 30
0.0
  0
SPLINE
  5
2c2
100
AcDbEntity
  8
Layer_1
 62
7
100
AcDbSpline
 70
8
 71
3
 72
8
 73
4
 74
0
 40
0
 40
0
 40
0
 40
0
 40
1
 40
1
 40
1
 40
1
 10
51.276787
 20
2.935481
 30
0.0
 10
52.198260
 20
4.333525
 30
0.0
 10
52.821195
 20
5.905954
 30
0.0
 10
53.110280
 20
7.538356
 30
0.0
  0
SPLINE
  5
2c3
100
AcDbEntity
  8
Layer_1
 62
7
100
AcDbSpline
 70
8
 71
3
 72
8
 73
4
 74
0
 40
0
 40
0
 40
0
 40
0
 40
1
 40
1
 40
1
 40
1
 10
53.110280
 20
7.538356
 30
0.0
 10
53.450211
 20
9.457806
 30
0.0
 10
53.364788
 20
11.422332
 30
0.0
 10
52.979315
 20
13.296333
 30
0.0
  0
LWPOLYLINE
  5
2c4
100
AcDbEntity
  8
Layer_1
 62
7
100
AcDbPolyline
 90
2
 70
0
 10
47.286758
 20
20.994229
 30
0.0
 10
47.286755
 20
20.994229
 30
0.0
  0
SPLINE
  5
2c5
100
AcDbEntity
  8
Layer_1
 62
7
100
AcDbSpline
 70
8
 71
3
 72
8
 73
4
 74
0
 40
0
 40
0
 40
0
 40
0
 40
1
 40
1
 40
1
 40
1
 10
52.883275
 20
13.622590
 30
0.0
 10
52.502447
 20
15.310671
 30
0.0
 10
51.899572
 20
16.917805
 30
0.0
 10
51.137093
 20
18.437081
 30
0.0
  0
SPLINE
  5
2c6
100
AcDbEntity
  8
Layer_1
 62
7
100
AcDbSpline
 70
8
 71
3
 72
8
 73
4
 74
0
 40
0
 40
0
 40
0
 40
0
 40
1
 40
1
 40
1
 40
1
 10
51.137093
 20
18.437081
 30
0.0
 10
51.619154
 20
19.309066
 30
0.0
 10
52.139992
 20
20.161671
 30
0.0
 10
52.708658
 20
20.994229
 30
0.0
  0
LWPOLYLINE
  5
2c7
100
AcDbEntity
  8
Layer_1
 62
7
100
AcDbPolyline
 90
3
 70
0
 10
52.979315
 20
13.296333
 30
0.0
 10
52.918200
 20
13.587321
 30
0.0
 10
52.883275
 20
13.622590
 30
0.0
  0
SPLINE
  5
2c8
100
AcDbEntity
  8
Layer_1
 62
7
100
AcDbSpline
 70
8
 71
3
 72
8
 73
4
 74
0
 40
0
 40
0
 40
0
 40
0
 40
1
 40
1
 40
1
 40
1
 10
50.002071
 20
16.091560
 30
0.0
 10
50.436166
 20
15.047143
 30
0.0
 10
50.815481
 20
13.987354
 30
0.0
 10
51.041052
 20
12.890717
 30
0.0
  0
SPLINE
  5
2c9
100
AcDbEntity
  8
Layer_1
 62
7
100
AcDbSpline
 70
8
 71
3
 72
8
 73
4
 74
0
 40
0
 40
0
 40
0
 40
0
 40
1
 40
1
 40
1
 40
1
 10
51.041052
 20
12.890717
 30
0.0
 10
51.381892
 20
11.233686
 30
0.0
 10
51.443329
 20
9.521656
 30
0.0
 10
51.154554
 20
7.891049
 30
0.0
  0
SPLINE
  5
2ca
100
AcDbEntity
  8
Layer_1
 62
7
100
AcDbSpline
 70
8
 71
3
 72
8
 73
4
 74
0
 40
0
 40
0
 40
0
 40
0
 40
1
 40
1
 40
1
 40
1
 10
51.154554
 20
7.891049
 30
0.0
 10
50.951097
 20
6.742179
 30
0.0
 10
50.560174
 20
5.632171
 30
0.0
 10
50.002071
 20
4.628475
 30
0.0
  0
SPLINE
  5
2cb
100
AcDbEntity
  8
Layer_1
 62
7
100
AcDbSpline
 70
8
 71
3
 72
8
 73
4
 74
0
 40
0
 40
0
 40
0
 40
0
 40
1
 40
1
 40
1
 40
1
 10
50.002071
 20
4.628475
 30
0.0
 10
49.443426
 20
5.634174
 30
0.0
 10
49.052534
 20
6.748726
 30
0.0
 10
48.849591
 20
7.899883
 30
0.0
  0
SPLINE
  5
2cc
100
AcDbEntity
  8
Layer_1
 62
7
100
AcDbSpline
 70
8
 71
3
 72
8
 73
4
 74
0
 40
0
 40
0
 40
0
 40
0
 40
1
 40
1
 40
1
 40
1
 10
48.849591
 20
7.899883
 30
0.0
 10
48.562199
 20
9.529990
 30
0.0
 10
48.631021
 20
11.234417
 30
0.0
 10
48.971825
 20
12.890717
 30
0.0
  0
SPLINE
  5
2cd
100
AcDbEntity
  8
Layer_1
 62
7
100
AcDbSpline
 70
8
 71
3
 72
8
 73
4
 74
0
 40
0
 40
0
 40
0
 40
0
 40
1
 40
1
 40
1
 40
1
 10
48.971825
 20
12.890717
 30
0.0
 10
49.197292
 20
13.986496
 30
0.0
 10
49.568806
 20
15.047730
 30
0.0
 10
50.002071
 20
16.091560
 30
0.0
  0
LWPOLYLINE
  5
2ce
100
AcDbEntity
  8
Layer_1
 62
7
100
AcDbPolyline
 90
2
 70
0
 10
52.708658
 20
20.994229
 30
0.0
 10
52.708658
 20
20.994229
 30
0.0
  0
LWPOLYLINE
  5
2cf
100
AcDbEntity
  8
Layer_1
 62
7
100
AcDbPolyline
 90
2
 70
0
 10
50.002071
 20
16.091560
 30
0.0
 10
50.002071
 20
16.091560
 30
0.0
  0
ENDSEC
  0
SECTION
  2
OBJECTS
  0
DICTIONARY
  5
C
330
0
100
AcDbDictionary
  3
ACAD_GROUP
350
D
  3
ACAD_MLINESTYLE
350
17
  0
DICTIONARY
  5
D
330
C
100
AcDbDictionary
  0
DICTIONARY
  5
1A
330
C
100
AcDbDictionary
  0
DICTIONARY
  5
17
330
C
100
AcDbDictionary
  3
STANDARD
350
18
  0
DICTIONARY
  5
19
330
C
100
AcDbDictionary
  0
ENDSEC
  0
EOF
