  0
SECTION
  2
HEADER
  9
$ACADVER
  1
AC1015
  9
$ACADMAINTVER
 70
     6
  9
$DWGCODEPAGE
  3
ANSI_1252
  9
$INSBASE
 10
0.0
 20
0.0
 30
0.0
  9
$EXTMIN
 10
0.0
 20
0.0
 30
0.0
  9
$EXTMAX
 10
0.0
 20
0.0
 30
0.0
  9
$LIMMIN
 10
0.0
 20
0.0
  9
$LIMMAX
 10
420.0
 20
297.0
  9
$ORTHOMODE
 70
     0
  9
$REGENMODE
 70
     1
  9
$FILLMODE
 70
     1
  9
$QTEXTMODE
 70
     0
  9
$MIRRTEXT
 70
     1
  9
$LTSCALE
 40
1.0
  9
$ATTMODE
 70
     1
  9
$TEXTSIZE
 40
2.5
  9
$TRACEWID
 40
1.0
  9
$TEXTSTYLE
  7
Standard
  9
$CLAYER
  8
0
  9
$CELTYPE
  6
ByLayer
  9
$CECOLOR
 62
   256
  9
$CELTSCALE
 40
1.0
  9
$DISPSILH
 70
     0
  9
$DIMSCALE
 40
1.0
  9
$DIMASZ
 40
2.5
  9
$DIMEXO
 40
0.625
  9
$DIMDLI
 40
3.75
  9
$DIMRND
 40
0.0
  9
$DIMDLE
 40
0.0
  9
$DIMEXE
 40
1.25
  9
$DIMTP
 40
0.0
  9
$DIMTM
 40
0.0
  9
$DIMTXT
 40
2.5
  9
$DIMCEN
 40
2.5
  9
$DIMTSZ
 40
0.0
  9
$DIMTOL
 70
     0
  9
$DIMLIM
 70
     0
  9
$DIMTIH
 70
     0
  9
$DIMTOH
 70
     0
  9
$DIMSE1
 70
     0
  9
$DIMSE2
 70
     0
  9
$DIMTAD
 70
     1
  9
$DIMZIN
 70
     8
  9
$DIMBLK
  1

  9
$DIMASO
 70
     1
  9
$DIMSHO
 70
     1
  9
$DIMPOST
  1

  9
$DIMAPOST
  1

  9
$DIMALT
 70
     0
  9
$DIMALTD
 70
     3
  9
$DIMALTF
 40
0.03937007874
  9
$DIMLFAC
 40
1.0
  9
$DIMTOFL
 70
     1
  9
$DIMTVP
 40
0.0
  9
$DIMTIX
 70
     0
  9
$DIMSOXD
 70
     0
  9
$DIMSAH
 70
     0
  9
$DIMBLK1
  1

  9
$DIMBLK2
  1

  9
$DIMSTYLE
  2
ISO-25
  9
$DIMCLRD
 70
     0
  9
$DIMCLRE
 70
     0
  9
$DIMCLRT
 70
     0
  9
$DIMTFAC
 40
1.0
  9
$DIMGAP
 40
0.625
  9
$DIMJUST
 70
     0
  9
$DIMSD1
 70
     0
  9
$DIMSD2
 70
     0
  9
$DIMTOLJ
 70
     0
  9
$DIMTZIN
 70
     8
  9
$DIMALTZ
 70
     0
  9
$DIMALTTZ
 70
     0
  9
$DIMUPT
 70
     0
  9
$DIMDEC
 70
     2
  9
$DIMTDEC
 70
     2
  9
$DIMALTU
 70
     2
  9
$DIMALTTD
 70
     3
  9
$DIMTXSTY
  7
Standard
  9
$DIMAUNIT
 70
     0
  9
$DIMADEC
 70
     0
  9
$DIMALTRND
 40
0.0
  9
$DIMAZIN
 70
     0
  9
$DIMDSEP
 70
    44
  9
$DIMATFIT
 70
     3
  9
$DIMFRAC
 70
     0
  9
$DIMLDRBLK
  1

  9
$DIMLUNIT
 70
     2
  9
$DIMLWD
 70
    -2
  9
$DIMLWE
 70
    -2
  9
$DIMTMOVE
 70
     0
  9
$LUNITS
 70
     2
  9
$LUPREC
 70
     4
  9
$SKETCHINC
 40
1.0
  9
$FILLETRAD
 40
10.0
  9
$AUNITS
 70
     0
  9
$AUPREC
 70
     0
  9
$MENU
  1
.
  9
$ELEVATION
 40
0.0
  9
$PELEVATION
 40
0.0
  9
$THICKNESS
 40
0.0
  9
$LIMCHECK
 70
     0
  9
$CHAMFERA
 40
10.0
  9
$CHAMFERB
 40
10.0
  9
$CHAMFERC
 40
20.0
  9
$CHAMFERD
 40
0.0
  9
$SKPOLY
 70
     0
  9
$TDCREATE
 40
2456351.384363009
  9
$TDUCREATE
 40
2456351.342696343
  9
$TDUPDATE
 40
2456351.342696794
  9
$TDUUPDATE
 40
2456351.301030127
  9
$TDINDWG
 40
0.0000000116
  9
$TDUSRTIMER
 40
0.0000000116
  9
$USRTIMER
 70
     1
  9
$ANGBASE
 50
0.0
  9
$ANGDIR
 70
     0
  9
$PDMODE
 70
     0
  9
$PDSIZE
 40
0.0
  9
$PLINEWID
 40
0.0
  9
$SPLFRAME
 70
     0
  9
$SPLINETYPE
 70
     6
  9
$SPLINESEGS
 70
     8
  9
$HANDSEED
  5
1E2
  9
$SURFTAB1
 70
     6
  9
$SURFTAB2
 70
     6
  9
$SURFTYPE
 70
     6
  9
$SURFU
 70
     6
  9
$SURFV
 70
     6
  9
$UCSBASE
  2

  9
$UCSNAME
  2

  9
$UCSORG
 10
0.0
 20
0.0
 30
0.0
  9
$UCSXDIR
 10
1.0
 20
0.0
 30
0.0
  9
$UCSYDIR
 10
0.0
 20
1.0
 30
0.0
  9
$UCSORTHOREF
  2

  9
$UCSORTHOVIEW
 70
     0
  9
$UCSORGTOP
 10
0.0
 20
0.0
 30
0.0
  9
$UCSORGBOTTOM
 10
0.0
 20
0.0
 30
0.0
  9
$UCSORGLEFT
 10
0.0
 20
0.0
 30
0.0
  9
$UCSORGRIGHT
 10
0.0
 20
0.0
 30
0.0
  9
$UCSORGFRONT
 10
0.0
 20
0.0
 30
0.0
  9
$UCSORGBACK
 10
0.0
 20
0.0
 30
0.0
  9
$PUCSBASE
  2

  9
$PUCSNAME
  2

  9
$PUCSORG
 10
0.0
 20
0.0
 30
0.0
  9
$PUCSXDIR
 10
1.0
 20
0.0
 30
0.0
  9
$PUCSYDIR
 10
0.0
 20
1.0
 30
0.0
  9
$PUCSORTHOREF
  2

  9
$PUCSORTHOVIEW
 70
     0
  9
$PUCSORGTOP
 10
0.0
 20
0.0
 30
0.0
  9
$PUCSORGBOTTOM
 10
0.0
 20
0.0
 30
0.0
  9
$PUCSORGLEFT
 10
0.0
 20
0.0
 30
0.0
  9
$PUCSORGRIGHT
 10
0.0
 20
0.0
 30
0.0
  9
$PUCSORGFRONT
 10
0.0
 20
0.0
 30
0.0
  9
$PUCSORGBACK
 10
0.0
 20
0.0
 30
0.0
  9
$USERI1
 70
     0
  9
$USERI2
 70
     0
  9
$USERI3
 70
     0
  9
$USERI4
 70
     0
  9
$USERI5
 70
     0
  9
$USERR1
 40
0.0
  9
$USERR2
 40
0.0
  9
$USERR3
 40
0.0
  9
$USERR4
 40
0.0
  9
$USERR5
 40
0.0
  9
$WORLDVIEW
 70
     1
  9
$SHADEDGE
 70
     3
  9
$SHADEDIF
 70
    70
  9
$TILEMODE
 70
     1
  9
$MAXACTVP
 70
    64
  9
$PINSBASE
 10
0.0
 20
0.0
 30
0.0
  9
$PLIMCHECK
 70
     0
  9
$PEXTMIN
 10
1.000000000000E+20
 20
1.000000000000E+20
 30
1.000000000000E+20
  9
$PEXTMAX
 10
-1.000000000000E+20
 20
-1.000000000000E+20
 30
-1.000000000000E+20
  9
$PLIMMIN
 10
0.0
 20
0.0
  9
$PLIMMAX
 10
420.0
 20
297.0
  9
$UNITMODE
 70
     0
  9
$VISRETAIN
 70
     1
  9
$PLINEGEN
 70
     0
  9
$PSLTSCALE
 70
     1
  9
$TREEDEPTH
 70
  3020
  9
$CMLSTYLE
  2
Standard
  9
$CMLJUST
 70
     0
  9
$CMLSCALE
 40
20.0
  9
$PROXYGRAPHICS
 70
     1
  9
$MEASUREMENT
 70
     1
  9
$CELWEIGHT
370
    -1
  9
$ENDCAPS
280
     0
  9
$JOINSTYLE
280
     0
  9
$LWDISPLAY
290
     0
  9
$INSUNITS
 70
     4
  9
$HYPERLINKBASE
  1

  9
$STYLESHEET
  1

  9
$XEDIT
290
     1
  9
$CEPSNTYPE
380
     0
  9
$PSTYLEMODE
290
     0
  9
$FINGERPRINTGUID
  2
{071D284F-8C5A-4CD3-BC7D-12E1D8C44C86}
  9
$VERSIONGUID
  2
{FAEB1C32-E019-11D5-929B-00C0DF256EC4}
  9
$EXTNAMES
290
     1
  9
$PSVPSCALE
 40
0.0
  9
$OLESTARTUP
290
     0
  0
ENDSEC
  0
SECTION
  2
CLASSES
  0
CLASS
  1
ACDBDICTIONARYWDFLT
  2
AcDbDictionaryWithDefault
  3
ObjectDBX Classes
 90
        0
280
     0
281
     0
  0
CLASS
  1
VISUALSTYLE
  2
AcDbVisualStyle
  3
ObjectDBX Classes
 90
     4095
280
     0
281
     0
  0
CLASS
  1
MATERIAL
  2
AcDbMaterial
  3
ObjectDBX Classes
 90
     1153
280
     0
281
     0
  0
CLASS
  1
DICTIONARYVAR
  2
AcDbDictionaryVar
  3
ObjectDBX Classes
 90
        0
280
     0
281
     0
  0
CLASS
  1
ACDBPLACEHOLDER
  2
AcDbPlaceHolder
  3
ObjectDBX Classes
 90
        0
280
     0
281
     0
  0
CLASS
  1
LAYOUT
  2
AcDbLayout
  3
ObjectDBX Classes
 90
        0
280
     0
281
     0
  0
ENDSEC
  0
SECTION
  2
TABLES
  0
TABLE
  2
VPORT
  5
8
330
0
100
AcDbSymbolTable
 70
     1
  0
VPORT
  5
29
330
8
100
AcDbSymbolTableRecord
100
AcDbViewportTableRecord
  2
*Active
 70
     0
 10
0.0
 20
0.0
 11
1.0
 21
1.0
 12
344.18691588785
 22
148.5
 13
0.0
 23
0.0
 14
10.0
 24
10.0
 15
10.0
 25
10.0
 16
0.0
 26
0.0
 36
1.0
 17
0.0
 27
0.0
 37
0.0
 40
297.0
 41
1.97297297285
 42
50.0
 43
0.0
 44
0.0
 50
0.0
 51
0.0
 71
     0
 72
   100
 73
     1
 74
     3
 75
     0
 76
     0
 77
     0
 78
     0
281
     0
 65
     1
110
0.0
120
0.0
130
0.0
111
1.0
121
0.0
131
0.0
112
0.0
122
1.0
132
0.0
 79
     0
146
0.0
  0
ENDTAB
  0
TABLE
  2
LTYPE
  5
5
330
0
100
AcDbSymbolTable
 70
     5
  0
LTYPE
  5
14
330
5
100
AcDbSymbolTableRecord
100
AcDbLinetypeTableRecord
  2
ByBlock
 70
     0
  3

 72
    65
 73
     0
 40
0.0
  0
LTYPE
  5
15
330
5
100
AcDbSymbolTableRecord
100
AcDbLinetypeTableRecord
  2
ByLayer
 70
     0
  3

 72
    65
 73
     0
 40
0.0
  0
LTYPE
  5
16
330
5
100
AcDbSymbolTableRecord
100
AcDbLinetypeTableRecord
  2
Continuous
 70
     0
  3
Solid line
 72
    65
 73
     0
 40
0.0
  0
LTYPE
  5
3F
330
5
100
AcDbSymbolTableRecord
100
AcDbLinetypeTableRecord
  2
HIDDEN
 70
     0
  3
____  ____   ____  ____
 72
    65
 73
     2
 40
9.525
 49
6.35
 74
     0
 49
-3.175
 74
     0
  0
LTYPE
  5
40
330
5
100
AcDbSymbolTableRecord
100
AcDbLinetypeTableRecord
  2
HIDDEN2
 70
     0
  3
__ __ __ __
 72
    65
 73
     2
 40
4.7625
 49
3.175
 74
     0
 49
-1.5875
 74
     0
  0
LTYPE
  5
41
330
5
100
AcDbSymbolTableRecord
100
AcDbLinetypeTableRecord
  2
CENTER
 70
     0
  3
_____ _ _____ _ _____ _
 72
    65
 73
     4
 40
25.4
 49
15.875
 74
     0
 49
-3.175
 74
     0
 49
3.175
 74
     0
 49
-3.175
 74
     0
  0
LTYPE
  5
42
330
5
100
AcDbSymbolTableRecord
100
AcDbLinetypeTableRecord
  2
PHANTOM
 70
     0
  3
____ _ _ _____ _ _
 72
    65
 73
     6
 40
31.75
 49
15.875
 74
     0
 49
-3.175
 74
     0
 49
3.175
 74
     0
 49
-3.175
 74
     0
 49
3.175
 74
     0
 49
-3.175
 74
     0
  0
ENDTAB
  0
TABLE
  2
LAYER
  5
2
330
0
100
AcDbSymbolTable
 70
     3
  0
LAYER
  5
10
330
2
100
AcDbSymbolTableRecord
100
AcDbLayerTableRecord
  2
0
 70
     0
 62
     7
  6
Continuous
370
    -3
390
F
  0
LAYER
  5
43
330
2
100
AcDbSymbolTableRecord
100
AcDbLayerTableRecord
  2
Schlüssel_groß
 70
     0
 62
     7
  6
Continuous
370
    -3
390
F
  0
LAYER
  5
44
330
2
100
AcDbSymbolTableRecord
100
AcDbLayerTableRecord
  2
LAYER_0
 70
     0
 62
     7
  6
Continuous
370
    -3
390
F
  0
ENDTAB
  0
TABLE
  2
STYLE
  5
3
330
0
100
AcDbSymbolTable
 70
     1
  0
STYLE
  5
11
330
3
100
AcDbSymbolTableRecord
100
AcDbTextStyleTableRecord
  2
Standard
 70
     0
 40
0.0
 41
1.0
 50
0.0
 71
     0
 42
2.5
  3
txt
  4

  0
ENDTAB
  0
TABLE
  2
VIEW
  5
6
330
0
100
AcDbSymbolTable
 70
     0
  0
ENDTAB
  0
TABLE
  2
UCS
  5
7
330
0
100
AcDbSymbolTable
 70
     0
  0
ENDTAB
  0
TABLE
  2
APPID
  5
9
330
0
100
AcDbSymbolTable
 70
     1
  0
APPID
  5
12
330
9
100
AcDbSymbolTableRecord
100
AcDbRegAppTableRecord
  2
ACAD
 70
     0
  0
ENDTAB
  0
TABLE
  2
DIMSTYLE
  5
A
330
0
100
AcDbSymbolTable
 70
     1
100
AcDbDimStyleTable
  0
DIMSTYLE
105
27
330
A
100
AcDbSymbolTableRecord
100
AcDbDimStyleTableRecord
  2
ISO-25
 70
     0
 41
2.5
 42
0.625
 43
3.75
 44
1.25
 73
     0
 74
     0
 77
     1
 78
     8
140
2.5
141
2.5
143
0.03937007874
147
0.625
171
     3
172
     1
178
     0
271
     2
272
     2
274
     3
278
    44
283
     0
284
     8
340
11
  0
ENDTAB
  0
TABLE
  2
BLOCK_RECORD
  5
1
330
0
100
AcDbSymbolTable
 70
     1
  0
BLOCK_RECORD
  5
1F
330
1
100
AcDbSymbolTableRecord
100
AcDbBlockTableRecord
  2
*Model_Space
340
22
  0
BLOCK_RECORD
  5
1B
330
1
100
AcDbSymbolTableRecord
100
AcDbBlockTableRecord
  2
*Paper_Space
340
1E
  0
BLOCK_RECORD
  5
23
330
1
100
AcDbSymbolTableRecord
100
AcDbBlockTableRecord
  2
*Paper_Space0
340
26
  0
ENDTAB
  0
ENDSEC
  0
SECTION
  2
BLOCKS
  0
BLOCK
  5
20
330
1F
100
AcDbEntity
  8
0
100
AcDbBlockBegin
  2
*Model_Space
 70
     0
 10
0.0
 20
0.0
 30
0.0
  3
*Model_Space
  1

  0
ENDBLK
  5
21
330
1F
100
AcDbEntity
  8
0
100
AcDbBlockEnd
  0
BLOCK
  5
1C
330
1B
100
AcDbEntity
 67
     1
  8
0
100
AcDbBlockBegin
  2
*Paper_Space
 70
     0
 10
0.0
 20
0.0
 30
0.0
  3
*Paper_Space
  1

  0
ENDBLK
  5
1D
330
1B
100
AcDbEntity
 67
     1
  8
0
100
AcDbBlockEnd
  0
BLOCK
  5
24
330
23
100
AcDbEntity
  8
0
100
AcDbBlockBegin
  2
*Paper_Space0
 70
     0
 10
0.0
 20
0.0
 30
0.0
  3
*Paper_Space0
  1

  0
ENDBLK
  5
25
330
23
100
AcDbEntity
  8
0
100
AcDbBlockEnd
  0
ENDSEC
  0
SECTION
  2
ENTITIES
  0
ARC
  5
45
330
1F
100
AcDbEntity
  8
LAYER_0
  6
Continuous
 62
     4
100
AcDbCircle
 10
3305.829706943876
 20
-1192.191562018925
 30
0.0
 40
50.10000000000003
100
AcDbArc
 50
317.258174924264
 51
323.541825075736
  0
LINE
  5
46
330
1F
100
AcDbEntity
  8
LAYER_0
  6
Continuous
 62
     4
100
AcDbLine
 10
3346.124678943657
 20
-1221.962776833521
 30
0.0
 11
3351.47972895863
 21
-1222.868515747293
 31
0.0
  0
ARC
  5
47
330
1F
100
AcDbEntity
  8
LAYER_0
  6
Continuous
 62
     4
100
AcDbCircle
 10
3305.829706943876
 20
-1192.191562018925
 30
0.0
 40
55.00000000000016
100
AcDbArc
 50
326.09877912038
 51
329.10122087962
  0
LINE
  5
48
330
1F
100
AcDbEntity
  8
LAYER_0
  6
Continuous
 62
     4
100
AcDbLine
 10
3353.023878597924
 20
-1220.435325257705
 30
0.0
 11
3349.924272124601
 21
-1215.975576009897
 31
0.0
  0
ARC
  5
49
330
1F
100
AcDbEntity
  8
LAYER_0
  6
Continuous
 62
     4
100
AcDbCircle
 10
3305.829706943876
 20
-1192.191562018925
 30
0.0
 40
50.10000000000003
100
AcDbArc
 50
331.658174924264
 51
337.941825075736
  0
LINE
  5
4A
330
1F
100
AcDbEntity
  8
LAYER_0
  6
Continuous
 62
     4
100
AcDbLine
 10
3352.262538354017
 20
-1211.00650733475
 30
0.0
 11
3357.674597733788
 21
-1210.552044011022
 31
0.0
  0
ARC
  5
4B
330
1F
100
AcDbEntity
  8
LAYER_0
  6
Continuous
 62
     4
100
AcDbCircle
 10
3305.829706943876
 20
-1192.191562018925
 30
0.0
 40
55.00000000000016
100
AcDbArc
 50
340.498779120379
 51
343.501220879621
  0
LINE
  5
4C
330
1F
100
AcDbEntity
  8
LAYER_0
  6
Continuous
 62
     4
100
AcDbLine
 10
3358.565125204364
 20
-1207.811282275427
 30
0.0
 11
3354.453804030958
 21
-1204.26248503525
 31
0.0
  0
ARC
  5
4D
330
1F
100
AcDbEntity
  8
LAYER_0
  6
Continuous
 62
     4
100
AcDbCircle
 10
3305.829706943876
 20
-1192.191562018925
 30
0.0
 40
50.10000000000003
100
AcDbArc
 50
346.058174924264
 51
352.341825075736
  0
LINE
  5
4E
330
1F
100
AcDbEntity
  8
LAYER_0
  6
Continuous
 62
     4
100
AcDbLine
 10
3355.482852198867
 20
-1198.868025625256
 30
0.0
 11
3360.611861348445
 21
-1197.081915666058
 31
0.0
  0
ARC
  5
4F
330
1F
100
AcDbEntity
  8
LAYER_0
  6
Continuous
 62
     4
100
AcDbCircle
 10
3305.829706943876
 20
-1192.191562018925
 30
0.0
 40
55.00000000000016
100
AcDbArc
 50
354.89877912038
 51
357.901220879621
  0
LINE
  5
50
330
1F
100
AcDbEntity
  8
LAYER_0
  6
Continuous
 62
     4
100
AcDbLine
 10
3360.792811534196
 20
-1194.20579482412
 30
0.0
 11
3355.928105090413
 21
-1191.790933573738
 31
0.0
  0
ARC
  5
51
330
1F
100
AcDbEntity
  8
LAYER_0
  6
Continuous
 62
     4
100
AcDbCircle
 10
3305.829706943876
 20
-1192.191562018925
 30
0.0
 40
50.10000000000003
100
AcDbArc
 50
0.458174924264
 51
6.741825075736
  0
LINE
  5
52
330
1F
100
AcDbEntity
  8
LAYER_0
  6
Continuous
 62
     4
100
AcDbLine
 10
3355.583276315854
 20
-1186.310037153061
 30
0.0
 11
3360.106960727192
 21
-1183.304508415982
 31
0.0
  0
ARC
  5
53
330
1F
100
AcDbEntity
  8
LAYER_0
  6
Continuous
 62
     4
100
AcDbCircle
 10
3305.829706943876
 20
-1192.191562018925
 30
0.0
 40
55.00000000000016
100
AcDbArc
 50
9.298779120379
 51
12.301220879621
  0
LINE
  5
54
330
1F
100
AcDbEntity
  8
LAYER_0
  6
Continuous
 62
     4
100
AcDbLine
 10
3359.566963862459
 20
-1180.473745717833
 30
0.0
 11
3354.254539545301
 21
-1179.344555070846
 31
0.0
  0
ARC
  5
55
330
1F
100
AcDbEntity
  8
LAYER_0
  6
Continuous
 62
     4
100
AcDbCircle
 10
3305.829706943876
 20
-1192.191562018925
 30
0.0
 40
50.10000000000003
100
AcDbArc
 50
14.858174924264
 51
21.141825075736
  0
LINE
  5
56
330
1F
100
AcDbEntity
  8
LAYER_0
  6
Continuous
 62
     4
100
AcDbLine
 10
3352.55750068837
 20
-1174.121606518924
 30
0.0
 11
3356.191620632957
 21
-1170.085507428076
 31
0.0
  0
ARC
  5
57
330
1F
100
AcDbEntity
  8
LAYER_0
  6
Continuous
 62
     4
100
AcDbCircle
 10
3305.829706943876
 20
-1192.191562018925
 30
0.0
 40
55.00000000000016
100
AcDbArc
 50
23.698779120379
 51
26.701220879621
  0
LINE
  5
58
330
1F
100
AcDbEntity
  8
LAYER_0
  6
Continuous
 62
     4
100
AcDbLine
 10
3354.964606706722
 20
-1167.477970104857
 30
0.0
 11
3349.538263673765
 21
-1167.705401262487
 31
0.0
  0
ARC
  5
59
330
1F
100
AcDbEntity
  8
LAYER_0
  6
Continuous
 62
     4
100
AcDbCircle
 10
3305.829706943876
 20
-1192.191562018925
 30
0.0
 40
50.10000000000003
100
AcDbArc
 50
29.258174924264
 51
35.541825075736
  0
LINE
  5
5A
330
1F
100
AcDbEntity
  8
LAYER_0
  6
Continuous
 62
     4
100
AcDbLine
 10
3346.595645927116
 20
-1163.068577645499
 30
0.0
 11
3349.111856283475
 21
-1158.255511150495
 31
0.0
  0
ARC
  5
5B
330
1F
100
AcDbEntity
  8
LAYER_0
  6
Continuous
 62
     4
100
AcDbCircle
 10
3305.829706943876
 20
-1192.191562018925
 30
0.0
 40
55.00000000000016
100
AcDbArc
 50
38.098779120379
 51
41.101220879621
  0
LINE
  5
5C
330
1F
100
AcDbEntity
  8
LAYER_0
  6
Continuous
 62
     4
100
AcDbLine
 10
3347.274923093365
 20
-1156.035040362076
 30
0.0
 11
3342.075618434063
 21
-1157.604802988256
 31
0.0
  0
ARC
  5
5D
330
1F
100
AcDbEntity
  8
LAYER_0
  6
Continuous
 62
     4
100
AcDbCircle
 10
3305.829706943876
 20
-1192.191562018925
 30
0.0
 40
50.10000000000003
100
AcDbArc
 50
43.658174924264
 51
49.941825075736
  0
LINE
  5
5E
330
1F
100
AcDbEntity
  8
LAYER_0
  6
Continuous
 62
     4
100
AcDbLine
 10
3338.072317292909
 20
-1153.845452987101
 30
0.0
 11
3339.312515310376
 21
-1148.557841757041
 31
0.0
  0
ARC
  5
5F
330
1F
100
AcDbEntity
  8
LAYER_0
  6
Continuous
 62
     4
100
AcDbCircle
 10
3305.829706943876
 20
-1192.191562018925
 30
0.0
 40
55.00000000000016
100
AcDbArc
 50
52.498779120379
 51
55.501220879621
  0
LINE
  5
60
330
1F
100
AcDbEntity
  8
LAYER_0
  6
Continuous
 62
     4
100
AcDbLine
 10
3336.981084124492
 20
-1146.863957849379
 30
0.0
 11
3332.335509272295
 21
-1149.677417985123
 31
0.0
  0
ARC
  5
61
330
1F
100
AcDbEntity
  8
LAYER_0
  6
Continuous
 62
     4
100
AcDbCircle
 10
3305.829706943876
 20
-1192.191562018925
 30
0.0
 40
50.10000000000003
100
AcDbArc
 50
58.058174924264
 51
64.341825075736
  0
LINE
  5
62
330
1F
100
AcDbEntity
  8
LAYER_0
  6
Continuous
 62
     4
100
AcDbLine
 10
3327.523066870445
 20
-1147.031755386297
 30
0.0
 11
3327.409326346454
 21
-1141.60183948124
 31
0.0
  0
ARC
  5
63
330
1F
100
AcDbEntity
  8
LAYER_0
  6
Continuous
 62
     4
100
AcDbCircle
 10
3305.829706943876
 20
-1192.191562018925
 30
0.0
 40
55.00000000000016
100
AcDbArc
 50
66.89877912038
 51
69.90122087962
  0
LINE
  5
64
330
1F
100
AcDbEntity
  8
LAYER_0
  6
Continuous
 62
     4
100
AcDbLine
 10
3324.72988956061
 20
-1140.540975409921
 30
0.0
 11
3320.929943068711
 21
-1144.421353007719
 31
0.0
  0
ARC
  5
65
330
1F
100
AcDbEntity
  8
LAYER_0
  6
Continuous
 62
     4
100
AcDbCircle
 10
3305.829706943876
 20
-1192.191562018925
 30
0.0
 40
50.10000000000003
100
AcDbArc
 50
72.458174924264
 51
78.741825075736
  0
LINE
  5
66
330
1F
100
AcDbEntity
  8
LAYER_0
  6
Continuous
 62
     4
100
AcDbLine
 10
3315.610742861199
 20
-1143.055614522371
 30
0.0
 11
3314.15021053118
 21
-1137.824575528466
 31
0.0
  0
ARC
  5
67
330
1F
100
AcDbEntity
  8
LAYER_0
  6
Continuous
 62
     4
100
AcDbCircle
 10
3305.829706943876
 20
-1192.191562018925
 30
0.0
 40
55.00000000000016
100
AcDbArc
 50
81.298779120379
 51
84.30122087962
  0
LINE
  5
68
330
1F
100
AcDbEntity
  8
LAYER_0
  6
Continuous
 62
     4
100
AcDbLine
 10
3311.291127012909
 20
-1137.463389284678
 30
0.0
 11
3308.575573494619
 21
-1142.166865949028
 31
0.0
  0
ARC
  5
69
330
1F
100
AcDbEntity
  8
LAYER_0
  6
Continuous
 62
     4
100
AcDbCircle
 10
3305.829706943876
 20
-1192.191562018925
 30
0.0
 40
50.10000000000003
100
AcDbArc
 50
86.858174924264
 51
93.141825075736
  0
LINE
  5
6A
330
1F
100
AcDbEntity
  8
LAYER_0
  6
Continuous
 62
     4
100
AcDbLine
 10
3303.083840393133
 20
-1142.166865949028
 30
0.0
 11
3300.368286874843
 21
-1137.463389284678
 31
0.0
  0
ARC
  5
6B
330
1F
100
AcDbEntity
  8
LAYER_0
  6
Continuous
 62
     4
100
AcDbCircle
 10
3305.829706943876
 20
-1192.191562018925
 30
0.0
 40
55.00000000000016
100
AcDbArc
 50
95.69877912038
 51
98.701220879621
  0
LINE
  5
6C
330
1F
100
AcDbEntity
  8
LAYER_0
  6
Continuous
 62
     4
100
AcDbLine
 10
3297.509203356572
 20
-1137.824575528466
 30
0.0
 11
3296.048671026553
 21
-1143.055614522371
 31
0.0
  0
ARC
  5
6D
330
1F
100
AcDbEntity
  8
LAYER_0
  6
Continuous
 62
     4
100
AcDbCircle
 10
3305.829706943876
 20
-1192.191562018925
 30
0.0
 40
50.10000000000003
100
AcDbArc
 50
101.258174924264
 51
107.541825075736
  0
LINE
  5
6E
330
1F
100
AcDbEntity
  8
LAYER_0
  6
Continuous
 62
     4
100
AcDbLine
 10
3290.729470819042
 20
-1144.421353007719
 30
0.0
 11
3286.929524327142
 21
-1140.540975409921
 31
0.0
  0
ARC
  5
6F
330
1F
100
AcDbEntity
  8
LAYER_0
  6
Continuous
 62
     4
100
AcDbCircle
 10
3305.829706943876
 20
-1192.191562018925
 30
0.0
 40
55.00000000000016
100
AcDbArc
 50
110.09877912038
 51
113.10122087962
  0
LINE
  5
70
330
1F
100
AcDbEntity
  8
LAYER_0
  6
Continuous
 62
     4
100
AcDbLine
 10
3284.250087541298
 20
-1141.60183948124
 30
0.0
 11
3284.136347017306
 21
-1147.031755386297
 31
0.0
  0
ARC
  5
71
330
1F
100
AcDbEntity
  8
LAYER_0
  6
Continuous
 62
     4
100
AcDbCircle
 10
3305.829706943876
 20
-1192.191562018925
 30
0.0
 40
50.10000000000003
100
AcDbArc
 50
115.658174924264
 51
121.941825075736
  0
LINE
  5
72
330
1F
100
AcDbEntity
  8
LAYER_0
  6
Continuous
 62
     4
100
AcDbLine
 10
3279.323904615457
 20
-1149.677417985123
 30
0.0
 11
3274.678329763261
 21
-1146.863957849379
 31
0.0
  0
ARC
  5
73
330
1F
100
AcDbEntity
  8
LAYER_0
  6
Continuous
 62
     4
100
AcDbCircle
 10
3305.829706943876
 20
-1192.191562018925
 30
0.0
 40
55.00000000000016
100
AcDbArc
 50
124.498779120379
 51
127.501220879621
  0
LINE
  5
74
330
1F
100
AcDbEntity
  8
LAYER_0
  6
Continuous
 62
     4
100
AcDbLine
 10
3272.346898577376
 20
-1148.557841757041
 30
0.0
 11
3273.587096594844
 21
-1153.845452987101
 31
0.0
  0
ARC
  5
75
330
1F
100
AcDbEntity
  8
LAYER_0
  6
Continuous
 62
     4
100
AcDbCircle
 10
3305.829706943876
 20
-1192.191562018925
 30
0.0
 40
50.10000000000003
100
AcDbArc
 50
130.058174924264
 51
136.341825075736
  0
LINE
  5
76
330
1F
100
AcDbEntity
  8
LAYER_0
  6
Continuous
 62
     4
100
AcDbLine
 10
3269.583795453689
 20
-1157.604802988256
 30
0.0
 11
3264.384490794388
 21
-1156.035040362076
 31
0.0
  0
ARC
  5
77
330
1F
100
AcDbEntity
  8
LAYER_0
  6
Continuous
 62
     4
100
AcDbCircle
 10
3305.829706943876
 20
-1192.191562018925
 30
0.0
 40
55.00000000000016
100
AcDbArc
 50
138.898779120379
 51
141.901220879621
  0
LINE
  5
78
330
1F
100
AcDbEntity
  8
LAYER_0
  6
Continuous
 62
     4
100
AcDbLine
 10
3262.547557604277
 20
-1158.255511150495
 30
0.0
 11
3265.063767960636
 21
-1163.068577645499
 31
0.0
  0
ARC
  5
79
330
1F
100
AcDbEntity
  8
LAYER_0
  6
Continuous
 62
     4
100
AcDbCircle
 10
3305.829706943876
 20
-1192.191562018925
 30
0.0
 40
50.10000000000003
100
AcDbArc
 50
144.458174924264
 51
150.741825075736
  0
LINE
  5
7A
330
1F
100
AcDbEntity
  8
LAYER_0
  6
Continuous
 62
     4
100
AcDbLine
 10
3262.121150213987
 20
-1167.705401262487
 30
0.0
 11
3256.694807181029
 21
-1167.477970104857
 31
0.0
  0
ARC
  5
7B
330
1F
100
AcDbEntity
  8
LAYER_0
  6
Continuous
 62
     4
100
AcDbCircle
 10
3305.829706943876
 20
-1192.191562018925
 30
0.0
 40
55.00000000000016
100
AcDbArc
 50
153.298779120379
 51
156.30122087962
  0
LINE
  5
7C
330
1F
100
AcDbEntity
  8
LAYER_0
  6
Continuous
 62
     4
100
AcDbLine
 10
3255.467793254795
 20
-1170.085507428076
 30
0.0
 11
3259.101913199382
 21
-1174.121606518924
 31
0.0
  0
ARC
  5
7D
330
1F
100
AcDbEntity
  8
LAYER_0
  6
Continuous
 62
     4
100
AcDbCircle
 10
3305.829706943876
 20
-1192.191562018925
 30
0.0
 40
50.10000000000003
100
AcDbArc
 50
158.858174924264
 51
165.141825075736
  0
LINE
  5
7E
330
1F
100
AcDbEntity
  8
LAYER_0
  6
Continuous
 62
     4
100
AcDbLine
 10
3257.404874342451
 20
-1179.344555070846
 30
0.0
 11
3252.092450025292
 21
-1180.473745717833
 31
0.0
  0
ARC
  5
7F
330
1F
100
AcDbEntity
  8
LAYER_0
  6
Continuous
 62
     4
100
AcDbCircle
 10
3305.829706943876
 20
-1192.191562018925
 30
0.0
 40
55.00000000000016
100
AcDbArc
 50
167.698779120379
 51
170.70122087962
  0
LINE
  5
80
330
1F
100
AcDbEntity
  8
LAYER_0
  6
Continuous
 62
     4
100
AcDbLine
 10
3251.55245316056
 20
-1183.304508415982
 30
0.0
 11
3256.076137571898
 21
-1186.310037153061
 31
0.0
  0
ARC
  5
81
330
1F
100
AcDbEntity
  8
LAYER_0
  6
Continuous
 62
     4
100
AcDbCircle
 10
3305.829706943876
 20
-1192.191562018925
 30
0.0
 40
50.10000000000003
100
AcDbArc
 50
173.258174924264
 51
179.541825075736
  0
LINE
  5
82
330
1F
100
AcDbEntity
  8
LAYER_0
  6
Continuous
 62
     4
100
AcDbLine
 10
3255.731308797339
 20
-1191.790933573738
 30
0.0
 11
3250.866602353556
 21
-1194.20579482412
 31
0.0
  0
ARC
  5
83
330
1F
100
AcDbEntity
  8
LAYER_0
  6
Continuous
 62
     4
100
AcDbCircle
 10
3305.829706943876
 20
-1192.191562018925
 30
0.0
 40
55.00000000000016
100
AcDbArc
 50
182.098779120379
 51
185.10122087962
  0
LINE
  5
84
330
1F
100
AcDbEntity
  8
LAYER_0
  6
Continuous
 62
     4
100
AcDbLine
 10
3251.047552539307
 20
-1197.081915666058
 30
0.0
 11
3256.176561688884
 21
-1198.868025625256
 31
0.0
  0
ARC
  5
85
330
1F
100
AcDbEntity
  8
LAYER_0
  6
Continuous
 62
     4
100
AcDbCircle
 10
3305.829706943876
 20
-1192.191562018925
 30
0.0
 40
50.10000000000003
100
AcDbArc
 50
187.658174924264
 51
193.941825075736
  0
LINE
  5
86
330
1F
100
AcDbEntity
  8
LAYER_0
  6
Continuous
 62
     4
100
AcDbLine
 10
3257.205609856794
 20
-1204.26248503525
 30
0.0
 11
3253.094288683388
 21
-1207.811282275427
 31
0.0
  0
ARC
  5
87
330
1F
100
AcDbEntity
  8
LAYER_0
  6
Continuous
 62
     4
100
AcDbCircle
 10
3305.829706943876
 20
-1192.191562018925
 30
0.0
 40
55.00000000000016
100
AcDbArc
 50
196.498779120379
 51
199.501220879621
  0
LINE
  5
88
330
1F
100
AcDbEntity
  8
LAYER_0
  6
Continuous
 62
     4
100
AcDbLine
 10
3253.984816153964
 20
-1210.552044011022
 30
0.0
 11
3259.396875533736
 21
-1211.006507334749
 31
0.0
  0
ARC
  5
89
330
1F
100
AcDbEntity
  8
LAYER_0
  6
Continuous
 62
     4
100
AcDbCircle
 10
3305.829706943876
 20
-1192.191562018925
 30
0.0
 40
50.10000000000003
100
AcDbArc
 50
202.058174924264
 51
208.341825075736
  0
LINE
  5
8A
330
1F
100
AcDbEntity
  8
LAYER_0
  6
Continuous
 62
     4
100
AcDbLine
 10
3261.73514176315
 20
-1215.975576009897
 30
0.0
 11
3258.635535289828
 21
-1220.435325257705
 31
0.0
  0
ARC
  5
8B
330
1F
100
AcDbEntity
  8
LAYER_0
  6
Continuous
 62
     4
100
AcDbCircle
 10
3305.829706943876
 20
-1192.191562018925
 30
0.0
 40
55.00000000000016
100
AcDbArc
 50
210.898779120379
 51
213.90122087962
  0
LINE
  5
8C
330
1F
100
AcDbEntity
  8
LAYER_0
  6
Continuous
 62
     4
100
AcDbLine
 10
3260.179684929121
 20
-1222.868515747293
 30
0.0
 11
3265.534734944095
 21
-1221.962776833521
 31
0.0
  0
ARC
  5
8D
330
1F
100
AcDbEntity
  8
LAYER_0
  6
Continuous
 62
     4
100
AcDbCircle
 10
3305.829706943876
 20
-1192.191562018925
 30
0.0
 40
50.10000000000003
100
AcDbArc
 50
216.458174924264
 51
222.741825075736
  0
ARC
  5
8E
330
1F
100
AcDbEntity
  8
LAYER_0
  6
Continuous
 62
     4
100
AcDbCircle
 10
3394.301420369488
 20
-1178.691562018925
 30
0.0
 40
9.999999999999787
100
AcDbArc
 50
90.0
 51
108.000000000001
  0
LINE
  5
8F
330
1F
100
AcDbEntity
  8
LAYER_0
  6
Continuous
 62
     4
100
AcDbLine
 10
3373.299144180199
 20
-1175.000992976165
 30
0.0
 11
3391.211250425739
 21
-1169.180996855973
 31
0.0
  0
ARC
  5
90
330
1F
100
AcDbEntity
  8
LAYER_0
  6
Continuous
 62
     4
100
AcDbCircle
 10
3305.829706943876
 20
-1192.191562018925
 30
0.0
 40
69.62499999999983
100
AcDbArc
 50
345.705721391607
 51
14.294278608393
  0
LINE
  5
91
330
1F
100
AcDbEntity
  8
LAYER_0
  6
Continuous
 62
     4
100
AcDbLine
 10
3373.299144180199
 20
-1209.382131061683
 30
0.0
 11
3391.21125042574
 21
-1215.202127181876
 31
0.0
  0
ARC
  5
92
330
1F
100
AcDbEntity
  8
LAYER_0
  6
Continuous
 62
     4
100
AcDbCircle
 10
3394.301420369489
 20
-1205.691562018925
 30
0.0
 40
9.999999999999787
100
AcDbArc
 50
252.000000000002
 51
270.0
  0
LINE
  5
93
330
1F
100
AcDbEntity
  8
LAYER_0
  6
Continuous
 62
     4
100
AcDbLine
 10
3473.804131328966
 20
-1215.691562018925
 30
0.0
 11
3394.301420369489
 21
-1215.691562018925
 31
0.0
  0
ARC
  5
94
330
1F
100
AcDbEntity
  8
LAYER_0
  6
Continuous
 62
     4
100
AcDbCircle
 10
3473.804131328966
 20
-1205.691562018925
 30
0.0
 40
9.999999999999787
100
AcDbArc
 50
270.0
 51
342.933690354146
  0
ARC
  5
95
330
1F
100
AcDbEntity
  8
LAYER_0
  6
Continuous
 62
     4
100
AcDbCircle
 10
3429.829706943876
 20
-1192.191562018925
 30
0.0
 40
56.00000000000005
100
AcDbArc
 50
342.933690354146
 51
17.066309645854
  0
ARC
  5
96
330
1F
100
AcDbEntity
  8
LAYER_0
  6
Continuous
 62
     4
100
AcDbCircle
 10
3473.804131328966
 20
-1178.691562018925
 30
0.0
 40
9.999999999999787
100
AcDbArc
 50
17.066309645854
 51
90.0
  0
LINE
  5
97
330
1F
100
AcDbEntity
  8
LAYER_0
  6
Continuous
 62
     4
100
AcDbLine
 10
3473.804131328966
 20
-1168.691562018925
 30
0.0
 11
3394.301420369488
 21
-1168.691562018925
 31
0.0
  0
ARC
  5
98
330
1F
100
AcDbEntity
  8
LAYER_0
  6
Continuous
 62
     4
100
AcDbCircle
 10
3305.829706943876
 20
-1192.191562018925
 30
0.0
 40
69.62499999999983
100
AcDbArc
 50
309.705721391607
 51
338.294278608393
  0
ARC
  5
99
330
1F
100
AcDbEntity
  8
LAYER_0
  6
Continuous
 62
     4
100
AcDbCircle
 10
3305.829706943876
 20
-1192.191562018925
 30
0.0
 40
69.62499999999983
100
AcDbArc
 50
201.705721391607
 51
230.294278608393
  0
LINE
  5
9A
330
1F
100
AcDbEntity
  8
LAYER_0
  6
Continuous
 62
     4
100
AcDbLine
 10
3241.141422656927
 20
-1217.94163970834
 30
0.0
 11
3237.329660238883
 21
-1219.180156395323
 31
0.0
  0
ARC
  5
9B
330
1F
100
AcDbEntity
  8
LAYER_0
  6
Continuous
 62
     4
100
AcDbCircle
 10
3305.829706943876
 20
-1192.191562018925
 30
0.0
 40
73.62499999999983
100
AcDbArc
 50
194.495866770096
 51
201.504133229904
  0
LINE
  5
9C
330
1F
100
AcDbEntity
  8
LAYER_0
  6
Continuous
 62
     4
100
AcDbLine
 10
3238.360269707553
 20
-1209.382131061683
 30
0.0
 11
3234.548507289509
 21
-1210.620647748666
 31
0.0
  0
ARC
  5
9D
330
1F
100
AcDbEntity
  8
LAYER_0
  6
Continuous
 62
     4
100
AcDbCircle
 10
3305.829706943876
 20
-1192.191562018925
 30
0.0
 40
69.62499999999983
100
AcDbArc
 50
165.705721391607
 51
194.294278608393
  0
LINE
  5
9E
330
1F
100
AcDbEntity
  8
LAYER_0
  6
Continuous
 62
     4
100
AcDbLine
 10
3238.360269707553
 20
-1175.000992976165
 30
0.0
 11
3234.548507289509
 21
-1173.762476289183
 31
0.0
  0
ARC
  5
9F
330
1F
100
AcDbEntity
  8
LAYER_0
  6
Continuous
 62
     4
100
AcDbCircle
 10
3305.829706943876
 20
-1192.191562018925
 30
0.0
 40
73.62499999999983
100
AcDbArc
 50
158.495866770096
 51
165.504133229904
  0
LINE
  5
A0
330
1F
100
AcDbEntity
  8
LAYER_0
  6
Continuous
 62
     4
100
AcDbLine
 10
3241.141422656927
 20
-1166.441484329509
 30
0.0
 11
3237.329660238883
 21
-1165.202967642526
 31
0.0
  0
ARC
  5
A1
330
1F
100
AcDbEntity
  8
LAYER_0
  6
Continuous
 62
     4
100
AcDbCircle
 10
3305.829706943876
 20
-1192.191562018925
 30
0.0
 40
69.62499999999983
100
AcDbArc
 50
129.705721391607
 51
158.294278608393
  0
LINE
  5
A2
330
1F
100
AcDbEntity
  8
LAYER_0
  6
Continuous
 62
     4
100
AcDbLine
 10
3261.350148580626
 20
-1138.626559332373
 30
0.0
 11
3258.994349849235
 21
-1135.384080550218
 31
0.0
  0
ARC
  5
A3
330
1F
100
AcDbEntity
  8
LAYER_0
  6
Continuous
 62
     4
100
AcDbCircle
 10
3305.829706943876
 20
-1192.191562018925
 30
0.0
 40
73.62499999999983
100
AcDbArc
 50
122.495866770096
 51
129.504133229904
  0
LINE
  5
A4
330
1F
100
AcDbEntity
  8
LAYER_0
  6
Continuous
 62
     4
100
AcDbLine
 10
3268.631301530001
 20
-1133.336492061741
 30
0.0
 11
3266.27550279861
 21
-1130.094013279586
 31
0.0
  0
ARC
  5
A5
330
1F
100
AcDbEntity
  8
LAYER_0
  6
Continuous
 62
     4
100
AcDbCircle
 10
3305.829706943876
 20
-1192.191562018925
 30
0.0
 40
69.62499999999983
100
AcDbArc
 50
93.705721391607
 51
122.294278608393
  0
LINE
  5
A6
330
1F
100
AcDbEntity
  8
LAYER_0
  6
Continuous
 62
     4
100
AcDbLine
 10
3301.329706943876
 20
-1122.712136107364
 30
0.0
 11
3301.329706943876
 21
-1118.704211917019
 31
0.0
  0
ARC
  5
A7
330
1F
100
AcDbEntity
  8
LAYER_0
  6
Continuous
 62
     4
100
AcDbCircle
 10
3305.829706943876
 20
-1192.191562018925
 30
0.0
 40
73.62499999999983
100
AcDbArc
 50
86.495866770096
 51
93.504133229904
  0
LINE
  5
A8
330
1F
100
AcDbEntity
  8
LAYER_0
  6
Continuous
 62
     4
100
AcDbLine
 10
3310.329706943876
 20
-1122.712136107364
 30
0.0
 11
3310.329706943876
 21
-1118.704211917019
 31
0.0
  0
ARC
  5
A9
330
1F
100
AcDbEntity
  8
LAYER_0
  6
Continuous
 62
     4
100
AcDbCircle
 10
3305.829706943876
 20
-1192.191562018925
 30
0.0
 40
69.62499999999983
100
AcDbArc
 50
57.705721391607
 51
86.294278608393
  0
LINE
  5
AA
330
1F
100
AcDbEntity
  8
LAYER_0
  6
Continuous
 62
     4
100
AcDbLine
 10
3343.028112357752
 20
-1133.336492061741
 30
0.0
 11
3345.383911089142
 21
-1130.094013279585
 31
0.0
  0
ARC
  5
AB
330
1F
100
AcDbEntity
  8
LAYER_0
  6
Continuous
 62
     4
100
AcDbCircle
 10
3305.829706943876
 20
-1192.191562018925
 30
0.0
 40
73.62499999999983
100
AcDbArc
 50
50.495866770097
 51
57.504133229904
  0
LINE
  5
AC
330
1F
100
AcDbEntity
  8
LAYER_0
  6
Continuous
 62
     4
100
AcDbLine
 10
3350.309265307126
 20
-1138.626559332373
 30
0.0
 11
3352.665064038516
 21
-1135.384080550218
 31
0.0
  0
ARC
  5
AD
330
1F
100
AcDbEntity
  8
LAYER_0
  6
Continuous
 62
     4
100
AcDbCircle
 10
3305.829706943876
 20
-1192.191562018925
 30
0.0
 40
69.62499999999983
100
AcDbArc
 50
21.705721391607
 51
50.294278608393
  0
LINE
  5
AE
330
1F
100
AcDbEntity
  8
LAYER_0
  6
Continuous
 62
     4
100
AcDbLine
 10
3370.517991230824
 20
-1166.441484329509
 30
0.0
 11
3388.430097476364
 21
-1160.621488209317
 31
0.0
  0
ARC
  5
AF
330
1F
100
AcDbEntity
  8
LAYER_0
  6
Continuous
 62
     4
100
AcDbCircle
 10
3394.301420369488
 20
-1178.691562018925
 30
0.0
 40
19.00000000000013
100
AcDbArc
 50
90.0
 51
108.000000000001
  0
LINE
  5
B0
330
1F
100
AcDbEntity
  8
LAYER_0
  6
Continuous
 62
     4
100
AcDbLine
 10
3474.621515938829
 20
-1159.691562018925
 30
0.0
 11
3394.301420369488
 21
-1159.691562018925
 31
0.0
  0
ARC
  5
B1
330
1F
100
AcDbEntity
  8
LAYER_0
  6
Continuous
 62
     4
100
AcDbCircle
 10
3474.621515938829
 20
-1178.691562018925
 30
0.0
 40
19.00000000000013
100
AcDbArc
 50
15.46600995342
 51
90.0
  0
ARC
  5
B2
330
1F
100
AcDbEntity
  8
LAYER_0
  6
Continuous
 62
     4
100
AcDbCircle
 10
3425.829706943876
 20
-1192.191562018925
 30
0.0
 40
69.62500000000027
100
AcDbArc
 50
344.533990046579
 51
15.466009953421
  0
ARC
  5
B3
330
1F
100
AcDbEntity
  8
LAYER_0
  6
Continuous
 62
     4
100
AcDbCircle
 10
3474.621515938829
 20
-1205.691562018925
 30
0.0
 40
19.00000000000013
100
AcDbArc
 50
270.0
 51
344.53399004658
  0
LINE
  5
B4
330
1F
100
AcDbEntity
  8
LAYER_0
  6
Continuous
 62
     4
100
AcDbLine
 10
3474.621515938829
 20
-1224.691562018925
 30
0.0
 11
3394.301420369489
 21
-1224.691562018925
 31
0.0
  0
ARC
  5
B5
330
1F
100
AcDbEntity
  8
LAYER_0
  6
Continuous
 62
     4
100
AcDbCircle
 10
3394.301420369489
 20
-1205.691562018925
 30
0.0
 40
19.00000000000013
100
AcDbArc
 50
252.000000000001
 51
270.0
  0
LINE
  5
B6
330
1F
100
AcDbEntity
  8
LAYER_0
  6
Continuous
 62
     4
100
AcDbLine
 10
3370.517991230824
 20
-1217.94163970834
 30
0.0
 11
3388.430097476365
 21
-1223.761635828532
 31
0.0
  0
LINE
  5
B7
330
1F
100
AcDbEntity
  8
LAYER_0
  6
Continuous
 62
     4
100
AcDbLine
 10
3344.517248618437
 20
-1231.284708722395
 30
0.0
 11
3342.624116519473
 21
-1226.194229914006
 31
0.0
  0
ARC
  5
B8
330
1F
100
AcDbEntity
  8
LAYER_0
  6
Continuous
 62
     4
100
AcDbCircle
 10
3305.829706943876
 20
-1192.191562018925
 30
0.0
 40
55.00000000000016
100
AcDbArc
 50
311.698779120379
 51
314.70122087962
  0
LINE
  5
B9
330
1F
100
AcDbEntity
  8
LAYER_0
  6
Continuous
 62
     4
100
AcDbLine
 10
3337.454938248011
 20
-1231.048411414622
 30
0.0
 11
3342.416501411249
 21
-1233.257441658866
 31
0.0
  0
ARC
  5
BA
330
1F
100
AcDbEntity
  8
LAYER_0
  6
Continuous
 62
     4
100
AcDbCircle
 10
3305.829706943876
 20
-1192.191562018925
 30
0.0
 40
50.10000000000003
100
AcDbArc
 50
302.858174924264
 51
309.141825075736
  0
LINE
  5
BB
330
1F
100
AcDbEntity
  8
LAYER_0
  6
Continuous
 62
     4
100
AcDbLine
 10
3333.579738112714
 20
-1239.677726005169
 30
0.0
 11
3333.012032840338
 21
-1234.276371141202
 31
0.0
  0
ARC
  5
BC
330
1F
100
AcDbEntity
  8
LAYER_0
  6
Continuous
 62
     4
100
AcDbCircle
 10
3305.829706943876
 20
-1192.191562018925
 30
0.0
 40
55.00000000000016
100
AcDbArc
 50
297.298779120379
 51
300.30122087962
  0
LINE
  5
BD
330
1F
100
AcDbEntity
  8
LAYER_0
  6
Continuous
 62
     4
100
AcDbLine
 10
3326.798067960061
 20
-1237.692527242697
 30
0.0
 11
3331.054391010665
 21
-1241.066047322922
 31
0.0
  0
ARC
  5
BE
330
1F
100
AcDbEntity
  8
LAYER_0
  6
Continuous
 62
     4
100
AcDbCircle
 10
3305.829706943876
 20
-1192.191562018925
 30
0.0
 40
50.10000000000003
100
AcDbArc
 50
288.458174924264
 51
294.741825075736
  0
LINE
  5
BF
330
1F
100
AcDbEntity
  8
LAYER_0
  6
Continuous
 62
     4
100
AcDbLine
 10
3320.898591091176
 20
-1245.087012962794
 30
0.0
 11
3321.691983655526
 21
-1239.714169034145
 31
0.0
  0
ARC
  5
C0
330
1F
100
AcDbEntity
  8
LAYER_0
  6
Continuous
 62
     4
100
AcDbCircle
 10
3305.829706943876
 20
-1192.191562018925
 30
0.0
 40
55.00000000000016
100
AcDbArc
 50
282.89877912038
 51
285.901220879621
  0
LINE
  5
C1
330
1F
100
AcDbEntity
  8
LAYER_0
  6
Continuous
 62
     4
100
AcDbLine
 10
3314.823678433227
 20
-1241.477650084917
 30
0.0
 11
3318.107320940266
 21
-1245.803689327544
 31
0.0
  0
ARC
  5
C2
330
1F
100
AcDbEntity
  8
LAYER_0
  6
Continuous
 62
     4
100
AcDbCircle
 10
3305.829706943876
 20
-1192.191562018925
 30
0.0
 40
50.10000000000003
100
AcDbArc
 50
274.058174924264
 51
280.341825075736
  0
LINE
  5
C3
330
1F
100
AcDbEntity
  8
LAYER_0
  6
Continuous
 62
     4
100
AcDbLine
 10
3307.270610659184
 20
-1247.172684201754
 30
0.0
 11
3309.375249287548
 21
-1242.165946752398
 31
0.0
  0
ARC
  5
C4
330
1F
100
AcDbEntity
  8
LAYER_0
  6
Continuous
 62
     4
100
AcDbCircle
 10
3305.829706943876
 20
-1192.191562018925
 30
0.0
 40
55.00000000000016
100
AcDbArc
 50
268.498779120379
 51
271.50122087962
  0
LINE
  5
C5
330
1F
100
AcDbEntity
  8
LAYER_0
  6
Continuous
 62
     4
100
AcDbLine
 10
3302.284164600204
 20
-1242.165946752398
 30
0.0
 11
3304.388803228568
 21
-1247.172684201754
 31
0.0
  0
ARC
  5
C6
330
1F
100
AcDbEntity
  8
LAYER_0
  6
Continuous
 62
     4
100
AcDbCircle
 10
3305.829706943876
 20
-1192.191562018925
 30
0.0
 40
50.10000000000003
100
AcDbArc
 50
259.658174924264
 51
265.941825075736
  0
LINE
  5
C7
330
1F
100
AcDbEntity
  8
LAYER_0
  6
Continuous
 62
     4
100
AcDbLine
 10
3293.552092947486
 20
-1245.803689327544
 30
0.0
 11
3296.835735454525
 21
-1241.477650084917
 31
0.0
  0
ARC
  5
C8
330
1F
100
AcDbEntity
  8
LAYER_0
  6
Continuous
 62
     4
100
AcDbCircle
 10
3305.829706943876
 20
-1192.191562018925
 30
0.0
 40
55.00000000000016
100
AcDbArc
 50
254.098779120379
 51
257.10122087962
  0
LINE
  5
C9
330
1F
100
AcDbEntity
  8
LAYER_0
  6
Continuous
 62
     4
100
AcDbLine
 10
3289.967430232226
 20
-1239.714169034145
 30
0.0
 11
3290.760822796576
 21
-1245.087012962794
 31
0.0
  0
ARC
  5
CA
330
1F
100
AcDbEntity
  8
LAYER_0
  6
Continuous
 62
     4
100
AcDbCircle
 10
3305.829706943876
 20
-1192.191562018925
 30
0.0
 40
50.10000000000003
100
AcDbArc
 50
245.258174924264
 51
251.541825075736
  0
LINE
  5
CB
330
1F
100
AcDbEntity
  8
LAYER_0
  6
Continuous
 62
     4
100
AcDbLine
 10
3280.605022877087
 20
-1241.066047322922
 30
0.0
 11
3284.861345927691
 21
-1237.692527242697
 31
0.0
  0
ARC
  5
CC
330
1F
100
AcDbEntity
  8
LAYER_0
  6
Continuous
 62
     4
100
AcDbCircle
 10
3305.829706943876
 20
-1192.191562018925
 30
0.0
 40
55.00000000000016
100
AcDbArc
 50
239.69877912038
 51
242.701220879621
  0
LINE
  5
CD
330
1F
100
AcDbEntity
  8
LAYER_0
  6
Continuous
 62
     4
100
AcDbLine
 10
3278.647381047414
 20
-1234.276371141202
 30
0.0
 11
3278.079675775039
 21
-1239.677726005169
 31
0.0
  0
ARC
  5
CE
330
1F
100
AcDbEntity
  8
LAYER_0
  6
Continuous
 62
     4
100
AcDbCircle
 10
3305.829706943876
 20
-1192.191562018925
 30
0.0
 40
50.10000000000003
100
AcDbArc
 50
230.858174924264
 51
237.141825075736
  0
LINE
  5
CF
330
1F
100
AcDbEntity
  8
LAYER_0
  6
Continuous
 62
     4
100
AcDbLine
 10
3269.242912476503
 20
-1233.257441658866
 30
0.0
 11
3274.204475639741
 21
-1231.048411414622
 31
0.0
  0
ARC
  5
D0
330
1F
100
AcDbEntity
  8
LAYER_0
  6
Continuous
 62
     4
100
AcDbCircle
 10
3305.829706943876
 20
-1192.191562018925
 30
0.0
 40
55.00000000000016
100
AcDbArc
 50
225.298779120379
 51
228.301220879621
  0
LINE
  5
D1
330
1F
100
AcDbEntity
  8
LAYER_0
  6
Continuous
 62
     4
100
AcDbLine
 10
3269.035297368278
 20
-1226.194229914006
 30
0.0
 11
3267.142165269314
 21
-1231.284708722394
 31
0.0
  0
LINE
  5
D2
330
1F
100
AcDbEntity
  8
LAYER_0
  6
Continuous
 62
     4
100
AcDbLine
 10
3261.350148580626
 20
-1245.756564705476
 30
0.0
 11
3258.994349849235
 21
-1248.999043487631
 31
0.0
  0
ARC
  5
D3
330
1F
100
AcDbEntity
  8
LAYER_0
  6
Continuous
 62
     4
100
AcDbCircle
 10
3305.829706943876
 20
-1192.191562018925
 30
0.0
 40
73.62499999999983
100
AcDbArc
 50
230.495866770097
 51
237.504133229904
  0
LINE
  5
D4
330
1F
100
AcDbEntity
  8
LAYER_0
  6
Continuous
 62
     4
100
AcDbLine
 10
3268.631301530001
 20
-1251.046631976108
 30
0.0
 11
3266.27550279861
 21
-1254.289110758264
 31
0.0
  0
ARC
  5
D5
330
1F
100
AcDbEntity
  8
LAYER_0
  6
Continuous
 62
     4
100
AcDbCircle
 10
3305.829706943876
 20
-1192.191562018925
 30
0.0
 40
69.62499999999983
100
AcDbArc
 50
237.705721391607
 51
266.294278608393
  0
LINE
  5
D6
330
1F
100
AcDbEntity
  8
LAYER_0
  6
Continuous
 62
     4
100
AcDbLine
 10
3301.329706943876
 20
-1261.670987930485
 30
0.0
 11
3301.329706943876
 21
-1265.67891212083
 31
0.0
  0
ARC
  5
D7
330
1F
100
AcDbEntity
  8
LAYER_0
  6
Continuous
 62
     4
100
AcDbCircle
 10
3305.829706943876
 20
-1192.191562018925
 30
0.0
 40
73.62499999999983
100
AcDbArc
 50
266.495866770096
 51
273.504133229904
  0
LINE
  5
D8
330
1F
100
AcDbEntity
  8
LAYER_0
  6
Continuous
 62
     4
100
AcDbLine
 10
3310.329706943876
 20
-1261.670987930485
 30
0.0
 11
3310.329706943876
 21
-1265.67891212083
 31
0.0
  0
ARC
  5
D9
330
1F
100
AcDbEntity
  8
LAYER_0
  6
Continuous
 62
     4
100
AcDbCircle
 10
3305.829706943876
 20
-1192.191562018925
 30
0.0
 40
69.62499999999983
100
AcDbArc
 50
273.705721391607
 51
302.294278608393
  0
LINE
  5
DA
330
1F
100
AcDbEntity
  8
LAYER_0
  6
Continuous
 62
     4
100
AcDbLine
 10
3343.028112357752
 20
-1251.046631976108
 30
0.0
 11
3345.383911089142
 21
-1254.289110758263
 31
0.0
  0
ARC
  5
DB
330
1F
100
AcDbEntity
  8
LAYER_0
  6
Continuous
 62
     4
100
AcDbCircle
 10
3305.829706943876
 20
-1192.191562018925
 30
0.0
 40
73.62499999999983
100
AcDbArc
 50
302.495866770096
 51
309.504133229904
  0
LINE
  5
DC
330
1F
100
AcDbEntity
  8
LAYER_0
  6
Continuous
 62
     4
100
AcDbLine
 10
3350.309265307126
 20
-1245.756564705476
 30
0.0
 11
3352.665064038517
 21
-1248.999043487631
 31
0.0
  0
ARC
  5
DD
330
1F
100
AcDbEntity
  8
LAYER_0
  6
Continuous
 62
     4
100
AcDbCircle
 10
3304.609708411142
 20
-1502.99970657178
 30
0.0
 40
28.90000000000015
100
AcDbArc
 50
101.974240675853
 51
106.825759324146
  0
LINE
  5
DE
330
1F
100
AcDbEntity
  8
LAYER_0
  6
Continuous
 62
     4
100
AcDbLine
 10
3294.989313810829
 20
-1473.109775027291
 30
0.0
 11
3296.244251865058
 21
-1475.336931281228
 31
0.0
  0
ARC
  5
DF
330
1F
100
AcDbEntity
  8
LAYER_0
  6
Continuous
 62
     4
100
AcDbCircle
 10
3304.609708411142
 20
-1502.99970657178
 30
0.0
 40
31.40000000000009
100
AcDbArc
 50
107.841327284972
 51
115.358672715027
  0
LINE
  5
E0
330
1F
100
AcDbEntity
  8
LAYER_0
  6
Continuous
 62
     4
100
AcDbLine
 10
3291.771391020191
 20
-1477.107862169165
 30
0.0
 11
3291.161608122999
 21
-1474.625270918537
 31
0.0
  0
ARC
  5
E1
330
1F
100
AcDbEntity
  8
LAYER_0
  6
Continuous
 62
     4
100
AcDbCircle
 10
3304.609708411142
 20
-1502.99970657178
 30
0.0
 40
28.90000000000015
100
AcDbArc
 50
116.374240675854
 51
121.225759324147
  0
LINE
  5
E2
330
1F
100
AcDbEntity
  8
LAYER_0
  6
Continuous
 62
     4
100
AcDbLine
 10
3287.858232494701
 20
-1476.441317038134
 30
0.0
 11
3289.627615599778
 21
-1478.286412679794
 31
0.0
  0
ARC
  5
E3
330
1F
100
AcDbEntity
  8
LAYER_0
  6
Continuous
 62
     4
100
AcDbCircle
 10
3304.609708411142
 20
-1502.99970657178
 30
0.0
 40
31.40000000000009
100
AcDbArc
 50
122.241327284972
 51
129.758672715028
  0
LINE
  5
E4
330
1F
100
AcDbEntity
  8
LAYER_0
  6
Continuous
 62
     4
100
AcDbLine
 10
3285.735690506066
 20
-1481.114061776187
 30
0.0
 11
3284.527669721906
 21
-1478.861112534761
 31
0.0
  0
ARC
  5
E5
330
1F
100
AcDbEntity
  8
LAYER_0
  6
Continuous
 62
     4
100
AcDbCircle
 10
3304.609708411142
 20
-1502.99970657178
 30
0.0
 40
28.90000000000015
100
AcDbArc
 50
130.774240675854
 51
135.625759324147
  0
LINE
  5
E6
330
1F
100
AcDbEntity
  8
LAYER_0
  6
Continuous
 62
     4
100
AcDbLine
 10
3281.779708018023
 20
-1481.4416203383
 30
0.0
 11
3283.952359326118
 21
-1482.788721222731
 31
0.0
  0
ARC
  5
E7
330
1F
100
AcDbEntity
  8
LAYER_0
  6
Continuous
 62
     4
100
AcDbCircle
 10
3304.609708411142
 20
-1502.99970657178
 30
0.0
 40
31.40000000000009
100
AcDbArc
 50
136.641327284972
 51
144.158672715028
  0
LINE
  5
E8
330
1F
100
AcDbEntity
  8
LAYER_0
  6
Continuous
 62
     4
100
AcDbLine
 10
3280.885913950699
 20
-1486.495416935487
 30
0.0
 11
3279.15555966823
 21
-1484.61367078987
 31
0.0
  0
ARC
  5
E9
330
1F
100
AcDbEntity
  8
LAYER_0
  6
Continuous
 62
     4
100
AcDbCircle
 10
3304.609708411142
 20
-1502.99970657178
 30
0.0
 40
28.90000000000015
100
AcDbArc
 50
145.174240675854
 51
150.025759324146
  0
LINE
  5
EA
330
1F
100
AcDbEntity
  8
LAYER_0
  6
Continuous
 62
     4
100
AcDbLine
 10
3277.135676428912
 20
-1487.79649748161
 30
0.0
 11
3279.575080267887
 21
-1488.560960305953
 31
0.0
  0
ARC
  5
EB
330
1F
100
AcDbEntity
  8
LAYER_0
  6
Continuous
 62
     4
100
AcDbCircle
 10
3304.609708411142
 20
-1502.99970657178
 30
0.0
 40
31.40000000000009
100
AcDbArc
 50
151.041327284972
 51
158.558672715028
  0
LINE
  5
EC
330
1F
100
AcDbEntity
  8
LAYER_0
  6
Continuous
 62
     4
100
AcDbLine
 10
3277.526790651295
 20
-1492.913797311166
 30
0.0
 11
3275.382827393881
 21
-1491.521491292266
 31
0.0
  0
ARC
  5
ED
330
1F
100
AcDbEntity
  8
LAYER_0
  6
Continuous
 62
     4
100
AcDbCircle
 10
3304.609708411142
 20
-1502.99970657178
 30
0.0
 40
28.90000000000015
100
AcDbArc
 50
159.574240675854
 51
164.425759324146
  0
LINE
  5
EE
330
1F
100
AcDbEntity
  8
LAYER_0
  6
Continuous
 62
     4
100
AcDbLine
 10
3274.217939311667
 20
-1495.106648165548
 30
0.0
 11
3276.770818966818
 21
-1495.240438919052
 31
0.0
  0
ARC
  5
EF
330
1F
100
AcDbEntity
  8
LAYER_0
  6
Continuous
 62
     4
100
AcDbCircle
 10
3304.609708411142
 20
-1502.99970657178
 30
0.0
 40
31.40000000000009
100
AcDbArc
 50
165.441327284972
 51
172.958672715028
  0
LINE
  5
F0
330
1F
100
AcDbEntity
  8
LAYER_0
  6
Continuous
 62
     4
100
AcDbLine
 10
3275.869386678746
 20
-1499.96591245907
 30
0.0
 11
3273.446527542797
 21
-1499.150530274596
 31
0.0
  0
ARC
  5
F1
330
1F
100
AcDbEntity
  8
LAYER_0
  6
Continuous
 62
     4
100
AcDbCircle
 10
3304.609708411142
 20
-1502.99970657178
 30
0.0
 40
28.90000000000015
100
AcDbArc
 50
173.974240675854
 51
178.825759324146
  0
LINE
  5
F2
330
1F
100
AcDbEntity
  8
LAYER_0
  6
Continuous
 62
     4
100
AcDbLine
 10
3273.20982882005
 20
-1502.912748737788
 30
0.0
 11
3275.715777473809
 21
-1502.407460855361
 31
0.0
  0
ARC
  5
F3
330
1F
100
AcDbEntity
  8
LAYER_0
  6
Continuous
 62
     4
100
AcDbCircle
 10
3304.609708411142
 20
-1502.99970657178
 30
0.0
 40
31.40000000000009
100
AcDbArc
 50
179.841327284972
 51
187.358672715028
  0
LINE
  5
F4
330
1F
100
AcDbEntity
  8
LAYER_0
  6
Continuous
 62
     4
100
AcDbLine
 10
3276.017842820152
 20
-1507.208652048589
 30
0.0
 11
3273.468324955833
 21
-1507.021427159959
 31
0.0
  0
ARC
  5
F5
330
1F
100
AcDbEntity
  8
LAYER_0
  6
Continuous
 62
     4
100
AcDbCircle
 10
3304.609708411142
 20
-1502.99970657178
 30
0.0
 40
28.90000000000015
100
AcDbArc
 50
188.374240675854
 51
193.225759324146
  0
LINE
  5
F6
330
1F
100
AcDbEntity
  8
LAYER_0
  6
Continuous
 62
     4
100
AcDbLine
 10
3274.17468824382
 20
-1510.724313190546
 30
0.0
 11
3276.476247926038
 21
-1509.611695768161
 31
0.0
  0
ARC
  5
F7
330
1F
100
AcDbEntity
  8
LAYER_0
  6
Continuous
 62
     4
100
AcDbCircle
 10
3304.609708411142
 20
-1502.99970657178
 30
0.0
 40
31.40000000000009
100
AcDbArc
 50
194.241327284972
 51
201.758672715028
  0
LINE
  5
F8
330
1F
100
AcDbEntity
  8
LAYER_0
  6
Continuous
 62
     4
100
AcDbLine
 10
3277.962831030167
 20
-1514.186928114382
 30
0.0
 11
3275.446850021362
 21
-1514.639624549913
 31
0.0
  0
ARC
  5
F9
330
1F
100
AcDbEntity
  8
LAYER_0
  6
Continuous
 62
     4
100
AcDbCircle
 10
3304.609708411142
 20
-1502.99970657178
 30
0.0
 40
28.90000000000015
100
AcDbArc
 50
202.774240675854
 51
207.625759324146
  0
LINE
  5
FA
330
1F
100
AcDbEntity
  8
LAYER_0
  6
Continuous
 62
     4
100
AcDbLine
 10
3277.051891916877
 20
-1518.050512200331
 30
0.0
 11
3279.004447168175
 21
-1516.400475082556
 31
0.0
  0
ARC
  5
FB
330
1F
100
AcDbEntity
  8
LAYER_0
  6
Continuous
 62
     4
100
AcDbCircle
 10
3304.609708411142
 20
-1502.99970657178
 30
0.0
 40
31.40000000000009
100
AcDbArc
 50
208.641327284972
 51
216.158672715028
  0
LINE
  5
FC
330
1F
100
AcDbEntity
  8
LAYER_0
  6
Continuous
 62
     4
100
AcDbLine
 10
3281.582140546388
 20
-1520.46226990693
 30
0.0
 11
3279.257784733013
 21
-1521.526443084677
 31
0.0
  0
ARC
  5
FD
330
1F
100
AcDbEntity
  8
LAYER_0
  6
Continuous
 62
     4
100
AcDbCircle
 10
3304.609708411142
 20
-1502.99970657178
 30
0.0
 40
28.90000000000015
100
AcDbArc
 50
217.174240675854
 51
222.025759324146
  0
LINE
  5
FE
330
1F
100
AcDbEntity
  8
LAYER_0
  6
Continuous
 62
     4
100
AcDbLine
 10
3281.660654550829
 20
-1524.431013739483
 30
0.0
 11
3283.141519143772
 21
-1522.347234826841
 31
0.0
  0
ARC
  5
FF
330
1F
100
AcDbEntity
  8
LAYER_0
  6
Continuous
 62
     4
100
AcDbCircle
 10
3304.609708411142
 20
-1502.99970657178
 30
0.0
 40
31.40000000000009
100
AcDbArc
 50
223.041327284972
 51
230.558672715028
  0
LINE
  5
100
330
1F
100
AcDbEntity
  8
LAYER_0
  6
Continuous
 62
     4
100
AcDbLine
 10
3286.648356841022
 20
-1525.640374622315
 30
0.0
 11
3284.661674047213
 21
-1527.249158627765
 31
0.0
  0
ARC
  5
101
330
1F
100
AcDbEntity
  8
LAYER_0
  6
Continuous
 62
     4
100
AcDbCircle
 10
3304.609708411142
 20
-1502.99970657178
 30
0.0
 40
28.90000000000015
100
AcDbArc
 50
231.574240675854
 51
236.425759324146
  0
LINE
  5
102
330
1F
100
AcDbEntity
  8
LAYER_0
  6
Continuous
 62
     4
100
AcDbLine
 10
3287.71139063954
 20
-1529.464907430454
 30
0.0
 11
3288.627516405515
 21
-1527.078318215628
 31
0.0
  0
ARC
  5
103
330
1F
100
AcDbEntity
  8
LAYER_0
  6
Continuous
 62
     4
100
AcDbCircle
 10
3304.609708411142
 20
-1502.99970657178
 30
0.0
 40
31.40000000000009
100
AcDbArc
 50
237.441327284972
 51
244.958672715028
  0
LINE
  5
104
330
1F
100
AcDbEntity
  8
LAYER_0
  6
Continuous
 62
     4
100
AcDbLine
 10
3292.843150912037
 20
-1529.395882897533
 30
0.0
 11
3291.318971724238
 21
-1531.448191914929
 31
0.0
  0
ARC
  5
105
330
1F
100
AcDbEntity
  8
LAYER_0
  6
Continuous
 62
     4
100
AcDbCircle
 10
3304.609708411142
 20
-1502.99970657178
 30
0.0
 40
28.90000000000015
100
AcDbArc
 50
245.974240675853
 51
250.825759324147
  0
LINE
  5
106
330
1F
100
AcDbEntity
  8
LAYER_0
  6
Continuous
 62
     4
100
AcDbLine
 10
3294.823910181507
 20
-1532.835895219274
 30
0.0
 11
3295.117733569362
 21
-1530.296453879894
 31
0.0
  0
ARC
  5
107
330
1F
100
AcDbEntity
  8
LAYER_0
  6
Continuous
 62
     4
100
AcDbCircle
 10
3304.609708411142
 20
-1502.99970657178
 30
0.0
 40
31.40000000000009
100
AcDbArc
 50
251.841327284972
 51
259.358672715028
  0
LINE
  5
108
330
1F
100
AcDbEntity
  8
LAYER_0
  6
Continuous
 62
     4
100
AcDbLine
 10
3299.777281065093
 20
-1531.492822335858
 30
0.0
 11
3298.811375267211
 21
-1533.859702241773
 31
0.0
  0
ARC
  5
109
330
1F
100
AcDbEntity
  8
LAYER_0
  6
Continuous
 62
     4
100
AcDbCircle
 10
3304.609708411142
 20
-1502.99970657178
 30
0.0
 40
28.90000000000015
100
AcDbArc
 50
260.374240675854
 51
265.225759324146
  0
LINE
  5
10A
330
1F
100
AcDbEntity
  8
LAYER_0
  6
Continuous
 62
     4
100
AcDbLine
 10
3302.551307415889
 20
-1534.332165545546
 30
0.0
 11
3302.20436642156
 21
-1531.799434520376
 31
0.0
  0
ARC
  5
10B
330
1F
100
AcDbEntity
  8
LAYER_0
  6
Continuous
 62
     4
100
AcDbCircle
 10
3304.609708411142
 20
-1502.99970657178
 30
0.0
 40
31.40000000000009
100
AcDbArc
 50
266.241327284972
 51
273.758672715028
  0
LINE
  5
10C
330
1F
100
AcDbEntity
  8
LAYER_0
  6
Continuous
 62
     4
100
AcDbLine
 10
3307.015050400725
 20
-1531.799434520376
 30
0.0
 11
3306.668109406395
 21
-1534.332165545546
 31
0.0
  0
ARC
  5
10D
330
1F
100
AcDbEntity
  8
LAYER_0
  6
Continuous
 62
     4
100
AcDbCircle
 10
3304.609708411142
 20
-1502.99970657178
 30
0.0
 40
28.90000000000015
100
AcDbArc
 50
274.774240675854
 51
279.625759324146
  0
LINE
  5
10E
330
1F
100
AcDbEntity
  8
LAYER_0
  6
Continuous
 62
     4
100
AcDbLine
 10
3310.408041555073
 20
-1533.859702241773
 30
0.0
 11
3309.442135757192
 21
-1531.492822335858
 31
0.0
  0
ARC
  5
10F
330
1F
100
AcDbEntity
  8
LAYER_0
  6
Continuous
 62
     4
100
AcDbCircle
 10
3304.609708411142
 20
-1502.99970657178
 30
0.0
 40
31.40000000000009
100
AcDbArc
 50
280.641327284972
 51
288.158672715028
  0
LINE
  5
110
330
1F
100
AcDbEntity
  8
LAYER_0
  6
Continuous
 62
     4
100
AcDbLine
 10
3314.101683252922
 20
-1530.296453879894
 30
0.0
 11
3314.395506640778
 21
-1532.835895219274
 31
0.0
  0
ARC
  5
111
330
1F
100
AcDbEntity
  8
LAYER_0
  6
Continuous
 62
     4
100
AcDbCircle
 10
3304.609708411142
 20
-1502.99970657178
 30
0.0
 40
28.90000000000015
100
AcDbArc
 50
289.174240675853
 51
294.025759324147
  0
LINE
  5
112
330
1F
100
AcDbEntity
  8
LAYER_0
  6
Continuous
 62
     4
100
AcDbLine
 10
3317.900445098046
 20
-1531.448191914929
 30
0.0
 11
3316.376265910248
 21
-1529.395882897533
 31
0.0
  0
ARC
  5
113
330
1F
100
AcDbEntity
  8
LAYER_0
  6
Continuous
 62
     4
100
AcDbCircle
 10
3304.609708411142
 20
-1502.99970657178
 30
0.0
 40
31.40000000000009
100
AcDbArc
 50
295.041327284972
 51
302.558672715028
  0
LINE
  5
114
330
1F
100
AcDbEntity
  8
LAYER_0
  6
Continuous
 62
     4
100
AcDbLine
 10
3320.591900416769
 20
-1527.078318215628
 30
0.0
 11
3321.508026182744
 21
-1529.464907430454
 31
0.0
  0
ARC
  5
115
330
1F
100
AcDbEntity
  8
LAYER_0
  6
Continuous
 62
     4
100
AcDbCircle
 10
3304.609708411142
 20
-1502.99970657178
 30
0.0
 40
28.90000000000015
100
AcDbArc
 50
303.574240675854
 51
308.425759324146
  0
LINE
  5
116
330
1F
100
AcDbEntity
  8
LAYER_0
  6
Continuous
 62
     4
100
AcDbLine
 10
3324.557742775071
 20
-1527.249158627765
 30
0.0
 11
3322.571059981262
 21
-1525.640374622315
 31
0.0
  0
ARC
  5
117
330
1F
100
AcDbEntity
  8
LAYER_0
  6
Continuous
 62
     4
100
AcDbCircle
 10
3304.609708411142
 20
-1502.99970657178
 30
0.0
 40
31.40000000000009
100
AcDbArc
 50
309.441327284972
 51
316.958672715028
  0
LINE
  5
118
330
1F
100
AcDbEntity
  8
LAYER_0
  6
Continuous
 62
     4
100
AcDbLine
 10
3326.077897678512
 20
-1522.347234826841
 30
0.0
 11
3327.558762271456
 21
-1524.431013739483
 31
0.0
  0
ARC
  5
119
330
1F
100
AcDbEntity
  8
LAYER_0
  6
Continuous
 62
     4
100
AcDbCircle
 10
3304.609708411142
 20
-1502.99970657178
 30
0.0
 40
28.90000000000015
100
AcDbArc
 50
317.974240675854
 51
322.825759324146
  0
LINE
  5
11A
330
1F
100
AcDbEntity
  8
LAYER_0
  6
Continuous
 62
     4
100
AcDbLine
 10
3329.961632089271
 20
-1521.526443084677
 30
0.0
 11
3327.637276275897
 21
-1520.46226990693
 31
0.0
  0
ARC
  5
11B
330
1F
100
AcDbEntity
  8
LAYER_0
  6
Continuous
 62
     4
100
AcDbCircle
 10
3304.609708411142
 20
-1502.99970657178
 30
0.0
 40
31.40000000000009
100
AcDbArc
 50
323.841327284972
 51
331.358672715028
  0
LINE
  5
11C
330
1F
100
AcDbEntity
  8
LAYER_0
  6
Continuous
 62
     4
100
AcDbLine
 10
3330.214969654109
 20
-1516.400475082556
 30
0.0
 11
3332.167524905407
 21
-1518.050512200331
 31
0.0
  0
ARC
  5
11D
330
1F
100
AcDbEntity
  8
LAYER_0
  6
Continuous
 62
     4
100
AcDbCircle
 10
3304.609708411142
 20
-1502.99970657178
 30
0.0
 40
28.90000000000015
100
AcDbArc
 50
332.374240675854
 51
337.225759324146
  0
LINE
  5
11E
330
1F
100
AcDbEntity
  8
LAYER_0
  6
Continuous
 62
     4
100
AcDbLine
 10
3333.772566800922
 20
-1514.639624549913
 30
0.0
 11
3331.256585792118
 21
-1514.186928114382
 31
0.0
  0
ARC
  5
11F
330
1F
100
AcDbEntity
  8
LAYER_0
  6
Continuous
 62
     4
100
AcDbCircle
 10
3304.609708411142
 20
-1502.99970657178
 30
0.0
 40
31.40000000000009
100
AcDbArc
 50
338.241327284972
 51
345.758672715028
  0
LINE
  5
120
330
1F
100
AcDbEntity
  8
LAYER_0
  6
Continuous
 62
     4
100
AcDbLine
 10
3332.743168896247
 20
-1509.611695768161
 30
0.0
 11
3335.044728578464
 21
-1510.724313190546
 31
0.0
  0
ARC
  5
121
330
1F
100
AcDbEntity
  8
LAYER_0
  6
Continuous
 62
     4
100
AcDbCircle
 10
3304.609708411142
 20
-1502.99970657178
 30
0.0
 40
28.90000000000015
100
AcDbArc
 50
346.774240675854
 51
351.625759324146
  0
LINE
  5
122
330
1F
100
AcDbEntity
  8
LAYER_0
  6
Continuous
 62
     4
100
AcDbLine
 10
3335.751091866452
 20
-1507.021427159959
 30
0.0
 11
3333.201574002132
 21
-1507.208652048589
 31
0.0
  0
ARC
  5
123
330
1F
100
AcDbEntity
  8
LAYER_0
  6
Continuous
 62
     4
100
AcDbCircle
 10
3304.609708411142
 20
-1502.99970657178
 30
0.0
 40
31.40000000000009
100
AcDbArc
 50
352.641327284972
 51
0.158672715028
  0
LINE
  5
124
330
1F
100
AcDbEntity
  8
LAYER_0
  6
Continuous
 62
     4
100
AcDbLine
 10
3333.503639348475
 20
-1502.407460855361
 30
0.0
 11
3336.009588002235
 21
-1502.912748737788
 31
0.0
  0
ARC
  5
125
330
1F
100
AcDbEntity
  8
LAYER_0
  6
Continuous
 62
     4
100
AcDbCircle
 10
3304.609708411142
 20
-1502.99970657178
 30
0.0
 40
28.90000000000015
100
AcDbArc
 50
1.174240675854
 51
6.025759324146
  0
LINE
  5
126
330
1F
100
AcDbEntity
  8
LAYER_0
  6
Continuous
 62
     4
100
AcDbLine
 10
3335.772889279487
 20
-1499.150530274596
 30
0.0
 11
3333.350030143539
 21
-1499.96591245907
 31
0.0
  0
ARC
  5
127
330
1F
100
AcDbEntity
  8
LAYER_0
  6
Continuous
 62
     4
100
AcDbCircle
 10
3304.609708411142
 20
-1502.99970657178
 30
0.0
 40
31.40000000000009
100
AcDbArc
 50
7.041327284972
 51
14.558672715028
  0
LINE
  5
128
330
1F
100
AcDbEntity
  8
LAYER_0
  6
Continuous
 62
     4
100
AcDbLine
 10
3332.448597855467
 20
-1495.240438919052
 30
0.0
 11
3335.001477510617
 21
-1495.106648165548
 31
0.0
  0
ARC
  5
129
330
1F
100
AcDbEntity
  8
LAYER_0
  6
Continuous
 62
     4
100
AcDbCircle
 10
3304.609708411142
 20
-1502.99970657178
 30
0.0
 40
28.90000000000015
100
AcDbArc
 50
15.574240675854
 51
20.425759324146
  0
LINE
  5
12A
330
1F
100
AcDbEntity
  8
LAYER_0
  6
Continuous
 62
     4
100
AcDbLine
 10
3333.836589428403
 20
-1491.521491292266
 30
0.0
 11
3331.69262617099
 21
-1492.913797311166
 31
0.0
  0
ARC
  5
12B
330
1F
100
AcDbEntity
  8
LAYER_0
  6
Continuous
 62
     4
100
AcDbCircle
 10
3304.609708411142
 20
-1502.99970657178
 30
0.0
 40
31.40000000000009
100
AcDbArc
 50
21.441327284972
 51
28.958672715028
  0
LINE
  5
12C
330
1F
100
AcDbEntity
  8
LAYER_0
  6
Continuous
 62
     4
100
AcDbLine
 10
3329.644336554398
 20
-1488.560960305953
 30
0.0
 11
3332.083740393372
 21
-1487.79649748161
 31
0.0
  0
ARC
  5
12D
330
1F
100
AcDbEntity
  8
LAYER_0
  6
Continuous
 62
     4
100
AcDbCircle
 10
3304.609708411142
 20
-1502.99970657178
 30
0.0
 40
28.90000000000015
100
AcDbArc
 50
29.974240675854
 51
34.825759324146
  0
LINE
  5
12E
330
1F
100
AcDbEntity
  8
LAYER_0
  6
Continuous
 62
     4
100
AcDbLine
 10
3330.063857154055
 20
-1484.61367078987
 30
0.0
 11
3328.333502871586
 21
-1486.495416935487
 31
0.0
  0
ARC
  5
12F
330
1F
100
AcDbEntity
  8
LAYER_0
  6
Continuous
 62
     4
100
AcDbCircle
 10
3304.609708411142
 20
-1502.99970657178
 30
0.0
 40
31.40000000000009
100
AcDbArc
 50
35.841327284972
 51
43.358672715028
  0
LINE
  5
130
330
1F
100
AcDbEntity
  8
LAYER_0
  6
Continuous
 62
     4
100
AcDbLine
 10
3325.267057496166
 20
-1482.788721222731
 30
0.0
 11
3327.439708804261
 21
-1481.4416203383
 31
0.0
  0
ARC
  5
131
330
1F
100
AcDbEntity
  8
LAYER_0
  6
Continuous
 62
     4
100
AcDbCircle
 10
3304.609708411142
 20
-1502.99970657178
 30
0.0
 40
28.90000000000015
100
AcDbArc
 50
44.374240675853
 51
49.225759324146
  0
LINE
  5
132
330
1F
100
AcDbEntity
  8
LAYER_0
  6
Continuous
 62
     4
100
AcDbLine
 10
3324.691747100379
 20
-1478.861112534761
 30
0.0
 11
3323.483726316218
 21
-1481.114061776187
 31
0.0
  0
ARC
  5
133
330
1F
100
AcDbEntity
  8
LAYER_0
  6
Continuous
 62
     4
100
AcDbCircle
 10
3304.609708411142
 20
-1502.99970657178
 30
0.0
 40
31.40000000000009
100
AcDbArc
 50
50.241327284972
 51
57.758672715028
  0
LINE
  5
134
330
1F
100
AcDbEntity
  8
LAYER_0
  6
Continuous
 62
     4
100
AcDbLine
 10
3319.591801222507
 20
-1478.286412679794
 30
0.0
 11
3321.361184327583
 21
-1476.441317038134
 31
0.0
  0
ARC
  5
135
330
1F
100
AcDbEntity
  8
LAYER_0
  6
Continuous
 62
     4
100
AcDbCircle
 10
3304.609708411142
 20
-1502.99970657178
 30
0.0
 40
28.90000000000015
100
AcDbArc
 50
58.774240675854
 51
63.625759324146
  0
LINE
  5
136
330
1F
100
AcDbEntity
  8
LAYER_0
  6
Continuous
 62
     4
100
AcDbLine
 10
3318.057808699286
 20
-1474.625270918537
 30
0.0
 11
3317.448025802093
 21
-1477.107862169165
 31
0.0
  0
ARC
  5
137
330
1F
100
AcDbEntity
  8
LAYER_0
  6
Continuous
 62
     4
100
AcDbCircle
 10
3304.609708411142
 20
-1502.99970657178
 30
0.0
 40
31.40000000000009
100
AcDbArc
 50
64.641327284972
 51
72.158672715028
  0
LINE
  5
138
330
1F
100
AcDbEntity
  8
LAYER_0
  6
Continuous
 62
     4
100
AcDbLine
 10
3312.975164957226
 20
-1475.336931281228
 30
0.0
 11
3314.230103011456
 21
-1473.109775027291
 31
0.0
  0
ARC
  5
139
330
1F
100
AcDbEntity
  8
LAYER_0
  6
Continuous
 62
     4
100
AcDbCircle
 10
3304.609708411142
 20
-1502.99970657178
 30
0.0
 40
28.90000000000015
100
AcDbArc
 50
73.174240675854
 51
78.025759324147
  0
LINE
  5
13A
330
1F
100
AcDbEntity
  8
LAYER_0
  6
Continuous
 62
     4
100
AcDbLine
 10
3310.578876698436
 20
-1472.172299448281
 30
0.0
 11
3310.605646590266
 21
-1474.728542369503
 31
0.0
  0
ARC
  5
13B
330
1F
100
AcDbEntity
  8
LAYER_0
  6
Continuous
 62
     4
100
AcDbCircle
 10
3304.609708411142
 20
-1502.99970657178
 30
0.0
 40
31.40000000000009
100
AcDbArc
 50
79.041327284972
 51
86.558672715028
  0
LINE
  5
13C
330
1F
100
AcDbEntity
  8
LAYER_0
  6
Continuous
 62
     4
100
AcDbLine
 10
3305.832896291159
 20
-1474.125603790738
 30
0.0
 11
3306.494536921255
 21
-1471.656327342867
 31
0.0
  0
ARC
  5
13D
330
1F
100
AcDbEntity
  8
LAYER_0
  6
Continuous
 62
     4
100
AcDbCircle
 10
3304.609708411142
 20
-1502.99970657178
 30
0.0
 40
28.90000000000015
100
AcDbArc
 50
87.574240675853
 51
92.425759324146
  0
LINE
  5
13E
330
1F
100
AcDbEntity
  8
LAYER_0
  6
Continuous
 62
     4
100
AcDbLine
 10
3302.72487990103
 20
-1471.656327342867
 30
0.0
 11
3303.386520531126
 21
-1474.125603790738
 31
0.0
  0
ARC
  5
13F
330
1F
100
AcDbEntity
  8
LAYER_0
  6
Continuous
 62
     4
100
AcDbCircle
 10
3304.609708411142
 20
-1502.99970657178
 30
0.0
 40
31.40000000000009
100
AcDbArc
 50
93.441327284972
 51
100.958672715028
  0
LINE
  5
140
330
1F
100
AcDbEntity
  8
LAYER_0
  6
Continuous
 62
     4
100
AcDbLine
 10
3298.613770232019
 20
-1474.728542369503
 30
0.0
 11
3298.640540123848
 21
-1472.172299448281
 31
0.0
  0
ARC
  5
141
330
1F
100
AcDbEntity
  8
LAYER_0
  6
Continuous
 62
     4
100
AcDbCircle
 10
3448.980113008427
 20
-1484.785035070163
 30
0.0
 40
5.999999999999783
100
AcDbArc
 50
25.013371475366
 51
90.0
  0
ARC
  5
142
330
1F
100
AcDbEntity
  8
LAYER_0
  6
Continuous
 62
     4
100
AcDbCircle
 10
3357.65844489512
 20
-1484.785035070163
 30
0.0
 40
5.999999999999783
100
AcDbArc
 50
90.0
 51
120.000000000001
  0
LINE
  5
143
330
1F
100
AcDbEntity
  8
LAYER_0
  6
Continuous
 62
     4
100
AcDbLine
 10
3349.87264377763
 20
-1482.351966210927
 30
0.0
 11
3354.65844489512
 21
-1479.588882647456
 31
0.0
  0
ARC
  5
144
330
1F
100
AcDbEntity
  8
LAYER_0
  6
Continuous
 62
     4
100
AcDbCircle
 10
3304.609708411142
 20
-1502.99970657178
 30
0.0
 40
49.74999999999996
100
AcDbArc
 50
335.478796967618
 51
24.521203032382
  0
LINE
  5
145
330
1F
100
AcDbEntity
  8
LAYER_0
  6
Continuous
 62
     4
100
AcDbLine
 10
3349.87264377763
 20
-1523.647446932633
 30
0.0
 11
3354.65844489512
 21
-1526.410530496104
 31
0.0
  0
ARC
  5
146
330
1F
100
AcDbEntity
  8
LAYER_0
  6
Continuous
 62
     4
100
AcDbCircle
 10
3357.65844489512
 20
-1521.214378073397
 30
0.0
 40
5.999999999999783
100
AcDbArc
 50
239.999999999999
 51
270.0
  0
LINE
  5
147
330
1F
100
AcDbEntity
  8
LAYER_0
  6
Continuous
 62
     4
100
AcDbLine
 10
3448.980113008427
 20
-1527.214378073397
 30
0.0
 11
3357.65844489512
 21
-1527.214378073397
 31
0.0
  0
ARC
  5
148
330
1F
100
AcDbEntity
  8
LAYER_0
  6
Continuous
 62
     4
100
AcDbCircle
 10
3448.980113008427
 20
-1521.214378073397
 30
0.0
 40
5.999999999999783
100
AcDbArc
 50
270.0
 51
334.986628524634
  0
ARC
  5
149
330
1F
100
AcDbEntity
  8
LAYER_0
  6
Continuous
 62
     4
100
AcDbCircle
 10
3399.478439102856
 20
-1498.117302380867
 30
0.0
 40
60.62499999999993
100
AcDbArc
 50
334.986628524633
 51
353.856924214483
  0
ARC
  5
14A
330
1F
100
AcDbEntity
  8
LAYER_0
  6
Continuous
 62
     4
100
AcDbCircle
 10
3444.841449963209
 20
-1502.99970657178
 30
0.0
 40
15.00000000000012
100
AcDbArc
 50
353.856924214483
 51
6.143075785517
  0
ARC
  5
14B
330
1F
100
AcDbEntity
  8
LAYER_0
  6
Continuous
 62
     4
100
AcDbCircle
 10
3453.133792533667
 20
-1520.882110762693
 30
0.0
 40
15.00000000000012
100
AcDbArc
 50
270.0
 51
335.370614286008
  0
LINE
  5
14C
330
1F
100
AcDbEntity
  8
LAYER_0
  6
Continuous
 62
     4
100
AcDbLine
 10
3356.082941031286
 20
-1535.882110762693
 30
0.0
 11
3453.133792533667
 21
-1535.882110762693
 31
0.0
  0
ARC
  5
14D
330
1F
100
AcDbEntity
  8
LAYER_0
  6
Continuous
 62
     4
100
AcDbCircle
 10
3356.082941031286
 20
-1520.882110762693
 30
0.0
 40
15.00000000000012
100
AcDbArc
 50
240.000000000001
 51
270.0
  0
LINE
  5
14E
330
1F
100
AcDbEntity
  8
LAYER_0
  6
Continuous
 62
     4
100
AcDbLine
 10
3348.582941031286
 20
-1533.87249181946
 30
0.0
 11
3345.12264377763
 21
-1531.874688268585
 31
0.0
  0
ARC
  5
14F
330
1F
100
AcDbEntity
  8
LAYER_0
  6
Continuous
 62
     4
100
AcDbCircle
 10
3304.609708411142
 20
-1502.99970657178
 30
0.0
 40
49.74999999999996
100
AcDbArc
 50
275.478796967618
 51
324.521203032382
  0
LINE
  5
150
330
1F
100
AcDbEntity
  8
LAYER_0
  6
Continuous
 62
     4
100
AcDbLine
 10
3309.359708411142
 20
-1556.037428996484
 30
0.0
 11
3309.359708411142
 21
-1552.522428629437
 31
0.0
  0
ARC
  5
151
330
1F
100
AcDbEntity
  8
LAYER_0
  6
Continuous
 62
     4
100
AcDbCircle
 10
3304.609708411142
 20
-1502.99970657178
 30
0.0
 40
53.24999999999979
100
AcDbArc
 50
264.88230661286
 51
275.11769338714
  0
LINE
  5
152
330
1F
100
AcDbEntity
  8
LAYER_0
  6
Continuous
 62
     4
100
AcDbLine
 10
3299.859708411142
 20
-1556.037428996484
 30
0.0
 11
3299.859708411142
 21
-1552.522428629437
 31
0.0
  0
ARC
  5
153
330
1F
100
AcDbEntity
  8
LAYER_0
  6
Continuous
 62
     4
100
AcDbCircle
 10
3304.609708411142
 20
-1502.99970657178
 30
0.0
 40
49.74999999999996
100
AcDbArc
 50
215.478796967618
 51
264.521203032382
  0
LINE
  5
154
330
1F
100
AcDbEntity
  8
LAYER_0
  6
Continuous
 62
     4
100
AcDbLine
 10
3261.052693432481
 20
-1533.632188452108
 30
0.0
 11
3264.096773044655
 21
-1531.874688268585
 31
0.0
  0
ARC
  5
155
330
1F
100
AcDbEntity
  8
LAYER_0
  6
Continuous
 62
     4
100
AcDbCircle
 10
3304.609708411142
 20
-1502.99970657178
 30
0.0
 40
53.24999999999979
100
AcDbArc
 50
204.88230661286
 51
215.11769338714
  0
LINE
  5
156
330
1F
100
AcDbEntity
  8
LAYER_0
  6
Continuous
 62
     4
100
AcDbLine
 10
3256.30269343248
 20
-1525.404947116156
 30
0.0
 11
3259.346773044655
 21
-1523.647446932633
 31
0.0
  0
ARC
  5
157
330
1F
100
AcDbEntity
  8
LAYER_0
  6
Continuous
 62
     4
100
AcDbCircle
 10
3304.609708411142
 20
-1502.99970657178
 30
0.0
 40
49.74999999999996
100
AcDbArc
 50
155.478796967618
 51
204.521203032382
  0
LINE
  5
158
330
1F
100
AcDbEntity
  8
LAYER_0
  6
Continuous
 62
     4
100
AcDbLine
 10
3256.30269343248
 20
-1480.594466027404
 30
0.0
 11
3259.346773044655
 21
-1482.351966210927
 31
0.0
  0
ARC
  5
159
330
1F
100
AcDbEntity
  8
LAYER_0
  6
Continuous
 62
     4
100
AcDbCircle
 10
3304.609708411142
 20
-1502.99970657178
 30
0.0
 40
53.24999999999979
100
AcDbArc
 50
144.88230661286
 51
155.11769338714
  0
LINE
  5
15A
330
1F
100
AcDbEntity
  8
LAYER_0
  6
Continuous
 62
     4
100
AcDbLine
 10
3261.052693432481
 20
-1472.367224691452
 30
0.0
 11
3264.096773044655
 21
-1474.124724874975
 31
0.0
  0
ARC
  5
15B
330
1F
100
AcDbEntity
  8
LAYER_0
  6
Continuous
 62
     4
100
AcDbCircle
 10
3304.609708411142
 20
-1502.99970657178
 30
0.0
 40
49.74999999999996
100
AcDbArc
 50
95.478796967618
 51
144.521203032382
  0
LINE
  5
15C
330
1F
100
AcDbEntity
  8
LAYER_0
  6
Continuous
 62
     4
100
AcDbLine
 10
3299.859708411142
 20
-1449.961984147075
 30
0.0
 11
3299.859708411142
 21
-1453.476984514122
 31
0.0
  0
ARC
  5
15D
330
1F
100
AcDbEntity
  8
LAYER_0
  6
Continuous
 62
     4
100
AcDbCircle
 10
3304.609708411142
 20
-1502.99970657178
 30
0.0
 40
53.24999999999979
100
AcDbArc
 50
84.88230661286
 51
95.11769338714
  0
LINE
  5
15E
330
1F
100
AcDbEntity
  8
LAYER_0
  6
Continuous
 62
     4
100
AcDbLine
 10
3309.359708411142
 20
-1449.961984147075
 30
0.0
 11
3309.359708411142
 21
-1453.476984514122
 31
0.0
  0
ARC
  5
15F
330
1F
100
AcDbEntity
  8
LAYER_0
  6
Continuous
 62
     4
100
AcDbCircle
 10
3304.609708411142
 20
-1502.99970657178
 30
0.0
 40
49.74999999999996
100
AcDbArc
 50
35.478796967618
 51
84.521203032382
  0
LINE
  5
160
330
1F
100
AcDbEntity
  8
LAYER_0
  6
Continuous
 62
     4
100
AcDbLine
 10
3348.582941031286
 20
-1472.1269213241
 30
0.0
 11
3345.12264377763
 21
-1474.124724874975
 31
0.0
  0
ARC
  5
161
330
1F
100
AcDbEntity
  8
LAYER_0
  6
Continuous
 62
     4
100
AcDbCircle
 10
3356.082941031286
 20
-1485.117302380867
 30
0.0
 40
15.00000000000012
100
AcDbArc
 50
90.0
 51
119.999999999999
  0
ARC
  5
162
330
1F
100
AcDbEntity
  8
LAYER_0
  6
Continuous
 62
     4
100
AcDbCircle
 10
3453.133792533667
 20
-1485.117302380867
 30
0.0
 40
15.00000000000012
100
AcDbArc
 50
24.629385713992
 51
90.0
  0
ARC
  5
163
330
1F
100
AcDbEntity
  8
LAYER_0
  6
Continuous
 62
     4
100
AcDbCircle
 10
3457.884805957448
 20
-1502.99970657178
 30
0.0
 40
15.00000000000012
100
AcDbArc
 50
354.872037198324
 51
5.127962801676
  0
ARC
  5
164
330
1F
100
AcDbEntity
  8
LAYER_0
  6
Continuous
 62
     4
100
AcDbCircle
 10
3403.478439102855
 20
-1498.117302380867
 30
0.0
 40
69.62500000000071
100
AcDbArc
 50
335.370614286008
 51
354.872037198324
  0
LINE
  5
165
330
1F
100
AcDbEntity
  8
LAYER_0
  6
Continuous
 62
     4
100
AcDbLine
 10
3356.082941031286
 20
-1470.117302380867
 30
0.0
 11
3453.133792533667
 21
-1470.117302380867
 31
0.0
  0
LINE
  5
166
330
1F
100
AcDbEntity
  8
LAYER_0
  6
Continuous
 62
     4
100
AcDbLine
 10
3448.980113008427
 20
-1478.785035070163
 30
0.0
 11
3357.65844489512
 21
-1478.785035070163
 31
0.0
  0
ARC
  5
167
330
1F
100
AcDbEntity
  8
LAYER_0
  6
Continuous
 62
     4
100
AcDbCircle
 10
3399.478439102856
 20
-1507.882110762693
 30
0.0
 40
60.62499999999993
100
AcDbArc
 50
6.143075785517
 51
25.013371475367
  0
ARC
  5
168
330
1F
100
AcDbEntity
  8
LAYER_0
  6
Continuous
 62
     4
100
AcDbCircle
 10
3403.478439102855
 20
-1507.882110762693
 30
0.0
 40
69.62500000000071
100
AcDbArc
 50
5.127962801676
 51
24.629385713992
  0
ARC
  5
169
330
1F
100
AcDbEntity
  8
LAYER_0
  6
Continuous
 62
     4
100
AcDbCircle
 10
3450.206262364179
 20
-1754.537893335527
 30
0.0
 40
5.999999999999783
100
AcDbArc
 50
25.013371475366
 51
90.0
  0
ARC
  5
16A
330
1F
100
AcDbEntity
  8
LAYER_0
  6
Continuous
 62
     4
100
AcDbCircle
 10
3358.884594250872
 20
-1754.537893335527
 30
0.0
 40
5.999999999999783
100
AcDbArc
 50
90.0
 51
120.000000000001
  0
LINE
  5
16B
330
1F
100
AcDbEntity
  8
LAYER_0
  6
Continuous
 62
     4
100
AcDbLine
 10
3351.098793133382
 20
-1752.104824476292
 30
0.0
 11
3355.884594250871
 21
-1749.341740912821
 31
0.0
  0
ARC
  5
16C
330
1F
100
AcDbEntity
  8
LAYER_0
  6
Continuous
 62
     4
100
AcDbCircle
 10
3305.835857766894
 20
-1772.752564837145
 30
0.0
 40
49.74999999999996
100
AcDbArc
 50
335.478796967618
 51
24.521203032382
  0
LINE
  5
16D
330
1F
100
AcDbEntity
  8
LAYER_0
  6
Continuous
 62
     4
100
AcDbLine
 10
3351.098793133382
 20
-1793.400305197997
 30
0.0
 11
3355.884594250871
 21
-1796.163388761468
 31
0.0
  0
ARC
  5
16E
330
1F
100
AcDbEntity
  8
LAYER_0
  6
Continuous
 62
     4
100
AcDbCircle
 10
3358.884594250872
 20
-1790.967236338762
 30
0.0
 40
5.999999999999783
100
AcDbArc
 50
239.999999999999
 51
270.0
  0
LINE
  5
16F
330
1F
100
AcDbEntity
  8
LAYER_0
  6
Continuous
 62
     4
100
AcDbLine
 10
3450.206262364179
 20
-1796.967236338762
 30
0.0
 11
3358.884594250872
 21
-1796.967236338762
 31
0.0
  0
ARC
  5
170
330
1F
100
AcDbEntity
  8
LAYER_0
  6
Continuous
 62
     4
100
AcDbCircle
 10
3450.206262364179
 20
-1790.967236338762
 30
0.0
 40
5.999999999999783
100
AcDbArc
 50
270.0
 51
334.986628524634
  0
ARC
  5
171
330
1F
100
AcDbEntity
  8
LAYER_0
  6
Continuous
 62
     4
100
AcDbCircle
 10
3400.704588458607
 20
-1767.870160646231
 30
0.0
 40
60.62499999999993
100
AcDbArc
 50
334.986628524633
 51
353.856924214483
  0
ARC
  5
172
330
1F
100
AcDbEntity
  8
LAYER_0
  6
Continuous
 62
     4
100
AcDbCircle
 10
3446.067599318961
 20
-1772.752564837145
 30
0.0
 40
15.00000000000012
100
AcDbArc
 50
353.856924214483
 51
6.143075785517
  0
ARC
  5
173
330
1F
100
AcDbEntity
  8
LAYER_0
  6
Continuous
 62
     4
100
AcDbCircle
 10
3454.359941889418
 20
-1790.634969028057
 30
0.0
 40
15.00000000000012
100
AcDbArc
 50
270.0
 51
335.370614286008
  0
LINE
  5
174
330
1F
100
AcDbEntity
  8
LAYER_0
  6
Continuous
 62
     4
100
AcDbLine
 10
3357.309090387037
 20
-1805.634969028057
 30
0.0
 11
3454.359941889418
 21
-1805.634969028057
 31
0.0
  0
ARC
  5
175
330
1F
100
AcDbEntity
  8
LAYER_0
  6
Continuous
 62
     4
100
AcDbCircle
 10
3357.309090387037
 20
-1790.634969028057
 30
0.0
 40
15.00000000000012
100
AcDbArc
 50
240.000000000001
 51
270.0
  0
LINE
  5
176
330
1F
100
AcDbEntity
  8
LAYER_0
  6
Continuous
 62
     4
100
AcDbLine
 10
3349.809090387038
 20
-1803.625350084824
 30
0.0
 11
3346.348793133382
 21
-1801.627546533949
 31
0.0
  0
ARC
  5
177
330
1F
100
AcDbEntity
  8
LAYER_0
  6
Continuous
 62
     4
100
AcDbCircle
 10
3305.835857766894
 20
-1772.752564837145
 30
0.0
 40
49.74999999999996
100
AcDbArc
 50
275.478796967618
 51
324.521203032382
  0
LINE
  5
178
330
1F
100
AcDbEntity
  8
LAYER_0
  6
Continuous
 62
     4
100
AcDbLine
 10
3310.585857766894
 20
-1825.790287261849
 30
0.0
 11
3310.585857766894
 21
-1822.275286894802
 31
0.0
  0
ARC
  5
179
330
1F
100
AcDbEntity
  8
LAYER_0
  6
Continuous
 62
     4
100
AcDbCircle
 10
3305.835857766894
 20
-1772.752564837145
 30
0.0
 40
53.24999999999979
100
AcDbArc
 50
264.88230661286
 51
275.11769338714
  0
LINE
  5
17A
330
1F
100
AcDbEntity
  8
LAYER_0
  6
Continuous
 62
     4
100
AcDbLine
 10
3301.085857766894
 20
-1825.790287261849
 30
0.0
 11
3301.085857766894
 21
-1822.275286894802
 31
0.0
  0
ARC
  5
17B
330
1F
100
AcDbEntity
  8
LAYER_0
  6
Continuous
 62
     4
100
AcDbCircle
 10
3305.835857766894
 20
-1772.752564837145
 30
0.0
 40
49.74999999999996
100
AcDbArc
 50
215.478796967618
 51
264.521203032382
  0
LINE
  5
17C
330
1F
100
AcDbEntity
  8
LAYER_0
  6
Continuous
 62
     4
100
AcDbLine
 10
3262.278842788232
 20
-1803.385046717473
 30
0.0
 11
3265.322922400407
 21
-1801.627546533949
 31
0.0
  0
ARC
  5
17D
330
1F
100
AcDbEntity
  8
LAYER_0
  6
Continuous
 62
     4
100
AcDbCircle
 10
3305.835857766894
 20
-1772.752564837145
 30
0.0
 40
53.24999999999979
100
AcDbArc
 50
204.88230661286
 51
215.11769338714
  0
LINE
  5
17E
330
1F
100
AcDbEntity
  8
LAYER_0
  6
Continuous
 62
     4
100
AcDbLine
 10
3257.528842788232
 20
-1795.157805381521
 30
0.0
 11
3260.572922400406
 21
-1793.400305197997
 31
0.0
  0
ARC
  5
17F
330
1F
100
AcDbEntity
  8
LAYER_0
  6
Continuous
 62
     4
100
AcDbCircle
 10
3305.835857766894
 20
-1772.752564837145
 30
0.0
 40
49.74999999999996
100
AcDbArc
 50
155.478796967618
 51
204.521203032382
  0
LINE
  5
180
330
1F
100
AcDbEntity
  8
LAYER_0
  6
Continuous
 62
     4
100
AcDbLine
 10
3257.528842788232
 20
-1750.347324292768
 30
0.0
 11
3260.572922400406
 21
-1752.104824476292
 31
0.0
  0
ARC
  5
181
330
1F
100
AcDbEntity
  8
LAYER_0
  6
Continuous
 62
     4
100
AcDbCircle
 10
3305.835857766894
 20
-1772.752564837145
 30
0.0
 40
53.24999999999979
100
AcDbArc
 50
144.88230661286
 51
155.11769338714
  0
LINE
  5
182
330
1F
100
AcDbEntity
  8
LAYER_0
  6
Continuous
 62
     4
100
AcDbLine
 10
3262.278842788232
 20
-1742.120082956816
 30
0.0
 11
3265.322922400407
 21
-1743.87758314034
 31
0.0
  0
ARC
  5
183
330
1F
100
AcDbEntity
  8
LAYER_0
  6
Continuous
 62
     4
100
AcDbCircle
 10
3305.835857766894
 20
-1772.752564837145
 30
0.0
 40
49.74999999999996
100
AcDbArc
 50
95.478796967618
 51
144.521203032382
  0
LINE
  5
184
330
1F
100
AcDbEntity
  8
LAYER_0
  6
Continuous
 62
     4
100
AcDbLine
 10
3301.085857766894
 20
-1719.71484241244
 30
0.0
 11
3301.085857766894
 21
-1723.229842779487
 31
0.0
  0
ARC
  5
185
330
1F
100
AcDbEntity
  8
LAYER_0
  6
Continuous
 62
     4
100
AcDbCircle
 10
3305.835857766894
 20
-1772.752564837145
 30
0.0
 40
53.24999999999979
100
AcDbArc
 50
84.88230661286
 51
95.11769338714
  0
LINE
  5
186
330
1F
100
AcDbEntity
  8
LAYER_0
  6
Continuous
 62
     4
100
AcDbLine
 10
3310.585857766894
 20
-1719.71484241244
 30
0.0
 11
3310.585857766894
 21
-1723.229842779487
 31
0.0
  0
ARC
  5
187
330
1F
100
AcDbEntity
  8
LAYER_0
  6
Continuous
 62
     4
100
AcDbCircle
 10
3305.835857766894
 20
-1772.752564837145
 30
0.0
 40
49.74999999999996
100
AcDbArc
 50
35.478796967618
 51
84.521203032382
  0
LINE
  5
188
330
1F
100
AcDbEntity
  8
LAYER_0
  6
Continuous
 62
     4
100
AcDbLine
 10
3349.809090387038
 20
-1741.879779589465
 30
0.0
 11
3346.348793133382
 21
-1743.87758314034
 31
0.0
  0
ARC
  5
189
330
1F
100
AcDbEntity
  8
LAYER_0
  6
Continuous
 62
     4
100
AcDbCircle
 10
3357.309090387037
 20
-1754.870160646232
 30
0.0
 40
15.00000000000012
100
AcDbArc
 50
90.0
 51
119.999999999999
  0
ARC
  5
18A
330
1F
100
AcDbEntity
  8
LAYER_0
  6
Continuous
 62
     4
100
AcDbCircle
 10
3454.359941889418
 20
-1754.870160646232
 30
0.0
 40
15.00000000000012
100
AcDbArc
 50
24.629385713992
 51
90.0
  0
ARC
  5
18B
330
1F
100
AcDbEntity
  8
LAYER_0
  6
Continuous
 62
     4
100
AcDbCircle
 10
3459.1109553132
 20
-1772.752564837145
 30
0.0
 40
15.00000000000012
100
AcDbArc
 50
354.872037198324
 51
5.127962801676
  0
ARC
  5
18C
330
1F
100
AcDbEntity
  8
LAYER_0
  6
Continuous
 62
     4
100
AcDbCircle
 10
3404.704588458606
 20
-1767.870160646232
 30
0.0
 40
69.62500000000071
100
AcDbArc
 50
335.370614286008
 51
354.872037198324
  0
CIRCLE
  5
18D
330
1F
100
AcDbEntity
  8
LAYER_0
  6
Continuous
 62
     4
100
AcDbCircle
 10
3286.835857766894
 20
-1753.752564837145
 30
0.0
 40
4.049999999999887
  0
CIRCLE
  5
18E
330
1F
100
AcDbEntity
  8
LAYER_0
  6
Continuous
 62
     4
100
AcDbCircle
 10
3324.835857766894
 20
-1753.752564837145
 30
0.0
 40
4.049999999999887
  0
CIRCLE
  5
18F
330
1F
100
AcDbEntity
  8
LAYER_0
  6
Continuous
 62
     4
100
AcDbCircle
 10
3324.835857766894
 20
-1791.752564837144
 30
0.0
 40
4.049999999999887
  0
CIRCLE
  5
190
330
1F
100
AcDbEntity
  8
LAYER_0
  6
Continuous
 62
     4
100
AcDbCircle
 10
3286.835857766894
 20
-1791.752564837144
 30
0.0
 40
4.049999999999887
  0
LINE
  5
191
330
1F
100
AcDbEntity
  8
LAYER_0
  6
Continuous
 62
     4
100
AcDbLine
 10
3278.885857766894
 20
-1764.202564837144
 30
0.0
 11
3287.755550800473
 21
-1764.202564837144
 31
0.0
  0
ARC
  5
192
330
1F
100
AcDbEntity
  8
LAYER_0
  6
Continuous
 62
     4
100
AcDbCircle
 10
3278.885857766894
 20
-1772.752564837145
 30
0.0
 40
8.550000000000058
100
AcDbArc
 50
90.0
 51
270.0
  0
LINE
  5
193
330
1F
100
AcDbEntity
  8
LAYER_0
  6
Continuous
 62
     4
100
AcDbLine
 10
3287.755550800473
 20
-1781.302564837144
 30
0.0
 11
3278.885857766894
 21
-1781.302564837144
 31
0.0
  0
ARC
  5
194
330
1F
100
AcDbEntity
  8
LAYER_0
  6
Continuous
 62
     4
100
AcDbCircle
 10
3305.835857766894
 20
-1772.752564837145
 30
0.0
 40
20.00000000000002
100
AcDbArc
 50
205.309008171538
 51
244.690991828462
  0
LINE
  5
195
330
1F
100
AcDbEntity
  8
LAYER_0
  6
Continuous
 62
     4
100
AcDbLine
 10
3297.285857766894
 20
-1799.702564837145
 30
0.0
 11
3297.285857766894
 21
-1790.832871803565
 31
0.0
  0
ARC
  5
196
330
1F
100
AcDbEntity
  8
LAYER_0
  6
Continuous
 62
     4
100
AcDbCircle
 10
3305.835857766894
 20
-1799.702564837145
 30
0.0
 40
8.550000000000058
100
AcDbArc
 50
180.0
 51
0.0
  0
LINE
  5
197
330
1F
100
AcDbEntity
  8
LAYER_0
  6
Continuous
 62
     4
100
AcDbLine
 10
3314.385857766894
 20
-1790.832871803565
 30
0.0
 11
3314.385857766894
 21
-1799.702564837145
 31
0.0
  0
ARC
  5
198
330
1F
100
AcDbEntity
  8
LAYER_0
  6
Continuous
 62
     4
100
AcDbCircle
 10
3305.835857766894
 20
-1772.752564837145
 30
0.0
 40
20.00000000000002
100
AcDbArc
 50
295.309008171538
 51
334.690991828462
  0
LINE
  5
199
330
1F
100
AcDbEntity
  8
LAYER_0
  6
Continuous
 62
     4
100
AcDbLine
 10
3332.785857766894
 20
-1781.302564837144
 30
0.0
 11
3323.916164733314
 21
-1781.302564837144
 31
0.0
  0
ARC
  5
19A
330
1F
100
AcDbEntity
  8
LAYER_0
  6
Continuous
 62
     4
100
AcDbCircle
 10
3332.785857766894
 20
-1772.752564837145
 30
0.0
 40
8.550000000000058
100
AcDbArc
 50
270.0
 51
90.0
  0
LINE
  5
19B
330
1F
100
AcDbEntity
  8
LAYER_0
  6
Continuous
 62
     4
100
AcDbLine
 10
3323.916164733314
 20
-1764.202564837144
 30
0.0
 11
3332.785857766894
 21
-1764.202564837144
 31
0.0
  0
ARC
  5
19C
330
1F
100
AcDbEntity
  8
LAYER_0
  6
Continuous
 62
     4
100
AcDbCircle
 10
3305.835857766894
 20
-1772.752564837145
 30
0.0
 40
20.00000000000002
100
AcDbArc
 50
25.309008171538
 51
64.690991828462
  0
LINE
  5
19D
330
1F
100
AcDbEntity
  8
LAYER_0
  6
Continuous
 62
     4
100
AcDbLine
 10
3314.385857766894
 20
-1745.802564837144
 30
0.0
 11
3314.385857766894
 21
-1754.672257870724
 31
0.0
  0
ARC
  5
19E
330
1F
100
AcDbEntity
  8
LAYER_0
  6
Continuous
 62
     4
100
AcDbCircle
 10
3305.835857766894
 20
-1745.802564837144
 30
0.0
 40
8.550000000000058
100
AcDbArc
 50
0.0
 51
180.0
  0
LINE
  5
19F
330
1F
100
AcDbEntity
  8
LAYER_0
  6
Continuous
 62
     4
100
AcDbLine
 10
3297.285857766894
 20
-1754.672257870724
 30
0.0
 11
3297.285857766894
 21
-1745.802564837144
 31
0.0
  0
ARC
  5
1A0
330
1F
100
AcDbEntity
  8
LAYER_0
  6
Continuous
 62
     4
100
AcDbCircle
 10
3305.835857766894
 20
-1772.752564837145
 30
0.0
 40
20.00000000000002
100
AcDbArc
 50
115.309008171538
 51
154.690991828462
  0
LINE
  5
1A1
330
1F
100
AcDbEntity
  8
LAYER_0
  6
Continuous
 62
     4
100
AcDbLine
 10
3357.309090387037
 20
-1739.870160646232
 30
0.0
 11
3454.359941889418
 21
-1739.870160646232
 31
0.0
  0
LINE
  5
1A2
330
1F
100
AcDbEntity
  8
LAYER_0
  6
Continuous
 62
     4
100
AcDbLine
 10
3450.206262364179
 20
-1748.537893335527
 30
0.0
 11
3358.884594250872
 21
-1748.537893335527
 31
0.0
  0
ARC
  5
1A3
330
1F
100
AcDbEntity
  8
LAYER_0
  6
Continuous
 62
     4
100
AcDbCircle
 10
3400.704588458607
 20
-1777.634969028057
 30
0.0
 40
60.62499999999993
100
AcDbArc
 50
6.143075785517
 51
25.013371475367
  0
ARC
  5
1A4
330
1F
100
AcDbEntity
  8
LAYER_0
  6
Continuous
 62
     4
100
AcDbCircle
 10
3404.704588458606
 20
-1777.634969028057
 30
0.0
 40
69.62500000000071
100
AcDbArc
 50
5.127962801676
 51
24.629385713992
  0
LINE
  5
1A5
330
1F
100
AcDbEntity
  8
LAYER_0
  6
CENTER
 62
   100
100
AcDbLine
 10
3286.835857766894
 20
-1749.702564837145
 30
0.0
 11
3286.835857766894
 21
-1757.802564837144
 31
0.0
  0
LINE
  5
1A6
330
1F
100
AcDbEntity
  8
LAYER_0
  6
CENTER
 62
   100
100
AcDbLine
 10
3282.785857766894
 20
-1753.752564837145
 30
0.0
 11
3290.885857766894
 21
-1753.752564837145
 31
0.0
  0
LINE
  5
1A7
330
1F
100
AcDbEntity
  8
LAYER_0
  6
CENTER
 62
   100
100
AcDbLine
 10
3324.835857766894
 20
-1749.702564837145
 30
0.0
 11
3324.835857766894
 21
-1757.802564837144
 31
0.0
  0
LINE
  5
1A8
330
1F
100
AcDbEntity
  8
LAYER_0
  6
CENTER
 62
   100
100
AcDbLine
 10
3320.785857766894
 20
-1753.752564837145
 30
0.0
 11
3328.885857766894
 21
-1753.752564837145
 31
0.0
  0
LINE
  5
1A9
330
1F
100
AcDbEntity
  8
LAYER_0
  6
CENTER
 62
   100
100
AcDbLine
 10
3324.835857766894
 20
-1787.702564837145
 30
0.0
 11
3324.835857766894
 21
-1795.802564837144
 31
0.0
  0
LINE
  5
1AA
330
1F
100
AcDbEntity
  8
LAYER_0
  6
CENTER
 62
   100
100
AcDbLine
 10
3320.785857766894
 20
-1791.752564837144
 30
0.0
 11
3328.885857766894
 21
-1791.752564837144
 31
0.0
  0
LINE
  5
1AB
330
1F
100
AcDbEntity
  8
LAYER_0
  6
CENTER
 62
   100
100
AcDbLine
 10
3286.835857766894
 20
-1787.702564837145
 30
0.0
 11
3286.835857766894
 21
-1795.802564837144
 31
0.0
  0
LINE
  5
1AC
330
1F
100
AcDbEntity
  8
LAYER_0
  6
CENTER
 62
   100
100
AcDbLine
 10
3282.785857766894
 20
-1791.752564837144
 30
0.0
 11
3290.885857766894
 21
-1791.752564837144
 31
0.0
  0
LINE
  5
1AD
330
1F
100
AcDbEntity
  8
LAYER_0
  6
CENTER
 62
   100
100
AcDbLine
 10
3278.885857766894
 20
-1764.202564837144
 30
0.0
 11
3278.885857766894
 21
-1781.302564837144
 31
0.0
  0
LINE
  5
1AE
330
1F
100
AcDbEntity
  8
LAYER_0
  6
CENTER
 62
   100
100
AcDbLine
 10
3270.335857766894
 20
-1772.752564837145
 30
0.0
 11
3287.435857766894
 21
-1772.752564837145
 31
0.0
  0
LINE
  5
1AF
330
1F
100
AcDbEntity
  8
LAYER_0
  6
CENTER
 62
   100
100
AcDbLine
 10
3305.835857766894
 20
-1791.152564837144
 30
0.0
 11
3305.835857766894
 21
-1808.252564837145
 31
0.0
  0
LINE
  5
1B0
330
1F
100
AcDbEntity
  8
LAYER_0
  6
CENTER
 62
   100
100
AcDbLine
 10
3297.285857766894
 20
-1799.702564837145
 30
0.0
 11
3314.385857766894
 21
-1799.702564837145
 31
0.0
  0
LINE
  5
1B1
330
1F
100
AcDbEntity
  8
LAYER_0
  6
CENTER
 62
   100
100
AcDbLine
 10
3332.785857766894
 20
-1764.202564837144
 30
0.0
 11
3332.785857766894
 21
-1781.302564837144
 31
0.0
  0
LINE
  5
1B2
330
1F
100
AcDbEntity
  8
LAYER_0
  6
CENTER
 62
   100
100
AcDbLine
 10
3324.235857766894
 20
-1772.752564837145
 30
0.0
 11
3341.335857766894
 21
-1772.752564837145
 31
0.0
  0
LINE
  5
1B3
330
1F
100
AcDbEntity
  8
LAYER_0
  6
CENTER
 62
   100
100
AcDbLine
 10
3305.835857766894
 20
-1737.252564837144
 30
0.0
 11
3305.835857766894
 21
-1754.352564837144
 31
0.0
  0
LINE
  5
1B4
330
1F
100
AcDbEntity
  8
LAYER_0
  6
CENTER
 62
   100
100
AcDbLine
 10
3297.285857766894
 20
-1745.802564837144
 30
0.0
 11
3314.385857766894
 21
-1745.802564837144
 31
0.0
  0
ENDSEC
  0
SECTION
  2
OBJECTS
  0
DICTIONARY
  5
C
330
0
100
AcDbDictionary
281
     1
  3
ACAD_GROUP
350
D
  3
ACAD_LAYOUT
350
1A
  3
ACAD_MATERIAL
350
3B
  3
ACAD_MLEADERSTYLE
350
1B7
  3
ACAD_MLINESTYLE
350
17
  3
ACAD_PLOTSETTINGS
350
19
  3
ACAD_PLOTSTYLENAME
350
E
  3
ACAD_VISUALSTYLE
350
2A
  3
AcDbVariableDictionary
350
1B5
  0
DICTIONARY
  5
D
102
{ACAD_REACTORS
330
C
102
}
330
C
100
AcDbDictionary
281
     1
  0
DICTIONARY
  5
1A
102
{ACAD_REACTORS
330
C
102
}
330
C
100
AcDbDictionary
281
     1
  3
Layout1
350
1E
  3
Layout2
350
26
  3
Model
350
22
  0
DICTIONARY
  5
3B
102
{ACAD_REACTORS
330
C
102
}
330
C
100
AcDbDictionary
281
     1
  3
ByBlock
350
3D
  3
ByLayer
350
3C
  3
Global
350
3E
  0
DICTIONARY
  5
1B7
102
{ACAD_REACTORS
330
C
102
}
330
C
100
AcDbDictionary
281
     1
  0
DICTIONARY
  5
17
102
{ACAD_REACTORS
330
C
102
}
330
C
100
AcDbDictionary
281
     1
  3
Standard
350
18
  0
DICTIONARY
  5
19
102
{ACAD_REACTORS
330
C
102
}
330
C
100
AcDbDictionary
281
     1
  0
ACDBDICTIONARYWDFLT
  5
E
102
{ACAD_REACTORS
330
C
102
}
330
C
100
AcDbDictionary
281
     1
  3
Normal
350
F
100
AcDbDictionaryWithDefault
340
F
  0
DICTIONARY
  5
2A
102
{ACAD_REACTORS
330
C
102
}
330
C
100
AcDbDictionary
281
     1
  3
2dWireframe
350
2F
  3
3D Hidden
350
31
  3
3dWireframe
350
30
  3
Basic
350
32
  3
Brighten
350
36
  3
ColorChange
350
3A
  3
Conceptual
350
34
  3
Dim
350
35
  3
Facepattern
350
39
  3
Flat
350
2B
  3
FlatWithEdges
350
2C
  3
Gouraud
350
2D
  3
GouraudWithEdges
350
2E
  3
Linepattern
350
38
  3
Realistic
350
33
  3
Thicken
350
37
  0
DICTIONARY
  5
1B5
102
{ACAD_REACTORS
330
C
102
}
330
C
100
AcDbDictionary
281
     1
  3
DIMASSOC
350
1BA
  3
HIDETEXT
350
1BB
  3
PSOLHEIGHT
350
1B9
  3
PSOLWIDTH
350
1B8
  0
LAYOUT
  5
1E
102
{ACAD_REACTORS
330
1A
102
}
330
1A
100
AcDbPlotSettings
  1

  2
none_device
  4

  6

 40
0.0
 41
0.0
 42
0.0
 43
0.0
 44
0.0
 45
0.0
 46
0.0
 47
0.0
 48
0.0
 49
0.0
140
0.0
141
0.0
142
1.0
143
1.0
 70
   688
 72
     0
 73
     0
 74
     5
  7

 75
    16
147
1.0
148
0.0
149
0.0
100
AcDbLayout
  1
Layout1
 70
     1
 71
     1
 10
0.0
 20
0.0
 11
420.0
 21
297.0
 12
0.0
 22
0.0
 32
0.0
 14
1.000000000000E+20
 24
1.000000000000E+20
 34
1.000000000000E+20
 15
-1.000000000000E+20
 25
-1.000000000000E+20
 35
-1.000000000000E+20
146
0.0
 13
0.0
 23
0.0
 33
0.0
 16
1.0
 26
0.0
 36
0.0
 17
0.0
 27
1.0
 37
0.0
 76
     0
330
1B
  0
LAYOUT
  5
26
102
{ACAD_REACTORS
330
1A
102
}
330
1A
100
AcDbPlotSettings
  1

  2
none_device
  4

  6

 40
0.0
 41
0.0
 42
0.0
 43
0.0
 44
0.0
 45
0.0
 46
0.0
 47
0.0
 48
0.0
 49
0.0
140
0.0
141
0.0
142
1.0
143
1.0
 70
   688
 72
     0
 73
     0
 74
     5
  7

 75
    16
147
1.0
148
0.0
149
0.0
100
AcDbLayout
  1
Layout2
 70
     1
 71
     2
 10
0.0
 20
0.0
 11
0.0
 21
0.0
 12
0.0
 22
0.0
 32
0.0
 14
0.0
 24
0.0
 34
0.0
 15
0.0
 25
0.0
 35
0.0
146
0.0
 13
0.0
 23
0.0
 33
0.0
 16
1.0
 26
0.0
 36
0.0
 17
0.0
 27
1.0
 37
0.0
 76
     0
330
23
  0
LAYOUT
  5
22
102
{ACAD_REACTORS
330
1A
102
}
330
1A
100
AcDbPlotSettings
  1

  2
none_device
  4

  6

 40
0.0
 41
0.0
 42
0.0
 43
0.0
 44
0.0
 45
0.0
 46
0.0
 47
0.0
 48
0.0
 49
0.0
140
0.0
141
0.0
142
1.0
143
1.0
 70
  1712
 72
     0
 73
     0
 74
     0
  7

 75
     0
147
1.0
148
0.0
149
0.0
100
AcDbLayout
  1
Model
 70
     1
 71
     0
 10
0.0
 20
0.0
 11
420.0
 21
297.0
 12
0.0
 22
0.0
 32
0.0
 14
0.0
 24
0.0
 34
0.0
 15
0.0
 25
0.0
 35
0.0
146
0.0
 13
0.0
 23
0.0
 33
0.0
 16
1.0
 26
0.0
 36
0.0
 17
0.0
 27
1.0
 37
0.0
 76
     0
330
1F
331
29
  0
MATERIAL
  5
3D
102
{ACAD_REACTORS
330
3B
102
}
102
{ACAD_XDICTIONARY
360
1DE
102
}
330
3B
100
AcDbMaterial
  1
ByBlock
  0
MATERIAL
  5
3C
102
{ACAD_REACTORS
330
3B
102
}
102
{ACAD_XDICTIONARY
360
1DC
102
}
330
3B
100
AcDbMaterial
  1
ByLayer
  0
MATERIAL
  5
3E
102
{ACAD_REACTORS
330
3B
102
}
102
{ACAD_XDICTIONARY
360
1E0
102
}
330
3B
100
AcDbMaterial
  1
Global
  0
MLINESTYLE
  5
18
102
{ACAD_REACTORS
330
17
102
}
330
17
100
AcDbMlineStyle
  2
Standard
 70
     0
  3

 62
   256
 51
90.0
 52
90.0
 71
     2
 49
0.5
 62
   256
  6
BYLAYER
 49
-0.5
 62
   256
  6
BYLAYER
  0
ACDBPLACEHOLDER
  5
F
102
{ACAD_REACTORS
330
E
102
}
330
E
  0
VISUALSTYLE
  5
2F
102
{ACAD_REACTORS
330
2A
102
}
102
{ACAD_XDICTIONARY
360
1C4
102
}
330
2A
100
AcDbVisualStyle
  2
2dWireframe
 70
     4
 71
     0
 72
     2
 73
     0
 90
        0
 40
-0.6
 41
-30.0
 62
     5
 63
     7
 74
     1
 91
        4
 64
     7
 65
   257
 75
     1
175
     1
 42
1.0
 92
        0
 66
   257
 43
1.0
 76
     1
 77
     6
 78
     2
 67
     7
 79
     5
170
     0
171
     0
290
     0
174
     0
 93
        1
 44
0.0
173
     0
291
     0
 45
0.0
1001
ACAD
1000
AcDbSavedByObjectVersion
1070
     0
  0
VISUALSTYLE
  5
31
102
{ACAD_REACTORS
330
2A
102
}
102
{ACAD_XDICTIONARY
360
1C8
102
}
330
2A
100
AcDbVisualStyle
  2
3D Hidden
 70
     6
 71
     1
 72
     2
 73
     2
 90
        0
 40
-0.6
 41
-30.0
 62
     5
 63
     7
 74
     2
 91
        2
 64
     7
 65
   257
 75
     2
175
     1
 42
40.0
 92
        0
 66
   257
 43
1.0
 76
     1
 77
     6
 78
     2
 67
     7
 79
     3
170
     0
171
     0
290
     0
174
     0
 93
        1
 44
0.0
173
     0
291
     0
 45
0.0
1001
ACAD
1000
AcDbSavedByObjectVersion
1070
     0
  0
VISUALSTYLE
  5
30
102
{ACAD_REACTORS
330
2A
102
}
102
{ACAD_XDICTIONARY
360
1C6
102
}
330
2A
100
AcDbVisualStyle
  2
3dWireframe
 70
     5
 71
     0
 72
     2
 73
     0
 90
        0
 40
-0.6
 41
-30.0
 62
     5
 63
     7
 74
     1
 91
        4
 64
     7
 65
   257
 75
     1
175
     1
 42
1.0
 92
        0
 66
   257
 43
1.0
 76
     1
 77
     6
 78
     2
 67
     7
 79
     5
170
     0
171
     0
290
     0
174
     0
 93
        1
 44
0.0
173
     0
291
     0
 45
0.0
1001
ACAD
1000
AcDbSavedByObjectVersion
1070
     0
  0
VISUALSTYLE
  5
32
102
{ACAD_REACTORS
330
2A
102
}
102
{ACAD_XDICTIONARY
360
1CA
102
}
330
2A
100
AcDbVisualStyle
  2
Basic
 70
     7
 71
     1
 72
     0
 73
     1
 90
        0
 40
-0.6
 41
-30.0
 62
     5
 63
     7
 74
     0
 91
        4
 64
     7
 65
   257
 75
     1
175
     1
 42
1.0
 92
        8
 66
     7
 43
1.0
 76
     1
 77
     6
 78
     2
 67
     7
 79
     5
170
     0
171
     0
290
     0
174
     0
 93
        1
 44
0.0
173
     0
291
     1
 45
0.0
1001
ACAD
1000
AcDbSavedByObjectVersion
1070
     0
  0
VISUALSTYLE
  5
36
102
{ACAD_REACTORS
330
2A
102
}
102
{ACAD_XDICTIONARY
360
1D2
102
}
330
2A
100
AcDbVisualStyle
  2
Brighten
 70
    12
 71
     2
 72
     2
 73
     0
 90
        0
 40
-0.6
 41
-30.0
 62
     5
 63
     7
 74
     1
 91
        4
 64
     7
 65
   257
 75
     1
175
     1
 42
1.0
 92
        8
 66
     7
 43
1.0
 76
     1
 77
     6
 78
     2
 67
     7
 79
     5
170
     0
171
     0
290
     0
174
     0
 93
        1
 44
50.0
173
     0
291
     1
 45
0.0
1001
ACAD
1000
AcDbSavedByObjectVersion
1070
     0
  0
VISUALSTYLE
  5
3A
102
{ACAD_REACTORS
330
2A
102
}
102
{ACAD_XDICTIONARY
360
1DA
102
}
330
2A
100
AcDbVisualStyle
  2
ColorChange
 70
    16
 71
     2
 72
     2
 73
     3
 90
        0
 40
-0.6
 41
-30.0
 62
     5
 63
     8
 74
     1
 91
        4
 64
     7
 65
   257
 75
     1
175
     1
 42
1.0
 92
        8
 66
     8
 43
1.0
 76
     1
 77
     6
 78
     2
 67
     7
 79
     5
170
     0
171
     0
290
     0
174
     0
 93
        1
 44
0.0
173
     0
291
     1
 45
0.0
1001
ACAD
1000
AcDbSavedByObjectVersion
1070
     0
  0
VISUALSTYLE
  5
34
102
{ACAD_REACTORS
330
2A
102
}
102
{ACAD_XDICTIONARY
360
1CE
102
}
330
2A
100
AcDbVisualStyle
  2
Conceptual
 70
     9
 71
     3
 72
     2
 73
     0
 90
        0
 40
-0.6
 41
-30.0
 62
     5
 63
     7
 74
     2
 91
        2
 64
     7
 65
   257
 75
     1
175
     1
 42
40.0
 92
        8
 66
     7
 43
1.0
 76
     1
 77
     6
 78
     2
 67
     7
 79
     3
170
     0
171
     0
290
     0
174
     0
 93
        1
 44
0.0
173
     0
291
     0
 45
0.0
1001
ACAD
1000
AcDbSavedByObjectVersion
1070
     0
  0
VISUALSTYLE
  5
35
102
{ACAD_REACTORS
330
2A
102
}
102
{ACAD_XDICTIONARY
360
1D0
102
}
330
2A
100
AcDbVisualStyle
  2
Dim
 70
    11
 71
     2
 72
     2
 73
     0
 90
        0
 40
-0.6
 41
-30.0
 62
     5
 63
     7
 74
     1
 91
        4
 64
     7
 65
   257
 75
     1
175
     1
 42
1.0
 92
        8
 66
     7
 43
1.0
 76
     1
 77
     6
 78
     2
 67
     7
 79
     5
170
     0
171
     0
290
     0
174
     0
 93
        1
 44
-50.0
173
     0
291
     1
 45
0.0
1001
ACAD
1000
AcDbSavedByObjectVersion
1070
     0
  0
VISUALSTYLE
  5
39
102
{ACAD_REACTORS
330
2A
102
}
102
{ACAD_XDICTIONARY
360
1D8
102
}
330
2A
100
AcDbVisualStyle
  2
Facepattern
 70
    15
 71
     2
 72
     2
 73
     0
 90
        0
 40
-0.6
 41
-30.0
 62
     5
 63
     7
 74
     1
 91
        4
 64
     7
 65
   257
 75
     1
175
     1
 42
1.0
 92
        8
 66
     7
 43
1.0
 76
     1
 77
     6
 78
     2
 67
     7
 79
     5
170
     0
171
     0
290
     0
174
     0
 93
        1
 44
0.0
173
     0
291
     1
 45
0.0
1001
ACAD
1000
AcDbSavedByObjectVersion
1070
     0
  0
VISUALSTYLE
  5
2B
102
{ACAD_REACTORS
330
2A
102
}
102
{ACAD_XDICTIONARY
360
1BC
102
}
330
2A
100
AcDbVisualStyle
  2
Flat
 70
     0
 71
     2
 72
     1
 73
     1
 90
        2
 40
-0.6
 41
30.0
 62
     5
 63
     7
 74
     0
 91
        4
 64
     7
 65
   257
 75
     1
175
     1
 42
1.0
 92
        8
 66
     7
 43
1.0
 76
     1
 77
     6
 78
     2
 67
     7
 79
     5
170
     0
171
     0
290
     0
174
     0
 93
       13
 44
0.0
173
     0
291
     1
 45
0.0
1001
ACAD
1000
AcDbSavedByObjectVersion
1070
     0
  0
VISUALSTYLE
  5
2C
102
{ACAD_REACTORS
330
2A
102
}
102
{ACAD_XDICTIONARY
360
1BE
102
}
330
2A
100
AcDbVisualStyle
  2
FlatWithEdges
 70
     1
 71
     2
 72
     1
 73
     1
 90
        2
 40
-0.6
 41
30.0
 62
     5
 63
     7
 74
     1
 91
        4
 64
     7
 65
   257
 75
     1
175
     1
 42
1.0
 92
        0
 66
   257
 43
1.0
 76
     1
 77
     6
 78
     2
 67
     7
 79
     5
170
     0
171
     0
290
     0
174
     0
 93
       13
 44
0.0
173
     0
291
     1
 45
0.0
1001
ACAD
1000
AcDbSavedByObjectVersion
1070
     0
  0
VISUALSTYLE
  5
2D
102
{ACAD_REACTORS
330
2A
102
}
102
{ACAD_XDICTIONARY
360
1C0
102
}
330
2A
100
AcDbVisualStyle
  2
Gouraud
 70
     2
 71
     2
 72
     2
 73
     1
 90
        2
 40
-0.6
 41
30.0
 62
     5
 63
     7
 74
     0
 91
        4
 64
     7
 65
   257
 75
     1
175
     1
 42
1.0
 92
        0
 66
     7
 43
1.0
 76
     1
 77
     6
 78
     2
 67
     7
 79
     5
170
     0
171
     0
290
     0
174
     0
 93
       13
 44
0.0
173
     0
291
     1
 45
0.0
1001
ACAD
1000
AcDbSavedByObjectVersion
1070
     0
  0
VISUALSTYLE
  5
2E
102
{ACAD_REACTORS
330
2A
102
}
102
{ACAD_XDICTIONARY
360
1C2
102
}
330
2A
100
AcDbVisualStyle
  2
GouraudWithEdges
 70
     3
 71
     2
 72
     2
 73
     1
 90
        2
 40
-0.6
 41
30.0
 62
     5
 63
     7
 74
     1
 91
        4
 64
     7
 65
   257
 75
     1
175
     1
 42
1.0
 92
        0
 66
   257
 43
1.0
 76
     1
 77
     6
 78
     2
 67
     7
 79
     5
170
     0
171
     0
290
     0
174
     0
 93
       13
 44
0.0
173
     0
291
     1
 45
0.0
1001
ACAD
1000
AcDbSavedByObjectVersion
1070
     0
  0
VISUALSTYLE
  5
38
102
{ACAD_REACTORS
330
2A
102
}
102
{ACAD_XDICTIONARY
360
1D6
102
}
330
2A
100
AcDbVisualStyle
  2
Linepattern
 70
    14
 71
     2
 72
     2
 73
     0
 90
        0
 40
-0.6
 41
-30.0
 62
     5
 63
     7
 74
     1
 91
        4
 64
     7
 65
   257
 75
     7
175
     7
 42
1.0
 92
        8
 66
     7
 43
1.0
 76
     1
 77
     6
 78
     2
 67
     7
 79
     5
170
     0
171
     0
290
     0
174
     0
 93
        1
 44
0.0
173
     0
291
     1
 45
0.0
1001
ACAD
1000
AcDbSavedByObjectVersion
1070
     0
  0
VISUALSTYLE
  5
33
102
{ACAD_REACTORS
330
2A
102
}
102
{ACAD_XDICTIONARY
360
1CC
102
}
330
2A
100
AcDbVisualStyle
  2
Realistic
 70
     8
 71
     2
 72
     2
 73
     0
 90
        0
 40
-0.6
 41
-30.0
 62
     5
 63
     7
 74
     1
 91
        0
 64
     7
 65
   257
 75
     1
175
     1
 42
1.0
 92
        8
 66
     8
 43
1.0
 76
     1
 77
     6
 78
     2
 67
     7
 79
     5
170
     0
171
     0
290
     0
174
     0
 93
       13
 44
0.0
173
     0
291
     0
 45
0.0
1001
ACAD
1000
AcDbSavedByObjectVersion
1070
     0
  0
VISUALSTYLE
  5
37
102
{ACAD_REACTORS
330
2A
102
}
102
{ACAD_XDICTIONARY
360
1D4
102
}
330
2A
100
AcDbVisualStyle
  2
Thicken
 70
    13
 71
     2
 72
     2
 73
     0
 90
        0
 40
-0.6
 41
-30.0
 62
     5
 63
     7
 74
     1
 91
        4
 64
     7
 65
   257
 75
     1
175
     1
 42
1.0
 92
       12
 66
     7
 43
1.0
 76
     1
 77
     6
 78
     2
 67
     7
 79
     5
170
     0
171
     0
290
     0
174
     0
 93
        1
 44
0.0
173
     0
291
     1
 45
0.0
1001
ACAD
1000
AcDbSavedByObjectVersion
1070
     0
  0
DICTIONARYVAR
  5
1BA
102
{ACAD_REACTORS
330
1B5
102
}
330
1B5
100
DictionaryVariables
280
     0
  1
2
  0
DICTIONARYVAR
  5
1BB
102
{ACAD_REACTORS
330
1B5
102
}
330
1B5
100
DictionaryVariables
280
     0
  1
1
  0
DICTIONARYVAR
  5
1B9
102
{ACAD_REACTORS
330
1B5
102
}
330
1B5
100
DictionaryVariables
280
     0
  1
80.000000
  0
DICTIONARYVAR
  5
1B8
102
{ACAD_REACTORS
330
1B5
102
}
330
1B5
100
DictionaryVariables
280
     0
  1
5.000000
  0
DICTIONARY
  5
1DE
330
3D
100
AcDbDictionary
280
     1
281
     1
  3
ACAD_XREC_ROUNDTRIP
360
1DF
  0
DICTIONARY
  5
1DC
330
3C
100
AcDbDictionary
280
     1
281
     1
  3
ACAD_XREC_ROUNDTRIP
360
1DD
  0
DICTIONARY
  5
1E0
330
3E
100
AcDbDictionary
280
     1
281
     1
  3
ACAD_XREC_ROUNDTRIP
360
1E1
  0
DICTIONARY
  5
1C4
330
2F
100
AcDbDictionary
280
     1
281
     1
  3
ACAD_XREC_ROUNDTRIP
360
1C5
  0
DICTIONARY
  5
1C8
330
31
100
AcDbDictionary
280
     1
281
     1
  3
ACAD_XREC_ROUNDTRIP
360
1C9
  0
DICTIONARY
  5
1C6
330
30
100
AcDbDictionary
280
     1
281
     1
  3
ACAD_XREC_ROUNDTRIP
360
1C7
  0
DICTIONARY
  5
1CA
330
32
100
AcDbDictionary
280
     1
281
     1
  3
ACAD_XREC_ROUNDTRIP
360
1CB
  0
DICTIONARY
  5
1D2
330
36
100
AcDbDictionary
280
     1
281
     1
  3
ACAD_XREC_ROUNDTRIP
360
1D3
  0
DICTIONARY
  5
1DA
330
3A
100
AcDbDictionary
280
     1
281
     1
  3
ACAD_XREC_ROUNDTRIP
360
1DB
  0
DICTIONARY
  5
1CE
330
34
100
AcDbDictionary
280
     1
281
     1
  3
ACAD_XREC_ROUNDTRIP
360
1CF
  0
DICTIONARY
  5
1D0
330
35
100
AcDbDictionary
280
     1
281
     1
  3
ACAD_XREC_ROUNDTRIP
360
1D1
  0
DICTIONARY
  5
1D8
330
39
100
AcDbDictionary
280
     1
281
     1
  3
ACAD_XREC_ROUNDTRIP
360
1D9
  0
DICTIONARY
  5
1BC
330
2B
100
AcDbDictionary
280
     1
281
     1
  3
ACAD_XREC_ROUNDTRIP
360
1BD
  0
DICTIONARY
  5
1BE
330
2C
100
AcDbDictionary
280
     1
281
     1
  3
ACAD_XREC_ROUNDTRIP
360
1BF
  0
DICTIONARY
  5
1C0
330
2D
100
AcDbDictionary
280
     1
281
     1
  3
ACAD_XREC_ROUNDTRIP
360
1C1
  0
DICTIONARY
  5
1C2
330
2E
100
AcDbDictionary
280
     1
281
     1
  3
ACAD_XREC_ROUNDTRIP
360
1C3
  0
DICTIONARY
  5
1D6
330
38
100
AcDbDictionary
280
     1
281
     1
  3
ACAD_XREC_ROUNDTRIP
360
1D7
  0
DICTIONARY
  5
1CC
330
33
100
AcDbDictionary
280
     1
281
     1
  3
ACAD_XREC_ROUNDTRIP
360
1CD
  0
DICTIONARY
  5
1D4
330
37
100
AcDbDictionary
280
     1
281
     1
  3
ACAD_XREC_ROUNDTRIP
360
1D5
  0
XRECORD
  5
1DF
102
{ACAD_REACTORS
330
1DE
102
}
330
1DE
100
AcDbXrecord
280
     1
102
MATERIAL
148
0.0
149
0.0
149
0.0
 93
        0
 94
      127
282
     0
 72
     1
 77
     1
171
     1
175
     1
179
     1
273
     0
  0
XRECORD
  5
1DD
102
{ACAD_REACTORS
330
1DC
102
}
330
1DC
100
AcDbXrecord
280
     1
102
MATERIAL
148
0.0
149
0.0
149
0.0
 93
        0
 94
      127
282
     0
 72
     1
 77
     1
171
     1
175
     1
179
     1
273
     0
  0
XRECORD
  5
1E1
102
{ACAD_REACTORS
330
1E0
102
}
330
1E0
100
AcDbXrecord
280
     1
102
MATERIAL
148
0.0
149
0.0
149
0.0
 93
        0
 94
      127
282
     0
 72
     1
 77
     1
171
     1
175
     1
179
     1
273
     0
  0
XRECORD
  5
1C5
102
{ACAD_REACTORS
330
1C4
102
}
330
1C4
100
AcDbXrecord
280
     1
102
RTVSPropertyOp0
 70
     1
102
RTVSPropertyOp1
 70
     1
102
RTVSPropertyOp2
 70
     1
102
RTVSPropertyOp3
 70
     1
102
RTVSPropertyOp4
 70
     1
102
RTVSPropertyOp5
 70
     1
102
RTVSPropertyOp6
 70
     1
102
RTVSPropertyOp7
 70
     1
102
RTVSPropertyOp8
 70
     1
102
RTVSPropertyOp9
 70
     1
102
RTVSPropertyOp10
 70
     1
102
RTVSPropertyOp11
 70
     1
102
RTVSPropertyOp12
 70
     1
102
RTVSPropertyOp13
 70
     1
102
RTVSPropertyOp14
 70
     1
102
RTVSPropertyOp15
 70
     1
102
RTVSPropertyOp16
 70
     1
102
RTVSPropertyOp17
 70
     1
102
RTVSPropertyOp18
 70
     1
102
RTVSPropertyOp19
 70
     1
102
RTVSPropertyOp20
 70
     1
102
RTVSPropertyOp21
 70
     1
102
RTVSPropertyOp22
 70
     1
102
RTVSPropertyOp23
 70
     1
102
RTVSPropertyOp24
 70
     1
102
RTVSPropertyOp25
 70
     1
102
RTVSPropertyOp26
 70
     1
102
RTVSPropertyOp27
 70
     1
102
RTVSPropertyOp28
 70
     1
102
RTVSPropertyOp29
 70
     1
102
RTVSPropertyOp30
 70
     1
102
RTVSPropertyOp31
 70
     1
102
RTVSPropertyOp32
 70
     1
  0
XRECORD
  5
1C9
102
{ACAD_REACTORS
330
1C8
102
}
330
1C8
100
AcDbXrecord
280
     1
102
RTVSPropertyOp0
 70
     1
102
RTVSPropertyOp1
 70
     1
102
RTVSPropertyOp2
 70
     1
102
RTVSPropertyOp3
 70
     1
102
RTVSPropertyOp4
 70
     1
102
RTVSPropertyOp5
 70
     1
102
RTVSPropertyOp6
 70
     1
102
RTVSPropertyOp7
 70
     1
102
RTVSPropertyOp8
 70
     1
102
RTVSPropertyOp9
 70
     1
102
RTVSPropertyOp10
 70
     1
102
RTVSPropertyOp11
 70
     1
102
RTVSPropertyOp12
 70
     1
102
RTVSPropertyOp13
 70
     1
102
RTVSPropertyOp14
 70
     1
102
RTVSPropertyOp15
 70
     1
102
RTVSPropertyOp16
 70
     1
102
RTVSPropertyOp17
 70
     1
102
RTVSPropertyOp18
 70
     1
102
RTVSPropertyOp19
 70
     1
102
RTVSPropertyOp20
 70
     1
102
RTVSPropertyOp21
 70
     1
102
RTVSPropertyOp22
 70
     1
102
RTVSPropertyOp23
 70
     1
102
RTVSPropertyOp24
 70
     1
102
RTVSPropertyOp25
 70
     1
102
RTVSPropertyOp26
 70
     1
102
RTVSPropertyOp27
 70
     1
102
RTVSPropertyOp28
 70
     1
102
RTVSPropertyOp29
 70
     1
102
RTVSPropertyOp30
 70
     1
102
RTVSPropertyOp31
 70
     1
102
RTVSPropertyOp32
 70
     1
  0
XRECORD
  5
1C7
102
{ACAD_REACTORS
330
1C6
102
}
330
1C6
100
AcDbXrecord
280
     1
102
RTVSPropertyOp0
 70
     1
102
RTVSPropertyOp1
 70
     1
102
RTVSPropertyOp2
 70
     1
102
RTVSPropertyOp3
 70
     1
102
RTVSPropertyOp4
 70
     1
102
RTVSPropertyOp5
 70
     1
102
RTVSPropertyOp6
 70
     1
102
RTVSPropertyOp7
 70
     1
102
RTVSPropertyOp8
 70
     1
102
RTVSPropertyOp9
 70
     1
102
RTVSPropertyOp10
 70
     1
102
RTVSPropertyOp11
 70
     1
102
RTVSPropertyOp12
 70
     1
102
RTVSPropertyOp13
 70
     1
102
RTVSPropertyOp14
 70
     1
102
RTVSPropertyOp15
 70
     1
102
RTVSPropertyOp16
 70
     1
102
RTVSPropertyOp17
 70
     1
102
RTVSPropertyOp18
 70
     1
102
RTVSPropertyOp19
 70
     1
102
RTVSPropertyOp20
 70
     1
102
RTVSPropertyOp21
 70
     1
102
RTVSPropertyOp22
 70
     1
102
RTVSPropertyOp23
 70
     1
102
RTVSPropertyOp24
 70
     1
102
RTVSPropertyOp25
 70
     1
102
RTVSPropertyOp26
 70
     1
102
RTVSPropertyOp27
 70
     1
102
RTVSPropertyOp28
 70
     1
102
RTVSPropertyOp29
 70
     1
102
RTVSPropertyOp30
 70
     1
102
RTVSPropertyOp31
 70
     1
102
RTVSPropertyOp32
 70
     1
  0
XRECORD
  5
1CB
102
{ACAD_REACTORS
330
1CA
102
}
330
1CA
100
AcDbXrecord
280
     1
102
RTVSPropertyOp0
 70
     1
102
RTVSPropertyOp1
 70
     1
102
RTVSPropertyOp2
 70
     1
102
RTVSPropertyOp3
 70
     1
102
RTVSPropertyOp4
 70
     1
102
RTVSPropertyOp5
 70
     1
102
RTVSPropertyOp6
 70
     1
102
RTVSPropertyOp7
 70
     1
102
RTVSPropertyOp8
 70
     1
102
RTVSPropertyOp9
 70
     1
102
RTVSPropertyOp10
 70
     1
102
RTVSPropertyOp11
 70
     1
102
RTVSPropertyOp12
 70
     1
102
RTVSPropertyOp13
 70
     1
102
RTVSPropertyOp14
 70
     1
102
RTVSPropertyOp15
 70
     1
102
RTVSPropertyOp16
 70
     1
102
RTVSPropertyOp17
 70
     1
102
RTVSPropertyOp18
 70
     1
102
RTVSPropertyOp19
 70
     1
102
RTVSPropertyOp20
 70
     1
102
RTVSPropertyOp21
 70
     1
102
RTVSPropertyOp22
 70
     1
102
RTVSPropertyOp23
 70
     1
102
RTVSPropertyOp24
 70
     1
102
RTVSPropertyOp25
 70
     1
102
RTVSPropertyOp26
 70
     1
102
RTVSPropertyOp27
 70
     1
102
RTVSPropertyOp28
 70
     1
102
RTVSPropertyOp29
 70
     1
102
RTVSPropertyOp30
 70
     1
102
RTVSPropertyOp31
 70
     1
102
RTVSPropertyOp32
 70
     1
  0
XRECORD
  5
1D3
102
{ACAD_REACTORS
330
1D2
102
}
330
1D2
100
AcDbXrecord
280
     1
102
RTVSPropertyOp0
 70
     1
102
RTVSPropertyOp1
 70
     1
102
RTVSPropertyOp2
 70
     1
102
RTVSPropertyOp3
 70
     1
102
RTVSPropertyOp4
 70
     1
102
RTVSPropertyOp5
 70
     1
102
RTVSPropertyOp6
 70
     1
102
RTVSPropertyOp7
 70
     1
102
RTVSPropertyOp8
 70
     1
102
RTVSPropertyOp9
 70
     1
102
RTVSPropertyOp10
 70
     1
102
RTVSPropertyOp11
 70
     1
102
RTVSPropertyOp12
 70
     1
102
RTVSPropertyOp13
 70
     1
102
RTVSPropertyOp14
 70
     1
102
RTVSPropertyOp15
 70
     1
102
RTVSPropertyOp16
 70
     1
102
RTVSPropertyOp17
 70
     1
102
RTVSPropertyOp18
 70
     1
102
RTVSPropertyOp19
 70
     1
102
RTVSPropertyOp20
 70
     1
102
RTVSPropertyOp21
 70
     1
102
RTVSPropertyOp22
 70
     1
102
RTVSPropertyOp23
 70
     1
102
RTVSPropertyOp24
 70
     1
102
RTVSPropertyOp25
 70
     1
102
RTVSPropertyOp26
 70
     1
102
RTVSPropertyOp27
 70
     1
102
RTVSPropertyOp28
 70
     1
102
RTVSPropertyOp29
 70
     1
102
RTVSPropertyOp30
 70
     1
102
RTVSPropertyOp31
 70
     1
102
RTVSPropertyOp32
 70
     1
  0
XRECORD
  5
1DB
102
{ACAD_REACTORS
330
1DA
102
}
330
1DA
100
AcDbXrecord
280
     1
102
RTVSPropertyOp0
 70
     1
102
RTVSPropertyOp1
 70
     1
102
RTVSPropertyOp2
 70
     1
102
RTVSPropertyOp3
 70
     1
102
RTVSPropertyOp4
 70
     1
102
RTVSPropertyOp5
 70
     1
102
RTVSPropertyOp6
 70
     1
102
RTVSPropertyOp7
 70
     1
102
RTVSPropertyOp8
 70
     1
102
RTVSPropertyOp9
 70
     1
102
RTVSPropertyOp10
 70
     1
102
RTVSPropertyOp11
 70
     1
102
RTVSPropertyOp12
 70
     1
102
RTVSPropertyOp13
 70
     1
102
RTVSPropertyOp14
 70
     1
102
RTVSPropertyOp15
 70
     1
102
RTVSPropertyOp16
 70
     1
102
RTVSPropertyOp17
 70
     1
102
RTVSPropertyOp18
 70
     1
102
RTVSPropertyOp19
 70
     1
102
RTVSPropertyOp20
 70
     1
102
RTVSPropertyOp21
 70
     1
102
RTVSPropertyOp22
 70
     1
102
RTVSPropertyOp23
 70
     1
102
RTVSPropertyOp24
 70
     1
102
RTVSPropertyOp25
 70
     1
102
RTVSPropertyOp26
 70
     1
102
RTVSPropertyOp27
 70
     1
102
RTVSPropertyOp28
 70
     1
102
RTVSPropertyOp29
 70
     1
102
RTVSPropertyOp30
 70
     1
102
RTVSPropertyOp31
 70
     1
102
RTVSPropertyOp32
 70
     1
  0
XRECORD
  5
1CF
102
{ACAD_REACTORS
330
1CE
102
}
330
1CE
100
AcDbXrecord
280
     1
102
RTVSPropertyOp0
 70
     1
102
RTVSPropertyOp1
 70
     1
102
RTVSPropertyOp2
 70
     1
102
RTVSPropertyOp3
 70
     1
102
RTVSPropertyOp4
 70
     1
102
RTVSPropertyOp5
 70
     1
102
RTVSPropertyOp6
 70
     1
102
RTVSPropertyOp7
 70
     1
102
RTVSPropertyOp8
 70
     1
102
RTVSPropertyOp9
 70
     1
102
RTVSPropertyOp10
 70
     1
102
RTVSPropertyOp11
 70
     1
102
RTVSPropertyOp12
 70
     1
102
RTVSPropertyOp13
 70
     1
102
RTVSPropertyOp14
 70
     1
102
RTVSPropertyOp15
 70
     1
102
RTVSPropertyOp16
 70
     1
102
RTVSPropertyOp17
 70
     1
102
RTVSPropertyOp18
 70
     1
102
RTVSPropertyOp19
 70
     1
102
RTVSPropertyOp20
 70
     1
102
RTVSPropertyOp21
 70
     1
102
RTVSPropertyOp22
 70
     1
102
RTVSPropertyOp23
 70
     1
102
RTVSPropertyOp24
 70
     1
102
RTVSPropertyOp25
 70
     1
102
RTVSPropertyOp26
 70
     1
102
RTVSPropertyOp27
 70
     1
102
RTVSPropertyOp28
 70
     1
102
RTVSPropertyOp29
 70
     1
102
RTVSPropertyOp30
 70
     1
102
RTVSPropertyOp31
 70
     1
102
RTVSPropertyOp32
 70
     1
  0
XRECORD
  5
1D1
102
{ACAD_REACTORS
330
1D0
102
}
330
1D0
100
AcDbXrecord
280
     1
102
RTVSPropertyOp0
 70
     1
102
RTVSPropertyOp1
 70
     1
102
RTVSPropertyOp2
 70
     1
102
RTVSPropertyOp3
 70
     1
102
RTVSPropertyOp4
 70
     1
102
RTVSPropertyOp5
 70
     1
102
RTVSPropertyOp6
 70
     1
102
RTVSPropertyOp7
 70
     1
102
RTVSPropertyOp8
 70
     1
102
RTVSPropertyOp9
 70
     1
102
RTVSPropertyOp10
 70
     1
102
RTVSPropertyOp11
 70
     1
102
RTVSPropertyOp12
 70
     1
102
RTVSPropertyOp13
 70
     1
102
RTVSPropertyOp14
 70
     1
102
RTVSPropertyOp15
 70
     1
102
RTVSPropertyOp16
 70
     1
102
RTVSPropertyOp17
 70
     1
102
RTVSPropertyOp18
 70
     1
102
RTVSPropertyOp19
 70
     1
102
RTVSPropertyOp20
 70
     1
102
RTVSPropertyOp21
 70
     1
102
RTVSPropertyOp22
 70
     1
102
RTVSPropertyOp23
 70
     1
102
RTVSPropertyOp24
 70
     1
102
RTVSPropertyOp25
 70
     1
102
RTVSPropertyOp26
 70
     1
102
RTVSPropertyOp27
 70
     1
102
RTVSPropertyOp28
 70
     1
102
RTVSPropertyOp29
 70
     1
102
RTVSPropertyOp30
 70
     1
102
RTVSPropertyOp31
 70
     1
102
RTVSPropertyOp32
 70
     1
  0
XRECORD
  5
1D9
102
{ACAD_REACTORS
330
1D8
102
}
330
1D8
100
AcDbXrecord
280
     1
102
RTVSPropertyOp0
 70
     1
102
RTVSPropertyOp1
 70
     1
102
RTVSPropertyOp2
 70
     1
102
RTVSPropertyOp3
 70
     1
102
RTVSPropertyOp4
 70
     1
102
RTVSPropertyOp5
 70
     1
102
RTVSPropertyOp6
 70
     1
102
RTVSPropertyOp7
 70
     1
102
RTVSPropertyOp8
 70
     1
102
RTVSPropertyOp9
 70
     1
102
RTVSPropertyOp10
 70
     1
102
RTVSPropertyOp11
 70
     1
102
RTVSPropertyOp12
 70
     1
102
RTVSPropertyOp13
 70
     1
102
RTVSPropertyOp14
 70
     1
102
RTVSPropertyOp15
 70
     1
102
RTVSPropertyOp16
 70
     1
102
RTVSPropertyOp17
 70
     1
102
RTVSPropertyOp18
 70
     1
102
RTVSPropertyOp19
 70
     1
102
RTVSPropertyOp20
 70
     1
102
RTVSPropertyOp21
 70
     1
102
RTVSPropertyOp22
 70
     1
102
RTVSPropertyOp23
 70
     1
102
RTVSPropertyOp24
 70
     1
102
RTVSPropertyOp25
 70
     1
102
RTVSPropertyOp26
 70
     1
102
RTVSPropertyOp27
 70
     1
102
RTVSPropertyOp28
 70
     1
102
RTVSPropertyOp29
 70
     1
102
RTVSPropertyOp30
 70
     1
102
RTVSPropertyOp31
 70
     1
102
RTVSPropertyOp32
 70
     1
  0
XRECORD
  5
1BD
102
{ACAD_REACTORS
330
1BC
102
}
330
1BC
100
AcDbXrecord
280
     1
102
RTVSPropertyOp0
 70
     1
102
RTVSPropertyOp1
 70
     1
102
RTVSPropertyOp2
 70
     1
102
RTVSPropertyOp3
 70
     1
102
RTVSPropertyOp4
 70
     1
102
RTVSPropertyOp5
 70
     1
102
RTVSPropertyOp6
 70
     1
102
RTVSPropertyOp7
 70
     1
102
RTVSPropertyOp8
 70
     1
102
RTVSPropertyOp9
 70
     1
102
RTVSPropertyOp10
 70
     1
102
RTVSPropertyOp11
 70
     1
102
RTVSPropertyOp12
 70
     1
102
RTVSPropertyOp13
 70
     1
102
RTVSPropertyOp14
 70
     1
102
RTVSPropertyOp15
 70
     1
102
RTVSPropertyOp16
 70
     1
102
RTVSPropertyOp17
 70
     1
102
RTVSPropertyOp18
 70
     1
102
RTVSPropertyOp19
 70
     1
102
RTVSPropertyOp20
 70
     1
102
RTVSPropertyOp21
 70
     1
102
RTVSPropertyOp22
 70
     1
102
RTVSPropertyOp23
 70
     1
102
RTVSPropertyOp24
 70
     1
102
RTVSPropertyOp25
 70
     1
102
RTVSPropertyOp26
 70
     1
102
RTVSPropertyOp27
 70
     1
102
RTVSPropertyOp28
 70
     1
102
RTVSPropertyOp29
 70
     1
102
RTVSPropertyOp30
 70
     1
102
RTVSPropertyOp31
 70
     1
102
RTVSPropertyOp32
 70
     1
  0
XRECORD
  5
1BF
102
{ACAD_REACTORS
330
1BE
102
}
330
1BE
100
AcDbXrecord
280
     1
102
RTVSPropertyOp0
 70
     1
102
RTVSPropertyOp1
 70
     1
102
RTVSPropertyOp2
 70
     1
102
RTVSPropertyOp3
 70
     1
102
RTVSPropertyOp4
 70
     1
102
RTVSPropertyOp5
 70
     1
102
RTVSPropertyOp6
 70
     1
102
RTVSPropertyOp7
 70
     1
102
RTVSPropertyOp8
 70
     1
102
RTVSPropertyOp9
 70
     1
102
RTVSPropertyOp10
 70
     1
102
RTVSPropertyOp11
 70
     1
102
RTVSPropertyOp12
 70
     1
102
RTVSPropertyOp13
 70
     1
102
RTVSPropertyOp14
 70
     1
102
RTVSPropertyOp15
 70
     1
102
RTVSPropertyOp16
 70
     1
102
RTVSPropertyOp17
 70
     1
102
RTVSPropertyOp18
 70
     1
102
RTVSPropertyOp19
 70
     1
102
RTVSPropertyOp20
 70
     1
102
RTVSPropertyOp21
 70
     1
102
RTVSPropertyOp22
 70
     1
102
RTVSPropertyOp23
 70
     1
102
RTVSPropertyOp24
 70
     1
102
RTVSPropertyOp25
 70
     1
102
RTVSPropertyOp26
 70
     1
102
RTVSPropertyOp27
 70
     1
102
RTVSPropertyOp28
 70
     1
102
RTVSPropertyOp29
 70
     1
102
RTVSPropertyOp30
 70
     1
102
RTVSPropertyOp31
 70
     1
102
RTVSPropertyOp32
 70
     1
  0
XRECORD
  5
1C1
102
{ACAD_REACTORS
330
1C0
102
}
330
1C0
100
AcDbXrecord
280
     1
102
RTVSPropertyOp0
 70
     1
102
RTVSPropertyOp1
 70
     1
102
RTVSPropertyOp2
 70
     1
102
RTVSPropertyOp3
 70
     1
102
RTVSPropertyOp4
 70
     1
102
RTVSPropertyOp5
 70
     1
102
RTVSPropertyOp6
 70
     1
102
RTVSPropertyOp7
 70
     1
102
RTVSPropertyOp8
 70
     1
102
RTVSPropertyOp9
 70
     1
102
RTVSPropertyOp10
 70
     1
102
RTVSPropertyOp11
 70
     1
102
RTVSPropertyOp12
 70
     1
102
RTVSPropertyOp13
 70
     1
102
RTVSPropertyOp14
 70
     1
102
RTVSPropertyOp15
 70
     1
102
RTVSPropertyOp16
 70
     1
102
RTVSPropertyOp17
 70
     1
102
RTVSPropertyOp18
 70
     1
102
RTVSPropertyOp19
 70
     1
102
RTVSPropertyOp20
 70
     1
102
RTVSPropertyOp21
 70
     1
102
RTVSPropertyOp22
 70
     1
102
RTVSPropertyOp23
 70
     1
102
RTVSPropertyOp24
 70
     1
102
RTVSPropertyOp25
 70
     1
102
RTVSPropertyOp26
 70
     1
102
RTVSPropertyOp27
 70
     1
102
RTVSPropertyOp28
 70
     1
102
RTVSPropertyOp29
 70
     1
102
RTVSPropertyOp30
 70
     1
102
RTVSPropertyOp31
 70
     1
102
RTVSPropertyOp32
 70
     1
  0
XRECORD
  5
1C3
102
{ACAD_REACTORS
330
1C2
102
}
330
1C2
100
AcDbXrecord
280
     1
102
RTVSPropertyOp0
 70
     1
102
RTVSPropertyOp1
 70
     1
102
RTVSPropertyOp2
 70
     1
102
RTVSPropertyOp3
 70
     1
102
RTVSPropertyOp4
 70
     1
102
RTVSPropertyOp5
 70
     1
102
RTVSPropertyOp6
 70
     1
102
RTVSPropertyOp7
 70
     1
102
RTVSPropertyOp8
 70
     1
102
RTVSPropertyOp9
 70
     1
102
RTVSPropertyOp10
 70
     1
102
RTVSPropertyOp11
 70
     1
102
RTVSPropertyOp12
 70
     1
102
RTVSPropertyOp13
 70
     1
102
RTVSPropertyOp14
 70
     1
102
RTVSPropertyOp15
 70
     1
102
RTVSPropertyOp16
 70
     1
102
RTVSPropertyOp17
 70
     1
102
RTVSPropertyOp18
 70
     1
102
RTVSPropertyOp19
 70
     1
102
RTVSPropertyOp20
 70
     1
102
RTVSPropertyOp21
 70
     1
102
RTVSPropertyOp22
 70
     1
102
RTVSPropertyOp23
 70
     1
102
RTVSPropertyOp24
 70
     1
102
RTVSPropertyOp25
 70
     1
102
RTVSPropertyOp26
 70
     1
102
RTVSPropertyOp27
 70
     1
102
RTVSPropertyOp28
 70
     1
102
RTVSPropertyOp29
 70
     1
102
RTVSPropertyOp30
 70
     1
102
RTVSPropertyOp31
 70
     1
102
RTVSPropertyOp32
 70
     1
  0
XRECORD
  5
1D7
102
{ACAD_REACTORS
330
1D6
102
}
330
1D6
100
AcDbXrecord
280
     1
102
RTVSPropertyOp0
 70
     1
102
RTVSPropertyOp1
 70
     1
102
RTVSPropertyOp2
 70
     1
102
RTVSPropertyOp3
 70
     1
102
RTVSPropertyOp4
 70
     1
102
RTVSPropertyOp5
 70
     1
102
RTVSPropertyOp6
 70
     1
102
RTVSPropertyOp7
 70
     1
102
RTVSPropertyOp8
 70
     1
102
RTVSPropertyOp9
 70
     1
102
RTVSPropertyOp10
 70
     1
102
RTVSPropertyOp11
 70
     1
102
RTVSPropertyOp12
 70
     1
102
RTVSPropertyOp13
 70
     1
102
RTVSPropertyOp14
 70
     1
102
RTVSPropertyOp15
 70
     1
102
RTVSPropertyOp16
 70
     1
102
RTVSPropertyOp17
 70
     1
102
RTVSPropertyOp18
 70
     1
102
RTVSPropertyOp19
 70
     1
102
RTVSPropertyOp20
 70
     1
102
RTVSPropertyOp21
 70
     1
102
RTVSPropertyOp22
 70
     1
102
RTVSPropertyOp23
 70
     1
102
RTVSPropertyOp24
 70
     1
102
RTVSPropertyOp25
 70
     1
102
RTVSPropertyOp26
 70
     1
102
RTVSPropertyOp27
 70
     1
102
RTVSPropertyOp28
 70
     1
102
RTVSPropertyOp29
 70
     1
102
RTVSPropertyOp30
 70
     1
102
RTVSPropertyOp31
 70
     1
102
RTVSPropertyOp32
 70
     1
  0
XRECORD
  5
1CD
102
{ACAD_REACTORS
330
1CC
102
}
330
1CC
100
AcDbXrecord
280
     1
102
RTVSPropertyOp0
 70
     1
102
RTVSPropertyOp1
 70
     1
102
RTVSPropertyOp2
 70
     1
102
RTVSPropertyOp3
 70
     1
102
RTVSPropertyOp4
 70
     1
102
RTVSPropertyOp5
 70
     1
102
RTVSPropertyOp6
 70
     1
102
RTVSPropertyOp7
 70
     1
102
RTVSPropertyOp8
 70
     1
102
RTVSPropertyOp9
 70
     1
102
RTVSPropertyOp10
 70
     1
102
RTVSPropertyOp11
 70
     1
102
RTVSPropertyOp12
 70
     1
102
RTVSPropertyOp13
 70
     1
102
RTVSPropertyOp14
 70
     1
102
RTVSPropertyOp15
 70
     1
102
RTVSPropertyOp16
 70
     1
102
RTVSPropertyOp17
 70
     1
102
RTVSPropertyOp18
 70
     1
102
RTVSPropertyOp19
 70
     1
102
RTVSPropertyOp20
 70
     1
102
RTVSPropertyOp21
 70
     1
102
RTVSPropertyOp22
 70
     1
102
RTVSPropertyOp23
 70
     1
102
RTVSPropertyOp24
 70
     1
102
RTVSPropertyOp25
 70
     1
102
RTVSPropertyOp26
 70
     1
102
RTVSPropertyOp27
 70
     1
102
RTVSPropertyOp28
 70
     1
102
RTVSPropertyOp29
 70
     1
102
RTVSPropertyOp30
 70
     1
102
RTVSPropertyOp31
 70
     1
102
RTVSPropertyOp32
 70
     1
  0
XRECORD
  5
1D5
102
{ACAD_REACTORS
330
1D4
102
}
330
1D4
100
AcDbXrecord
280
     1
102
RTVSPropertyOp0
 70
     1
102
RTVSPropertyOp1
 70
     1
102
RTVSPropertyOp2
 70
     1
102
RTVSPropertyOp3
 70
     1
102
RTVSPropertyOp4
 70
     1
102
RTVSPropertyOp5
 70
     1
102
RTVSPropertyOp6
 70
     1
102
RTVSPropertyOp7
 70
     1
102
RTVSPropertyOp8
 70
     1
102
RTVSPropertyOp9
 70
     1
102
RTVSPropertyOp10
 70
     1
102
RTVSPropertyOp11
 70
     1
102
RTVSPropertyOp12
 70
     1
102
RTVSPropertyOp13
 70
     1
102
RTVSPropertyOp14
 70
     1
102
RTVSPropertyOp15
 70
     1
102
RTVSPropertyOp16
 70
     1
102
RTVSPropertyOp17
 70
     1
102
RTVSPropertyOp18
 70
     1
102
RTVSPropertyOp19
 70
     1
102
RTVSPropertyOp20
 70
     1
102
RTVSPropertyOp21
 70
     1
102
RTVSPropertyOp22
 70
     1
102
RTVSPropertyOp23
 70
     1
102
RTVSPropertyOp24
 70
     1
102
RTVSPropertyOp25
 70
     1
102
RTVSPropertyOp26
 70
     1
102
RTVSPropertyOp27
 70
     1
102
RTVSPropertyOp28
 70
     1
102
RTVSPropertyOp29
 70
     1
102
RTVSPropertyOp30
 70
     1
102
RTVSPropertyOp31
 70
     1
102
RTVSPropertyOp32
 70
     1
  0
ENDSEC
  0
EOF
