  0
SECTION
  2
HEADER
  9
$ACADVER
  1
AC1018
  9
$ACADMAINTVER
 70
     0
  9
$DWGCODEPAGE
  3
ANSI_1252
  9
$INSBASE
 10
0.0
 20
0.0
 30
0.0
  9
$EXTMIN
 10
1.000000000000000E+20
 20
1.000000000000000E+20
 30
1.000000000000000E+20
  9
$EXTMAX
 10
-1.000000000000000E+20
 20
-1.000000000000000E+20
 30
-1.000000000000000E+20
  9
$LIMMIN
 10
0.0
 20
0.0
  9
$LIMMAX
 10
420.0
 20
297.0
  9
$ORTHOMODE
 70
     0
  9
$REGENMODE
 70
     1
  9
$FILLMODE
 70
     1
  9
$QTEXTMODE
 70
     0
  9
$MIRRTEXT
 70
     0
  9
$LTSCALE
 40
1.0
  9
$ATTMODE
 70
     1
  9
$TEXTSIZE
 40
2.5
  9
$TRACEWID
 40
1.0
  9
$TEXTSTYLE
  7
Standard
  9
$CLAYER
  8
0
  9
$CELTYPE
  6
ByLayer
  9
$CECOLOR
 62
   256
  9
$CELTSCALE
 40
1.0
  9
$DISPSILH
 70
     0
  9
$DIMSCALE
 40
1.0
  9
$DIMASZ
 40
2.5
  9
$DIMEXO
 40
0.625
  9
$DIMDLI
 40
3.75
  9
$DIMRND
 40
0.0
  9
$DIMDLE
 40
0.0
  9
$DIMEXE
 40
1.25
  9
$DIMTP
 40
0.0
  9
$DIMTM
 40
0.0
  9
$DIMTXT
 40
2.5
  9
$DIMCEN
 40
2.5
  9
$DIMTSZ
 40
0.0
  9
$DIMTOL
 70
     0
  9
$DIMLIM
 70
     0
  9
$DIMTIH
 70
     1
  9
$DIMTOH
 70
     0
  9
$DIMSE1
 70
     0
  9
$DIMSE2
 70
     0
  9
$DIMTAD
 70
     1
  9
$DIMZIN
 70
     8
  9
$DIMBLK
  1

  9
$DIMASO
 70
     1
  9
$DIMSHO
 70
     1
  9
$DIMPOST
  1

  9
$DIMAPOST
  1

  9
$DIMALT
 70
     0
  9
$DIMALTD
 70
     2
  9
$DIMALTF
 40
0.0394
  9
$DIMLFAC
 40
1.0
  9
$DIMTOFL
 70
     1
  9
$DIMTVP
 40
1.0
  9
$DIMTIX
 70
     0
  9
$DIMSOXD
 70
     0
  9
$DIMSAH
 70
     0
  9
$DIMBLK1
  1

  9
$DIMBLK2
  1

  9
$DIMSTYLE
  2
DIN
  9
$DIMCLRD
 70
     0
  9
$DIMCLRE
 70
     0
  9
$DIMCLRT
 70
     0
  9
$DIMTFAC
 40
1.0
  9
$DIMGAP
 40
0.625
  9
$DIMJUST
 70
     0
  9
$DIMSD1
 70
     0
  9
$DIMSD2
 70
     0
  9
$DIMTOLJ
 70
     1
  9
$DIMTZIN
 70
     0
  9
$DIMALTZ
 70
     0
  9
$DIMALTTZ
 70
     0
  9
$DIMUPT
 70
     0
  9
$DIMDEC
 70
     4
  9
$DIMTDEC
 70
     4
  9
$DIMALTU
 70
     8
  9
$DIMALTTD
 70
     2
  9
$DIMTXSTY
  7
Standard
  9
$DIMAUNIT
 70
     0
  9
$DIMADEC
 70
     0
  9
$DIMALTRND
 40
0.0
  9
$DIMAZIN
 70
     0
  9
$DIMDSEP
 70
    46
  9
$DIMATFIT
 70
     3
  9
$DIMFRAC
 70
     0
  9
$DIMLDRBLK
  1

  9
$DIMLUNIT
 70
     6
  9
$DIMLWD
 70
    -2
  9
$DIMLWE
 70
    -2
  9
$DIMTMOVE
 70
     0
  9
$LUNITS
 70
     2
  9
$LUPREC
 70
     4
  9
$SKETCHINC
 40
1.0
  9
$FILLETRAD
 40
0.0
  9
$AUNITS
 70
     0
  9
$AUPREC
 70
     0
  9
$MENU
  1
.
  9
$ELEVATION
 40
0.0
  9
$PELEVATION
 40
0.0
  9
$THICKNESS
 40
0.0
  9
$LIMCHECK
 70
     0
  9
$CHAMFERA
 40
0.0
  9
$CHAMFERB
 40
0.0
  9
$CHAMFERC
 40
0.0
  9
$CHAMFERD
 40
0.0
  9
$SKPOLY
 70
     0
  9
$TDCREATE
 40
2456631.712192072
  9
$TDUCREATE
 40
2456631.670525405
  9
$TDUPDATE
 40
2456631.715277929
  9
$TDUUPDATE
 40
2456631.673611262
  9
$TDINDWG
 40
0.0030864699
  9
$TDUSRTIMER
 40
0.0030863542
  9
$USRTIMER
 70
     1
  9
$ANGBASE
 50
0.0
  9
$ANGDIR
 70
     0
  9
$PDMODE
 70
     0
  9
$PDSIZE
 40
0.0
  9
$PLINEWID
 40
0.0
  9
$SPLFRAME
 70
     0
  9
$SPLINETYPE
 70
     6
  9
$SPLINESEGS
 70
     8
  9
$HANDSEED
  5
170
  9
$SURFTAB1
 70
     6
  9
$SURFTAB2
 70
     6
  9
$SURFTYPE
 70
     6
  9
$SURFU
 70
     6
  9
$SURFV
 70
     6
  9
$UCSBASE
  2

  9
$UCSNAME
  2

  9
$UCSORG
 10
0.0
 20
0.0
 30
0.0
  9
$UCSXDIR
 10
1.0
 20
0.0
 30
0.0
  9
$UCSYDIR
 10
0.0
 20
1.0
 30
0.0
  9
$UCSORTHOREF
  2

  9
$UCSORTHOVIEW
 70
     0
  9
$UCSORGTOP
 10
0.0
 20
0.0
 30
0.0
  9
$UCSORGBOTTOM
 10
0.0
 20
0.0
 30
0.0
  9
$UCSORGLEFT
 10
0.0
 20
0.0
 30
0.0
  9
$UCSORGRIGHT
 10
0.0
 20
0.0
 30
0.0
  9
$UCSORGFRONT
 10
0.0
 20
0.0
 30
0.0
  9
$UCSORGBACK
 10
0.0
 20
0.0
 30
0.0
  9
$PUCSBASE
  2

  9
$PUCSNAME
  2

  9
$PUCSORG
 10
0.0
 20
0.0
 30
0.0
  9
$PUCSXDIR
 10
1.0
 20
0.0
 30
0.0
  9
$PUCSYDIR
 10
0.0
 20
1.0
 30
0.0
  9
$PUCSORTHOREF
  2

  9
$PUCSORTHOVIEW
 70
     0
  9
$PUCSORGTOP
 10
0.0
 20
0.0
 30
0.0
  9
$PUCSORGBOTTOM
 10
0.0
 20
0.0
 30
0.0
  9
$PUCSORGLEFT
 10
0.0
 20
0.0
 30
0.0
  9
$PUCSORGRIGHT
 10
0.0
 20
0.0
 30
0.0
  9
$PUCSORGFRONT
 10
0.0
 20
0.0
 30
0.0
  9
$PUCSORGBACK
 10
0.0
 20
0.0
 30
0.0
  9
$USERI1
 70
     0
  9
$USERI2
 70
     0
  9
$USERI3
 70
     0
  9
$USERI4
 70
     0
  9
$USERI5
 70
     0
  9
$USERR1
 40
0.0
  9
$USERR2
 40
0.0
  9
$USERR3
 40
0.0
  9
$USERR4
 40
0.0
  9
$USERR5
 40
0.0
  9
$WORLDVIEW
 70
     1
  9
$SHADEDGE
 70
     3
  9
$SHADEDIF
 70
    70
  9
$TILEMODE
 70
     0
  9
$MAXACTVP
 70
    64
  9
$PINSBASE
 10
0.0
 20
0.0
 30
0.0
  9
$PLIMCHECK
 70
     0
  9
$PEXTMIN
 10
-124.1217456465556
 20
0.0
 30
0.0
  9
$PEXTMAX
 10
680.2661690848606
 20
345.2316954776694
 30
0.0
  9
$PLIMMIN
 10
-0.0025160616987048
 20
0.0012574807486843
  9
$PLIMMAX
 10
209.9974839383013
 20
297.0012574807487
  9
$UNITMODE
 70
     0
  9
$VISRETAIN
 70
     1
  9
$PLINEGEN
 70
     0
  9
$PSLTSCALE
 70
     1
  9
$TREEDEPTH
 70
  3020
  9
$CMLSTYLE
  2
Standard
  9
$CMLJUST
 70
     0
  9
$CMLSCALE
 40
20.0
  9
$PROXYGRAPHICS
 70
     1
  9
$MEASUREMENT
 70
     1
  9
$CELWEIGHT
370
    -1
  9
$ENDCAPS
280
     0
  9
$JOINSTYLE
280
     0
  9
$LWDISPLAY
290
     0
  9
$INSUNITS
 70
     4
  9
$HYPERLINKBASE
  1

  9
$STYLESHEET
  1

  9
$XEDIT
290
     1
  9
$CEPSNTYPE
380
     0
  9
$PSTYLEMODE
290
     1
  9
$FINGERPRINTGUID
  2
{FDEAD570-A652-11D2-9A35-0060089B3A3F}
  9
$VERSIONGUID
  2
{CC174A63-3328-4E4F-9D2D-EB1078B7574B}
  9
$EXTNAMES
290
     1
  9
$PSVPSCALE
 40
0.0
  9
$OLESTARTUP
290
     0
  9
$SORTENTS
280
   127
  9
$INDEXCTL
280
     0
  9
$HIDETEXT
280
     1
  9
$XCLIPFRAME
290
     0
  9
$HALOGAP
280
     0
  9
$OBSCOLOR
 70
   257
  9
$OBSLTYPE
280
     0
  9
$INTERSECTIONDISPLAY
280
     0
  9
$INTERSECTIONCOLOR
 70
   257
  9
$DIMASSOC
280
     2
  9
$PROJECTNAME
  1

  0
ENDSEC
  0
SECTION
  2
CLASSES
  0
CLASS
  1
ACDBDICTIONARYWDFLT
  2
AcDbDictionaryWithDefault
  3
ObjectDBX Classes
 90
        0
 91
        1
280
     0
281
     0
  0
CLASS
  1
PLOTSETTINGS
  2
AcDbPlotSettings
  3
ObjectDBX Classes
 90
        0
 91
        1
280
     0
281
     0
  0
CLASS
  1
DICTIONARYVAR
  2
AcDbDictionaryVar
  3
ObjectDBX Classes
 90
        0
 91
        2
280
     0
281
     0
  0
CLASS
  1
SORTENTSTABLE
  2
AcDbSortentsTable
  3
ObjectDBX Classes
 90
        0
 91
        1
280
     0
281
     0
  0
ENDSEC
  0
SECTION
  2
TABLES
  0
TABLE
  2
VPORT
  5
8
330
0
100
AcDbSymbolTable
 70
     1
  0
VPORT
  5
124
330
8
100
AcDbSymbolTableRecord
100
AcDbViewportTableRecord
  2
*Active
 70
     0
 10
0.0
 20
0.0
 11
1.0
 21
1.0
 12
320.3190188168436
 22
148.4999999999999
 13
0.0
 23
0.0
 14
10.0
 24
10.0
 15
10.0
 25
10.0
 16
0.0
 26
0.0
 36
1.0
 17
0.0
 27
0.0
 37
0.0
 40
346.2099154884788
 41
1.860887096774193
 42
50.0
 43
0.0
 44
0.0
 50
0.0
 51
0.0
 71
     0
 72
  1000
 73
     1
 74
     3
 75
     0
 76
     0
 77
     0
 78
     0
281
     0
 65
     1
110
0.0
120
0.0
130
0.0
111
1.0
121
0.0
131
0.0
112
0.0
122
1.0
132
0.0
 79
     0
146
0.0
  0
ENDTAB
  0
TABLE
  2
LTYPE
  5
5
330
0
100
AcDbSymbolTable
 70
     1
  0
LTYPE
  5
14
330
5
100
AcDbSymbolTableRecord
100
AcDbLinetypeTableRecord
  2
ByBlock
 70
     0
  3

 72
    65
 73
     0
 40
0.0
  0
LTYPE
  5
15
330
5
100
AcDbSymbolTableRecord
100
AcDbLinetypeTableRecord
  2
ByLayer
 70
     0
  3

 72
    65
 73
     0
 40
0.0
  0
LTYPE
  5
16
330
5
100
AcDbSymbolTableRecord
100
AcDbLinetypeTableRecord
  2
Continuous
 70
     0
  3
Solid line
 72
    65
 73
     0
 40
0.0
  0
ENDTAB
  0
TABLE
  2
LAYER
  5
2
102
{ACAD_XDICTIONARY
360
158
102
}
330
0
100
AcDbSymbolTable
 70
     5
  0
LAYER
  5
10
330
2
100
AcDbSymbolTableRecord
100
AcDbLayerTableRecord
  2
0
 70
     0
 62
     7
  6
Continuous
370
    -3
390
F
  0
LAYER
  5
A7
330
2
100
AcDbSymbolTableRecord
100
AcDbLayerTableRecord
  2
07
 70
     0
 62
     7
  6
Continuous
370
    -3
390
F
  0
LAYER
  5
A8
330
2
100
AcDbSymbolTableRecord
100
AcDbLayerTableRecord
  2
035
 70
     0
 62
     5
  6
Continuous
370
    -3
390
F
  0
LAYER
  5
A9
330
2
100
AcDbSymbolTableRecord
100
AcDbLayerTableRecord
  2
05
 70
     0
 62
     6
  6
Continuous
370
    -3
390
F
  0
LAYER
  5
AA
330
2
100
AcDbSymbolTableRecord
100
AcDbLayerTableRecord
  2
025
 70
     0
 62
     1
  6
Continuous
370
    -3
390
F
  0
ENDTAB
  0
TABLE
  2
STYLE
  5
3
330
0
100
AcDbSymbolTable
 70
     2
  0
STYLE
  5
11
330
3
100
AcDbSymbolTableRecord
100
AcDbTextStyleTableRecord
  2
Standard
 70
     0
 40
0.0
 41
1.0
 50
0.0
 71
     0
 42
2.5
  3
txt
  4

  0
STYLE
  5
AC
330
3
100
AcDbSymbolTableRecord
100
AcDbTextStyleTableRecord
  2
ISO Proportional
 70
     0
 40
0.0
 41
1.0
 50
0.0
 71
     0
 42
2.5
  3
isocp.shx
  4

  0
ENDTAB
  0
TABLE
  2
VIEW
  5
6
330
0
100
AcDbSymbolTable
 70
     0
  0
ENDTAB
  0
TABLE
  2
UCS
  5
7
330
0
100
AcDbSymbolTable
 70
     0
  0
ENDTAB
  0
TABLE
  2
APPID
  5
9
330
0
100
AcDbSymbolTable
 70
    11
  0
APPID
  5
12
330
9
100
AcDbSymbolTableRecord
100
AcDbRegAppTableRecord
  2
ACAD
 70
     0
  0
APPID
  5
AE
330
9
100
AcDbSymbolTableRecord
100
AcDbRegAppTableRecord
  2
GENIUS_GENTRA_14
 70
     0
  0
APPID
  5
AF
330
9
100
AcDbSymbolTableRecord
100
AcDbRegAppTableRecord
  2
GENIUS_GENODEF_13
 70
     0
  0
APPID
  5
B0
330
9
100
AcDbSymbolTableRecord
100
AcDbRegAppTableRecord
  2
GENIUS_GENOBJ-N-TIT_13
 70
     0
  0
APPID
  5
B1
330
9
100
AcDbSymbolTableRecord
100
AcDbRegAppTableRecord
  2
GENIUS_GENTITLE_13
 70
     0
  0
APPID
  5
B2
330
9
100
AcDbSymbolTableRecord
100
AcDbRegAppTableRecord
  2
GENIUS_GENOENT_13
 70
     0
  0
APPID
  5
B3
330
9
100
AcDbSymbolTableRecord
100
AcDbRegAppTableRecord
  2
GENIUS_GENOREF_13
 70
     0
  0
APPID
  5
B4
330
9
100
AcDbSymbolTableRecord
100
AcDbRegAppTableRecord
  2
GENIUS_GENOLIS_13
 70
     0
  0
APPID
  5
B5
330
9
100
AcDbSymbolTableRecord
100
AcDbRegAppTableRecord
  2
GENIUS_GENOBJ-N-SDF_13
 70
     0
  0
APPID
  5
B6
330
9
100
AcDbSymbolTableRecord
100
AcDbRegAppTableRecord
  2
GENIUS_GENSCREG_13
 70
     0
  0
APPID
  5
157
330
9
100
AcDbSymbolTableRecord
100
AcDbRegAppTableRecord
  2
ACAD_PSEXT
 70
     0
  0
ENDTAB
  0
TABLE
  2
DIMSTYLE
  5
A
330
0
100
AcDbSymbolTable
 70
     2
100
AcDbDimStyleTable
 71
     1
340
7F
  0
DIMSTYLE
105
7F
330
A
100
AcDbSymbolTableRecord
100
AcDbDimStyleTableRecord
  2
DIN
 70
     0
 41
2.5
 42
0.625
 43
3.75
 44
1.25
 74
     0
 77
     1
 78
     8
140
2.5
141
2.5
143
0.0394
145
1.0
147
0.625
172
     1
273
     8
277
     6
340
11
  0
DIMSTYLE
105
156
330
A
100
AcDbSymbolTableRecord
100
AcDbDimStyleTableRecord
  2
STANDARD
 70
     0
340
11
  0
ENDTAB
  0
TABLE
  2
BLOCK_RECORD
  5
1
330
0
100
AcDbSymbolTable
 70
     3
  0
BLOCK_RECORD
  5
1F
330
1
100
AcDbSymbolTableRecord
100
AcDbBlockTableRecord
  2
*Model_Space
340
22
  0
BLOCK_RECORD
  5
1B
330
1
100
AcDbSymbolTableRecord
100
AcDbBlockTableRecord
  2
*Paper_Space
340
1E
  0
BLOCK_RECORD
  5
B7
330
1
100
AcDbSymbolTableRecord
100
AcDbBlockTableRecord
  2
DIN A4 title block
340
0
310
2800000020000000200000000100080000000000000400000000000000000000000000000000000000000000000080000080000000808000800000008000800080800000C0C0C000C0DCC000F0CAA6000020400000206000002080000020A0000020C0000020E00000400000004020000040400000406000004080000040A0
310
000040C0000040E00000600000006020000060400000606000006080000060A0000060C0000060E00000800000008020000080400000806000008080000080A0000080C0000080E00000A0000000A0200000A0400000A0600000A0800000A0A00000A0C00000A0E00000C0000000C0200000C0400000C0600000C0800000C0
310
A00000C0C00000C0E00000E0000000E0200000E0400000E0600000E0800000E0A00000E0C00000E0E00040000000400020004000400040006000400080004000A0004000C0004000E00040200000402020004020400040206000402080004020A0004020C0004020E000404000004040200040404000404060004040800040
310
40A0004040C0004040E00040600000406020004060400040606000406080004060A0004060C0004060E00040800000408020004080400040806000408080004080A0004080C0004080E00040A0000040A0200040A0400040A0600040A0800040A0A00040A0C00040A0E00040C0000040C0200040C0400040C0600040C08000
310
40C0A00040C0C00040C0E00040E0000040E0200040E0400040E0600040E0800040E0A00040E0C00040E0E00080000000800020008000400080006000800080008000A0008000C0008000E00080200000802020008020400080206000802080008020A0008020C0008020E00080400000804020008040400080406000804080
310
008040A0008040C0008040E00080600000806020008060400080606000806080008060A0008060C0008060E00080800000808020008080400080806000808080008080A0008080C0008080E00080A0000080A0200080A0400080A0600080A0800080A0A00080A0C00080A0E00080C0000080C0200080C0400080C0600080C0
310
800080C0A00080C0C00080C0E00080E0000080E0200080E0400080E0600080E0800080E0A00080E0C00080E0E000C0000000C0002000C0004000C0006000C0008000C000A000C000C000C000E000C0200000C0202000C0204000C0206000C0208000C020A000C020C000C020E000C0400000C0402000C0404000C0406000C0
310
408000C040A000C040C000C040E000C0600000C0602000C0604000C0606000C0608000C060A000C060C000C060E000C0800000C0802000C0804000C0806000C0808000C080A000C080C000C080E000C0A00000C0A02000C0A04000C0A06000C0A08000C0A0A000C0A0C000C0A0E000C0C00000C0C02000C0C04000C0C06000
310
C0C08000C0C0A000F0FBFF00A4A0A000808080000000FF0000FF000000FFFF00FF000000FF00FF00FFFF0000FFFFFF00FFFFFFFFFFFFFFFFFFFFFFFFFFFFFFFFFFFFFFFFFFFFFFFFFFFFFFFFFFFFFFFFFFFFFFFFFFFFFFFFFFFFFFFFFFFFFFFFFFFFFFFFFFFFFFFFFFFFFFFFFFFFFFFFFFFFFFFFFFFFFFFFFFFFFFFFFFFFFF
310
FFFFFFFFFFFFFFFFFFFFFFFFFFFFFFFFFFFFFFFFFFFFFFFFFFFFFFFFFFFFFFFFFFFFFFFFFFFFFFFFFFFFFFFFFFFFFFFFFFFFFFFFFFFFFFFFFFFFFFFFFFFFFFFFFFFFFFFFFFFFFFFFFFFFFFFFFFFFFFFFFFFFFFFFFFFFFFFFFFFFFFFFFFFFFFFFFFFFFFFFFFFFFFFFFFFFFFFFFFFFFFFFFFFFFFFFFFFFFFFFFFFFFFFFFFFFFF
310
FFFFFFFFFFFFFFFFFFFFFFFFFFFFFFFFFFFFFFFFFFFFFFFFFFFFFFFFFFFFFFFFFFFFFFFFFFFFFFFFFFFFFFFFFFFFFFFFFFFFFFFFFFFFFFFFFFFFFFFFFFFFFFFFFFFFFFFFFFFFFFFFFFFFFFFFFFFFFFFFFFFFFFFFFFFFFFFFFFFFFFFFFFFFFFFFFFFFFFFFFFFFFFFFFFFFFFFFFFFFFFFFFFFFFFFFFFFFFFFCFC000000000000
310
0000000000FFFFFFFFFFFFFFFFFFFFFFFFFFFFFFFFFFFFFFFC00FCFCF9F9F900FDFDFD0000FFFFFFFFFFFFFFFFFFFFFFFFFFFFFFFFFFFFFFFC00FCFCF9F9F9F9F9F9FD0000FFFFFFFFFFFFFFFFFFFFFFFFFFFFFFFFFFFFFFFC00F9F9F9F9FCF9F9F9FCFC00FFFFFFFFFFFFFFFFFFFFFFFFFFFFFFFFFFFFFFFC00FFFFFFFFFF
310
FFFFFFFFFF00FFFFFFFFFFFFFFFFFFFFFFFFFFFFFFFFFFFFFFFC00FFFFFFFFFFFFFFFFFFFF00FFFFFFFFFFFFFFFFFFFFFFFFFFFFFFFFFFFFFFFC00FFFFFFFFFFFFFFFFFFFF00FFFFFFFFFFFFFFFFFFFFFFFFFFFFFFFFFFFFFFFC00FFFFFFFFFFFFFFFFFFFF00FFFFFFFFFFFFFFFFFFFFFFFFFFFFFFFFFFFFFFFC0000FFFFFF
310
FFFFFFFFFFFF00FFFFFFFFFFFFFFFFFFFFFFFFFFFFFFFFFFFFFFFC00FFFFFFFFFFFFFFFFFFFF00FFFFFFFFFFFFFFFFFFFFFFFFFFFFFFFFFFFFFFFC00FFFFFFFFFFFFFFFFFFFF00FFFFFFFFFFFFFFFFFFFFFFFFFFFFFFFFFFFFFFFC00FFFFFFFFFFFFFFFFFFFF00FFFFFFFFFFFFFFFFFFFFFFFFFFFFFFFFFFFFFFFC00FFFFFF
310
FFFFFFFFFFFFFF00FFFFFFFFFFFFFFFFFFFFFFFFFFFFFFFFFFFFFFFC00FFFFFFFFFFFFFFFFFFFF00FFFFFFFFFFFFFFFFFFFFFFFFFFFFFFFFFFFFFFFC00FFFFFFFFFFFFFFFFFFFF00FFFFFFFFFFFFFFFFFFFFFFFFFFFFFFFFFFFFFFFCFC0000000000000000000000FFFFFFFFFFFFFFFFFFFFFFFFFFFFFFFFFFFFFFFCFCFCFC
310
FCFCFCFCFCFCFCFCFCFFFFFFFFFFFFFFFFFFFFFFFFFFFFFFFFFFFFFFFFFFFFFFFFFFFFFFFFFFFFFFFFFFFFFFFFFFFFFFFFFFFFFFFFFFFFFFFFFFFFFFFFFFFFFFFFFFFFFFFFFFFFFFFFFFFFFFFFFFFFFFFFFFFFFFFFFFFFFFFFFFFFFFFFFFFFFFFFFFFFFFFFFFFFFFFFFFFFFFFFFFFFFFFFFFFFFFFFFFFFFFFFFFFFFFFFFFFF
310
FFFFFFFFFFFFFFFFFFFFFFFFFFFFFFFFFFFFFFFFFFFFFFFFFFFFFFFFFFFFFFFFFFFFFFFFFFFFFFFFFFFFFFFFFFFFFFFFFFFFFFFFFFFFFFFF
1001
ACAD
1000
DesignCenter Data
1002
{
1070
     1
1070
     4
1002
}
  0
ENDTAB
  0
ENDSEC
  0
SECTION
  2
BLOCKS
  0
BLOCK
  5
20
330
1F
100
AcDbEntity
  8
0
100
AcDbBlockBegin
  2
*Model_Space
 70
     0
 10
0.0
 20
0.0
 30
0.0
  3
*Model_Space
  1

  0
ENDBLK
  5
21
330
1F
100
AcDbEntity
  8
0
100
AcDbBlockEnd
  0
BLOCK
  5
1C
330
1B
100
AcDbEntity
 67
     1
  8
0
100
AcDbBlockBegin
  2
*Paper_Space
 70
     0
 10
0.0
 20
0.0
 30
0.0
  3
*Paper_Space
  1

  0
ENDBLK
  5
1D
330
1B
100
AcDbEntity
 67
     1
  8
0
100
AcDbBlockEnd
  0
BLOCK
  5
113
330
B7
100
AcDbEntity
  8
0
100
AcDbBlockBegin
  2
DIN A4 title block
 70
     2
 10
0.0
 20
0.0
 30
0.0
  3
DIN A4 title block
  1

  0
POINT
  5
B8
330
B7
100
AcDbEntity
  8
0
 60
     1
100
AcDbPoint
 10
-74.53732271998524
 20
-81.4578948525783
 30
0.0
1001
GENIUS_GENOBJ-N-TIT_13
1002
{
1000
OWNER
1000
GEN
1002
}
1001
GENIUS_GENOENT_13
1002
{
1000
MYREF
1005
B8
1002
}
1002
{
1000
GRP
1005
0
1002
}
1001
GENIUS_GENOLIS_13
1002
{
1000
ENT
1005
0
1005
0
1002
}
1001
GENIUS_GENTITLE_13
1002
{
1000
SCALE
1000
1:1
1002
}
1002
{
1000
BORDER
1000
GEN_A3
1002
}
1002
{
1000
TITLE
1000
GENTITLE
1002
}
1002
{
1000
UNCHG
1002
{
1000
GEN-TITLE-SCA
1000
GEN-TITLE-SIZ
1002
}
1002
}
1002
{
1000
HRA
1005
0
1002
}
1002
{
1000
HTIT
1005
0
1002
}
1002
{
1000
GENIUSID
1005
B8
1002
}
1001
GENIUS_GENODEF_13
1002
{
1000
HIER
1070
     1
1002
}
1002
{
1000
MANEDIT
1070
     0
1002
}
1002
{
1000
NOSEL
1070
     0
1002
}
1002
{
1000
BEHIND
1070
     0
1002
}
1002
{
1000
REACTOR
1002
}
  0
TEXT
  5
B9
330
B7
100
AcDbEntity
  8
0
 60
     1
100
AcDbText
 10
420.0
 20
297.0
 30
0.0
 40
2.0
  1
!GENTITLE-MAX
100
AcDbText
  0
TEXT
  5
BA
330
B7
100
AcDbEntity
  8
0
 60
     1
100
AcDbText
 10
410.0
 20
287.0
 30
0.0
 40
2.0
  1
!GENTITLE-RU
100
AcDbText
  0
TEXT
  5
BB
330
B7
100
AcDbEntity
  8
0
 60
     1
100
AcDbText
 10
409.9999999999999
 20
5.0
 30
0.0
 40
2.0
  1
!GENTITLE-INSERT
100
AcDbText
  0
TEXT
  5
BC
330
B7
100
AcDbEntity
  8
0
 60
     1
100
AcDbText
 10
10.0
 20
10.00000000000005
 30
0.0
 40
2.0
  1
!GENTITLE-LL
100
AcDbText
  0
MTEXT
  5
BD
330
B7
100
AcDbEntity
  8
025
100
AcDbMText
 10
99.28585028279464
 20
58.475493291171
 30
0.0
 40
2.5
 41
17.3141
 71
     1
 72
     5
  1
(Oberfl.)
  7
ISO Proportional
 73
     1
 44
1.0
  0
TEXT
  5
BE
330
B7
100
AcDbEntity
  8
025
100
AcDbText
 10
103.1733221513884
 20
39.875
 30
0.0
 40
2.5
  1
Name
  7
ISO Proportional
100
AcDbText
  0
ATTDEF
  5
BF
330
B7
100
AcDbEntity
  8
025
100
AcDbText
 10
99.71813410214213
 20
31.45603256725528
 30
0.0
 40
2.5
  1
XXX
  7
ISO Proportional
100
AcDbAttributeDefinition
  3
Geprüft von
  2
NAME
 70
     0
  0
ATTDEF
  5
C0
330
B7
100
AcDbEntity
  8
025
100
AcDbText
 10
99.71813410214213
 20
35.70603256725528
 30
0.0
 40
2.5
  1
XXX
  7
ISO Proportional
100
AcDbAttributeDefinition
  3
Gezeichnet von
  2
NAME
 70
     0
  0
LINE
  5
C1
330
B7
100
AcDbEntity
  8
035
100
AcDbLine
 10
17.80000000000007
 20
26.25
 30
0.0
 11
116.5999999999999
 21
26.25
 31
0.0
  0
LINE
  5
C2
330
B7
100
AcDbEntity
  8
035
100
AcDbLine
 10
17.80000000000007
 20
30.5
 30
0.0
 11
116.5999999999999
 21
30.5
 31
0.0
  0
LINE
  5
C3
330
B7
100
AcDbEntity
  8
035
100
AcDbLine
 10
17.80000000000007
 20
34.75
 30
0.0
 11
116.5999999999999
 21
34.75
 31
0.0
  0
LINE
  5
C4
330
B7
100
AcDbEntity
  8
035
100
AcDbLine
 10
17.80000000000007
 20
39.0
 30
0.0
 11
116.5999999999999
 21
39.0
 31
0.0
  0
LINE
  5
C5
330
B7
100
AcDbEntity
  8
07
100
AcDbLine
 10
17.79999999999995
 20
5.0
 30
0.0
 11
204.9999999999998
 21
5.0
 31
0.0
  0
LINE
  5
C6
330
B7
100
AcDbEntity
  8
07
100
AcDbLine
 10
17.80000000000007
 20
5.0
 30
0.0
 11
204.9999999999998
 21
5.0
 31
0.0
  0
LINE
  5
C7
330
B7
100
AcDbEntity
  8
07
100
AcDbLine
 10
17.80000000000007
 20
43.25
 30
0.0
 11
205.0
 21
43.25
 31
0.0
  0
LINE
  5
C8
330
B7
100
AcDbEntity
  8
07
100
AcDbLine
 10
17.80000000000007
 20
60.25
 30
0.0
 11
205.0
 21
60.25
 31
0.0
  0
LINE
  5
C9
330
B7
100
AcDbEntity
  8
035
100
AcDbLine
 10
17.80000000000007
 20
9.25
 30
0.0
 11
204.9999999999998
 21
9.25
 31
0.0
  0
LINE
  5
CA
330
B7
100
AcDbEntity
  8
07
100
AcDbLine
 10
72.39999999999986
 20
22.0
 30
0.0
 11
204.9999999999998
 21
22.0
 31
0.0
  0
TEXT
  5
CB
330
B7
100
AcDbEntity
  8
025
100
AcDbText
 10
73.65231252739363
 20
5.875
 30
0.0
 40
2.5
  1
(Urspr.)
  7
ISO Proportional
100
AcDbText
  0
TEXT
  5
CC
330
B7
100
AcDbEntity
  8
025
100
AcDbText
 10
53.41162858072426
 20
5.875
 30
0.0
 40
2.5
  1
Datum
  7
ISO Proportional
100
AcDbText
  0
TEXT
  5
CD
330
B7
100
AcDbEntity
  8
025
100
AcDbText
 10
64.67503184848215
 20
5.875
 30
0.0
 40
2.5
  1
Name
  7
ISO Proportional
100
AcDbText
  0
LINE
  5
CE
330
B7
100
AcDbEntity
  8
035
100
AcDbLine
 10
51.60000000000014
 20
43.25
 30
0.0
 11
51.60000000000014
 21
5.0
 31
0.0
  0
LINE
  5
CF
330
B7
100
AcDbEntity
  8
07
100
AcDbLine
 10
72.39999999999986
 20
60.25
 30
0.0
 11
72.39999999999986
 21
5.0
 31
0.0
  0
LINE
  5
D0
330
B7
100
AcDbEntity
  8
035
100
AcDbLine
 10
64.60000000000014
 20
43.25
 30
0.0
 11
64.60000000000014
 21
5.0
 31
0.0
  0
TEXT
  5
D1
330
B7
100
AcDbEntity
  8
025
100
AcDbText
 10
18.11472997742589
 20
5.875
 30
0.0
 40
2.5
  1
Zust.
  7
ISO Proportional
100
AcDbText
  0
LINE
  5
D2
330
B7
100
AcDbEntity
  8
035
100
AcDbLine
 10
25.60000000000002
 20
43.25
 30
0.0
 11
25.60000000000002
 21
5.0
 31
0.0
  0
LINE
  5
D3
330
B7
100
AcDbEntity
  8
07
100
AcDbLine
 10
17.79999999999984
 20
60.25
 30
0.0
 11
17.79999999999984
 21
5.0
 31
0.0
  0
TEXT
  5
D4
330
B7
100
AcDbEntity
  8
025
100
AcDbText
 10
31.18543904041587
 20
5.875
 30
0.0
 40
2.5
  1
Änderung
  7
ISO Proportional
100
AcDbText
  0
LINE
  5
D5
330
B7
100
AcDbEntity
  8
035
100
AcDbLine
 10
17.80000000000007
 20
22.0
 30
0.0
 11
72.39999999999986
 21
22.0
 31
0.0
  0
LINE
  5
D6
330
B7
100
AcDbEntity
  8
035
100
AcDbLine
 10
17.80000000000007
 20
17.75
 30
0.0
 11
72.39999999999986
 21
17.75
 31
0.0
  0
LINE
  5
D7
330
B7
100
AcDbEntity
  8
035
100
AcDbLine
 10
17.80000000000007
 20
13.5
 30
0.0
 11
72.39999999999986
 21
13.5
 31
0.0
  0
TEXT
  5
D8
330
B7
100
AcDbEntity
  8
025
100
AcDbText
 10
19.40366595510693
 20
55.8125
 30
0.0
 40
2.5
  1
(Verwendungsbereich)
  7
ISO Proportional
100
AcDbText
  0
LINE
  5
D9
330
B7
100
AcDbEntity
  8
035
100
AcDbLine
 10
98.4000000000001
 20
60.25
 30
0.0
 11
98.39999999999987
 21
22.0
 31
0.0
  0
LINE
  5
DA
330
B7
100
AcDbEntity
  8
035
100
AcDbLine
 10
82.79999999999995
 20
43.25
 30
0.0
 11
82.79999999999995
 21
26.25
 31
0.0
  0
TEXT
  5
DB
330
B7
100
AcDbEntity
  8
025
100
AcDbText
 10
86.62791085491745
 20
39.875
 30
0.0
 40
2.5
  1
Datum
  7
ISO Proportional
100
AcDbText
  0
TEXT
  5
DC
330
B7
100
AcDbEntity
  8
025
100
AcDbText
 10
72.89893356388415
 20
35.625
 30
0.0
 40
2.5
  1
Bearb.
  7
ISO Proportional
100
AcDbText
  0
TEXT
  5
DD
330
B7
100
AcDbEntity
  8
025
100
AcDbText
 10
72.89893356388415
 20
31.375
 30
0.0
 40
2.5
  1
Gepr.
  7
ISO Proportional
100
AcDbText
  0
TEXT
  5
DE
330
B7
100
AcDbEntity
  8
025
100
AcDbText
 10
72.89893356388415
 20
27.125
 30
0.0
 40
2.5
  1
Norm
  7
ISO Proportional
100
AcDbText
  0
ATTDEF
  5
DF
330
B7
100
AcDbEntity
  8
025
100
AcDbText
 10
83.45502135033758
 20
31.45603256725528
 30
0.0
 40
2.5
  1
00.00.00
  7
ISO Proportional
100
AcDbAttributeDefinition
  3
Geprüft am
  2
GEPRÜFT
 70
     0
  0
ATTDEF
  5
E0
330
B7
100
AcDbEntity
  8
025
100
AcDbText
 10
83.45502135033758
 20
35.70603256725528
 30
0.0
 40
2.5
  1
00.00.00
  7
ISO Proportional
100
AcDbAttributeDefinition
  3
Bearbeitet am
  2
BEARBEIT.
 70
     0
  0
MTEXT
  5
E1
330
B7
100
AcDbEntity
  8
025
100
AcDbMText
 10
73.63255960350556
 20
58.475493291171
 30
0.0
 40
2.5
 41
24.7674
 71
     1
 72
     5
  1
(Zul. Abw.)
  7
ISO Proportional
 73
     1
 44
1.0
  0
LINE
  5
E2
330
B7
100
AcDbEntity
  8
035
100
AcDbLine
 10
191.9999999999997
 20
13.5
 30
0.0
 11
204.9999999999998
 21
13.5
 31
0.0
  0
TEXT
  5
E3
330
B7
100
AcDbEntity
  8
025
100
AcDbText
 10
192.9084594911223
 20
18.63219445009372
 30
0.0
 40
2.5
  1
Blatt
  7
ISO Proportional
100
AcDbText
  0
LINE
  5
E4
330
B7
100
AcDbEntity
  8
035
100
AcDbLine
 10
116.6000000000001
 20
53.875
 30
0.0
 11
205.0
 21
53.875
 31
0.0
  0
LINE
  5
E5
330
B7
100
AcDbEntity
  8
035
100
AcDbLine
 10
160.7999999999999
 20
9.25
 30
0.0
 11
160.7999999999999
 21
4.999999999999914
 31
0.0
  0
TEXT
  5
E6
330
B7
100
AcDbEntity
  8
025
100
AcDbText
 10
162.4767000439926
 20
5.875
 30
0.0
 40
2.5
  1
(Ers. d.:) 
  7
ISO Proportional
100
AcDbText
  0
TEXT
  5
E7
330
B7
100
AcDbEntity
  8
025
100
AcDbText
 10
118.2767000439926
 20
5.875
 30
0.0
 40
2.5
  1
(Ers. f.:) 
  7
ISO Proportional
100
AcDbText
  0
LINE
  5
E8
330
B7
100
AcDbEntity
  8
07
100
AcDbLine
 10
116.6000000000001
 20
60.25
 30
0.0
 11
116.5999999999999
 21
5.0
 31
0.0
  0
ATTDEF
  5
E9
330
B7
100
AcDbEntity
  8
05
100
AcDbText
 10
144.5007444687057
 20
30.55510922715243
 30
0.0
 40
5.0
  1
Benennung
  7
ISO Proportional
 72
     4
 11
160.5913536854748
 21
32.21450001038332
 31
0.0
100
AcDbAttributeDefinition
  3
Benennung
  2
BENENNUNG
 70
     0
  0
ATTDEF
  5
EA
330
B7
100
AcDbEntity
  8
05
100
AcDbText
 10
147.5035696603033
 20
12.82473610229667
 30
0.0
 40
5.0
  1
XXX
  7
ISO Proportional
 72
     4
 11
154.2535696603033
 21
15.32473610229667
 31
0.0
100
AcDbAttributeDefinition
  3
Zeichnungsnummer
  2
ZEICHNUNGSNUMMER
 70
     0
  0
TEXT
  5
EB
330
B7
100
AcDbEntity
  8
025
100
AcDbText
 10
117.7620476356917
 20
50.34635004497818
 30
0.0
 40
2.5
  1
(Werkstoff, Halbzeug)
  7
ISO Proportional
100
AcDbText
  0
TEXT
  5
EC
330
B7
100
AcDbEntity
  8
025
100
AcDbText
 10
117.7620476356917
 20
44.125
 30
0.0
 40
2.5
  1
(Modell- oder Gesenk-Nr)
  7
ISO Proportional
100
AcDbText
  0
TEXT
  5
ED
330
B7
100
AcDbEntity
  8
025
100
AcDbText
 10
117.7262599024914
 20
55.8125
 30
0.0
 40
2.5
  1
Maßstab
  7
ISO Proportional
100
AcDbText
  0
TEXT
  5
EE
330
B7
100
AcDbEntity
  8
025
100
AcDbText
 10
117.7620476356917
 20
47.25715873595925
 30
0.0
 40
2.5
  1
(Rohteil-Nr)
  7
ISO Proportional
100
AcDbText
  0
ATTDEF
  5
EF
330
B7
100
AcDbEntity
  8
025
100
AcDbText
 10
133.3916231867285
 20
55.8125
 30
0.0
 40
2.5
  1
1:1
  7
ISO Proportional
100
AcDbAttributeDefinition
  3
Maßstab
  2
MAßSTAB
 70
     0
  0
LINE
  5
F0
330
B7
100
AcDbEntity
  8
07
100
AcDbLine
 10
191.9999999999997
 20
22.0
 30
0.0
 11
191.9999999999997
 21
9.25
 31
0.0
  0
TEXT
  5
F1
330
B7
100
AcDbEntity
  8
025
100
AcDbText
 10
169.7262599024914
 20
55.8125
 30
0.0
 40
2.5
  1
(Gewicht)
  7
ISO Proportional
100
AcDbText
  0
LINE
  5
F2
330
B7
100
AcDbEntity
  8
035
100
AcDbLine
 10
168.6000000000001
 20
60.24999999999995
 30
0.0
 11
168.6000000000001
 21
53.875
 31
0.0
  0
LINE
  5
F3
330
B7
100
AcDbEntity
  8
07
100
AcDbLine
 10
205.0
 20
60.25
 30
0.0
 11
205.0
 21
5.0
 31
0.0
  0
TEXT
  5
F4
330
B7
100
AcDbEntity
  8
025
100
AcDbText
 10
200.2395612107086
 20
10.25579083555396
 30
0.0
 40
2.5
  1
Bl.
  7
ISO Proportional
100
AcDbText
  0
TEXT
  5
F5
330
B7
100
AcDbEntity
  8
035
100
AcDbText
 10
35.55261311726667
 20
292.5
 30
0.0
 40
3.5
  1
1
  7
ISO Proportional
100
AcDbText
  0
LINE
  5
F6
330
B7
100
AcDbEntity
  8
035
100
AcDbLine
 10
55.0
 20
297.0
 30
0.0
 11
55.0
 21
292.0
 31
0.0
  0
TEXT
  5
F7
330
B7
100
AcDbEntity
  8
035
100
AcDbText
 10
78.72837483628541
 20
292.5
 30
0.0
 40
3.5
  1
2
  7
ISO Proportional
100
AcDbText
  0
LINE
  5
F8
330
B7
100
AcDbEntity
  8
035
100
AcDbLine
 10
105.0
 20
297.0
 30
0.0
 11
105.0
 21
292.0
 31
0.0
  0
TEXT
  5
F9
330
B7
100
AcDbEntity
  8
035
100
AcDbText
 10
128.6807995647082
 20
292.5
 30
0.0
 40
3.5
  1
3
  7
ISO Proportional
100
AcDbText
  0
LINE
  5
FA
330
B7
100
AcDbEntity
  8
035
100
AcDbLine
 10
155.0
 20
297.0
 30
0.0
 11
155.0
 21
292.0000000000001
 31
0.0
  0
TEXT
  5
FB
330
B7
100
AcDbEntity
  8
035
100
AcDbText
 10
178.3826730656276
 20
292.5
 30
0.0
 40
3.5
  1
4
  7
ISO Proportional
100
AcDbText
  0
LINE
  5
FC
330
B7
100
AcDbEntity
  8
035
100
AcDbLine
 10
205.0
 20
297.0
 30
0.0
 11
205.0
 21
292.0
 31
0.0
  0
LINE
  5
FD
330
B7
100
AcDbEntity
  8
07
100
AcDbLine
 10
105.0
 20
292.0
 30
0.0
 11
105.0
 21
282.0
 31
0.0
  0
LINE
  5
FE
330
B7
100
AcDbEntity
  8
07
100
AcDbLine
 10
17.80000000000008
 20
148.5
 30
0.0
 11
27.80000000000008
 21
148.5
 31
0.0
  0
TEXT
  5
FF
330
B7
100
AcDbEntity
  8
035
100
AcDbText
 10
13.81688612412417
 20
21.75425439925448
 30
0.0
 40
3.5
  1
F
  7
ISO Proportional
100
AcDbText
  0
LINE
  5
100
330
B7
100
AcDbEntity
  8
035
100
AcDbLine
 10
17.80000000000008
 20
48.5
 30
0.0
 11
12.81688612412416
 21
48.5
 31
0.0
  0
TEXT
  5
101
330
B7
100
AcDbEntity
  8
035
100
AcDbText
 10
14.0168861241241
 20
71.75425439925447
 30
0.0
 40
3.5
  1
E
  7
ISO Proportional
100
AcDbText
  0
LINE
  5
102
330
B7
100
AcDbEntity
  8
035
100
AcDbLine
 10
17.98311387587593
 20
98.53791884945735
 30
0.0
 11
13.00000000000001
 21
98.53791884945735
 31
0.0
  0
TEXT
  5
103
330
B7
100
AcDbEntity
  8
035
100
AcDbText
 10
13.80000000000008
 20
121.7921732487118
 30
0.0
 40
3.5
  1
D
  7
ISO Proportional
100
AcDbText
  0
LINE
  5
104
330
B7
100
AcDbEntity
  8
035
100
AcDbLine
 10
17.78311387587599
 20
148.5379188494573
 30
0.0
 11
12.80000000000008
 21
148.5379188494573
 31
0.0
  0
TEXT
  5
105
330
B7
100
AcDbEntity
  8
035
100
AcDbText
 10
13.80000000000008
 20
171.7921732487118
 30
0.0
 40
3.5
  1
C
  7
ISO Proportional
100
AcDbText
  0
LINE
  5
106
330
B7
100
AcDbEntity
  8
035
100
AcDbLine
 10
17.78311387587599
 20
198.5379188494573
 30
0.0
 11
12.80000000000008
 21
198.5379188494573
 31
0.0
  0
TEXT
  5
107
330
B7
100
AcDbEntity
  8
035
100
AcDbText
 10
13.80000000000008
 20
221.7921732487118
 30
0.0
 40
3.5
  1
B
  7
ISO Proportional
100
AcDbText
  0
LINE
  5
108
330
B7
100
AcDbEntity
  8
035
100
AcDbLine
 10
17.76622775175191
 20
248.5758376989147
 30
0.0
 11
12.78311387587599
 21
248.5758376989147
 31
0.0
  0
TEXT
  5
109
330
B7
100
AcDbEntity
  8
035
100
AcDbText
 10
13.78311387587599
 20
271.8300920981692
 30
0.0
 40
3.5
  1
A
  7
ISO Proportional
100
AcDbText
  0
LWPOLYLINE
  5
10A
330
B7
100
AcDbEntity
  8
035
100
AcDbPolyline
 90
        4
 70
     1
 43
0.0
 10
0.0
 20
0.0
 10
210.0
 20
0.0
 10
210.0
 20
297.0
 10
0.0
 20
297.0
  0
LINE
  5
10B
330
B7
100
AcDbEntity
  8
035
100
AcDbLine
 10
12.80000000000004
 20
292.0
 30
0.0
 11
12.80000000000007
 21
5.0
 31
0.0
  0
LINE
  5
10C
330
B7
100
AcDbEntity
  8
07
100
AcDbLine
 10
18.0
 20
5.0
 30
0.0
 11
205.0
 21
5.0
 31
0.0
  0
LINE
  5
10D
330
B7
100
AcDbEntity
  8
07
100
AcDbLine
 10
205.0
 20
5.0
 30
0.0
 11
205.0
 21
292.0
 31
0.0
  0
LINE
  5
10E
330
B7
100
AcDbEntity
  8
07
100
AcDbLine
 10
205.0
 20
292.0
 30
0.0
 11
17.99999999999997
 21
292.0
 31
0.0
  0
LINE
  5
10F
330
B7
100
AcDbEntity
  8
07
100
AcDbLine
 10
17.80000000000004
 20
292.0
 30
0.0
 11
17.80000000000007
 21
5.0
 31
0.0
  0
LINE
  5
110
330
B7
100
AcDbEntity
  8
035
100
AcDbLine
 10
17.80000000000004
 20
292.0
 30
0.0
 11
12.80000000000004
 21
292.0
 31
0.0
  0
LINE
  5
111
330
B7
100
AcDbEntity
  8
035
100
AcDbLine
 10
17.80000000000007
 20
5.0
 30
0.0
 11
12.80000000000007
 21
5.0
 31
0.0
  0
LINE
  5
112
330
B7
100
AcDbEntity
  8
035
100
AcDbLine
 10
17.99999999999997
 20
297.0
 30
0.0
 11
17.99999999999997
 21
292.0
 31
0.0
  0
ENDBLK
  5
114
330
B7
100
AcDbEntity
  8
0
100
AcDbBlockEnd
  0
ENDSEC
  0
SECTION
  2
ENTITIES
  0
VIEWPORT
  5
2E
330
1B
100
AcDbEntity
 67
     1
  8
0
100
AcDbViewport
 10
276.6732313436819
 20
146.7765347733278
 30
0.0
 40
829.9772736053895
 41
392.1789776876531
 68
     1
 69
     1
 12
276.6732313436819
 22
146.7765347733278
 13
0.0
 23
0.0
 14
10.0
 24
10.0
 15
10.0
 25
10.0
 16
0.0
 26
0.0
 36
1.0
 17
0.0
 27
0.0
 37
0.0
 42
50.0
 43
0.0
 44
0.0
 45
392.1789776876531
 50
0.0
 51
0.0
 72
  1000
 90
    32864
  1

281
     0
 71
     1
 74
     0
110
0.0
120
0.0
130
0.0
111
1.0
121
0.0
131
0.0
112
0.0
122
1.0
132
0.0
 79
     0
146
0.0
170
     0
  0
SPLINE
  5
16D
330
1B
100
AcDbEntity
 67
     1
  8
0
  6
Continuous
100
AcDbSpline
210
0.0
220
0.0
230
1.0
 70
     8
 71
     3
 72
   144
 73
   140
 74
     0
 42
0.0000000001
 43
0.0000000001
 40
0.0
 40
0.0
 40
0.0
 40
0.0
 40
2.02793845945684
 40
2.728883668306081
 40
3.435477697855333
 40
3.863178511804989
 40
4.822857539250796
 40
6.512081229921271
 40
7.535384578713021
 40
8.281155349815342
 40
13.37607550312521
 40
14.13168346823235
 40
14.77376588410071
 40
15.66073346862774
 40
17.50589974254842
 40
19.35106601646912
 40
19.78460507210005
 40
19.78460507210005
 40
19.78460507210005
 40
20.00948691620756
 40
20.00948691620756
 40
20.00948691620756
 40
20.25457168788591
 40
20.5048750795119
 40
20.90028324994865
 40
20.90028324994865
 40
20.90028324994865
 40
21.05068500371789
 40
21.05068500371789
 40
21.05068500371789
 40
22.31561892414155
 40
22.31561892414155
 40
22.31561892414155
 40
22.6655740344556
 40
22.6655740344556
 40
22.6655740344556
 40
23.661053464109
 40
23.95695056103304
 40
26.16955534141185
 40
28.79336985272006
 40
30.30218097436908
 40
32.51866193419137
 40
32.86512782500901
 40
33.39147368589145
 40
34.02189651687442
 40
34.15303846067909
 40
35.02087177496772
 40
36.45794029274327
 40
37.43578502596083
 40
39.13070611972106
 40
39.98042478286341
 40
40.81570766876768
 40
43.20622009087037
 40
43.486175648018
 40
44.09421433155627
 40
44.35990764888358
 40
44.68765835433713
 40
45.54824868341481
 40
45.95934452927088
 40
46.19794443630058
 40
46.61768234813196
 40
47.11596701103474
 40
47.83328447102447
 40
49.30099228593704
 40
50.67635131562678
 40
51.86989764339596
 40
53.05868824564999
 40
54.01315000980175
 40
54.2086108324095
 40
54.52053427558142
 40
54.52053427558142
 40
54.52053427558142
 40
54.92635974332614
 40
54.92635974332614
 40
54.92635974332614
 40
55.05938998337768
 40
55.19242022342925
 40
55.45848070353234
 40
55.45848070353234
 40
55.45848070353234
 40
56.29974825617754
 40
56.29974825617754
 40
56.29974825617754
 40
56.9024524933877
 40
59.59106497251354
 40
62.00128243660964
 40
63.78701443999903
 40
65.18977631845817
 40
66.72499466352263
 40
67.85981225472301
 40
68.99462984592337
 40
69.21673589380164
 40
69.36748540706625
 40
69.66292180618322
 40
70.03780210050788
 40
70.69531465760462
 40
70.90406925986385
 40
71.45339906547921
 40
71.90547246298661
 40
72.48413214055199
 40
73.00414147153927
 40
75.88200465788823
 40
76.32786000193006
 40
76.66126105271977
 40
77.0172297548008
 40
77.55371910872614
 40
78.71657322740826
 40
79.05356824181679
 40
79.5378792822013
 40
80.04922704030224
 40
80.69689733689139
 40
81.95290538238449
 40
82.35615980043553
 40
83.05409596154675
 40
84.22979998763528
 40
86.61044047868873
 40
88.14421926616423
 40
88.91812718078549
 40
89.87571927221356
 40
90.42532676284919
 40
90.89227389038182
 40
91.42352993097187
 40
91.75591157414515
 40
92.33856393322321
 40
93.2467330851631
 40
94.15812885117658
 40
94.98626790875354
 40
95.97414687185079
 40
96.71995876208885
 40
97.12227627319272
 40
97.77025450105377
 40
97.83956791104213
 40
98.54723427850828
 40
99.22392310055478
 40
99.55727212419526
 40
99.95982557036278
 40
100.4311039270081
 40
100.8273124398193
 40
101.013250685726
 40
101.013250685726
 40
101.013250685726
 40
101.013250685726
 10
46.44372844462444
 20
40.91391208736439
 30
0.0
 10
46.83213496153782
 20
40.30971479122229
 30
0.0
 10
47.10838249069583
 20
39.47503409878749
 30
0.0
 10
46.57248418426678
 20
38.10368052826317
 30
0.0
 10
47.38423325427745
 20
38.03066395137773
 30
0.0
 10
47.93448976185359
 20
37.59691937799997
 30
0.0
 10
49.04558247830582
 20
37.91091472059964
 30
0.0
 10
50.16672637268188
 20
38.34623952883342
 30
0.0
 10
50.8903820867534
 20
39.35312827082248
 30
0.0
 10
51.08431465979368
 20
41.59638751214674
 30
0.0
 10
51.85704476181999
 20
44.76537701399752
 30
0.0
 10
53.63094200913909
 20
44.57329959277674
 30
0.0
 10
54.6058631677771
 20
45.26712337737916
 30
0.0
 10
54.35886417370671
 20
46.62892309738668
 30
0.0
 10
53.68082617610787
 20
47.83772093492731
 30
0.0
 10
53.26208894912416
 20
48.06349548064886
 30
0.0
 10
52.8244631209732
 20
48.35804593468941
 30
0.0
 10
52.74120185599267
 20
48.41408614490188
 30
0.0
 10
52.89503852864064
 20
48.58885276241903
 30
0.0
 10
53.04887520128859
 20
48.76361937993618
 30
0.0
 10
53.20271187393661
 20
48.93838599745331
 30
0.0
 10
52.95617893960884
 20
49.2483618040934
 30
0.0
 10
52.45786361510171
 20
49.87491377004644
 30
0.0
 10
51.72426261031191
 20
50.50561587013513
 30
0.0
 10
51.46638057584661
 20
50.7322520170112
 30
0.0
 10
51.30846383805317
 20
50.87103501154953
 30
0.0
 10
51.22517858867121
 20
50.91000208991864
 30
0.0
 10
51.14189333928924
 20
50.9489691682877
 30
0.0
 10
51.0586080899073
 20
50.98793624665677
 30
0.0
 10
50.98627099088592
 20
51.00299326637716
 30
0.0
 10
50.91393389186459
 20
51.01805028609755
 30
0.0
 10
50.84159679284327
 20
51.03310730581799
 30
0.0
 10
50.82342222131654
 20
51.20844447085324
 30
0.0
 10
50.80524764978981
 20
51.38378163588853
 30
0.0
 10
50.78707307826305
 20
51.55911880092381
 30
0.0
 10
50.75880015254984
 20
51.89371510408529
 30
0.0
 10
50.72212335992493
 20
52.32776707835132
 30
0.0
 10
49.98647515773408
 20
53.25976550067455
 30
0.0
 10
49.86034265747365
 20
55.06560659668088
 30
0.0
 10
49.2386010133967
 20
57.05972757311934
 30
0.0
 10
48.44314773064898
 20
59.04751684966334
 30
0.0
 10
47.6509560145849
 20
60.11575489650261
 30
0.0
 10
46.75879010419012
 20
60.79842529321829
 30
0.0
 10
46.96096683757929
 20
61.35567947431536
 30
0.0
 10
46.93126925130809
 20
61.76305013620009
 30
0.0
 10
46.95721424146547
 20
62.3182800599624
 30
0.0
 10
46.11384615808769
 20
62.81282099275251
 30
0.0
 10
45.54174162371928
 20
63.68147608902319
 30
0.0
 10
44.56639364327187
 20
64.69402652330464
 30
0.0
 10
44.35456535853162
 20
65.9164118435769
 30
0.0
 10
44.27116224731929
 20
67.01754682472375
 30
0.0
 10
44.31366601735246
 20
68.45214939287228
 30
0.0
 10
42.99636903029372
 20
69.05346831367651
 30
0.0
 10
42.39094428978979
 20
69.96017285699173
 30
0.0
 10
41.97588548129885
 20
70.12755180132845
 30
0.0
 10
41.55916221096648
 20
69.93193760449111
 30
0.0
 10
41.24651868195601
 20
70.42511696154924
 30
0.0
 10
41.01914989352664
 20
70.82861996561146
 30
0.0
 10
40.90929057636532
 20
71.39259349456049
 30
0.0
 10
40.54574216122536
 20
71.50648188535715
 30
0.0
 10
40.27954304513857
 20
71.80167594530402
 30
0.0
 10
39.70602973544141
 20
71.88932899291183
 30
0.0
 10
39.12486741349893
 20
72.64202076901435
 30
0.0
 10
38.67877528865675
 20
73.72281770458124
 30
0.0
 10
38.33369087311555
 20
75.05659705461153
 30
0.0
 10
38.47633190509676
 20
76.29479726319141
 30
0.0
 10
38.768545183451
 20
77.4457847004563
 30
0.0
 10
38.71052831794376
 20
77.30280038581802
 30
0.0
 10
39.18730849947775
 20
78.75663730279654
 30
0.0
 10
39.09037527797801
 20
78.82803561554732
 30
0.0
 10
39.03078386719297
 20
78.87192898996184
 30
0.0
 10
39.00245536672908
 20
78.87221979085672
 30
0.0
 10
38.97412686626524
 20
78.87251059175162
 30
0.0
 10
38.94579836580138
 20
78.87280139264652
 30
0.0
 10
38.86487355517774
 20
78.84781897586404
 30
0.0
 10
38.70302393393032
 20
78.79785414229911
 30
0.0
 10
38.44791116962202
 20
78.67149854412449
 30
0.0
 10
38.26450470666393
 20
78.55164968786453
 30
0.0
 10
38.14223373135855
 20
78.47175045035783
 30
0.0
 10
37.93108620892784
 20
78.30156732941367
 30
0.0
 10
37.71993868649706
 20
78.13138420846946
 30
0.0
 10
37.50879116406635
 20
77.96120108752532
 30
0.0
 10
37.32654698921623
 20
77.79745720537363
 30
0.0
 10
36.33132700882312
 20
76.90326575415983
 30
0.0
 10
35.37245923664878
 20
75.44881559715597
 30
0.0
 10
34.81571364491585
 20
73.11673150014937
 30
0.0
 10
34.78629378074143
 20
71.27891270796215
 30
0.0
 10
35.01248803434503
 20
69.63890950590976
 30
0.0
 10
35.44170892726504
 20
68.6019361676407
 30
0.0
 10
36.36281578559206
 20
66.8462730738174
 30
0.0
 10
36.58011149759563
 20
66.68495880722232
 30
0.0
 10
36.80529058004119
 20
66.13331621181007
 30
0.0
 10
37.06491215151564
 20
66.15131792573368
 30
0.0
 10
37.15518587126589
 20
65.81946756124455
 30
0.0
 10
37.61529518922293
 20
65.7084997628348
 30
0.0
 10
37.94511198721596
 20
65.43788873068476
 30
0.0
 10
38.45677680359925
 20
65.46421763666391
 30
0.0
 10
38.59390387223923
 20
64.97120514465229
 30
0.0
 10
39.01035231077086
 20
64.65910783721444
 30
0.0
 10
39.44379976589265
 20
64.36592675943311
 30
0.0
 10
40.28954852656747
 20
63.34616090457598
 30
0.0
 10
41.08149133992414
 20
62.20674474213826
 30
0.0
 10
41.13741661073873
 20
60.98235113271704
 30
0.0
 10
41.33292836536916
 20
60.62675007302252
 30
0.0
 10
41.14208412048263
 20
60.22301186353766
 30
0.0
 10
41.13946300401775
 20
59.58740104666785
 30
0.0
 10
41.386973164921
 20
58.58042660821524
 30
0.0
 10
42.2536849409101
 20
58.893312348204
 30
0.0
 10
42.05233395483875
 20
58.22755421030257
 30
0.0
 10
42.3666290344267
 20
57.78814226097225
 30
0.0
 10
42.16247963489102
 20
56.92527506076624
 30
0.0
 10
42.68603087457697
 20
56.24788066111808
 30
0.0
 10
43.23488181943988
 20
55.69747845680513
 30
0.0
 10
43.71807811595789
 20
55.10899415195209
 30
0.0
 10
44.74086829671276
 20
54.10640518329373
 30
0.0
 10
45.26600610356666
 20
52.42086336491602
 30
0.0
 10
45.69166349281069
 20
50.94803300074395
 30
0.0
 10
45.45269795678388
 20
49.74222633992756
 30
0.0
 10
45.97666407357549
 20
49.35806287622511
 30
0.0
 10
46.20020189991534
 20
49.17539839197883
 30
0.0
 10
46.67739934930613
 20
49.29441602884583
 30
0.0
 10
46.09438106786129
 20
48.77795527000959
 30
0.0
 10
46.15157678333187
 20
48.71871977891615
 30
0.0
 10
45.42726941416828
 20
48.09862776977118
 30
0.0
 10
44.862159556273
 20
47.35486354898273
 30
0.0
 10
44.65350748027418
 20
46.96273237506599
 30
0.0
 10
43.6457682478998
 20
45.6885822735538
 30
0.0
 10
43.53785602971345
 20
45.43373465794909
 30
0.0
 10
43.03875610932829
 20
45.23099379057313
 30
0.0
 10
42.53944327346104
 20
44.89652919852136
 30
0.0
 10
42.2620544929924
 20
44.78036839408409
 30
0.0
 10
42.14043568611013
 20
43.86428420704757
 30
0.0
 10
42.21986705462277
 20
43.86125112231979
 30
0.0
 10
42.20406760252679
 20
43.25796285115382
 30
0.0
 10
42.42427164675155
 20
42.83723063699582
 30
0.0
 10
42.71755624151944
 20
42.52948955272882
 30
0.0
 10
43.15411999386793
 20
42.48778759146088
 30
0.0
 10
43.47815444980681
 20
42.3154301843646
 30
0.0
 10
43.66671698654646
 20
42.32291707706972
 30
0.0
 10
43.72754129132172
 20
42.33130553794814
 30
0.0
  0
LWPOLYLINE
  5
16E
330
1B
100
AcDbEntity
 67
     1
  8
0
  6
Continuous
100
AcDbPolyline
 90
        3
 70
     0
 43
0.0
 10
49.25241186807345
 20
46.71934547123743
 10
48.09110969799458
 20
47.66875437669924
 10
43.72754129132172
 20
42.33130553794814
  0
LWPOLYLINE
  5
16F
330
1B
100
AcDbEntity
 67
     1
  8
0
  6
Continuous
100
AcDbPolyline
 90
        3
 70
     0
 43
0.0
 10
46.44372844462516
 20
40.91391208736331
 10
50.41371403815233
 20
45.76993656577565
 10
49.25241186807347
 20
46.71934547123743
  0
ENDSEC
  0
SECTION
  2
OBJECTS
  0
DICTIONARY
  5
C
330
0
100
AcDbDictionary
281
     1
  3
ACAD_COLOR
350
120
  3
ACAD_GROUP
350
D
  3
ACAD_LAYOUT
350
1A
  3
ACAD_MATERIAL
350
11F
  3
ACAD_MLINESTYLE
350
17
  3
ACAD_PLOTSETTINGS
350
19
  3
ACAD_PLOTSTYLENAME
350
E
  3
AcDbVariableDictionary
350
9F
  0
DICTIONARY
  5
158
330
2
100
AcDbDictionary
280
     1
281
     1
  3
ACAD_LAYERSTATES
360
159
  0
DICTIONARY
  5
120
102
{ACAD_REACTORS
330
C
102
}
330
C
100
AcDbDictionary
281
     1
  0
DICTIONARY
  5
D
102
{ACAD_REACTORS
330
C
102
}
330
C
100
AcDbDictionary
281
     1
  0
DICTIONARY
  5
1A
102
{ACAD_REACTORS
330
C
102
}
330
C
100
AcDbDictionary
281
     1
  3
DIN A4 Title Block
350
1E
  3
Model
350
22
  0
DICTIONARY
  5
11F
102
{ACAD_REACTORS
330
C
102
}
330
C
100
AcDbDictionary
281
     1
  0
DICTIONARY
  5
17
102
{ACAD_REACTORS
330
C
102
}
330
C
100
AcDbDictionary
281
     1
  3
Standard
350
18
  0
DICTIONARY
  5
19
102
{ACAD_REACTORS
330
C
102
}
330
C
100
AcDbDictionary
281
     1
  3
DIN A4 title block - no output device
350
7E
  0
ACDBDICTIONARYWDFLT
  5
E
102
{ACAD_REACTORS
330
C
102
}
330
C
100
AcDbDictionary
281
     1
  3
Normal
350
F
100
AcDbDictionaryWithDefault
340
F
  0
DICTIONARY
  5
9F
102
{ACAD_REACTORS
330
C
102
}
330
C
100
AcDbDictionary
281
     1
  3
DIMASSOC
350
A1
  3
HIDETEXT
350
A0
  0
DICTIONARY
  5
159
102
{ACAD_REACTORS
330
158
102
}
330
158
100
AcDbDictionary
281
     1
  0
LAYOUT
  5
1E
102
{ACAD_REACTORS
330
1A
102
}
330
1A
100
AcDbPlotSettings
  1
DIN A4 title block - no output device
  2
none_device
  4
ISO_A4_(210.00_x_297.00_MM)
  6

 40
7.549999999999999
 41
20.05
 42
7.549999999999999
 43
20.05
 44
210.0
 45
297.0
 46
-7.559999999999999
 47
-20.06
 48
0.0
 49
0.0
140
0.0
141
0.0
142
1.0
143
1.0
 70
   692
 72
     1
 73
     0
 74
     1
  7

 75
    16
147
1.0
 76
     0
 77
     2
 78
   300
148
0.0125160616987046
149
0.0087425192513138
100
AcDbLayout
  1
DIN A4 Title Block
 70
     1
 71
     1
 10
-0.0025160616987048
 20
0.0012574807486843
 11
209.9974839383013
 21
297.0012574807487
 12
0.0
 22
0.0
 32
0.0
 14
-124.1217456465556
 24
0.0
 34
0.0
 15
680.2661690848606
 25
345.2316954776694
 35
0.0
146
0.0
 13
0.0
 23
0.0
 33
0.0
 16
1.0
 26
0.0
 36
0.0
 17
0.0
 27
1.0
 37
0.0
 76
     0
330
1B
331
2E
  0
LAYOUT
  5
22
102
{ACAD_REACTORS
330
1A
102
}
330
1A
100
AcDbPlotSettings
  1

  2
none_device
  4
ANSI_A_(8.50_x_11.00_Inches)
  6

 40
6.349999904632568
 41
19.04999923706055
 42
6.350006103515625
 43
19.04998779296875
 44
215.8999938964844
 45
279.3999938964844
 46
0.0
 47
0.0
 48
0.0
 49
0.0
140
0.0
141
0.0
142
1.0
143
59.28892802841843
 70
 11952
 72
     0
 73
     1
 74
     0
  7

 75
     0
147
0.0168665555821937
 76
     0
 77
     2
 78
   300
148
45.96799130115901
149
624.965926703681
100
AcDbLayout
  1
Model
 70
     1
 71
     0
 10
0.0
 20
0.0
 11
12.0
 21
9.0
 12
0.0
 22
0.0
 32
0.0
 14
0.0
 24
0.0
 34
0.0
 15
0.0
 25
0.0
 35
0.0
146
0.0
 13
0.0
 23
0.0
 33
0.0
 16
1.0
 26
0.0
 36
0.0
 17
0.0
 27
1.0
 37
0.0
 76
     0
330
1F
  0
MLINESTYLE
  5
18
102
{ACAD_REACTORS
330
17
102
}
330
17
100
AcDbMlineStyle
  2
STANDARD
 70
     0
  3

 62
   256
 51
90.0
 52
90.0
 71
     2
 49
0.5
 62
   256
  6
BYLAYER
 49
-0.5
 62
   256
  6
BYLAYER
  0
PLOTSETTINGS
  5
7E
102
{ACAD_REACTORS
330
19
102
}
330
19
100
AcDbPlotSettings
  1
DIN A4 title block - no output device
  2
None
  4
ISO_A4_(210.00_x_297.00_MM)
  6

 40
7.549999999999999
 41
20.05
 42
7.549999999999999
 43
20.05
 44
210.0
 45
297.0
 46
-7.559999999999999
 47
-20.06
 48
0.0
 49
0.0
140
0.0
141
0.0
142
1.0
143
1.0
 70
   692
 72
     1
 73
     0
 74
     1
  7

 75
    16
147
1.0
 76
     0
 77
     2
 78
   300
148
0.0128164049386896
149
0.0090630292066862
  0
ACDBPLACEHOLDER
  5
F
102
{ACAD_REACTORS
330
E
102
}
330
E
  0
DICTIONARYVAR
  5
A1
102
{ACAD_REACTORS
330
9F
102
}
330
9F
100
DictionaryVariables
280
     0
  1
2
  0
DICTIONARYVAR
  5
A0
102
{ACAD_REACTORS
330
9F
102
}
330
9F
100
DictionaryVariables
280
     0
  1
1
  0
ENDSEC
  0
EOF
